<?xml version="1.0" ?>
<svg xmlns="http://www.w3.org/2000/svg" version="1.1" width="512" height="512">
  <defs/>
  <g>
    <path d="M 533.7162475585938 470.4888000488281 C 547.4852905273438 516.6414794921875 548.3889770507812 525.1383666992188 380.48291015625 543.8768310546875 C 317.9044494628906 566.746826171875 295.44610595703125 560.2971801757812 274.71246337890625 516.4972534179688 C 321.068115234375 333.2309265136719 370.30377197265625 315.1916809082031 466.38323974609375 303.6711120605469 C 555.3441162109375 316.05718994140625 556.9334716796875 345.37371826171875 533.7162475585938 470.4888000488281" stroke-width="0.0" fill="rgb(36, 55, 199)" opacity="0.8561281" stroke="rgb(0, 0, 0)" stroke-opacity="1.0" stroke-linecap="round" stroke-linejoin="round"/>
    <path d="M 345.2200927734375 413.904541015625 C 324.21978759765625 501.657470703125 301.8047180175781 528.4478759765625 251.2165985107422 540.6911010742188 C -61.405582427978516 530.09619140625 -60.876956939697266 522.5562133789062 -58.7899284362793 465.5743103027344 C -30.762924194335938 206.04965209960938 -19.319904327392578 215.45994567871094 80.82701110839844 177.9893798828125 C 249.36280822753906 244.01547241210938 274.3714599609375 197.3641815185547 345.2200927734375 413.904541015625" stroke-width="0.0" fill="rgb(235, 255, 131)" opacity="0.5697293" stroke="rgb(0, 0, 0)" stroke-opacity="1.0" stroke-linecap="round" stroke-linejoin="round"/>
    <path d="M 292.7760925292969 336.4022216796875 C 415.0090637207031 337.6850891113281 223.9219512939453 437.4132995605469 231.24105834960938 368.77191162109375 C 140.21192932128906 474.72247314453125 31.115745544433594 356.3785095214844 93.98489379882812 212.60911560058594 C 104.06647491455078 170.42738342285156 58.337806701660156 170.78477478027344 155.76092529296875 159.5244903564453 C 195.49688720703125 252.21875 287.93841552734375 158.5797576904297 292.7760925292969 336.4022216796875" stroke-width="0.0" fill="rgb(0, 0, 53)" opacity="1.0" stroke="rgb(0, 0, 0)" stroke-opacity="1.0" stroke-linecap="round" stroke-linejoin="round"/>
    <path d="M 211.98558044433594 -37.90152359008789 C 190.58450317382812 163.3872528076172 178.38214111328125 150.2467498779297 20.95577049255371 231.7039794921875 C -44.68852615356445 220.39736938476562 -40.08124923706055 201.94412231445312 -15.902730941772461 130.01197814941406 C -16.190303802490234 -17.708452224731445 -9.996477127075195 -23.574756622314453 32.775753021240234 -18.098133087158203 C 196.82273864746094 -23.394615173339844 224.5518341064453 -36.593833923339844 211.98558044433594 -37.90152359008789" stroke-width="0.0" fill="rgb(232, 247, 8)" opacity="0.96963614" stroke="rgb(0, 0, 0)" stroke-opacity="1.0" stroke-linecap="round" stroke-linejoin="round"/>
    <path d="M 508.04608154296875 77.37798309326172 C 420.2773132324219 298.41180419921875 435.85687255859375 392.3280029296875 347.5289001464844 275.8677978515625 C 384.8945007324219 195.7216796875 171.60035705566406 323.8963928222656 220.5706787109375 204.2099151611328 C 239.70530700683594 59.36678695678711 213.9529571533203 11.265542984008789 347.9700012207031 -55.91376876831055 C 564.5215454101562 -9.065459251403809 570.0250854492188 14.263111114501953 508.04608154296875 77.37798309326172" stroke-width="0.0" fill="rgb(0, 0, 97)" opacity="1.0" stroke="rgb(0, 0, 0)" stroke-opacity="1.0" stroke-linecap="round" stroke-linejoin="round"/>
    <path d="M 266.4106140136719 172.55357360839844 C 180.5081024169922 301.8143310546875 255.53175354003906 242.7116241455078 192.71499633789062 268.76654052734375 C 205.41610717773438 196.3983612060547 138.63604736328125 205.4027099609375 101.5476303100586 257.20550537109375 C 154.0376739501953 144.68287658691406 111.01019287109375 60.919410705566406 333.6377258300781 -12.797465324401855 C 359.803955078125 3.9488167762756348 281.5625 -6.053433895111084 266.4106140136719 172.55357360839844" stroke-width="0.0" fill="rgb(0, 0, 77)" opacity="0.9925369" stroke="rgb(0, 0, 0)" stroke-opacity="1.0" stroke-linecap="round" stroke-linejoin="round"/>
    <path d="M 438.2861328125 314.836181640625 C 434.94561767578125 432.42413330078125 477.291259765625 444.69415283203125 296.77728271484375 390.4736022949219 C 79.31230163574219 388.8036804199219 53.833797454833984 422.1817932128906 342.2826232910156 421.9000549316406 C 248.675537109375 247.79896545410156 299.3746643066406 201.12034606933594 342.56396484375 206.5543670654297 C 460.6309814453125 196.35479736328125 453.443603515625 225.88320922851562 438.2861328125 314.836181640625" stroke-width="0.0" fill="rgb(34, 83, 157)" opacity="0.4999681" stroke="rgb(0, 0, 0)" stroke-opacity="1.0" stroke-linecap="round" stroke-linejoin="round"/>
    <path d="M 569.3947143554688 213.7623748779297 C 583.7947387695312 357.4012145996094 588.5307006835938 374.3135681152344 495.4449462890625 426.28851318359375 C 365.2015075683594 405.80010986328125 403.90838623046875 348.07684326171875 362.44921875 272.7457580566406 C 393.68499755859375 131.785888671875 366.6239318847656 61.612003326416016 518.58837890625 1.2221089601516724 C 573.8072509765625 34.94207000732422 576.2267456054688 71.37236785888672 569.3947143554688 213.7623748779297" stroke-width="0.0" fill="rgb(65, 179, 180)" opacity="1.0" stroke="rgb(0, 0, 0)" stroke-opacity="1.0" stroke-linecap="round" stroke-linejoin="round"/>
    <path d="M 405.8734130859375 103.74880981445312 C 400.6018981933594 105.30046081542969 409.3636779785156 254.2330780029297 349.47637939453125 379.4688415527344 C 396.9176025390625 125.37741088867188 141.69615173339844 302.9287109375 208.52427673339844 227.77053833007812 C 187.4089813232422 222.777099609375 263.4733581542969 226.78543090820312 380.1059875488281 236.42449951171875 C 401.1206359863281 75.51175689697266 379.430908203125 108.28498840332031 405.8734130859375 103.74880981445312" stroke-width="0.0" fill="rgb(58, 36, 65)" opacity="1.0" stroke="rgb(0, 0, 0)" stroke-opacity="1.0" stroke-linecap="round" stroke-linejoin="round"/>
    <path d="M 247.3917999267578 278.0041809082031 C 259.50823974609375 259.3760681152344 226.17185974121094 304.4189147949219 244.94839477539062 315.03564453125 C 269.4328918457031 266.26068115234375 251.94802856445312 259.8650817871094 174.30825805664062 262.8521423339844 C 164.04627990722656 196.46278381347656 209.7598114013672 214.36343383789062 221.41685485839844 235.67648315429688 C 255.710693359375 235.38955688476562 230.05560302734375 215.3249969482422 247.3917999267578 278.0041809082031" stroke-width="0.0" fill="rgb(75, 123, 71)" opacity="0.8245128" stroke="rgb(0, 0, 0)" stroke-opacity="1.0" stroke-linecap="round" stroke-linejoin="round"/>
    <path d="M 385.38629150390625 243.2978057861328 C 379.6004333496094 256.52716064453125 376.6972961425781 290.9678955078125 384.3721008300781 391.4450378417969 C 323.62353515625 362.8697509765625 317.92730712890625 372.3680114746094 323.140869140625 329.459228515625 C 328.11602783203125 161.23062133789062 380.0147705078125 222.39825439453125 383.6399230957031 192.4034881591797 C 401.11712646484375 267.6216125488281 383.6814270019531 257.3397521972656 385.38629150390625 243.2978057861328" stroke-width="0.0" fill="rgb(126, 119, 234)" opacity="0.544539" stroke="rgb(0, 0, 0)" stroke-opacity="1.0" stroke-linecap="round" stroke-linejoin="round"/>
    <path d="M 395.66351318359375 82.39273071289062 C 246.55560302734375 97.16316986083984 238.72201538085938 104.00495910644531 115.30204772949219 104.95164489746094 C 157.5760040283203 125.62840270996094 178.514404296875 44.60232162475586 122.9140396118164 158.6630859375 C 146.39572143554688 70.75569915771484 176.30355834960938 23.26895523071289 209.88906860351562 -46.32931900024414 C 404.2508544921875 -59.950286865234375 423.4641418457031 -17.157146453857422 395.66351318359375 82.39273071289062" stroke-width="0.0" fill="rgb(237, 241, 68)" opacity="0.9700368" stroke="rgb(0, 0, 0)" stroke-opacity="1.0" stroke-linecap="round" stroke-linejoin="round"/>
    <path d="M 363.8952941894531 426.7411804199219 C 89.68743896484375 362.1581115722656 347.334228515625 419.388671875 123.50975799560547 412.1786804199219 C 122.3969497680664 316.0687561035156 60.637393951416016 363.0842590332031 369.50018310546875 343.0614013671875 C 225.40281677246094 345.1252136230469 -24.286396026611328 362.809814453125 -56.80023193359375 339.13037109375 C 106.41620635986328 400.4913330078125 518.1383056640625 310.8343200683594 363.8952941894531 426.7411804199219" stroke-width="0.0" fill="rgb(0, 2, 85)" opacity="1.0" stroke="rgb(0, 0, 0)" stroke-opacity="1.0" stroke-linecap="round" stroke-linejoin="round"/>
    <path d="M 497.0828552246094 28.010828018188477 C 467.59820556640625 39.01198959350586 449.2740783691406 62.1031494140625 451.42547607421875 43.29012680053711 C 500.1475524902344 41.00636291503906 488.4649353027344 65.8010025024414 407.856689453125 84.43989562988281 C 385.2706604003906 17.550575256347656 379.1159362792969 -28.07057762145996 425.2864990234375 -32.774261474609375 C 566.0223999023438 18.34699821472168 562.374267578125 21.87346839904785 497.0828552246094 28.010828018188477" stroke-width="0.0" fill="rgb(108, 192, 147)" opacity="1.0" stroke="rgb(0, 0, 0)" stroke-opacity="1.0" stroke-linecap="round" stroke-linejoin="round"/>
    <path d="M 461.4902038574219 420.98809814453125 C 469.49951171875 425.5963134765625 467.6022033691406 416.195556640625 393.07464599609375 418.6477355957031 C 369.43365478515625 441.3816833496094 360.6364440917969 449.42889404296875 379.58282470703125 424.4375 C 386.7701721191406 352.3736267089844 416.5182189941406 326.9002380371094 453.34332275390625 360.95428466796875 C 442.793212890625 399.3332214355469 470.32696533203125 400.8085632324219 461.4902038574219 420.98809814453125" stroke-width="0.0" fill="rgb(101, 151, 177)" opacity="0.6299579" stroke="rgb(0, 0, 0)" stroke-opacity="1.0" stroke-linecap="round" stroke-linejoin="round"/>
    <path d="M 332.98388671875 429.12579345703125 C 334.4316101074219 438.7178039550781 337.6027526855469 480.1793212890625 272.4501647949219 567.0205078125 C 92.3372802734375 589.4619140625 65.69742584228516 568.828125 35.878360748291016 435.4070739746094 C 232.0896759033203 439.8014221191406 265.65838623046875 453.2917175292969 293.12664794921875 457.5591125488281 C 322.16796875 449.8515625 345.7681884765625 438.5922546386719 332.98388671875 429.12579345703125" stroke-width="0.0" fill="rgb(113, 8, 168)" opacity="0.94918203" stroke="rgb(0, 0, 0)" stroke-opacity="1.0" stroke-linecap="round" stroke-linejoin="round"/>
    <path d="M 455.9659118652344 414.2278137207031 C 387.2354431152344 436.3936767578125 381.1608581542969 449.44873046875 375.52032470703125 468.603759765625 C 309.35955810546875 459.64056396484375 322.7119140625 506.39617919921875 310.9195556640625 409.0986328125 C 308.40472412109375 393.7793273925781 290.92431640625 434.5456848144531 330.0351257324219 426.4336853027344 C 430.2272033691406 397.308349609375 435.1564636230469 345.2191162109375 455.9659118652344 414.2278137207031" stroke-width="0.0" fill="rgb(117, 143, 181)" opacity="0.3109622" stroke="rgb(0, 0, 0)" stroke-opacity="1.0" stroke-linecap="round" stroke-linejoin="round"/>
    <path d="M 57.1143684387207 386.88677978515625 C 69.36561584472656 404.77886962890625 71.21170043945312 435.681884765625 -20.25763702392578 458.8890075683594 C -17.530241012573242 391.86834716796875 11.633358001708984 397.1914367675781 24.49246597290039 406.45391845703125 C 47.36085891723633 424.8167419433594 44.020137786865234 405.779296875 45.04317092895508 425.9418640136719 C 33.1937370300293 423.1048583984375 20.372636795043945 378.8260192871094 57.1143684387207 386.88677978515625" stroke-width="0.0" fill="rgb(246, 163, 251)" opacity="0.3692168" stroke="rgb(0, 0, 0)" stroke-opacity="1.0" stroke-linecap="round" stroke-linejoin="round"/>
    <path d="M 354.1868896484375 162.3547821044922 C 337.19671630859375 121.50801849365234 398.3575439453125 120.36165618896484 273.8984375 126.1419677734375 C 351.774658203125 129.34664916992188 358.7150573730469 147.93780517578125 355.08251953125 103.0574951171875 C 190.29415893554688 110.20235443115234 123.00448608398438 133.41148376464844 156.90618896484375 123.63196563720703 C 381.9440002441406 145.58758544921875 337.4430236816406 135.68101501464844 354.1868896484375 162.3547821044922" stroke-width="0.0" fill="rgb(72, 60, 101)" opacity="0.4201264" stroke="rgb(0, 0, 0)" stroke-opacity="1.0" stroke-linecap="round" stroke-linejoin="round"/>
    <path d="M 364.0223693847656 217.23289489746094 C 353.6448974609375 192.54443359375 359.8652648925781 147.78768920898438 359.34161376953125 346.76934814453125 C 349.8338623046875 128.90396118164062 441.2478332519531 226.29298400878906 209.18128967285156 209.86463928222656 C 167.85305786132812 211.09361267089844 442.7973327636719 199.12901306152344 346.6288146972656 195.96385192871094 C 354.309814453125 205.87478637695312 384.6815185546875 209.40045166015625 364.0223693847656 217.23289489746094" stroke-width="0.0" fill="rgb(140, 128, 248)" opacity="0.0" stroke="rgb(0, 0, 0)" stroke-opacity="1.0" stroke-linecap="round" stroke-linejoin="round"/>
    <path d="M 101.8929214477539 310.1022644042969 C 148.4064178466797 388.1350402832031 132.6685333251953 285.32293701171875 166.15536499023438 405.2569885253906 C 14.240947723388672 466.9078674316406 -55.73788070678711 459.900146484375 7.960885524749756 368.3426208496094 C 67.46531677246094 271.944580078125 76.12323760986328 241.89161682128906 146.8873291015625 95.43205261230469 C 151.78565979003906 176.00636291503906 127.03076171875 197.14004516601562 101.8929214477539 310.1022644042969" stroke-width="0.0" fill="rgb(3, 130, 121)" opacity="0.9977573" stroke="rgb(0, 0, 0)" stroke-opacity="1.0" stroke-linecap="round" stroke-linejoin="round"/>
    <path d="M 116.18486022949219 528.0177001953125 C 123.9425277709961 521.8115844726562 111.82440948486328 523.4666748046875 48.0262451171875 558.61669921875 C 34.07678985595703 563.3018188476562 30.095123291015625 553.6626586914062 39.254791259765625 468.43701171875 C 16.101715087890625 435.74737548828125 26.55388069152832 422.914794921875 80.43416595458984 422.5877685546875 C 118.33828735351562 429.576171875 96.16896057128906 484.34075927734375 116.18486022949219 528.0177001953125" stroke-width="0.0" fill="rgb(146, 34, 149)" opacity="1.0" stroke="rgb(0, 0, 0)" stroke-opacity="1.0" stroke-linecap="round" stroke-linejoin="round"/>
    <path d="M 227.26039123535156 138.38406372070312 C 273.6061096191406 219.8280792236328 248.32867431640625 42.90685272216797 295.34808349609375 145.9662322998047 C 262.9988098144531 175.1824493408203 226.02774047851562 145.8006591796875 234.87001037597656 117.88835144042969 C 221.3672332763672 224.5782012939453 296.46441650390625 119.65497589111328 209.62362670898438 132.23004150390625 C 283.2391662597656 107.48687744140625 300.70184326171875 222.37680053710938 227.26039123535156 138.38406372070312" stroke-width="0.0" fill="rgb(163, 53, 58)" opacity="0.0" stroke="rgb(0, 0, 0)" stroke-opacity="1.0" stroke-linecap="round" stroke-linejoin="round"/>
    <path d="M 312.2703857421875 238.01792907714844 C 225.455810546875 224.54180908203125 221.3895263671875 239.7295379638672 230.8748321533203 260.5083923339844 C 258.5823669433594 276.1679992675781 251.95057678222656 276.802978515625 301.2000732421875 268.4197998046875 C 309.9353942871094 213.4284210205078 305.66729736328125 207.91653442382812 264.43975830078125 219.02236938476562 C 304.0557556152344 235.6790313720703 322.3756408691406 212.4686737060547 312.2703857421875 238.01792907714844" stroke-width="0.0" fill="rgb(231, 222, 219)" opacity="0.6226545" stroke="rgb(0, 0, 0)" stroke-opacity="1.0" stroke-linecap="round" stroke-linejoin="round"/>
    <path d="M 273.7876281738281 159.2229461669922 C 217.62059020996094 107.85720825195312 263.90167236328125 121.52237701416016 239.06521606445312 138.06944274902344 C 259.7165832519531 130.7720489501953 124.21566009521484 133.15818786621094 148.86293029785156 122.41139221191406 C 199.50660705566406 116.44954681396484 242.70089721679688 104.42156982421875 229.45103454589844 122.22055053710938 C 230.1399383544922 127.07412719726562 209.78663635253906 116.04706573486328 273.7876281738281 159.2229461669922" stroke-width="0.0" fill="rgb(104, 0, 6)" opacity="0.1290665" stroke="rgb(0, 0, 0)" stroke-opacity="1.0" stroke-linecap="round" stroke-linejoin="round"/>
    <path d="M 370.0801086425781 353.7326965332031 C 342.3964538574219 298.7942199707031 321.8916931152344 313.5382385253906 298.2272644042969 323.2171630859375 C 340.07867431640625 331.29656982421875 291.88726806640625 350.03167724609375 137.08053588867188 350.3282775878906 C 135.29689025878906 317.3611145019531 140.5155487060547 356.46380615234375 313.8646545410156 359.0416564941406 C 274.9613952636719 322.9951477050781 313.29705810546875 312.8266906738281 370.0801086425781 353.7326965332031" stroke-width="0.0" fill="rgb(250, 209, 255)" opacity="0.97840405" stroke="rgb(0, 0, 0)" stroke-opacity="1.0" stroke-linecap="round" stroke-linejoin="round"/>
    <path d="M 66.16155242919922 515.3276977539062 C 48.595035552978516 550.3193969726562 22.844310760498047 540.0333862304688 8.633545875549316 538.0281982421875 C -9.364206314086914 527.7437133789062 -16.68471336364746 520.4232177734375 -37.000572204589844 491.05157470703125 C -42.00721740722656 473.45806884765625 -54.32069778442383 447.6961364746094 3.272165298461914 425.7254333496094 C 77.45179748535156 414.1766052246094 53.12506103515625 422.4743347167969 66.16155242919922 515.3276977539062" stroke-width="0.0" fill="rgb(167, 50, 105)" opacity="0.99487466" stroke="rgb(0, 0, 0)" stroke-opacity="1.0" stroke-linecap="round" stroke-linejoin="round"/>
    <path d="M 161.63198852539062 223.95960998535156 C 296.7889709472656 219.61195373535156 345.3340148925781 212.33209228515625 152.58743286132812 199.01768493652344 C 149.84323120117188 187.80145263671875 149.29110717773438 158.81773376464844 134.46566772460938 165.40187072753906 C 139.3070068359375 188.750732421875 138.69754028320312 134.87445068359375 155.8723602294922 120.68778228759766 C 163.85801696777344 119.07366943359375 156.2000732421875 155.44361877441406 161.63198852539062 223.95960998535156" stroke-width="0.0" fill="rgb(4, 6, 93)" opacity="0.63432425" stroke="rgb(0, 0, 0)" stroke-opacity="1.0" stroke-linecap="round" stroke-linejoin="round"/>
    <path d="M 192.488037109375 125.4744644165039 C 191.9732208251953 120.72172546386719 170.82420349121094 103.93524169921875 137.85910034179688 102.56192016601562 C 139.7061767578125 133.86317443847656 158.16734313964844 120.74392700195312 172.41378784179688 115.22853088378906 C 171.37660217285156 118.90721130371094 208.76454162597656 130.05020141601562 206.60255432128906 119.35198974609375 C 187.69830322265625 111.72649383544922 174.9221649169922 119.59376525878906 192.488037109375 125.4744644165039" stroke-width="0.0" fill="rgb(13, 38, 75)" opacity="0.40685403" stroke="rgb(0, 0, 0)" stroke-opacity="1.0" stroke-linecap="round" stroke-linejoin="round"/>
    <path d="M 415.95281982421875 105.00309753417969 C 420.9037170410156 154.06137084960938 414.2758483886719 131.94622802734375 382.5488586425781 98.56649017333984 C 398.50128173828125 131.0358428955078 415.6866149902344 112.16575622558594 393.25 84.96029663085938 C 339.1045227050781 70.55384826660156 304.59686279296875 3.3574728965759277 366.02398681640625 -68.98048400878906 C 457.6651611328125 24.392301559448242 442.8106384277344 68.3492431640625 415.95281982421875 105.00309753417969" stroke-width="0.0" fill="rgb(137, 194, 149)" opacity="1.0" stroke="rgb(0, 0, 0)" stroke-opacity="1.0" stroke-linecap="round" stroke-linejoin="round"/>
    <path d="M 338.2012939453125 283.2629699707031 C 348.314453125 272.24334716796875 355.3704833984375 255.64300537109375 366.2973937988281 256.73773193359375 C 341.1838684082031 244.52098083496094 312.0398864746094 254.74314880371094 278.1716003417969 258.43780517578125 C 279.2275390625 209.89910888671875 311.68328857421875 212.24258422851562 323.6598815917969 234.6214141845703 C 340.2760314941406 268.1554260253906 329.942626953125 275.3223571777344 338.2012939453125 283.2629699707031" stroke-width="0.0" fill="rgb(255, 250, 226)" opacity="0.97895205" stroke="rgb(0, 0, 0)" stroke-opacity="1.0" stroke-linecap="round" stroke-linejoin="round"/>
    <path d="M 234.61085510253906 264.8810729980469 C 193.2266387939453 255.89578247070312 154.29440307617188 283.7917175292969 148.8727569580078 333.4228515625 C 123.5809326171875 325.2649230957031 140.9166259765625 301.08758544921875 173.20603942871094 292.52093505859375 C 112.94038391113281 292.517333984375 95.7618408203125 258.79437255859375 135.41455078125 227.5482177734375 C 253.80807495117188 230.71173095703125 269.19891357421875 227.25985717773438 234.61085510253906 264.8810729980469" stroke-width="0.0" fill="rgb(255, 255, 240)" opacity="1.0" stroke="rgb(0, 0, 0)" stroke-opacity="1.0" stroke-linecap="round" stroke-linejoin="round"/>
    <path d="M 202.72183227539062 437.2083740234375 C 186.92575073242188 420.9754638671875 177.16213989257812 442.2913818359375 176.70907592773438 422.55316162109375 C 162.36448669433594 411.0984191894531 152.6162567138672 411.0428161621094 144.21420288085938 401.1047668457031 C 140.02157592773438 410.4677429199219 161.05706787109375 401.40509033203125 160.53697204589844 406.3662414550781 C 165.9191436767578 420.39361572265625 183.45803833007812 426.6761779785156 202.72183227539062 437.2083740234375" stroke-width="0.0" fill="rgb(227, 227, 106)" opacity="0.17923315" stroke="rgb(0, 0, 0)" stroke-opacity="1.0" stroke-linecap="round" stroke-linejoin="round"/>
    <path d="M 426.3709716796875 364.2611999511719 C 408.13897705078125 378.4075622558594 425.3542175292969 437.4394836425781 385.1935119628906 451.286376953125 C 304.3847961425781 473.7576904296875 337.7648010253906 432.6089782714844 367.4531555175781 366.9905090332031 C 382.2957458496094 360.1750183105469 376.7640686035156 360.5520324707031 435.66497802734375 362.8019714355469 C 404.9748840332031 394.1085510253906 417.1797790527344 372.6177978515625 426.3709716796875 364.2611999511719" stroke-width="0.0" fill="rgb(0, 134, 207)" opacity="1.0" stroke="rgb(0, 0, 0)" stroke-opacity="1.0" stroke-linecap="round" stroke-linejoin="round"/>
    <path d="M 263.8974914550781 170.1230010986328 C 286.2499084472656 138.26231384277344 268.722900390625 140.11669921875 243.49197387695312 147.3266143798828 C 245.21339416503906 145.9927520751953 258.4941711425781 159.98817443847656 263.3736267089844 96.631591796875 C 227.0738525390625 123.7619857788086 236.0511474609375 138.84564208984375 242.4720001220703 125.7332992553711 C 232.87905883789062 149.78761291503906 234.4747314453125 167.04339599609375 263.8974914550781 170.1230010986328" stroke-width="0.0" fill="rgb(36, 0, 99)" opacity="0.0" stroke="rgb(0, 0, 0)" stroke-opacity="1.0" stroke-linecap="round" stroke-linejoin="round"/>
    <path d="M 299.3078918457031 244.87107849121094 C 340.6063232421875 225.86492919921875 347.9126892089844 277.4974670410156 326.61883544921875 377.4219665527344 C 215.4567413330078 371.1461181640625 173.3518524169922 361.5026550292969 232.23294067382812 323.8419189453125 C 262.9326477050781 324.2691650390625 224.6915740966797 319.2969055175781 238.79676818847656 290.3687438964844 C 270.8280944824219 269.9715576171875 233.99468994140625 264.1064147949219 299.3078918457031 244.87107849121094" stroke-width="0.0" fill="rgb(252, 255, 250)" opacity="0.9867579" stroke="rgb(0, 0, 0)" stroke-opacity="1.0" stroke-linecap="round" stroke-linejoin="round"/>
    <path d="M 179.9312744140625 359.1912841796875 C 167.86993408203125 358.08056640625 173.64523315429688 366.8809814453125 171.9609375 356.54974365234375 C 157.8240203857422 354.8222961425781 158.87384033203125 358.3293762207031 126.22187042236328 329.2698974609375 C 124.1763687133789 334.563720703125 177.8330535888672 337.7004699707031 157.6712646484375 329.71624755859375 C 179.13168334960938 327.3617858886719 181.78089904785156 334.001953125 179.9312744140625 359.1912841796875" stroke-width="0.0" fill="rgb(174, 82, 52)" opacity="0.0" stroke="rgb(0, 0, 0)" stroke-opacity="1.0" stroke-linecap="round" stroke-linejoin="round"/>
    <path d="M 188.89743041992188 269.73284912109375 C 252.873046875 263.0906677246094 246.6224365234375 282.4659729003906 170.92095947265625 293.8339538574219 C 108.85456085205078 295.8387451171875 125.92256164550781 265.168212890625 173.33050537109375 266.60272216796875 C 178.14938354492188 275.1835632324219 178.73704528808594 236.58023071289062 190.76234436035156 254.29356384277344 C 185.66986083984375 252.9102783203125 181.0477752685547 268.3697814941406 188.89743041992188 269.73284912109375" stroke-width="0.0" fill="rgb(0, 121, 128)" opacity="0.4591162" stroke="rgb(0, 0, 0)" stroke-opacity="1.0" stroke-linecap="round" stroke-linejoin="round"/>
    <path d="M 299.4955749511719 280.16522216796875 C 274.57281494140625 274.34521484375 273.50238037109375 275.996337890625 274.2288513183594 292.0914001464844 C 262.2061462402344 289.4076232910156 226.62269592285156 282.29119873046875 233.9364776611328 248.1233367919922 C 254.27137756347656 249.48802185058594 258.8065185546875 225.86831665039062 286.74029541015625 251.5398712158203 C 306.72528076171875 220.3981170654297 312.4847412109375 213.35244750976562 299.4955749511719 280.16522216796875" stroke-width="0.0" fill="rgb(255, 255, 255)" opacity="1.0" stroke="rgb(0, 0, 0)" stroke-opacity="1.0" stroke-linecap="round" stroke-linejoin="round"/>
    <path d="M 212.1200408935547 350.25347900390625 C 207.33570861816406 366.042236328125 184.3107147216797 359.2501525878906 161.334228515625 356.229248046875 C 166.43154907226562 362.7629089355469 158.1849365234375 352.2862854003906 152.6403350830078 348.8588562011719 C 148.59982299804688 331.52044677734375 139.77322387695312 343.218994140625 194.10848999023438 366.7994689941406 C 215.31817626953125 335.71673583984375 203.14559936523438 337.8273010253906 212.1200408935547 350.25347900390625" stroke-width="0.0" fill="rgb(32, 110, 118)" opacity="0.00969267" stroke="rgb(0, 0, 0)" stroke-opacity="1.0" stroke-linecap="round" stroke-linejoin="round"/>
    <path d="M 114.84358215332031 413.0899353027344 C 92.00546264648438 450.1591796875 95.97718811035156 472.8008728027344 65.30052185058594 459.3847351074219 C 51.6934928894043 438.0547180175781 60.29757308959961 457.22784423828125 64.57099914550781 437.4561767578125 C 49.21845626831055 420.4697265625 42.933624267578125 409.58282470703125 28.298891067504883 432.23150634765625 C 47.226219177246094 430.099365234375 88.32495880126953 418.13006591796875 114.84358215332031 413.0899353027344" stroke-width="0.0" fill="rgb(116, 65, 216)" opacity="0.14552988" stroke="rgb(0, 0, 0)" stroke-opacity="1.0" stroke-linecap="round" stroke-linejoin="round"/>
    <path d="M 463.2454833984375 462.49896240234375 C 446.4258728027344 463.37103271484375 453.0057373046875 458.5677490234375 470.26922607421875 474.25543212890625 C 446.0265808105469 460.3782043457031 440.9458923339844 456.5303039550781 434.284423828125 477.1456604003906 C 424.81988525390625 474.7147521972656 429.4121398925781 467.7301330566406 444.9013366699219 478.6471252441406 C 468.26495361328125 466.1641540527344 472.30841064453125 467.50140380859375 463.2454833984375 462.49896240234375" stroke-width="0.0" fill="rgb(57, 94, 243)" opacity="0.0" stroke="rgb(0, 0, 0)" stroke-opacity="1.0" stroke-linecap="round" stroke-linejoin="round"/>
    <path d="M 462.84930419921875 388.7093811035156 C 457.0871276855469 417.9892578125 470.2869567871094 446.4079284667969 428.3775634765625 436.73944091796875 C 400.4947814941406 446.502197265625 413.3984680175781 413.2897033691406 398.5701904296875 346.84326171875 C 396.55938720703125 346.52392578125 401.6627502441406 344.5877990722656 459.9917297363281 348.0031433105469 C 478.5760498046875 345.29168701171875 471.9457092285156 339.69659423828125 462.84930419921875 388.7093811035156" stroke-width="0.0" fill="rgb(255, 35, 120)" opacity="1.0" stroke="rgb(0, 0, 0)" stroke-opacity="1.0" stroke-linecap="round" stroke-linejoin="round"/>
    <path d="M 91.60237884521484 463.33563232421875 C 62.14778518676758 436.9613037109375 39.915279388427734 455.94378662109375 73.99972534179688 476.4577941894531 C 38.092220306396484 473.280029296875 3.7960128784179688 461.7460632324219 39.900394439697266 450.4501037597656 C 19.792884826660156 471.9062805175781 23.330305099487305 469.1334228515625 22.73396873474121 458.4117126464844 C 36.400856018066406 466.54986572265625 53.474918365478516 457.99639892578125 91.60237884521484 463.33563232421875" stroke-width="0.0" fill="rgb(104, 4, 182)" opacity="0.0" stroke="rgb(0, 0, 0)" stroke-opacity="1.0" stroke-linecap="round" stroke-linejoin="round"/>
    <path d="M 133.889404296875 238.6524658203125 C 120.32250213623047 280.7459411621094 95.43850708007812 273.19677734375 118.35004425048828 286.1160583496094 C 133.95419311523438 288.11956787109375 121.9010009765625 234.54258728027344 115.61357879638672 215.78309631347656 C 102.42178344726562 215.17282104492188 122.70914459228516 212.74758911132812 153.83033752441406 242.2737579345703 C 163.0119171142578 240.2480926513672 177.59483337402344 251.29403686523438 133.889404296875 238.6524658203125" stroke-width="0.0" fill="rgb(255, 255, 94)" opacity="0.75814104" stroke="rgb(0, 0, 0)" stroke-opacity="1.0" stroke-linecap="round" stroke-linejoin="round"/>
    <path d="M 481.648681640625 248.99415588378906 C 466.1389465332031 260.1651611328125 448.3410339355469 255.15745544433594 443.702880859375 285.22259521484375 C 455.4110107421875 265.4461975097656 465.28240966796875 257.7216491699219 443.77099609375 271.0303955078125 C 432.2044372558594 237.4451446533203 449.396484375 221.26878356933594 467.1794738769531 219.9940643310547 C 453.1272888183594 226.18356323242188 465.39605712890625 258.6476135253906 481.648681640625 248.99415588378906" stroke-width="0.0" fill="rgb(46, 219, 141)" opacity="0.0" stroke="rgb(0, 0, 0)" stroke-opacity="1.0" stroke-linecap="round" stroke-linejoin="round"/>
    <path d="M 379.2548828125 198.7710418701172 C 386.9564514160156 218.80552673339844 378.0343017578125 212.45962524414062 379.64410400390625 203.87969970703125 C 368.6611633300781 208.6010284423828 350.93780517578125 200.43653869628906 348.982421875 214.42848205566406 C 304.3560485839844 184.60289001464844 295.8895263671875 159.35179138183594 351.3913879394531 161.55369567871094 C 368.7669372558594 186.29127502441406 387.7897033691406 190.17564392089844 379.2548828125 198.7710418701172" stroke-width="0.0" fill="rgb(99, 141, 180)" opacity="0.022784252" stroke="rgb(0, 0, 0)" stroke-opacity="1.0" stroke-linecap="round" stroke-linejoin="round"/>
    <path d="M 83.74930572509766 438.6639709472656 C 78.88176727294922 489.29473876953125 62.564632415771484 511.844482421875 57.27862548828125 478.91119384765625 C 45.936744689941406 478.487548828125 59.35909652709961 493.6891174316406 73.79839324951172 427.5826721191406 C 60.01327133178711 395.730224609375 32.72856140136719 431.8045349121094 35.8668098449707 449.1227722167969 C 77.72393798828125 417.86346435546875 69.7356185913086 426.62664794921875 83.74930572509766 438.6639709472656" stroke-width="0.0" fill="rgb(106, 63, 162)" opacity="0.07620934" stroke="rgb(0, 0, 0)" stroke-opacity="1.0" stroke-linecap="round" stroke-linejoin="round"/>
    <path d="M 482.6051330566406 55.674537658691406 C 470.78973388671875 68.36936950683594 431.7135314941406 60.7800407409668 425.653076171875 27.24408531188965 C 420.09051513671875 52.3662223815918 442.1359558105469 84.6839370727539 437.4818420410156 91.59776306152344 C 437.9652099609375 50.57461929321289 447.1444091796875 56.417335510253906 445.4147644042969 45.81068801879883 C 467.42144775390625 43.254940032958984 469.563232421875 31.584047317504883 482.6051330566406 55.674537658691406" stroke-width="0.0" fill="rgb(89, 240, 154)" opacity="0.010506563" stroke="rgb(0, 0, 0)" stroke-opacity="1.0" stroke-linecap="round" stroke-linejoin="round"/>
    <path d="M 308.58221435546875 189.15658569335938 C 311.7589416503906 188.54989624023438 337.3856201171875 175.96803283691406 275.6324768066406 150.29434204101562 C 285.0715026855469 187.4930877685547 283.0836486816406 182.7288055419922 271.8516845703125 171.1923828125 C 277.5815734863281 156.9172821044922 276.0798034667969 154.22921752929688 274.905029296875 163.53990173339844 C 308.05517578125 154.47848510742188 309.7257385253906 164.8802490234375 308.58221435546875 189.15658569335938" stroke-width="0.0" fill="rgb(177, 176, 131)" opacity="0.0" stroke="rgb(0, 0, 0)" stroke-opacity="1.0" stroke-linecap="round" stroke-linejoin="round"/>
    <path d="M 160.17599487304688 28.06503677368164 C 157.32481384277344 54.41370391845703 150.0826416015625 61.33130645751953 145.55572509765625 60.66958236694336 C 136.41363525390625 37.30012512207031 127.38341522216797 26.16236114501953 134.8201446533203 43.49370193481445 C 128.6227264404297 22.616365432739258 127.01093292236328 21.204181671142578 148.57012939453125 23.3924560546875 C 148.1978302001953 27.631834030151367 143.99917602539062 31.290191650390625 160.17599487304688 28.06503677368164" stroke-width="0.0" fill="rgb(109, 247, 145)" opacity="0.0" stroke="rgb(0, 0, 0)" stroke-opacity="1.0" stroke-linecap="round" stroke-linejoin="round"/>
    <path d="M 234.74700927734375 345.1092529296875 C 239.15817260742188 386.40283203125 191.3650360107422 367.4817199707031 186.36508178710938 341.9293212890625 C 195.71588134765625 351.583251953125 174.82437133789062 335.2230529785156 150.227783203125 348.6549987792969 C 166.2888946533203 357.45721435546875 144.95037841796875 344.3684387207031 174.6108856201172 350.466796875 C 201.40211486816406 337.0547790527344 233.22903442382812 314.2416687011719 234.74700927734375 345.1092529296875" stroke-width="0.0" fill="rgb(228, 255, 136)" opacity="0.2988594" stroke="rgb(0, 0, 0)" stroke-opacity="1.0" stroke-linecap="round" stroke-linejoin="round"/>
    <path d="M 41.81418991088867 341.02703857421875 C 60.43547058105469 338.752685546875 57.450279235839844 331.95684814453125 16.672536849975586 329.152099609375 C 6.12430477142334 340.9495544433594 20.14076042175293 336.6483459472656 29.066761016845703 279.1368713378906 C 45.46598815917969 303.9899597167969 58.41630554199219 318.6253967285156 43.52391052246094 302.09454345703125 C 29.39809799194336 302.90667724609375 39.0150032043457 314.92578125 41.81418991088867 341.02703857421875" stroke-width="0.0" fill="rgb(42, 100, 189)" opacity="0.0" stroke="rgb(0, 0, 0)" stroke-opacity="1.0" stroke-linecap="round" stroke-linejoin="round"/>
    <path d="M 432.8974609375 451.6443176269531 C 402.9733581542969 399.5525207519531 380.15966796875 416.6038513183594 387.35076904296875 442.9182434082031 C 363.0621032714844 464.49932861328125 370.8455810546875 465.90167236328125 395.2060241699219 434.68365478515625 C 379.095458984375 452.3530578613281 394.84552001953125 465.0728759765625 411.5311279296875 440.1210632324219 C 415.24542236328125 417.38726806640625 437.1808776855469 440.23138427734375 432.8974609375 451.6443176269531" stroke-width="0.0" fill="rgb(81, 139, 209)" opacity="0.041253336" stroke="rgb(0, 0, 0)" stroke-opacity="1.0" stroke-linecap="round" stroke-linejoin="round"/>
    <path d="M 113.84001159667969 300.90277099609375 C 125.4563980102539 286.27667236328125 127.95068359375 298.4593505859375 130.41270446777344 293.011474609375 C 143.0071258544922 297.89532470703125 120.0035629272461 295.493408203125 127.59639739990234 330.1078186035156 C 135.86192321777344 314.224853515625 114.356201171875 309.9267272949219 106.4309310913086 278.8862609863281 C 104.38248443603516 284.2875061035156 128.52682495117188 302.412353515625 113.84001159667969 300.90277099609375" stroke-width="0.0" fill="rgb(59, 105, 206)" opacity="0.0059588007" stroke="rgb(0, 0, 0)" stroke-opacity="1.0" stroke-linecap="round" stroke-linejoin="round"/>
    <path d="M 128.53424072265625 409.0349426269531 C 112.2298812866211 460.6513977050781 131.37405395507812 486.7629699707031 108.00191497802734 476.8811340332031 C 90.68489074707031 470.9798889160156 72.49089050292969 474.2186279296875 77.27847290039062 443.76263427734375 C 67.03759002685547 427.1886901855469 78.22075653076172 419.2791748046875 99.43254089355469 442.2695617675781 C 142.1117401123047 434.0085144042969 155.79367065429688 417.19500732421875 128.53424072265625 409.0349426269531" stroke-width="0.0" fill="rgb(172, 27, 226)" opacity="0.0" stroke="rgb(0, 0, 0)" stroke-opacity="1.0" stroke-linecap="round" stroke-linejoin="round"/>
    <path d="M 259.7094421386719 35.10038375854492 C 255.17221069335938 40.242977142333984 251.38294982910156 55.87440872192383 266.5265197753906 43.02690505981445 C 267.156982421875 46.29951858520508 249.16729736328125 26.632247924804688 251.0574493408203 24.55876350402832 C 249.9108428955078 33.81037521362305 262.86370849609375 22.807035446166992 249.34571838378906 19.418745040893555 C 249.50723266601562 25.243576049804688 258.4289245605469 26.874103546142578 259.7094421386719 35.10038375854492" stroke-width="0.0" fill="rgb(112, 246, 81)" opacity="0.0026999577" stroke="rgb(0, 0, 0)" stroke-opacity="1.0" stroke-linecap="round" stroke-linejoin="round"/>
    <path d="M 123.39090728759766 335.7247009277344 C 119.22941589355469 356.3298034667969 127.68018341064453 363.21282958984375 94.59782409667969 351.4012145996094 C 83.41783142089844 362.01385498046875 85.73860931396484 351.64556884765625 97.0792236328125 346.268310546875 C 106.0639877319336 293.1718444824219 98.70372772216797 258.9822082519531 117.46471405029297 267.02349853515625 C 110.23470306396484 287.0341491699219 109.99514770507812 312.0475158691406 123.39090728759766 335.7247009277344" stroke-width="0.0" fill="rgb(165, 4, 152)" opacity="0.57232726" stroke="rgb(0, 0, 0)" stroke-opacity="1.0" stroke-linecap="round" stroke-linejoin="round"/>
    <path d="M 471.97869873046875 208.8250274658203 C 489.14398193359375 224.10198974609375 473.5487060546875 254.19366455078125 492.6885986328125 260.80902099609375 C 489.64227294921875 224.09056091308594 478.8941955566406 221.3037567138672 471.9535827636719 220.90003967285156 C 473.5239562988281 198.3380584716797 477.8804626464844 190.5331573486328 485.83404541015625 174.81578063964844 C 488.517333984375 157.3198699951172 473.1416931152344 161.50350952148438 471.97869873046875 208.8250274658203" stroke-width="0.0" fill="rgb(70, 166, 202)" opacity="0.020925181" stroke="rgb(0, 0, 0)" stroke-opacity="1.0" stroke-linecap="round" stroke-linejoin="round"/>
    <path d="M 437.5046081542969 270.0990905761719 C 454.6362609863281 298.2424621582031 464.6617736816406 309.6231689453125 430.8572998046875 293.0687561035156 C 409.2325134277344 296.45361328125 410.38653564453125 286.55126953125 417.5263977050781 248.77122497558594 C 413.12890625 246.3153076171875 433.1378479003906 246.77676391601562 441.47894287109375 256.8404541015625 C 426.2864990234375 253.4083251953125 432.0211181640625 264.5362243652344 437.5046081542969 270.0990905761719" stroke-width="0.0" fill="rgb(88, 160, 203)" opacity="0.020293152" stroke="rgb(0, 0, 0)" stroke-opacity="1.0" stroke-linecap="round" stroke-linejoin="round"/>
    <path d="M 505.25994873046875 67.34673309326172 C 484.68878173828125 72.09990692138672 489.3331604003906 86.00817108154297 491.3239440917969 71.84465026855469 C 471.841064453125 53.507720947265625 491.3892822265625 27.53755760192871 482.1743469238281 45.11399459838867 C 486.454345703125 64.82678985595703 499.2835693359375 50.79462814331055 482.3561096191406 69.31559753417969 C 477.8270568847656 68.50401306152344 497.1107482910156 67.66761016845703 505.25994873046875 67.34673309326172" stroke-width="0.0" fill="rgb(65, 202, 166)" opacity="7.983133e-05" stroke="rgb(0, 0, 0)" stroke-opacity="1.0" stroke-linecap="round" stroke-linejoin="round"/>
    <path d="M 41.29269027709961 209.17759704589844 C 77.20671081542969 216.17344665527344 65.95233917236328 206.21762084960938 29.353612899780273 187.88101196289062 C 38.21025466918945 198.02992248535156 80.85674285888672 244.3756103515625 78.6319351196289 177.45083618164062 C 18.71780776977539 163.13917541503906 34.12788772583008 176.2858123779297 28.2882022857666 195.90452575683594 C 27.16452980041504 179.7154541015625 14.137731552124023 195.408935546875 41.29269027709961 209.17759704589844" stroke-width="0.0" fill="rgb(211, 221, 251)" opacity="0.051227227" stroke="rgb(0, 0, 0)" stroke-opacity="1.0" stroke-linecap="round" stroke-linejoin="round"/>
    <path d="M 178.31600952148438 351.9473876953125 C 189.6465301513672 380.65557861328125 172.48416137695312 346.4960021972656 126.39257049560547 355.4523620605469 C 93.54679107666016 373.2074279785156 80.16842651367188 332.4685363769531 98.21638488769531 340.4875793457031 C 98.36654663085938 349.52972412109375 94.9447021484375 287.89495849609375 118.45794677734375 289.89404296875 C 157.24136352539062 303.757080078125 155.57028198242188 322.05718994140625 178.31600952148438 351.9473876953125" stroke-width="0.0" fill="rgb(255, 254, 160)" opacity="0.99887353" stroke="rgb(0, 0, 0)" stroke-opacity="1.0" stroke-linecap="round" stroke-linejoin="round"/>
    <path d="M 36.45827865600586 102.1056137084961 C 48.13775634765625 99.90431213378906 49.596771240234375 99.439697265625 40.754295349121094 96.90266418457031 C 25.834199905395508 98.27393341064453 9.924025535583496 92.56144714355469 -6.6943535804748535 87.10429382324219 C -1.0301401615142822 78.3760757446289 10.09952163696289 75.13261413574219 17.76136589050293 75.8758773803711 C 23.240310668945312 80.46898651123047 34.8425178527832 87.5877914428711 36.45827865600586 102.1056137084961" stroke-width="0.0" fill="rgb(70, 170, 209)" opacity="0.0" stroke="rgb(0, 0, 0)" stroke-opacity="1.0" stroke-linecap="round" stroke-linejoin="round"/>
  </g>
</svg>
