<?xml version="1.0" ?>
<svg xmlns="http://www.w3.org/2000/svg" version="1.1" width="512" height="512">
  <defs/>
  <g>
    <path d="M 550.5435791015625 443.522216796875 C 549.6190795898438 479.1871643066406 502.43780517578125 530.941162109375 450.4834899902344 530.101318359375 C 317.7196960449219 535.5301513671875 307.6879577636719 530.3258056640625 210.69166564941406 431.08502197265625 C 319.9325256347656 390.5949401855469 403.4715270996094 397.7518615722656 500.33270263671875 343.8204345703125 C 548.0923461914062 365.6263732910156 555.8176879882812 367.46466064453125 550.5435791015625 443.522216796875" stroke-width="0.0" fill="rgb(13, 132, 128)" opacity="0.9433806" stroke="rgb(0, 0, 0)" stroke-opacity="1.0" stroke-linecap="round" stroke-linejoin="round"/>
    <path d="M 216.10366821289062 421.9903564453125 C 234.76235961914062 481.3033142089844 348.22296142578125 390.2039794921875 199.39266967773438 530.6368408203125 C -41.479393005371094 563.2000122070312 -20.873289108276367 492.0749206542969 -51.45218276977539 393.7408142089844 C -51.622703552246094 225.371826171875 -25.57471466064453 200.4344024658203 109.6812973022461 133.35195922851562 C 247.75238037109375 205.0794677734375 163.15338134765625 267.80914306640625 216.10366821289062 421.9903564453125" stroke-width="0.0" fill="rgb(65, 186, 168)" opacity="0.8742351" stroke="rgb(0, 0, 0)" stroke-opacity="1.0" stroke-linecap="round" stroke-linejoin="round"/>
    <path d="M 141.00283813476562 282.8467102050781 C 160.04122924804688 268.768310546875 161.96762084960938 279.4605712890625 176.68215942382812 330.1230163574219 C 41.484561920166016 328.95477294921875 -10.755016326904297 355.40625 -28.14765167236328 173.59542846679688 C 0.29995545744895935 136.35647583007812 3.6365246772766113 135.67262268066406 216.39584350585938 219.3898468017578 C 200.29385375976562 337.64227294921875 165.87294006347656 290.7090148925781 141.00283813476562 282.8467102050781" stroke-width="0.0" fill="rgb(97, 206, 154)" opacity="0.83260095" stroke="rgb(0, 0, 0)" stroke-opacity="1.0" stroke-linecap="round" stroke-linejoin="round"/>
    <path d="M 382.3558044433594 85.61685943603516 C 260.49896240234375 125.71720886230469 156.92015075683594 4.884891033172607 41.41294479370117 168.6090545654297 C -31.62916374206543 207.33277893066406 -68.77140045166016 153.83096313476562 -56.864990234375 85.49591827392578 C -51.369380950927734 20.03827667236328 17.37306022644043 -22.04610252380371 74.56488037109375 -41.59981918334961 C 321.3778991699219 -75.66017150878906 349.0875244140625 -79.48442077636719 382.3558044433594 85.61685943603516" stroke-width="0.0" fill="rgb(73, 200, 157)" opacity="0.78268665" stroke="rgb(0, 0, 0)" stroke-opacity="1.0" stroke-linecap="round" stroke-linejoin="round"/>
    <path d="M 248.81063842773438 119.46939849853516 C 217.8559112548828 219.95240783691406 195.3687744140625 208.4866943359375 146.4214630126953 212.6941375732422 C 136.75241088867188 243.8917694091797 79.79984283447266 225.22561645507812 15.275250434875488 174.45703125 C 46.57185363769531 104.19210052490234 242.36370849609375 -36.07780456542969 394.0296630859375 140.6328887939453 C 238.40074157714844 274.1003112792969 181.8345489501953 101.38488006591797 248.81063842773438 119.46939849853516" stroke-width="0.0" fill="rgb(73, 229, 142)" opacity="0.99787986" stroke="rgb(0, 0, 0)" stroke-opacity="1.0" stroke-linecap="round" stroke-linejoin="round"/>
    <path d="M 439.4148864746094 183.02662658691406 C 430.656494140625 451.90557861328125 364.507568359375 443.56341552734375 212.1957244873047 428.2831115722656 C 358.7528381347656 383.59173583984375 313.0309753417969 312.9235534667969 322.505615234375 329.41473388671875 C 330.3986511230469 388.83697509765625 333.10919189453125 386.4992370605469 336.3525085449219 313.64532470703125 C 399.05078125 217.98431396484375 324.4510803222656 192.6462860107422 439.4148864746094 183.02662658691406" stroke-width="0.0" fill="rgb(116, 191, 130)" opacity="0.23801" stroke="rgb(0, 0, 0)" stroke-opacity="1.0" stroke-linecap="round" stroke-linejoin="round"/>
    <path d="M 515.0176391601562 111.72460174560547 C 573.3353881835938 347.2050476074219 552.93408203125 362.9320373535156 467.5015869140625 420.8793640136719 C 315.4562683105469 361.70794677734375 377.61944580078125 312.6844177246094 324.68505859375 219.92242431640625 C 303.9227600097656 102.00160217285156 265.84954833984375 151.60601806640625 325.3548278808594 -8.027228355407715 C 586.2706909179688 -24.534976959228516 553.2633666992188 18.483890533447266 515.0176391601562 111.72460174560547" stroke-width="0.0" fill="rgb(46, 163, 140)" opacity="0.9933277" stroke="rgb(0, 0, 0)" stroke-opacity="1.0" stroke-linecap="round" stroke-linejoin="round"/>
    <path d="M 342.4223327636719 246.673828125 C 332.4465637207031 363.4160461425781 350.4271545410156 230.22283935546875 261.9294128417969 550.717041015625 C 232.152099609375 349.96771240234375 222.13433837890625 430.0877685546875 275.2915344238281 298.80596923828125 C 347.3277587890625 282.97210693359375 281.1710510253906 199.11441040039062 326.0909118652344 215.60647583007812 C 315.0464172363281 281.7536315917969 323.4067077636719 165.38674926757812 342.4223327636719 246.673828125" stroke-width="0.0" fill="rgb(90, 3, 48)" opacity="0.9817793" stroke="rgb(0, 0, 0)" stroke-opacity="1.0" stroke-linecap="round" stroke-linejoin="round"/>
    <path d="M 319.16375732421875 223.1757049560547 C 176.14431762695312 291.51837158203125 209.81976318359375 206.81443786621094 215.53570556640625 581.0159301757812 C 241.1191864013672 205.0841522216797 249.47958374023438 266.200439453125 216.50103759765625 276.10089111328125 C 188.78945922851562 147.5579833984375 287.3387451171875 -70.04304504394531 232.48826599121094 289.82073974609375 C 250.9918975830078 303.9270324707031 245.58230590820312 34.9712028503418 319.16375732421875 223.1757049560547" stroke-width="0.0" fill="rgb(0, 0, 13)" opacity="1.0" stroke="rgb(0, 0, 0)" stroke-opacity="1.0" stroke-linecap="round" stroke-linejoin="round"/>
    <path d="M 549.5762939453125 95.82340240478516 C 481.73822021484375 112.43244171142578 476.2235412597656 88.95355987548828 472.84765625 84.34716033935547 C 481.90032958984375 80.4430923461914 468.2762451171875 76.43875885009766 357.4304504394531 -4.172009468078613 C 322.1448974609375 -20.083715438842773 379.938720703125 -20.097017288208008 484.93792724609375 -27.413700103759766 C 524.1558227539062 -13.975769996643066 536.4097290039062 30.708364486694336 549.5762939453125 95.82340240478516" stroke-width="0.0" fill="rgb(154, 237, 161)" opacity="0.82824403" stroke="rgb(0, 0, 0)" stroke-opacity="1.0" stroke-linecap="round" stroke-linejoin="round"/>
    <path d="M 234.60923767089844 419.6679382324219 C 241.16848754882812 429.9988708496094 262.84649658203125 459.5816345214844 236.18124389648438 441.5085144042969 C 244.4795379638672 399.1532287597656 255.4498748779297 395.00469970703125 252.86669921875 394.2369384765625 C 243.75778198242188 401.0202331542969 257.3043518066406 400.5748291015625 239.19789123535156 373.52923583984375 C 248.6275634765625 320.63592529296875 257.8560485839844 392.0013732910156 234.60923767089844 419.6679382324219" stroke-width="0.0" fill="rgb(184, 210, 13)" opacity="0.6345533" stroke="rgb(0, 0, 0)" stroke-opacity="1.0" stroke-linecap="round" stroke-linejoin="round"/>
    <path d="M 217.4951934814453 261.9798889160156 C 227.5782012939453 228.88790893554688 226.3186798095703 276.2887268066406 194.57289123535156 304.86993408203125 C 180.93609619140625 291.7007751464844 142.99119567871094 308.92535400390625 184.89688110351562 294.04217529296875 C 186.57318115234375 282.7044982910156 211.48326110839844 300.3460388183594 217.82456970214844 242.19215393066406 C 213.57969665527344 108.77664184570312 220.50112915039062 211.6759490966797 217.4951934814453 261.9798889160156" stroke-width="0.0" fill="rgb(0, 12, 3)" opacity="0.34091017" stroke="rgb(0, 0, 0)" stroke-opacity="1.0" stroke-linecap="round" stroke-linejoin="round"/>
    <path d="M 474.01190185546875 377.5661315917969 C 481.4688415527344 420.8630065917969 476.9378662109375 430.1221923828125 457.57537841796875 420.5465393066406 C 434.29827880859375 422.2337341308594 406.1321105957031 439.93707275390625 402.00653076171875 414.63482666015625 C 404.5233154296875 358.5977478027344 418.2823181152344 348.0278015136719 444.0777282714844 360.2914123535156 C 473.6479797363281 380.77203369140625 477.04449462890625 398.0040588378906 474.01190185546875 377.5661315917969" stroke-width="0.0" fill="rgb(22, 140, 126)" opacity="0.94096404" stroke="rgb(0, 0, 0)" stroke-opacity="1.0" stroke-linecap="round" stroke-linejoin="round"/>
    <path d="M 298.34832763671875 389.09515380859375 C 313.5937194824219 441.92388916015625 272.1017150878906 423.4333801269531 254.15011596679688 381.6151123046875 C 263.6316223144531 399.0382995605469 210.82041931152344 363.2515563964844 230.6459503173828 377.4746398925781 C 257.8296813964844 395.9931335449219 259.3049621582031 373.4747009277344 274.4695739746094 337.972412109375 C 310.3367614746094 349.8582458496094 291.3887023925781 392.6736145019531 298.34832763671875 389.09515380859375" stroke-width="0.0" fill="rgb(167, 0, 25)" opacity="0.446822" stroke="rgb(0, 0, 0)" stroke-opacity="1.0" stroke-linecap="round" stroke-linejoin="round"/>
    <path d="M 326.26959228515625 161.75958251953125 C 325.62396240234375 264.08984375 277.1131591796875 280.54876708984375 248.2808380126953 229.05654907226562 C 301.80316162109375 158.55255126953125 236.6782989501953 169.56898498535156 231.00665283203125 193.8760986328125 C 301.06341552734375 180.7567138671875 329.70697021484375 186.26219177246094 271.6589050292969 157.04034423828125 C 287.01251220703125 132.9033966064453 309.37646484375 143.55320739746094 326.26959228515625 161.75958251953125" stroke-width="0.0" fill="rgb(254, 251, 252)" opacity="0.9182366" stroke="rgb(0, 0, 0)" stroke-opacity="1.0" stroke-linecap="round" stroke-linejoin="round"/>
    <path d="M 211.3321990966797 56.739013671875 C 204.5753173828125 49.989898681640625 210.38949584960938 70.27310943603516 213.37196350097656 111.72981262207031 C 218.91360473632812 136.7558135986328 204.5410919189453 139.88934326171875 204.2108612060547 70.57275390625 C 179.2663116455078 78.21566009521484 209.14869689941406 75.27134704589844 204.7931671142578 43.605159759521484 C 196.3008270263672 73.97118377685547 195.68618774414062 72.05096435546875 211.3321990966797 56.739013671875" stroke-width="0.0" fill="rgb(42, 154, 38)" opacity="0.5473504" stroke="rgb(0, 0, 0)" stroke-opacity="1.0" stroke-linecap="round" stroke-linejoin="round"/>
    <path d="M 272.41107177734375 218.52935791015625 C 224.5902557373047 226.0970001220703 213.44992065429688 270.9401550292969 286.6806945800781 279.62939453125 C 265.8565979003906 279.68341064453125 259.0783386230469 275.24468994140625 272.1856689453125 277.0701599121094 C 269.421875 263.13507080078125 267.0385437011719 216.04818725585938 276.5572509765625 213.00106811523438 C 268.16839599609375 241.03173828125 263.67352294921875 245.1243133544922 272.41107177734375 218.52935791015625" stroke-width="0.0" fill="rgb(255, 255, 143)" opacity="0.91218436" stroke="rgb(0, 0, 0)" stroke-opacity="1.0" stroke-linecap="round" stroke-linejoin="round"/>
    <path d="M 239.593505859375 117.4675064086914 C 267.51708984375 217.3670196533203 292.50311279296875 234.6162109375 120.09678649902344 230.8172607421875 C 87.74459838867188 146.0847930908203 211.4220733642578 213.9977264404297 219.16537475585938 183.05897521972656 C 207.77842712402344 67.15340423583984 212.18942260742188 108.37680053710938 240.18038940429688 99.69152069091797 C 247.60296630859375 123.093505859375 237.40599060058594 142.9534912109375 239.593505859375 117.4675064086914" stroke-width="0.0" fill="rgb(0, 0, 8)" opacity="1.0" stroke="rgb(0, 0, 0)" stroke-opacity="1.0" stroke-linecap="round" stroke-linejoin="round"/>
    <path d="M 282.7200622558594 360.30682373046875 C 292.0039978027344 388.2337341308594 328.6709899902344 392.3992004394531 266.9353332519531 423.5133056640625 C 263.45428466796875 303.2908935546875 289.88958740234375 394.5243225097656 287.4246520996094 375.60601806640625 C 295.4356689453125 318.3609619140625 240.6464080810547 359.2666931152344 269.66845703125 282.2209167480469 C 307.8023681640625 372.9537658691406 260.15924072265625 333.8052062988281 282.7200622558594 360.30682373046875" stroke-width="0.0" fill="rgb(255, 255, 0)" opacity="1.0" stroke="rgb(0, 0, 0)" stroke-opacity="1.0" stroke-linecap="round" stroke-linejoin="round"/>
    <path d="M 340.3924255371094 248.18817138671875 C 320.2176818847656 268.8672180175781 329.6474914550781 257.7474670410156 321.6372375488281 289.2121276855469 C 321.7913513183594 196.16973876953125 295.9298400878906 250.0821533203125 287.8216247558594 164.17648315429688 C 248.93765258789062 222.8481903076172 260.5107727050781 142.38330078125 299.4580078125 186.06231689453125 C 342.97198486328125 144.9701385498047 348.192138671875 205.15106201171875 340.3924255371094 248.18817138671875" stroke-width="0.0" fill="rgb(224, 205, 205)" opacity="0.0017075295" stroke="rgb(0, 0, 0)" stroke-opacity="1.0" stroke-linecap="round" stroke-linejoin="round"/>
    <path d="M 279.85650634765625 416.2370910644531 C 281.97723388671875 406.75958251953125 309.7462463378906 454.8443908691406 326.2240295410156 450.0314636230469 C 314.0599365234375 426.4220886230469 351.4700622558594 462.3243713378906 365.50433349609375 440.3659362792969 C 346.6251525878906 395.3277282714844 326.3273010253906 354.440185546875 338.9624938964844 343.1448974609375 C 293.91650390625 434.3716125488281 276.97760009765625 466.0721435546875 279.85650634765625 416.2370910644531" stroke-width="0.0" fill="rgb(177, 0, 152)" opacity="0.43890107" stroke="rgb(0, 0, 0)" stroke-opacity="1.0" stroke-linecap="round" stroke-linejoin="round"/>
    <path d="M 284.5436706542969 435.4720764160156 C 325.2255554199219 473.1402282714844 305.0390625 500.0050048828125 281.0091552734375 547.0337524414062 C 203.3997344970703 518.6737670898438 194.44068908691406 504.9541015625 236.9657745361328 447.0484619140625 C 238.4565887451172 431.3666687011719 244.59744262695312 455.3177490234375 271.5483093261719 449.0871276855469 C 290.4012145996094 425.54522705078125 263.406494140625 402.9090576171875 284.5436706542969 435.4720764160156" stroke-width="0.0" fill="rgb(22, 207, 126)" opacity="1.0" stroke="rgb(0, 0, 0)" stroke-opacity="1.0" stroke-linecap="round" stroke-linejoin="round"/>
    <path d="M 301.2450866699219 294.7467346191406 C 302.1634521484375 330.3110656738281 281.5047302246094 329.4680480957031 300.3236389160156 325.1207580566406 C 304.80096435546875 305.89898681640625 309.9684753417969 300.94903564453125 312.7784729003906 334.5 C 288.2032775878906 343.37860107421875 299.2966003417969 309.7925720214844 326.46478271484375 290.3222351074219 C 309.4553527832031 294.0601501464844 309.50604248046875 349.7471008300781 301.2450866699219 294.7467346191406" stroke-width="0.0" fill="rgb(57, 7, 108)" opacity="0.19334094" stroke="rgb(0, 0, 0)" stroke-opacity="1.0" stroke-linecap="round" stroke-linejoin="round"/>
    <path d="M 207.47886657714844 438.3065490722656 C 203.6134490966797 507.3939208984375 186.9048309326172 514.3406982421875 187.66758728027344 534.2191772460938 C 193.01039123535156 500.39739990234375 213.42697143554688 500.27386474609375 191.94479370117188 504.0283508300781 C 198.5634307861328 510.9686279296875 217.9178466796875 495.3191833496094 229.9597930908203 481.3890686035156 C 234.31845092773438 482.6036376953125 249.54946899414062 446.536865234375 207.47886657714844 438.3065490722656" stroke-width="0.0" fill="rgb(63, 253, 127)" opacity="0.8783485" stroke="rgb(0, 0, 0)" stroke-opacity="1.0" stroke-linecap="round" stroke-linejoin="round"/>
    <path d="M 282.38330078125 397.0773010253906 C 261.05853271484375 385.5242919921875 247.7140350341797 380.1634826660156 252.05764770507812 441.8712463378906 C 215.6171875 455.27496337890625 235.41439819335938 409.434326171875 236.05323791503906 391.96380615234375 C 237.16961669921875 299.9737854003906 259.82366943359375 254.79624938964844 283.5302429199219 365.24676513671875 C 268.9859619140625 360.8891906738281 276.252685546875 371.5536193847656 282.38330078125 397.0773010253906" stroke-width="0.0" fill="rgb(255, 129, 0)" opacity="1.0" stroke="rgb(0, 0, 0)" stroke-opacity="1.0" stroke-linecap="round" stroke-linejoin="round"/>
    <path d="M 304.4684143066406 492.71185302734375 C 318.3154602050781 457.4740295410156 297.02435302734375 456.3699035644531 280.25787353515625 464.4360656738281 C 303.7158508300781 479.8974609375 280.74774169921875 443.2821044921875 299.9136962890625 463.3831787109375 C 278.21246337890625 435.6722106933594 263.4585266113281 425.7198486328125 293.1498107910156 462.8271789550781 C 293.46136474609375 484.50372314453125 313.8055725097656 483.32208251953125 304.4684143066406 492.71185302734375" stroke-width="0.0" fill="rgb(51, 247, 31)" opacity="0.43388632" stroke="rgb(0, 0, 0)" stroke-opacity="1.0" stroke-linecap="round" stroke-linejoin="round"/>
    <path d="M 537.1931762695312 99.0726318359375 C 554.1002807617188 137.14564514160156 550.7332763671875 151.56776428222656 518.59326171875 130.30628967285156 C 483.651123046875 81.16651153564453 482.9068603515625 88.78536224365234 490.5181579589844 100.79720306396484 C 500.6544494628906 97.3873062133789 481.1487121582031 96.10375213623047 508.19427490234375 92.85474395751953 C 520.6807861328125 79.84971618652344 512.432861328125 69.66434478759766 537.1931762695312 99.0726318359375" stroke-width="0.0" fill="rgb(125, 207, 152)" opacity="0.87237024" stroke="rgb(0, 0, 0)" stroke-opacity="1.0" stroke-linecap="round" stroke-linejoin="round"/>
    <path d="M 318.93310546875 206.16326904296875 C 334.1190490722656 207.53695678710938 323.0750732421875 204.3084716796875 316.7113342285156 214.818359375 C 270.6656494140625 232.22508239746094 242.7373504638672 240.1055908203125 252.72145080566406 217.0442352294922 C 299.13262939453125 179.3209686279297 248.2721710205078 164.67236328125 280.5191955566406 155.6466522216797 C 314.80596923828125 167.3653106689453 333.0193786621094 159.97215270996094 318.93310546875 206.16326904296875" stroke-width="0.0" fill="rgb(241, 105, 65)" opacity="0.8388149" stroke="rgb(0, 0, 0)" stroke-opacity="1.0" stroke-linecap="round" stroke-linejoin="round"/>
    <path d="M 244.43893432617188 402.3500671386719 C 263.05633544921875 437.9221496582031 287.9587707519531 477.9188537597656 247.44293212890625 468.9908142089844 C 259.35382080078125 404.0740661621094 238.9244842529297 397.8190612792969 244.8653564453125 382.478271484375 C 245.28787231445312 409.59454345703125 246.9573974609375 411.31622314453125 240.6636199951172 405.27337646484375 C 262.5141906738281 396.3384094238281 255.48390197753906 401.9898681640625 244.43893432617188 402.3500671386719" stroke-width="0.0" fill="rgb(0, 0, 61)" opacity="0.93718773" stroke="rgb(0, 0, 0)" stroke-opacity="1.0" stroke-linecap="round" stroke-linejoin="round"/>
    <path d="M 232.03147888183594 475.8367919921875 C 245.93006896972656 502.7264709472656 240.40672302246094 497.0594482421875 228.40220642089844 478.7798156738281 C 228.3117218017578 486.54486083984375 221.5586395263672 481.77667236328125 239.8720245361328 476.00238037109375 C 232.83485412597656 456.8211669921875 217.2608642578125 442.8101806640625 216.54319763183594 419.7938537597656 C 226.71844482421875 414.72625732421875 226.65853881835938 422.0198059082031 232.03147888183594 475.8367919921875" stroke-width="0.0" fill="rgb(87, 149, 13)" opacity="0.37535748" stroke="rgb(0, 0, 0)" stroke-opacity="1.0" stroke-linecap="round" stroke-linejoin="round"/>
    <path d="M 546.6632690429688 475.5151672363281 C 519.0442504882812 515.8566284179688 510.5816650390625 522.5712280273438 478.4888916015625 537.5243530273438 C 454.956298828125 541.0687866210938 454.6815490722656 531.8902587890625 453.5059814453125 511.22955322265625 C 456.7540588378906 471.88470458984375 481.6289978027344 457.61505126953125 470.3001708984375 476.0284729003906 C 491.79058837890625 452.831787109375 522.1022338867188 458.87445068359375 546.6632690429688 475.5151672363281" stroke-width="0.0" fill="rgb(23, 124, 128)" opacity="0.97678953" stroke="rgb(0, 0, 0)" stroke-opacity="1.0" stroke-linecap="round" stroke-linejoin="round"/>
    <path d="M 266.21612548828125 294.6306457519531 C 273.9494934082031 331.8262023925781 254.05792236328125 321.1885986328125 224.31358337402344 288.3518371582031 C 201.96505737304688 292.4012451171875 202.08206176757812 302.0374450683594 210.2837371826172 262.7041320800781 C 223.7379608154297 278.70172119140625 212.59323120117188 293.96539306640625 203.59161376953125 245.16734313964844 C 258.50909423828125 279.7617492675781 258.3455810546875 303.0470275878906 266.21612548828125 294.6306457519531" stroke-width="0.0" fill="rgb(255, 157, 96)" opacity="0.7716538" stroke="rgb(0, 0, 0)" stroke-opacity="1.0" stroke-linecap="round" stroke-linejoin="round"/>
    <path d="M 287.37457275390625 331.92449951171875 C 299.7868957519531 326.52734375 298.13897705078125 326.563232421875 265.0857849121094 331.5876770019531 C 235.30899047851562 327.6954650878906 242.66851806640625 332.97265625 234.53860473632812 309.5128173828125 C 264.5379943847656 309.5529479980469 263.7781677246094 309.08819580078125 258.6998291015625 237.27577209472656 C 258.9710388183594 281.68170166015625 251.6688232421875 316.2167663574219 287.37457275390625 331.92449951171875" stroke-width="0.0" fill="rgb(214, 108, 38)" opacity="0.4925989" stroke="rgb(0, 0, 0)" stroke-opacity="1.0" stroke-linecap="round" stroke-linejoin="round"/>
    <path d="M 131.1584014892578 75.3211669921875 C 106.95964050292969 60.4751091003418 116.20362854003906 68.54513549804688 110.5886001586914 98.0699691772461 C 107.15586853027344 87.38105773925781 98.43685913085938 96.16838073730469 101.20625305175781 69.00883483886719 C 90.4322280883789 93.598876953125 80.5361099243164 123.40005493164062 168.21469116210938 144.81198120117188 C 173.2184295654297 61.006046295166016 186.254638671875 67.69842529296875 131.1584014892578 75.3211669921875" stroke-width="0.0" fill="rgb(127, 188, 243)" opacity="0.0969448" stroke="rgb(0, 0, 0)" stroke-opacity="1.0" stroke-linecap="round" stroke-linejoin="round"/>
    <path d="M 202.71044921875 73.8232421875 C 212.65771484375 92.77491760253906 211.404541015625 107.76612854003906 203.91590881347656 101.04509735107422 C 197.87571716308594 82.9779052734375 204.6505126953125 73.4629898071289 195.15792846679688 61.21175003051758 C 179.3674774169922 90.51176452636719 187.6744384765625 67.63627624511719 197.8955841064453 40.7912483215332 C 183.2578125 41.05008316040039 184.11895751953125 68.87541961669922 202.71044921875 73.8232421875" stroke-width="0.0" fill="rgb(113, 219, 82)" opacity="0.45065507" stroke="rgb(0, 0, 0)" stroke-opacity="1.0" stroke-linecap="round" stroke-linejoin="round"/>
    <path d="M 233.86895751953125 243.8802947998047 C 234.50404357910156 251.71218872070312 229.9563446044922 271.84765625 198.13307189941406 272.4688720703125 C 191.57005310058594 254.8970489501953 192.14056396484375 239.98165893554688 179.31895446777344 225.18634033203125 C 188.03643798828125 227.12905883789062 199.02996826171875 218.3592071533203 191.15643310546875 235.01307678222656 C 183.09249877929688 266.0003356933594 214.90235900878906 246.64710998535156 233.86895751953125 243.8802947998047" stroke-width="0.0" fill="rgb(39, 88, 45)" opacity="0.04743991" stroke="rgb(0, 0, 0)" stroke-opacity="1.0" stroke-linecap="round" stroke-linejoin="round"/>
    <path d="M 109.37004089355469 182.29409790039062 C 139.91661071777344 154.77027893066406 123.95880126953125 165.59268188476562 73.70924377441406 161.47442626953125 C 86.06101989746094 157.58091735839844 84.43812561035156 156.88526916503906 108.52330017089844 156.4718017578125 C 111.91581726074219 138.8927459716797 86.73478698730469 117.79000854492188 90.39772033691406 170.47665405273438 C 78.83137512207031 172.0891876220703 134.5118865966797 162.20314025878906 109.37004089355469 182.29409790039062" stroke-width="0.0" fill="rgb(134, 238, 73)" opacity="0.0022907546" stroke="rgb(0, 0, 0)" stroke-opacity="1.0" stroke-linecap="round" stroke-linejoin="round"/>
    <path d="M 160.97584533691406 59.46883010864258 C 142.12586975097656 167.0992431640625 98.64505767822266 175.111572265625 48.6248893737793 133.99806213378906 C 37.73817443847656 157.1997528076172 52.254638671875 194.51734924316406 70.22322082519531 139.70089721679688 C 54.37122344970703 83.22400665283203 50.639434814453125 67.89479064941406 90.21145629882812 83.13919830322266 C 103.81896209716797 109.12181854248047 123.74991607666016 50.356529235839844 160.97584533691406 59.46883010864258" stroke-width="0.0" fill="rgb(135, 182, 212)" opacity="0.13717979" stroke="rgb(0, 0, 0)" stroke-opacity="1.0" stroke-linecap="round" stroke-linejoin="round"/>
    <path d="M 350.51214599609375 416.3349609375 C 365.7432861328125 434.78619384765625 388.68243408203125 430.7954406738281 354.2415466308594 428.3235168457031 C 334.6176452636719 418.68511962890625 345.5292663574219 388.1814270019531 320.2892150878906 357.4513244628906 C 326.3067321777344 343.8763122558594 332.9430236816406 348.6092529296875 339.21771240234375 360.4302978515625 C 329.9772644042969 405.4815673828125 344.87274169921875 400.10528564453125 350.51214599609375 416.3349609375" stroke-width="0.0" fill="rgb(164, 126, 163)" opacity="0.2778735" stroke="rgb(0, 0, 0)" stroke-opacity="1.0" stroke-linecap="round" stroke-linejoin="round"/>
    <path d="M 74.63663482666016 477.3929443359375 C 84.59327697753906 459.1147155761719 73.6904525756836 453.96649169921875 78.46175384521484 461.04364013671875 C 86.80157470703125 452.96624755859375 62.70013427734375 445.383056640625 56.8654670715332 447.8633117675781 C 59.29777908325195 438.5026550292969 75.41326141357422 438.80859375 78.83428955078125 444.0273132324219 C 76.22445678710938 421.8758850097656 72.46000671386719 444.6656188964844 74.63663482666016 477.3929443359375" stroke-width="0.0" fill="rgb(130, 225, 80)" opacity="0.0" stroke="rgb(0, 0, 0)" stroke-opacity="1.0" stroke-linecap="round" stroke-linejoin="round"/>
    <path d="M 459.0104064941406 518.9389038085938 C 471.63104248046875 507.6238098144531 468.9411315917969 518.5835571289062 479.44598388671875 519.7762451171875 C 449.4598083496094 502.1880798339844 453.03521728515625 496.7001037597656 463.9895935058594 510.8427734375 C 469.467529296875 509.7575378417969 446.3464660644531 520.5028686523438 451.79302978515625 501.2635192871094 C 467.0274353027344 444.697265625 472.47564697265625 481.650634765625 459.0104064941406 518.9389038085938" stroke-width="0.0" fill="rgb(67, 122, 151)" opacity="0.10152257" stroke="rgb(0, 0, 0)" stroke-opacity="1.0" stroke-linecap="round" stroke-linejoin="round"/>
    <path d="M 144.50233459472656 12.325273513793945 C 155.84286499023438 10.798776626586914 149.5965118408203 21.93878936767578 142.1761932373047 48.71914291381836 C 149.90943908691406 17.800872802734375 131.85186767578125 5.047287464141846 128.59742736816406 20.176538467407227 C 122.83714294433594 25.95122718811035 128.06857299804688 19.469236373901367 125.4754409790039 -9.61954402923584 C 137.18264770507812 16.629016876220703 135.92190551757812 21.34663200378418 144.50233459472656 12.325273513793945" stroke-width="0.0" fill="rgb(146, 232, 109)" opacity="0.00666999" stroke="rgb(0, 0, 0)" stroke-opacity="1.0" stroke-linecap="round" stroke-linejoin="round"/>
    <path d="M 203.0501708984375 333.3354187011719 C 193.41355895996094 347.0489807128906 198.8400115966797 368.630126953125 195.33639526367188 355.47479248046875 C 170.00245666503906 367.25946044921875 173.92958068847656 359.5897216796875 161.0670928955078 333.2041320800781 C 152.2107696533203 317.66949462890625 158.9453582763672 312.9375915527344 197.76541137695312 323.5787048339844 C 224.5121307373047 302.5146789550781 219.0367431640625 301.14349365234375 203.0501708984375 333.3354187011719" stroke-width="0.0" fill="rgb(124, 158, 120)" opacity="0.013277098" stroke="rgb(0, 0, 0)" stroke-opacity="1.0" stroke-linecap="round" stroke-linejoin="round"/>
    <path d="M 69.82308197021484 347.3443603515625 C 70.37581634521484 335.48687744140625 44.39120101928711 327.3279724121094 14.465102195739746 318.1847229003906 C 32.493560791015625 327.9007263183594 37.3088493347168 303.9855651855469 21.324827194213867 318.3394470214844 C -0.7930408716201782 300.4885559082031 5.304433822631836 289.9453430175781 41.613037109375 285.314208984375 C 55.20595932006836 284.2446594238281 55.71308898925781 301.8051452636719 69.82308197021484 347.3443603515625" stroke-width="0.0" fill="rgb(138, 208, 139)" opacity="0.022044916" stroke="rgb(0, 0, 0)" stroke-opacity="1.0" stroke-linecap="round" stroke-linejoin="round"/>
    <path d="M 424.9427795410156 472.3090515136719 C 429.1756591796875 480.32037353515625 416.1874084472656 453.91455078125 404.0679016113281 439.352783203125 C 404.3476257324219 435.17919921875 386.8575134277344 436.72900390625 391.53375244140625 413.4937744140625 C 374.9424133300781 398.0426025390625 398.32293701171875 388.8492126464844 403.29986572265625 419.7149353027344 C 390.91387939453125 438.6354675292969 401.04107666015625 445.2596130371094 424.9427795410156 472.3090515136719" stroke-width="0.0" fill="rgb(12, 204, 82)" opacity="0.16207483" stroke="rgb(0, 0, 0)" stroke-opacity="1.0" stroke-linecap="round" stroke-linejoin="round"/>
    <path d="M 113.16825866699219 358.7051696777344 C 115.64835357666016 367.15655517578125 106.2870101928711 377.49224853515625 102.92757415771484 361.0465087890625 C 107.27714538574219 348.13360595703125 102.96517944335938 348.6775817871094 100.59562683105469 345.33563232421875 C 105.47313690185547 345.65936279296875 104.97550201416016 331.6998596191406 96.97154998779297 343.3847961425781 C 110.76974487304688 346.88104248046875 111.91600036621094 348.4954833984375 113.16825866699219 358.7051696777344" stroke-width="0.0" fill="rgb(157, 224, 111)" opacity="0.04684925" stroke="rgb(0, 0, 0)" stroke-opacity="1.0" stroke-linecap="round" stroke-linejoin="round"/>
    <path d="M 122.6080322265625 191.00439453125 C 52.75770568847656 230.0063934326172 57.08222579956055 241.10586547851562 14.053632736206055 239.31820678710938 C 45.777767181396484 182.4524383544922 63.19842529296875 190.2439422607422 22.452913284301758 234.85415649414062 C -21.41184425354004 215.14268493652344 -7.45396089553833 149.2595977783203 -3.321364641189575 148.0089874267578 C 66.41699981689453 155.90463256835938 124.3537368774414 140.97598266601562 122.6080322265625 191.00439453125" stroke-width="0.0" fill="rgb(132, 177, 186)" opacity="0.12416149" stroke="rgb(0, 0, 0)" stroke-opacity="1.0" stroke-linecap="round" stroke-linejoin="round"/>
    <path d="M 122.27156829833984 346.912353515625 C 108.50662231445312 326.48553466796875 108.54169464111328 357.75408935546875 119.27432250976562 346.9380187988281 C 122.87672424316406 351.10064697265625 101.25617980957031 338.3214111328125 110.6152572631836 336.7735900878906 C 114.38134765625 324.4111633300781 105.14290618896484 302.8817138671875 112.51356506347656 311.32818603515625 C 97.6701431274414 333.74652099609375 107.95382690429688 343.1418151855469 122.27156829833984 346.912353515625" stroke-width="0.0" fill="rgb(164, 223, 87)" opacity="0.0" stroke="rgb(0, 0, 0)" stroke-opacity="1.0" stroke-linecap="round" stroke-linejoin="round"/>
    <path d="M 42.60585021972656 104.93660736083984 C 39.24903106689453 91.14523315429688 14.192625045776367 67.82605743408203 20.445898056030273 92.97639465332031 C 26.486881256103516 118.5849838256836 21.189449310302734 110.42180633544922 -16.40972328186035 103.94036102294922 C -10.350444793701172 62.7436408996582 -6.629884719848633 40.78078842163086 19.231523513793945 57.402557373046875 C 35.61619567871094 46.754791259765625 32.440582275390625 95.42571258544922 42.60585021972656 104.93660736083984" stroke-width="0.0" fill="rgb(160, 213, 103)" opacity="0.0011905453" stroke="rgb(0, 0, 0)" stroke-opacity="1.0" stroke-linecap="round" stroke-linejoin="round"/>
    <path d="M 163.82461547851562 165.88046264648438 C 161.55233764648438 176.4501190185547 161.4040069580078 180.14710998535156 132.12664794921875 177.99710083007812 C 122.60334777832031 177.30731201171875 121.07776641845703 165.71743774414062 119.22097778320312 189.23736572265625 C 111.15577697753906 151.12042236328125 111.35701751708984 129.14364624023438 125.49263000488281 153.60397338867188 C 162.12733459472656 153.8341827392578 179.64093017578125 159.0897979736328 163.82461547851562 165.88046264648438" stroke-width="0.0" fill="rgb(110, 122, 116)" opacity="0.007499725" stroke="rgb(0, 0, 0)" stroke-opacity="1.0" stroke-linecap="round" stroke-linejoin="round"/>
    <path d="M 211.0634765625 386.94744873046875 C 206.07798767089844 386.37646484375 199.55613708496094 401.3412780761719 190.54824829101562 403.92852783203125 C 186.0847625732422 404.2248840332031 178.55856323242188 399.3271484375 162.59742736816406 394.13134765625 C 171.48826599121094 378.599853515625 168.2132110595703 361.9438171386719 202.495849609375 336.0797119140625 C 231.6117706298828 348.2330322265625 235.35745239257812 382.91802978515625 211.0634765625 386.94744873046875" stroke-width="0.0" fill="rgb(187, 185, 192)" opacity="0.0" stroke="rgb(0, 0, 0)" stroke-opacity="1.0" stroke-linecap="round" stroke-linejoin="round"/>
    <path d="M 59.28010940551758 99.8003158569336 C 85.39742279052734 99.90130615234375 86.07559204101562 88.21009826660156 53.8634033203125 85.38136291503906 C 69.97398376464844 72.9857406616211 76.431640625 51.629783630371094 70.92021179199219 49.14202880859375 C 62.71520233154297 64.24070739746094 62.983619689941406 37.35490798950195 64.20269012451172 46.22018814086914 C 65.38214874267578 39.0416145324707 68.65203857421875 49.281959533691406 59.28010940551758 99.8003158569336" stroke-width="0.0" fill="rgb(164, 202, 80)" opacity="0.00010395968" stroke="rgb(0, 0, 0)" stroke-opacity="1.0" stroke-linecap="round" stroke-linejoin="round"/>
    <path d="M 47.57371520996094 182.49937438964844 C 65.28321075439453 200.37496948242188 63.712684631347656 207.7788543701172 39.728424072265625 222.0240020751953 C 19.833864212036133 210.29331970214844 -16.8508243560791 215.89952087402344 -6.171896934509277 197.50363159179688 C -12.513740539550781 149.88279724121094 -22.368106842041016 124.33450317382812 17.779739379882812 114.23150634765625 C 50.23878860473633 174.80850219726562 55.64375305175781 176.45509338378906 47.57371520996094 182.49937438964844" stroke-width="0.0" fill="rgb(117, 199, 165)" opacity="0.28869984" stroke="rgb(0, 0, 0)" stroke-opacity="1.0" stroke-linecap="round" stroke-linejoin="round"/>
    <path d="M 314.3752136230469 333.2280578613281 C 326.0043640136719 325.9026184082031 321.36346435546875 339.6958312988281 288.7663269042969 351.38214111328125 C 271.85113525390625 363.4298095703125 261.95654296875 339.4710998535156 315.6575927734375 320.3860168457031 C 321.0000305175781 296.7359619140625 292.44744873046875 289.6391906738281 302.37298583984375 301.8367919921875 C 311.9011535644531 312.21978759765625 322.0239562988281 315.943603515625 314.3752136230469 333.2280578613281" stroke-width="0.0" fill="rgb(208, 1, 82)" opacity="0.27254543" stroke="rgb(0, 0, 0)" stroke-opacity="1.0" stroke-linecap="round" stroke-linejoin="round"/>
    <path d="M 389.8785400390625 441.155029296875 C 432.4732360839844 440.5791931152344 422.41864013671875 440.07940673828125 335.3126220703125 426.4847106933594 C 305.0323486328125 441.6976623535156 316.474853515625 440.1560363769531 343.45654296875 432.9273376464844 C 337.36187744140625 425.5875244140625 358.8959655761719 420.9656066894531 379.55517578125 426.3534240722656 C 380.83135986328125 401.84600830078125 361.66021728515625 392.3502197265625 389.8785400390625 441.155029296875" stroke-width="0.0" fill="rgb(12, 134, 51)" opacity="0.0" stroke="rgb(0, 0, 0)" stroke-opacity="1.0" stroke-linecap="round" stroke-linejoin="round"/>
    <path d="M 339.0805969238281 419.9582824707031 C 345.370849609375 426.68865966796875 361.571533203125 443.063720703125 334.2684020996094 436.3980712890625 C 331.6763610839844 420.1376953125 317.241943359375 411.91015625 305.5677490234375 379.555419921875 C 310.05413818359375 402.36883544921875 322.3404235839844 408.4028015136719 348.27215576171875 382.9162902832031 C 337.12506103515625 389.38421630859375 349.5880432128906 423.0373229980469 339.0805969238281 419.9582824707031" stroke-width="0.0" fill="rgb(184, 67, 76)" opacity="0.003216807" stroke="rgb(0, 0, 0)" stroke-opacity="1.0" stroke-linecap="round" stroke-linejoin="round"/>
    <path d="M 505.47918701171875 213.94361877441406 C 481.3310241699219 213.27816772460938 514.519287109375 205.2631378173828 524.5730590820312 276.5348205566406 C 486.4586181640625 271.7631530761719 497.8721618652344 257.48419189453125 489.2426452636719 260.601806640625 C 490.2960510253906 225.68345642089844 501.0359191894531 237.23867797851562 524.7300415039062 222.40472412109375 C 527.6204223632812 208.39540100097656 543.6328125 199.9600067138672 505.47918701171875 213.94361877441406" stroke-width="0.0" fill="rgb(104, 159, 134)" opacity="0.08675035" stroke="rgb(0, 0, 0)" stroke-opacity="1.0" stroke-linecap="round" stroke-linejoin="round"/>
    <path d="M 409.86370849609375 161.36984252929688 C 380.3009033203125 149.33522033691406 362.9462585449219 138.6035919189453 384.3587341308594 150.0795440673828 C 396.14349365234375 165.93360900878906 405.4799499511719 157.2445831298828 404.6458740234375 133.44183349609375 C 401.6747741699219 159.8419647216797 412.73260498046875 145.89610290527344 433.0270080566406 136.57095336914062 C 416.55145263671875 136.52346801757812 421.8240661621094 144.5203857421875 409.86370849609375 161.36984252929688" stroke-width="0.0" fill="rgb(52, 174, 119)" opacity="0.0" stroke="rgb(0, 0, 0)" stroke-opacity="1.0" stroke-linecap="round" stroke-linejoin="round"/>
    <path d="M 436.76953125 300.1383056640625 C 449.93487548828125 295.60986328125 453.23553466796875 289.3605041503906 400.6799621582031 292.5674133300781 C 399.1607971191406 318.765625 411.8388671875 280.872802734375 395.4552917480469 288.2014465332031 C 415.4693908691406 302.72265625 412.7919006347656 293.4840087890625 438.8882751464844 275.85186767578125 C 441.9752502441406 255.98951721191406 444.5730895996094 278.9971008300781 436.76953125 300.1383056640625" stroke-width="0.0" fill="rgb(60, 145, 133)" opacity="0.0038390614" stroke="rgb(0, 0, 0)" stroke-opacity="1.0" stroke-linecap="round" stroke-linejoin="round"/>
    <path d="M 405.3601989746094 50.173240661621094 C 429.48980712890625 76.46853637695312 421.8295593261719 86.74095153808594 409.5865783691406 77.29232025146484 C 412.4893798828125 90.17967224121094 414.1158142089844 64.19820404052734 403.0653076171875 72.45598602294922 C 373.2670593261719 68.98841857910156 383.3143005371094 41.501373291015625 415.1546630859375 46.59175491333008 C 411.822509765625 56.077919006347656 423.1083679199219 56.004554748535156 405.3601989746094 50.173240661621094" stroke-width="0.0" fill="rgb(55, 195, 65)" opacity="0.005968035" stroke="rgb(0, 0, 0)" stroke-opacity="1.0" stroke-linecap="round" stroke-linejoin="round"/>
    <path d="M 398.1985168457031 394.9326171875 C 376.90570068359375 470.51019287109375 411.6575622558594 464.1302795410156 401.75048828125 476.05755615234375 C 374.1067810058594 458.81201171875 363.4853210449219 456.900390625 361.1290588378906 465.1759033203125 C 315.5434875488281 447.1100769042969 346.59222412109375 430.0326232910156 371.6490173339844 446.4468994140625 C 380.7115173339844 432.4984130859375 419.08660888671875 422.9810485839844 398.1985168457031 394.9326171875" stroke-width="0.0" fill="rgb(22, 183, 84)" opacity="0.06572372" stroke="rgb(0, 0, 0)" stroke-opacity="1.0" stroke-linecap="round" stroke-linejoin="round"/>
    <path d="M 43.63349151611328 84.45948791503906 C 54.92768478393555 109.1065673828125 45.44878005981445 105.55068969726562 17.748889923095703 99.22508239746094 C -8.642155647277832 90.22052001953125 -10.048226356506348 90.25350189208984 -12.053788185119629 73.44442749023438 C -18.85603904724121 50.2390251159668 1.2139075994491577 37.00331497192383 47.225345611572266 28.110034942626953 C 41.43427658081055 31.51697540283203 46.49454879760742 71.34092712402344 43.63349151611328 84.45948791503906" stroke-width="0.0" fill="rgb(152, 196, 139)" opacity="0.014293538" stroke="rgb(0, 0, 0)" stroke-opacity="1.0" stroke-linecap="round" stroke-linejoin="round"/>
    <path d="M 192.64247131347656 416.7427978515625 C 191.64511108398438 464.0981750488281 191.1636505126953 445.4609375 186.31861877441406 444.08233642578125 C 168.01556396484375 454.85198974609375 180.51963806152344 436.28619384765625 175.17913818359375 413.7727966308594 C 169.48789978027344 406.42144775390625 178.64442443847656 394.5260925292969 182.0584259033203 388.0486145019531 C 195.640625 392.589111328125 193.8988494873047 395.72412109375 192.64247131347656 416.7427978515625" stroke-width="0.0" fill="rgb(150, 150, 235)" opacity="0.30193782" stroke="rgb(0, 0, 0)" stroke-opacity="1.0" stroke-linecap="round" stroke-linejoin="round"/>
    <path d="M 350.38616943359375 156.73667907714844 C 338.2134704589844 157.9338836669922 330.3976745605469 172.39036560058594 347.0361328125 169.54269409179688 C 313.823974609375 180.73316955566406 299.8926086425781 179.5081787109375 285.2703552246094 149.03260803222656 C 327.0506591796875 154.69699096679688 327.4508972167969 159.03286743164062 323.3030090332031 146.74305725097656 C 328.35675048828125 152.88861083984375 334.4804992675781 170.0745391845703 350.38616943359375 156.73667907714844" stroke-width="0.0" fill="rgb(225, 139, 244)" opacity="0.0071521774" stroke="rgb(0, 0, 0)" stroke-opacity="1.0" stroke-linecap="round" stroke-linejoin="round"/>
  </g>
</svg>
