<?xml version="1.0" ?>
<svg xmlns="http://www.w3.org/2000/svg" version="1.1" width="512" height="512">
  <defs/>
  <g>
    <path d="M 544.20458984375 451.7945861816406 C 542.056640625 515.231201171875 547.8551025390625 525.180419921875 433.9620056152344 549.808349609375 C 352.3464660644531 568.4606323242188 287.1781311035156 607.6154174804688 244.33221435546875 511.8960876464844 C 336.6347961425781 387.726806640625 413.5074462890625 427.79742431640625 485.939453125 322.38446044921875 C 549.9006958007812 303.3970642089844 559.4762573242188 325.0313720703125 544.20458984375 451.7945861816406" stroke-width="0.0" fill="rgb(49, 146, 94)" opacity="0.7319339" stroke="rgb(0, 0, 0)" stroke-opacity="1.0" stroke-linecap="round" stroke-linejoin="round"/>
    <path d="M 160.3006591796875 439.7991638183594 C 174.43170166015625 448.9447937011719 239.30615234375 420.5710754394531 320.7146301269531 543.7252197265625 C -51.20000076293945 520.029052734375 -51.20000076293945 513.2939453125 -59.378028869628906 447.53082275390625 C -54.236663818359375 154.83323669433594 -57.869911193847656 160.04005432128906 37.052154541015625 172.1274871826172 C 210.7454833984375 218.2917022705078 139.78782653808594 206.5060272216797 160.3006591796875 439.7991638183594" stroke-width="0.0" fill="rgb(54, 155, 135)" opacity="0.79549986" stroke="rgb(0, 0, 0)" stroke-opacity="1.0" stroke-linecap="round" stroke-linejoin="round"/>
    <path d="M 258.5605773925781 297.9147033691406 C 153.0789337158203 315.9158935546875 195.59793090820312 386.6011962890625 175.12757873535156 325.5218200683594 C 170.5906524658203 516.2156982421875 151.38150024414062 325.4320068359375 68.33496856689453 179.68682861328125 C 42.649757385253906 189.4485321044922 68.1697998046875 214.6403350830078 268.224365234375 107.5776138305664 C 299.3436584472656 223.86000061035156 408.8861083984375 271.4389953613281 258.5605773925781 297.9147033691406" stroke-width="0.0" fill="rgb(0, 0, 23)" opacity="1.0" stroke="rgb(0, 0, 0)" stroke-opacity="1.0" stroke-linecap="round" stroke-linejoin="round"/>
    <path d="M 315.5750427246094 12.499820709228516 C 338.8179931640625 175.32330322265625 262.3204040527344 134.487060546875 20.735942840576172 219.23146057128906 C -52.67268753051758 211.3893585205078 -23.407447814941406 182.1259307861328 -9.148763656616211 16.38465690612793 C -22.904752731323242 -4.435998439788818 -15.271974563598633 -8.991576194763184 9.785392761230469 -5.565834999084473 C 201.13552856445312 -41.22249984741211 239.1798095703125 -65.71794891357422 315.5750427246094 12.499820709228516" stroke-width="0.0" fill="rgb(74, 149, 156)" opacity="0.9407468" stroke="rgb(0, 0, 0)" stroke-opacity="1.0" stroke-linecap="round" stroke-linejoin="round"/>
    <path d="M 531.6727905273438 92.4169692993164 C 441.90838623046875 271.4500427246094 426.70623779296875 263.71783447265625 322.5063781738281 286.22943115234375 C 278.1244201660156 268.4397888183594 213.7096710205078 274.61236572265625 236.21946716308594 191.5314483642578 C 192.49261474609375 31.258426666259766 315.05621337890625 148.08270263671875 398.1884765625 29.026866912841797 C 552.3523559570312 -43.002166748046875 565.2363891601562 1.8902430534362793 531.6727905273438 92.4169692993164" stroke-width="0.0" fill="rgb(255, 254, 33)" opacity="1.0" stroke="rgb(0, 0, 0)" stroke-opacity="1.0" stroke-linecap="round" stroke-linejoin="round"/>
    <path d="M 427.8058166503906 322.31256103515625 C 434.8160400390625 484.4090270996094 462.611083984375 567.573974609375 254.99090576171875 521.5025024414062 C 328.7795104980469 277.8714904785156 354.84613037109375 474.9743347167969 343.641357421875 290.1947021484375 C 333.622802734375 203.2213134765625 282.0566711425781 238.7274932861328 273.94744873046875 237.29248046875 C 425.7626953125 255.53289794921875 427.0569763183594 261.5269470214844 427.8058166503906 322.31256103515625" stroke-width="0.0" fill="rgb(14, 237, 200)" opacity="0.11794391" stroke="rgb(0, 0, 0)" stroke-opacity="1.0" stroke-linecap="round" stroke-linejoin="round"/>
    <path d="M 560.9053955078125 213.07437133789062 C 551.7887573242188 315.1190490722656 538.020263671875 303.29095458984375 381.45672607421875 383.8127746582031 C 342.2841796875 433.68536376953125 406.6293029785156 366.0497741699219 364.9441223144531 188.89068603515625 C 274.1805419921875 -22.15625762939453 237.746826171875 -59.003150939941406 471.9031982421875 -33.02402114868164 C 580.35302734375 39.98831558227539 570.3146362304688 84.83721923828125 560.9053955078125 213.07437133789062" stroke-width="0.0" fill="rgb(104, 184, 158)" opacity="0.9952094" stroke="rgb(0, 0, 0)" stroke-opacity="1.0" stroke-linecap="round" stroke-linejoin="round"/>
    <path d="M 408.7320251464844 389.08892822265625 C 457.2171325683594 479.0636901855469 336.49017333984375 440.5455627441406 312.8331604003906 344.9082946777344 C 303.27099609375 287.6558837890625 231.49899291992188 299.6841125488281 254.7686767578125 265.66070556640625 C 328.31494140625 210.7039337158203 331.00445556640625 194.04444885253906 230.24415588378906 202.34622192382812 C 382.2085876464844 128.40521240234375 326.841796875 70.80005645751953 408.7320251464844 389.08892822265625" stroke-width="0.0" fill="rgb(0, 0, 20)" opacity="1.0" stroke="rgb(0, 0, 0)" stroke-opacity="1.0" stroke-linecap="round" stroke-linejoin="round"/>
    <path d="M 436.9050598144531 188.88735961914062 C 353.74407958984375 338.2089538574219 368.326416015625 363.8379821777344 332.53961181640625 281.4309997558594 C 318.794189453125 274.3728332519531 318.1179504394531 256.62255859375 334.4892578125 236.8710479736328 C 312.86944580078125 162.66845703125 338.3663024902344 123.42461395263672 309.236083984375 61.997432708740234 C 432.8108215332031 67.85997009277344 435.2283020019531 120.16320037841797 436.9050598144531 188.88735961914062" stroke-width="0.0" fill="rgb(101, 190, 162)" opacity="1.0" stroke="rgb(0, 0, 0)" stroke-opacity="1.0" stroke-linecap="round" stroke-linejoin="round"/>
    <path d="M 301.1351623535156 233.032470703125 C 274.0896911621094 266.6893615722656 255.75149536132812 274.73907470703125 242.26487731933594 246.77767944335938 C 210.9793701171875 213.25225830078125 170.1326446533203 190.4925994873047 196.67190551757812 331.1106262207031 C 241.4034423828125 283.018310546875 270.4077453613281 280.7615661621094 291.1488952636719 175.1295928955078 C 162.04483032226562 150.6318817138672 209.92410278320312 235.8225860595703 301.1351623535156 233.032470703125" stroke-width="0.0" fill="rgb(0, 0, 25)" opacity="1.0" stroke="rgb(0, 0, 0)" stroke-opacity="1.0" stroke-linecap="round" stroke-linejoin="round"/>
    <path d="M 481.9502868652344 285.0809326171875 C 475.3956298828125 335.46075439453125 469.2358093261719 417.4873046875 362.9056701660156 470.18450927734375 C 408.1765441894531 377.2129821777344 331.6938171386719 341.4942626953125 336.98724365234375 267.75531005859375 C 417.36279296875 248.6749267578125 444.8831787109375 224.07379150390625 393.64178466796875 84.77931213378906 C 471.9752197265625 185.21229553222656 468.5535583496094 237.17483520507812 481.9502868652344 285.0809326171875" stroke-width="0.0" fill="rgb(124, 201, 182)" opacity="1.0" stroke="rgb(0, 0, 0)" stroke-opacity="1.0" stroke-linecap="round" stroke-linejoin="round"/>
    <path d="M 266.2484436035156 45.26607131958008 C 250.8040008544922 73.2598648071289 254.78921508789062 80.3563003540039 269.8592529296875 73.70931243896484 C 269.13787841796875 85.23689270019531 197.3939666748047 68.58472442626953 184.54644775390625 179.4408416748047 C 243.1478729248047 104.20172119140625 369.4629211425781 128.2688751220703 273.5433349609375 104.1321792602539 C 243.35272216796875 71.22234344482422 213.89549255371094 99.62554931640625 266.2484436035156 45.26607131958008" stroke-width="0.0" fill="rgb(55, 44, 19)" opacity="0.7515126" stroke="rgb(0, 0, 0)" stroke-opacity="1.0" stroke-linecap="round" stroke-linejoin="round"/>
    <path d="M 192.3614044189453 358.5362854003906 C 203.749267578125 387.2033386230469 172.00477600097656 414.88055419921875 260.06524658203125 472.79901123046875 C 122.05767822265625 452.3227844238281 134.5250244140625 410.43792724609375 144.65701293945312 394.45361328125 C 147.36138916015625 357.364990234375 161.18028259277344 368.0713195800781 165.98065185546875 281.63824462890625 C 245.4823455810547 275.1436462402344 213.8258056640625 277.5726013183594 192.3614044189453 358.5362854003906" stroke-width="0.0" fill="rgb(0, 0, 21)" opacity="1.0" stroke="rgb(0, 0, 0)" stroke-opacity="1.0" stroke-linecap="round" stroke-linejoin="round"/>
    <path d="M 533.8719482421875 27.45643424987793 C 547.0794677734375 133.34234619140625 563.2000122070312 198.51629638671875 536.8106689453125 168.6422576904297 C 479.954833984375 82.40123748779297 465.81982421875 42.090354919433594 407.9214172363281 -36.604881286621094 C 352.4057312011719 -36.5623664855957 381.7399597167969 -29.16037368774414 447.279296875 -17.786087036132812 C 542.5020751953125 -12.75610637664795 541.1154174804688 -3.227013349533081 533.8719482421875 27.45643424987793" stroke-width="0.0" fill="rgb(105, 188, 157)" opacity="0.838179" stroke="rgb(0, 0, 0)" stroke-opacity="1.0" stroke-linecap="round" stroke-linejoin="round"/>
    <path d="M 466.0274658203125 435.0274658203125 C 462.31072998046875 446.3632507324219 462.7834167480469 423.9661560058594 435.44317626953125 470.8763427734375 C 418.5252380371094 443.0476989746094 399.7182312011719 448.76495361328125 406.0030517578125 451.6258850097656 C 448.91510009765625 438.2521667480469 449.91046142578125 420.69781494140625 452.88568115234375 436.3150939941406 C 433.0666198730469 432.4412841796875 443.74615478515625 416.10400390625 466.0274658203125 435.0274658203125" stroke-width="0.0" fill="rgb(121, 184, 114)" opacity="0.037648663" stroke="rgb(0, 0, 0)" stroke-opacity="1.0" stroke-linecap="round" stroke-linejoin="round"/>
    <path d="M 340.0310974121094 486.5101318359375 C 200.55384826660156 459.2964172363281 323.1868896484375 457.9558410644531 362.40643310546875 455.6960144042969 C 161.53048706054688 499.8288269042969 192.71298217773438 457.1759948730469 183.60614013671875 478.9452209472656 C 227.1933135986328 437.5145263671875 236.57135009765625 478.97698974609375 292.2641296386719 451.6530456542969 C 290.9246520996094 454.6356201171875 258.44805908203125 431.6088562011719 340.0310974121094 486.5101318359375" stroke-width="0.0" fill="rgb(255, 251, 0)" opacity="1.0" stroke="rgb(0, 0, 0)" stroke-opacity="1.0" stroke-linecap="round" stroke-linejoin="round"/>
    <path d="M 404.7834167480469 453.9743957519531 C 376.6374816894531 444.76727294921875 362.4473876953125 439.6070861816406 352.369140625 496.30743408203125 C 393.9554138183594 484.7178649902344 372.1295471191406 503.4059143066406 279.22119140625 479.8049011230469 C 371.86920166015625 425.068603515625 291.229736328125 380.6373596191406 348.6247253417969 414.0599060058594 C 468.13623046875 401.89739990234375 416.7396240234375 420.53973388671875 404.7834167480469 453.9743957519531" stroke-width="0.0" fill="rgb(93, 196, 147)" opacity="0.9543818" stroke="rgb(0, 0, 0)" stroke-opacity="1.0" stroke-linecap="round" stroke-linejoin="round"/>
    <path d="M 287.08282470703125 13.960698127746582 C 194.49981689453125 30.82113265991211 184.39698791503906 36.854957580566406 168.57186889648438 61.07958221435547 C 176.69699096679688 25.379409790039062 174.14186096191406 50.914100646972656 42.364437103271484 77.68578338623047 C 33.357391357421875 -69.15409088134766 78.6537857055664 -62.96924591064453 161.96055603027344 -54.0040168762207 C 266.4873046875 -19.404752731323242 286.97955322265625 -21.369367599487305 287.08282470703125 13.960698127746582" stroke-width="0.0" fill="rgb(61, 195, 107)" opacity="0.07176292" stroke="rgb(0, 0, 0)" stroke-opacity="1.0" stroke-linecap="round" stroke-linejoin="round"/>
    <path d="M 322.8441162109375 130.30271911621094 C 307.6607360839844 117.21056365966797 286.2601318359375 68.92798614501953 281.3375244140625 153.99359130859375 C 375.48077392578125 202.7743682861328 244.20553588867188 218.21046447753906 316.8886413574219 199.73362731933594 C 321.28125 89.30096435546875 321.5807189941406 91.62813568115234 316.3763122558594 85.45783996582031 C 354.7987060546875 94.07899475097656 331.732666015625 93.02726745605469 322.8441162109375 130.30271911621094" stroke-width="0.0" fill="rgb(149, 81, 6)" opacity="0.7145247" stroke="rgb(0, 0, 0)" stroke-opacity="1.0" stroke-linecap="round" stroke-linejoin="round"/>
    <path d="M 449.6819763183594 233.32705688476562 C 437.9859924316406 230.91073608398438 454.15032958984375 282.5286560058594 406.89373779296875 301.60491943359375 C 378.3922119140625 352.769775390625 386.601318359375 321.5362548828125 364.78125 221.08949279785156 C 389.8115234375 108.63317108154297 431.56866455078125 137.6797332763672 463.95947265625 167.69329833984375 C 476.47509765625 178.3578643798828 483.5998229980469 215.1114501953125 449.6819763183594 233.32705688476562" stroke-width="0.0" fill="rgb(128, 183, 171)" opacity="0.012179967" stroke="rgb(0, 0, 0)" stroke-opacity="1.0" stroke-linecap="round" stroke-linejoin="round"/>
    <path d="M 199.58106994628906 271.0987854003906 C 157.14430236816406 346.35003662109375 128.25291442871094 429.52001953125 140.0348358154297 425.4420166015625 C 128.48788452148438 368.33740234375 138.08688354492188 265.4237976074219 65.99034881591797 227.6968994140625 C 52.0255012512207 227.02146911621094 93.667724609375 171.4710693359375 218.0962677001953 126.13162994384766 C 215.89129638671875 162.0413818359375 170.30552673339844 174.33587646484375 199.58106994628906 271.0987854003906" stroke-width="0.0" fill="rgb(101, 246, 241)" opacity="1.0" stroke="rgb(0, 0, 0)" stroke-opacity="1.0" stroke-linecap="round" stroke-linejoin="round"/>
    <path d="M 139.046630859375 46.55671691894531 C 152.43019104003906 178.7779998779297 203.78663635253906 269.1061706542969 29.444101333618164 291.9370422363281 C -93.58399963378906 79.86983489990234 20.813228607177734 13.665072441101074 26.035192489624023 82.93025970458984 C 37.285865783691406 78.42427062988281 46.17772674560547 54.17195129394531 47.7257194519043 77.51595306396484 C 49.216102600097656 68.41046142578125 74.26458740234375 51.779842376708984 139.046630859375 46.55671691894531" stroke-width="0.0" fill="rgb(78, 141, 181)" opacity="0.34647566" stroke="rgb(0, 0, 0)" stroke-opacity="1.0" stroke-linecap="round" stroke-linejoin="round"/>
    <path d="M 328.5422058105469 140.79757690429688 C 340.7996826171875 192.89764404296875 329.790283203125 194.07569885253906 326.68072509765625 179.72299194335938 C 261.6494140625 165.95594787597656 301.51104736328125 132.86492919921875 192.8785400390625 195.9473876953125 C 167.54583740234375 105.77555084228516 211.95120239257812 93.0477523803711 269.40283203125 116.2940444946289 C 259.7708740234375 133.80081176757812 314.2904357910156 162.03436279296875 328.5422058105469 140.79757690429688" stroke-width="0.0" fill="rgb(199, 207, 0)" opacity="0.9979159" stroke="rgb(0, 0, 0)" stroke-opacity="1.0" stroke-linecap="round" stroke-linejoin="round"/>
    <path d="M 279.576416015625 136.63291931152344 C 262.7236633300781 159.46043395996094 235.83607482910156 169.8060760498047 241.53228759765625 170.4168243408203 C 213.64964294433594 157.5293731689453 202.42869567871094 170.8036346435547 212.21487426757812 151.9438018798828 C 212.6773223876953 141.38034057617188 222.35540771484375 150.56529235839844 222.4947052001953 139.89486694335938 C 220.7877197265625 107.34209442138672 260.32928466796875 98.31571960449219 279.576416015625 136.63291931152344" stroke-width="0.0" fill="rgb(252, 255, 104)" opacity="0.99424887" stroke="rgb(0, 0, 0)" stroke-opacity="1.0" stroke-linecap="round" stroke-linejoin="round"/>
    <path d="M 324.8307189941406 467.4600830078125 C 348.8572692871094 474.067138671875 321.405517578125 469.5238952636719 318.631591796875 478.15899658203125 C 291.56597900390625 480.1878356933594 250.39256286621094 481.56158447265625 251.83824157714844 474.75579833984375 C 298.01416015625 453.3460998535156 314.9183044433594 443.583984375 299.3283386230469 454.08984375 C 295.1015930175781 453.07061767578125 310.66046142578125 457.88543701171875 324.8307189941406 467.4600830078125" stroke-width="0.0" fill="rgb(255, 234, 0)" opacity="1.0" stroke="rgb(0, 0, 0)" stroke-opacity="1.0" stroke-linecap="round" stroke-linejoin="round"/>
    <path d="M 285.6191711425781 475.59942626953125 C 301.52081298828125 483.2965087890625 270.7572937011719 481.3764343261719 288.3763427734375 485.5717468261719 C 273.4886474609375 464.508544921875 182.64515686035156 502.4013366699219 154.39393615722656 424.4040832519531 C 193.61212158203125 501.936279296875 253.68060302734375 487.4834899902344 233.92002868652344 464.1535339355469 C 307.1515808105469 460.7579040527344 246.7977294921875 485.6349792480469 285.6191711425781 475.59942626953125" stroke-width="0.0" fill="rgb(237, 132, 102)" opacity="0.9034465" stroke="rgb(0, 0, 0)" stroke-opacity="1.0" stroke-linecap="round" stroke-linejoin="round"/>
    <path d="M 262.9043884277344 109.40415954589844 C 303.6206970214844 120.36955261230469 288.29852294921875 182.6964111328125 274.4224853515625 160.1236572265625 C 274.8128662109375 121.17515563964844 316.377197265625 112.07389068603516 290.6099853515625 142.84043884277344 C 284.8565673828125 155.55447387695312 285.0894775390625 132.5474853515625 284.8115539550781 118.38783264160156 C 308.22021484375 105.392822265625 266.2176818847656 106.25992584228516 262.9043884277344 109.40415954589844" stroke-width="0.0" fill="rgb(168, 147, 0)" opacity="0.90946305" stroke="rgb(0, 0, 0)" stroke-opacity="1.0" stroke-linecap="round" stroke-linejoin="round"/>
    <path d="M 386.6570739746094 74.31625366210938 C 409.24615478515625 69.61725616455078 453.28326416015625 74.6611557006836 466.5641784667969 168.15357971191406 C 353.8911437988281 136.96517944335938 346.661376953125 121.47928619384766 291.32037353515625 6.940497875213623 C 358.84112548828125 23.280546188354492 392.36090087890625 61.47622299194336 392.654052734375 60.56596755981445 C 385.8939208984375 77.7885971069336 386.2254943847656 90.60809326171875 386.6570739746094 74.31625366210938" stroke-width="0.0" fill="rgb(109, 178, 175)" opacity="0.09996577" stroke="rgb(0, 0, 0)" stroke-opacity="1.0" stroke-linecap="round" stroke-linejoin="round"/>
    <path d="M 452.27801513671875 393.42608642578125 C 458.1336975097656 402.8020324707031 452.0624694824219 415.74298095703125 444.7467956542969 428.6451416015625 C 421.34893798828125 416.3840637207031 438.8222961425781 427.5328369140625 405.5727233886719 426.0346984863281 C 369.7622375488281 353.8003234863281 372.649658203125 346.55560302734375 395.04351806640625 381.3760986328125 C 396.3345642089844 415.62030029296875 357.3302917480469 425.01373291015625 452.27801513671875 393.42608642578125" stroke-width="0.0" fill="rgb(67, 237, 112)" opacity="0.0" stroke="rgb(0, 0, 0)" stroke-opacity="1.0" stroke-linecap="round" stroke-linejoin="round"/>
    <path d="M 338.5893859863281 95.55076599121094 C 332.71490478515625 111.15774536132812 355.6361083984375 136.526123046875 312.8247985839844 163.6601104736328 C 313.779052734375 133.52967834472656 288.9083557128906 134.19764709472656 294.0329895019531 121.5274429321289 C 310.7736511230469 132.65655517578125 329.5914001464844 90.95984649658203 324.6546936035156 111.11587524414062 C 328.9627380371094 88.26988983154297 334.0148620605469 92.36160278320312 338.5893859863281 95.55076599121094" stroke-width="0.0" fill="rgb(255, 254, 0)" opacity="1.0" stroke="rgb(0, 0, 0)" stroke-opacity="1.0" stroke-linecap="round" stroke-linejoin="round"/>
    <path d="M 459.5065002441406 502.264404296875 C 463.69830322265625 550.5740966796875 453.27337646484375 544.6068115234375 420.52545166015625 522.2883911132812 C 410.39654541015625 485.2807312011719 415.7533264160156 482.8841552734375 420.962158203125 493.988037109375 C 429.9540710449219 458.1251220703125 427.8067626953125 406.26715087890625 396.7333984375 448.65570068359375 C 464.7776794433594 447.5555419921875 452.35272216796875 441.0644226074219 459.5065002441406 502.264404296875" stroke-width="0.0" fill="rgb(99, 196, 102)" opacity="0.11948423" stroke="rgb(0, 0, 0)" stroke-opacity="1.0" stroke-linecap="round" stroke-linejoin="round"/>
    <path d="M 192.16464233398438 459.2991638183594 C 154.8482666015625 453.13934326171875 173.85614013671875 448.66864013671875 173.2506561279297 454.8242492675781 C 151.27647399902344 446.35760498046875 145.89463806152344 416.7666931152344 124.0754623413086 435.419921875 C 125.96473693847656 432.70123291015625 147.6363983154297 441.49542236328125 165.43441772460938 403.124755859375 C 175.64453125 376.5848388671875 161.26409912109375 424.3763122558594 192.16464233398438 459.2991638183594" stroke-width="0.0" fill="rgb(128, 230, 208)" opacity="0.979583" stroke="rgb(0, 0, 0)" stroke-opacity="1.0" stroke-linecap="round" stroke-linejoin="round"/>
    <path d="M 206.01251220703125 455.5362854003906 C 196.90548706054688 455.25 181.39373779296875 458.1731262207031 181.18031311035156 445.7868957519531 C 192.37200927734375 432.0079040527344 188.7273712158203 419.3981628417969 180.1402587890625 424.2054443359375 C 191.47247314453125 420.1823425292969 178.8592071533203 413.41290283203125 191.09109497070312 345.2811279296875 C 196.4886932373047 401.7884521484375 205.4071807861328 417.04205322265625 206.01251220703125 455.5362854003906" stroke-width="0.0" fill="rgb(0, 0, 61)" opacity="0.038859732" stroke="rgb(0, 0, 0)" stroke-opacity="1.0" stroke-linecap="round" stroke-linejoin="round"/>
    <path d="M 236.37892150878906 200.29104614257812 C 275.02325439453125 250.50201416015625 188.86514282226562 225.033935546875 178.34024047851562 249.94715881347656 C 170.81375122070312 281.28741455078125 176.0265350341797 279.3077392578125 188.9899139404297 256.2485656738281 C 174.5879364013672 228.80859375 182.4564208984375 237.1415252685547 229.2196502685547 249.6333465576172 C 204.12379455566406 241.84555053710938 197.75241088867188 187.4641571044922 236.37892150878906 200.29104614257812" stroke-width="0.0" fill="rgb(199, 187, 255)" opacity="0.52510107" stroke="rgb(0, 0, 0)" stroke-opacity="1.0" stroke-linecap="round" stroke-linejoin="round"/>
    <path d="M 459.1083679199219 463.09515380859375 C 463.025146484375 464.4132385253906 458.9565124511719 465.36871337890625 449.9899597167969 454.6954040527344 C 448.0694580078125 492.18115234375 421.230224609375 472.8698425292969 414.8179931640625 463.3500061035156 C 409.6720886230469 453.1622314453125 429.6936950683594 436.5068664550781 435.8798522949219 436.4737243652344 C 451.6568603515625 439.75634765625 472.2008972167969 439.6968994140625 459.1083679199219 463.09515380859375" stroke-width="0.0" fill="rgb(109, 207, 104)" opacity="0.05705815" stroke="rgb(0, 0, 0)" stroke-opacity="1.0" stroke-linecap="round" stroke-linejoin="round"/>
    <path d="M 313.8293151855469 33.58272171020508 C 320.5946044921875 86.43587493896484 328.24749755859375 93.41131591796875 283.091796875 85.73695373535156 C 246.00730895996094 47.6388053894043 276.5269470214844 56.98487091064453 277.4659729003906 16.24329948425293 C 276.6009826660156 -61.218482971191406 265.9244689941406 -74.9626235961914 295.8489685058594 -58.54969024658203 C 318.81915283203125 -52.08731460571289 305.5232849121094 -29.60260581970215 313.8293151855469 33.58272171020508" stroke-width="0.0" fill="rgb(36, 116, 209)" opacity="0.36538136" stroke="rgb(0, 0, 0)" stroke-opacity="1.0" stroke-linecap="round" stroke-linejoin="round"/>
    <path d="M 92.42432403564453 120.65435791015625 C 85.05870056152344 118.64097595214844 81.29461669921875 131.2037353515625 96.29804229736328 130.7135009765625 C 65.15629577636719 123.17308807373047 59.712711334228516 107.40420532226562 83.89669799804688 99.64580535888672 C 81.07905578613281 122.5923080444336 87.20306396484375 98.59523010253906 92.74559783935547 96.2095718383789 C 118.320068359375 78.57586669921875 122.47052001953125 98.56912231445312 92.42432403564453 120.65435791015625" stroke-width="0.0" fill="rgb(82, 156, 120)" opacity="8.055897e-06" stroke="rgb(0, 0, 0)" stroke-opacity="1.0" stroke-linecap="round" stroke-linejoin="round"/>
    <path d="M 342.4693908691406 376.90277099609375 C 346.0838623046875 365.8575134277344 353.88970947265625 407.63494873046875 342.24517822265625 446.1868896484375 C 249.61007690429688 448.9836120605469 292.37872314453125 456.1589660644531 328.3973388671875 409.76568603515625 C 332.2795104980469 347.3639831542969 332.1025695800781 345.9853515625 347.5663757324219 336.0634765625 C 351.8516540527344 338.0051574707031 348.4386291503906 378.5588073730469 342.4693908691406 376.90277099609375" stroke-width="0.0" fill="rgb(0, 0, 30)" opacity="1.0" stroke="rgb(0, 0, 0)" stroke-opacity="1.0" stroke-linecap="round" stroke-linejoin="round"/>
    <path d="M 108.60018920898438 475.3486328125 C 105.70404052734375 479.7734069824219 96.46204376220703 477.8153381347656 93.17449951171875 478.89111328125 C 71.80300903320312 464.3938293457031 66.45144653320312 458.1748352050781 68.4653091430664 453.13427734375 C 61.688758850097656 450.3157043457031 83.31082916259766 454.2011413574219 91.91716003417969 444.8708190917969 C 90.48413848876953 422.4937744140625 96.28215789794922 429.1005859375 108.60018920898438 475.3486328125" stroke-width="0.0" fill="rgb(41, 208, 146)" opacity="0.011951963" stroke="rgb(0, 0, 0)" stroke-opacity="1.0" stroke-linecap="round" stroke-linejoin="round"/>
    <path d="M 331.252685546875 174.96356201171875 C 336.3786926269531 202.18663024902344 332.93463134765625 195.64854431152344 328.9621276855469 189.866943359375 C 306.19171142578125 183.6714630126953 308.449951171875 144.80430603027344 291.81695556640625 144.9031219482422 C 245.0018310546875 180.80555725097656 246.9304656982422 123.18892669677734 261.0721130371094 133.41883850097656 C 295.56549072265625 170.01593017578125 300.7233581542969 178.7988739013672 331.252685546875 174.96356201171875" stroke-width="0.0" fill="rgb(255, 255, 121)" opacity="0.75436217" stroke="rgb(0, 0, 0)" stroke-opacity="1.0" stroke-linecap="round" stroke-linejoin="round"/>
    <path d="M 436.007080078125 425.5191345214844 C 430.0664367675781 481.9598388671875 430.47314453125 471.4653015136719 412.958984375 472.4971923828125 C 397.8755798339844 495.79534912109375 377.9972229003906 446.04486083984375 385.5171203613281 450.630859375 C 423.5940246582031 447.8016052246094 446.8267517089844 407.5025939941406 397.4090881347656 402.8805236816406 C 359.3108825683594 402.5517272949219 353.33917236328125 439.9383239746094 436.007080078125 425.5191345214844" stroke-width="0.0" fill="rgb(124, 178, 166)" opacity="0.03383128" stroke="rgb(0, 0, 0)" stroke-opacity="1.0" stroke-linecap="round" stroke-linejoin="round"/>
    <path d="M 350.4148864746094 59.69559860229492 C 360.3190002441406 123.03641510009766 337.2318115234375 123.51604461669922 180.8422088623047 142.01072692871094 C 177.8217315673828 78.8306884765625 139.1055145263672 64.90258026123047 177.59280395507812 62.67640686035156 C 199.50350952148438 112.68871307373047 254.9520721435547 100.55530548095703 245.51809692382812 36.77505874633789 C 304.4629821777344 2.9098920822143555 246.54063415527344 151.18727111816406 350.4148864746094 59.69559860229492" stroke-width="0.0" fill="rgb(255, 240, 7)" opacity="1.0" stroke="rgb(0, 0, 0)" stroke-opacity="1.0" stroke-linecap="round" stroke-linejoin="round"/>
    <path d="M 116.64158630371094 269.05267333984375 C 104.55912780761719 363.9751281738281 111.62105560302734 384.3145751953125 86.47338104248047 342.16064453125 C 101.75485229492188 347.92547607421875 70.62950897216797 346.2920837402344 88.39700317382812 333.29144287109375 C 88.89102172851562 324.0809631347656 100.43673706054688 306.94219970703125 142.88722229003906 318.7848205566406 C 137.85154724121094 313.107666015625 165.46121215820312 309.8414001464844 116.64158630371094 269.05267333984375" stroke-width="0.0" fill="rgb(95, 218, 206)" opacity="0.0" stroke="rgb(0, 0, 0)" stroke-opacity="1.0" stroke-linecap="round" stroke-linejoin="round"/>
    <path d="M 466.53887939453125 231.46234130859375 C 503.70697021484375 225.97769165039062 496.8537902832031 231.5812530517578 489.80670166015625 243.14207458496094 C 507.43682861328125 208.0184783935547 494.3771667480469 208.0165557861328 450.6370544433594 197.6231231689453 C 431.4032897949219 190.27783203125 432.5673522949219 159.5294952392578 491.515380859375 192.9244384765625 C 509.40679931640625 197.4111785888672 464.7098388671875 197.39605712890625 466.53887939453125 231.46234130859375" stroke-width="0.0" fill="rgb(95, 180, 158)" opacity="0.016657332" stroke="rgb(0, 0, 0)" stroke-opacity="1.0" stroke-linecap="round" stroke-linejoin="round"/>
    <path d="M 435.4374694824219 266.7945251464844 C 434.25537109375 324.0908508300781 449.5507507324219 325.5499267578125 467.99481201171875 282.50634765625 C 422.3022766113281 268.2324523925781 409.2645568847656 277.2169494628906 433.3223571777344 286.2686462402344 C 433.7372131347656 269.96038818359375 438.03173828125 260.1719055175781 427.6288146972656 266.791259765625 C 438.5133056640625 269.83349609375 447.0535888671875 247.36282348632812 435.4374694824219 266.7945251464844" stroke-width="0.0" fill="rgb(120, 193, 191)" opacity="0.0" stroke="rgb(0, 0, 0)" stroke-opacity="1.0" stroke-linecap="round" stroke-linejoin="round"/>
    <path d="M 472.2552795410156 83.8941650390625 C 471.77447509765625 99.24097442626953 494.9342346191406 89.40851593017578 481.967041015625 97.30117797851562 C 493.451171875 147.62225341796875 459.015625 122.40766906738281 486.7681579589844 73.4808120727539 C 489.105712890625 51.04149627685547 478.674072265625 63.4409065246582 472.1319885253906 27.45104217529297 C 484.0281982421875 28.04174041748047 480.4494934082031 54.88164520263672 472.2552795410156 83.8941650390625" stroke-width="0.0" fill="rgb(110, 200, 123)" opacity="0.024411343" stroke="rgb(0, 0, 0)" stroke-opacity="1.0" stroke-linecap="round" stroke-linejoin="round"/>
    <path d="M 67.3890609741211 182.49920654296875 C 44.21820831298828 183.2965850830078 26.974641799926758 197.66839599609375 22.23106575012207 189.06613159179688 C 21.031166076660156 198.9073944091797 18.648380279541016 208.29666137695312 13.37263298034668 190.4237518310547 C 20.381839752197266 197.5788116455078 15.14326000213623 181.0280303955078 17.505542755126953 185.17117309570312 C 23.98814582824707 191.83822631835938 47.429447174072266 210.70765686035156 67.3890609741211 182.49920654296875" stroke-width="0.0" fill="rgb(18, 202, 130)" opacity="0.013807548" stroke="rgb(0, 0, 0)" stroke-opacity="1.0" stroke-linecap="round" stroke-linejoin="round"/>
    <path d="M 98.78573608398438 311.29803466796875 C 88.46204376220703 310.9830322265625 115.11293029785156 354.9318542480469 82.7335205078125 351.27313232421875 C 78.93976593017578 320.2267150878906 99.05608367919922 327.88116455078125 88.50154876708984 342.5741271972656 C 96.57280731201172 330.7793273925781 125.207275390625 329.88922119140625 113.5135498046875 293.39306640625 C 82.40205383300781 306.0777282714844 123.00530242919922 321.7142028808594 98.78573608398438 311.29803466796875" stroke-width="0.0" fill="rgb(74, 177, 172)" opacity="0.0" stroke="rgb(0, 0, 0)" stroke-opacity="1.0" stroke-linecap="round" stroke-linejoin="round"/>
    <path d="M 31.349313735961914 69.48387145996094 C 23.584148406982422 87.20557403564453 21.57466697692871 102.29217529296875 22.191267013549805 101.4040756225586 C 23.310596466064453 94.6387710571289 4.94829797744751 87.82157135009766 15.377991676330566 95.93388366699219 C 17.624597549438477 89.96102905273438 24.311838150024414 79.82054138183594 39.70000457763672 61.51021957397461 C 60.59196853637695 32.224647521972656 52.12443923950195 42.88892364501953 31.349313735961914 69.48387145996094" stroke-width="0.0" fill="rgb(14, 195, 123)" opacity="0.0" stroke="rgb(0, 0, 0)" stroke-opacity="1.0" stroke-linecap="round" stroke-linejoin="round"/>
    <path d="M 133.07154846191406 176.08837890625 C 130.3489990234375 162.54910278320312 148.51560974121094 166.38906860351562 150.53567504882812 201.0006561279297 C 176.34288024902344 183.10220336914062 124.7635269165039 197.05117797851562 95.6148452758789 222.49671936035156 C 99.54308319091797 180.57630920410156 73.04035186767578 162.8889923095703 104.05223083496094 188.1297149658203 C 142.3444366455078 181.34249877929688 149.50230407714844 175.8877716064453 133.07154846191406 176.08837890625" stroke-width="0.0" fill="rgb(174, 195, 249)" opacity="0.00095386966" stroke="rgb(0, 0, 0)" stroke-opacity="1.0" stroke-linecap="round" stroke-linejoin="round"/>
    <path d="M 22.459489822387695 198.50918579101562 C 9.050867080688477 239.60870361328125 18.33711814880371 245.0227813720703 22.054046630859375 240.5255889892578 C 24.39215850830078 222.2183837890625 24.11240005493164 198.6187286376953 15.305471420288086 181.99034118652344 C -12.807395935058594 158.6445770263672 -10.433892250061035 157.822265625 39.33371353149414 166.69764709472656 C 44.33450698852539 164.9000701904297 33.711448669433594 186.81703186035156 22.459489822387695 198.50918579101562" stroke-width="0.0" fill="rgb(44, 156, 184)" opacity="0.017508782" stroke="rgb(0, 0, 0)" stroke-opacity="1.0" stroke-linecap="round" stroke-linejoin="round"/>
    <path d="M 77.26573944091797 45.13364791870117 C 72.78258514404297 49.718048095703125 66.28490447998047 76.28839111328125 71.72160339355469 64.44327545166016 C 67.64659881591797 71.5671157836914 46.45310592651367 69.31782531738281 32.071537017822266 40.563899993896484 C 38.23970413208008 33.62416076660156 49.19012451171875 25.545902252197266 33.09699630737305 50.77728271484375 C 69.8362808227539 44.10834503173828 74.40629577636719 49.32224655151367 77.26573944091797 45.13364791870117" stroke-width="0.0" fill="rgb(39, 173, 122)" opacity="0.011284272" stroke="rgb(0, 0, 0)" stroke-opacity="1.0" stroke-linecap="round" stroke-linejoin="round"/>
    <path d="M 45.948184967041016 191.7163543701172 C 57.12525177001953 199.29380798339844 72.0147476196289 202.502197265625 64.81613159179688 218.63247680664062 C 26.87520980834961 209.692626953125 17.49140739440918 205.2626190185547 14.444243431091309 204.79486083984375 C 10.714164733886719 175.0850372314453 32.47154998779297 173.0882110595703 27.055662155151367 181.33082580566406 C 20.585264205932617 199.87489318847656 52.975406646728516 192.06671142578125 45.948184967041016 191.7163543701172" stroke-width="0.0" fill="rgb(21, 180, 144)" opacity="0.052308865" stroke="rgb(0, 0, 0)" stroke-opacity="1.0" stroke-linecap="round" stroke-linejoin="round"/>
    <path d="M 324.1013488769531 311.2068176269531 C 316.8432312011719 348.17767333984375 320.0290222167969 361.879150390625 330.8980407714844 369.9114074707031 C 290.3482971191406 368.487548828125 288.2705383300781 364.77056884765625 280.8451232910156 344.9874572753906 C 294.51641845703125 331.99749755859375 305.3058776855469 327.70263671875 335.7901916503906 315.095703125 C 339.9980163574219 310.6536560058594 337.21246337890625 306.5326843261719 324.1013488769531 311.2068176269531" stroke-width="0.0" fill="rgb(183, 210, 16)" opacity="0.02722852" stroke="rgb(0, 0, 0)" stroke-opacity="1.0" stroke-linecap="round" stroke-linejoin="round"/>
    <path d="M 353.62396240234375 422.60894775390625 C 352.7605285644531 484.756591796875 340.9850158691406 504.2532043457031 332.5759582519531 453.3814697265625 C 357.2607421875 402.4444885253906 344.86944580078125 387.1762390136719 343.8370056152344 400.6714782714844 C 340.7000732421875 436.2305603027344 349.612060546875 415.1206359863281 349.69012451171875 453.19189453125 C 323.1939392089844 489.0997314453125 323.63726806640625 446.5095520019531 353.62396240234375 422.60894775390625" stroke-width="0.0" fill="rgb(0, 229, 186)" opacity="0.18332522" stroke="rgb(0, 0, 0)" stroke-opacity="1.0" stroke-linecap="round" stroke-linejoin="round"/>
    <path d="M 357.78173828125 408.43792724609375 C 341.181640625 406.4408264160156 320.6120910644531 410.98114013671875 301.8623962402344 436.6916809082031 C 264.3369140625 479.23504638671875 315.7763366699219 449.252197265625 358.4462585449219 441.63311767578125 C 347.9582824707031 391.86273193359375 344.7271423339844 394.34442138671875 343.40228271484375 405.548828125 C 345.0578308105469 389.84893798828125 355.7853088378906 399.27923583984375 357.78173828125 408.43792724609375" stroke-width="0.0" fill="rgb(0, 0, 229)" opacity="0.06178351" stroke="rgb(0, 0, 0)" stroke-opacity="1.0" stroke-linecap="round" stroke-linejoin="round"/>
    <path d="M 495.6305847167969 218.74609375 C 513.201904296875 270.8574523925781 511.80810546875 248.56597900390625 499.035400390625 238.49256896972656 C 458.1494445800781 260.80206298828125 453.816650390625 265.503173828125 468.2657775878906 267.2580261230469 C 485.40216064453125 233.0219268798828 492.0380859375 230.81597900390625 500.7984313964844 231.40542602539062 C 485.9619445800781 196.94216918945312 495.4460144042969 194.77886962890625 495.6305847167969 218.74609375" stroke-width="0.0" fill="rgb(110, 179, 182)" opacity="0.0" stroke="rgb(0, 0, 0)" stroke-opacity="1.0" stroke-linecap="round" stroke-linejoin="round"/>
    <path d="M 395.1213684082031 131.6982421875 C 419.13922119140625 104.13707733154297 426.47528076171875 117.48255157470703 433.689453125 168.99899291992188 C 414.34161376953125 163.89620971679688 400.4967956542969 161.78466796875 402.8436279296875 174.90615844726562 C 411.6689147949219 165.4104766845703 412.0799560546875 137.3288116455078 394.2410888671875 120.64891815185547 C 423.3368835449219 127.09174346923828 426.2754821777344 138.23635864257812 395.1213684082031 131.6982421875" stroke-width="0.0" fill="rgb(90, 162, 123)" opacity="0.07763964" stroke="rgb(0, 0, 0)" stroke-opacity="1.0" stroke-linecap="round" stroke-linejoin="round"/>
    <path d="M 422.1352233886719 295.9444274902344 C 418.0725402832031 313.24188232421875 411.7865905761719 331.38531494140625 416.8595275878906 348.5836181640625 C 415.2580261230469 315.5660705566406 401.8587951660156 274.1977233886719 411.35992431640625 277.9454650878906 C 414.1989440917969 286.86737060546875 407.79925537109375 284.7912292480469 415.6634521484375 279.6830139160156 C 423.5887145996094 299.28607177734375 439.0725402832031 326.1919860839844 422.1352233886719 295.9444274902344" stroke-width="0.0" fill="rgb(99, 201, 134)" opacity="0.0" stroke="rgb(0, 0, 0)" stroke-opacity="1.0" stroke-linecap="round" stroke-linejoin="round"/>
    <path d="M 419.2597961425781 99.49618530273438 C 424.84716796875 62.598289489746094 414.9449157714844 49.536048889160156 412.37261962890625 79.61351013183594 C 389.2440490722656 82.05661010742188 373.2919921875 89.1562728881836 355.93359375 75.64781951904297 C 357.12554931640625 32.204898834228516 368.2237548828125 50.376399993896484 362.16265869140625 63.73149871826172 C 410.7901611328125 66.81304168701172 405.6747131347656 68.75682067871094 419.2597961425781 99.49618530273438" stroke-width="0.0" fill="rgb(92, 180, 165)" opacity="0.0059406892" stroke="rgb(0, 0, 0)" stroke-opacity="1.0" stroke-linecap="round" stroke-linejoin="round"/>
    <path d="M 365.7697448730469 455.5892639160156 C 409.9337158203125 476.1497802734375 405.3639831542969 487.36700439453125 361.8389892578125 478.2685546875 C 365.6956481933594 448.3470458984375 336.54827880859375 468.6856689453125 348.6369934082031 429.7174377441406 C 376.7255859375 417.739501953125 423.3854675292969 429.1555480957031 399.5823669433594 446.2853698730469 C 380.23297119140625 456.2742614746094 383.609130859375 436.1258544921875 365.7697448730469 455.5892639160156" stroke-width="0.0" fill="rgb(118, 206, 129)" opacity="0.04628662" stroke="rgb(0, 0, 0)" stroke-opacity="1.0" stroke-linecap="round" stroke-linejoin="round"/>
    <path d="M 14.915729522705078 110.55702209472656 C 25.14091682434082 86.76383209228516 23.84627914428711 114.0643539428711 21.22188377380371 113.49378204345703 C -12.824281692504883 112.80194091796875 -40.02662658691406 112.18407440185547 24.585752487182617 93.15129089355469 C 17.109312057495117 54.5703125 39.103694915771484 50.10655212402344 22.24323081970215 71.9723129272461 C 33.92497253417969 66.0865249633789 46.44248962402344 78.74911499023438 14.915729522705078 110.55702209472656" stroke-width="0.0" fill="rgb(75, 180, 120)" opacity="0.020152139" stroke="rgb(0, 0, 0)" stroke-opacity="1.0" stroke-linecap="round" stroke-linejoin="round"/>
    <path d="M 218.67396545410156 434.1031494140625 C 225.37814331054688 452.7528381347656 209.19699096679688 451.00799560546875 193.3390655517578 465.1335144042969 C 167.5105743408203 486.7437744140625 166.42462158203125 433.986328125 170.46490478515625 406.8648986816406 C 191.3563995361328 400.7543029785156 184.03062438964844 387.4030456542969 175.0673370361328 404.8578796386719 C 186.54010009765625 400.44561767578125 194.4736328125 406.2197265625 218.67396545410156 434.1031494140625" stroke-width="0.0" fill="rgb(0, 0, 255)" opacity="0.018420462" stroke="rgb(0, 0, 0)" stroke-opacity="1.0" stroke-linecap="round" stroke-linejoin="round"/>
    <path d="M 317.8128967285156 172.28823852539062 C 331.0993957519531 201.28733825683594 327.18890380859375 212.55331420898438 329.3517761230469 189.47036743164062 C 317.0595703125 182.82540893554688 316.37933349609375 170.5558319091797 317.70831298828125 165.5803985595703 C 304.8249206542969 151.76075744628906 321.3775329589844 161.82464599609375 320.9546203613281 160.56378173828125 C 340.798583984375 157.93161010742188 342.94561767578125 148.8964385986328 317.8128967285156 172.28823852539062" stroke-width="0.0" fill="rgb(188, 154, 16)" opacity="0.05552256" stroke="rgb(0, 0, 0)" stroke-opacity="1.0" stroke-linecap="round" stroke-linejoin="round"/>
  </g>
</svg>
