<?xml version="1.0" ?>
<svg xmlns="http://www.w3.org/2000/svg" version="1.1" width="512" height="512">
  <defs/>
  <g>
    <path d="M 246.59164428710938 341.76458740234375 C 164.24005126953125 532.5599365234375 224.40003967285156 375.57073974609375 150.2664031982422 492.89093017578125 C 79.2627944946289 400.0414733886719 -3.991166830062866 273.8389892578125 106.05519104003906 178.83164978027344 C 120.37892150878906 342.724365234375 109.5512924194336 267.2201843261719 91.76438903808594 333.74627685546875 C 88.2757797241211 366.96234130859375 73.15084838867188 332.30657958984375 246.59164428710938 341.76458740234375" stroke-width="0.0" fill="rgb(0, 0, 12)" opacity="1.0" stroke="rgb(0, 0, 0)" stroke-opacity="1.0" stroke-linecap="round" stroke-linejoin="round"/>
    <path d="M 192.40020751953125 215.67225646972656 C 227.9296112060547 268.3497619628906 140.96200561523438 285.6784973144531 183.6571807861328 277.0062561035156 C 155.7997283935547 282.5238037109375 91.38497161865234 255.75257873535156 100.8642349243164 219.0704345703125 C 118.47270965576172 279.0574645996094 62.60093307495117 268.01739501953125 183.7308349609375 231.0052032470703 C 187.34129333496094 277.7995910644531 221.85850524902344 244.89288330078125 192.40020751953125 215.67225646972656" stroke-width="0.0" fill="rgb(31, 0, 41)" opacity="1.0" stroke="rgb(0, 0, 0)" stroke-opacity="1.0" stroke-linecap="round" stroke-linejoin="round"/>
    <path d="M 382.1767883300781 213.85012817382812 C 395.3916015625 330.6500549316406 240.89674377441406 236.74893188476562 382.99078369140625 249.1934356689453 C 396.8182678222656 203.88502502441406 313.27044677734375 140.5056915283203 262.6168518066406 345.9479675292969 C 197.05555725097656 177.9785614013672 293.09088134765625 170.562744140625 371.06768798828125 198.04733276367188 C 463.3213806152344 242.0124969482422 426.15423583984375 244.71762084960938 382.1767883300781 213.85012817382812" stroke-width="0.0" fill="rgb(143, 60, 0)" opacity="0.87432563" stroke="rgb(0, 0, 0)" stroke-opacity="1.0" stroke-linecap="round" stroke-linejoin="round"/>
    <path d="M 187.90342712402344 187.4733123779297 C 145.3883056640625 250.08949279785156 221.50538635253906 213.06460571289062 131.3105926513672 252.05186462402344 C 59.4112663269043 239.5260467529297 137.08029174804688 212.59449768066406 171.12989807128906 214.1552276611328 C 211.576171875 218.426025390625 199.0194854736328 233.7193603515625 181.87716674804688 226.0574188232422 C 126.90718078613281 139.882568359375 159.13580322265625 107.22814178466797 187.90342712402344 187.4733123779297" stroke-width="0.0" fill="rgb(105, 20, 0)" opacity="0.047935463" stroke="rgb(0, 0, 0)" stroke-opacity="1.0" stroke-linecap="round" stroke-linejoin="round"/>
    <path d="M 593.4745483398438 374.5529479980469 C 565.6992797851562 427.9513244628906 423.38592529296875 398.2249450683594 474.1776123046875 462.2521057128906 C 319.2537841796875 302.8883972167969 354.8221435546875 420.1899719238281 289.7869567871094 255.20582580566406 C 451.3388977050781 337.068603515625 340.82904052734375 305.6936950683594 416.3624572753906 348.74627685546875 C 464.5064392089844 381.51666259765625 430.7813720703125 411.66326904296875 593.4745483398438 374.5529479980469" stroke-width="0.0" fill="rgb(147, 80, 3)" opacity="0.6304649" stroke="rgb(0, 0, 0)" stroke-opacity="1.0" stroke-linecap="round" stroke-linejoin="round"/>
    <path d="M 427.8029479980469 196.39794921875 C 435.17822265625 323.8863830566406 475.2847900390625 349.4552917480469 455.7215270996094 423.5641784667969 C 443.11920166015625 310.8817443847656 438.98370361328125 349.1918640136719 399.7180480957031 211.91163635253906 C 453.5281677246094 101.7549057006836 456.07855224609375 -22.72328758239746 463.035400390625 68.7620620727539 C 437.302001953125 174.25221252441406 453.614501953125 117.5690689086914 427.8029479980469 196.39794921875" stroke-width="0.0" fill="rgb(0, 0, 3)" opacity="1.0" stroke="rgb(0, 0, 0)" stroke-opacity="1.0" stroke-linecap="round" stroke-linejoin="round"/>
    <path d="M 337.9496765136719 287.7257385253906 C 256.276123046875 274.4467468261719 300.7601623535156 347.1650390625 308.41619873046875 301.81390380859375 C 274.6149597167969 303.21929931640625 374.44488525390625 339.31951904296875 275.4175720214844 344.94091796875 C 275.4132080078125 301.3594665527344 280.3565368652344 247.1912384033203 286.1556396484375 243.16404724121094 C 297.3055419921875 259.9270324707031 300.997314453125 295.7383728027344 337.9496765136719 287.7257385253906" stroke-width="0.0" fill="rgb(211, 202, 154)" opacity="0.995875" stroke="rgb(0, 0, 0)" stroke-opacity="1.0" stroke-linecap="round" stroke-linejoin="round"/>
    <path d="M 383.66546630859375 252.81207275390625 C 394.5561828613281 237.17303466796875 378.13214111328125 241.09237670898438 378.6597900390625 233.4862060546875 C 360.7281188964844 228.3750457763672 362.79327392578125 222.98394775390625 356.2500915527344 230.39390563964844 C 367.5651550292969 204.6632537841797 370.7232666015625 190.0994415283203 363.2857360839844 215.50376892089844 C 337.31451416015625 275.3325500488281 311.3643798828125 243.93836975097656 383.66546630859375 252.81207275390625" stroke-width="0.0" fill="rgb(62, 3, 77)" opacity="0.86532235" stroke="rgb(0, 0, 0)" stroke-opacity="1.0" stroke-linecap="round" stroke-linejoin="round"/>
    <path d="M 61.836708068847656 80.65419006347656 C 106.0174331665039 222.3854217529297 48.84455871582031 74.7379150390625 246.69891357421875 126.04894256591797 C 67.28878021240234 222.72064208984375 117.84119415283203 335.9677734375 45.06303787231445 68.11851501464844 C 40.93561553955078 5.434755325317383 83.21111297607422 -18.140159606933594 186.791748046875 109.53147888183594 C 59.87193298339844 14.454753875732422 61.4532356262207 -13.389063835144043 61.836708068847656 80.65419006347656" stroke-width="0.0" fill="rgb(0, 0, 15)" opacity="1.0" stroke="rgb(0, 0, 0)" stroke-opacity="1.0" stroke-linecap="round" stroke-linejoin="round"/>
    <path d="M 258.07000732421875 295.7409362792969 C 213.34129333496094 283.7084655761719 325.8731384277344 254.16635131835938 284.4559326171875 333.7098388671875 C 30.74138641357422 384.3143310546875 155.05368041992188 327.40997314453125 159.1940155029297 282.4212951660156 C 156.34625244140625 203.75747680664062 190.18197631835938 237.67242431640625 217.3402557373047 279.0035400390625 C 287.5130310058594 257.332275390625 280.6205139160156 280.9117126464844 258.07000732421875 295.7409362792969" stroke-width="0.0" fill="rgb(0, 0, 12)" opacity="1.0" stroke="rgb(0, 0, 0)" stroke-opacity="1.0" stroke-linecap="round" stroke-linejoin="round"/>
    <path d="M 377.87274169921875 241.86358642578125 C 390.3730773925781 245.53988647460938 398.26739501953125 247.70384216308594 388.3482360839844 261.6611022949219 C 400.386474609375 261.9500732421875 334.2002258300781 277.516845703125 315.1961364746094 242.55923461914062 C 373.46044921875 196.3301239013672 377.7532043457031 245.57469177246094 343.5111083984375 244.0711212158203 C 388.9589538574219 256.8608703613281 393.734130859375 252.4984130859375 377.87274169921875 241.86358642578125" stroke-width="0.0" fill="rgb(250, 119, 160)" opacity="0.5381517" stroke="rgb(0, 0, 0)" stroke-opacity="1.0" stroke-linecap="round" stroke-linejoin="round"/>
    <path d="M 477.4383544921875 -21.880903244018555 C 283.2637634277344 45.837242126464844 351.9231872558594 94.84822082519531 255.58505249023438 126.88720703125 C 131.24757385253906 124.35816955566406 207.9397735595703 46.67128372192383 18.054752349853516 -36.31068801879883 C 244.1924591064453 29.465246200561523 102.05728912353516 124.92620849609375 289.7099914550781 106.7884750366211 C 327.75115966796875 50.81743240356445 354.1629333496094 -14.27646541595459 477.4383544921875 -21.880903244018555" stroke-width="0.0" fill="rgb(2, 0, 13)" opacity="1.0" stroke="rgb(0, 0, 0)" stroke-opacity="1.0" stroke-linecap="round" stroke-linejoin="round"/>
    <path d="M 383.2977294921875 418.6951599121094 C 145.35336303710938 476.87823486328125 218.545654296875 336.0093688964844 142.63345336914062 417.70843505859375 C 110.7114486694336 412.78045654296875 164.30641174316406 370.8011779785156 146.44406127929688 358.9347839355469 C 145.48046875 357.31793212890625 183.51011657714844 344.2711486816406 231.35182189941406 310.91778564453125 C 277.6784362792969 313.4007263183594 363.7390441894531 326.08447265625 383.2977294921875 418.6951599121094" stroke-width="0.0" fill="rgb(19, 44, 101)" opacity="0.7861052" stroke="rgb(0, 0, 0)" stroke-opacity="1.0" stroke-linecap="round" stroke-linejoin="round"/>
    <path d="M 467.0945129394531 87.60612487792969 C 487.8702087402344 49.49053955078125 467.2699279785156 33.55421829223633 482.2035217285156 39.92490768432617 C 488.0534973144531 82.04127502441406 499.9892272949219 86.82794189453125 453.42022705078125 78.22359466552734 C 451.9813537597656 -4.668303966522217 435.88372802734375 -56.801883697509766 446.80413818359375 -24.767070770263672 C 447.07769775390625 33.36398696899414 461.01983642578125 58.309326171875 467.0945129394531 87.60612487792969" stroke-width="0.0" fill="rgb(0, 0, 14)" opacity="0.5020745" stroke="rgb(0, 0, 0)" stroke-opacity="1.0" stroke-linecap="round" stroke-linejoin="round"/>
    <path d="M 457.5256652832031 26.654741287231445 C 285.5465087890625 108.7481460571289 428.5706481933594 118.98700714111328 373.0098876953125 211.97372436523438 C 233.74095153808594 108.71764373779297 271.81103515625 142.4855194091797 354.35235595703125 45.67087936401367 C 352.8555908203125 78.96380615234375 364.6549072265625 -10.646829605102539 328.3594970703125 86.21310424804688 C 335.146728515625 88.91682434082031 436.3100891113281 -19.416866302490234 457.5256652832031 26.654741287231445" stroke-width="0.0" fill="rgb(0, 0, 1)" opacity="1.0" stroke="rgb(0, 0, 0)" stroke-opacity="1.0" stroke-linecap="round" stroke-linejoin="round"/>
    <path d="M 470.9400329589844 421.4372253417969 C 449.3190002441406 395.0220642089844 508.7408447265625 507.3495178222656 362.4534606933594 529.1956176757812 C 328.69732666015625 344.8851623535156 409.29779052734375 403.3160095214844 389.546142578125 304.68408203125 C 563.141357421875 422.432373046875 331.3459777832031 362.4950866699219 417.9002990722656 341.15960693359375 C 473.218994140625 395.0747985839844 492.3830261230469 415.8291320800781 470.9400329589844 421.4372253417969" stroke-width="0.0" fill="rgb(230, 223, 228)" opacity="0.8524264" stroke="rgb(0, 0, 0)" stroke-opacity="1.0" stroke-linecap="round" stroke-linejoin="round"/>
    <path d="M 461.7335205078125 31.574535369873047 C 422.2197265625 -3.5973637104034424 462.2121887207031 18.55978775024414 409.4128112792969 130.10122680664062 C 389.73028564453125 119.70834350585938 409.8756103515625 165.49497985839844 418.01165771484375 26.6343936920166 C 455.83734130859375 28.048160552978516 446.62054443359375 31.958660125732422 455.11236572265625 83.78675079345703 C 469.5841369628906 42.95595932006836 450.0997314453125 24.98109245300293 461.7335205078125 31.574535369873047" stroke-width="0.0" fill="rgb(1, 16, 6)" opacity="0.9159262" stroke="rgb(0, 0, 0)" stroke-opacity="1.0" stroke-linecap="round" stroke-linejoin="round"/>
    <path d="M 379.2439270019531 403.08734130859375 C 467.6504821777344 456.4029846191406 417.9275817871094 472.89703369140625 317.22918701171875 508.1599426269531 C 179.3479461669922 532.2138671875 99.1017074584961 483.9845886230469 204.9852294921875 449.0417785644531 C 258.95648193359375 436.727783203125 240.41937255859375 446.7874450683594 223.44834899902344 446.2596435546875 C 234.98043823242188 413.84820556640625 316.5502014160156 431.44012451171875 379.2439270019531 403.08734130859375" stroke-width="0.0" fill="rgb(62, 0, 24)" opacity="0.99546355" stroke="rgb(0, 0, 0)" stroke-opacity="1.0" stroke-linecap="round" stroke-linejoin="round"/>
    <path d="M 219.11904907226562 286.0473327636719 C 260.0904846191406 286.7061767578125 299.27593994140625 274.1025695800781 238.85089111328125 288.9216613769531 C 192.57171630859375 337.66888427734375 232.1073455810547 277.8992919921875 239.7186737060547 243.17971801757812 C 184.70924377441406 256.4019775390625 185.4755401611328 277.97808837890625 144.934814453125 269.9024963378906 C 175.59339904785156 388.137939453125 183.0529022216797 294.39044189453125 219.11904907226562 286.0473327636719" stroke-width="0.0" fill="rgb(249, 238, 201)" opacity="0.9557085" stroke="rgb(0, 0, 0)" stroke-opacity="1.0" stroke-linecap="round" stroke-linejoin="round"/>
    <path d="M 559.7295532226562 410.64031982421875 C 497.6661071777344 548.1085815429688 446.02569580078125 473.3204650878906 454.5040588378906 399.32574462890625 C 488.37298583984375 406.4776306152344 473.12957763671875 412.5650939941406 411.4565734863281 422.5954284667969 C 490.8056640625 432.12652587890625 425.45635986328125 433.4014892578125 451.24371337890625 405.9828186035156 C 537.7969360351562 439.3049621582031 484.0932922363281 408.0826416015625 559.7295532226562 410.64031982421875" stroke-width="0.0" fill="rgb(212, 210, 210)" opacity="0.98298794" stroke="rgb(0, 0, 0)" stroke-opacity="1.0" stroke-linecap="round" stroke-linejoin="round"/>
    <path d="M 316.468505859375 379.2349548339844 C 282.4068908691406 348.9775390625 250.4317626953125 355.020751953125 262.91009521484375 341.977783203125 C 258.48187255859375 364.959716796875 230.83474731445312 341.16748046875 220.01063537597656 396.18963623046875 C 171.46690368652344 429.10870361328125 199.83413696289062 381.33953857421875 308.5244140625 265.945068359375 C 353.685546875 348.888916015625 373.9440612792969 391.0298156738281 316.468505859375 379.2349548339844" stroke-width="0.0" fill="rgb(0, 0, 18)" opacity="1.0" stroke="rgb(0, 0, 0)" stroke-opacity="1.0" stroke-linecap="round" stroke-linejoin="round"/>
    <path d="M 81.28986358642578 9.992064476013184 C 63.36982727050781 9.14860725402832 57.30549621582031 140.90267944335938 83.67859649658203 225.090087890625 C 80.29046630859375 280.01788330078125 59.73431396484375 13.662302017211914 65.23372650146484 21.2723331451416 C 45.83220672607422 -25.766141891479492 32.86676025390625 -33.81187438964844 119.5605697631836 19.897903442382812 C 168.79750061035156 81.9190444946289 88.71774291992188 -8.809663772583008 81.28986358642578 9.992064476013184" stroke-width="0.0" fill="rgb(3, 1, 28)" opacity="0.0" stroke="rgb(0, 0, 0)" stroke-opacity="1.0" stroke-linecap="round" stroke-linejoin="round"/>
    <path d="M 261.9875793457031 45.431331634521484 C 149.23582458496094 57.92180252075195 163.1841278076172 37.054115295410156 184.92633056640625 79.90380859375 C 136.1004638671875 59.16005325317383 134.92320251464844 36.60732650756836 64.9292221069336 2.7486186027526855 C 112.36176300048828 -17.19476318359375 108.85443878173828 -17.462303161621094 165.98744201660156 -40.18915557861328 C 222.789794921875 -35.169403076171875 248.52293395996094 -48.46556854248047 261.9875793457031 45.431331634521484" stroke-width="0.0" fill="rgb(231, 228, 247)" opacity="0.6651109" stroke="rgb(0, 0, 0)" stroke-opacity="1.0" stroke-linecap="round" stroke-linejoin="round"/>
    <path d="M 179.9456329345703 289.3063659667969 C 162.76727294921875 363.48431396484375 163.81422424316406 384.68798828125 118.84210968017578 399.2907409667969 C 54.287681579589844 373.88165283203125 80.4252700805664 338.2290344238281 58.51875305175781 323.0746765136719 C 55.925086975097656 331.0999755859375 79.82424926757812 332.0843505859375 125.52764892578125 219.6651153564453 C 128.24783325195312 272.90777587890625 128.5895538330078 276.434326171875 179.9456329345703 289.3063659667969" stroke-width="0.0" fill="rgb(187, 86, 10)" opacity="1.0" stroke="rgb(0, 0, 0)" stroke-opacity="1.0" stroke-linecap="round" stroke-linejoin="round"/>
    <path d="M 87.49250030517578 250.12562561035156 C 85.90084838867188 257.0784912109375 85.69950103759766 246.2641143798828 72.55427551269531 243.66116333007812 C 69.2703857421875 239.3031768798828 80.73937225341797 295.7417297363281 33.07997131347656 279.31781005859375 C 25.690086364746094 161.07687377929688 72.95525360107422 103.3121109008789 71.60823822021484 229.6102752685547 C 71.30836486816406 251.1339874267578 81.7086410522461 246.58489990234375 87.49250030517578 250.12562561035156" stroke-width="0.0" fill="rgb(254, 255, 254)" opacity="1.0" stroke="rgb(0, 0, 0)" stroke-opacity="1.0" stroke-linecap="round" stroke-linejoin="round"/>
    <path d="M 248.59756469726562 126.11539459228516 C 242.05018615722656 156.01193237304688 280.18121337890625 219.60250854492188 225.11741638183594 245.6676025390625 C 127.07510375976562 198.5181884765625 120.2569808959961 219.09408569335938 166.27012634277344 183.49594116210938 C 229.93235778808594 126.33049774169922 218.87701416015625 107.54788208007812 199.9149169921875 119.57685089111328 C 260.62322998046875 128.6157989501953 310.1335144042969 114.13006591796875 248.59756469726562 126.11539459228516" stroke-width="0.0" fill="rgb(255, 192, 118)" opacity="0.96090895" stroke="rgb(0, 0, 0)" stroke-opacity="1.0" stroke-linecap="round" stroke-linejoin="round"/>
    <path d="M 312.48260498046875 356.1378479003906 C 295.9895324707031 337.0859375 327.1893310546875 357.7973327636719 309.47650146484375 387.7340393066406 C 270.4247131347656 346.9671325683594 253.0336151123047 348.807861328125 254.33482360839844 334.7026672363281 C 299.49017333984375 344.3928527832031 315.4218444824219 281.9933166503906 326.0018310546875 313.9661560058594 C 344.9728698730469 344.3720397949219 303.2817077636719 379.6251525878906 312.48260498046875 356.1378479003906" stroke-width="0.0" fill="rgb(117, 140, 245)" opacity="0.0" stroke="rgb(0, 0, 0)" stroke-opacity="1.0" stroke-linecap="round" stroke-linejoin="round"/>
    <path d="M 31.922645568847656 443.77374267578125 C -1.7097842693328857 411.8731384277344 141.69850158691406 387.7980041503906 66.88457489013672 384.0107116699219 C 1.4695888757705688 448.0733337402344 -3.003180503845215 393.68096923828125 93.1562728881836 360.78875732421875 C -49.440582275390625 361.4551696777344 -5.037538051605225 370.3221435546875 77.70748901367188 359.017333984375 C 73.0634536743164 372.2289733886719 88.11859893798828 373.3289489746094 31.922645568847656 443.77374267578125" stroke-width="0.0" fill="rgb(73, 111, 31)" opacity="0.016733017" stroke="rgb(0, 0, 0)" stroke-opacity="1.0" stroke-linecap="round" stroke-linejoin="round"/>
    <path d="M 354.31146240234375 417.5572509765625 C 334.9471740722656 395.5384826660156 330.2188415527344 423.22698974609375 325.6390686035156 423.2745361328125 C 336.6154479980469 394.42694091796875 336.504638671875 395.1482849121094 350.18115234375 422.6636962890625 C 312.59747314453125 436.5480651855469 270.08978271484375 420.74371337890625 336.4429626464844 414.1335144042969 C 358.47381591796875 381.5583190917969 362.6848449707031 408.8410949707031 354.31146240234375 417.5572509765625" stroke-width="0.0" fill="rgb(0, 10, 77)" opacity="0.96728027" stroke="rgb(0, 0, 0)" stroke-opacity="1.0" stroke-linecap="round" stroke-linejoin="round"/>
    <path d="M 385.1222839355469 90.7554702758789 C 413.25909423828125 66.90127563476562 437.3848571777344 46.21692657470703 428.5594482421875 160.6029815673828 C 414.1446228027344 204.67332458496094 394.0809326171875 129.67483520507812 337.3180847167969 106.11441802978516 C 347.6678771972656 68.61844635009766 373.2408447265625 59.646881103515625 448.6416320800781 42.958736419677734 C 436.7335205078125 157.6041717529297 421.7851867675781 120.07719421386719 385.1222839355469 90.7554702758789" stroke-width="0.0" fill="rgb(241, 184, 130)" opacity="1.0" stroke="rgb(0, 0, 0)" stroke-opacity="1.0" stroke-linecap="round" stroke-linejoin="round"/>
    <path d="M 217.5415802001953 120.48391723632812 C 227.13919067382812 119.8719253540039 217.7686767578125 157.76596069335938 179.85548400878906 164.47023010253906 C 150.79559326171875 138.06817626953125 174.62965393066406 110.1939697265625 142.38455200195312 73.38308715820312 C 134.87149047851562 21.87970733642578 147.32620239257812 71.1679458618164 159.21533203125 68.98727416992188 C 168.5410919189453 83.34969329833984 178.13760375976562 111.90642547607422 217.5415802001953 120.48391723632812" stroke-width="0.0" fill="rgb(0, 0, 24)" opacity="1.0" stroke="rgb(0, 0, 0)" stroke-opacity="1.0" stroke-linecap="round" stroke-linejoin="round"/>
    <path d="M 542.5657958984375 430.6553955078125 C 538.2389526367188 460.7806396484375 528.2991333007812 475.317138671875 523.4932250976562 464.662353515625 C 503.9621887207031 463.1668395996094 491.9053649902344 453.59625244140625 491.4993896484375 429.0797424316406 C 484.11822509765625 431.9779357910156 485.92047119140625 424.9909973144531 521.096435546875 438.5164794921875 C 524.2904663085938 425.6336975097656 529.3707275390625 430.8746337890625 542.5657958984375 430.6553955078125" stroke-width="0.0" fill="rgb(202, 222, 175)" opacity="0.0435803" stroke="rgb(0, 0, 0)" stroke-opacity="1.0" stroke-linecap="round" stroke-linejoin="round"/>
    <path d="M 357.48388671875 206.935791015625 C 387.7436828613281 254.49168395996094 388.9145202636719 275.00286865234375 322.20867919921875 259.4788513183594 C 329.02825927734375 231.00784301757812 318.2226257324219 248.7704620361328 316.3665466308594 250.93028259277344 C 326.9541320800781 262.267578125 314.4185485839844 239.1789093017578 331.07745361328125 236.36151123046875 C 397.58148193359375 230.77682495117188 339.5917053222656 194.03152465820312 357.48388671875 206.935791015625" stroke-width="0.0" fill="rgb(80, 9, 87)" opacity="0.93804324" stroke="rgb(0, 0, 0)" stroke-opacity="1.0" stroke-linecap="round" stroke-linejoin="round"/>
    <path d="M 478.92889404296875 419.869873046875 C 470.4556884765625 424.8008117675781 470.19635009765625 442.2940673828125 457.1589050292969 460.93280029296875 C 426.77301025390625 436.6581726074219 412.8188171386719 441.90838623046875 429.2870788574219 385.0555725097656 C 407.5650939941406 346.66949462890625 393.17236328125 344.7860107421875 468.3526611328125 329.90826416015625 C 510.6943359375 341.3294982910156 500.7771911621094 365.17010498046875 478.92889404296875 419.869873046875" stroke-width="0.0" fill="rgb(193, 188, 201)" opacity="0.7012784" stroke="rgb(0, 0, 0)" stroke-opacity="1.0" stroke-linecap="round" stroke-linejoin="round"/>
    <path d="M 166.2295379638672 414.2082824707031 C 176.94369506835938 412.7703552246094 182.83311462402344 419.97442626953125 180.22125244140625 418.1456298828125 C 152.38185119628906 422.0933837890625 145.4960174560547 417.44598388671875 148.48353576660156 432.67181396484375 C 170.51602172851562 421.8552551269531 179.77981567382812 410.3447265625 174.72779846191406 420.0783996582031 C 173.66973876953125 419.64166259765625 180.30316162109375 415.8927917480469 166.2295379638672 414.2082824707031" stroke-width="0.0" fill="rgb(111, 119, 177)" opacity="0.0" stroke="rgb(0, 0, 0)" stroke-opacity="1.0" stroke-linecap="round" stroke-linejoin="round"/>
    <path d="M 436.5600891113281 387.1968688964844 C 401.1575622558594 388.5785827636719 424.5729675292969 384.6160583496094 429.96636962890625 421.1817626953125 C 391.7020568847656 430.9722595214844 394.67242431640625 403.7301940917969 388.6756591796875 369.833251953125 C 356.8236389160156 291.1213684082031 330.177978515625 238.5460968017578 428.31744384765625 286.3416748046875 C 458.9361877441406 362.69378662109375 452.25274658203125 351.0489196777344 436.5600891113281 387.1968688964844" stroke-width="0.0" fill="rgb(249, 238, 197)" opacity="1.0" stroke="rgb(0, 0, 0)" stroke-opacity="1.0" stroke-linecap="round" stroke-linejoin="round"/>
    <path d="M 155.8605194091797 88.31725311279297 C 176.73403930664062 107.64138793945312 148.9674072265625 110.26065826416016 116.80619049072266 126.71602630615234 C 105.1271743774414 132.28842163085938 96.89820861816406 102.03917694091797 70.65174102783203 90.57173919677734 C 49.29281234741211 28.273162841796875 76.08586883544922 24.771562576293945 105.55980682373047 48.15620040893555 C 130.1532745361328 62.498165130615234 131.14443969726562 86.47967529296875 155.8605194091797 88.31725311279297" stroke-width="0.0" fill="rgb(181, 155, 9)" opacity="0.5169761" stroke="rgb(0, 0, 0)" stroke-opacity="1.0" stroke-linecap="round" stroke-linejoin="round"/>
    <path d="M 380.35504150390625 395.0987854003906 C 389.6763916015625 432.44000244140625 384.5896911621094 456.6405944824219 304.23614501953125 442.7840270996094 C 318.1986083984375 400.9437255859375 342.5635986328125 386.6636047363281 342.5993347167969 371.17230224609375 C 322.4400939941406 308.6268310546875 284.3397216796875 315.4569396972656 301.6166076660156 374.01568603515625 C 331.82611083984375 397.77978515625 365.8792419433594 387.6716003417969 380.35504150390625 395.0987854003906" stroke-width="0.0" fill="rgb(0, 11, 27)" opacity="0.9984598" stroke="rgb(0, 0, 0)" stroke-opacity="1.0" stroke-linecap="round" stroke-linejoin="round"/>
    <path d="M 154.4519805908203 374.5427551269531 C 158.79171752929688 417.77069091796875 146.8205108642578 447.1863098144531 101.86244201660156 427.98211669921875 C 68.12104797363281 436.5912780761719 45.33557891845703 416.2325744628906 14.65960693359375 352.3274230957031 C 44.19416809082031 304.6441650390625 92.58097839355469 315.4991149902344 92.083251953125 338.509765625 C 94.1734390258789 371.5466613769531 89.10714721679688 387.5038757324219 154.4519805908203 374.5427551269531" stroke-width="0.0" fill="rgb(160, 94, 28)" opacity="0.9993451" stroke="rgb(0, 0, 0)" stroke-opacity="1.0" stroke-linecap="round" stroke-linejoin="round"/>
    <path d="M 258.0331726074219 113.22628021240234 C 260.4263916015625 183.7765350341797 268.9708251953125 235.38856506347656 250.62396240234375 228.797119140625 C 240.5753936767578 128.81085205078125 238.82736206054688 96.57522583007812 261.3460693359375 126.90623474121094 C 244.6340789794922 127.31222534179688 251.25306701660156 104.91773986816406 252.58737182617188 117.54318237304688 C 254.38197326660156 121.38627624511719 285.39447021484375 110.0755844116211 258.0331726074219 113.22628021240234" stroke-width="0.0" fill="rgb(0, 0, 14)" opacity="1.0" stroke="rgb(0, 0, 0)" stroke-opacity="1.0" stroke-linecap="round" stroke-linejoin="round"/>
    <path d="M 448.83782958984375 77.08977508544922 C 436.9458312988281 123.2100601196289 422.3001403808594 131.3193359375 443.4410705566406 65.38792419433594 C 437.154296875 43.37052536010742 445.6158447265625 65.12650299072266 368.7267761230469 79.69905090332031 C 382.001953125 62.219322204589844 398.0533752441406 41.356956481933594 425.3154602050781 31.05869483947754 C 444.0926513671875 35.682716369628906 438.490234375 51.542808532714844 448.83782958984375 77.08977508544922" stroke-width="0.0" fill="rgb(238, 191, 124)" opacity="1.0" stroke="rgb(0, 0, 0)" stroke-opacity="1.0" stroke-linecap="round" stroke-linejoin="round"/>
    <path d="M 140.55126953125 131.5124053955078 C 120.8643569946289 145.60145568847656 101.20381927490234 171.5435791015625 95.48271179199219 181.5728302001953 C 69.90263366699219 169.19122314453125 82.80326843261719 147.00625610351562 86.04647827148438 131.10183715820312 C 79.72740173339844 101.93887329101562 59.279319763183594 86.0469741821289 67.77273559570312 92.49297332763672 C 162.98158264160156 87.75020599365234 159.82623291015625 114.08426666259766 140.55126953125 131.5124053955078" stroke-width="0.0" fill="rgb(226, 127, 73)" opacity="1.0" stroke="rgb(0, 0, 0)" stroke-opacity="1.0" stroke-linecap="round" stroke-linejoin="round"/>
    <path d="M 535.2125244140625 485.4761047363281 C 520.4595336914062 517.4486083984375 511.7738037109375 524.1069946289062 496.13507080078125 563.7823486328125 C 479.0943908691406 560.5498657226562 480.9041748046875 555.736328125 479.0482177734375 474.06890869140625 C 459.19439697265625 486.439208984375 469.24896240234375 469.43731689453125 504.1878662109375 446.7651062011719 C 527.3621826171875 452.2355651855469 540.2068481445312 460.73193359375 535.2125244140625 485.4761047363281" stroke-width="0.0" fill="rgb(235, 231, 103)" opacity="0.16174066" stroke="rgb(0, 0, 0)" stroke-opacity="1.0" stroke-linecap="round" stroke-linejoin="round"/>
    <path d="M 249.59024047851562 312.567138671875 C 260.21881103515625 331.9833068847656 300.2164611816406 314.2264709472656 256.8825378417969 350.10040283203125 C 220.69847106933594 342.92364501953125 229.5398712158203 311.6275634765625 238.0228729248047 313.46856689453125 C 284.16827392578125 322.14312744140625 296.7812194824219 332.779541015625 284.0118103027344 307.5360412597656 C 260.1611328125 303.7283020019531 244.78414916992188 318.9479064941406 249.59024047851562 312.567138671875" stroke-width="0.0" fill="rgb(4, 71, 49)" opacity="1.0" stroke="rgb(0, 0, 0)" stroke-opacity="1.0" stroke-linecap="round" stroke-linejoin="round"/>
    <path d="M 444.3949890136719 122.5716323852539 C 404.5818786621094 140.30398559570312 408.9514465332031 165.1895294189453 416.6197814941406 218.4069366455078 C 362.3804931640625 223.12319946289062 361.7354431152344 189.6498260498047 384.8226318359375 140.57931518554688 C 401.8171081542969 171.0582275390625 407.47894287109375 156.5491485595703 413.038818359375 132.0228729248047 C 394.1339416503906 145.0406494140625 416.32122802734375 115.28668975830078 444.3949890136719 122.5716323852539" stroke-width="0.0" fill="rgb(0, 0, 3)" opacity="1.0" stroke="rgb(0, 0, 0)" stroke-opacity="1.0" stroke-linecap="round" stroke-linejoin="round"/>
    <path d="M 464.3184509277344 481.7656555175781 C 468.8323669433594 507.56695556640625 464.72015380859375 517.3941650390625 436.0855712890625 525.542236328125 C 426.7747802734375 523.7838745117188 438.49078369140625 498.197509765625 435.04296875 482.12744140625 C 434.91265869140625 493.8163757324219 425.90277099609375 476.6923522949219 457.75665283203125 487.955810546875 C 468.6078796386719 470.36578369140625 464.9381408691406 470.99652099609375 464.3184509277344 481.7656555175781" stroke-width="0.0" fill="rgb(254, 207, 137)" opacity="0.0659122" stroke="rgb(0, 0, 0)" stroke-opacity="1.0" stroke-linecap="round" stroke-linejoin="round"/>
    <path d="M 469.986083984375 -32.94359588623047 C 465.67645263671875 -0.775192141532898 466.15118408203125 4.909664154052734 462.45745849609375 -11.350759506225586 C 458.97467041015625 -10.207164764404297 422.35333251953125 -7.400968551635742 421.23675537109375 -2.239624500274658 C 444.3575134277344 -10.514644622802734 456.5303039550781 -13.639341354370117 460.4816589355469 -22.180723190307617 C 474.8860168457031 -14.387734413146973 486.1815185546875 -6.34412956237793 469.986083984375 -32.94359588623047" stroke-width="0.0" fill="rgb(48, 34, 25)" opacity="0.23947291" stroke="rgb(0, 0, 0)" stroke-opacity="1.0" stroke-linecap="round" stroke-linejoin="round"/>
    <path d="M 196.72012329101562 251.6313018798828 C 190.2406768798828 261.9391174316406 176.84388732910156 297.9516296386719 138.58013916015625 291.064453125 C 169.20742797851562 277.089111328125 186.7849884033203 302.7554626464844 202.7335662841797 279.1162109375 C 195.43536376953125 228.2625732421875 184.25869750976562 245.5651397705078 194.52688598632812 239.3155517578125 C 178.75802612304688 223.15977478027344 193.21759033203125 224.23695373535156 196.72012329101562 251.6313018798828" stroke-width="0.0" fill="rgb(246, 252, 187)" opacity="0.9171184" stroke="rgb(0, 0, 0)" stroke-opacity="1.0" stroke-linecap="round" stroke-linejoin="round"/>
    <path d="M 191.05715942382812 408.28228759765625 C 187.672607421875 411.0673828125 182.6165771484375 430.0252990722656 181.83189392089844 453.42987060546875 C 159.356201171875 465.239013671875 136.02207946777344 474.2800598144531 153.70806884765625 456.8095703125 C 169.3773956298828 417.32110595703125 161.561767578125 412.82275390625 167.03216552734375 436.09808349609375 C 191.2261505126953 418.42852783203125 185.41212463378906 417.10504150390625 191.05715942382812 408.28228759765625" stroke-width="0.0" fill="rgb(176, 132, 166)" opacity="0.0" stroke="rgb(0, 0, 0)" stroke-opacity="1.0" stroke-linecap="round" stroke-linejoin="round"/>
    <path d="M 208.17242431640625 229.547607421875 C 234.26434326171875 249.96612548828125 226.27322387695312 264.33099365234375 203.84901428222656 273.04241943359375 C 196.9175567626953 224.57115173339844 165.91400146484375 208.03103637695312 164.20098876953125 217.56765747070312 C 201.33372497558594 211.84732055664062 189.47386169433594 241.73593139648438 174.26187133789062 212.2406463623047 C 182.44732666015625 220.4523468017578 195.25401306152344 227.73085021972656 208.17242431640625 229.547607421875" stroke-width="0.0" fill="rgb(255, 255, 205)" opacity="1.0" stroke="rgb(0, 0, 0)" stroke-opacity="1.0" stroke-linecap="round" stroke-linejoin="round"/>
    <path d="M 247.89422607421875 338.0586853027344 C 250.80381774902344 377.2220458984375 201.75753784179688 371.8409423828125 170.0373992919922 377.2410583496094 C 184.61566162109375 404.5877380371094 196.41065979003906 382.7110900878906 191.3883819580078 371.7084655761719 C 176.16561889648438 349.5182189941406 171.26174926757812 329.62213134765625 179.0659942626953 333.0962219238281 C 193.8444061279297 327.0644226074219 202.52865600585938 301.7936706542969 247.89422607421875 338.0586853027344" stroke-width="0.0" fill="rgb(0, 0, 8)" opacity="1.0" stroke="rgb(0, 0, 0)" stroke-opacity="1.0" stroke-linecap="round" stroke-linejoin="round"/>
    <path d="M 65.4909439086914 464.7755432128906 C 69.3778076171875 443.15118408203125 69.9034652709961 462.6494445800781 79.86686706542969 442.2179260253906 C 90.39777374267578 409.77044677734375 92.5627212524414 440.2181091308594 73.13436889648438 456.28369140625 C 25.2250919342041 432.6641540527344 24.9176025390625 409.7281799316406 61.114192962646484 421.2951965332031 C 70.2297134399414 440.900634765625 78.64934539794922 470.2329406738281 65.4909439086914 464.7755432128906" stroke-width="0.0" fill="rgb(160, 240, 214)" opacity="0.026735507" stroke="rgb(0, 0, 0)" stroke-opacity="1.0" stroke-linecap="round" stroke-linejoin="round"/>
    <path d="M 489.1374816894531 471.2715148925781 C 460.66009521484375 486.8299560546875 480.11151123046875 491.8862609863281 444.1379089355469 494.66400146484375 C 425.1814270019531 488.4869079589844 426.4616394042969 492.9898681640625 422.5631408691406 489.218017578125 C 382.3948974609375 466.59832763671875 446.9127197265625 457.6885681152344 472.80462646484375 452.4916687011719 C 472.14581298828125 446.4258117675781 513.7787475585938 469.85333251953125 489.1374816894531 471.2715148925781" stroke-width="0.0" fill="rgb(225, 203, 197)" opacity="0.027283661" stroke="rgb(0, 0, 0)" stroke-opacity="1.0" stroke-linecap="round" stroke-linejoin="round"/>
    <path d="M 448.7875061035156 393.7120056152344 C 479.8943176269531 386.1726989746094 462.4041748046875 389.20074462890625 437.2520446777344 395.3680725097656 C 432.9383544921875 379.70361328125 419.42193603515625 374.7912902832031 408.24798583984375 373.0254211425781 C 429.6075744628906 349.3959045410156 441.5435791015625 337.4630432128906 444.1234130859375 336.536376953125 C 436.330322265625 337.49029541015625 452.04083251953125 352.0086975097656 448.7875061035156 393.7120056152344" stroke-width="0.0" fill="rgb(139, 208, 127)" opacity="0.0" stroke="rgb(0, 0, 0)" stroke-opacity="1.0" stroke-linecap="round" stroke-linejoin="round"/>
    <path d="M 96.02413177490234 125.89759063720703 C 65.18531036376953 147.16571044921875 17.31852912902832 124.3081283569336 11.618680953979492 162.012939453125 C -12.550466537475586 174.98348999023438 -13.157014846801758 157.77178955078125 -7.820122718811035 103.54057312011719 C -27.26807403564453 92.08807373046875 -25.27963638305664 89.39813995361328 75.77963256835938 80.00592803955078 C 73.8968276977539 66.09451293945312 67.05474853515625 63.49380874633789 96.02413177490234 125.89759063720703" stroke-width="0.0" fill="rgb(78, 109, 177)" opacity="0.037528325" stroke="rgb(0, 0, 0)" stroke-opacity="1.0" stroke-linecap="round" stroke-linejoin="round"/>
    <path d="M 88.4953384399414 511.0138244628906 C 88.43515014648438 503.77923583984375 71.38311767578125 504.2161560058594 30.933725357055664 516.985595703125 C 4.8333330154418945 522.0003662109375 6.2519450187683105 514.212890625 -12.514725685119629 458.64569091796875 C -6.141167640686035 451.478515625 -7.183603286743164 442.0334167480469 -13.305023193359375 452.62152099609375 C 26.97248077392578 458.0068359375 40.72005844116211 471.63470458984375 88.4953384399414 511.0138244628906" stroke-width="0.0" fill="rgb(209, 219, 255)" opacity="0.01166163" stroke="rgb(0, 0, 0)" stroke-opacity="1.0" stroke-linecap="round" stroke-linejoin="round"/>
    <path d="M 131.71176147460938 240.6074981689453 C 133.1159210205078 251.45803833007812 148.39459228515625 222.52731323242188 129.72299194335938 246.3480987548828 C 172.48658752441406 235.7505340576172 127.1333999633789 239.64308166503906 105.4809341430664 235.43362426757812 C 120.94329071044922 237.72715759277344 98.06239318847656 232.2705535888672 104.67222595214844 255.04989624023438 C 133.6248321533203 254.32501220703125 128.44187927246094 235.6249237060547 131.71176147460938 240.6074981689453" stroke-width="0.0" fill="rgb(214, 134, 131)" opacity="0.21860035" stroke="rgb(0, 0, 0)" stroke-opacity="1.0" stroke-linecap="round" stroke-linejoin="round"/>
    <path d="M 307.6016845703125 34.725868225097656 C 308.46368408203125 53.31847381591797 292.3818359375 73.3360595703125 284.5545654296875 61.467857360839844 C 261.1326904296875 46.33943557739258 255.1363067626953 32.306114196777344 245.9610137939453 20.971805572509766 C 229.9307861328125 -23.150209426879883 263.8194274902344 -5.569093704223633 267.8168640136719 -12.734830856323242 C 259.24993896484375 7.269948959350586 252.03143310546875 31.492774963378906 307.6016845703125 34.725868225097656" stroke-width="0.0" fill="rgb(231, 255, 216)" opacity="0.007954244" stroke="rgb(0, 0, 0)" stroke-opacity="1.0" stroke-linecap="round" stroke-linejoin="round"/>
    <path d="M 138.09368896484375 145.846923828125 C 130.5216827392578 161.0778045654297 122.10679626464844 167.40858459472656 122.07637023925781 173.4955291748047 C 120.64025115966797 167.79881286621094 120.18054962158203 156.74801635742188 116.56978607177734 167.10191345214844 C 121.5889892578125 167.5033721923828 131.64501953125 161.92025756835938 130.68357849121094 170.4529266357422 C 130.5448760986328 159.9797821044922 143.8292999267578 156.25965881347656 138.09368896484375 145.846923828125" stroke-width="0.0" fill="rgb(181, 187, 88)" opacity="0.0" stroke="rgb(0, 0, 0)" stroke-opacity="1.0" stroke-linecap="round" stroke-linejoin="round"/>
    <path d="M 523.6513671875 236.83738708496094 C 463.190185546875 249.58287048339844 438.6740417480469 242.93028259277344 440.88177490234375 240.41102600097656 C 444.4176330566406 243.2245635986328 443.0458984375 233.0978240966797 439.54156494140625 249.81126403808594 C 448.05072021484375 240.75018310546875 457.29364013671875 248.65040588378906 479.08001708984375 249.2063446044922 C 464.304931640625 207.11380004882812 515.8630981445312 188.88140869140625 523.6513671875 236.83738708496094" stroke-width="0.0" fill="rgb(150, 126, 81)" opacity="0.0070965607" stroke="rgb(0, 0, 0)" stroke-opacity="1.0" stroke-linecap="round" stroke-linejoin="round"/>
    <path d="M 400.53076171875 358.6455078125 C 383.46588134765625 403.1435852050781 369.6000061035156 398.41448974609375 363.37164306640625 412.4617919921875 C 340.6202087402344 414.2900085449219 330.551025390625 427.5326232910156 343.5376892089844 413.4894104003906 C 348.79901123046875 407.4082946777344 365.9795227050781 414.3229675292969 375.5225524902344 411.74554443359375 C 356.5483703613281 374.6083679199219 369.5315856933594 348.39385986328125 400.53076171875 358.6455078125" stroke-width="0.0" fill="rgb(71, 115, 71)" opacity="0.0" stroke="rgb(0, 0, 0)" stroke-opacity="1.0" stroke-linecap="round" stroke-linejoin="round"/>
    <path d="M 381.40673828125 184.0535888671875 C 355.4442138671875 186.37661743164062 338.360595703125 186.16432189941406 317.2601013183594 215.62461853027344 C 360.1701354980469 217.6571502685547 352.5693054199219 196.11788940429688 357.07781982421875 201.38499450683594 C 355.194091796875 171.76776123046875 336.50543212890625 166.6033477783203 325.58953857421875 167.0011444091797 C 379.4389953613281 170.6085662841797 387.143798828125 180.1087646484375 381.40673828125 184.0535888671875" stroke-width="0.0" fill="rgb(214, 242, 128)" opacity="0.0" stroke="rgb(0, 0, 0)" stroke-opacity="1.0" stroke-linecap="round" stroke-linejoin="round"/>
    <path d="M 124.02983093261719 437.0962829589844 C 114.16004943847656 461.85870361328125 105.5726547241211 466.978515625 92.8025894165039 486.9229431152344 C 62.29058074951172 437.19085693359375 47.19731521606445 412.927734375 72.17790222167969 406.8970642089844 C 86.21846008300781 426.3341979980469 100.49623107910156 425.9596862792969 102.55843353271484 416.0906982421875 C 99.09614562988281 430.1072692871094 112.89530181884766 429.6275329589844 124.02983093261719 437.0962829589844" stroke-width="0.0" fill="rgb(173, 158, 211)" opacity="0.051864833" stroke="rgb(0, 0, 0)" stroke-opacity="1.0" stroke-linecap="round" stroke-linejoin="round"/>
    <path d="M 141.7561798095703 464.8449401855469 C 159.2881317138672 488.5685119628906 129.4833221435547 481.99237060546875 41.600215911865234 488.3120422363281 C 45.508296966552734 479.3897705078125 44.1667594909668 483.2345275878906 50.120697021484375 434.2693176269531 C 55.8424072265625 438.2914733886719 94.3140869140625 443.77655029296875 75.75147247314453 465.8751525878906 C 79.82102966308594 450.802978515625 95.44984436035156 448.21148681640625 141.7561798095703 464.8449401855469" stroke-width="0.0" fill="rgb(254, 225, 250)" opacity="0.00023566661" stroke="rgb(0, 0, 0)" stroke-opacity="1.0" stroke-linecap="round" stroke-linejoin="round"/>
  </g>
</svg>
