<?xml version="1.0" ?>
<svg xmlns="http://www.w3.org/2000/svg" version="1.1" width="512" height="512">
  <defs/>
  <g>
    <path d="M 235.58609008789062 340.7080383300781 C 196.17977905273438 518.6666870117188 209.28799438476562 341.1482238769531 155.18325805664062 443.5471496582031 C 102.81051635742188 384.36944580078125 9.056885719299316 235.4266815185547 85.24362182617188 162.7638702392578 C 51.67503356933594 315.40777587890625 77.35970306396484 276.69256591796875 94.74593353271484 318.9859924316406 C 83.38260650634766 348.85919189453125 77.58666229248047 320.77099609375 235.58609008789062 340.7080383300781" stroke-width="0.0" fill="rgb(38, 13, 0)" opacity="0.95820266" stroke="rgb(0, 0, 0)" stroke-opacity="1.0" stroke-linecap="round" stroke-linejoin="round"/>
    <path d="M 180.40126037597656 221.67034912109375 C 236.8184814453125 301.30145263671875 170.12307739257812 325.40838623046875 153.87710571289062 328.8225402832031 C 103.60860443115234 335.05535888671875 69.07365417480469 297.30487060546875 92.72254943847656 247.70526123046875 C 120.138427734375 241.7616729736328 4.007310390472412 203.2439422607422 170.4049530029297 181.3798065185547 C 171.4884796142578 284.7520446777344 182.42041015625 267.8171081542969 180.40126037597656 221.67034912109375" stroke-width="0.0" fill="rgb(5, 6, 2)" opacity="0.97044194" stroke="rgb(0, 0, 0)" stroke-opacity="1.0" stroke-linecap="round" stroke-linejoin="round"/>
    <path d="M 416.9801330566406 253.61766052246094 C 402.79620361328125 370.0240478515625 216.83541870117188 292.5290222167969 396.345458984375 249.9373321533203 C 423.01275634765625 233.29312133789062 346.4875183105469 177.9757080078125 251.55517578125 331.4088134765625 C 172.4822540283203 165.4204559326172 267.821533203125 197.4928436279297 361.2319641113281 230.4877471923828 C 477.15966796875 228.188720703125 400.9162902832031 282.8702087402344 416.9801330566406 253.61766052246094" stroke-width="0.0" fill="rgb(0, 0, 0)" opacity="1.0" stroke="rgb(0, 0, 0)" stroke-opacity="1.0" stroke-linecap="round" stroke-linejoin="round"/>
    <path d="M 207.82321166992188 205.49681091308594 C 154.86888122558594 296.5447692871094 221.14413452148438 263.7834167480469 75.310791015625 250.96080017089844 C 19.9631404876709 217.01156616210938 96.377685546875 203.56597900390625 159.41258239746094 224.9666290283203 C 224.67445373535156 240.72030639648438 227.64358520507812 273.9482116699219 231.34642028808594 216.25592041015625 C 149.43704223632812 118.86968231201172 173.75933837890625 100.0741195678711 207.82321166992188 205.49681091308594" stroke-width="0.0" fill="rgb(0, 0, 1)" opacity="1.0" stroke="rgb(0, 0, 0)" stroke-opacity="1.0" stroke-linecap="round" stroke-linejoin="round"/>
    <path d="M 551.1567993164062 317.8250427246094 C 581.432373046875 436.3914489746094 445.3245544433594 412.4942932128906 490.5608825683594 459.3455810546875 C 329.2323913574219 294.3414306640625 378.87060546875 414.570068359375 312.0248718261719 264.93115234375 C 471.0528259277344 355.2349853515625 313.3877258300781 344.40704345703125 389.8507995605469 362.8034973144531 C 447.3166809082031 345.1493835449219 378.5406494140625 350.7785949707031 551.1567993164062 317.8250427246094" stroke-width="0.0" fill="rgb(124, 43, 75)" opacity="0.2507293" stroke="rgb(0, 0, 0)" stroke-opacity="1.0" stroke-linecap="round" stroke-linejoin="round"/>
    <path d="M 425.90118408203125 182.09335327148438 C 446.7452697753906 298.44970703125 464.59588623046875 305.51873779296875 416.0517883300781 390.2725524902344 C 422.2586364746094 277.5788269042969 431.9774169921875 336.8977355957031 406.1178283691406 199.181640625 C 481.35955810546875 111.31341552734375 497.2374572753906 -50.49077224731445 492.47198486328125 70.05855560302734 C 462.9012145996094 190.4839324951172 452.9163818359375 110.9560546875 425.90118408203125 182.09335327148438" stroke-width="0.0" fill="rgb(10, 0, 0)" opacity="1.0" stroke="rgb(0, 0, 0)" stroke-opacity="1.0" stroke-linecap="round" stroke-linejoin="round"/>
    <path d="M 364.8747863769531 282.2244567871094 C 277.9595947265625 313.19927978515625 306.8052978515625 367.4981994628906 332.261474609375 310.36688232421875 C 254.5631866455078 306.06854248046875 327.449951171875 302.8120422363281 274.0450744628906 316.2935791015625 C 278.8403015136719 291.8056335449219 276.3847351074219 234.93748474121094 297.3387756347656 241.33486938476562 C 321.3251037597656 205.2099151611328 351.1065979003906 239.86671447753906 364.8747863769531 282.2244567871094" stroke-width="0.0" fill="rgb(255, 255, 241)" opacity="1.0" stroke="rgb(0, 0, 0)" stroke-opacity="1.0" stroke-linecap="round" stroke-linejoin="round"/>
    <path d="M 374.0753479003906 279.6968994140625 C 377.43463134765625 212.64779663085938 367.3149719238281 236.8607177734375 413.5942687988281 188.3653564453125 C 408.29400634765625 127.54584503173828 335.11676025390625 119.37467956542969 301.92333984375 160.6564178466797 C 346.4646911621094 212.7981719970703 357.15655517578125 207.35906982421875 342.43865966796875 225.2216796875 C 330.7652893066406 242.6341094970703 331.3658752441406 252.4002685546875 374.0753479003906 279.6968994140625" stroke-width="0.0" fill="rgb(0, 0, 8)" opacity="1.0" stroke="rgb(0, 0, 0)" stroke-opacity="1.0" stroke-linecap="round" stroke-linejoin="round"/>
    <path d="M 58.23485565185547 89.12869262695312 C 114.11028289794922 225.7128143310547 49.27031326293945 101.16309356689453 257.16961669921875 152.78961181640625 C 66.11311340332031 226.55162048339844 107.0884780883789 335.5079650878906 34.802978515625 84.2552261352539 C 33.585350036621094 -69.62483978271484 43.87989044189453 -61.96836853027344 181.77719116210938 100.4077377319336 C 56.599369049072266 -0.3473277986049652 33.111324310302734 -38.392181396484375 58.23485565185547 89.12869262695312" stroke-width="0.0" fill="rgb(0, 0, 2)" opacity="1.0" stroke="rgb(0, 0, 0)" stroke-opacity="1.0" stroke-linecap="round" stroke-linejoin="round"/>
    <path d="M 249.32948303222656 295.1871032714844 C 228.17575073242188 301.34454345703125 335.7227783203125 273.85040283203125 268.92041015625 297.1258850097656 C 22.853635787963867 364.30517578125 155.70175170898438 319.59454345703125 169.296142578125 261.5914306640625 C 170.81170654296875 190.73141479492188 201.43955993652344 226.64341735839844 198.0201873779297 260.5299377441406 C 229.36630249023438 271.02978515625 233.15089416503906 261.1424865722656 249.32948303222656 295.1871032714844" stroke-width="0.0" fill="rgb(0, 2, 0)" opacity="0.6472519" stroke="rgb(0, 0, 0)" stroke-opacity="1.0" stroke-linecap="round" stroke-linejoin="round"/>
    <path d="M 367.9320983886719 283.8772277832031 C 380.0718078613281 245.35543823242188 372.0626525878906 244.4007110595703 384.85784912109375 258.2137451171875 C 377.8650817871094 265.3989562988281 331.1133117675781 287.1495361328125 297.5250549316406 210.775390625 C 385.56561279296875 212.96961975097656 415.1734924316406 239.319580078125 416.00103759765625 218.97325134277344 C 413.0177917480469 241.91610717773438 411.8364562988281 282.8029479980469 367.9320983886719 283.8772277832031" stroke-width="0.0" fill="rgb(255, 255, 241)" opacity="1.0" stroke="rgb(0, 0, 0)" stroke-opacity="1.0" stroke-linecap="round" stroke-linejoin="round"/>
    <path d="M 499.00384521484375 -0.7349601984024048 C 318.6258544921875 76.13985443115234 369.466064453125 110.03300476074219 263.6922302246094 116.25192260742188 C 122.02418518066406 103.54071044921875 173.29852294921875 79.19658660888672 -1.8012418746948242 -27.467912673950195 C 276.3310546875 -17.297399520874023 164.07850646972656 49.319766998291016 322.62823486328125 65.84742736816406 C 350.0500183105469 101.17671966552734 379.3036804199219 15.291483879089355 499.00384521484375 -0.7349601984024048" stroke-width="0.0" fill="rgb(6, 0, 1)" opacity="1.0" stroke="rgb(0, 0, 0)" stroke-opacity="1.0" stroke-linecap="round" stroke-linejoin="round"/>
    <path d="M 378.7144470214844 380.263916015625 C 88.15987396240234 453.9100036621094 187.1328125 352.9120788574219 138.93600463867188 401.9159851074219 C 136.94033813476562 413.70562744140625 167.2963409423828 357.8545837402344 148.7495880126953 352.8138122558594 C 136.05235290527344 340.124267578125 154.32997131347656 322.21197509765625 238.44920349121094 301.1528625488281 C 328.8740539550781 288.91314697265625 400.0953674316406 287.9629821777344 378.7144470214844 380.263916015625" stroke-width="0.0" fill="rgb(166, 154, 91)" opacity="0.63166535" stroke="rgb(0, 0, 0)" stroke-opacity="1.0" stroke-linecap="round" stroke-linejoin="round"/>
    <path d="M 443.9619445800781 97.3197250366211 C 478.005615234375 77.2293701171875 461.6298522949219 91.46430206298828 456.6680908203125 97.27220153808594 C 459.3868408203125 64.58599853515625 473.569580078125 90.63697814941406 452.9580993652344 122.63201904296875 C 462.18487548828125 -14.287347793579102 448.8203125 -58.700164794921875 464.3017272949219 -38.5499382019043 C 459.3449401855469 33.48134994506836 449.70526123046875 54.05249786376953 443.9619445800781 97.3197250366211" stroke-width="0.0" fill="rgb(138, 104, 73)" opacity="0.9038405" stroke="rgb(0, 0, 0)" stroke-opacity="1.0" stroke-linecap="round" stroke-linejoin="round"/>
    <path d="M 453.153076171875 33.65754318237305 C 314.8270263671875 119.75867462158203 418.8955383300781 135.87091064453125 423.8854064941406 145.3688507080078 C 321.62823486328125 48.64071273803711 330.1150817871094 137.20567321777344 373.6178894042969 73.75118255615234 C 341.1192321777344 102.5501708984375 394.4338684082031 32.91499328613281 340.7826843261719 85.19853210449219 C 372.63653564453125 119.71150207519531 472.5274658203125 23.74669075012207 453.153076171875 33.65754318237305" stroke-width="0.0" fill="rgb(0, 13, 1)" opacity="0.7285293" stroke="rgb(0, 0, 0)" stroke-opacity="1.0" stroke-linecap="round" stroke-linejoin="round"/>
    <path d="M 485.09918212890625 385.6818542480469 C 510.58148193359375 350.086669921875 555.4967041015625 531.6699829101562 368.0782470703125 535.6802368164062 C 332.44952392578125 338.004150390625 393.6592102050781 428.0148620605469 370.31805419921875 345.364990234375 C 518.275146484375 444.2080993652344 296.4627990722656 365.8449401855469 419.36968994140625 267.6666259765625 C 481.0417175292969 382.7171630859375 469.7069396972656 406.7145080566406 485.09918212890625 385.6818542480469" stroke-width="0.0" fill="rgb(130, 60, 3)" opacity="1.0" stroke="rgb(0, 0, 0)" stroke-opacity="1.0" stroke-linecap="round" stroke-linejoin="round"/>
    <path d="M 471.61822509765625 0.22151494026184082 C 439.5492858886719 12.404207229614258 476.47296142578125 28.80707359313965 412.8749694824219 144.55796813964844 C 300.93170166015625 82.84517669677734 361.26898193359375 106.25928497314453 437.4082946777344 33.077613830566406 C 448.40185546875 42.03706359863281 451.3554382324219 36.22862243652344 443.5145568847656 75.45809173583984 C 458.0199890136719 27.35068130493164 455.3670654296875 13.197270393371582 471.61822509765625 0.22151494026184082" stroke-width="0.0" fill="rgb(12, 195, 5)" opacity="1.0" stroke="rgb(0, 0, 0)" stroke-opacity="1.0" stroke-linecap="round" stroke-linejoin="round"/>
    <path d="M 400.50469970703125 397.60107421875 C 481.2818908691406 440.126953125 424.3048095703125 482.74029541015625 297.9936828613281 533.7169799804688 C 170.87139892578125 546.962646484375 114.20381164550781 479.9811706542969 170.72610473632812 392.1014099121094 C 257.4696960449219 422.96734619140625 248.17669677734375 417.17938232421875 244.82151794433594 377.4994201660156 C 281.9029846191406 391.258544921875 335.839111328125 424.41925048828125 400.50469970703125 397.60107421875" stroke-width="0.0" fill="rgb(79, 19, 0)" opacity="1.0" stroke="rgb(0, 0, 0)" stroke-opacity="1.0" stroke-linecap="round" stroke-linejoin="round"/>
    <path d="M 234.24546813964844 294.6924133300781 C 251.88377380371094 305.8904724121094 277.5854187011719 309.8895263671875 247.4539337158203 303.34063720703125 C 211.42466735839844 353.61175537109375 233.7414093017578 312.4316101074219 221.30349731445312 239.13818359375 C 177.07215881347656 228.5341339111328 186.71414184570312 264.635498046875 137.86004638671875 268.33282470703125 C 166.84364318847656 329.4081115722656 179.358642578125 258.3907165527344 234.24546813964844 294.6924133300781" stroke-width="0.0" fill="rgb(255, 255, 250)" opacity="1.0" stroke="rgb(0, 0, 0)" stroke-opacity="1.0" stroke-linecap="round" stroke-linejoin="round"/>
    <path d="M 557.4277954101562 414.0108642578125 C 487.73162841796875 552.142822265625 432.8423156738281 488.115478515625 436.6294250488281 409.385009765625 C 421.8211669921875 411.12310791015625 460.4133605957031 409.6528015136719 453.732666015625 437.0982971191406 C 469.6172180175781 430.552490234375 425.1712951660156 420.40887451171875 437.85736083984375 426.22723388671875 C 535.7052001953125 430.8490295410156 488.0755920410156 400.2922058105469 557.4277954101562 414.0108642578125" stroke-width="0.0" fill="rgb(141, 71, 24)" opacity="0.96910673" stroke="rgb(0, 0, 0)" stroke-opacity="1.0" stroke-linecap="round" stroke-linejoin="round"/>
    <path d="M 281.59332275390625 358.8044128417969 C 273.4053039550781 351.90460205078125 259.1801452636719 355.5455017089844 252.99288940429688 372.8399963378906 C 253.33131408691406 368.6038818359375 263.2064514160156 364.5552673339844 260.6399230957031 409.81494140625 C 172.6727752685547 422.7500305175781 213.8059539794922 397.423095703125 324.84674072265625 307.7906494140625 C 330.31256103515625 331.1404113769531 356.8595275878906 335.0945739746094 281.59332275390625 358.8044128417969" stroke-width="0.0" fill="rgb(26, 14, 1)" opacity="0.98487335" stroke="rgb(0, 0, 0)" stroke-opacity="1.0" stroke-linecap="round" stroke-linejoin="round"/>
    <path d="M 53.15291213989258 30.184659957885742 C 30.019275665283203 16.361560821533203 49.584129333496094 119.54277038574219 91.45406341552734 194.88388061523438 C 65.5130844116211 284.2148132324219 21.656444549560547 40.55980682373047 19.441356658935547 31.0195255279541 C 22.33193588256836 -48.398075103759766 20.607789993286133 -46.0858154296875 121.45430755615234 19.093292236328125 C 169.9418487548828 82.25984191894531 90.9892807006836 -11.15675163269043 53.15291213989258 30.184659957885742" stroke-width="0.0" fill="rgb(255, 255, 255)" opacity="1.0" stroke="rgb(0, 0, 0)" stroke-opacity="1.0" stroke-linecap="round" stroke-linejoin="round"/>
    <path d="M 200.99830627441406 50.587890625 C 139.41757202148438 27.98224639892578 144.8367919921875 28.15996551513672 166.9691619873047 76.86249542236328 C 132.60365295410156 58.479312896728516 124.83454895019531 44.64005661010742 71.44654846191406 16.45996856689453 C 109.95392608642578 -20.879682540893555 105.07357025146484 -23.788219451904297 149.4624786376953 -38.2858772277832 C 192.92062377929688 -23.104801177978516 207.88975524902344 -18.672012329101562 200.99830627441406 50.587890625" stroke-width="0.0" fill="rgb(255, 238, 218)" opacity="0.9333044" stroke="rgb(0, 0, 0)" stroke-opacity="1.0" stroke-linecap="round" stroke-linejoin="round"/>
    <path d="M 182.02767944335938 310.41131591796875 C 189.24871826171875 374.11199951171875 183.7660369873047 382.7738952636719 154.41522216796875 366.0516052246094 C 80.47205352783203 370.63507080078125 91.91820526123047 364.9468994140625 89.14497375488281 341.3193664550781 C 48.757972717285156 255.2908172607422 56.29869079589844 256.7235107421875 83.60047912597656 263.4866943359375 C 98.4323501586914 296.00054931640625 102.0555419921875 317.9394226074219 182.02767944335938 310.41131591796875" stroke-width="0.0" fill="rgb(74, 29, 4)" opacity="1.0" stroke="rgb(0, 0, 0)" stroke-opacity="1.0" stroke-linecap="round" stroke-linejoin="round"/>
    <path d="M 70.75382232666016 247.29383850097656 C 77.23737335205078 258.9189147949219 97.91350555419922 253.25216674804688 87.84075927734375 280.2179870605469 C 83.9635009765625 284.6883239746094 102.4532699584961 329.37286376953125 18.41816520690918 300.9014892578125 C 9.50299072265625 148.98983764648438 61.776947021484375 85.58277130126953 81.32716369628906 222.66517639160156 C 102.98584747314453 233.60069274902344 86.73486328125 210.11659240722656 70.75382232666016 247.29383850097656" stroke-width="0.0" fill="rgb(255, 255, 255)" opacity="1.0" stroke="rgb(0, 0, 0)" stroke-opacity="1.0" stroke-linecap="round" stroke-linejoin="round"/>
    <path d="M 305.62005615234375 103.71206665039062 C 259.835205078125 165.43185424804688 262.3410949707031 165.50747680664062 196.97972106933594 188.57147216796875 C 191.5209503173828 180.15333557128906 179.0714569091797 156.873779296875 154.73780822753906 133.13807678222656 C 142.0812530517578 24.734956741333008 169.13584899902344 67.49748229980469 203.89512634277344 80.99668884277344 C 314.9183044433594 86.91632843017578 351.3026428222656 66.50609588623047 305.62005615234375 103.71206665039062" stroke-width="0.0" fill="rgb(255, 148, 122)" opacity="1.0" stroke="rgb(0, 0, 0)" stroke-opacity="1.0" stroke-linecap="round" stroke-linejoin="round"/>
    <path d="M 338.4412536621094 359.6341857910156 C 328.648681640625 341.3560485839844 340.8932189941406 352.4325256347656 335.4518127441406 328.6761779785156 C 324.1413879394531 299.3522033691406 300.9496154785156 342.3605651855469 225.585693359375 329.2760314941406 C 242.1823272705078 313.5909729003906 272.1207275390625 269.0989990234375 335.6146545410156 290.54986572265625 C 351.7611083984375 354.87554931640625 332.796142578125 375.46209716796875 338.4412536621094 359.6341857910156" stroke-width="0.0" fill="rgb(118, 255, 219)" opacity="0.9696463" stroke="rgb(0, 0, 0)" stroke-opacity="1.0" stroke-linecap="round" stroke-linejoin="round"/>
    <path d="M 24.24342918395996 454.60992431640625 C 13.051862716674805 442.6333923339844 136.46934509277344 395.74810791015625 32.15281295776367 361.142333984375 C -3.7456774711608887 460.4577331542969 38.45896530151367 432.8711853027344 131.7736358642578 341.0973205566406 C -19.58013153076172 313.960205078125 12.57914924621582 337.30059814453125 77.94800567626953 368.17657470703125 C 48.284332275390625 370.1986083984375 65.03839111328125 356.7979736328125 24.24342918395996 454.60992431640625" stroke-width="0.0" fill="rgb(151, 151, 71)" opacity="0.0" stroke="rgb(0, 0, 0)" stroke-opacity="1.0" stroke-linecap="round" stroke-linejoin="round"/>
    <path d="M 359.3287048339844 424.7646484375 C 358.209228515625 408.26715087890625 335.2186279296875 429.9702453613281 321.4024658203125 418.7427062988281 C 305.78253173828125 401.58990478515625 312.895263671875 403.1522521972656 327.8029479980469 386.8722839355469 C 321.7809753417969 397.3493347167969 280.6194763183594 380.4849853515625 352.8460693359375 392.1934814453125 C 406.408447265625 377.82159423828125 398.4065246582031 390.0090026855469 359.3287048339844 424.7646484375" stroke-width="0.0" fill="rgb(84, 35, 0)" opacity="1.0" stroke="rgb(0, 0, 0)" stroke-opacity="1.0" stroke-linecap="round" stroke-linejoin="round"/>
    <path d="M 386.76763916015625 93.80392456054688 C 423.2198486328125 85.33159637451172 452.6015625 71.35575103759766 422.8288269042969 111.96954345703125 C 435.8152160644531 150.437744140625 420.5310974121094 90.74467468261719 356.9586486816406 108.66697692871094 C 387.26904296875 108.93218231201172 400.63897705078125 87.83587646484375 413.6527099609375 67.71282958984375 C 394.41278076171875 76.23628997802734 413.3337707519531 56.50448226928711 386.76763916015625 93.80392456054688" stroke-width="0.0" fill="rgb(26, 183, 46)" opacity="0.16169535" stroke="rgb(0, 0, 0)" stroke-opacity="1.0" stroke-linecap="round" stroke-linejoin="round"/>
    <path d="M 184.311767578125 104.04634857177734 C 236.32421875 107.80371856689453 240.25216674804688 146.8567657470703 182.93202209472656 177.0212860107422 C 168.29708862304688 113.62040710449219 186.2051544189453 84.6872329711914 139.3118896484375 74.18968200683594 C 112.3494644165039 53.95225143432617 132.239013671875 77.46943664550781 167.21873474121094 81.15681457519531 C 194.6123504638672 87.45498657226562 184.7015380859375 92.32035827636719 184.311767578125 104.04634857177734" stroke-width="0.0" fill="rgb(165, 43, 119)" opacity="0.6610288" stroke="rgb(0, 0, 0)" stroke-opacity="1.0" stroke-linecap="round" stroke-linejoin="round"/>
    <path d="M 532.6136474609375 437.1888122558594 C 531.2156982421875 467.00396728515625 531.2875366210938 471.57672119140625 531.7860107421875 457.7666015625 C 520.3717041015625 458.9858093261719 501.7753601074219 453.1748962402344 530.4925537109375 435.0181579589844 C 523.3023071289062 412.93328857421875 506.6813049316406 384.2130432128906 528.170654296875 397.038818359375 C 569.0465698242188 402.7179260253906 552.6681518554688 416.3505859375 532.6136474609375 437.1888122558594" stroke-width="0.0" fill="rgb(204, 135, 35)" opacity="0.6187159" stroke="rgb(0, 0, 0)" stroke-opacity="1.0" stroke-linecap="round" stroke-linejoin="round"/>
    <path d="M 382.0469055175781 231.71400451660156 C 390.1363525390625 264.8103332519531 384.7032165527344 305.5666809082031 342.8832092285156 286.0896301269531 C 327.03460693359375 262.0565490722656 341.8466796875 269.7244567871094 325.71832275390625 254.76708984375 C 320.45001220703125 248.05917358398438 321.6700134277344 249.9322967529297 322.92193603515625 250.05653381347656 C 405.6448059082031 245.19737243652344 384.0455322265625 238.29310607910156 382.0469055175781 231.71400451660156" stroke-width="0.0" fill="rgb(255, 49, 168)" opacity="0.85274106" stroke="rgb(0, 0, 0)" stroke-opacity="1.0" stroke-linecap="round" stroke-linejoin="round"/>
    <path d="M 446.6518249511719 412.8106384277344 C 436.8463134765625 403.9175109863281 418.51373291015625 381.2362060546875 419.2667236328125 437.9903564453125 C 430.77593994140625 451.1159973144531 434.0536804199219 444.0856628417969 415.52044677734375 406.3160400390625 C 409.9073791503906 362.833984375 424.0271301269531 350.5711669921875 446.4756774902344 358.1684265136719 C 442.7020568847656 414.138671875 463.7358093261719 412.7228698730469 446.6518249511719 412.8106384277344" stroke-width="0.0" fill="rgb(137, 103, 39)" opacity="0.12621981" stroke="rgb(0, 0, 0)" stroke-opacity="1.0" stroke-linecap="round" stroke-linejoin="round"/>
    <path d="M 191.2129364013672 398.0044860839844 C 193.36448669433594 415.5602111816406 203.5318603515625 402.9193420410156 179.80970764160156 395.56024169921875 C 144.30284118652344 427.81805419921875 167.0025634765625 423.8030700683594 153.4717254638672 420.0686950683594 C 167.17343139648438 414.99261474609375 162.13916015625 383.1517639160156 167.23048400878906 368.1725158691406 C 166.37216186523438 426.9769287109375 158.16111755371094 407.3489074707031 191.2129364013672 398.0044860839844" stroke-width="0.0" fill="rgb(68, 68, 31)" opacity="0.42475253" stroke="rgb(0, 0, 0)" stroke-opacity="1.0" stroke-linecap="round" stroke-linejoin="round"/>
    <path d="M 405.2104187011719 379.5804443359375 C 373.6830139160156 408.63189697265625 392.60113525390625 430.3831787109375 415.9976806640625 445.2442626953125 C 404.2679443359375 420.6002502441406 419.00946044921875 397.0877990722656 408.7403564453125 320.81964111328125 C 409.54296875 289.1158752441406 352.0926208496094 292.9238586425781 373.95269775390625 348.2878723144531 C 427.796630859375 356.8250427246094 426.681640625 352.7424621582031 405.2104187011719 379.5804443359375" stroke-width="0.0" fill="rgb(190, 72, 15)" opacity="0.52485865" stroke="rgb(0, 0, 0)" stroke-opacity="1.0" stroke-linecap="round" stroke-linejoin="round"/>
    <path d="M 137.29629516601562 102.93914031982422 C 141.7418212890625 127.91021728515625 141.3209991455078 117.15789794921875 129.38258361816406 137.26754760742188 C 103.90813446044922 140.65476989746094 77.12113952636719 119.81766510009766 70.88006591796875 91.40910339355469 C 52.63896942138672 33.00083541870117 74.5143814086914 30.482282638549805 97.30937194824219 55.860469818115234 C 119.2815933227539 73.68869018554688 135.22634887695312 85.24303436279297 137.29629516601562 102.93914031982422" stroke-width="0.0" fill="rgb(0, 189, 6)" opacity="1.0" stroke="rgb(0, 0, 0)" stroke-opacity="1.0" stroke-linecap="round" stroke-linejoin="round"/>
    <path d="M 340.8791198730469 360.4857482910156 C 359.901123046875 393.1358337402344 342.7107849121094 400.78265380859375 344.6832580566406 410.3611145019531 C 325.8948059082031 404.70318603515625 346.6134033203125 389.1645812988281 354.8858947753906 372.10723876953125 C 341.51641845703125 333.0678405761719 315.84857177734375 344.24920654296875 327.1422119140625 351.3921813964844 C 330.2322692871094 357.4616394042969 351.3739318847656 352.8523864746094 340.8791198730469 360.4857482910156" stroke-width="0.0" fill="rgb(82, 65, 88)" opacity="0.0" stroke="rgb(0, 0, 0)" stroke-opacity="1.0" stroke-linecap="round" stroke-linejoin="round"/>
    <path d="M 96.08504486083984 385.4088439941406 C 117.86963653564453 408.28729248046875 127.53626251220703 388.10455322265625 97.90416717529297 359.4444580078125 C 85.46112823486328 375.6224060058594 85.80702209472656 359.68084716796875 82.2737045288086 346.4375 C 80.78789520263672 336.54119873046875 75.59283447265625 344.32012939453125 101.69914245605469 344.6959533691406 C 114.04254913330078 349.3903503417969 110.1520004272461 363.2155456542969 96.08504486083984 385.4088439941406" stroke-width="0.0" fill="rgb(188, 142, 118)" opacity="0.95885664" stroke="rgb(0, 0, 0)" stroke-opacity="1.0" stroke-linecap="round" stroke-linejoin="round"/>
    <path d="M 311.4440612792969 150.38050842285156 C 300.724853515625 186.25843811035156 303.9300231933594 196.64315795898438 294.77947998046875 131.70713806152344 C 251.31533813476562 132.15554809570312 258.500732421875 142.2912139892578 267.4147644042969 139.959716796875 C 261.1209716796875 156.3103485107422 273.3387451171875 149.40135192871094 288.23944091796875 113.03302764892578 C 292.5962829589844 94.15660095214844 358.18438720703125 97.52815246582031 311.4440612792969 150.38050842285156" stroke-width="0.0" fill="rgb(135, 25, 0)" opacity="0.7460687" stroke="rgb(0, 0, 0)" stroke-opacity="1.0" stroke-linecap="round" stroke-linejoin="round"/>
    <path d="M 457.09466552734375 72.4842529296875 C 442.41302490234375 106.36882781982422 415.915283203125 107.64762115478516 455.35498046875 68.67674255371094 C 458.8515319824219 46.51426315307617 431.3126220703125 45.902076721191406 427.2253112792969 58.17255783081055 C 412.1763610839844 51.737648010253906 419.6256103515625 61.78752517700195 445.9082946777344 53.42699432373047 C 446.53875732421875 23.678024291992188 453.2453308105469 36.88022994995117 457.09466552734375 72.4842529296875" stroke-width="0.0" fill="rgb(144, 188, 93)" opacity="0.37031704" stroke="rgb(0, 0, 0)" stroke-opacity="1.0" stroke-linecap="round" stroke-linejoin="round"/>
    <path d="M 139.24722290039062 143.9365997314453 C 122.06294250488281 139.55084228515625 102.17061614990234 137.64788818359375 110.53478240966797 144.69496154785156 C 111.77649688720703 132.46473693847656 116.72713470458984 99.4099349975586 110.40423583984375 111.05545043945312 C 85.3095703125 94.68568420410156 69.66043853759766 79.28932189941406 74.87258911132812 84.99044036865234 C 127.48892211914062 120.81423950195312 143.0296173095703 149.63670349121094 139.24722290039062 143.9365997314453" stroke-width="0.0" fill="rgb(64, 142, 76)" opacity="0.39448375" stroke="rgb(0, 0, 0)" stroke-opacity="1.0" stroke-linecap="round" stroke-linejoin="round"/>
    <path d="M 554.6741943359375 477.9065856933594 C 520.4595336914062 517.4486083984375 511.7738037109375 524.1069946289062 483.5909423828125 532.1431884765625 C 452.5896301269531 522.8194580078125 441.48443603515625 521.2320556640625 449.0959777832031 497.2960510253906 C 444.786865234375 470.3763122558594 483.44140625 487.6484069824219 517.2843017578125 457.5343933105469 C 553.0840454101562 450.3466796875 562.340087890625 458.05084228515625 554.6741943359375 477.9065856933594" stroke-width="0.0" fill="rgb(202, 85, 10)" opacity="1.0" stroke="rgb(0, 0, 0)" stroke-opacity="1.0" stroke-linecap="round" stroke-linejoin="round"/>
    <path d="M 245.69937133789062 304.30535888671875 C 260.370849609375 298.6129455566406 256.2835998535156 311.66766357421875 244.47573852539062 313.5382080078125 C 244.88400268554688 308.05023193359375 234.3298797607422 298.8235778808594 247.9742431640625 307.7456970214844 C 241.0294189453125 315.7281494140625 240.54502868652344 309.2838134765625 262.59930419921875 296.75689697265625 C 251.52325439453125 307.40081787109375 243.4393768310547 329.19158935546875 245.69937133789062 304.30535888671875" stroke-width="0.0" fill="rgb(13, 134, 10)" opacity="0.6819285" stroke="rgb(0, 0, 0)" stroke-opacity="1.0" stroke-linecap="round" stroke-linejoin="round"/>
    <path d="M 417.2012023925781 122.2574691772461 C 407.2892761230469 128.0863037109375 424.6658630371094 171.12112426757812 410.7075500488281 168.05233764648438 C 404.45574951171875 181.7672119140625 413.1180114746094 163.7435302734375 417.7398986816406 168.96908569335938 C 418.21441650390625 172.09060668945312 419.6254577636719 154.9718475341797 413.5040283203125 133.11373901367188 C 422.9861755371094 122.05608367919922 413.271728515625 126.53278350830078 417.2012023925781 122.2574691772461" stroke-width="0.0" fill="rgb(61, 101, 4)" opacity="0.0" stroke="rgb(0, 0, 0)" stroke-opacity="1.0" stroke-linecap="round" stroke-linejoin="round"/>
    <path d="M 459.05181884765625 499.1795654296875 C 465.4022216796875 512.8915405273438 463.7475891113281 528.8474731445312 437.02587890625 541.5479736328125 C 424.8380432128906 521.3794555664062 430.6568603515625 498.0530700683594 426.7761535644531 474.4503479003906 C 439.2839660644531 485.175537109375 422.0556945800781 462.7101135253906 446.39013671875 447.799072265625 C 467.87432861328125 467.81640625 456.39300537109375 492.8480224609375 459.05181884765625 499.1795654296875" stroke-width="0.0" fill="rgb(188, 36, 5)" opacity="0.90693504" stroke="rgb(0, 0, 0)" stroke-opacity="1.0" stroke-linecap="round" stroke-linejoin="round"/>
    <path d="M 446.5796813964844 7.3605194091796875 C 463.04327392578125 21.86180877685547 477.2295837402344 9.321537971496582 469.9957580566406 -5.5045342445373535 C 470.70379638671875 -3.5814096927642822 461.4145812988281 2.4147372245788574 441.532958984375 -7.961077690124512 C 446.9273986816406 -8.320549964904785 460.4561462402344 -13.590731620788574 482.2603759765625 -24.83390235900879 C 486.10498046875 20.59020233154297 490.7822265625 11.062945365905762 446.5796813964844 7.3605194091796875" stroke-width="0.0" fill="rgb(69, 19, 81)" opacity="0.45521545" stroke="rgb(0, 0, 0)" stroke-opacity="1.0" stroke-linecap="round" stroke-linejoin="round"/>
    <path d="M 163.90269470214844 213.76724243164062 C 166.3488006591797 233.45091247558594 162.98114013671875 249.3106231689453 162.74363708496094 256.6158142089844 C 156.2925567626953 259.97216796875 153.28282165527344 254.58975219726562 171.85011291503906 250.33291625976562 C 174.96389770507812 241.21949768066406 177.2421112060547 241.10423278808594 200.2680206298828 245.8551025390625 C 210.46170043945312 235.32254028320312 195.4388885498047 218.14805603027344 163.90269470214844 213.76724243164062" stroke-width="0.0" fill="rgb(255, 173, 94)" opacity="0.8244363" stroke="rgb(0, 0, 0)" stroke-opacity="1.0" stroke-linecap="round" stroke-linejoin="round"/>
    <path d="M 189.03579711914062 415.9634704589844 C 182.54220581054688 429.3761901855469 161.3310089111328 456.56719970703125 169.3924560546875 457.5653076171875 C 158.46469116210938 465.3814392089844 135.10488891601562 469.7418518066406 138.2084197998047 446.8338623046875 C 159.0099639892578 415.8278503417969 166.70323181152344 409.9283447265625 163.32754516601562 415.06402587890625 C 178.8448486328125 407.5663757324219 182.8556671142578 399.8800354003906 189.03579711914062 415.9634704589844" stroke-width="0.0" fill="rgb(201, 206, 174)" opacity="0.0" stroke="rgb(0, 0, 0)" stroke-opacity="1.0" stroke-linecap="round" stroke-linejoin="round"/>
    <path d="M 198.69993591308594 224.61170959472656 C 216.81576538085938 239.3942108154297 201.60220336914062 252.36326599121094 174.8804931640625 261.671142578125 C 130.30807495117188 256.35284423828125 138.7205047607422 244.5468292236328 164.6522674560547 205.4814910888672 C 196.3023223876953 229.2733612060547 146.31640625 269.8542175292969 140.95291137695312 228.88253784179688 C 209.4755401611328 211.32769775390625 223.53106689453125 206.47999572753906 198.69993591308594 224.61170959472656" stroke-width="0.0" fill="rgb(255, 253, 255)" opacity="1.0" stroke="rgb(0, 0, 0)" stroke-opacity="1.0" stroke-linecap="round" stroke-linejoin="round"/>
    <path d="M 223.9791259765625 308.1820983886719 C 237.1356201171875 402.30322265625 191.1142120361328 393.5147705078125 177.0328826904297 362.3374328613281 C 172.68601989746094 361.2972717285156 179.54302978515625 363.8247375488281 183.97056579589844 348.8697204589844 C 173.35992431640625 329.6483459472656 176.22972106933594 352.38848876953125 167.18331909179688 336.1163635253906 C 157.8752899169922 315.6251525878906 189.71348571777344 298.17755126953125 223.9791259765625 308.1820983886719" stroke-width="0.0" fill="rgb(37, 17, 0)" opacity="1.0" stroke="rgb(0, 0, 0)" stroke-opacity="1.0" stroke-linecap="round" stroke-linejoin="round"/>
    <path d="M 52.056495666503906 432.2034912109375 C 61.11125183105469 446.1363830566406 44.425010681152344 462.2096252441406 65.01419830322266 469.7289123535156 C 82.822998046875 450.0927429199219 74.45973205566406 437.7361145019531 68.02827453613281 431.4300231933594 C 47.85805892944336 437.3643493652344 72.15404510498047 453.5509033203125 86.36693572998047 426.5274658203125 C 80.2249526977539 410.9998779296875 77.80641174316406 426.629150390625 52.056495666503906 432.2034912109375" stroke-width="0.0" fill="rgb(245, 236, 255)" opacity="0.008694062" stroke="rgb(0, 0, 0)" stroke-opacity="1.0" stroke-linecap="round" stroke-linejoin="round"/>
    <path d="M 483.2307434082031 430.5446472167969 C 481.707763671875 493.6258544921875 478.76275634765625 507.90234375 457.7734680175781 479.3197021484375 C 452.7037658691406 460.11407470703125 437.30377197265625 457.6141662597656 430.78125 470.0227966308594 C 429.8901672363281 446.7313537597656 433.5117492675781 433.32501220703125 454.939453125 436.3800354003906 C 455.7630310058594 423.60369873046875 479.9168701171875 443.9577331542969 483.2307434082031 430.5446472167969" stroke-width="0.0" fill="rgb(211, 144, 93)" opacity="0.0" stroke="rgb(0, 0, 0)" stroke-opacity="1.0" stroke-linecap="round" stroke-linejoin="round"/>
    <path d="M 418.0819396972656 386.026123046875 C 438.25335693359375 382.5803527832031 436.5695495605469 390.1157531738281 416.66943359375 386.5968322753906 C 390.31256103515625 388.7115173339844 390.4565734863281 372.81329345703125 442.0474853515625 375.1176452636719 C 434.9574890136719 348.56549072265625 417.9515075683594 334.3339538574219 445.36822509765625 346.2137756347656 C 465.01934814453125 374.5309143066406 448.4864196777344 407.1612548828125 418.0819396972656 386.026123046875" stroke-width="0.0" fill="rgb(71, 132, 0)" opacity="0.1690643" stroke="rgb(0, 0, 0)" stroke-opacity="1.0" stroke-linecap="round" stroke-linejoin="round"/>
    <path d="M 39.62760925292969 85.63483428955078 C 52.27149963378906 134.12205505371094 46.49085235595703 155.9771270751953 43.435272216796875 144.99867248535156 C 24.996519088745117 135.49928283691406 7.148031711578369 124.86341857910156 -26.277454376220703 90.07341766357422 C -16.412019729614258 10.531198501586914 13.653854370117188 11.713693618774414 37.250301361083984 40.535396575927734 C 27.50030517578125 74.27880096435547 39.165775299072266 101.24600982666016 39.62760925292969 85.63483428955078" stroke-width="0.0" fill="rgb(190, 85, 204)" opacity="0.3381425" stroke="rgb(0, 0, 0)" stroke-opacity="1.0" stroke-linecap="round" stroke-linejoin="round"/>
    <path d="M 66.54422760009766 447.0443420410156 C 59.82014465332031 484.99224853515625 66.13179779052734 473.8056945800781 39.948875427246094 460.914794921875 C 39.021453857421875 467.6473083496094 36.2686653137207 444.8646545410156 5.206357955932617 455.46893310546875 C -8.719413757324219 409.6932678222656 12.326983451843262 395.7364196777344 54.44317626953125 433.3011779785156 C 66.51648712158203 445.3884582519531 86.22486114501953 453.0879211425781 66.54422760009766 447.0443420410156" stroke-width="0.0" fill="rgb(193, 240, 255)" opacity="0.008568237" stroke="rgb(0, 0, 0)" stroke-opacity="1.0" stroke-linecap="round" stroke-linejoin="round"/>
    <path d="M 132.4498291015625 208.29270935058594 C 106.93605041503906 217.1750030517578 118.22261810302734 220.96446228027344 133.5560760498047 236.28907775878906 C 139.05101013183594 261.62567138671875 107.94214630126953 254.04690551757812 64.34413146972656 214.69570922851562 C 152.16043090820312 202.3924102783203 108.5802001953125 238.12548828125 117.3191909790039 287.8764953613281 C 205.68894958496094 288.0255432128906 189.1065673828125 221.2037353515625 132.4498291015625 208.29270935058594" stroke-width="0.0" fill="rgb(255, 255, 255)" opacity="1.0" stroke="rgb(0, 0, 0)" stroke-opacity="1.0" stroke-linecap="round" stroke-linejoin="round"/>
    <path d="M 328.99298095703125 24.477487564086914 C 369.44268798828125 67.48026275634766 345.9689025878906 99.08614349365234 290.4170837402344 62.06431579589844 C 227.080078125 47.095088958740234 238.91456604003906 42.896751403808594 231.63656616210938 15.805693626403809 C 269.7369384765625 0.32430920004844666 287.2118835449219 -4.810216426849365 270.0426330566406 12.468864440917969 C 273.90008544921875 -1.1616302728652954 286.9597473144531 -4.233736515045166 328.99298095703125 24.477487564086914" stroke-width="0.0" fill="rgb(108, 27, 84)" opacity="0.2833881" stroke="rgb(0, 0, 0)" stroke-opacity="1.0" stroke-linecap="round" stroke-linejoin="round"/>
    <path d="M 121.71024322509766 135.9500274658203 C 97.29011535644531 137.39610290527344 100.0647201538086 159.16217041015625 115.01590728759766 174.31358337402344 C 109.6734848022461 186.76121520996094 110.85753631591797 178.7540740966797 96.2708511352539 171.1645965576172 C 127.23077392578125 170.49903869628906 133.8390655517578 165.25462341308594 125.45197296142578 160.94776916503906 C 122.61214447021484 157.6031494140625 133.8603973388672 153.7097930908203 121.71024322509766 135.9500274658203" stroke-width="0.0" fill="rgb(226, 196, 181)" opacity="0.0" stroke="rgb(0, 0, 0)" stroke-opacity="1.0" stroke-linecap="round" stroke-linejoin="round"/>
    <path d="M 467.7538757324219 246.8583221435547 C 449.4944152832031 246.2465362548828 429.0486145019531 248.3054656982422 437.6532897949219 256.8011474609375 C 448.50018310546875 240.4711151123047 437.8835754394531 246.02659606933594 433.02044677734375 252.51609802246094 C 439.9892272949219 240.8734588623047 473.9008483886719 247.0190887451172 478.9695129394531 241.78863525390625 C 480.85595703125 241.34783935546875 472.5810241699219 237.60995483398438 467.7538757324219 246.8583221435547" stroke-width="0.0" fill="rgb(24, 25, 0)" opacity="0.0" stroke="rgb(0, 0, 0)" stroke-opacity="1.0" stroke-linecap="round" stroke-linejoin="round"/>
    <path d="M 372.2989196777344 333.0184326171875 C 408.550048828125 397.33367919921875 383.77099609375 398.12115478515625 369.00177001953125 388.2994384765625 C 322.2852478027344 402.8301086425781 333.4668273925781 413.0810241699219 325.0215148925781 394.7797546386719 C 311.130126953125 357.06640625 322.906494140625 368.017578125 384.8788757324219 368.0899658203125 C 358.9698181152344 391.25445556640625 345.3319091796875 363.515380859375 372.2989196777344 333.0184326171875" stroke-width="0.0" fill="rgb(184, 32, 142)" opacity="0.20925212" stroke="rgb(0, 0, 0)" stroke-opacity="1.0" stroke-linecap="round" stroke-linejoin="round"/>
    <path d="M 398.9377136230469 200.02381896972656 C 377.8648376464844 217.20321655273438 359.8603210449219 227.80357360839844 327.6069641113281 218.23976135253906 C 329.6080322265625 203.96885681152344 324.86578369140625 182.8080596923828 345.22662353515625 192.3674774169922 C 342.0810241699219 177.84228515625 333.25439453125 172.0590362548828 354.0473937988281 178.86288452148438 C 362.5696105957031 196.12506103515625 366.89849853515625 205.97463989257812 398.9377136230469 200.02381896972656" stroke-width="0.0" fill="rgb(241, 187, 248)" opacity="0.0" stroke="rgb(0, 0, 0)" stroke-opacity="1.0" stroke-linecap="round" stroke-linejoin="round"/>
    <path d="M 129.84097290039062 438.9804992675781 C 190.54812622070312 417.4850769042969 146.0975799560547 451.38519287109375 93.13273620605469 485.98651123046875 C 61.200645446777344 484.2526550292969 48.426177978515625 471.546875 24.784761428833008 455.24737548828125 C 59.96699905395508 450.81036376953125 64.58836364746094 450.0525817871094 64.8899154663086 399.9005432128906 C 110.70091247558594 403.95037841796875 108.24038696289062 426.7987060546875 129.84097290039062 438.9804992675781" stroke-width="0.0" fill="rgb(238, 247, 255)" opacity="0.00029178604" stroke="rgb(0, 0, 0)" stroke-opacity="1.0" stroke-linecap="round" stroke-linejoin="round"/>
    <path d="M 61.7802848815918 404.43328857421875 C 56.42020034790039 418.02667236328125 68.57946014404297 479.7568359375 92.34663391113281 481.65765380859375 C 77.27252197265625 468.93963623046875 46.17530822753906 476.0870666503906 56.72187423706055 469.9569396972656 C 89.79529571533203 483.6421203613281 102.9573974609375 468.786865234375 79.09020233154297 419.88995361328125 C 92.93479919433594 388.4348449707031 101.99214172363281 391.15673828125 61.7802848815918 404.43328857421875" stroke-width="0.0" fill="rgb(221, 232, 179)" opacity="0.0" stroke="rgb(0, 0, 0)" stroke-opacity="1.0" stroke-linecap="round" stroke-linejoin="round"/>
  </g>
</svg>
