<?xml version="1.0" ?>
<svg xmlns="http://www.w3.org/2000/svg" version="1.1" width="512" height="512">
  <defs/>
  <g>
    <path d="M 536.5205688476562 463.35003662109375 C 548.880859375 518.23974609375 546.9967651367188 532.5968017578125 403.1407775878906 513.3077392578125 C 340.4064636230469 534.1336059570312 307.4044494628906 542.6878662109375 244.51258850097656 463.1110534667969 C 292.9852294921875 334.48431396484375 405.051513671875 354.4856872558594 518.79052734375 343.7142639160156 C 569.150390625 337.10626220703125 568.6926879882812 351.6831970214844 536.5205688476562 463.35003662109375" stroke-width="0.0" fill="rgb(80, 0, 109)" opacity="0.9980521" stroke="rgb(0, 0, 0)" stroke-opacity="1.0" stroke-linecap="round" stroke-linejoin="round"/>
    <path d="M 315.0782165527344 466.7933044433594 C 365.0724182128906 509.2587890625 373.5725402832031 533.8156127929688 238.39320373535156 551.7241821289062 C -51.100406646728516 521.1051635742188 -51.19970703125 512.4564819335938 -40.72413635253906 461.5235595703125 C -36.53580856323242 186.82806396484375 -44.58037567138672 181.03431701660156 6.444457530975342 194.44769287109375 C 135.78384399414062 320.4123840332031 180.7460479736328 303.4666442871094 315.0782165527344 466.7933044433594" stroke-width="0.0" fill="rgb(0, 23, 163)" opacity="0.9989578" stroke="rgb(0, 0, 0)" stroke-opacity="1.0" stroke-linecap="round" stroke-linejoin="round"/>
    <path d="M 331.1036682128906 334.43463134765625 C 293.8502502441406 404.7003479003906 259.3953552246094 395.84637451171875 216.654296875 409.9897766113281 C 47.11773681640625 362.91265869140625 64.81260681152344 329.2849426269531 37.86112594604492 170.33262634277344 C 28.152070999145508 193.98388671875 34.285301208496094 169.62188720703125 97.17173767089844 185.61679077148438 C 258.35455322265625 182.67257690429688 288.4665832519531 150.88768005371094 331.1036682128906 334.43463134765625" stroke-width="0.0" fill="rgb(253, 255, 67)" opacity="0.85917413" stroke="rgb(0, 0, 0)" stroke-opacity="1.0" stroke-linecap="round" stroke-linejoin="round"/>
    <path d="M 292.100341796875 26.557968139648438 C 295.28857421875 254.39344787597656 271.97113037109375 185.06106567382812 5.521273612976074 288.8375549316406 C -72.48662567138672 247.642333984375 -56.26357650756836 219.42462158203125 -43.60477066040039 177.0609130859375 C -16.494123458862305 -18.97837257385254 -10.838438034057617 -25.126850128173828 24.11545181274414 -18.857379913330078 C 193.52772521972656 -22.079166412353516 218.61572265625 -33.76357650756836 292.100341796875 26.557968139648438" stroke-width="0.0" fill="rgb(123, 21, 100)" opacity="1.0" stroke="rgb(0, 0, 0)" stroke-opacity="1.0" stroke-linecap="round" stroke-linejoin="round"/>
    <path d="M 550.6116943359375 45.30870819091797 C 438.89947509765625 282.217041015625 448.0866394042969 306.06158447265625 390.0332336425781 329.3174743652344 C 291.18658447265625 327.3692626953125 320.7105712890625 292.6376647949219 270.35809326171875 163.63409423828125 C 275.1004638671875 -7.562121391296387 200.24032592773438 -32.88130187988281 349.3490295410156 -30.592557907104492 C 563.2000122070312 -5.52442741394043 563.2000122070312 4.830130577087402 550.6116943359375 45.30870819091797" stroke-width="0.0" fill="rgb(84, 0, 146)" opacity="0.9711134" stroke="rgb(0, 0, 0)" stroke-opacity="1.0" stroke-linecap="round" stroke-linejoin="round"/>
    <path d="M 339.23040771484375 56.99335479736328 C 304.0747985839844 301.2969665527344 269.94744873046875 262.2353820800781 189.66021728515625 240.33087158203125 C 62.05024719238281 252.43775939941406 48.59107971191406 257.7650146484375 96.53669738769531 240.0511932373047 C 127.13806915283203 162.0355224609375 118.8349609375 123.91637420654297 300.11346435546875 14.158500671386719 C 334.8891296386719 -41.59233856201172 336.4466247558594 -49.846073150634766 339.23040771484375 56.99335479736328" stroke-width="0.0" fill="rgb(237, 255, 103)" opacity="1.0" stroke="rgb(0, 0, 0)" stroke-opacity="1.0" stroke-linecap="round" stroke-linejoin="round"/>
    <path d="M 459.47259521484375 318.10992431640625 C 466.736572265625 425.763916015625 503.1205139160156 489.30999755859375 366.3572692871094 451.7420654296875 C 291.81500244140625 411.0379333496094 272.65179443359375 412.47283935546875 194.53280639648438 384.4406433105469 C 242.65635681152344 169.5777130126953 268.3815612792969 151.0757598876953 348.99749755859375 186.8259735107422 C 424.9233093261719 273.9554748535156 468.27362060546875 257.4936828613281 459.47259521484375 318.10992431640625" stroke-width="0.0" fill="rgb(43, 255, 109)" opacity="0.98613256" stroke="rgb(0, 0, 0)" stroke-opacity="1.0" stroke-linecap="round" stroke-linejoin="round"/>
    <path d="M 542.53125 159.6488800048828 C 549.1139526367188 316.4778137207031 550.1491088867188 336.54559326171875 457.9920654296875 407.42926025390625 C 370.15228271484375 407.0865173339844 416.5395812988281 334.1753234863281 386.08099365234375 239.86477661132812 C 351.09906005859375 179.47515869140625 391.9783935546875 132.0994415283203 533.963134765625 80.25592803955078 C 563.2000122070312 76.2098159790039 563.2000122070312 99.41815185546875 542.53125 159.6488800048828" stroke-width="0.0" fill="rgb(93, 5, 137)" opacity="0.97510886" stroke="rgb(0, 0, 0)" stroke-opacity="1.0" stroke-linecap="round" stroke-linejoin="round"/>
    <path d="M 418.2452697753906 273.8790588378906 C 410.94244384765625 291.7447204589844 376.513916015625 232.1944580078125 315.05426025390625 240.49949645996094 C 312.9805908203125 253.89593505859375 288.1351318359375 192.0148162841797 173.0689239501953 194.68006896972656 C 227.22250366210938 134.39102172851562 272.1688537597656 170.2357177734375 331.3899230957031 164.6820068359375 C 329.4172668457031 180.3080596923828 370.60430908203125 201.20582580566406 418.2452697753906 273.8790588378906" stroke-width="0.0" fill="rgb(121, 255, 146)" opacity="0.20383774" stroke="rgb(0, 0, 0)" stroke-opacity="1.0" stroke-linecap="round" stroke-linejoin="round"/>
    <path d="M 432.3710632324219 280.9462890625 C 471.9338073730469 367.2719421386719 494.9635314941406 447.3284606933594 427.60626220703125 431.24566650390625 C 348.5223693847656 296.6875305175781 370.9889831542969 253.35635375976562 304.99102783203125 143.0869903564453 C 400.57183837890625 160.70578002929688 347.54437255859375 252.83384704589844 317.83221435546875 126.69131469726562 C 409.1064453125 76.92803955078125 420.02105712890625 252.5369873046875 432.3710632324219 280.9462890625" stroke-width="0.0" fill="rgb(221, 255, 100)" opacity="1.0" stroke="rgb(0, 0, 0)" stroke-opacity="1.0" stroke-linecap="round" stroke-linejoin="round"/>
    <path d="M 342.3071594238281 115.31268310546875 C 325.7735290527344 97.70016479492188 306.9298400878906 136.1931610107422 224.5325927734375 154.87550354003906 C 197.31663513183594 188.92845153808594 203.23023986816406 131.78482055664062 85.46031188964844 137.7207489013672 C 115.96273040771484 12.686020851135254 155.51158142089844 -5.206956386566162 270.10784912109375 -55.22342300415039 C 351.6890869140625 -40.67726516723633 361.1275634765625 -7.059167861938477 342.3071594238281 115.31268310546875" stroke-width="0.0" fill="rgb(64, 0, 154)" opacity="1.0" stroke="rgb(0, 0, 0)" stroke-opacity="1.0" stroke-linecap="round" stroke-linejoin="round"/>
    <path d="M 303.46405029296875 389.83709716796875 C 271.751708984375 414.2216491699219 239.53968811035156 402.5890808105469 214.6995849609375 367.4520263671875 C 120.89051055908203 350.1397705078125 97.30885314941406 393.0274658203125 172.70652770996094 416.63812255859375 C 138.78118896484375 380.0968933105469 156.9488525390625 317.62384033203125 170.8028564453125 318.29791259765625 C 256.33392333984375 348.29168701171875 187.34530639648438 363.7464599609375 303.46405029296875 389.83709716796875" stroke-width="0.0" fill="rgb(156, 246, 64)" opacity="0.95202005" stroke="rgb(0, 0, 0)" stroke-opacity="1.0" stroke-linecap="round" stroke-linejoin="round"/>
    <path d="M 464.8817138671875 421.0401611328125 C 473.75482177734375 440.0873718261719 476.07879638671875 457.198486328125 441.4808044433594 455.027099609375 C 393.70745849609375 448.742919921875 400.9194641113281 452.85321044921875 406.1650695800781 436.62469482421875 C 424.91162109375 471.2456970214844 466.0713195800781 454.3626708984375 463.5316467285156 426.8227233886719 C 458.11383056640625 429.4195251464844 482.74078369140625 426.4676513671875 464.8817138671875 421.0401611328125" stroke-width="0.0" fill="rgb(119, 36, 39)" opacity="0.402781" stroke="rgb(0, 0, 0)" stroke-opacity="1.0" stroke-linecap="round" stroke-linejoin="round"/>
    <path d="M 379.8961181640625 443.3205871582031 C 336.63006591796875 483.9234924316406 330.4032897949219 512.5626831054688 297.54486083984375 482.5005798339844 C 255.569580078125 442.2124938964844 236.15475463867188 428.6070861816406 203.4091339111328 418.0962219238281 C 170.10595703125 403.67138671875 184.28123474121094 386.4388122558594 318.2601013183594 326.1182861328125 C 361.0170593261719 425.3281555175781 382.2134704589844 435.98431396484375 379.8961181640625 443.3205871582031" stroke-width="0.0" fill="rgb(0, 5, 200)" opacity="1.0" stroke="rgb(0, 0, 0)" stroke-opacity="1.0" stroke-linecap="round" stroke-linejoin="round"/>
    <path d="M 307.88702392578125 254.57376098632812 C 236.6445770263672 231.62039184570312 209.11019897460938 280.19708251953125 240.91246032714844 335.94378662109375 C 181.1748504638672 373.8580627441406 178.20849609375 314.2135925292969 190.36224365234375 249.1019287109375 C 151.8400421142578 234.15481567382812 153.1196746826172 179.83865356445312 238.8906707763672 198.22802734375 C 311.8428649902344 176.25453186035156 343.6044006347656 194.31228637695312 307.88702392578125 254.57376098632812" stroke-width="0.0" fill="rgb(254, 255, 87)" opacity="0.31463987" stroke="rgb(0, 0, 0)" stroke-opacity="1.0" stroke-linecap="round" stroke-linejoin="round"/>
    <path d="M 429.7665710449219 451.2303466796875 C 403.46563720703125 480.3501892089844 384.1150817871094 511.720458984375 362.8846435546875 508.69842529296875 C 330.6140441894531 498.81146240234375 305.2474670410156 508.80340576171875 292.9598083496094 460.79925537109375 C 328.6859130859375 411.1569519042969 346.73175048828125 415.94512939453125 391.1011962890625 452.197509765625 C 431.4361267089844 468.2937927246094 405.63714599609375 470.7040710449219 429.7665710449219 451.2303466796875" stroke-width="0.0" fill="rgb(44, 11, 185)" opacity="0.9559963" stroke="rgb(0, 0, 0)" stroke-opacity="1.0" stroke-linecap="round" stroke-linejoin="round"/>
    <path d="M 280.07354736328125 185.81475830078125 C 247.63673400878906 279.14520263671875 244.65045166015625 323.0603942871094 253.8444061279297 305.00054931640625 C 234.40948486328125 345.14190673828125 231.0518341064453 357.33563232421875 214.97616577148438 380.6507263183594 C 281.1626281738281 388.9272766113281 321.9578857421875 366.1531066894531 289.4761962890625 330.3782653808594 C 321.6559753417969 356.2432556152344 324.2747497558594 362.7492370605469 280.07354736328125 185.81475830078125" stroke-width="0.0" fill="rgb(0, 9, 222)" opacity="1.0" stroke="rgb(0, 0, 0)" stroke-opacity="1.0" stroke-linecap="round" stroke-linejoin="round"/>
    <path d="M 195.98886108398438 181.50282287597656 C 47.28523254394531 211.85272216796875 -1.1978093385696411 540.9728393554688 152.29324340820312 447.4461669921875 C 111.01273345947266 232.45518493652344 264.6641845703125 97.39283752441406 102.8424301147461 201.20191955566406 C 62.99687957763672 335.07244873046875 73.08765411376953 234.76828002929688 157.53762817382812 178.37525939941406 C 146.2639617919922 371.9927673339844 150.48451232910156 255.42921447753906 195.98886108398438 181.50282287597656" stroke-width="0.0" fill="rgb(255, 255, 50)" opacity="1.0" stroke="rgb(0, 0, 0)" stroke-opacity="1.0" stroke-linecap="round" stroke-linejoin="round"/>
    <path d="M 324.37969970703125 175.43798828125 C 331.91778564453125 232.04258728027344 327.138916015625 202.36985778808594 319.59033203125 184.64324951171875 C 326.9575500488281 174.9916229248047 333.6837463378906 149.5441131591797 313.7737731933594 125.70411682128906 C 241.72280883789062 177.01373291015625 260.2789306640625 153.57672119140625 306.1112976074219 117.23404693603516 C 343.2015075683594 141.19332885742188 332.7998046875 88.25991821289062 324.37969970703125 175.43798828125" stroke-width="0.0" fill="rgb(4, 35, 221)" opacity="0.95331436" stroke="rgb(0, 0, 0)" stroke-opacity="1.0" stroke-linecap="round" stroke-linejoin="round"/>
    <path d="M 161.79998779296875 203.66111755371094 C 160.6018829345703 308.2145080566406 119.99004364013672 354.9283752441406 74.04841613769531 399.1146545410156 C 6.358159065246582 375.4061279296875 -12.683159828186035 322.615966796875 6.7574028968811035 287.9126281738281 C 50.03476333618164 242.09510803222656 64.98828125 216.12969970703125 144.6384735107422 121.5633316040039 C 216.5294189453125 129.94146728515625 166.8165283203125 135.39187622070312 161.79998779296875 203.66111755371094" stroke-width="0.0" fill="rgb(0, 15, 163)" opacity="1.0" stroke="rgb(0, 0, 0)" stroke-opacity="1.0" stroke-linecap="round" stroke-linejoin="round"/>
    <path d="M 201.0511016845703 166.40126037597656 C 123.253662109375 328.62335205078125 207.67613220214844 376.2918701171875 153.38400268554688 311.0393981933594 C 147.90631103515625 293.38385009765625 169.4879913330078 228.48391723632812 160.9077606201172 244.1627960205078 C 143.0952911376953 286.38153076171875 165.8738555908203 262.73699951171875 158.4812774658203 242.2406768798828 C 173.29957580566406 229.13612365722656 186.8096160888672 191.62876892089844 201.0511016845703 166.40126037597656" stroke-width="0.0" fill="rgb(223, 198, 15)" opacity="0.43467185" stroke="rgb(0, 0, 0)" stroke-opacity="1.0" stroke-linecap="round" stroke-linejoin="round"/>
    <path d="M 334.3359069824219 123.3938980102539 C 315.9497375488281 202.60906982421875 301.119384765625 50.704612731933594 274.5947265625 199.99069213867188 C 247.45611572265625 217.74932861328125 270.184814453125 155.18495178222656 253.41030883789062 165.55929565429688 C 247.79501342773438 142.17416381835938 325.68011474609375 146.95654296875 299.7025451660156 127.38457489013672 C 306.41632080078125 103.46772766113281 320.03558349609375 97.23164367675781 334.3359069824219 123.3938980102539" stroke-width="0.0" fill="rgb(93, 50, 177)" opacity="0.80452013" stroke="rgb(0, 0, 0)" stroke-opacity="1.0" stroke-linecap="round" stroke-linejoin="round"/>
    <path d="M 249.14517211914062 148.41067504882812 C 258.52117919921875 171.09999084472656 266.3535461425781 169.5642852783203 269.97308349609375 200.57479858398438 C 281.6595458984375 172.26022338867188 288.9402770996094 164.5191192626953 238.57583618164062 158.4857940673828 C 261.2664794921875 111.20347595214844 307.4855041503906 133.4156036376953 277.8651123046875 167.34197998046875 C 268.1040954589844 154.8175048828125 253.82534790039062 157.4459991455078 249.14517211914062 148.41067504882812" stroke-width="0.0" fill="rgb(56, 0, 255)" opacity="0.8865327" stroke="rgb(0, 0, 0)" stroke-opacity="1.0" stroke-linecap="round" stroke-linejoin="round"/>
    <path d="M 182.54676818847656 371.24468994140625 C 185.5742950439453 383.1194152832031 194.8612060546875 402.0467529296875 167.25436401367188 415.4671630859375 C 124.09815979003906 423.2287292480469 142.96575927734375 384.5406188964844 168.56346130371094 352.4179992675781 C 191.2909393310547 346.7598876953125 204.62350463867188 370.7468566894531 214.93435668945312 368.90277099609375 C 217.51205444335938 318.6886291503906 195.68804931640625 364.2664489746094 182.54676818847656 371.24468994140625" stroke-width="0.0" fill="rgb(153, 255, 62)" opacity="0.9372888" stroke="rgb(0, 0, 0)" stroke-opacity="1.0" stroke-linecap="round" stroke-linejoin="round"/>
    <path d="M 398.4502868652344 389.3966064453125 C 380.5943298339844 420.42291259765625 369.5975646972656 421.45880126953125 348.651611328125 404.9250183105469 C 301.583984375 401.18841552734375 289.504150390625 416.79071044921875 331.4023742675781 402.2167663574219 C 322.5719909667969 401.4140930175781 350.19580078125 400.6610412597656 340.51141357421875 355.5411071777344 C 339.51263427734375 390.933349609375 371.02154541015625 378.3587646484375 398.4502868652344 389.3966064453125" stroke-width="0.0" fill="rgb(176, 210, 31)" opacity="0.0" stroke="rgb(0, 0, 0)" stroke-opacity="1.0" stroke-linecap="round" stroke-linejoin="round"/>
    <path d="M 267.935546875 289.3165588378906 C 254.95916748046875 292.7101745605469 258.123046875 295.67559814453125 238.4654083251953 271.2244567871094 C 215.98977661132812 249.6083526611328 219.5284881591797 260.2233581542969 216.7211151123047 270.1956787109375 C 193.87081909179688 309.7933654785156 210.35047912597656 308.8431091308594 276.7535705566406 291.9081726074219 C 245.6422119140625 246.15440368652344 244.69459533691406 276.8973693847656 267.935546875 289.3165588378906" stroke-width="0.0" fill="rgb(255, 164, 25)" opacity="0.046707135" stroke="rgb(0, 0, 0)" stroke-opacity="1.0" stroke-linecap="round" stroke-linejoin="round"/>
    <path d="M 189.21298217773438 339.12164306640625 C 181.56427001953125 367.5401306152344 172.99203491210938 369.4727478027344 174.06866455078125 389.8641662597656 C 166.7043914794922 364.9826354980469 157.10003662109375 368.6050109863281 152.6448974609375 339.9707946777344 C 144.0689239501953 357.28521728515625 147.61314392089844 355.36614990234375 152.53280639648438 344.4724426269531 C 189.01210021972656 328.8043212890625 205.8657684326172 326.4456787109375 189.21298217773438 339.12164306640625" stroke-width="0.0" fill="rgb(79, 112, 114)" opacity="0.31816858" stroke="rgb(0, 0, 0)" stroke-opacity="1.0" stroke-linecap="round" stroke-linejoin="round"/>
    <path d="M 274.36309814453125 288.21490478515625 C 309.95135498046875 283.4812316894531 318.26910400390625 296.1997375488281 323.384765625 348.89227294921875 C 214.3903045654297 333.2806091308594 214.26629638671875 321.89117431640625 239.6990203857422 336.3371276855469 C 262.285400390625 307.6564636230469 254.0438690185547 270.6349792480469 260.46826171875 272.2440490722656 C 281.8188781738281 269.04718017578125 274.5060729980469 273.1056213378906 274.36309814453125 288.21490478515625" stroke-width="0.0" fill="rgb(0, 6, 222)" opacity="0.96323663" stroke="rgb(0, 0, 0)" stroke-opacity="1.0" stroke-linecap="round" stroke-linejoin="round"/>
    <path d="M 348.05181884765625 166.46571350097656 C 292.67303466796875 150.33164978027344 312.6593017578125 124.77873229980469 323.0939025878906 101.99690246582031 C 315.944091796875 118.9983901977539 310.2823791503906 123.54956817626953 307.4388427734375 62.47779083251953 C 286.357666015625 29.78679656982422 369.6010437011719 33.02991485595703 331.9412536621094 63.56362533569336 C 308.0672607421875 75.95024871826172 348.6103820800781 105.11541748046875 348.05181884765625 166.46571350097656" stroke-width="0.0" fill="rgb(244, 255, 16)" opacity="0.9455438" stroke="rgb(0, 0, 0)" stroke-opacity="1.0" stroke-linecap="round" stroke-linejoin="round"/>
    <path d="M 253.28268432617188 236.50819396972656 C 277.78173828125 211.38853454589844 292.50048828125 214.92242431640625 276.5536193847656 234.265869140625 C 243.37777709960938 214.83299255371094 249.00279235839844 240.19876098632812 259.8804931640625 222.7559051513672 C 254.85726928710938 147.18975830078125 293.4129333496094 138.85658264160156 284.3748474121094 202.62432861328125 C 279.76373291015625 211.5507049560547 276.4569396972656 229.45632934570312 253.28268432617188 236.50819396972656" stroke-width="0.0" fill="rgb(0, 0, 213)" opacity="1.0" stroke="rgb(0, 0, 0)" stroke-opacity="1.0" stroke-linecap="round" stroke-linejoin="round"/>
    <path d="M 277.1612854003906 267.9709167480469 C 247.69393920898438 259.02716064453125 250.37713623046875 281.8539733886719 267.39306640625 260.0099182128906 C 264.8427429199219 267.3224792480469 256.9603271484375 266.859130859375 264.26141357421875 269.2068176269531 C 247.77398681640625 215.83193969726562 272.55255126953125 208.6406707763672 263.1261901855469 262.0728454589844 C 281.6487731933594 265.2808532714844 286.1483154296875 278.531494140625 277.1612854003906 267.9709167480469" stroke-width="0.0" fill="rgb(5, 13, 212)" opacity="0.38210234" stroke="rgb(0, 0, 0)" stroke-opacity="1.0" stroke-linecap="round" stroke-linejoin="round"/>
    <path d="M 363.0172424316406 188.024169921875 C 364.5863037109375 195.43185424804688 379.6902770996094 233.82571411132812 354.61785888671875 226.2123565673828 C 334.4587707519531 234.17930603027344 340.6412658691406 211.75563049316406 339.81744384765625 184.67996215820312 C 341.3033447265625 173.70387268066406 331.1317138671875 164.1975555419922 368.821533203125 174.99310302734375 C 386.77777099609375 189.7008056640625 368.60650634765625 173.7820587158203 363.0172424316406 188.024169921875" stroke-width="0.0" fill="rgb(222, 255, 141)" opacity="0.098799974" stroke="rgb(0, 0, 0)" stroke-opacity="1.0" stroke-linecap="round" stroke-linejoin="round"/>
    <path d="M 95.95449829101562 440.1902160644531 C 92.8800277709961 457.8310546875 67.0709228515625 451.42010498046875 79.13685607910156 432.9140319824219 C 66.46018981933594 443.8432922363281 68.0953140258789 439.66839599609375 66.81707000732422 425.687744140625 C 49.946044921875 414.49591064453125 44.48973083496094 399.4261169433594 11.589492797851562 424.08367919921875 C 12.076519966125488 459.8330383300781 50.78273010253906 465.40093994140625 95.95449829101562 440.1902160644531" stroke-width="0.0" fill="rgb(130, 254, 0)" opacity="1.0" stroke="rgb(0, 0, 0)" stroke-opacity="1.0" stroke-linecap="round" stroke-linejoin="round"/>
    <path d="M 211.1072998046875 329.7828063964844 C 188.03346252441406 345.0529479980469 189.9944305419922 363.8900146484375 193.5166015625 381.8838195800781 C 165.53829956054688 378.6910400390625 144.26510620117188 384.8958435058594 135.1697235107422 372.28302001953125 C 138.7881622314453 289.2054748535156 156.09097290039062 271.3460388183594 210.74940490722656 306.4905700683594 C 210.02099609375 337.05340576171875 197.1417694091797 355.2084655761719 211.1072998046875 329.7828063964844" stroke-width="0.0" fill="rgb(249, 255, 141)" opacity="0.99176925" stroke="rgb(0, 0, 0)" stroke-opacity="1.0" stroke-linecap="round" stroke-linejoin="round"/>
    <path d="M 42.75447082519531 314.1075439453125 C 44.07389450073242 325.6080627441406 42.91411590576172 331.55975341796875 46.93939208984375 327.52349853515625 C 48.615230560302734 319.0663146972656 43.360225677490234 326.44390869140625 37.17210388183594 317.3228759765625 C 23.012731552124023 316.44781494140625 19.27704620361328 297.8591613769531 29.940444946289062 291.1244201660156 C 41.13779067993164 309.8623046875 38.009029388427734 310.70281982421875 42.75447082519531 314.1075439453125" stroke-width="0.0" fill="rgb(29, 98, 102)" opacity="0.49525604" stroke="rgb(0, 0, 0)" stroke-opacity="1.0" stroke-linecap="round" stroke-linejoin="round"/>
    <path d="M 110.72532653808594 413.9920959472656 C 95.18439483642578 414.6902770996094 72.45573425292969 421.1636657714844 45.02418518066406 432.7775573730469 C 66.65873718261719 464.8783874511719 59.21491241455078 460.3092346191406 91.8999252319336 466.3919982910156 C 100.58340454101562 468.6429748535156 116.10231018066406 444.1929626464844 136.916748046875 431.4036865234375 C 123.1655044555664 429.5139465332031 107.142578125 423.72015380859375 110.72532653808594 413.9920959472656" stroke-width="0.0" fill="rgb(215, 249, 14)" opacity="0.9793491" stroke="rgb(0, 0, 0)" stroke-opacity="1.0" stroke-linecap="round" stroke-linejoin="round"/>
    <path d="M 495.197998046875 30.096418380737305 C 479.57745361328125 68.11378479003906 487.4446716308594 76.20174407958984 471.2518005371094 81.27794647216797 C 469.1128234863281 99.45845794677734 473.0252990722656 79.00238037109375 480.3582763671875 87.37020874023438 C 453.4471435546875 53.61994552612305 475.6201477050781 43.92123794555664 501.4801940917969 58.33561706542969 C 509.0475158691406 61.330772399902344 531.6442260742188 48.901939392089844 495.197998046875 30.096418380737305" stroke-width="0.0" fill="rgb(88, 27, 45)" opacity="0.061117597" stroke="rgb(0, 0, 0)" stroke-opacity="1.0" stroke-linecap="round" stroke-linejoin="round"/>
    <path d="M 56.959529876708984 182.4785919189453 C 50.934349060058594 191.7582550048828 39.50982666015625 199.5580596923828 6.8524322509765625 210.28660583496094 C 11.999629974365234 225.22952270507812 19.259916305541992 190.1744842529297 27.845062255859375 201.13111877441406 C 3.4020771980285645 189.1930694580078 18.352619171142578 170.4019012451172 45.94398498535156 168.66537475585938 C 74.47411346435547 154.39321899414062 70.58100128173828 152.4612274169922 56.959529876708984 182.4785919189453" stroke-width="0.0" fill="rgb(86, 15, 131)" opacity="0.042745985" stroke="rgb(0, 0, 0)" stroke-opacity="1.0" stroke-linecap="round" stroke-linejoin="round"/>
    <path d="M 312.21929931640625 324.1673278808594 C 325.14788818359375 330.565673828125 333.3052978515625 349.3004150390625 321.9404296875 332.6608581542969 C 272.49713134765625 335.81201171875 259.23187255859375 352.407470703125 277.7140197753906 335.109619140625 C 284.0079345703125 318.21844482421875 293.0917053222656 312.71685791015625 308.4406433105469 308.77099609375 C 319.39361572265625 295.062744140625 324.93426513671875 303.521484375 312.21929931640625 324.1673278808594" stroke-width="0.0" fill="rgb(136, 214, 2)" opacity="0.0" stroke="rgb(0, 0, 0)" stroke-opacity="1.0" stroke-linecap="round" stroke-linejoin="round"/>
    <path d="M 399.33135986328125 426.2488098144531 C 399.0091552734375 436.8339538574219 373.8319396972656 434.5789489746094 337.0259094238281 448.75164794921875 C 352.08453369140625 455.6045227050781 349.2213439941406 441.3338317871094 332.7818298339844 435.2520751953125 C 335.83050537109375 440.9964599609375 347.9664611816406 427.5304870605469 357.86944580078125 417.15081787109375 C 376.392822265625 412.1575927734375 401.9288330078125 410.5259094238281 399.33135986328125 426.2488098144531" stroke-width="0.0" fill="rgb(108, 62, 31)" opacity="0.0053900885" stroke="rgb(0, 0, 0)" stroke-opacity="1.0" stroke-linecap="round" stroke-linejoin="round"/>
    <path d="M 346.2085266113281 409.9954833984375 C 352.4743347167969 425.5350036621094 345.5767517089844 442.2176513671875 322.05975341796875 449.01055908203125 C 325.66876220703125 441.86004638671875 327.4146728515625 430.8857727050781 310.8316345214844 436.26702880859375 C 319.3887939453125 408.8279113769531 328.6006774902344 401.4299011230469 366.52215576171875 403.8052062988281 C 348.4772644042969 411.5057373046875 346.77520751953125 408.66290283203125 346.2085266113281 409.9954833984375" stroke-width="0.0" fill="rgb(86, 17, 12)" opacity="0.0" stroke="rgb(0, 0, 0)" stroke-opacity="1.0" stroke-linecap="round" stroke-linejoin="round"/>
    <path d="M 415.9471740722656 61.20467758178711 C 418.7089538574219 74.58622741699219 409.3177185058594 78.66565704345703 407.130859375 79.13861846923828 C 406.5596923828125 76.88059997558594 405.7997741699219 82.90901184082031 420.6815185546875 66.01336669921875 C 424.0184631347656 59.684715270996094 438.5036926269531 44.81139373779297 420.8902587890625 31.041152954101562 C 405.37603759765625 60.835323333740234 407.96929931640625 58.506187438964844 415.9471740722656 61.20467758178711" stroke-width="0.0" fill="rgb(55, 22, 118)" opacity="0.5436559" stroke="rgb(0, 0, 0)" stroke-opacity="1.0" stroke-linecap="round" stroke-linejoin="round"/>
    <path d="M 13.667960166931152 67.49496459960938 C -23.601398468017578 78.90308380126953 -2.3769116401672363 133.78244018554688 51.922027587890625 97.34033966064453 C 12.187743186950684 82.05413055419922 -9.298608779907227 82.29373168945312 -18.369272232055664 87.73250579833984 C 7.543271541595459 74.80095672607422 42.625022888183594 81.237060546875 62.32692337036133 82.782470703125 C 79.60066223144531 79.16747283935547 68.02323150634766 91.89234924316406 13.667960166931152 67.49496459960938" stroke-width="0.0" fill="rgb(120, 41, 122)" opacity="0.019551495" stroke="rgb(0, 0, 0)" stroke-opacity="1.0" stroke-linecap="round" stroke-linejoin="round"/>
    <path d="M 34.46746826171875 154.01156616210938 C 42.994876861572266 133.52528381347656 56.59492111206055 114.55257415771484 27.766080856323242 112.76107788085938 C 39.58944320678711 118.66595458984375 15.035758018493652 135.0676727294922 -18.37286376953125 135.64996337890625 C -27.065532684326172 140.853271484375 -6.980734348297119 138.40675354003906 28.8573055267334 143.75830078125 C 30.092552185058594 108.52539825439453 23.404712677001953 126.89585876464844 34.46746826171875 154.01156616210938" stroke-width="0.0" fill="rgb(103, 38, 116)" opacity="0.0" stroke="rgb(0, 0, 0)" stroke-opacity="1.0" stroke-linecap="round" stroke-linejoin="round"/>
    <path d="M 550.4763793945312 266.5807800292969 C 503.0467834472656 302.29962158203125 492.5447692871094 309.6713562011719 483.8385009765625 244.745361328125 C 471.93792724609375 270.07965087890625 468.35003662109375 254.02980041503906 473.62847900390625 226.63377380371094 C 471.8756103515625 241.94326782226562 464.54119873046875 211.6790008544922 496.6318664550781 189.37294006347656 C 520.5270385742188 186.5298614501953 531.8142700195312 211.6094970703125 550.4763793945312 266.5807800292969" stroke-width="0.0" fill="rgb(113, 11, 81)" opacity="0.11874261" stroke="rgb(0, 0, 0)" stroke-opacity="1.0" stroke-linecap="round" stroke-linejoin="round"/>
    <path d="M 310.9226379394531 30.331336975097656 C 319.0145263671875 61.40248489379883 354.36199951171875 77.74885559082031 370.0477294921875 40.2672119140625 C 334.03619384765625 3.9911985397338867 281.068603515625 22.669694900512695 268.7253723144531 16.06915855407715 C 267.7626647949219 13.549543380737305 267.988525390625 3.891916036605835 284.1777648925781 42.613548278808594 C 322.9121398925781 38.92569351196289 316.99462890625 18.071855545043945 310.9226379394531 30.331336975097656" stroke-width="0.0" fill="rgb(67, 0, 143)" opacity="0.09689936" stroke="rgb(0, 0, 0)" stroke-opacity="1.0" stroke-linecap="round" stroke-linejoin="round"/>
    <path d="M 425.8936767578125 247.029541015625 C 436.0109558105469 257.47418212890625 430.42047119140625 289.2069396972656 396.86572265625 292.0993957519531 C 401.19903564453125 307.7283020019531 450.08148193359375 289.0136413574219 409.618408203125 284.3981018066406 C 426.5619201660156 257.8783874511719 415.78363037109375 262.4068298339844 424.45611572265625 271.333251953125 C 417.3280029296875 250.0620880126953 437.2302551269531 254.87586975097656 425.8936767578125 247.029541015625" stroke-width="0.0" fill="rgb(170, 216, 63)" opacity="0.0041888505" stroke="rgb(0, 0, 0)" stroke-opacity="1.0" stroke-linecap="round" stroke-linejoin="round"/>
    <path d="M 521.3734741210938 125.53495025634766 C 517.549560546875 151.32029724121094 509.1954650878906 161.12535095214844 531.1228637695312 151.9615478515625 C 528.014892578125 136.7436065673828 524.6317749023438 114.48837280273438 519.5660400390625 112.73409271240234 C 493.3460388183594 131.2719268798828 505.1590576171875 128.39990234375 535.3672485351562 129.4218292236328 C 520.673828125 111.40760803222656 523.3575439453125 117.57317352294922 521.3734741210938 125.53495025634766" stroke-width="0.0" fill="rgb(55, 23, 153)" opacity="0.023665238" stroke="rgb(0, 0, 0)" stroke-opacity="1.0" stroke-linecap="round" stroke-linejoin="round"/>
    <path d="M 547.6342163085938 143.8342742919922 C 535.4794311523438 168.6402130126953 525.5866088867188 193.51251220703125 480.4643249511719 199.5569305419922 C 500.24041748046875 179.6678466796875 539.1787719726562 173.04124450683594 513.14697265625 109.48221588134766 C 462.6881103515625 156.98214721679688 481.31561279296875 178.3795166015625 516.6963500976562 173.93255615234375 C 517.7416381835938 147.39990234375 525.1123657226562 154.182373046875 547.6342163085938 143.8342742919922" stroke-width="0.0" fill="rgb(114, 6, 103)" opacity="0.07481002" stroke="rgb(0, 0, 0)" stroke-opacity="1.0" stroke-linecap="round" stroke-linejoin="round"/>
    <path d="M 67.29423522949219 374.2344055175781 C 80.2973861694336 378.09405517578125 69.16573333740234 389.4874572753906 49.50379180908203 377.6153869628906 C 51.166805267333984 360.59930419921875 38.66891098022461 360.8033142089844 35.450984954833984 362.1066589355469 C 33.54859161376953 370.9620666503906 35.588253021240234 371.41473388671875 64.218994140625 386.0943908691406 C 65.86924743652344 368.4361267089844 62.1110954284668 364.8201904296875 67.29423522949219 374.2344055175781" stroke-width="0.0" fill="rgb(3, 25, 134)" opacity="0.40347466" stroke="rgb(0, 0, 0)" stroke-opacity="1.0" stroke-linecap="round" stroke-linejoin="round"/>
    <path d="M 347.8113098144531 263.0024108886719 C 329.7825927734375 264.7447814941406 305.7969055175781 264.4426574707031 312.2214660644531 314.22216796875 C 326.5547180175781 288.7984619140625 299.49285888671875 256.9427795410156 307.82666015625 248.65997314453125 C 308.5137939453125 264.23486328125 275.3620910644531 271.6897888183594 300.595703125 170.5005340576172 C 339.8144836425781 146.87167358398438 343.46728515625 182.8661346435547 347.8113098144531 263.0024108886719" stroke-width="0.0" fill="rgb(36, 255, 109)" opacity="0.9970224" stroke="rgb(0, 0, 0)" stroke-opacity="1.0" stroke-linecap="round" stroke-linejoin="round"/>
    <path d="M 498.3765563964844 132.5749969482422 C 495.798583984375 108.26261901855469 470.837890625 128.20535278320312 474.4092712402344 160.4876251220703 C 477.275390625 120.19037628173828 446.8179626464844 97.89727020263672 471.5988464355469 93.76315307617188 C 463.6622314453125 103.44995880126953 450.2557373046875 80.50862884521484 469.3956298828125 96.57743835449219 C 460.0536804199219 106.35870361328125 480.0429992675781 136.6576690673828 498.3765563964844 132.5749969482422" stroke-width="0.0" fill="rgb(15, 0, 124)" opacity="0.03101001" stroke="rgb(0, 0, 0)" stroke-opacity="1.0" stroke-linecap="round" stroke-linejoin="round"/>
    <path d="M 484.6543273925781 453.3334655761719 C 490.0400085449219 474.9942626953125 469.1993408203125 482.894775390625 440.50634765625 493.5484313964844 C 428.19329833984375 475.3905334472656 405.1969909667969 451.0421142578125 446.22894287109375 480.45416259765625 C 471.5427551269531 467.09771728515625 465.72723388671875 438.6761779785156 476.6753845214844 437.9237060546875 C 483.73779296875 440.4862060546875 491.5635070800781 438.4903259277344 484.6543273925781 453.3334655761719" stroke-width="0.0" fill="rgb(88, 41, 97)" opacity="0.00024971832" stroke="rgb(0, 0, 0)" stroke-opacity="1.0" stroke-linecap="round" stroke-linejoin="round"/>
    <path d="M 486.2947082519531 387.46600341796875 C 496.87713623046875 365.6847839355469 492.86151123046875 361.7862548828125 470.2518615722656 359.9162902832031 C 479.5968322753906 376.4595031738281 480.98858642578125 373.1513366699219 480.33038330078125 376.3895568847656 C 486.3899841308594 359.8113708496094 482.1819152832031 352.2624816894531 486.7559509277344 350.7647399902344 C 492.66815185546875 354.84423828125 492.040771484375 396.3655700683594 486.2947082519531 387.46600341796875" stroke-width="0.0" fill="rgb(84, 50, 96)" opacity="0.021769466" stroke="rgb(0, 0, 0)" stroke-opacity="1.0" stroke-linecap="round" stroke-linejoin="round"/>
    <path d="M 143.7414093017578 428.0386047363281 C 170.38589477539062 423.78753662109375 170.2076873779297 422.2419128417969 153.91107177734375 413.3085632324219 C 152.021484375 433.6900329589844 132.73301696777344 425.95281982421875 133.32334899902344 421.8670349121094 C 126.04087829589844 443.596923828125 128.41793823242188 412.4085998535156 121.89575958251953 415.51220703125 C 135.914794921875 427.1908874511719 159.3568878173828 423.4544677734375 143.7414093017578 428.0386047363281" stroke-width="0.0" fill="rgb(157, 87, 127)" opacity="0.008139567" stroke="rgb(0, 0, 0)" stroke-opacity="1.0" stroke-linecap="round" stroke-linejoin="round"/>
    <path d="M 107.21379089355469 178.3575439453125 C 114.0022201538086 167.14353942871094 112.07640838623047 172.7875518798828 114.50570678710938 182.37939453125 C 113.5782470703125 176.02154541015625 106.56044006347656 167.49130249023438 85.21504974365234 181.38612365722656 C 87.17615509033203 153.38577270507812 89.73829650878906 146.60772705078125 107.08869934082031 136.3787078857422 C 115.36527252197266 123.8989486694336 124.26055908203125 138.15484619140625 107.21379089355469 178.3575439453125" stroke-width="0.0" fill="rgb(41, 7, 146)" opacity="0.09419239" stroke="rgb(0, 0, 0)" stroke-opacity="1.0" stroke-linecap="round" stroke-linejoin="round"/>
    <path d="M 253.79898071289062 163.02810668945312 C 220.58665466308594 175.64088439941406 211.0889434814453 175.44381713867188 168.31100463867188 184.70631408691406 C 160.25369262695312 170.86892700195312 162.151611328125 141.8758087158203 156.6919403076172 101.46550750732422 C 158.25906372070312 112.90657043457031 163.24546813964844 98.37238311767578 179.0831756591797 27.967193603515625 C 214.49786376953125 109.3189697265625 242.7965850830078 75.50736999511719 253.79898071289062 163.02810668945312" stroke-width="0.0" fill="rgb(252, 255, 3)" opacity="0.9986494" stroke="rgb(0, 0, 0)" stroke-opacity="1.0" stroke-linecap="round" stroke-linejoin="round"/>
    <path d="M 133.5963592529297 442.4151306152344 C 165.7091064453125 438.7304382324219 166.28045654296875 432.89703369140625 209.07212829589844 384.8280944824219 C 174.0350799560547 367.9017639160156 152.93826293945312 402.9439697265625 170.954345703125 384.07122802734375 C 157.50888061523438 384.77410888671875 170.44212341308594 390.91571044921875 180.99380493164062 397.05096435546875 C 180.8762969970703 387.9787292480469 155.5966796875 383.3205261230469 133.5963592529297 442.4151306152344" stroke-width="0.0" fill="rgb(137, 255, 76)" opacity="1.0" stroke="rgb(0, 0, 0)" stroke-opacity="1.0" stroke-linecap="round" stroke-linejoin="round"/>
    <path d="M 452.0130310058594 101.47096252441406 C 463.6167907714844 111.98876190185547 448.9106140136719 130.1826629638672 432.50140380859375 138.0576629638672 C 438.736083984375 137.598876953125 437.2730407714844 134.5084991455078 432.66162109375 142.26622009277344 C 441.7896728515625 126.06037139892578 458.6201171875 120.25403594970703 456.0492858886719 113.3995590209961 C 452.9708557128906 112.12794494628906 439.2613830566406 113.54963684082031 452.0130310058594 101.47096252441406" stroke-width="0.0" fill="rgb(53, 51, 92)" opacity="0.5197022" stroke="rgb(0, 0, 0)" stroke-opacity="1.0" stroke-linecap="round" stroke-linejoin="round"/>
    <path d="M 226.8454132080078 322.07049560546875 C 236.78077697753906 304.0209045410156 250.83509826660156 311.79302978515625 227.46556091308594 308.0518798828125 C 244.03372192382812 357.9233703613281 230.09744262695312 317.9151916503906 224.95481872558594 283.9200439453125 C 220.5395050048828 276.3720703125 242.2544403076172 292.5923767089844 241.05813598632812 321.0953674316406 C 205.51174926757812 333.0258483886719 217.8799285888672 339.16571044921875 226.8454132080078 322.07049560546875" stroke-width="0.0" fill="rgb(165, 60, 12)" opacity="0.0" stroke="rgb(0, 0, 0)" stroke-opacity="1.0" stroke-linecap="round" stroke-linejoin="round"/>
    <path d="M 142.7834930419922 472.72747802734375 C 136.61166381835938 474.8323974609375 138.69622802734375 499.0021667480469 123.20206451416016 490.0127258300781 C 114.34603118896484 503.26727294921875 103.8536376953125 523.658447265625 136.8123779296875 521.2677001953125 C 138.04116821289062 473.32684326171875 135.96107482910156 454.88104248046875 144.35804748535156 490.7773132324219 C 125.35363006591797 493.9602966308594 124.00533294677734 486.5557556152344 142.7834930419922 472.72747802734375" stroke-width="0.0" fill="rgb(14, 25, 184)" opacity="0.0025014402" stroke="rgb(0, 0, 0)" stroke-opacity="1.0" stroke-linecap="round" stroke-linejoin="round"/>
    <path d="M 477.1107482910156 382.8780212402344 C 473.9450988769531 385.01953125 476.4146423339844 406.4324645996094 474.1675720214844 407.5807189941406 C 438.9349365234375 397.8212890625 430.2655944824219 395.8077087402344 451.37286376953125 395.5160217285156 C 451.9000549316406 371.77978515625 454.6949157714844 357.1431579589844 461.3615417480469 375.6568603515625 C 442.0724792480469 375.83221435546875 451.24420166015625 393.9090881347656 477.1107482910156 382.8780212402344" stroke-width="0.0" fill="rgb(54, 37, 89)" opacity="0.0" stroke="rgb(0, 0, 0)" stroke-opacity="1.0" stroke-linecap="round" stroke-linejoin="round"/>
    <path d="M 299.73065185546875 115.1847915649414 C 296.0818786621094 78.40570831298828 283.4578857421875 89.62369537353516 289.79510498046875 129.33306884765625 C 293.3435363769531 108.19739532470703 249.583984375 116.34744262695312 255.49197387695312 106.11276245117188 C 264.4847106933594 122.36175537109375 287.4208068847656 130.71112060546875 321.8483581542969 124.29034423828125 C 320.5576477050781 104.18612670898438 316.3852233886719 99.92632293701172 299.73065185546875 115.1847915649414" stroke-width="0.0" fill="rgb(200, 168, 118)" opacity="0.0" stroke="rgb(0, 0, 0)" stroke-opacity="1.0" stroke-linecap="round" stroke-linejoin="round"/>
    <path d="M 417.3575744628906 12.216558456420898 C 381.8505859375 19.228076934814453 383.34149169921875 44.396514892578125 356.2156982421875 71.68912506103516 C 380.368408203125 74.68950653076172 377.8410949707031 62.44393539428711 363.5606689453125 34.50635528564453 C 386.66937255859375 32.83755874633789 378.4716796875 39.276939392089844 360.194580078125 15.781072616577148 C 379.1471252441406 40.94479751586914 409.48944091796875 28.154239654541016 417.3575744628906 12.216558456420898" stroke-width="0.0" fill="rgb(42, 26, 138)" opacity="0.0" stroke="rgb(0, 0, 0)" stroke-opacity="1.0" stroke-linecap="round" stroke-linejoin="round"/>
  </g>
</svg>
