<?xml version="1.0" ?>
<svg xmlns="http://www.w3.org/2000/svg" version="1.1" width="512" height="512">
  <defs/>
  <g>
    <path d="M 520.5038452148438 474.7457275390625 C 547.7982177734375 516.711669921875 549.438720703125 525.0853881835938 391.22607421875 538.2987670898438 C 315.9954528808594 553.1511840820312 275.4184265136719 546.900634765625 131.6397705078125 453.2518615722656 C 297.3923034667969 382.5256652832031 427.30218505859375 405.1463623046875 502.6781005859375 315.0895080566406 C 567.049560546875 311.5741882324219 545.7027587890625 360.5419006347656 520.5038452148438 474.7457275390625" stroke-width="0.0" fill="rgb(54, 255, 101)" opacity="0.671843" stroke="rgb(0, 0, 0)" stroke-opacity="1.0" stroke-linecap="round" stroke-linejoin="round"/>
    <path d="M 269.4606628417969 282.53118896484375 C 287.1379089355469 489.96661376953125 310.11163330078125 542.3867797851562 283.7960205078125 516.3078002929688 C -41.868568420410156 529.4715576171875 -51.980690002441406 519.2411499023438 -75.09417724609375 475.4930419921875 C -27.617589950561523 191.39549255371094 -3.3264119625091553 157.0860595703125 77.9371109008789 243.73936462402344 C 168.89218139648438 374.1139831542969 161.40135192871094 294.4271240234375 269.4606628417969 282.53118896484375" stroke-width="0.0" fill="rgb(20, 162, 73)" opacity="1.0" stroke="rgb(0, 0, 0)" stroke-opacity="1.0" stroke-linecap="round" stroke-linejoin="round"/>
    <path d="M 260.0712585449219 298.7940673828125 C 90.69134521484375 279.3138122558594 44.91243362426758 343.3240661621094 189.57618713378906 328.72076416015625 C 99.79727172851562 226.5969696044922 3.8716492652893066 331.8606262207031 26.9623966217041 179.08351135253906 C 47.34846115112305 129.5755157470703 99.60560607910156 86.20372772216797 270.51849365234375 124.61079406738281 C 330.318115234375 168.59921264648438 358.88934326171875 231.7385711669922 260.0712585449219 298.7940673828125" stroke-width="0.0" fill="rgb(200, 125, 88)" opacity="0.6274819" stroke="rgb(0, 0, 0)" stroke-opacity="1.0" stroke-linecap="round" stroke-linejoin="round"/>
    <path d="M 249.47296142578125 -18.103668212890625 C 201.19679260253906 102.098876953125 120.8691635131836 53.887855529785156 64.1333999633789 249.2868194580078 C -44.24559020996094 260.4264831542969 -60.87180709838867 233.167236328125 -50.957332611083984 179.26336669921875 C -16.451900482177734 -18.537282943725586 -10.644554138183594 -24.558425903320312 32.21444320678711 -18.7316837310791 C 204.95166015625 -27.166507720947266 235.46905517578125 -44.79048538208008 249.47296142578125 -18.103668212890625" stroke-width="0.0" fill="rgb(105, 248, 57)" opacity="0.7430987" stroke="rgb(0, 0, 0)" stroke-opacity="1.0" stroke-linecap="round" stroke-linejoin="round"/>
    <path d="M 529.45068359375 110.10615539550781 C 446.4721374511719 297.57275390625 470.92462158203125 327.4143981933594 322.726318359375 270.9118957519531 C 303.2625732421875 253.8175048828125 260.9178771972656 199.8345489501953 250.993408203125 218.63352966308594 C 453.7349853515625 223.34239196777344 325.4456481933594 278.0536193847656 343.7696533203125 -28.792560577392578 C 559.4254150390625 -8.978282928466797 569.7323608398438 -2.569568157196045 529.45068359375 110.10615539550781" stroke-width="0.0" fill="rgb(76, 0, 139)" opacity="1.0" stroke="rgb(0, 0, 0)" stroke-opacity="1.0" stroke-linecap="round" stroke-linejoin="round"/>
    <path d="M 357.2224426269531 199.5240478515625 C 149.8092498779297 203.1212615966797 136.24749755859375 20.673114776611328 148.3332977294922 169.93936157226562 C 90.29187774658203 261.5108642578125 71.65506744384766 262.85296630859375 60.669677734375 179.89138793945312 C 58.602115631103516 95.4856948852539 53.7700309753418 88.38838958740234 299.4979248046875 18.21975326538086 C 450.9026184082031 57.86281967163086 508.09771728515625 75.09366607666016 357.2224426269531 199.5240478515625" stroke-width="0.0" fill="rgb(101, 5, 96)" opacity="0.9598542" stroke="rgb(0, 0, 0)" stroke-opacity="1.0" stroke-linecap="round" stroke-linejoin="round"/>
    <path d="M 541.0925903320312 397.90045166015625 C 534.1729125976562 512.5798950195312 561.9801635742188 544.6769409179688 288.026611328125 598.9998168945312 C 251.28512573242188 490.0875549316406 311.62982177734375 328.54144287109375 244.8843231201172 311.67498779296875 C 360.2086181640625 322.2857360839844 312.2216796875 239.96189880371094 388.7365417480469 235.29763793945312 C 440.6462097167969 245.70281982421875 476.18109130859375 273.49749755859375 541.0925903320312 397.90045166015625" stroke-width="0.0" fill="rgb(214, 253, 63)" opacity="0.41681096" stroke="rgb(0, 0, 0)" stroke-opacity="1.0" stroke-linecap="round" stroke-linejoin="round"/>
    <path d="M 551.6076049804688 145.34010314941406 C 568.0595092773438 318.4031982421875 554.1314697265625 356.6556701660156 507.0072021484375 342.00146484375 C 349.3250732421875 337.5089416503906 362.85430908203125 334.24774169921875 406.20037841796875 264.88177490234375 C 521.0167236328125 165.40480041503906 441.95648193359375 88.85975646972656 549.10693359375 52.86064910888672 C 570.5473022460938 31.197345733642578 572.421875 68.8646240234375 551.6076049804688 145.34010314941406" stroke-width="0.0" fill="rgb(161, 247, 116)" opacity="0.9920796" stroke="rgb(0, 0, 0)" stroke-opacity="1.0" stroke-linecap="round" stroke-linejoin="round"/>
    <path d="M 378.0202331542969 224.49981689453125 C 419.1787109375 312.3717041015625 391.6428527832031 297.896484375 319.7927551269531 312.065185546875 C 260.0934753417969 309.1536865234375 260.4864501953125 322.7125244140625 253.5892791748047 230.3375244140625 C 339.98321533203125 241.9890594482422 338.7805480957031 271.832763671875 335.2734680175781 281.65435791015625 C 292.3330993652344 272.8017272949219 310.25390625 274.9097900390625 378.0202331542969 224.49981689453125" stroke-width="0.0" fill="rgb(255, 255, 205)" opacity="1.0" stroke="rgb(0, 0, 0)" stroke-opacity="1.0" stroke-linecap="round" stroke-linejoin="round"/>
    <path d="M 387.6990051269531 197.00363159179688 C 363.45159912109375 208.05645751953125 366.8816833496094 206.56723022460938 372.34637451171875 230.979248046875 C 385.4313049316406 174.67056274414062 366.17474365234375 277.1485290527344 173.4571075439453 189.59471130371094 C 202.3475799560547 140.2926788330078 234.8027801513672 103.70894622802734 365.2240295410156 106.34876251220703 C 381.3567810058594 249.3150634765625 355.6993103027344 277.8232116699219 387.6990051269531 197.00363159179688" stroke-width="0.0" fill="rgb(255, 255, 130)" opacity="1.0" stroke="rgb(0, 0, 0)" stroke-opacity="1.0" stroke-linecap="round" stroke-linejoin="round"/>
    <path d="M 248.2568359375 237.26812744140625 C 167.76736450195312 258.1130676269531 219.87973022460938 257.38787841796875 95.7367172241211 328.3805847167969 C 256.9362487792969 271.93023681640625 153.4814453125 227.7334442138672 133.58248901367188 191.61663818359375 C 66.24862670898438 132.69869995117188 73.87504577636719 240.24807739257812 132.24392700195312 214.81483459472656 C 363.9787292480469 192.6966552734375 541.924560546875 223.23858642578125 248.2568359375 237.26812744140625" stroke-width="0.0" fill="rgb(30, 2, 229)" opacity="0.9669291" stroke="rgb(0, 0, 0)" stroke-opacity="1.0" stroke-linecap="round" stroke-linejoin="round"/>
    <path d="M 391.9717712402344 275.2216491699219 C 399.4654541015625 251.3598175048828 417.2027282714844 260.3964538574219 377.1837158203125 282.8968200683594 C 383.4772033691406 368.46209716796875 378.8861999511719 335.767578125 365.2424011230469 213.94004821777344 C 371.3267517089844 57.73806381225586 408.7975158691406 32.63612747192383 383.0054016113281 245.78953552246094 C 373.4852294921875 272.9701843261719 372.8526611328125 283.7207946777344 391.9717712402344 275.2216491699219" stroke-width="0.0" fill="rgb(237, 148, 2)" opacity="0.28121808" stroke="rgb(0, 0, 0)" stroke-opacity="1.0" stroke-linecap="round" stroke-linejoin="round"/>
    <path d="M 359.34808349609375 55.4625244140625 C 287.02557373046875 83.21378326416016 294.0549621582031 125.26936340332031 269.0994873046875 105.18175506591797 C 171.48765563964844 100.59051513671875 298.6436767578125 152.37969970703125 163.27476501464844 50.29765701293945 C 129.38967895507812 -9.093841552734375 155.3174591064453 -16.717395782470703 265.0572509765625 -57.04839324951172 C 341.69000244140625 -3.3842334747314453 383.84161376953125 -15.542949676513672 359.34808349609375 55.4625244140625" stroke-width="0.0" fill="rgb(139, 255, 115)" opacity="1.0" stroke="rgb(0, 0, 0)" stroke-opacity="1.0" stroke-linecap="round" stroke-linejoin="round"/>
    <path d="M 258.2022399902344 360.008544921875 C 189.16664123535156 414.53631591796875 159.99998474121094 422.10101318359375 164.33523559570312 389.3647155761719 C 168.35595703125 333.33099365234375 238.27647399902344 296.52789306640625 100.24442291259766 380.79901123046875 C 139.67135620117188 365.70562744140625 195.28074645996094 334.81005859375 196.03514099121094 303.9466552734375 C 112.32659149169922 371.0885314941406 104.36279296875 437.2979736328125 258.2022399902344 360.008544921875" stroke-width="0.0" fill="rgb(114, 95, 148)" opacity="0.7291677" stroke="rgb(0, 0, 0)" stroke-opacity="1.0" stroke-linecap="round" stroke-linejoin="round"/>
    <path d="M 575.587646484375 78.56275177001953 C 544.7678833007812 108.19859313964844 512.212890625 104.6759033203125 514.2135620117188 110.16585540771484 C 485.90667724609375 147.12814331054688 437.3536071777344 91.92752838134766 355.52069091796875 56.491939544677734 C 319.7488708496094 -6.001795768737793 324.0955505371094 -85.58226776123047 377.78546142578125 -102.60018157958984 C 540.7415161132812 -11.430086135864258 538.7570190429688 -0.6763355731964111 575.587646484375 78.56275177001953" stroke-width="0.0" fill="rgb(155, 255, 119)" opacity="1.0" stroke="rgb(0, 0, 0)" stroke-opacity="1.0" stroke-linecap="round" stroke-linejoin="round"/>
    <path d="M 219.4021453857422 309.5619201660156 C 204.0696563720703 304.8650207519531 219.91201782226562 277.4079895019531 223.8011016845703 310.8539123535156 C 190.22227478027344 336.70635986328125 91.31106567382812 330.8349609375 178.08328247070312 263.09857177734375 C 198.60833740234375 279.3288879394531 153.77247619628906 268.53717041015625 251.44171142578125 216.13706970214844 C 250.61801147460938 286.53314208984375 248.4899139404297 306.2962646484375 219.4021453857422 309.5619201660156" stroke-width="0.0" fill="rgb(255, 227, 182)" opacity="0.8824551" stroke="rgb(0, 0, 0)" stroke-opacity="1.0" stroke-linecap="round" stroke-linejoin="round"/>
    <path d="M 126.5912857055664 396.00299072265625 C 66.51415252685547 427.7551574707031 58.834320068359375 434.9185791015625 21.5866756439209 457.9767761230469 C 12.613005638122559 441.40606689453125 0.27084222435951233 441.6789245605469 -35.219970703125 404.9370422363281 C -9.38486385345459 362.25006103515625 -23.235090255737305 356.960205078125 23.458969116210938 374.60382080078125 C 72.03156280517578 382.96221923828125 99.19867706298828 382.87615966796875 126.5912857055664 396.00299072265625" stroke-width="0.0" fill="rgb(63, 138, 134)" opacity="0.23787548" stroke="rgb(0, 0, 0)" stroke-opacity="1.0" stroke-linecap="round" stroke-linejoin="round"/>
    <path d="M 229.58319091796875 361.77313232421875 C 188.66494750976562 402.95654296875 231.88438415527344 401.23626708984375 308.6300048828125 377.4974060058594 C 285.3783264160156 321.6586608886719 270.5267639160156 333.87457275390625 258.0506286621094 339.9725646972656 C 241.9397735595703 354.9262390136719 318.1533508300781 319.51715087890625 265.36376953125 306.5382080078125 C 242.54408264160156 326.3602600097656 244.3701629638672 295.4136047363281 229.58319091796875 361.77313232421875" stroke-width="0.0" fill="rgb(35, 0, 42)" opacity="1.0" stroke="rgb(0, 0, 0)" stroke-opacity="1.0" stroke-linecap="round" stroke-linejoin="round"/>
    <path d="M 372.9100341796875 188.29981994628906 C 374.3231506347656 200.82711791992188 374.2406921386719 209.4567108154297 364.2205505371094 201.369384765625 C 358.8729248046875 179.72267150878906 359.66168212890625 205.04881286621094 362.19769287109375 221.6349334716797 C 402.8677673339844 209.77810668945312 409.2303771972656 207.62071228027344 356.5165710449219 68.9097900390625 C 308.4526672363281 93.1109848022461 366.67529296875 147.45045471191406 372.9100341796875 188.29981994628906" stroke-width="0.0" fill="rgb(3, 30, 18)" opacity="0.9686262" stroke="rgb(0, 0, 0)" stroke-opacity="1.0" stroke-linecap="round" stroke-linejoin="round"/>
    <path d="M 125.8608169555664 234.57875061035156 C 163.33799743652344 352.17840576171875 165.17616271972656 324.3155822753906 210.94912719726562 309.59979248046875 C 40.35564422607422 366.1477966308594 144.21035766601562 351.0314636230469 50.66493606567383 209.4803466796875 C 46.01164245605469 223.07484436035156 55.88646697998047 175.6598663330078 117.1624984741211 119.6956787109375 C 148.0376434326172 273.037353515625 146.22979736328125 206.996337890625 125.8608169555664 234.57875061035156" stroke-width="0.0" fill="rgb(71, 71, 107)" opacity="1.0" stroke="rgb(0, 0, 0)" stroke-opacity="1.0" stroke-linecap="round" stroke-linejoin="round"/>
    <path d="M 128.3441619873047 482.07012939453125 C 101.78868865966797 498.1369323730469 78.7623519897461 494.7468566894531 57.49185562133789 519.8652954101562 C 62.163055419921875 540.6347045898438 59.67702102661133 534.9100952148438 -6.384413719177246 463.7436828613281 C 8.301703453063965 424.7765197753906 11.54659652709961 407.14520263671875 108.0674057006836 352.36993408203125 C 196.74790954589844 429.2757873535156 151.27394104003906 437.9977722167969 128.3441619873047 482.07012939453125" stroke-width="0.0" fill="rgb(39, 157, 95)" opacity="0.5466179" stroke="rgb(0, 0, 0)" stroke-opacity="1.0" stroke-linecap="round" stroke-linejoin="round"/>
    <path d="M 132.8648681640625 296.1408996582031 C 56.5150146484375 360.9933776855469 117.3602523803711 346.4772033691406 165.49363708496094 336.52764892578125 C 53.8662223815918 392.7948913574219 27.028884887695312 407.2860107421875 -39.000667572021484 395.5302429199219 C -16.17250633239746 244.40655517578125 -3.563387393951416 195.25399780273438 60.888126373291016 220.78216552734375 C 128.4423370361328 310.5846862792969 92.24171447753906 248.89300537109375 132.8648681640625 296.1408996582031" stroke-width="0.0" fill="rgb(28, 131, 76)" opacity="0.9545054" stroke="rgb(0, 0, 0)" stroke-opacity="1.0" stroke-linecap="round" stroke-linejoin="round"/>
    <path d="M 171.82870483398438 536.7448120117188 C 261.59381103515625 518.3013305664062 237.14089965820312 510.20025634765625 246.7725830078125 472.3776550292969 C 197.01095581054688 445.1174621582031 177.4812774658203 481.8619689941406 149.14727783203125 506.9089660644531 C 112.61632537841797 423.1521301269531 101.18971252441406 432.4378967285156 168.54661560058594 383.8580627441406 C 225.91917419433594 466.15008544921875 154.39410400390625 480.98199462890625 171.82870483398438 536.7448120117188" stroke-width="0.0" fill="rgb(0, 142, 47)" opacity="0.6009912" stroke="rgb(0, 0, 0)" stroke-opacity="1.0" stroke-linecap="round" stroke-linejoin="round"/>
    <path d="M 151.33419799804688 202.1465606689453 C 129.72537231445312 253.3833465576172 142.13882446289062 229.4898681640625 133.07469177246094 289.8474426269531 C 33.89092254638672 300.876708984375 -7.327388286590576 300.572998046875 -30.981016159057617 214.09613037109375 C 13.03739070892334 177.4239959716797 46.45286560058594 168.29412841796875 93.99908447265625 137.00994873046875 C 84.96082305908203 198.50033569335938 105.56538391113281 189.1085205078125 151.33419799804688 202.1465606689453" stroke-width="0.0" fill="rgb(13, 128, 79)" opacity="0.9721777" stroke="rgb(0, 0, 0)" stroke-opacity="1.0" stroke-linecap="round" stroke-linejoin="round"/>
    <path d="M 94.46710968017578 117.03936767578125 C 19.672000885009766 96.06021118164062 25.658201217651367 154.46517944335938 92.77793884277344 258.6907653808594 C 154.86172485351562 194.05079650878906 147.5757293701172 108.58145904541016 125.67403411865234 117.58692169189453 C 87.8647232055664 100.1546630859375 130.25628662109375 122.4744873046875 101.96251678466797 107.44892120361328 C 69.57246398925781 126.02812957763672 104.03400421142578 162.08233642578125 94.46710968017578 117.03936767578125" stroke-width="0.0" fill="rgb(34, 0, 122)" opacity="1.0" stroke="rgb(0, 0, 0)" stroke-opacity="1.0" stroke-linecap="round" stroke-linejoin="round"/>
    <path d="M 292.81414794921875 227.532958984375 C 274.61895751953125 241.94248962402344 286.35589599609375 221.1602325439453 279.4263000488281 246.24681091308594 C 297.5516052246094 224.46014404296875 217.0204315185547 254.54554748535156 251.76963806152344 231.7777099609375 C 144.3641357421875 208.7411346435547 213.69239807128906 207.6105194091797 338.5280456542969 209.97669982910156 C 250.3692169189453 244.4114227294922 267.85076904296875 235.98284912109375 292.81414794921875 227.532958984375" stroke-width="0.0" fill="rgb(158, 0, 118)" opacity="0.19462812" stroke="rgb(0, 0, 0)" stroke-opacity="1.0" stroke-linecap="round" stroke-linejoin="round"/>
    <path d="M 256.44122314453125 349.7942199707031 C 241.0211181640625 335.4838562011719 361.2021179199219 455.9893493652344 368.91729736328125 386.15972900390625 C 269.4176330566406 330.20562744140625 250.05296325683594 331.53900146484375 224.6280975341797 347.5577697753906 C 271.3684387207031 290.89410400390625 262.18499755859375 359.02459716796875 281.7116394042969 348.473388671875 C 274.9876708984375 360.2386779785156 249.3260498046875 339.9933166503906 256.44122314453125 349.7942199707031" stroke-width="0.0" fill="rgb(99, 75, 170)" opacity="0.7782726" stroke="rgb(0, 0, 0)" stroke-opacity="1.0" stroke-linecap="round" stroke-linejoin="round"/>
    <path d="M 38.119407653808594 542.241943359375 C 17.63055419921875 520.297607421875 10.367242813110352 526.9745483398438 0.9059716463088989 531.2067260742188 C -9.364206314086914 527.7437133789062 -16.68471336364746 520.4232177734375 -36.79364776611328 497.6621398925781 C -39.02676010131836 483.13641357421875 -40.231388092041016 465.0539245605469 6.1175689697265625 425.56689453125 C 60.91596603393555 424.5954895019531 36.464237213134766 467.8070068359375 38.119407653808594 542.241943359375" stroke-width="0.0" fill="rgb(133, 232, 49)" opacity="1.0" stroke="rgb(0, 0, 0)" stroke-opacity="1.0" stroke-linecap="round" stroke-linejoin="round"/>
    <path d="M 362.5264892578125 299.2982482910156 C 345.5509338378906 328.28643798828125 355.77264404296875 316.37957763671875 424.0556640625 317.9185485839844 C 283.12725830078125 297.5476989746094 233.95248413085938 306.0097351074219 367.81890869140625 325.8240661621094 C 372.4228210449219 300.662109375 368.782470703125 353.0057678222656 380.8462829589844 302.13482666015625 C 324.28485107421875 287.4291687011719 304.9628601074219 301.3040771484375 362.5264892578125 299.2982482910156" stroke-width="0.0" fill="rgb(254, 238, 115)" opacity="0.36653695" stroke="rgb(0, 0, 0)" stroke-opacity="1.0" stroke-linecap="round" stroke-linejoin="round"/>
    <path d="M 326.3199768066406 426.5682067871094 C 297.0468444824219 439.1434326171875 288.4919128417969 431.02020263671875 324.5450134277344 422.9381103515625 C 317.7884521484375 455.1507873535156 309.440673828125 427.0126647949219 210.7231903076172 451.4566955566406 C 156.76060485839844 381.00439453125 129.71435546875 369.6187744140625 247.84410095214844 401.84124755859375 C 371.365966796875 405.9910888671875 338.4363708496094 388.02496337890625 326.3199768066406 426.5682067871094" stroke-width="0.0" fill="rgb(0, 15, 34)" opacity="0.99951077" stroke="rgb(0, 0, 0)" stroke-opacity="1.0" stroke-linecap="round" stroke-linejoin="round"/>
    <path d="M 319.46160888671875 482.5335693359375 C 323.04278564453125 490.06756591796875 325.9863586425781 522.4348754882812 316.6212463378906 526.56494140625 C 287.5201416015625 509.9837951660156 269.30328369140625 490.80023193359375 274.4568176269531 469.76263427734375 C 297.7586669921875 478.4739074707031 288.2808532714844 428.39886474609375 292.0806579589844 487.0301818847656 C 283.8712158203125 478.38232421875 295.5575866699219 482.0895690917969 319.46160888671875 482.5335693359375" stroke-width="0.0" fill="rgb(108, 255, 60)" opacity="0.45551637" stroke="rgb(0, 0, 0)" stroke-opacity="1.0" stroke-linecap="round" stroke-linejoin="round"/>
    <path d="M 307.8392028808594 142.9335479736328 C 271.9949951171875 162.34591674804688 271.7403259277344 158.5647430419922 283.806884765625 183.62745666503906 C 286.7270202636719 196.2040557861328 277.0031433105469 181.580322265625 275.4044494628906 156.18826293945312 C 284.65594482421875 165.1968536376953 288.54083251953125 159.7475128173828 285.0902099609375 118.01048278808594 C 303.9748229980469 95.49126434326172 354.60247802734375 109.1588363647461 307.8392028808594 142.9335479736328" stroke-width="0.0" fill="rgb(255, 97, 241)" opacity="0.5289099" stroke="rgb(0, 0, 0)" stroke-opacity="1.0" stroke-linecap="round" stroke-linejoin="round"/>
    <path d="M 360.6179504394531 237.8968048095703 C 344.2635192871094 248.24375915527344 333.7445068359375 254.3120880126953 328.1592102050781 245.85496520996094 C 316.3274841308594 243.9935760498047 327.450439453125 220.81512451171875 338.9761962890625 219.3106689453125 C 365.68389892578125 237.28285217285156 355.5599670410156 230.06858825683594 328.2046813964844 247.08175659179688 C 356.8050842285156 224.31414794921875 364.4530029296875 209.16085815429688 360.6179504394531 237.8968048095703" stroke-width="0.0" fill="rgb(157, 49, 175)" opacity="0.0" stroke="rgb(0, 0, 0)" stroke-opacity="1.0" stroke-linecap="round" stroke-linejoin="round"/>
    <path d="M 287.47381591796875 400.9183654785156 C 289.1614685058594 386.3813171386719 280.9701232910156 409.4089050292969 273.5022277832031 395.9970703125 C 304.8937683105469 416.6945495605469 309.634033203125 410.4953918457031 291.8180847167969 407.3715515136719 C 285.3691101074219 401.66461181640625 284.9488830566406 413.2144775390625 296.853271484375 417.2488098144531 C 291.11468505859375 398.81573486328125 286.4590148925781 413.3227844238281 287.47381591796875 400.9183654785156" stroke-width="0.0" fill="rgb(0, 36, 66)" opacity="0.16725479" stroke="rgb(0, 0, 0)" stroke-opacity="1.0" stroke-linecap="round" stroke-linejoin="round"/>
    <path d="M 173.72988891601562 48.30271530151367 C 183.6372833251953 68.36292266845703 184.0894775390625 58.88532638549805 141.83811950683594 63.12307357788086 C 98.29724884033203 89.82966613769531 60.62965774536133 110.57752227783203 53.29609298706055 101.40591430664062 C 84.04463195800781 15.065068244934082 75.4515151977539 38.104000091552734 126.75523376464844 32.4283447265625 C 165.49765014648438 22.385793685913086 168.93479919433594 23.75785255432129 173.72988891601562 48.30271530151367" stroke-width="0.0" fill="rgb(136, 255, 106)" opacity="0.9695274" stroke="rgb(0, 0, 0)" stroke-opacity="1.0" stroke-linecap="round" stroke-linejoin="round"/>
    <path d="M 100.80287170410156 359.0116882324219 C 107.1589584350586 356.0920104980469 117.92195129394531 359.8120422363281 115.0441665649414 353.17626953125 C 105.46482849121094 332.1771545410156 88.67643737792969 320.48419189453125 121.14605712890625 328.7628173828125 C 132.752685546875 369.765625 146.30508422851562 370.05487060546875 124.6830062866211 342.28466796875 C 135.92222595214844 331.8143615722656 135.08319091796875 344.362060546875 100.80287170410156 359.0116882324219" stroke-width="0.0" fill="rgb(73, 69, 207)" opacity="0.30304337" stroke="rgb(0, 0, 0)" stroke-opacity="1.0" stroke-linecap="round" stroke-linejoin="round"/>
    <path d="M 89.27200317382812 122.35182189941406 C 76.33045959472656 187.92982482910156 84.5450668334961 170.06285095214844 93.92567443847656 170.01014709472656 C 65.9261703491211 154.96644592285156 86.7216796875 146.92140197753906 78.23369598388672 157.34446716308594 C 84.22496032714844 130.19012451171875 73.90001678466797 118.1579818725586 92.63429260253906 101.40971374511719 C 109.02268981933594 115.98329162597656 94.15081024169922 116.8240737915039 89.27200317382812 122.35182189941406" stroke-width="0.0" fill="rgb(35, 0, 122)" opacity="0.12402497" stroke="rgb(0, 0, 0)" stroke-opacity="1.0" stroke-linecap="round" stroke-linejoin="round"/>
    <path d="M 399.75567626953125 326.52978515625 C 399.849365234375 314.03045654296875 410.2496337890625 288.10382080078125 400.2248840332031 299.6099548339844 C 405.3875427246094 307.58306884765625 370.2789001464844 313.1020812988281 378.65972900390625 323.474365234375 C 379.5505065917969 306.83203125 386.66302490234375 303.3056640625 414.69451904296875 308.4795837402344 C 376.7572326660156 308.1143493652344 383.0174255371094 318.5887756347656 399.75567626953125 326.52978515625" stroke-width="0.0" fill="rgb(199, 246, 72)" opacity="0.3293359" stroke="rgb(0, 0, 0)" stroke-opacity="1.0" stroke-linecap="round" stroke-linejoin="round"/>
    <path d="M 284.1173400878906 431.4787292480469 C 294.2162780761719 446.4024963378906 306.02105712890625 438.22979736328125 282.9661865234375 476.1746520996094 C 260.2945251464844 459.2401123046875 278.7931213378906 467.2306823730469 277.44610595703125 415.5903625488281 C 264.19757080078125 406.7539978027344 247.28900146484375 392.2768859863281 273.9969787597656 394.8102111816406 C 303.5495910644531 384.9244079589844 287.4444274902344 374.32769775390625 284.1173400878906 431.4787292480469" stroke-width="0.0" fill="rgb(142, 174, 68)" opacity="0.020250365" stroke="rgb(0, 0, 0)" stroke-opacity="1.0" stroke-linecap="round" stroke-linejoin="round"/>
    <path d="M 269.2876892089844 242.69471740722656 C 269.72662353515625 296.3780822753906 252.47335815429688 302.84326171875 219.85252380371094 284.756103515625 C 201.8254852294922 300.49151611328125 194.00254821777344 308.61181640625 206.56959533691406 306.0618896484375 C 207.89453125 256.7759094238281 233.5677947998047 248.89540100097656 218.11209106445312 228.45896911621094 C 229.596923828125 230.68678283691406 274.2894592285156 217.5032958984375 269.2876892089844 242.69471740722656" stroke-width="0.0" fill="rgb(51, 79, 234)" opacity="0.0021293126" stroke="rgb(0, 0, 0)" stroke-opacity="1.0" stroke-linecap="round" stroke-linejoin="round"/>
    <path d="M 172.51214599609375 344.0477294921875 C 159.10223388671875 369.3844909667969 120.486083984375 365.6250305175781 140.4176025390625 395.8719177246094 C 165.54547119140625 377.0966796875 165.90452575683594 360.910888671875 124.15155792236328 361.96368408203125 C 79.06211853027344 355.7900695800781 112.72439575195312 345.29522705078125 160.37315368652344 318.4365539550781 C 182.85145568847656 298.8633117675781 194.6039581298828 323.7768249511719 172.51214599609375 344.0477294921875" stroke-width="0.0" fill="rgb(62, 107, 168)" opacity="0.9559043" stroke="rgb(0, 0, 0)" stroke-opacity="1.0" stroke-linecap="round" stroke-linejoin="round"/>
    <path d="M 201.96237182617188 -10.391203880310059 C 206.618896484375 -8.409612655639648 175.54647827148438 -2.663447141647339 127.31625366210938 -0.17897313833236694 C 120.08492279052734 22.134559631347656 150.08071899414062 -2.8345532417297363 128.93777465820312 4.105325698852539 C 168.2580108642578 16.89143180847168 153.29319763183594 2.086230516433716 184.5835418701172 -4.131155014038086 C 176.31341552734375 37.01286697387695 192.27232360839844 2.501758098602295 201.96237182617188 -10.391203880310059" stroke-width="0.0" fill="rgb(103, 255, 104)" opacity="0.09096459" stroke="rgb(0, 0, 0)" stroke-opacity="1.0" stroke-linecap="round" stroke-linejoin="round"/>
    <path d="M 268.1900939941406 281.89739990234375 C 324.564208984375 291.85015869140625 310.056884765625 325.0950012207031 275.3489990234375 361.2850036621094 C 220.40867614746094 358.3802795410156 200.96316528320312 317.01751708984375 222.6842498779297 283.5000915527344 C 248.86407470703125 274.93048095703125 262.51611328125 288.3133850097656 249.30992126464844 312.0459289550781 C 231.3629608154297 293.7221984863281 229.58338928222656 283.76397705078125 268.1900939941406 281.89739990234375" stroke-width="0.0" fill="rgb(0, 0, 14)" opacity="1.0" stroke="rgb(0, 0, 0)" stroke-opacity="1.0" stroke-linecap="round" stroke-linejoin="round"/>
    <path d="M 72.62447357177734 133.98898315429688 C 87.25557708740234 161.1270751953125 73.45231628417969 164.00062561035156 49.32414245605469 172.08680725097656 C 34.35500717163086 161.85134887695312 21.512012481689453 146.34161376953125 36.249114990234375 133.45785522460938 C 25.74508285522461 125.8044662475586 37.13797378540039 122.14302062988281 55.234127044677734 119.27169799804688 C 71.36595916748047 115.6944580078125 91.83153533935547 109.91889953613281 72.62447357177734 133.98898315429688" stroke-width="0.0" fill="rgb(71, 112, 194)" opacity="0.0" stroke="rgb(0, 0, 0)" stroke-opacity="1.0" stroke-linecap="round" stroke-linejoin="round"/>
    <path d="M 536.4872436523438 28.578142166137695 C 519.0883178710938 105.09810638427734 515.6771240234375 105.79411315917969 514.5624389648438 54.65386962890625 C 480.72186279296875 56.07866287231445 494.06201171875 38.80263900756836 474.5815124511719 42.418243408203125 C 479.73565673828125 8.559993743896484 475.5217590332031 2.708015203475952 514.9345703125 -12.210318565368652 C 516.4561157226562 36.86391830444336 518.060791015625 23.800071716308594 536.4872436523438 28.578142166137695" stroke-width="0.0" fill="rgb(158, 236, 139)" opacity="0.09813624" stroke="rgb(0, 0, 0)" stroke-opacity="1.0" stroke-linecap="round" stroke-linejoin="round"/>
    <path d="M 300.7208557128906 281.0003356933594 C 289.3913879394531 290.4664611816406 282.92376708984375 302.7306823730469 280.1795654296875 304.9936218261719 C 238.66636657714844 302.8299255371094 238.22068786621094 295.5123291015625 254.4717559814453 285.4719543457031 C 270.1707458496094 255.6172637939453 261.53448486328125 274.6204528808594 281.1527404785156 281.7527160644531 C 299.6322937011719 282.7446594238281 294.4658508300781 292.4387512207031 300.7208557128906 281.0003356933594" stroke-width="0.0" fill="rgb(178, 64, 83)" opacity="0.0" stroke="rgb(0, 0, 0)" stroke-opacity="1.0" stroke-linecap="round" stroke-linejoin="round"/>
    <path d="M 299.7843933105469 220.7454071044922 C 318.2854919433594 246.7318115234375 307.6990051269531 247.31784057617188 275.20660400390625 238.8483428955078 C 252.8895263671875 227.35728454589844 251.6031494140625 226.22103881835938 264.76910400390625 220.496826171875 C 259.8143005371094 243.311279296875 284.5157470703125 213.75384521484375 259.3802185058594 225.6821746826172 C 274.4893493652344 223.65174865722656 299.2003173828125 222.2620391845703 299.7843933105469 220.7454071044922" stroke-width="0.0" fill="rgb(54, 0, 217)" opacity="0.64901024" stroke="rgb(0, 0, 0)" stroke-opacity="1.0" stroke-linecap="round" stroke-linejoin="round"/>
    <path d="M 61.65773010253906 302.2402038574219 C 34.23789978027344 325.4642333984375 17.623992919921875 324.4620361328125 12.95640754699707 353.15911865234375 C 30.9718017578125 365.34771728515625 13.441332817077637 349.2022399902344 12.13242244720459 317.94476318359375 C 21.668615341186523 321.7780456542969 29.45233726501465 304.0941162109375 47.784542083740234 301.92926025390625 C 78.368896484375 286.3164978027344 90.98298645019531 291.9786071777344 61.65773010253906 302.2402038574219" stroke-width="0.0" fill="rgb(12, 157, 67)" opacity="0.6860636" stroke="rgb(0, 0, 0)" stroke-opacity="1.0" stroke-linecap="round" stroke-linejoin="round"/>
    <path d="M 181.0487823486328 437.703125 C 217.72535705566406 474.5402526855469 209.90274047851562 476.8642272949219 195.16311645507812 492.14306640625 C 211.29425048828125 468.1042175292969 237.54229736328125 469.983154296875 197.49899291992188 447.92681884765625 C 164.48670959472656 406.8902282714844 184.25296020507812 405.2186279296875 214.43856811523438 394.6322326660156 C 221.13172912597656 425.39093017578125 202.77435302734375 417.69561767578125 181.0487823486328 437.703125" stroke-width="0.0" fill="rgb(101, 111, 160)" opacity="0.0" stroke="rgb(0, 0, 0)" stroke-opacity="1.0" stroke-linecap="round" stroke-linejoin="round"/>
    <path d="M 33.394474029541016 330.6556396484375 C 17.742015838623047 345.39434814453125 5.703327655792236 361.7605285644531 7.674712181091309 402.1600646972656 C -22.899072647094727 412.79852294921875 -40.58517074584961 411.0354919433594 -31.13388442993164 365.3045959472656 C -18.213003158569336 330.73602294921875 -8.855874061584473 323.3519592285156 29.07855796813965 299.97930908203125 C 54.217002868652344 313.8016357421875 39.669273376464844 314.8207092285156 33.394474029541016 330.6556396484375" stroke-width="0.0" fill="rgb(186, 253, 30)" opacity="0.98841894" stroke="rgb(0, 0, 0)" stroke-opacity="1.0" stroke-linecap="round" stroke-linejoin="round"/>
    <path d="M 207.6790008544922 396.829833984375 C 176.02613830566406 439.455810546875 192.7401123046875 476.2034606933594 179.22866821289062 475.1995849609375 C 208.22048950195312 447.1348876953125 189.43112182617188 434.830322265625 155.43809509277344 440.9538879394531 C 155.9707794189453 455.2777404785156 186.650146484375 444.6552734375 183.2764129638672 431.6263732910156 C 188.60549926757812 450.1325378417969 207.94522094726562 412.6033935546875 207.6790008544922 396.829833984375" stroke-width="0.0" fill="rgb(88, 56, 142)" opacity="0.0" stroke="rgb(0, 0, 0)" stroke-opacity="1.0" stroke-linecap="round" stroke-linejoin="round"/>
    <path d="M 411.56396484375 242.0306396484375 C 387.2371826171875 266.19757080078125 363.0210876464844 250.25152587890625 364.8430480957031 253.91014099121094 C 360.8113098144531 226.15078735351562 345.6451416015625 202.23074340820312 356.56671142578125 202.55950927734375 C 324.34674072265625 203.60137939453125 311.030029296875 178.4527130126953 345.1845703125 164.03350830078125 C 386.5708923339844 191.3929901123047 404.1380615234375 195.54441833496094 411.56396484375 242.0306396484375" stroke-width="0.0" fill="rgb(255, 255, 34)" opacity="0.9893039" stroke="rgb(0, 0, 0)" stroke-opacity="1.0" stroke-linecap="round" stroke-linejoin="round"/>
    <path d="M 205.5579833984375 260.4592590332031 C 211.83084106445312 310.85382080078125 209.9620819091797 310.589111328125 163.79356384277344 297.21319580078125 C 156.09078979492188 279.8341369628906 175.677001953125 270.6058044433594 173.9261474609375 221.65878295898438 C 170.6053924560547 235.8535919189453 167.93942260742188 246.6200714111328 186.28781127929688 242.4236602783203 C 179.21453857421875 234.00308227539062 193.76025390625 237.28204345703125 205.5579833984375 260.4592590332031" stroke-width="0.0" fill="rgb(96, 85, 221)" opacity="0.0068814605" stroke="rgb(0, 0, 0)" stroke-opacity="1.0" stroke-linecap="round" stroke-linejoin="round"/>
    <path d="M 252.9585418701172 242.90560913085938 C 250.16390991210938 245.56842041015625 258.2890625 255.39422607421875 248.05860900878906 276.9981384277344 C 251.39259338378906 285.0023193359375 262.11138916015625 270.8447265625 248.0849151611328 212.46580505371094 C 225.1881866455078 239.36090087890625 232.52146911621094 260.8886413574219 244.83847045898438 266.5440368652344 C 266.872314453125 245.84283447265625 252.56747436523438 240.08840942382812 252.9585418701172 242.90560913085938" stroke-width="0.0" fill="rgb(255, 206, 105)" opacity="0.25061542" stroke="rgb(0, 0, 0)" stroke-opacity="1.0" stroke-linecap="round" stroke-linejoin="round"/>
    <path d="M 129.15341186523438 366.81878662109375 C 168.99374389648438 375.60284423828125 170.88174438476562 387.48065185546875 192.72669982910156 378.7592468261719 C 163.71324157714844 358.5429992675781 141.84523010253906 358.3924255371094 146.70066833496094 338.2334289550781 C 142.906982421875 340.1806640625 146.97132873535156 351.79034423828125 157.46951293945312 347.39288330078125 C 155.16873168945312 349.1410827636719 149.21633911132812 360.25 129.15341186523438 366.81878662109375" stroke-width="0.0" fill="rgb(122, 149, 206)" opacity="0.00040141455" stroke="rgb(0, 0, 0)" stroke-opacity="1.0" stroke-linecap="round" stroke-linejoin="round"/>
    <path d="M 447.2550048828125 463.54046630859375 C 439.8774108886719 439.49560546875 437.3835144042969 449.6380615234375 444.0359802246094 467.86444091796875 C 447.1756591796875 467.37066650390625 426.6798400878906 462.6228332519531 425.658447265625 454.1405334472656 C 445.18316650390625 475.4228820800781 454.7486267089844 476.6996154785156 451.5032653808594 460.6317138671875 C 428.3011779785156 462.0956115722656 450.807373046875 482.3396301269531 447.2550048828125 463.54046630859375" stroke-width="0.0" fill="rgb(174, 243, 51)" opacity="0.0" stroke="rgb(0, 0, 0)" stroke-opacity="1.0" stroke-linecap="round" stroke-linejoin="round"/>
    <path d="M 486.077880859375 375.8258972167969 C 442.26483154296875 384.3249816894531 469.8218078613281 398.7040100097656 452.18450927734375 387.980712890625 C 428.1596984863281 406.9450988769531 438.0616149902344 370.7402038574219 431.561279296875 376.6257019042969 C 423.4712219238281 374.6774597167969 447.5222473144531 369.1145324707031 437.65277099609375 364.32659912109375 C 434.055419921875 325.3318786621094 481.638427734375 309.84307861328125 486.077880859375 375.8258972167969" stroke-width="0.0" fill="rgb(157, 253, 125)" opacity="0.35873744" stroke="rgb(0, 0, 0)" stroke-opacity="1.0" stroke-linecap="round" stroke-linejoin="round"/>
    <path d="M 36.56536102294922 121.05365753173828 C 48.742218017578125 145.68801879882812 44.641021728515625 152.64694213867188 33.15974807739258 154.92018127441406 C 23.942033767700195 76.38847351074219 13.471726417541504 78.35031127929688 -50.17072296142578 126.1481704711914 C -3.6417572498321533 182.58782958984375 24.223791122436523 184.26490783691406 29.43107032775879 160.98602294921875 C 41.035064697265625 86.3078842163086 24.13614273071289 91.27456665039062 36.56536102294922 121.05365753173828" stroke-width="0.0" fill="rgb(191, 255, 38)" opacity="0.04491618" stroke="rgb(0, 0, 0)" stroke-opacity="1.0" stroke-linecap="round" stroke-linejoin="round"/>
    <path d="M 376.0933837890625 118.34687042236328 C 401.54833984375 106.96702575683594 386.47662353515625 144.80783081054688 376.9826965332031 112.47804260253906 C 367.6973876953125 100.46844482421875 374.1603698730469 93.23336029052734 371.5220947265625 70.44425201416016 C 389.5909118652344 69.20466613769531 378.9366760253906 82.6654052734375 370.4801940917969 69.86593627929688 C 386.699951171875 101.07125854492188 378.3877258300781 134.78981018066406 376.0933837890625 118.34687042236328" stroke-width="0.0" fill="rgb(220, 101, 99)" opacity="0.06518784" stroke="rgb(0, 0, 0)" stroke-opacity="1.0" stroke-linecap="round" stroke-linejoin="round"/>
    <path d="M 20.49690818786621 483.4471130371094 C 61.52091598510742 492.3119201660156 62.90705490112305 487.4345703125 28.62313461303711 484.01190185546875 C 31.77959442138672 487.7100524902344 35.39776611328125 464.20867919921875 8.643808364868164 472.5196228027344 C 14.421700477600098 459.6155700683594 27.63984489440918 455.62255859375 23.568681716918945 464.80194091796875 C 2.4223062992095947 487.2091064453125 11.643617630004883 493.6944885253906 20.49690818786621 483.4471130371094" stroke-width="0.0" fill="rgb(103, 133, 143)" opacity="0.012860848" stroke="rgb(0, 0, 0)" stroke-opacity="1.0" stroke-linecap="round" stroke-linejoin="round"/>
    <path d="M 151.32366943359375 224.04652404785156 C 145.1630096435547 253.72457885742188 132.09295654296875 250.72872924804688 156.2463836669922 239.92404174804688 C 140.0057830810547 249.19161987304688 130.95333862304688 247.49560546875 140.783935546875 248.73631286621094 C 145.30906677246094 259.1775207519531 138.85464477539062 225.66758728027344 160.78909301757812 200.766357421875 C 157.39048767089844 219.24729919433594 142.5312957763672 205.1234588623047 151.32366943359375 224.04652404785156" stroke-width="0.0" fill="rgb(73, 100, 158)" opacity="0.0024429157" stroke="rgb(0, 0, 0)" stroke-opacity="1.0" stroke-linecap="round" stroke-linejoin="round"/>
    <path d="M 313.8210144042969 -12.632381439208984 C 323.5535888671875 41.40940475463867 330.3192443847656 51.482261657714844 303.99420166015625 54.16911697387695 C 265.9582214355469 59.28546142578125 243.38206481933594 68.89923858642578 244.71060180664062 -5.48416805267334 C 238.52476501464844 -15.917831420898438 251.61862182617188 0.9082633852958679 356.9968566894531 -7.131886005401611 C 316.1717529296875 -31.136751174926758 305.0478210449219 6.609580993652344 313.8210144042969 -12.632381439208984" stroke-width="0.0" fill="rgb(124, 255, 144)" opacity="0.10129184" stroke="rgb(0, 0, 0)" stroke-opacity="1.0" stroke-linecap="round" stroke-linejoin="round"/>
    <path d="M 541.9003295898438 244.2263946533203 C 538.0304565429688 296.22900390625 533.9135131835938 311.135986328125 520.3164672851562 309.64251708984375 C 517.76953125 242.50233459472656 522.9906616210938 252.1766357421875 522.89208984375 295.50836181640625 C 519.4478149414062 286.7557067871094 523.6360473632812 245.4717254638672 517.51025390625 176.44842529296875 C 554.2705688476562 200.58432006835938 554.688232421875 210.4741973876953 541.9003295898438 244.2263946533203" stroke-width="0.0" fill="rgb(184, 214, 125)" opacity="0.20229779" stroke="rgb(0, 0, 0)" stroke-opacity="1.0" stroke-linecap="round" stroke-linejoin="round"/>
    <path d="M 183.2637939453125 167.72348022460938 C 147.12347412109375 175.90977478027344 156.90562438964844 186.59878540039062 138.3305206298828 201.97891235351562 C 126.23323822021484 189.5188446044922 130.8434295654297 183.8664093017578 129.60179138183594 181.04568481445312 C 129.9463348388672 169.98348999023438 132.53944396972656 177.13511657714844 141.6214599609375 119.23934936523438 C 134.6332244873047 89.30924224853516 173.30380249023438 115.8590316772461 183.2637939453125 167.72348022460938" stroke-width="0.0" fill="rgb(255, 178, 0)" opacity="0.9698935" stroke="rgb(0, 0, 0)" stroke-opacity="1.0" stroke-linecap="round" stroke-linejoin="round"/>
  </g>
</svg>
