<?xml version="1.0" ?>
<svg xmlns="http://www.w3.org/2000/svg" version="1.1" width="512" height="512">
  <defs/>
  <g>
    <path d="M 568.9608154296875 447.3238830566406 C 547.4852905273438 516.6414794921875 548.3889770507812 525.1383666992188 377.0605163574219 565.4008178710938 C 310.1715087890625 588.1737060546875 282.2987365722656 578.2854614257812 254.60726928710938 477.8232727050781 C 276.11724853515625 302.40716552734375 338.5777893066406 304.7912292480469 473.5263977050781 304.9823913574219 C 586.5974731445312 308.03472900390625 606.8875122070312 331.7309265136719 568.9608154296875 447.3238830566406" stroke-width="0.0" fill="rgb(17, 125, 147)" opacity="0.97541815" stroke="rgb(0, 0, 0)" stroke-opacity="1.0" stroke-linecap="round" stroke-linejoin="round"/>
    <path d="M 310.1315612792969 425.7278137207031 C 316.209716796875 494.55584716796875 299.19317626953125 514.4400024414062 243.70968627929688 532.2305297851562 C -51.20000076293945 519.230712890625 -51.20000076293945 511.73809814453125 -40.839210510253906 480.687744140625 C -14.352317810058594 216.13302612304688 -5.787087440490723 217.99380493164062 31.608915328979492 222.19778442382812 C 222.17196655273438 272.9108581542969 260.5558776855469 216.95204162597656 310.1315612792969 425.7278137207031" stroke-width="0.0" fill="rgb(85, 168, 151)" opacity="0.6467302" stroke="rgb(0, 0, 0)" stroke-opacity="1.0" stroke-linecap="round" stroke-linejoin="round"/>
    <path d="M 271.3390808105469 334.323486328125 C 406.9259338378906 318.3616638183594 221.5917510986328 419.1404113769531 248.7579803466797 372.50140380859375 C 115.8060073852539 443.61566162109375 19.928911209106445 339.81072998046875 77.22338104248047 187.25393676757812 C 64.55559539794922 182.37403869628906 49.14061737060547 175.69949340820312 126.359619140625 177.8498077392578 C 207.5795440673828 233.17759704589844 274.14837646484375 134.5928955078125 271.3390808105469 334.323486328125" stroke-width="0.0" fill="rgb(0, 58, 124)" opacity="0.6854563" stroke="rgb(0, 0, 0)" stroke-opacity="1.0" stroke-linecap="round" stroke-linejoin="round"/>
    <path d="M 213.1458282470703 -28.200292587280273 C 196.96812438964844 166.5712890625 182.08755493164062 150.6805419921875 45.345333099365234 251.93177795410156 C -36.774166107177734 258.95465087890625 -31.609704971313477 229.53549194335938 -14.124505043029785 134.30323791503906 C -6.477959156036377 -27.40838623046875 -0.5933233499526978 -31.0440616607666 33.18217468261719 -18.14454460144043 C 196.82273864746094 -23.394615173339844 224.5518341064453 -36.593833923339844 213.1458282470703 -28.200292587280273" stroke-width="0.0" fill="rgb(51, 175, 144)" opacity="0.7818075" stroke="rgb(0, 0, 0)" stroke-opacity="1.0" stroke-linecap="round" stroke-linejoin="round"/>
    <path d="M 511.6767272949219 86.3624038696289 C 423.396728515625 291.5087890625 422.9728088378906 391.5632629394531 380.4148254394531 318.7015686035156 C 384.47711181640625 217.0213165283203 118.57421112060547 332.5118103027344 246.8454132080078 235.24012756347656 C 279.3512878417969 103.92539978027344 244.94268798828125 28.957759857177734 358.95257568359375 -46.80189895629883 C 586.2490844726562 -3.79965877532959 618.1637573242188 45.48783874511719 511.6767272949219 86.3624038696289" stroke-width="0.0" fill="rgb(145, 127, 138)" opacity="0.9715446" stroke="rgb(0, 0, 0)" stroke-opacity="1.0" stroke-linecap="round" stroke-linejoin="round"/>
    <path d="M 276.7668151855469 157.47857666015625 C 206.33889770507812 299.64117431640625 302.4106140136719 255.16128540039062 157.50534057617188 274.61114501953125 C 178.4228973388672 171.50982666015625 134.17515563964844 177.97877502441406 64.03302764892578 220.24468994140625 C 142.8512725830078 138.44284057617188 114.7059555053711 63.872657775878906 340.1734619140625 -6.203496932983398 C 326.8003845214844 -2.2136435508728027 258.6707763671875 -25.0506649017334 276.7668151855469 157.47857666015625" stroke-width="0.0" fill="rgb(170, 131, 120)" opacity="0.97896117" stroke="rgb(0, 0, 0)" stroke-opacity="1.0" stroke-linecap="round" stroke-linejoin="round"/>
    <path d="M 454.2850036621094 311.42236328125 C 438.6615295410156 437.4140319824219 467.12957763671875 456.7843017578125 233.63833618164062 446.6487121582031 C 74.86109924316406 414.58306884765625 56.038726806640625 418.7129821777344 311.8599853515625 422.5484924316406 C 228.472900390625 283.7256774902344 303.4236755371094 209.45196533203125 310.375732421875 209.61251831054688 C 474.1213073730469 214.4687957763672 469.7526550292969 226.3925018310547 454.2850036621094 311.42236328125" stroke-width="0.0" fill="rgb(29, 115, 255)" opacity="0.7795433" stroke="rgb(0, 0, 0)" stroke-opacity="1.0" stroke-linecap="round" stroke-linejoin="round"/>
    <path d="M 543.3750610351562 182.13099670410156 C 549.4368286132812 319.87677001953125 550.8947143554688 335.8880920410156 458.1351013183594 427.3755187988281 C 398.6421813964844 375.4521789550781 435.7688293457031 317.4928283691406 369.0284729003906 261.5510559082031 C 365.9035949707031 106.95329284667969 333.6309814453125 47.49082946777344 490.32525634765625 28.636756896972656 C 569.734130859375 41.65151596069336 585.0267944335938 65.87966918945312 543.3750610351562 182.13099670410156" stroke-width="0.0" fill="rgb(32, 179, 169)" opacity="0.95923835" stroke="rgb(0, 0, 0)" stroke-opacity="1.0" stroke-linecap="round" stroke-linejoin="round"/>
    <path d="M 361.2773742675781 107.26153564453125 C 356.19354248046875 124.49232482910156 371.8980712890625 244.39334106445312 364.0138854980469 397.2896728515625 C 389.25323486328125 131.71466064453125 113.5842514038086 291.6917724609375 216.89089965820312 207.18911743164062 C 255.1051788330078 219.51499938964844 335.70294189453125 195.4365997314453 371.66375732421875 221.82566833496094 C 386.2325744628906 69.84013366699219 365.72564697265625 85.55028533935547 361.2773742675781 107.26153564453125" stroke-width="0.0" fill="rgb(52, 73, 118)" opacity="0.8597212" stroke="rgb(0, 0, 0)" stroke-opacity="1.0" stroke-linecap="round" stroke-linejoin="round"/>
    <path d="M 243.34213256835938 258.48736572265625 C 258.4374084472656 259.8706359863281 218.28640747070312 306.1460876464844 228.55679321289062 270.9829406738281 C 256.04278564453125 305.91693115234375 210.98110961914062 293.83563232421875 191.35411071777344 285.1595458984375 C 199.2300567626953 202.60105895996094 216.6887664794922 199.87237548828125 193.3868865966797 249.70449829101562 C 241.9056854248047 260.6134948730469 217.33868408203125 206.11790466308594 243.34213256835938 258.48736572265625" stroke-width="0.0" fill="rgb(92, 84, 87)" opacity="0.5071011" stroke="rgb(0, 0, 0)" stroke-opacity="1.0" stroke-linecap="round" stroke-linejoin="round"/>
    <path d="M 357.8046875 274.1647644042969 C 375.07659912109375 273.08123779296875 402.9676818847656 263.40203857421875 420.0655212402344 363.8349609375 C 348.5969543457031 348.0884094238281 339.9554443359375 364.4324035644531 334.9076232910156 355.1471862792969 C 367.872314453125 195.99960327148438 409.39105224609375 217.02154541015625 380.7827453613281 172.88157653808594 C 398.540283203125 251.51670837402344 370.7055969238281 242.5948486328125 357.8046875 274.1647644042969" stroke-width="0.0" fill="rgb(18, 167, 248)" opacity="0.62706965" stroke="rgb(0, 0, 0)" stroke-opacity="1.0" stroke-linecap="round" stroke-linejoin="round"/>
    <path d="M 382.1172790527344 98.40674591064453 C 262.12890625 98.95985412597656 266.8541564941406 102.83329010009766 155.4385986328125 113.28974151611328 C 139.83460998535156 147.84774780273438 159.6473846435547 70.2622299194336 130.84445190429688 147.32662963867188 C 120.43077087402344 25.276704788208008 145.3714141845703 9.358674049377441 214.90577697753906 -30.073577880859375 C 361.7225646972656 -42.20344161987305 382.3414001464844 -10.181114196777344 382.1172790527344 98.40674591064453" stroke-width="0.0" fill="rgb(39, 185, 175)" opacity="1.0" stroke="rgb(0, 0, 0)" stroke-opacity="1.0" stroke-linecap="round" stroke-linejoin="round"/>
    <path d="M 367.93438720703125 423.9355773925781 C 99.08690643310547 376.0299377441406 365.3406677246094 411.40667724609375 108.77535247802734 410.1991882324219 C 112.49280548095703 324.78643798828125 67.91632843017578 367.86834716796875 367.07208251953125 346.5476989746094 C 186.33770751953125 337.7054443359375 -60.80831527709961 354.9993591308594 -35.671329498291016 307.66864013671875 C 99.59393310546875 375.5174865722656 500.97528076171875 291.95855712890625 367.93438720703125 423.9355773925781" stroke-width="0.0" fill="rgb(232, 227, 196)" opacity="0.99579877" stroke="rgb(0, 0, 0)" stroke-opacity="1.0" stroke-linecap="round" stroke-linejoin="round"/>
    <path d="M 529.973876953125 37.52355194091797 C 506.3990478515625 44.647674560546875 472.0380859375 44.14531326293945 461.5224609375 39.0867919921875 C 479.027587890625 43.07685852050781 453.183837890625 45.984256744384766 394.3697509765625 71.98768615722656 C 393.51617431640625 6.408897876739502 394.95513916015625 -18.30533790588379 451.5590515136719 -19.285734176635742 C 540.9146118164062 -10.191633224487305 536.6610717773438 3.261720895767212 529.973876953125 37.52355194091797" stroke-width="0.0" fill="rgb(36, 210, 170)" opacity="0.9707805" stroke="rgb(0, 0, 0)" stroke-opacity="1.0" stroke-linecap="round" stroke-linejoin="round"/>
    <path d="M 468.698974609375 427.6122741699219 C 454.05328369140625 433.99932861328125 451.1676025390625 433.4150695800781 409.2818908691406 448.78955078125 C 408.97650146484375 458.60906982421875 387.1562805175781 460.9400634765625 354.96539306640625 415.0132751464844 C 361.82611083984375 340.88568115234375 399.36346435546875 319.3740539550781 444.8530578613281 357.91943359375 C 443.6886901855469 409.8565673828125 477.24761962890625 400.20892333984375 468.698974609375 427.6122741699219" stroke-width="0.0" fill="rgb(99, 174, 178)" opacity="0.9862702" stroke="rgb(0, 0, 0)" stroke-opacity="1.0" stroke-linecap="round" stroke-linejoin="round"/>
    <path d="M 340.8587646484375 415.74835205078125 C 334.2483825683594 413.4721374511719 329.6946105957031 471.73651123046875 271.5863342285156 568.4071044921875 C 103.34587097167969 575.7108154296875 89.24820709228516 558.7064208984375 111.3546142578125 383.12945556640625 C 289.5469665527344 396.4723815917969 317.1260070800781 403.0540771484375 300.7234191894531 413.1151123046875 C 273.8476867675781 405.25860595703125 284.0649719238281 399.823486328125 340.8587646484375 415.74835205078125" stroke-width="0.0" fill="rgb(65, 80, 216)" opacity="0.9834081" stroke="rgb(0, 0, 0)" stroke-opacity="1.0" stroke-linecap="round" stroke-linejoin="round"/>
    <path d="M 447.47021484375 430.3249816894531 C 411.7807312011719 477.2310791015625 387.12091064453125 465.0218811035156 366.7449951171875 456.25042724609375 C 342.8728942871094 458.5445861816406 302.986328125 505.56329345703125 277.7035217285156 438.0388488769531 C 282.9891662597656 394.01153564453125 287.6305847167969 415.10760498046875 351.1680603027344 450.264892578125 C 437.2283630371094 428.08673095703125 425.1622009277344 358.3173828125 447.47021484375 430.3249816894531" stroke-width="0.0" fill="rgb(69, 145, 209)" opacity="0.994283" stroke="rgb(0, 0, 0)" stroke-opacity="1.0" stroke-linecap="round" stroke-linejoin="round"/>
    <path d="M 51.02162551879883 408.8068542480469 C 61.39641189575195 491.067138671875 107.56092834472656 496.8911437988281 20.590349197387695 456.5267028808594 C -17.778114318847656 372.5727844238281 15.221540451049805 385.7763366699219 32.38479232788086 400.9974060058594 C 52.0185432434082 369.44415283203125 39.63075256347656 372.48748779296875 48.559967041015625 391.0871887207031 C 66.01971435546875 414.3108825683594 34.03741455078125 385.28900146484375 51.02162551879883 408.8068542480469" stroke-width="0.0" fill="rgb(164, 133, 255)" opacity="0.52051806" stroke="rgb(0, 0, 0)" stroke-opacity="1.0" stroke-linecap="round" stroke-linejoin="round"/>
    <path d="M 347.0118713378906 149.06361389160156 C 363.8964538574219 132.73033142089844 416.3420104980469 129.89120483398438 303.0428466796875 130.94464111328125 C 366.5396423339844 127.76372528076172 386.2127990722656 140.10543823242188 370.03472900390625 119.78631591796875 C 146.56924438476562 124.42025756835938 99.54244995117188 127.24256896972656 167.84756469726562 106.3594741821289 C 394.31591796875 113.16777038574219 320.7576904296875 116.30996704101562 347.0118713378906 149.06361389160156" stroke-width="0.0" fill="rgb(82, 43, 93)" opacity="0.5609518" stroke="rgb(0, 0, 0)" stroke-opacity="1.0" stroke-linecap="round" stroke-linejoin="round"/>
    <path d="M 370.23663330078125 228.74549865722656 C 336.1420593261719 206.8875274658203 345.7508239746094 158.51812744140625 352.739013671875 306.26702880859375 C 323.7232666015625 96.04271697998047 395.2647705078125 213.7299041748047 203.20352172851562 206.29708862304688 C 215.3473358154297 228.77297973632812 461.5804748535156 223.49676513671875 368.1224060058594 219.31719970703125 C 385.21624755859375 175.368896484375 399.2475280761719 211.60403442382812 370.23663330078125 228.74549865722656" stroke-width="0.0" fill="rgb(119, 136, 168)" opacity="0.048519734" stroke="rgb(0, 0, 0)" stroke-opacity="1.0" stroke-linecap="round" stroke-linejoin="round"/>
    <path d="M 137.96173095703125 308.0780944824219 C 190.12063598632812 372.1639099121094 126.65432739257812 301.34307861328125 148.12770080566406 412.67559814453125 C 12.944129943847656 477.9330749511719 -52.177757263183594 468.7035827636719 -43.14751052856445 312.0859069824219 C -6.228353977203369 202.59368896484375 32.56792068481445 205.1771240234375 145.00628662109375 106.20203399658203 C 136.0775604248047 155.92669677734375 134.97671508789062 241.12643432617188 137.96173095703125 308.0780944824219" stroke-width="0.0" fill="rgb(41, 98, 208)" opacity="0.98127526" stroke="rgb(0, 0, 0)" stroke-opacity="1.0" stroke-linecap="round" stroke-linejoin="round"/>
    <path d="M 131.83670043945312 535.03466796875 C 123.9425277709961 521.8115844726562 111.82440948486328 523.4666748046875 82.45381164550781 528.7291870117188 C 54.39879608154297 543.0384521484375 21.41959571838379 559.034423828125 -27.719533920288086 494.127685546875 C 23.304868698120117 434.6332092285156 28.31318473815918 411.43988037109375 74.37965393066406 401.307861328125 C 147.66786193847656 426.0482482910156 143.04736328125 492.3018493652344 131.83670043945312 535.03466796875" stroke-width="0.0" fill="rgb(101, 39, 251)" opacity="0.9980779" stroke="rgb(0, 0, 0)" stroke-opacity="1.0" stroke-linecap="round" stroke-linejoin="round"/>
    <path d="M 232.09695434570312 142.0543212890625 C 290.6258544921875 227.07473754882812 251.2035369873047 61.656036376953125 289.2562255859375 148.148193359375 C 255.77267456054688 182.54293823242188 205.79808044433594 152.829345703125 245.0721893310547 125.31806945800781 C 246.74185180664062 217.69078063964844 316.39361572265625 123.75411987304688 232.83114624023438 136.5697784423828 C 313.0044250488281 72.184814453125 304.3730773925781 211.23068237304688 232.09695434570312 142.0543212890625" stroke-width="0.0" fill="rgb(245, 114, 112)" opacity="0.096239895" stroke="rgb(0, 0, 0)" stroke-opacity="1.0" stroke-linecap="round" stroke-linejoin="round"/>
    <path d="M 309.81658935546875 268.8702392578125 C 263.5059509277344 259.1948547363281 215.330810546875 287.09368896484375 243.18740844726562 260.8485412597656 C 262.8964538574219 251.43658447265625 261.1943054199219 272.739501953125 267.2113342285156 267.37493896484375 C 271.6919250488281 197.06533813476562 290.292724609375 219.63815307617188 312.7952575683594 207.01759338378906 C 337.9400329589844 207.63665771484375 335.03631591796875 187.7935028076172 309.81658935546875 268.8702392578125" stroke-width="0.0" fill="rgb(195, 154, 148)" opacity="0.6091179" stroke="rgb(0, 0, 0)" stroke-opacity="1.0" stroke-linecap="round" stroke-linejoin="round"/>
    <path d="M 283.5666809082031 143.1231689453125 C 215.94821166992188 116.25340270996094 261.3852233886719 131.62086486816406 223.90501403808594 146.39552307128906 C 236.2234649658203 142.88197326660156 104.08415985107422 144.69972229003906 146.7119598388672 130.063720703125 C 210.99476623535156 121.30751037597656 225.36492919921875 119.4791488647461 222.21311950683594 141.91200256347656 C 241.7754364013672 135.12681579589844 210.61048889160156 116.00234985351562 283.5666809082031 143.1231689453125" stroke-width="0.0" fill="rgb(232, 92, 86)" opacity="0.26011607" stroke="rgb(0, 0, 0)" stroke-opacity="1.0" stroke-linecap="round" stroke-linejoin="round"/>
    <path d="M 363.31317138671875 360.3333435058594 C 340.8250427246094 310.2274475097656 297.0933532714844 328.9861145019531 297.7454833984375 349.19110107421875 C 315.84039306640625 350.2340087890625 257.5126953125 349.66064453125 125.54495239257812 351.81280517578125 C 167.2286834716797 324.5628662109375 163.53199768066406 332.98876953125 331.6954040527344 329.0384826660156 C 270.5967712402344 341.59320068359375 333.4564208984375 303.4488525390625 363.31317138671875 360.3333435058594" stroke-width="0.0" fill="rgb(211, 211, 201)" opacity="0.98706454" stroke="rgb(0, 0, 0)" stroke-opacity="1.0" stroke-linecap="round" stroke-linejoin="round"/>
    <path d="M 55.10089874267578 531.9212646484375 C 30.760190963745117 533.237060546875 12.10596752166748 529.2991333007812 0.7132576107978821 530.5223388671875 C -9.364206314086914 527.7437133789062 -16.68471336364746 520.4232177734375 -52.22071838378906 473.1684265136719 C -50.38198471069336 462.7559509277344 -55.01845932006836 446.3872985839844 9.234118461608887 410.7379455566406 C 79.96499633789062 415.22503662109375 67.16133880615234 447.4147033691406 55.10089874267578 531.9212646484375" stroke-width="0.0" fill="rgb(127, 41, 241)" opacity="0.9929633" stroke="rgb(0, 0, 0)" stroke-opacity="1.0" stroke-linecap="round" stroke-linejoin="round"/>
    <path d="M 169.98439025878906 197.88095092773438 C 292.5449523925781 215.1466064453125 330.77764892578125 223.01229858398438 120.0047836303711 224.41317749023438 C 117.43955993652344 183.17222595214844 120.42035675048828 142.1592559814453 123.71208953857422 167.86727905273438 C 119.29643249511719 170.2740478515625 123.89285278320312 116.82189178466797 131.9231414794922 111.65185546875 C 135.89134216308594 123.56627655029297 153.1607666015625 159.49989318847656 169.98439025878906 197.88095092773438" stroke-width="0.0" fill="rgb(180, 143, 49)" opacity="0.5830602" stroke="rgb(0, 0, 0)" stroke-opacity="1.0" stroke-linecap="round" stroke-linejoin="round"/>
    <path d="M 183.77821350097656 105.39927673339844 C 161.1665496826172 113.2093734741211 166.25741577148438 100.44171905517578 148.2542266845703 124.62095642089844 C 101.38345336914062 122.76830291748047 116.99496459960938 80.77117919921875 159.48497009277344 90.69889831542969 C 163.26983642578125 84.66995239257812 184.13121032714844 102.4945297241211 168.15577697753906 113.29850006103516 C 176.94163513183594 100.61015319824219 177.52536010742188 121.0554428100586 183.77821350097656 105.39927673339844" stroke-width="0.0" fill="rgb(121, 95, 93)" opacity="0.3766299" stroke="rgb(0, 0, 0)" stroke-opacity="1.0" stroke-linecap="round" stroke-linejoin="round"/>
    <path d="M 434.9219665527344 119.18936920166016 C 411.4034729003906 139.33395385742188 425.4803466796875 134.73556518554688 411.6343994140625 135.4772491455078 C 385.1490478515625 117.25707244873047 388.0297546386719 116.26809692382812 354.7085876464844 86.20193481445312 C 343.57452392578125 64.42591857910156 293.584228515625 24.479190826416016 354.6638488769531 -61.292598724365234 C 482.02099609375 17.533788681030273 465.7854309082031 68.13865661621094 434.9219665527344 119.18936920166016" stroke-width="0.0" fill="rgb(38, 199, 174)" opacity="0.9689221" stroke="rgb(0, 0, 0)" stroke-opacity="1.0" stroke-linecap="round" stroke-linejoin="round"/>
    <path d="M 352.9428405761719 230.9149627685547 C 368.6732482910156 249.2548065185547 354.0025939941406 248.06900024414062 352.8888854980469 259.4743347167969 C 308.4261169433594 258.7876892089844 352.6852111816406 257.7642822265625 344.3360595703125 240.24917602539062 C 316.0408020019531 237.86856079101562 332.1189880371094 223.98971557617188 350.5330810546875 212.3156280517578 C 358.42437744140625 234.74826049804688 363.6465148925781 222.22335815429688 352.9428405761719 230.9149627685547" stroke-width="0.0" fill="rgb(222, 241, 89)" opacity="0.99297416" stroke="rgb(0, 0, 0)" stroke-opacity="1.0" stroke-linecap="round" stroke-linejoin="round"/>
    <path d="M 253.327880859375 277.3830871582031 C 233.46726989746094 295.2699279785156 195.49742126464844 336.2984924316406 209.5861053466797 324.0116271972656 C 194.6819305419922 274.6486511230469 169.94354248046875 269.4798889160156 141.27761840820312 274.446533203125 C 140.34384155273438 242.86119079589844 141.45323181152344 259.0841064453125 211.34075927734375 254.55096435546875 C 191.42025756835938 276.7016906738281 213.9806365966797 269.0632019042969 253.327880859375 277.3830871582031" stroke-width="0.0" fill="rgb(125, 157, 207)" opacity="0.5489213" stroke="rgb(0, 0, 0)" stroke-opacity="1.0" stroke-linecap="round" stroke-linejoin="round"/>
    <path d="M 197.5832977294922 426.9715270996094 C 190.43299865722656 409.607421875 182.19883728027344 432.5743408203125 174.75283813476562 437.79510498046875 C 148.75892639160156 441.88482666015625 121.9366455078125 440.6641845703125 140.9064483642578 408.3218994140625 C 134.41624450683594 418.7188415527344 169.82614135742188 402.1199035644531 198.13671875 414.7493896484375 C 189.10903930664062 430.4917297363281 192.8402862548828 427.564453125 197.5832977294922 426.9715270996094" stroke-width="0.0" fill="rgb(235, 82, 140)" opacity="0.58263755" stroke="rgb(0, 0, 0)" stroke-opacity="1.0" stroke-linecap="round" stroke-linejoin="round"/>
    <path d="M 433.6919250488281 398.64520263671875 C 415.0505676269531 391.82489013671875 405.3301696777344 398.492431640625 413.1424865722656 429.03826904296875 C 366.3585205078125 432.0328063964844 368.8039245605469 425.2193908691406 366.12432861328125 399.1801452636719 C 376.8271484375 317.4798278808594 364.5207214355469 350.4695739746094 416.1078796386719 381.37579345703125 C 406.4655456542969 389.6340026855469 412.7664489746094 411.3460998535156 433.6919250488281 398.64520263671875" stroke-width="0.0" fill="rgb(8, 170, 201)" opacity="0.9867566" stroke="rgb(0, 0, 0)" stroke-opacity="1.0" stroke-linecap="round" stroke-linejoin="round"/>
    <path d="M 288.55426025390625 144.67669677734375 C 275.0096740722656 177.89739990234375 261.5304870605469 176.57778930664062 270.2099609375 164.95346069335938 C 257.0368347167969 144.59603881835938 245.13758850097656 118.42326354980469 239.9629669189453 121.81000518798828 C 222.7768096923828 134.82412719726562 255.16122436523438 120.98104858398438 269.77178955078125 114.9094009399414 C 269.80059814453125 101.12260437011719 291.0267028808594 121.84407806396484 288.55426025390625 144.67669677734375" stroke-width="0.0" fill="rgb(182, 136, 121)" opacity="0.7807027" stroke="rgb(0, 0, 0)" stroke-opacity="1.0" stroke-linecap="round" stroke-linejoin="round"/>
    <path d="M 233.17892456054688 276.6164855957031 C 279.3031005859375 269.02801513671875 276.41845703125 279.8231506347656 272.9413757324219 341.3675537109375 C 251.9263153076172 344.25579833984375 201.77899169921875 342.93255615234375 235.34930419921875 334.0389404296875 C 236.61907958984375 289.0908203125 230.03955078125 282.7682189941406 236.80667114257812 295.68707275390625 C 238.41732788085938 291.4797058105469 227.42227172851562 293.6545715332031 233.17892456054688 276.6164855957031" stroke-width="0.0" fill="rgb(245, 254, 209)" opacity="0.97199106" stroke="rgb(0, 0, 0)" stroke-opacity="1.0" stroke-linecap="round" stroke-linejoin="round"/>
    <path d="M 203.04209899902344 352.52557373046875 C 159.71749877929688 360.1650085449219 157.5324249267578 376.7738037109375 147.4634552001953 368.31610107421875 C 117.95903015136719 372.8515319824219 110.87471771240234 382.8664855957031 108.63168334960938 363.0255432128906 C 117.06429290771484 331.7911376953125 138.09201049804688 328.2043151855469 129.5850372314453 346.8059997558594 C 152.12249755859375 360.010986328125 156.54600524902344 370.5312194824219 203.04209899902344 352.52557373046875" stroke-width="0.0" fill="rgb(207, 63, 228)" opacity="0.06824776" stroke="rgb(0, 0, 0)" stroke-opacity="1.0" stroke-linecap="round" stroke-linejoin="round"/>
    <path d="M 178.0956268310547 299.4449768066406 C 244.44383239746094 303.057861328125 221.62928771972656 295.4388732910156 166.83633422851562 266.1472473144531 C 128.04547119140625 277.3396911621094 154.97555541992188 267.2591857910156 184.72438049316406 267.2138977050781 C 201.934326171875 279.5100402832031 214.11814880371094 269.4801330566406 200.53485107421875 261.6173400878906 C 193.51002502441406 252.5689239501953 178.10568237304688 262.0077209472656 178.0956268310547 299.4449768066406" stroke-width="0.0" fill="rgb(0, 65, 178)" opacity="0.38633588" stroke="rgb(0, 0, 0)" stroke-opacity="1.0" stroke-linecap="round" stroke-linejoin="round"/>
    <path d="M 289.7700500488281 276.96514892578125 C 271.73211669921875 250.2849578857422 274.2763671875 250.53253173828125 270.18463134765625 274.7125244140625 C 264.9433288574219 280.9891052246094 254.0746612548828 284.40380859375 265.5709228515625 266.18011474609375 C 252.14332580566406 213.6986083984375 250.2479705810547 227.16207885742188 273.80133056640625 244.10858154296875 C 291.30389404296875 209.32815551757812 282.37310791015625 214.79827880859375 289.7700500488281 276.96514892578125" stroke-width="0.0" fill="rgb(135, 158, 193)" opacity="0.82254195" stroke="rgb(0, 0, 0)" stroke-opacity="1.0" stroke-linecap="round" stroke-linejoin="round"/>
    <path d="M 216.06503295898438 332.2549743652344 C 215.00267028808594 361.5807189941406 207.8007049560547 378.564453125 200.92770385742188 340.4697265625 C 182.03152465820312 345.26324462890625 187.35189819335938 344.0821228027344 182.53564453125 375.10211181640625 C 151.97816467285156 352.8732604980469 130.2955780029297 338.8530578613281 167.0493621826172 355.1853942871094 C 173.14114379882812 337.09210205078125 195.97926330566406 330.4986267089844 216.06503295898438 332.2549743652344" stroke-width="0.0" fill="rgb(109, 97, 154)" opacity="0.0" stroke="rgb(0, 0, 0)" stroke-opacity="1.0" stroke-linecap="round" stroke-linejoin="round"/>
    <path d="M 90.51326751708984 422.6690368652344 C 81.8420181274414 462.94561767578125 79.29729461669922 475.7578430175781 66.23975372314453 461.87322998046875 C 53.14426040649414 464.0953369140625 52.92755889892578 460.1938171386719 79.82479858398438 442.6968078613281 C 40.79801559448242 444.23907470703125 42.74478530883789 454.1567687988281 56.5888786315918 430.50909423828125 C 59.16016387939453 426.6705627441406 96.87723541259766 424.7192077636719 90.51326751708984 422.6690368652344" stroke-width="0.0" fill="rgb(52, 95, 209)" opacity="0.06348985" stroke="rgb(0, 0, 0)" stroke-opacity="1.0" stroke-linecap="round" stroke-linejoin="round"/>
    <path d="M 461.0384216308594 464.0501708984375 C 441.2460632324219 447.41748046875 426.9083557128906 417.44903564453125 384.3258056640625 415.7039794921875 C 391.95440673828125 472.1401672363281 392.05908203125 454.7047424316406 431.8274841308594 438.968994140625 C 435.5119323730469 439.85894775390625 423.18975830078125 428.4895324707031 437.3824157714844 436.3315124511719 C 449.7340393066406 461.8115234375 444.0993957519531 464.2757873535156 461.0384216308594 464.0501708984375" stroke-width="0.0" fill="rgb(90, 116, 151)" opacity="0.0" stroke="rgb(0, 0, 0)" stroke-opacity="1.0" stroke-linecap="round" stroke-linejoin="round"/>
    <path d="M 443.0736389160156 389.78204345703125 C 418.949951171875 403.50360107421875 451.6899108886719 400.1069030761719 448.47027587890625 379.27569580078125 C 432.1876220703125 383.0453796386719 422.8984069824219 356.5326843261719 419.9273376464844 381.82623291015625 C 418.84063720703125 347.69427490234375 419.033935546875 354.8960266113281 441.5394287109375 367.8009948730469 C 453.4554138183594 371.37255859375 457.5484313964844 371.5892639160156 443.0736389160156 389.78204345703125" stroke-width="0.0" fill="rgb(71, 137, 42)" opacity="0.35356116" stroke="rgb(0, 0, 0)" stroke-opacity="1.0" stroke-linecap="round" stroke-linejoin="round"/>
    <path d="M 71.84562683105469 446.61822509765625 C 65.76463317871094 480.172119140625 42.842586517333984 476.8525390625 33.57753372192383 474.8673095703125 C 33.92473602294922 488.0494079589844 27.50480079650879 462.8957824707031 23.94256591796875 460.71380615234375 C 31.53276252746582 462.21685791015625 52.85194396972656 434.57843017578125 22.575441360473633 437.4736022949219 C 39.11115646362305 464.29315185546875 58.95657730102539 460.9754943847656 71.84562683105469 446.61822509765625" stroke-width="0.0" fill="rgb(121, 38, 255)" opacity="0.0" stroke="rgb(0, 0, 0)" stroke-opacity="1.0" stroke-linecap="round" stroke-linejoin="round"/>
    <path d="M 137.39706420898438 225.44512939453125 C 175.80825805664062 250.99459838867188 159.06687927246094 250.01904296875 121.54212188720703 280.22845458984375 C 127.90047454833984 295.8389892578125 117.74510192871094 285.1877746582031 119.86550903320312 204.43722534179688 C 123.32630920410156 218.72494506835938 150.1717071533203 228.93106079101562 144.79776000976562 217.32252502441406 C 145.12945556640625 226.14602661132812 176.74024963378906 228.07562255859375 137.39706420898438 225.44512939453125" stroke-width="0.0" fill="rgb(255, 135, 39)" opacity="0.53794366" stroke="rgb(0, 0, 0)" stroke-opacity="1.0" stroke-linecap="round" stroke-linejoin="round"/>
    <path d="M 461.5541076660156 206.1410675048828 C 460.6752624511719 231.33436584472656 448.2943420410156 245.4205780029297 462.1849060058594 246.68594360351562 C 458.4681091308594 249.70938110351562 462.5096130371094 268.5223083496094 461.587158203125 246.54457092285156 C 422.5166931152344 219.49191284179688 424.4869384765625 213.47486877441406 459.4603576660156 232.65525817871094 C 439.2234191894531 193.1367950439453 460.88262939453125 216.00831604003906 461.5541076660156 206.1410675048828" stroke-width="0.0" fill="rgb(57, 181, 105)" opacity="0.06514769" stroke="rgb(0, 0, 0)" stroke-opacity="1.0" stroke-linecap="round" stroke-linejoin="round"/>
    <path d="M 384.01409912109375 200.01242065429688 C 385.87518310546875 217.75193786621094 385.44140625 217.15757751464844 387.16680908203125 213.4635467529297 C 370.6736755371094 203.08363342285156 354.7394104003906 190.4970703125 384.4860534667969 195.24285888671875 C 364.93499755859375 180.07736206054688 346.98193359375 172.07713317871094 392.5328674316406 184.6353302001953 C 379.41241455078125 204.9048614501953 364.4252014160156 206.94537353515625 384.01409912109375 200.01242065429688" stroke-width="0.0" fill="rgb(108, 182, 234)" opacity="0.0" stroke="rgb(0, 0, 0)" stroke-opacity="1.0" stroke-linecap="round" stroke-linejoin="round"/>
    <path d="M 112.24532318115234 461.4344482421875 C 91.72474670410156 480.0222473144531 87.71434020996094 463.6523132324219 65.5201644897461 458.5891418457031 C 69.8196792602539 463.9123229980469 75.12550354003906 457.8605651855469 67.89244842529297 418.7991943359375 C 50.369873046875 430.58331298828125 67.72357177734375 422.6598815917969 90.79107666015625 436.9139099121094 C 107.48867797851562 444.159423828125 105.52490234375 457.9049072265625 112.24532318115234 461.4344482421875" stroke-width="0.0" fill="rgb(85, 78, 225)" opacity="0.008410152" stroke="rgb(0, 0, 0)" stroke-opacity="1.0" stroke-linecap="round" stroke-linejoin="round"/>
    <path d="M 465.0012512207031 52.991661071777344 C 479.0994873046875 53.042972564697266 452.0010986328125 68.3109359741211 441.97796630859375 58.49408721923828 C 435.0915832519531 62.506935119628906 419.1484069824219 62.705448150634766 444.7838439941406 73.38005828857422 C 444.07989501953125 85.32765197753906 449.1630859375 61.52796173095703 440.379638671875 47.67664337158203 C 441.42999267578125 60.84894943237305 453.3670654296875 60.188819885253906 465.0012512207031 52.991661071777344" stroke-width="0.0" fill="rgb(67, 194, 154)" opacity="0.07542061" stroke="rgb(0, 0, 0)" stroke-opacity="1.0" stroke-linecap="round" stroke-linejoin="round"/>
    <path d="M 301.55548095703125 179.93910217285156 C 332.39117431640625 177.06959533691406 324.9215087890625 166.20643615722656 279.5800476074219 161.20481872558594 C 288.5300598144531 208.8733367919922 282.8064880371094 227.52117919921875 301.5335693359375 213.6241912841797 C 293.5567321777344 167.6482696533203 299.4448547363281 135.73361206054688 310.9873046875 149.43276977539062 C 286.139404296875 170.2552032470703 289.5871887207031 168.06329345703125 301.55548095703125 179.93910217285156" stroke-width="0.0" fill="rgb(167, 165, 89)" opacity="0.0" stroke="rgb(0, 0, 0)" stroke-opacity="1.0" stroke-linecap="round" stroke-linejoin="round"/>
    <path d="M 156.55398559570312 39.92643356323242 C 167.04412841796875 54.53620910644531 169.99072265625 51.922523498535156 133.62144470214844 66.25993347167969 C 113.38790893554688 68.51191711425781 115.80883026123047 59.7386589050293 135.21534729003906 70.37751770019531 C 145.13775634765625 53.293643951416016 131.93701171875 47.79380416870117 148.13156127929688 50.02752685546875 C 156.71824645996094 19.709678649902344 164.94105529785156 31.909923553466797 156.55398559570312 39.92643356323242" stroke-width="0.0" fill="rgb(78, 169, 218)" opacity="0.018613338" stroke="rgb(0, 0, 0)" stroke-opacity="1.0" stroke-linecap="round" stroke-linejoin="round"/>
    <path d="M 187.0084991455078 323.1714172363281 C 194.8605499267578 321.79400634765625 210.5533447265625 314.9801940917969 215.18505859375 356.5348815917969 C 206.09463500976562 341.19342041015625 190.91876220703125 344.68365478515625 126.08650207519531 324.665283203125 C 159.0382537841797 327.3209228515625 188.9829864501953 331.6543884277344 205.85707092285156 340.1427917480469 C 183.59323120117188 338.1858215332031 195.58151245117188 330.7597351074219 187.0084991455078 323.1714172363281" stroke-width="0.0" fill="rgb(147, 146, 204)" opacity="0.32221556" stroke="rgb(0, 0, 0)" stroke-opacity="1.0" stroke-linecap="round" stroke-linejoin="round"/>
    <path d="M 63.44309997558594 320.8148498535156 C 51.07598876953125 340.3270263671875 41.908782958984375 352.0616455078125 44.07207107543945 343.0577392578125 C 28.689088821411133 354.40802001953125 22.33466148376465 331.4584045410156 10.000505447387695 313.9626159667969 C 7.923387050628662 301.1126403808594 25.678316116333008 298.0909729003906 30.134721755981445 311.21142578125 C 40.037471771240234 296.1767272949219 68.86832427978516 307.729736328125 63.44309997558594 320.8148498535156" stroke-width="0.0" fill="rgb(91, 117, 215)" opacity="0.19271056" stroke="rgb(0, 0, 0)" stroke-opacity="1.0" stroke-linecap="round" stroke-linejoin="round"/>
    <path d="M 420.58807373046875 398.1705017089844 C 397.6946716308594 392.81158447265625 405.06109619140625 443.8482666015625 393.6289367675781 414.0776672363281 C 406.627197265625 419.663330078125 393.1517639160156 458.9693298339844 404.3296203613281 429.84637451171875 C 422.0978698730469 426.2965087890625 413.69610595703125 375.5614929199219 433.9591064453125 391.5493469238281 C 424.5008850097656 408.6160583496094 432.9410400390625 419.26910400390625 420.58807373046875 398.1705017089844" stroke-width="0.0" fill="rgb(89, 143, 152)" opacity="0.15547831" stroke="rgb(0, 0, 0)" stroke-opacity="1.0" stroke-linecap="round" stroke-linejoin="round"/>
    <path d="M 110.61174011230469 278.93609619140625 C 141.937255859375 296.3281555175781 151.81436157226562 303.8419494628906 134.5052947998047 314.11688232421875 C 119.8723373413086 303.9648742675781 125.58531951904297 242.91676330566406 136.40150451660156 302.0975036621094 C 121.39131164550781 259.6207275390625 128.74620056152344 186.31289672851562 126.96893310546875 226.37701416015625 C 109.04693603515625 279.1361083984375 123.41912841796875 292.1061706542969 110.61174011230469 278.93609619140625" stroke-width="0.0" fill="rgb(139, 117, 107)" opacity="0.13385646" stroke="rgb(0, 0, 0)" stroke-opacity="1.0" stroke-linecap="round" stroke-linejoin="round"/>
    <path d="M 147.7104034423828 430.51220703125 C 148.5813751220703 461.77142333984375 148.67176818847656 479.5944519042969 120.90690612792969 474.85577392578125 C 98.56202697753906 474.02447509765625 91.13346099853516 452.7054748535156 98.63760375976562 437.90966796875 C 99.5967025756836 442.378173828125 120.31045532226562 415.9866638183594 124.63065338134766 424.4504699707031 C 130.57156372070312 413.1166076660156 146.79995727539062 428.0837097167969 147.7104034423828 430.51220703125" stroke-width="0.0" fill="rgb(140, 55, 232)" opacity="0.9410979" stroke="rgb(0, 0, 0)" stroke-opacity="1.0" stroke-linecap="round" stroke-linejoin="round"/>
    <path d="M 271.2333068847656 24.872108459472656 C 264.4980773925781 43.0387077331543 265.3245849609375 57.05412292480469 254.31405639648438 48.78916931152344 C 234.595947265625 69.18911743164062 233.84361267089844 64.2989501953125 235.0538330078125 71.74409484863281 C 236.70062255859375 29.498933792114258 238.64784240722656 21.948209762573242 241.84347534179688 33.78331756591797 C 232.40509033203125 24.72066307067871 260.8201599121094 14.02532958984375 271.2333068847656 24.872108459472656" stroke-width="0.0" fill="rgb(83, 156, 136)" opacity="0.09967776" stroke="rgb(0, 0, 0)" stroke-opacity="1.0" stroke-linecap="round" stroke-linejoin="round"/>
    <path d="M 125.53006744384766 290.9341735839844 C 123.60356140136719 350.4478759765625 126.7557601928711 378.4306335449219 111.47221374511719 369.9178161621094 C 101.02777099609375 362.8683776855469 102.67747497558594 349.23486328125 99.65875244140625 349.0683288574219 C 108.76190948486328 335.830322265625 109.83799743652344 332.5347900390625 136.39199829101562 323.9176330566406 C 146.36839294433594 310.764404296875 151.06121826171875 300.52471923828125 125.53006744384766 290.9341735839844" stroke-width="0.0" fill="rgb(73, 67, 227)" opacity="0.008998688" stroke="rgb(0, 0, 0)" stroke-opacity="1.0" stroke-linecap="round" stroke-linejoin="round"/>
    <path d="M 524.9389038085938 208.67459106445312 C 528.9556884765625 229.53199768066406 521.33349609375 233.03359985351562 519.0602416992188 282.9159240722656 C 470.11016845703125 250.52532958984375 458.2491760253906 243.74887084960938 466.0746765136719 236.98631286621094 C 480.2015686035156 214.21881103515625 496.1829833984375 188.4786376953125 483.10546875 195.2198486328125 C 491.89910888671875 203.26910400390625 494.87554931640625 207.8448486328125 524.9389038085938 208.67459106445312" stroke-width="0.0" fill="rgb(12, 203, 168)" opacity="0.067547366" stroke="rgb(0, 0, 0)" stroke-opacity="1.0" stroke-linecap="round" stroke-linejoin="round"/>
    <path d="M 464.5685729980469 271.43902587890625 C 459.3957214355469 286.6507263183594 440.6727600097656 273.1031188964844 420.5903625488281 287.5254211425781 C 416.2130432128906 294.8635559082031 410.9860534667969 267.17474365234375 421.22735595703125 248.68499755859375 C 408.24090576171875 245.9500732421875 427.2969970703125 248.33645629882812 464.1085510253906 243.50830078125 C 452.01678466796875 239.66519165039062 474.7732238769531 241.44668579101562 464.5685729980469 271.43902587890625" stroke-width="0.0" fill="rgb(75, 160, 154)" opacity="0.055316288" stroke="rgb(0, 0, 0)" stroke-opacity="1.0" stroke-linecap="round" stroke-linejoin="round"/>
    <path d="M 510.5754089355469 69.39179229736328 C 495.01812744140625 81.9572982788086 498.1593017578125 97.85413360595703 466.92620849609375 82.6689682006836 C 465.63916015625 79.40438079833984 452.4312438964844 83.16499328613281 439.1874694824219 44.68783187866211 C 460.5344543457031 55.29152297973633 461.86566162109375 40.121639251708984 485.86749267578125 37.01358413696289 C 496.6967468261719 56.130985260009766 498.24847412109375 72.71873474121094 510.5754089355469 69.39179229736328" stroke-width="0.0" fill="rgb(43, 199, 122)" opacity="0.12015331" stroke="rgb(0, 0, 0)" stroke-opacity="1.0" stroke-linecap="round" stroke-linejoin="round"/>
    <path d="M 106.9813232421875 232.47996520996094 C 71.2039794921875 303.1852111816406 40.210411071777344 310.4118347167969 58.74056625366211 188.81735229492188 C 35.75957107543945 166.287841796875 -7.735538482666016 159.41763305664062 -20.607009887695312 204.53341674804688 C 7.805159091949463 196.59190368652344 26.679950714111328 182.8080291748047 54.679656982421875 157.1510009765625 C 67.4644546508789 156.23794555664062 82.35954284667969 155.65870666503906 106.9813232421875 232.47996520996094" stroke-width="0.0" fill="rgb(0, 163, 150)" opacity="0.021569308" stroke="rgb(0, 0, 0)" stroke-opacity="1.0" stroke-linecap="round" stroke-linejoin="round"/>
    <path d="M 136.7017822265625 348.5386962890625 C 144.53929138183594 348.75592041015625 133.08424377441406 367.7050476074219 113.2437744140625 369.1199951171875 C 99.47018432617188 345.9046630859375 93.81344604492188 341.8534851074219 103.44889068603516 330.4612121582031 C 102.07418060302734 330.93487548828125 100.82381439208984 324.1202392578125 110.5687255859375 337.4113464355469 C 135.5639190673828 345.1717834472656 146.29425048828125 350.62060546875 136.7017822265625 348.5386962890625" stroke-width="0.0" fill="rgb(108, 82, 224)" opacity="0.33439568" stroke="rgb(0, 0, 0)" stroke-opacity="1.0" stroke-linecap="round" stroke-linejoin="round"/>
    <path d="M 37.0622673034668 95.3551025390625 C 45.94535827636719 111.39501953125 42.52708435058594 116.59368133544922 32.03236770629883 97.9942626953125 C 21.92344093322754 112.39122772216797 24.114742279052734 93.7832260131836 7.287410736083984 102.59942626953125 C 6.376048564910889 92.72516632080078 45.412742614746094 96.61722564697266 44.42619705200195 78.33808898925781 C 40.906005859375 68.1319808959961 46.45641326904297 75.4253158569336 37.0622673034668 95.3551025390625" stroke-width="0.0" fill="rgb(62, 174, 216)" opacity="0.0020915007" stroke="rgb(0, 0, 0)" stroke-opacity="1.0" stroke-linecap="round" stroke-linejoin="round"/>
  </g>
</svg>
