<?xml version="1.0" ?>
<svg xmlns="http://www.w3.org/2000/svg" version="1.1" width="512" height="512">
  <defs/>
  <g>
    <path d="M 560.8778686523438 454.7105407714844 C 557.0104370117188 485.23138427734375 503.658447265625 529.3767700195312 438.0528259277344 544.71142578125 C 302.9490966796875 551.1171264648438 297.451416015625 539.0806274414062 214.04885864257812 416.7339172363281 C 325.2685852050781 404.8155212402344 417.9815368652344 409.3470153808594 523.1531372070312 359.2132873535156 C 562.2642822265625 332.8126525878906 563.1925048828125 352.7061767578125 560.8778686523438 454.7105407714844" stroke-width="0.0" fill="rgb(26, 170, 36)" opacity="0.8558055" stroke="rgb(0, 0, 0)" stroke-opacity="1.0" stroke-linecap="round" stroke-linejoin="round"/>
    <path d="M 227.34576416015625 400.8451232910156 C 264.4458312988281 449.7092590332031 355.2176208496094 398.4974365234375 227.01641845703125 563.7575073242188 C -41.479393005371094 563.2000122070312 -20.873289108276367 492.0749206542969 -72.04271697998047 359.3764343261719 C -80.97531127929688 184.3590545654297 -62.128807067871094 158.39512634277344 55.37424087524414 156.9234619140625 C 199.82554626464844 238.4969482421875 131.01959228515625 278.1076965332031 227.34576416015625 400.8451232910156" stroke-width="0.0" fill="rgb(156, 238, 16)" opacity="0.7953603" stroke="rgb(0, 0, 0)" stroke-opacity="1.0" stroke-linecap="round" stroke-linejoin="round"/>
    <path d="M 167.5862274169922 298.2008056640625 C 158.9021453857422 268.00927734375 147.63124084472656 280.6288146972656 147.29441833496094 343.9553527832031 C 36.810184478759766 327.1739501953125 -4.609445095062256 361.53729248046875 -26.679624557495117 192.64195251464844 C 3.330411434173584 144.91439819335938 14.942232131958008 136.31454467773438 164.79087829589844 182.85133361816406 C 161.1351318359375 316.260498046875 149.53350830078125 296.7966003417969 167.5862274169922 298.2008056640625" stroke-width="0.0" fill="rgb(173, 251, 53)" opacity="0.7530883" stroke="rgb(0, 0, 0)" stroke-opacity="1.0" stroke-linecap="round" stroke-linejoin="round"/>
    <path d="M 363.4986267089844 80.6122817993164 C 255.2154998779297 122.90155029296875 149.25550842285156 -3.4552993774414062 53.72264862060547 172.3367462158203 C -13.727523803710938 212.73544311523438 -32.29822540283203 184.92308044433594 -32.176448822021484 103.31385040283203 C -47.88467788696289 21.931718826293945 17.69887351989746 -22.734081268310547 66.63673400878906 -42.126258850097656 C 301.4384765625 -57.21454620361328 326.3974304199219 -58.12424850463867 363.4986267089844 80.6122817993164" stroke-width="0.0" fill="rgb(151, 239, 10)" opacity="0.780618" stroke="rgb(0, 0, 0)" stroke-opacity="1.0" stroke-linecap="round" stroke-linejoin="round"/>
    <path d="M 232.98338317871094 114.03922271728516 C 201.66058349609375 203.22576904296875 182.95541381835938 191.4063720703125 161.70411682128906 264.02264404296875 C 151.84780883789062 261.5137023925781 80.43598175048828 232.2958984375 20.755125045776367 180.53350830078125 C 30.369342803955078 103.64662170410156 215.1715850830078 -25.738561630249023 379.24383544921875 140.05984497070312 C 237.7679443359375 247.19056701660156 173.48934936523438 90.87532806396484 232.98338317871094 114.03922271728516" stroke-width="0.0" fill="rgb(154, 231, 58)" opacity="1.0" stroke="rgb(0, 0, 0)" stroke-opacity="1.0" stroke-linecap="round" stroke-linejoin="round"/>
    <path d="M 459.2131652832031 193.56427001953125 C 450.6844177246094 473.057373046875 389.4811706542969 455.462158203125 204.44200134277344 416.5732727050781 C 372.40289306640625 374.693359375 333.56854248046875 324.0328369140625 361.6478271484375 335.82281494140625 C 331.6122741699219 369.25738525390625 305.83807373046875 350.3953552246094 331.7178039550781 312.6311340332031 C 410.6037292480469 234.76797485351562 321.2193298339844 199.6295166015625 459.2131652832031 193.56427001953125" stroke-width="0.0" fill="rgb(55, 198, 31)" opacity="0.85966784" stroke="rgb(0, 0, 0)" stroke-opacity="1.0" stroke-linecap="round" stroke-linejoin="round"/>
    <path d="M 513.3571166992188 123.66941833496094 C 572.206298828125 379.4010925292969 579.0365600585938 393.036865234375 481.3359375 401.8804626464844 C 318.0044250488281 349.3317565917969 385.9664001464844 300.7827453613281 331.16943359375 213.18621826171875 C 288.37664794921875 104.46428680419922 258.8318176269531 136.55279541015625 321.3460693359375 -12.447242736816406 C 570.2763061523438 -29.164226531982422 527.299072265625 35.66586685180664 513.3571166992188 123.66941833496094" stroke-width="0.0" fill="rgb(95, 184, 62)" opacity="1.0" stroke="rgb(0, 0, 0)" stroke-opacity="1.0" stroke-linecap="round" stroke-linejoin="round"/>
    <path d="M 304.5255126953125 286.0293884277344 C 312.3537902832031 415.40087890625 355.0750732421875 229.64869689941406 277.5062255859375 552.7433471679688 C 231.0599365234375 353.24029541015625 208.59344482421875 396.450439453125 254.46031188964844 255.06019592285156 C 356.4961853027344 259.8575439453125 295.6041259765625 188.66485595703125 292.41455078125 167.70663452148438 C 283.8389587402344 259.7331237792969 326.00537109375 153.52056884765625 304.5255126953125 286.0293884277344" stroke-width="0.0" fill="rgb(56, 28, 76)" opacity="0.9448766" stroke="rgb(0, 0, 0)" stroke-opacity="1.0" stroke-linecap="round" stroke-linejoin="round"/>
    <path d="M 312.363037109375 248.57485961914062 C 166.57806396484375 313.2622375488281 228.95208740234375 194.8815155029297 196.9240264892578 554.5377197265625 C 188.14149475097656 197.07717895507812 197.12796020507812 289.830322265625 196.49505615234375 304.1515808105469 C 182.614501953125 216.028564453125 285.9775695800781 -26.272520065307617 203.5311737060547 284.96820068359375 C 259.9098815917969 302.8512878417969 226.11685180664062 16.71368408203125 312.363037109375 248.57485961914062" stroke-width="0.0" fill="rgb(58, 55, 54)" opacity="0.9123496" stroke="rgb(0, 0, 0)" stroke-opacity="1.0" stroke-linecap="round" stroke-linejoin="round"/>
    <path d="M 553.9028930664062 95.67724609375 C 505.1960754394531 101.26346588134766 513.3289794921875 94.18922424316406 479.02178955078125 101.4800033569336 C 468.5884094238281 97.81900024414062 454.69085693359375 93.8695297241211 361.65374755859375 -8.36090087890625 C 332.97003173828125 -27.315710067749023 389.4205627441406 -27.366893768310547 494.67218017578125 -35.921573638916016 C 524.1558227539062 -13.975769996643066 536.4097290039062 30.708364486694336 553.9028930664062 95.67724609375" stroke-width="0.0" fill="rgb(194, 254, 55)" opacity="0.9714379" stroke="rgb(0, 0, 0)" stroke-opacity="1.0" stroke-linecap="round" stroke-linejoin="round"/>
    <path d="M 244.8643341064453 399.12921142578125 C 262.1584167480469 430.868408203125 291.9062805175781 474.1147766113281 230.2913055419922 449.9560241699219 C 247.4513702392578 403.5228576660156 266.8568115234375 417.2245178222656 244.3512725830078 405.26141357421875 C 259.35272216796875 395.5005187988281 278.5480651855469 398.6957702636719 257.7231140136719 372.5794677734375 C 265.3690490722656 363.9331359863281 244.78778076171875 388.8100280761719 244.8643341064453 399.12921142578125" stroke-width="0.0" fill="rgb(234, 37, 1)" opacity="0.6898128" stroke="rgb(0, 0, 0)" stroke-opacity="1.0" stroke-linecap="round" stroke-linejoin="round"/>
    <path d="M 213.74560546875 264.7685241699219 C 251.459228515625 230.1996307373047 239.91427612304688 288.9783630371094 250.1382293701172 307.89215087890625 C 151.8404083251953 283.9181213378906 120.37415313720703 315.7752380371094 148.0032958984375 260.77947998046875 C 194.9663543701172 259.7390441894531 195.9003143310547 278.4769287109375 197.5357208251953 229.4384002685547 C 205.15098571777344 93.13684844970703 205.56117248535156 205.03428649902344 213.74560546875 264.7685241699219" stroke-width="0.0" fill="rgb(62, 60, 53)" opacity="0.99628717" stroke="rgb(0, 0, 0)" stroke-opacity="1.0" stroke-linecap="round" stroke-linejoin="round"/>
    <path d="M 479.199462890625 393.3561706542969 C 472.2671203613281 410.6158447265625 473.5235595703125 420.0009765625 460.34814453125 418.3799133300781 C 456.9103088378906 435.8352966308594 394.3308410644531 448.34442138671875 397.42803955078125 430.4655456542969 C 408.7283020019531 365.8162841796875 422.0021057128906 339.8072509765625 449.6023254394531 348.67205810546875 C 473.46063232421875 382.4232177734375 477.19720458984375 393.03594970703125 479.199462890625 393.3561706542969" stroke-width="0.0" fill="rgb(80, 190, 104)" opacity="0.9990643" stroke="rgb(0, 0, 0)" stroke-opacity="1.0" stroke-linecap="round" stroke-linejoin="round"/>
    <path d="M 319.7501220703125 395.3081970214844 C 291.8051452636719 407.25286865234375 246.13063049316406 396.6268310546875 246.01182556152344 386.7349548339844 C 261.7598571777344 411.30517578125 217.8511199951172 366.6816101074219 234.32301330566406 374.0098571777344 C 248.76104736328125 400.91888427734375 269.7362060546875 383.16461181640625 249.78701782226562 382.5042724609375 C 261.4980773925781 373.4834899902344 228.1572723388672 396.3214111328125 319.7501220703125 395.3081970214844" stroke-width="0.0" fill="rgb(83, 19, 21)" opacity="0.74168575" stroke="rgb(0, 0, 0)" stroke-opacity="1.0" stroke-linecap="round" stroke-linejoin="round"/>
    <path d="M 312.4231872558594 183.61935424804688 C 339.6737365722656 273.5555114746094 318.7574157714844 270.6215515136719 267.3872375488281 197.0874481201172 C 291.106201171875 165.24148559570312 233.3655548095703 158.74655151367188 240.4681396484375 216.77565002441406 C 272.0961608886719 180.6218719482422 289.9554443359375 182.85397338867188 307.911865234375 178.3852996826172 C 344.6396789550781 186.6334686279297 325.2721862792969 162.57223510742188 312.4231872558594 183.61935424804688" stroke-width="0.0" fill="rgb(253, 237, 236)" opacity="0.9999116" stroke="rgb(0, 0, 0)" stroke-opacity="1.0" stroke-linecap="round" stroke-linejoin="round"/>
    <path d="M 226.42652893066406 50.72500991821289 C 223.63291931152344 70.0435791015625 213.88966369628906 48.863914489746094 208.4790496826172 110.09210968017578 C 223.45193481445312 165.65196228027344 217.4142303466797 134.46072387695312 214.79852294921875 86.46083068847656 C 191.04144287109375 76.15030670166016 202.2539825439453 65.77660369873047 196.6061248779297 51.00145721435547 C 197.94534301757812 67.84832000732422 218.5411834716797 68.33502197265625 226.42652893066406 50.72500991821289" stroke-width="0.0" fill="rgb(81, 181, 41)" opacity="0.56457263" stroke="rgb(0, 0, 0)" stroke-opacity="1.0" stroke-linecap="round" stroke-linejoin="round"/>
    <path d="M 277.42218017578125 233.4593048095703 C 278.1406555175781 220.17010498046875 265.0213928222656 224.27920532226562 253.91180419921875 226.48858642578125 C 282.4822692871094 243.91162109375 273.5989990234375 289.6767272949219 253.62237548828125 255.6315460205078 C 256.50762939453125 217.60073852539062 244.4614715576172 147.67572021484375 247.6693878173828 173.22280883789062 C 247.9651336669922 248.28384399414062 255.24594116210938 262.3313293457031 277.42218017578125 233.4593048095703" stroke-width="0.0" fill="rgb(254, 108, 39)" opacity="1.0" stroke="rgb(0, 0, 0)" stroke-opacity="1.0" stroke-linecap="round" stroke-linejoin="round"/>
    <path d="M 249.9091796875 106.97026062011719 C 234.01611328125 155.13954162597656 219.4049072265625 210.04403686523438 158.17271423339844 232.4650421142578 C 148.71463012695312 170.92115783691406 201.7242431640625 200.29685974121094 199.15447998046875 175.7884521484375 C 223.5461883544922 86.28636169433594 225.8500518798828 97.51001739501953 229.38755798339844 124.53085327148438 C 200.39764404296875 98.47479248046875 217.68301391601562 96.42582702636719 249.9091796875 106.97026062011719" stroke-width="0.0" fill="rgb(73, 61, 49)" opacity="1.0" stroke="rgb(0, 0, 0)" stroke-opacity="1.0" stroke-linecap="round" stroke-linejoin="round"/>
    <path d="M 316.93927001953125 338.6090087890625 C 321.5934143066406 366.3783264160156 330.6076965332031 372.6192932128906 300.4229736328125 433.6444396972656 C 282.6914978027344 348.2251281738281 282.00567626953125 413.1058349609375 327.8161315917969 368.8971252441406 C 312.953857421875 313.5790100097656 297.1004638671875 329.00909423828125 300.6054992675781 304.72900390625 C 337.15777587890625 382.210693359375 289.5363464355469 345.7261657714844 316.93927001953125 338.6090087890625" stroke-width="0.0" fill="rgb(116, 111, 226)" opacity="0.48423845" stroke="rgb(0, 0, 0)" stroke-opacity="1.0" stroke-linecap="round" stroke-linejoin="round"/>
    <path d="M 340.6340637207031 231.50196838378906 C 309.907958984375 266.7573547363281 306.7525939941406 251.2718048095703 303.9183044433594 293.8529357910156 C 315.0069580078125 213.6923065185547 280.0412902832031 264.43536376953125 302.7123718261719 176.2675323486328 C 285.23773193359375 253.8956756591797 286.1723327636719 174.8195343017578 302.80926513671875 206.7895965576172 C 336.990234375 153.376220703125 348.4557800292969 215.3377685546875 340.6340637207031 231.50196838378906" stroke-width="0.0" fill="rgb(254, 249, 255)" opacity="0.8348223" stroke="rgb(0, 0, 0)" stroke-opacity="1.0" stroke-linecap="round" stroke-linejoin="round"/>
    <path d="M 307.8671569824219 403.45751953125 C 325.6424865722656 435.7730712890625 350.45928955078125 434.8114318847656 340.9654235839844 403.2486267089844 C 307.2990417480469 400.1280212402344 298.0299987792969 406.7575988769531 300.5828552246094 391.660888671875 C 323.2449035644531 390.9003601074219 312.89166259765625 358.3616027832031 335.89801025390625 348.1043701171875 C 306.0041198730469 431.5941467285156 326.8945007324219 440.5051574707031 307.8671569824219 403.45751953125" stroke-width="0.0" fill="rgb(90, 190, 98)" opacity="0.015432038" stroke="rgb(0, 0, 0)" stroke-opacity="1.0" stroke-linecap="round" stroke-linejoin="round"/>
    <path d="M 288.6873779296875 442.82733154296875 C 323.49554443359375 440.80169677734375 305.3191223144531 471.2615051269531 296.2853088378906 535.0184326171875 C 241.96237182617188 494.81390380859375 210.04293823242188 472.0243835449219 232.25045776367188 439.4274597167969 C 220.4051513671875 423.1512145996094 232.93362426757812 435.29656982421875 260.6236267089844 465.3717041015625 C 281.51544189453125 479.4233093261719 257.90399169921875 424.33349609375 288.6873779296875 442.82733154296875" stroke-width="0.0" fill="rgb(48, 199, 49)" opacity="0.99940807" stroke="rgb(0, 0, 0)" stroke-opacity="1.0" stroke-linecap="round" stroke-linejoin="round"/>
    <path d="M 297.1444091796875 281.07098388671875 C 273.4623718261719 284.84442138671875 260.7772216796875 279.2122802734375 295.08203125 295.1345520019531 C 301.93243408203125 287.8204040527344 310.95562744140625 272.1524353027344 283.0821228027344 321.953369140625 C 278.1095886230469 354.1436462402344 302.9144592285156 305.9178161621094 304.9919128417969 272.06732177734375 C 305.28778076171875 275.68231201171875 306.7870178222656 345.5407409667969 297.1444091796875 281.07098388671875" stroke-width="0.0" fill="rgb(106, 3, 98)" opacity="0.4200049" stroke="rgb(0, 0, 0)" stroke-opacity="1.0" stroke-linecap="round" stroke-linejoin="round"/>
    <path d="M 213.6324920654297 457.7884216308594 C 231.15589904785156 538.9322509765625 232.05657958984375 558.5281372070312 193.8255157470703 531.1239013671875 C 197.45045471191406 499.21405029296875 189.1173858642578 498.09161376953125 189.490478515625 486.9391174316406 C 194.74945068359375 466.0124206542969 174.21469116210938 446.1907043457031 203.344970703125 460.2840576171875 C 215.0101318359375 463.7591552734375 212.08343505859375 470.80523681640625 213.6324920654297 457.7884216308594" stroke-width="0.0" fill="rgb(172, 251, 84)" opacity="0.9986582" stroke="rgb(0, 0, 0)" stroke-opacity="1.0" stroke-linecap="round" stroke-linejoin="round"/>
    <path d="M 234.49832153320312 415.161376953125 C 247.64027404785156 397.10601806640625 236.37059020996094 384.6072692871094 235.34815979003906 424.1826171875 C 215.196533203125 442.80706787109375 230.39309692382812 399.21990966796875 246.1309051513672 403.5143737792969 C 237.6172332763672 272.35906982421875 269.6969909667969 214.2527618408203 278.70172119140625 400.149658203125 C 218.3788604736328 392.56878662109375 229.90318298339844 392.4210510253906 234.49832153320312 415.161376953125" stroke-width="0.0" fill="rgb(248, 50, 0)" opacity="1.0" stroke="rgb(0, 0, 0)" stroke-opacity="1.0" stroke-linecap="round" stroke-linejoin="round"/>
    <path d="M 330.4278869628906 468.3097229003906 C 307.4273681640625 462.1319274902344 300.47467041015625 461.6973571777344 306.1022033691406 481.9666442871094 C 297.9364929199219 478.4005126953125 266.88092041015625 471.9471130371094 296.0894470214844 454.8880920410156 C 279.2288818359375 421.9054260253906 268.0534973144531 426.8546447753906 281.3335266113281 464.5845031738281 C 309.06805419921875 463.3902587890625 322.5943603515625 465.7384948730469 330.4278869628906 468.3097229003906" stroke-width="0.0" fill="rgb(129, 201, 0)" opacity="0.64031106" stroke="rgb(0, 0, 0)" stroke-opacity="1.0" stroke-linecap="round" stroke-linejoin="round"/>
    <path d="M 522.5031127929688 105.9996337890625 C 542.0667724609375 157.56065368652344 548.4664916992188 164.30081176757812 510.51318359375 141.38223266601562 C 470.90789794921875 99.97918701171875 451.5318908691406 82.49944305419922 437.39459228515625 81.49434661865234 C 488.0303649902344 72.64524841308594 468.708251953125 87.72391510009766 489.5898742675781 46.88039016723633 C 516.4547119140625 55.977821350097656 504.8526916503906 63.427669525146484 522.5031127929688 105.9996337890625" stroke-width="0.0" fill="rgb(191, 251, 51)" opacity="0.99487054" stroke="rgb(0, 0, 0)" stroke-opacity="1.0" stroke-linecap="round" stroke-linejoin="round"/>
    <path d="M 327.4490966796875 179.7255096435547 C 330.89599609375 156.013916015625 279.5919189453125 165.6142120361328 275.5581970214844 184.73287963867188 C 274.7883605957031 216.7489776611328 239.73745727539062 223.972412109375 253.4164581298828 183.05386352539062 C 273.2846984863281 185.3099365234375 279.69537353515625 156.93014526367188 292.2992858886719 153.3432159423828 C 296.151611328125 193.5499267578125 296.2397766113281 186.67636108398438 327.4490966796875 179.7255096435547" stroke-width="0.0" fill="rgb(215, 194, 120)" opacity="0.6685855" stroke="rgb(0, 0, 0)" stroke-opacity="1.0" stroke-linecap="round" stroke-linejoin="round"/>
    <path d="M 256.6920166015625 408.6389465332031 C 263.10400390625 413.1316833496094 279.9995422363281 439.88006591796875 242.9950408935547 435.40155029296875 C 213.6939697265625 452.31561279296875 217.21902465820312 449.7118225097656 231.95103454589844 366.99114990234375 C 252.4900665283203 386.7784729003906 234.09747314453125 383.51025390625 243.48184204101562 374.9150390625 C 243.16360473632812 393.0229187011719 247.48158264160156 410.75775146484375 256.6920166015625 408.6389465332031" stroke-width="0.0" fill="rgb(66, 4, 97)" opacity="0.9900269" stroke="rgb(0, 0, 0)" stroke-opacity="1.0" stroke-linecap="round" stroke-linejoin="round"/>
    <path d="M 242.47608947753906 431.8023681640625 C 229.2852020263672 444.304443359375 232.58041381835938 451.4762268066406 235.26548767089844 431.2209167480469 C 197.06927490234375 445.670166015625 193.41796875 434.5966796875 218.43222045898438 472.9257507324219 C 204.78976440429688 445.2350769042969 204.08132934570312 426.1041564941406 219.70120239257812 406.46441650390625 C 230.13455200195312 413.9649658203125 241.60186767578125 410.1517333984375 242.47608947753906 431.8023681640625" stroke-width="0.0" fill="rgb(58, 59, 88)" opacity="0.6286435" stroke="rgb(0, 0, 0)" stroke-opacity="1.0" stroke-linecap="round" stroke-linejoin="round"/>
    <path d="M 570.4041748046875 479.4866638183594 C 519.0442504882812 515.8566284179688 510.5816650390625 522.5712280273438 484.6906433105469 532.0502319335938 C 465.0831604003906 531.114013671875 461.5205383300781 525.078125 473.7776184082031 532.6074829101562 C 483.9848937988281 497.4461669921875 499.6922302246094 466.15380859375 471.3427734375 476.5246276855469 C 515.050537109375 473.0655212402344 558.1356811523438 475.98828125 570.4041748046875 479.4866638183594" stroke-width="0.0" fill="rgb(13, 176, 56)" opacity="0.8465719" stroke="rgb(0, 0, 0)" stroke-opacity="1.0" stroke-linecap="round" stroke-linejoin="round"/>
    <path d="M 288.59625244140625 258.8542785644531 C 274.2957763671875 335.6440124511719 262.8346252441406 310.2066955566406 258.6025085449219 317.97076416015625 C 238.66464233398438 296.9747314453125 229.5260009765625 267.8796691894531 215.8887939453125 233.41127014160156 C 247.37474060058594 284.7096252441406 240.62872314453125 291.5414733886719 216.3197784423828 258.2815856933594 C 243.60781860351562 270.70245361328125 259.00042724609375 258.4234619140625 288.59625244140625 258.8542785644531" stroke-width="0.0" fill="rgb(203, 4, 0)" opacity="0.8213351" stroke="rgb(0, 0, 0)" stroke-opacity="1.0" stroke-linecap="round" stroke-linejoin="round"/>
    <path d="M 307.7591247558594 297.9900207519531 C 303.5347900390625 332.44647216796875 291.3699951171875 329.22845458984375 262.5315856933594 331.0240478515625 C 244.0574951171875 318.19293212890625 233.7078399658203 311.9761962890625 224.30532836914062 306.8539733886719 C 261.5852966308594 300.2720947265625 258.6554260253906 308.1745910644531 270.60308837890625 266.0063171386719 C 292.04522705078125 263.8874816894531 300.7895202636719 292.9946594238281 307.7591247558594 297.9900207519531" stroke-width="0.0" fill="rgb(98, 6, 0)" opacity="0.55030376" stroke="rgb(0, 0, 0)" stroke-opacity="1.0" stroke-linecap="round" stroke-linejoin="round"/>
    <path d="M 134.98117065429688 108.80696105957031 C 115.31266021728516 99.3582534790039 120.1933822631836 81.06292724609375 109.57316589355469 109.19659423828125 C 99.54912567138672 132.57276916503906 92.43992614746094 118.59580993652344 99.09691619873047 71.88111114501953 C 129.7438507080078 56.16025161743164 146.81781005859375 59.19172286987305 135.5030517578125 39.299381256103516 C 124.05957794189453 57.50568771362305 135.87283325195312 87.63497924804688 134.98117065429688 108.80696105957031" stroke-width="0.0" fill="rgb(148, 246, 65)" opacity="0.02689312" stroke="rgb(0, 0, 0)" stroke-opacity="1.0" stroke-linecap="round" stroke-linejoin="round"/>
    <path d="M 213.9073028564453 56.33261489868164 C 219.6776123046875 110.2452392578125 218.70045471191406 111.8144302368164 200.80003356933594 91.80603790283203 C 193.3300018310547 71.62255859375 192.2353057861328 69.99945068359375 179.35369873046875 64.54837799072266 C 196.99810791015625 74.42951965332031 193.8313446044922 57.64739227294922 189.28277587890625 61.1466178894043 C 195.43740844726562 56.01399612426758 183.89112854003906 74.91632843017578 213.9073028564453 56.33261489868164" stroke-width="0.0" fill="rgb(173, 239, 90)" opacity="0.9998177" stroke="rgb(0, 0, 0)" stroke-opacity="1.0" stroke-linecap="round" stroke-linejoin="round"/>
    <path d="M 222.6788787841797 266.40911865234375 C 225.3112030029297 284.7138977050781 207.09107971191406 255.99575805664062 209.13107299804688 257.3317565917969 C 197.6420135498047 257.6656799316406 191.45074462890625 240.27359008789062 236.11024475097656 247.7940673828125 C 212.06539916992188 259.0869445800781 192.65731811523438 236.05422973632812 201.55029296875 227.09815979003906 C 208.80685424804688 235.04074096679688 203.4726104736328 245.0251007080078 222.6788787841797 266.40911865234375" stroke-width="0.0" fill="rgb(225, 148, 105)" opacity="0.74833167" stroke="rgb(0, 0, 0)" stroke-opacity="1.0" stroke-linecap="round" stroke-linejoin="round"/>
    <path d="M 130.8850555419922 157.47286987304688 C 145.1314697265625 170.83526611328125 156.97850036621094 181.3391876220703 150.5854034423828 206.96844482421875 C 109.87516021728516 205.22657775878906 82.26083374023438 205.20697021484375 98.3060531616211 156.5286865234375 C 98.59304809570312 119.4888916015625 82.77549743652344 101.76657104492188 126.21257781982422 113.14683532714844 C 146.69483947753906 119.39801788330078 164.59678649902344 127.72562408447266 130.8850555419922 157.47286987304688" stroke-width="0.0" fill="rgb(142, 226, 26)" opacity="0.0033863187" stroke="rgb(0, 0, 0)" stroke-opacity="1.0" stroke-linecap="round" stroke-linejoin="round"/>
    <path d="M 109.27131652832031 123.00453186035156 C 105.55427551269531 115.80843353271484 75.24688720703125 144.95372009277344 72.17566680908203 142.8625030517578 C 50.513004302978516 157.83375549316406 28.86134910583496 130.99253845214844 53.22365188598633 107.066650390625 C 46.457908630371094 93.73712921142578 44.61774826049805 80.24176025390625 66.05058288574219 84.27740478515625 C 85.29010772705078 99.45746612548828 112.35635375976562 90.87484741210938 109.27131652832031 123.00453186035156" stroke-width="0.0" fill="rgb(154, 246, 35)" opacity="0.049964387" stroke="rgb(0, 0, 0)" stroke-opacity="1.0" stroke-linecap="round" stroke-linejoin="round"/>
    <path d="M 373.0300598144531 397.9170227050781 C 383.3927307128906 435.29730224609375 406.61419677734375 444.3544006347656 358.27252197265625 406.95184326171875 C 340.895263671875 387.33477783203125 325.43548583984375 386.4566345214844 315.7622985839844 376.41290283203125 C 303.33343505859375 321.2472839355469 324.1482849121094 325.7621154785156 353.28131103515625 335.4923095703125 C 331.6218566894531 376.2687072753906 356.1704406738281 388.639892578125 373.0300598144531 397.9170227050781" stroke-width="0.0" fill="rgb(38, 255, 28)" opacity="0.9641228" stroke="rgb(0, 0, 0)" stroke-opacity="1.0" stroke-linecap="round" stroke-linejoin="round"/>
    <path d="M 66.21080017089844 461.21722412109375 C 81.07247161865234 444.5190124511719 81.3584976196289 463.4194030761719 80.41831970214844 460.72967529296875 C 87.78977966308594 460.2762145996094 52.7244873046875 450.42401123046875 47.82358169555664 445.1935119628906 C 56.234397888183594 429.3789367675781 78.5594482421875 430.88739013671875 84.97319030761719 440.60260009765625 C 82.2093505859375 444.90740966796875 76.11847686767578 459.0879211425781 66.21080017089844 461.21722412109375" stroke-width="0.0" fill="rgb(178, 245, 103)" opacity="0.022798825" stroke="rgb(0, 0, 0)" stroke-opacity="1.0" stroke-linecap="round" stroke-linejoin="round"/>
    <path d="M 470.1273498535156 517.079345703125 C 484.3163757324219 503.42889404296875 477.471923828125 526.9680786132812 466.5310363769531 543.6316528320312 C 454.0323486328125 521.66650390625 445.24468994140625 509.9219055175781 447.319091796875 525.6041870117188 C 469.55230712890625 506.45391845703125 497.3824768066406 499.0171813964844 473.9083251953125 486.6752014160156 C 449.5184631347656 480.2416076660156 468.09637451171875 499.23095703125 470.1273498535156 517.079345703125" stroke-width="0.0" fill="rgb(64, 126, 115)" opacity="0.12094667" stroke="rgb(0, 0, 0)" stroke-opacity="1.0" stroke-linecap="round" stroke-linejoin="round"/>
    <path d="M 136.6321258544922 26.23733139038086 C 145.0506591796875 26.2147159576416 149.87957763671875 55.894378662109375 128.84169006347656 38.96430587768555 C 128.92088317871094 58.970550537109375 135.7969512939453 47.24892044067383 119.50547790527344 11.801953315734863 C 139.38168334960938 -3.4251527786254883 147.8036651611328 -12.301698684692383 133.72340393066406 8.00222396850586 C 143.37896728515625 16.568819046020508 143.814208984375 28.5062198638916 136.6321258544922 26.23733139038086" stroke-width="0.0" fill="rgb(181, 239, 65)" opacity="0.0" stroke="rgb(0, 0, 0)" stroke-opacity="1.0" stroke-linecap="round" stroke-linejoin="round"/>
    <path d="M 209.7443389892578 324.2737731933594 C 223.9503936767578 326.7589111328125 222.66143798828125 350.6941223144531 206.28257751464844 343.3951110839844 C 175.64102172851562 350.2952880859375 155.8179931640625 351.4691162109375 157.94232177734375 309.020263671875 C 170.01828002929688 329.4832763671875 170.93679809570312 325.6171569824219 190.2806854248047 332.5337219238281 C 212.37744140625 339.8848876953125 232.90228271484375 340.9818115234375 209.7443389892578 324.2737731933594" stroke-width="0.0" fill="rgb(208, 255, 216)" opacity="0.05909913" stroke="rgb(0, 0, 0)" stroke-opacity="1.0" stroke-linecap="round" stroke-linejoin="round"/>
    <path d="M 40.81084060668945 337.65997314453125 C 86.09691619873047 316.7947998046875 85.8631820678711 329.6931457519531 60.670963287353516 331.9787902832031 C 33.10627365112305 365.7981872558594 20.665542602539062 326.2899169921875 19.85965347290039 295.2354431152344 C 3.8872222900390625 290.2859802246094 12.342755317687988 296.4917297363281 27.22647476196289 294.919189453125 C 28.958345413208008 298.856201171875 36.625823974609375 327.6307373046875 40.81084060668945 337.65997314453125" stroke-width="0.0" fill="rgb(174, 238, 56)" opacity="0.05554657" stroke="rgb(0, 0, 0)" stroke-opacity="1.0" stroke-linecap="round" stroke-linejoin="round"/>
    <path d="M 443.5157775878906 462.93402099609375 C 449.0188293457031 467.9302062988281 418.9071044921875 461.38232421875 421.4986877441406 438.6453857421875 C 415.8346252441406 436.2059631347656 398.8206481933594 432.9703369140625 379.7858581542969 431.0179138183594 C 365.4292907714844 420.59820556640625 385.56109619140625 407.00140380859375 395.0340576171875 433.34100341796875 C 387.8737487792969 434.9532470703125 407.1011962890625 439.4212646484375 443.5157775878906 462.93402099609375" stroke-width="0.0" fill="rgb(21, 251, 100)" opacity="0.63916147" stroke="rgb(0, 0, 0)" stroke-opacity="1.0" stroke-linecap="round" stroke-linejoin="round"/>
    <path d="M 143.0924530029297 326.8078308105469 C 110.02972412109375 341.7797546386719 114.20565032958984 359.0483703613281 123.65413665771484 357.3084716796875 C 124.29219818115234 349.585693359375 107.04039001464844 340.3252258300781 117.86793518066406 320.1512756347656 C 98.32977294921875 345.7178649902344 120.78330993652344 362.99615478515625 129.40069580078125 338.1776123046875 C 132.2272491455078 320.4018859863281 137.9331817626953 324.5513916015625 143.0924530029297 326.8078308105469" stroke-width="0.0" fill="rgb(191, 228, 69)" opacity="0.0018947411" stroke="rgb(0, 0, 0)" stroke-opacity="1.0" stroke-linecap="round" stroke-linejoin="round"/>
    <path d="M 88.5250015258789 210.4146728515625 C 74.65807342529297 199.94625854492188 49.162227630615234 188.9066925048828 46.268856048583984 194.64617919921875 C 31.97113609313965 178.3293914794922 25.577468872070312 174.7643585205078 26.657642364501953 152.46337890625 C 41.716407775878906 199.16549682617188 32.11306381225586 198.3821563720703 37.118778228759766 174.04864501953125 C 60.98377227783203 145.6201629638672 63.39332962036133 161.80393981933594 88.5250015258789 210.4146728515625" stroke-width="0.0" fill="rgb(198, 253, 106)" opacity="0.0008955953" stroke="rgb(0, 0, 0)" stroke-opacity="1.0" stroke-linecap="round" stroke-linejoin="round"/>
    <path d="M 114.043212890625 333.58270263671875 C 108.69988250732422 347.9571228027344 121.67597961425781 362.4803161621094 105.64933013916016 332.84185791015625 C 107.47911834716797 331.9465637207031 86.1379623413086 330.6260986328125 106.34960174560547 335.1548767089844 C 102.5989761352539 336.3083190917969 99.06950378417969 315.4814453125 109.97676849365234 331.7110290527344 C 122.6416015625 313.0211486816406 133.29330444335938 324.72686767578125 114.043212890625 333.58270263671875" stroke-width="0.0" fill="rgb(182, 227, 30)" opacity="0.036711678" stroke="rgb(0, 0, 0)" stroke-opacity="1.0" stroke-linecap="round" stroke-linejoin="round"/>
    <path d="M 31.37711524963379 86.88874053955078 C 23.330020904541016 84.89598846435547 19.891054153442383 98.8536605834961 18.413455963134766 78.29094696044922 C 9.912808418273926 103.31397247314453 26.501554489135742 89.46125793457031 24.979021072387695 86.0430908203125 C 12.443711280822754 82.36898040771484 66.00212097167969 86.31413269042969 21.02410125732422 46.215911865234375 C -11.07754898071289 66.5009765625 -4.594277858734131 73.37938690185547 31.37711524963379 86.88874053955078" stroke-width="0.0" fill="rgb(147, 206, 35)" opacity="0.0" stroke="rgb(0, 0, 0)" stroke-opacity="1.0" stroke-linecap="round" stroke-linejoin="round"/>
    <path d="M 153.0620574951172 189.72476196289062 C 155.90155029296875 187.2707977294922 147.96469116210938 189.11483764648438 137.45437622070312 171.186767578125 C 144.30661010742188 188.0972137451172 154.43736267089844 194.7909393310547 132.58055114746094 187.8968048095703 C 127.08191680908203 185.06239318847656 137.1581573486328 183.49180603027344 148.4117889404297 156.95310974121094 C 145.87237548828125 160.61962890625 147.15045166015625 193.3284912109375 153.0620574951172 189.72476196289062" stroke-width="0.0" fill="rgb(175, 244, 58)" opacity="0.0" stroke="rgb(0, 0, 0)" stroke-opacity="1.0" stroke-linecap="round" stroke-linejoin="round"/>
    <path d="M 223.09469604492188 380.7911071777344 C 269.5882873535156 364.4114074707031 256.4928283691406 389.4491271972656 215.19715881347656 439.2149658203125 C 215.42205810546875 385.8475036621094 226.4216766357422 343.2961730957031 204.3404998779297 339.1121826171875 C 167.17515563964844 345.6504821777344 182.6687774658203 366.7129821777344 204.33409118652344 369.7616882324219 C 208.0406951904297 340.0765380859375 220.5311737060547 364.532470703125 223.09469604492188 380.7911071777344" stroke-width="0.0" fill="rgb(90, 255, 195)" opacity="0.08372256" stroke="rgb(0, 0, 0)" stroke-opacity="1.0" stroke-linecap="round" stroke-linejoin="round"/>
    <path d="M 67.45404815673828 44.92885208129883 C 75.51301574707031 56.06191635131836 57.10594177246094 58.11948013305664 68.2962417602539 64.2275161743164 C 75.9937973022461 58.31086730957031 62.28885269165039 49.507843017578125 54.212615966796875 46.334747314453125 C 53.158390045166016 47.18083953857422 53.26697540283203 38.13128662109375 38.5667610168457 45.76542663574219 C 59.24435806274414 55.34721755981445 61.75149917602539 48.2457160949707 67.45404815673828 44.92885208129883" stroke-width="0.0" fill="rgb(172, 217, 63)" opacity="0.0" stroke="rgb(0, 0, 0)" stroke-opacity="1.0" stroke-linecap="round" stroke-linejoin="round"/>
    <path d="M 45.73311233520508 205.35617065429688 C 52.080501556396484 201.07469177246094 45.88557434082031 217.5492401123047 37.611610412597656 213.12625122070312 C 33.90603256225586 218.25791931152344 8.619643211364746 217.39674377441406 0.7071505784988403 195.15414428710938 C -6.893260955810547 163.6974639892578 1.5014740228652954 171.23097229003906 32.476802825927734 152.2952880859375 C 64.04454803466797 159.6891326904297 64.67205810546875 215.9080352783203 45.73311233520508 205.35617065429688" stroke-width="0.0" fill="rgb(168, 239, 74)" opacity="0.25838843" stroke="rgb(0, 0, 0)" stroke-opacity="1.0" stroke-linecap="round" stroke-linejoin="round"/>
    <path d="M 307.7721252441406 337.7571105957031 C 312.3277893066406 328.0621337890625 311.0198669433594 331.027587890625 307.34228515625 339.7864990234375 C 307.27197265625 327.21533203125 290.7961120605469 300.0753479003906 301.16839599609375 314.64056396484375 C 310.5389099121094 311.837158203125 280.0296630859375 289.9246826171875 301.4197998046875 254.26026916503906 C 313.4443359375 294.4353942871094 307.0310363769531 331.91473388671875 307.7721252441406 337.7571105957031" stroke-width="0.0" fill="rgb(51, 35, 142)" opacity="1.0" stroke="rgb(0, 0, 0)" stroke-opacity="1.0" stroke-linecap="round" stroke-linejoin="round"/>
    <path d="M 380.563232421875 447.79986572265625 C 384.5726013183594 427.3894958496094 383.3815002441406 453.2051086425781 358.34521484375 450.0546875 C 341.1802978515625 452.0426330566406 332.60797119140625 448.0187072753906 333.3721618652344 446.6715393066406 C 323.32928466796875 422.63177490234375 335.3059387207031 431.6923522949219 337.6279296875 428.73626708984375 C 340.9502868652344 426.6416015625 358.9546813964844 453.9424133300781 380.563232421875 447.79986572265625" stroke-width="0.0" fill="rgb(42, 210, 40)" opacity="0.0" stroke="rgb(0, 0, 0)" stroke-opacity="1.0" stroke-linecap="round" stroke-linejoin="round"/>
    <path d="M 337.3231201171875 429.1308898925781 C 326.4281311035156 452.02435302734375 345.650390625 451.4925537109375 342.7476806640625 449.3917541503906 C 318.64337158203125 438.42095947265625 322.9264221191406 433.45892333984375 326.3360595703125 389.6639709472656 C 316.260009765625 395.2537841796875 302.76824951171875 390.421142578125 364.59423828125 368.17181396484375 C 389.67779541015625 389.328125 380.38665771484375 407.88299560546875 337.3231201171875 429.1308898925781" stroke-width="0.0" fill="rgb(14, 252, 6)" opacity="0.12568675" stroke="rgb(0, 0, 0)" stroke-opacity="1.0" stroke-linecap="round" stroke-linejoin="round"/>
    <path d="M 466.1483154296875 240.5198974609375 C 470.54205322265625 251.01866149902344 467.8416442871094 251.9217987060547 472.7923278808594 240.920166015625 C 455.7466125488281 256.65850830078125 464.82745361328125 265.0401306152344 469.5957946777344 232.6867218017578 C 484.14190673828125 248.943359375 510.8255310058594 269.8030090332031 512.4482421875 246.11813354492188 C 525.776123046875 233.94674682617188 511.1157531738281 219.74766540527344 466.1483154296875 240.5198974609375" stroke-width="0.0" fill="rgb(106, 182, 70)" opacity="0.0" stroke="rgb(0, 0, 0)" stroke-opacity="1.0" stroke-linecap="round" stroke-linejoin="round"/>
    <path d="M 452.6161804199219 172.7863006591797 C 447.0917053222656 167.62599182128906 456.4228210449219 152.75588989257812 450.78173828125 178.06549072265625 C 379.8288269042969 180.16171264648438 385.1310729980469 190.24069213867188 390.4242248535156 156.2657470703125 C 398.4369812011719 143.42799377441406 412.6590576171875 132.59262084960938 400.30377197265625 86.76832580566406 C 457.746826171875 95.3963394165039 464.6919860839844 104.08737182617188 452.6161804199219 172.7863006591797" stroke-width="0.0" fill="rgb(79, 180, 57)" opacity="0.0" stroke="rgb(0, 0, 0)" stroke-opacity="1.0" stroke-linecap="round" stroke-linejoin="round"/>
    <path d="M 453.7623291015625 307.65142822265625 C 400.4722900390625 308.5619201660156 383.95587158203125 319.1322937011719 393.32183837890625 303.34088134765625 C 396.4561767578125 286.1615905761719 395.2127380371094 272.5635070800781 411.9967346191406 300.5445861816406 C 432.90509033203125 296.4981689453125 426.4861145019531 288.8297424316406 444.61474609375 256.8302307128906 C 454.0050354003906 261.0372009277344 458.45159912109375 285.3193054199219 453.7623291015625 307.65142822265625" stroke-width="0.0" fill="rgb(82, 181, 68)" opacity="0.017425418" stroke="rgb(0, 0, 0)" stroke-opacity="1.0" stroke-linecap="round" stroke-linejoin="round"/>
    <path d="M 383.1929931640625 91.77635192871094 C 433.4474182128906 123.01817321777344 446.65826416015625 63.52241516113281 412.5682678222656 40.50017166137695 C 392.3291015625 68.51908111572266 401.0808410644531 73.71703338623047 417.0324401855469 39.72883987426758 C 398.26983642578125 33.2426643371582 395.05841064453125 41.59023666381836 372.1523742675781 9.07120418548584 C 366.9384460449219 14.209664344787598 368.1924743652344 47.10055923461914 383.1929931640625 91.77635192871094" stroke-width="0.0" fill="rgb(122, 201, 22)" opacity="0.050595496" stroke="rgb(0, 0, 0)" stroke-opacity="1.0" stroke-linecap="round" stroke-linejoin="round"/>
    <path d="M 388.7286376953125 441.5519104003906 C 402.7655029296875 413.178955078125 409.6067199707031 441.59759521484375 373.5121765136719 454.4229736328125 C 354.7113952636719 445.46630859375 356.332275390625 457.76544189453125 359.3393859863281 450.775390625 C 375.1372375488281 457.51373291015625 371.2649230957031 445.6787414550781 375.97454833984375 450.4001159667969 C 408.2362976074219 448.9320068359375 427.7729187011719 444.9336242675781 388.7286376953125 441.5519104003906" stroke-width="0.0" fill="rgb(96, 173, 52)" opacity="0.033542685" stroke="rgb(0, 0, 0)" stroke-opacity="1.0" stroke-linecap="round" stroke-linejoin="round"/>
    <path d="M 63.82738494873047 53.05281066894531 C 67.43930053710938 111.70614624023438 54.79335403442383 113.7391357421875 23.568069458007812 123.36571502685547 C -0.3518753945827484 101.92957305908203 -18.68739891052246 107.73456573486328 -7.943265438079834 50.26252365112305 C 13.426538467407227 44.326988220214844 12.981200218200684 60.757789611816406 41.38920211791992 56.06227493286133 C 33.321876525878906 38.05341720581055 59.65000534057617 34.54849624633789 63.82738494873047 53.05281066894531" stroke-width="0.0" fill="rgb(184, 251, 24)" opacity="0.031844746" stroke="rgb(0, 0, 0)" stroke-opacity="1.0" stroke-linecap="round" stroke-linejoin="round"/>
    <path d="M 188.9109649658203 418.48248291015625 C 201.4561309814453 434.6057434082031 204.38763427734375 437.45916748046875 202.52996826171875 462.1629333496094 C 177.70782470703125 433.4525146484375 173.49058532714844 417.229736328125 168.21583557128906 400.050048828125 C 164.60589599609375 414.8623352050781 176.9591064453125 412.7292785644531 180.92593383789062 395.7221374511719 C 189.66714477539062 410.4347229003906 213.77110290527344 414.036376953125 188.9109649658203 418.48248291015625" stroke-width="0.0" fill="rgb(196, 173, 211)" opacity="0.05879901" stroke="rgb(0, 0, 0)" stroke-opacity="1.0" stroke-linecap="round" stroke-linejoin="round"/>
    <path d="M 316.1348571777344 165.64675903320312 C 310.7290344238281 159.4973907470703 305.0159912109375 176.40928649902344 331.15704345703125 168.04859924316406 C 317.7784118652344 159.74317932128906 310.1531982421875 155.6876220703125 294.02008056640625 173.36537170410156 C 329.2600402832031 169.408203125 344.9677734375 166.8287353515625 344.0830993652344 151.75746154785156 C 315.6558532714844 176.21826171875 308.16058349609375 184.73988342285156 316.1348571777344 165.64675903320312" stroke-width="0.0" fill="rgb(137, 189, 105)" opacity="0.0010459212" stroke="rgb(0, 0, 0)" stroke-opacity="1.0" stroke-linecap="round" stroke-linejoin="round"/>
  </g>
</svg>
