<?xml version="1.0" ?>
<svg xmlns="http://www.w3.org/2000/svg" version="1.1" width="512" height="512">
  <defs/>
  <g>
    <path d="M 538.8790283203125 464.218994140625 C 542.056640625 515.231201171875 547.8551025390625 525.180419921875 444.4179992675781 537.5237426757812 C 371.1815185546875 549.178466796875 317.6532897949219 579.1752319335938 263.17767333984375 513.44384765625 C 324.75048828125 362.8746643066406 392.80755615234375 403.8437194824219 512.8419799804688 357.8917236328125 C 552.1236572265625 330.34051513671875 566.210693359375 349.8449401855469 538.8790283203125 464.218994140625" stroke-width="0.0" fill="rgb(49, 186, 12)" opacity="0.8313608" stroke="rgb(0, 0, 0)" stroke-opacity="1.0" stroke-linecap="round" stroke-linejoin="round"/>
    <path d="M 172.74952697753906 453.7214050292969 C 205.9720001220703 445.2022705078125 254.32553100585938 411.76922607421875 319.9353332519531 546.7315063476562 C -51.20000076293945 520.029052734375 -51.20000076293945 513.2939453125 -66.56199645996094 481.21881103515625 C -42.46925735473633 187.8024444580078 -29.499027252197266 176.35971069335938 40.269771575927734 174.69993591308594 C 192.59378051757812 278.7721862792969 141.40797424316406 261.8713073730469 172.74952697753906 453.7214050292969" stroke-width="0.0" fill="rgb(10, 174, 122)" opacity="0.95434904" stroke="rgb(0, 0, 0)" stroke-opacity="1.0" stroke-linecap="round" stroke-linejoin="round"/>
    <path d="M 230.23756408691406 248.4210662841797 C 160.0693359375 314.0165710449219 194.11119079589844 371.0251159667969 156.68478393554688 335.1972351074219 C 153.34356689453125 534.400634765625 121.65673828125 352.26812744140625 60.466182708740234 189.8880157470703 C 24.001176834106445 195.2769012451172 42.83509826660156 203.17349243164062 258.878173828125 98.88893127441406 C 279.1354064941406 161.68711853027344 361.30438232421875 210.0013885498047 230.23756408691406 248.4210662841797" stroke-width="0.0" fill="rgb(69, 77, 83)" opacity="0.9330619" stroke="rgb(0, 0, 0)" stroke-opacity="1.0" stroke-linecap="round" stroke-linejoin="round"/>
    <path d="M 314.2535400390625 7.376500129699707 C 331.2828063964844 191.9243927001953 240.90289306640625 130.4652557373047 -6.635970115661621 217.0978546142578 C -47.09149932861328 216.65542602539062 -30.876487731933594 203.1995849609375 -23.753515243530273 52.91250228881836 C -13.334906578063965 -13.992923736572266 -5.4589362144470215 -18.950611114501953 50.80853271484375 -43.94681930541992 C 265.21746826171875 -90.51960754394531 286.6009216308594 -100.15345764160156 314.2535400390625 7.376500129699707" stroke-width="0.0" fill="rgb(65, 215, 68)" opacity="0.8942293" stroke="rgb(0, 0, 0)" stroke-opacity="1.0" stroke-linecap="round" stroke-linejoin="round"/>
    <path d="M 550.8231201171875 112.83879089355469 C 461.29644775390625 293.8393249511719 435.33551025390625 296.46533203125 375.83868408203125 244.62200927734375 C 322.48150634765625 226.64175415039062 227.0323486328125 236.1830596923828 211.30453491210938 170.46060180664062 C 194.70887756347656 11.207054138183594 293.9545593261719 117.38507080078125 352.7895812988281 -8.30248737335205 C 563.8909301757812 -25.401752471923828 557.3245849609375 3.882805109024048 550.8231201171875 112.83879089355469" stroke-width="0.0" fill="rgb(255, 255, 3)" opacity="1.0" stroke="rgb(0, 0, 0)" stroke-opacity="1.0" stroke-linecap="round" stroke-linejoin="round"/>
    <path d="M 428.3329162597656 325.17413330078125 C 435.6447448730469 483.4639892578125 461.9380187988281 559.1197509765625 264.07525634765625 529.622314453125 C 306.658203125 300.1259460449219 332.4099426269531 497.3525390625 334.61651611328125 316.7904968261719 C 310.1435546875 214.81661987304688 271.65667724609375 249.7833709716797 248.47427368164062 237.20330810546875 C 461.8733215332031 209.1567840576172 440.2673645019531 213.52197265625 428.3329162597656 325.17413330078125" stroke-width="0.0" fill="rgb(77, 250, 126)" opacity="0.5243849" stroke="rgb(0, 0, 0)" stroke-opacity="1.0" stroke-linecap="round" stroke-linejoin="round"/>
    <path d="M 544.9649658203125 214.2164764404297 C 554.8571166992188 323.551513671875 560.9385986328125 333.82501220703125 423.0861511230469 430.0208740234375 C 353.1076965332031 424.8247375488281 412.2516784667969 354.41131591796875 329.2220764160156 225.70974731445312 C 232.04200744628906 38.67499542236328 218.6824493408203 -40.042236328125 448.3076171875 -13.079773902893066 C 558.1864624023438 64.93206024169922 552.22802734375 105.68954467773438 544.9649658203125 214.2164764404297" stroke-width="0.0" fill="rgb(92, 204, 79)" opacity="0.99328566" stroke="rgb(0, 0, 0)" stroke-opacity="1.0" stroke-linecap="round" stroke-linejoin="round"/>
    <path d="M 394.186767578125 384.18756103515625 C 450.5870666503906 477.3963928222656 344.99847412109375 442.867919921875 334.07440185546875 325.55517578125 C 328.21380615234375 267.3431091308594 296.68572998046875 246.7928924560547 311.2611999511719 267.62646484375 C 287.27630615234375 257.21063232421875 257.76397705078125 255.7340545654297 221.6464385986328 246.85147094726562 C 396.4930114746094 143.0291748046875 330.5478820800781 81.75140380859375 394.186767578125 384.18756103515625" stroke-width="0.0" fill="rgb(32, 25, 49)" opacity="1.0" stroke="rgb(0, 0, 0)" stroke-opacity="1.0" stroke-linecap="round" stroke-linejoin="round"/>
    <path d="M 439.6092529296875 192.01513671875 C 373.2095947265625 293.92584228515625 370.29473876953125 343.1139831542969 350.44622802734375 274.0170593261719 C 338.8232727050781 259.62103271484375 300.3363037109375 226.3307342529297 327.87939453125 213.63101196289062 C 334.0184631347656 246.0284423828125 304.2862548828125 192.6469268798828 253.78375244140625 53.74561309814453 C 422.50115966796875 59.34206771850586 420.99041748046875 131.51329040527344 439.6092529296875 192.01513671875" stroke-width="0.0" fill="rgb(82, 217, 81)" opacity="0.9516022" stroke="rgb(0, 0, 0)" stroke-opacity="1.0" stroke-linecap="round" stroke-linejoin="round"/>
    <path d="M 253.48118591308594 220.8850555419922 C 229.51695251464844 202.60086059570312 201.0699005126953 207.90135192871094 253.91848754882812 231.52671813964844 C 205.4512939453125 240.5095672607422 173.69456481933594 218.41856384277344 188.6314697265625 301.6171875 C 204.8878936767578 241.4425048828125 251.5435333251953 252.82383728027344 249.4127197265625 250.4919891357422 C 106.119873046875 176.11009216308594 180.5675506591797 232.7258758544922 253.48118591308594 220.8850555419922" stroke-width="0.0" fill="rgb(74, 95, 96)" opacity="0.93331033" stroke="rgb(0, 0, 0)" stroke-opacity="1.0" stroke-linecap="round" stroke-linejoin="round"/>
    <path d="M 478.2703552246094 286.7740478515625 C 472.705078125 347.3902893066406 475.53240966796875 424.0343017578125 349.13116455078125 468.8166198730469 C 403.6615905761719 381.3708801269531 336.4393310546875 335.5673828125 367.59375 255.18055725097656 C 411.1157531738281 264.0028381347656 435.1763916015625 225.13510131835938 395.7586669921875 77.86334228515625 C 484.1724548339844 180.38702392578125 469.94720458984375 223.9300079345703 478.2703552246094 286.7740478515625" stroke-width="0.0" fill="rgb(100, 228, 102)" opacity="0.99998736" stroke="rgb(0, 0, 0)" stroke-opacity="1.0" stroke-linecap="round" stroke-linejoin="round"/>
    <path d="M 273.16094970703125 64.373779296875 C 204.2880401611328 76.59066772460938 230.36993408203125 68.55072021484375 268.8261413574219 63.22488784790039 C 273.1612854003906 82.8868637084961 191.71633911132812 74.50617218017578 180.98666381835938 181.3536376953125 C 249.13818359375 132.3718719482422 369.386962890625 151.1768035888672 287.8833923339844 91.98242950439453 C 252.74603271484375 55.58055877685547 201.5874786376953 78.92430877685547 273.16094970703125 64.373779296875" stroke-width="0.0" fill="rgb(12, 27, 52)" opacity="0.96922016" stroke="rgb(0, 0, 0)" stroke-opacity="1.0" stroke-linecap="round" stroke-linejoin="round"/>
    <path d="M 181.91168212890625 345.598876953125 C 159.53460693359375 418.9876403808594 137.65663146972656 419.5079345703125 266.47967529296875 470.2306213378906 C 160.33560180664062 437.8857421875 153.97291564941406 365.0015869140625 152.2974395751953 394.29754638671875 C 183.5225372314453 383.5127258300781 182.82632446289062 383.85821533203125 164.2848358154297 288.6109313964844 C 201.07159423828125 286.83905029296875 181.94468688964844 253.07725524902344 181.91168212890625 345.598876953125" stroke-width="0.0" fill="rgb(61, 80, 101)" opacity="0.89456093" stroke="rgb(0, 0, 0)" stroke-opacity="1.0" stroke-linecap="round" stroke-linejoin="round"/>
    <path d="M 533.8719482421875 27.45643424987793 C 547.0794677734375 133.34234619140625 563.2000122070312 198.51629638671875 519.2504272460938 187.30047607421875 C 474.561279296875 87.72859191894531 456.4697265625 52.9538459777832 379.25640869140625 -10.673310279846191 C 352.4057312011719 -36.5623664855957 381.7399597167969 -29.16037368774414 447.279296875 -17.786087036132812 C 542.5020751953125 -12.75610637664795 541.1154174804688 -3.227013349533081 533.8719482421875 27.45643424987793" stroke-width="0.0" fill="rgb(95, 205, 36)" opacity="1.0" stroke="rgb(0, 0, 0)" stroke-opacity="1.0" stroke-linecap="round" stroke-linejoin="round"/>
    <path d="M 469.4374694824219 405.8591613769531 C 482.64996337890625 387.48974609375 474.2347717285156 419.5101318359375 452.1087646484375 452.1488952636719 C 428.0655212402344 435.76971435546875 412.2216491699219 437.2868957519531 402.4022521972656 428.77557373046875 C 422.3173522949219 406.9603576660156 430.5118408203125 392.38848876953125 445.3333740234375 393.2528076171875 C 433.19268798828125 401.0226135253906 453.8350830078125 403.01593017578125 469.4374694824219 405.8591613769531" stroke-width="0.0" fill="rgb(130, 182, 21)" opacity="0.03441773" stroke="rgb(0, 0, 0)" stroke-opacity="1.0" stroke-linecap="round" stroke-linejoin="round"/>
    <path d="M 342.5236511230469 467.19671630859375 C 203.01063537597656 427.6518249511719 310.65179443359375 435.8028259277344 350.0895080566406 452.0098876953125 C 189.93368530273438 510.62567138671875 219.8122100830078 447.9819641113281 159.6629638671875 451.6291809082031 C 204.13563537597656 410.8951721191406 217.15960693359375 467.516357421875 251.1219482421875 427.299072265625 C 310.7015686035156 441.0548400878906 272.9859924316406 426.5931396484375 342.5236511230469 467.19671630859375" stroke-width="0.0" fill="rgb(255, 254, 27)" opacity="1.0" stroke="rgb(0, 0, 0)" stroke-opacity="1.0" stroke-linecap="round" stroke-linejoin="round"/>
    <path d="M 412.0074462890625 443.66339111328125 C 415.437744140625 470.4641418457031 383.88116455078125 470.2750549316406 380.47723388671875 462.4663391113281 C 396.1161804199219 464.77447509765625 362.7874450683594 493.24530029296875 283.6171569824219 475.7247619628906 C 390.1468811035156 448.85833740234375 299.6830139160156 380.675537109375 362.6711730957031 413.1341247558594 C 456.84320068359375 417.5558166503906 417.107177734375 452.82598876953125 412.0074462890625 443.66339111328125" stroke-width="0.0" fill="rgb(73, 232, 88)" opacity="0.8746349" stroke="rgb(0, 0, 0)" stroke-opacity="1.0" stroke-linecap="round" stroke-linejoin="round"/>
    <path d="M 290.6994323730469 -6.968783378601074 C 201.67396545410156 35.75266647338867 204.81631469726562 46.97732925415039 185.3491668701172 58.66194534301758 C 179.32395935058594 43.586917877197266 188.61412048339844 72.37751007080078 69.44709777832031 79.65469360351562 C 84.80377197265625 -48.54480743408203 113.87678527832031 -55.74131774902344 184.82872009277344 -53.02360916137695 C 276.54962158203125 -32.854248046875 310.22979736328125 -36.383235931396484 290.6994323730469 -6.968783378601074" stroke-width="0.0" fill="rgb(69, 232, 57)" opacity="0.06803529" stroke="rgb(0, 0, 0)" stroke-opacity="1.0" stroke-linecap="round" stroke-linejoin="round"/>
    <path d="M 322.9188232421875 96.69200134277344 C 322.2206115722656 105.4051742553711 283.6796569824219 59.318180084228516 283.81744384765625 144.55364990234375 C 355.2965087890625 172.6232452392578 228.8126983642578 204.4650421142578 328.94488525390625 202.66146850585938 C 335.3546447753906 131.60800170898438 329.39605712890625 145.3799591064453 292.324462890625 76.8058853149414 C 348.55126953125 85.97142028808594 320.2369689941406 92.40800476074219 322.9188232421875 96.69200134277344" stroke-width="0.0" fill="rgb(93, 53, 74)" opacity="0.8604241" stroke="rgb(0, 0, 0)" stroke-opacity="1.0" stroke-linecap="round" stroke-linejoin="round"/>
    <path d="M 435.18231201171875 202.39279174804688 C 429.74591064453125 208.8061981201172 442.0332946777344 220.83641052246094 429.34295654296875 319.4128723144531 C 405.6803894042969 337.18975830078125 400.5653991699219 302.57611083984375 356.2927551269531 222.22134399414062 C 385.1177062988281 113.03541564941406 417.2002258300781 155.063232421875 437.5901184082031 204.58859252929688 C 436.66192626953125 220.17295837402344 435.1999816894531 231.02622985839844 435.18231201171875 202.39279174804688" stroke-width="0.0" fill="rgb(128, 213, 69)" opacity="0.1323209" stroke="rgb(0, 0, 0)" stroke-opacity="1.0" stroke-linecap="round" stroke-linejoin="round"/>
    <path d="M 176.3213653564453 255.9002227783203 C 143.58837890625 313.8409423828125 134.7003936767578 430.49652099609375 155.1097412109375 435.6793212890625 C 92.29200744628906 404.1060791015625 106.23807525634766 299.5689697265625 52.720943450927734 200.70680236816406 C 25.226810455322266 204.99624633789062 70.15310668945312 148.1565399169922 168.19308471679688 119.80326080322266 C 187.93812561035156 204.14532470703125 203.90223693847656 225.0792999267578 176.3213653564453 255.9002227783203" stroke-width="0.0" fill="rgb(13, 196, 151)" opacity="0.99625313" stroke="rgb(0, 0, 0)" stroke-opacity="1.0" stroke-linecap="round" stroke-linejoin="round"/>
    <path d="M 144.625 36.969085693359375 C 100.27195739746094 118.9555435180664 133.8533477783203 219.5769500732422 7.893527030944824 282.7047119140625 C -52.64765167236328 80.11583709716797 34.73136520385742 84.39051055908203 53.82750701904297 91.17932891845703 C 40.23497772216797 82.98394775390625 59.990169525146484 43.37850570678711 55.82101821899414 38.27646255493164 C 42.09145736694336 52.075923919677734 60.51588821411133 29.674779891967773 144.625 36.969085693359375" stroke-width="0.0" fill="rgb(94, 206, 121)" opacity="0.090687126" stroke="rgb(0, 0, 0)" stroke-opacity="1.0" stroke-linecap="round" stroke-linejoin="round"/>
    <path d="M 316.4270324707031 176.3179168701172 C 347.20220947265625 211.27145385742188 312.9995422363281 204.7974090576172 305.28997802734375 223.33407592773438 C 258.5113220214844 201.87342834472656 284.1302185058594 161.91897583007812 229.61532592773438 206.28463745117188 C 199.88861083984375 89.50688171386719 223.85244750976562 82.3779525756836 290.84930419921875 139.23614501953125 C 265.4930419921875 166.9966583251953 304.1827392578125 204.5681915283203 316.4270324707031 176.3179168701172" stroke-width="0.0" fill="rgb(89, 95, 97)" opacity="0.99533814" stroke="rgb(0, 0, 0)" stroke-opacity="1.0" stroke-linecap="round" stroke-linejoin="round"/>
    <path d="M 244.89988708496094 153.63333129882812 C 251.82077026367188 185.72837829589844 243.66848754882812 194.2723846435547 230.2322540283203 165.62667846679688 C 217.95089721679688 179.56483459472656 211.97650146484375 189.20199584960938 210.35159301757812 165.5291290283203 C 217.59225463867188 144.2652130126953 235.3799285888672 147.01768493652344 215.25794982910156 133.7679443359375 C 229.7415313720703 136.25132751464844 233.85684204101562 141.69578552246094 244.89988708496094 153.63333129882812" stroke-width="0.0" fill="rgb(255, 255, 255)" opacity="1.0" stroke="rgb(0, 0, 0)" stroke-opacity="1.0" stroke-linecap="round" stroke-linejoin="round"/>
    <path d="M 335.6697082519531 445.1900329589844 C 346.2829895019531 446.8661804199219 321.17730712890625 464.5140686035156 310.8635559082031 449.8988952636719 C 326.2943115234375 442.2049255371094 287.1566162109375 448.9248046875 253.46466064453125 456.977783203125 C 281.18438720703125 443.5105895996094 307.5469055175781 442.5976867675781 292.4850769042969 437.54949951171875 C 284.5441589355469 450.5037536621094 320.36663818359375 454.843505859375 335.6697082519531 445.1900329589844" stroke-width="0.0" fill="rgb(255, 250, 82)" opacity="1.0" stroke="rgb(0, 0, 0)" stroke-opacity="1.0" stroke-linecap="round" stroke-linejoin="round"/>
    <path d="M 315.827880859375 469.9551086425781 C 311.9450988769531 469.3773498535156 279.8929138183594 492.5803527832031 282.406005859375 494.7158203125 C 260.0977478027344 479.67486572265625 189.2621612548828 504.23175048828125 124.51506805419922 421.5074462890625 C 202.31787109375 480.4673767089844 250.49314880371094 467.3011779785156 230.4992218017578 447.6011657714844 C 302.07391357421875 420.0186462402344 252.8599090576172 470.892822265625 315.827880859375 469.9551086425781" stroke-width="0.0" fill="rgb(43, 181, 154)" opacity="1.0" stroke="rgb(0, 0, 0)" stroke-opacity="1.0" stroke-linecap="round" stroke-linejoin="round"/>
    <path d="M 280.55230712890625 157.6192626953125 C 314.79736328125 164.8580322265625 302.5516052246094 200.56005859375 283.2019958496094 183.62985229492188 C 276.75018310546875 111.80181121826172 281.5509338378906 129.36691284179688 280.9477233886719 132.7605438232422 C 280.7054748535156 100.45991516113281 282.1275939941406 133.353759765625 280.87481689453125 174.85389709472656 C 295.6105041503906 178.77171325683594 266.3897705078125 153.52227783203125 280.55230712890625 157.6192626953125" stroke-width="0.0" fill="rgb(0, 85, 102)" opacity="0.77486193" stroke="rgb(0, 0, 0)" stroke-opacity="1.0" stroke-linecap="round" stroke-linejoin="round"/>
    <path d="M 383.5931396484375 79.89490509033203 C 391.2440185546875 98.8091812133789 445.90106201171875 88.17558288574219 445.3055419921875 191.50328063964844 C 346.3882751464844 136.15948486328125 316.2339782714844 141.1240997314453 254.28469848632812 36.8152961730957 C 356.11822509765625 9.048181533813477 392.300537109375 67.76802825927734 398.8157653808594 56.34020233154297 C 404.8642883300781 64.15917205810547 424.531494140625 90.1215591430664 383.5931396484375 79.89490509033203" stroke-width="0.0" fill="rgb(93, 213, 89)" opacity="0.10144218" stroke="rgb(0, 0, 0)" stroke-opacity="1.0" stroke-linecap="round" stroke-linejoin="round"/>
    <path d="M 418.82696533203125 438.4034729003906 C 415.8049621582031 421.5747985839844 405.5455017089844 431.2370910644531 408.7472229003906 434.25775146484375 C 390.00030517578125 437.2693786621094 401.19647216796875 429.3078308105469 384.7655029296875 426.5231628417969 C 385.7036437988281 411.07696533203125 403.47119140625 350.8044738769531 408.14898681640625 358.6563720703125 C 438.3995056152344 389.7084045410156 402.33380126953125 419.43719482421875 418.82696533203125 438.4034729003906" stroke-width="0.0" fill="rgb(139, 226, 48)" opacity="0.14012808" stroke="rgb(0, 0, 0)" stroke-opacity="1.0" stroke-linecap="round" stroke-linejoin="round"/>
    <path d="M 350.73907470703125 105.95362854003906 C 361.8304748535156 124.54187774658203 359.96356201171875 132.8399200439453 350.8201599121094 138.05816650390625 C 342.5164794921875 86.30304718017578 333.4698181152344 77.64295196533203 299.4516906738281 83.0868911743164 C 307.8592834472656 120.85199737548828 331.6824645996094 106.18059539794922 325.4804382324219 80.0957260131836 C 333.4278259277344 103.26313018798828 335.06097412109375 104.90406799316406 350.73907470703125 105.95362854003906" stroke-width="0.0" fill="rgb(87, 223, 100)" opacity="0.5360326" stroke="rgb(0, 0, 0)" stroke-opacity="1.0" stroke-linecap="round" stroke-linejoin="round"/>
    <path d="M 460.89129638671875 511.58660888671875 C 467.1217346191406 532.12548828125 461.2481994628906 530.7584228515625 429.9725036621094 523.4041137695312 C 421.7062072753906 516.5728149414062 432.7099914550781 505.3089294433594 423.1148986816406 507.62835693359375 C 432.85919189453125 469.7635192871094 434.6028137207031 453.9985046386719 434.0496826171875 450.0338134765625 C 455.214111328125 447.0233459472656 449.80133056640625 453.39617919921875 460.89129638671875 511.58660888671875" stroke-width="0.0" fill="rgb(115, 232, 23)" opacity="0.26431468" stroke="rgb(0, 0, 0)" stroke-opacity="1.0" stroke-linecap="round" stroke-linejoin="round"/>
    <path d="M 207.46878051757812 438.40655517578125 C 171.9591064453125 450.424072265625 171.766357421875 457.8013610839844 159.39532470703125 449.83984375 C 139.94204711914062 451.5400695800781 125.88689422607422 433.8326721191406 124.995849609375 412.8860778808594 C 135.04052734375 407.16888427734375 151.26654052734375 429.05511474609375 170.2254180908203 379.0739440917969 C 179.7178497314453 363.5013122558594 173.10255432128906 416.620361328125 207.46878051757812 438.40655517578125" stroke-width="0.0" fill="rgb(11, 195, 129)" opacity="1.0" stroke="rgb(0, 0, 0)" stroke-opacity="1.0" stroke-linecap="round" stroke-linejoin="round"/>
    <path d="M 186.78387451171875 424.31976318359375 C 153.70774841308594 428.649658203125 153.91659545898438 421.134765625 173.6931915283203 410.54119873046875 C 163.9161376953125 443.05029296875 172.6778106689453 436.092041015625 178.60516357421875 430.8565368652344 C 151.18161010742188 422.8414306640625 134.8959197998047 381.8160705566406 170.7227783203125 332.9019470214844 C 202.44076538085938 397.5753479003906 203.47352600097656 415.80291748046875 186.78387451171875 424.31976318359375" stroke-width="0.0" fill="rgb(90, 126, 159)" opacity="0.16980368" stroke="rgb(0, 0, 0)" stroke-opacity="1.0" stroke-linecap="round" stroke-linejoin="round"/>
    <path d="M 204.77769470214844 212.89796447753906 C 220.03115844726562 235.17770385742188 208.61334228515625 252.74520874023438 182.412109375 250.44810485839844 C 161.64817810058594 265.46148681640625 177.03855895996094 291.9531555175781 203.57321166992188 230.47988891601562 C 190.0282745361328 223.3374786376953 199.26565551757812 231.70852661132812 203.1857147216797 220.86485290527344 C 210.21424865722656 225.70303344726562 205.38101196289062 216.60179138183594 204.77769470214844 212.89796447753906" stroke-width="0.0" fill="rgb(69, 108, 79)" opacity="0.0" stroke="rgb(0, 0, 0)" stroke-opacity="1.0" stroke-linecap="round" stroke-linejoin="round"/>
    <path d="M 473.02789306640625 469.0209045410156 C 449.63140869140625 474.1975402832031 460.4250183105469 472.28594970703125 433.03851318359375 456.0838317871094 C 443.839599609375 463.9435729980469 427.5593566894531 449.1070251464844 431.0610656738281 459.9404602050781 C 421.4932861328125 451.51348876953125 433.4901123046875 422.6044006347656 431.60064697265625 431.70867919921875 C 446.5502624511719 438.7071228027344 462.231201171875 439.15423583984375 473.02789306640625 469.0209045410156" stroke-width="0.0" fill="rgb(125, 231, 37)" opacity="0.17526166" stroke="rgb(0, 0, 0)" stroke-opacity="1.0" stroke-linecap="round" stroke-linejoin="round"/>
    <path d="M 297.9140319824219 53.1835823059082 C 332.088134765625 23.26057243347168 314.91082763671875 45.598819732666016 262.02392578125 63.05757522583008 C 230.6705780029297 73.79681396484375 247.76158142089844 63.64447021484375 253.74864196777344 -0.8688576817512512 C 258.9880065917969 -25.76025390625 264.1081237792969 -26.828033447265625 280.61566162109375 -77.66905212402344 C 291.5086669921875 -51.05548858642578 292.2066345214844 2.7897961139678955 297.9140319824219 53.1835823059082" stroke-width="0.0" fill="rgb(27, 137, 41)" opacity="0.3815688" stroke="rgb(0, 0, 0)" stroke-opacity="1.0" stroke-linecap="round" stroke-linejoin="round"/>
    <path d="M 93.13602447509766 124.67963409423828 C 101.56980895996094 110.99542999267578 98.55409240722656 129.14892578125 96.7876205444336 153.56472778320312 C 64.89701843261719 122.2865982055664 95.86292266845703 100.72382354736328 67.14039611816406 107.02730560302734 C 72.06649780273438 85.37186431884766 82.17149353027344 109.11759948730469 70.14788055419922 90.64583587646484 C 93.70548248291016 83.91084289550781 100.13186645507812 86.5757827758789 93.13602447509766 124.67963409423828" stroke-width="0.0" fill="rgb(103, 213, 59)" opacity="0.023606408" stroke="rgb(0, 0, 0)" stroke-opacity="1.0" stroke-linecap="round" stroke-linejoin="round"/>
    <path d="M 344.5041198730469 375.1820373535156 C 356.9478454589844 363.14276123046875 333.5315856933594 384.282958984375 326.5470275878906 422.68450927734375 C 286.3926086425781 457.166748046875 287.56463623046875 452.3224182128906 308.1106872558594 389.3451843261719 C 295.7089538574219 352.3791198730469 325.6241149902344 360.70172119140625 340.90386962890625 325.5902099609375 C 365.8465576171875 350.61578369140625 356.77587890625 397.92559814453125 344.5041198730469 375.1820373535156" stroke-width="0.0" fill="rgb(175, 110, 117)" opacity="0.28543124" stroke="rgb(0, 0, 0)" stroke-opacity="1.0" stroke-linecap="round" stroke-linejoin="round"/>
    <path d="M 100.84813690185547 454.99774169921875 C 92.64158630371094 471.08795166015625 100.56134033203125 470.7966003417969 91.79493713378906 465.80535888671875 C 62.15793991088867 458.113037109375 60.35533142089844 454.4014587402344 92.3855209350586 459.1164245605469 C 78.73882293701172 464.5289306640625 81.05978393554688 470.1516418457031 100.1300277709961 458.951171875 C 89.1087417602539 430.07879638671875 101.51425170898438 426.9380798339844 100.84813690185547 454.99774169921875" stroke-width="0.0" fill="rgb(12, 177, 113)" opacity="0.0" stroke="rgb(0, 0, 0)" stroke-opacity="1.0" stroke-linecap="round" stroke-linejoin="round"/>
    <path d="M 325.44464111328125 198.66481018066406 C 301.1616516113281 202.439697265625 282.15704345703125 198.5835723876953 304.02972412109375 171.11390686035156 C 293.6630554199219 175.07806396484375 292.3695068359375 147.6299591064453 279.12567138671875 189.58535766601562 C 268.09478759765625 174.169189453125 277.5750732421875 136.28369140625 297.1575622558594 141.8112335205078 C 305.41461181640625 140.24447631835938 312.01605224609375 165.51663208007812 325.44464111328125 198.66481018066406" stroke-width="0.0" fill="rgb(255, 255, 255)" opacity="1.0" stroke="rgb(0, 0, 0)" stroke-opacity="1.0" stroke-linecap="round" stroke-linejoin="round"/>
    <path d="M 439.13421630859375 474.3483581542969 C 434.7104187011719 469.7320861816406 430.5970764160156 461.20013427734375 425.772216796875 457.9061584472656 C 409.706787109375 469.1894226074219 394.61865234375 475.72540283203125 374.6455078125 471.78167724609375 C 373.30792236328125 439.41424560546875 369.5660705566406 423.5934143066406 414.29742431640625 413.79888916015625 C 417.9006042480469 418.1498718261719 430.8680114746094 441.50372314453125 439.13421630859375 474.3483581542969" stroke-width="0.0" fill="rgb(127, 236, 67)" opacity="0.08956144" stroke="rgb(0, 0, 0)" stroke-opacity="1.0" stroke-linecap="round" stroke-linejoin="round"/>
    <path d="M 332.17523193359375 44.388771057128906 C 303.1017150878906 119.483154296875 341.1378173828125 102.77841186523438 205.32028198242188 103.35779571533203 C 205.52880859375 55.14435958862305 173.15890502929688 46.489376068115234 202.09661865234375 42.988895416259766 C 214.6109161376953 80.84981536865234 268.7646179199219 60.464569091796875 247.1247100830078 32.26789855957031 C 298.0526123046875 -4.198983669281006 238.0019073486328 106.15888977050781 332.17523193359375 44.388771057128906" stroke-width="0.0" fill="rgb(249, 168, 9)" opacity="0.9499395" stroke="rgb(0, 0, 0)" stroke-opacity="1.0" stroke-linecap="round" stroke-linejoin="round"/>
    <path d="M 111.2438735961914 317.87335205078125 C 117.82231140136719 364.0003662109375 143.71766662597656 346.6026306152344 111.81140899658203 361.3457946777344 C 117.14602661132812 346.2540588378906 105.47870635986328 332.44818115234375 93.69205474853516 331.8308410644531 C 95.88938903808594 332.5909423828125 90.7311019897461 329.61212158203125 91.0023422241211 324.3205871582031 C 104.72879791259766 328.35833740234375 91.2701416015625 295.15374755859375 111.2438735961914 317.87335205078125" stroke-width="0.0" fill="rgb(50, 180, 166)" opacity="0.022012014" stroke="rgb(0, 0, 0)" stroke-opacity="1.0" stroke-linecap="round" stroke-linejoin="round"/>
    <path d="M 515.4036254882812 215.2796173095703 C 504.4814147949219 209.52938842773438 517.82763671875 272.3601379394531 492.4317626953125 253.51551818847656 C 466.2803039550781 269.1568603515625 466.5428466796875 236.4779052734375 467.931640625 218.82911682128906 C 447.71453857421875 189.2902374267578 446.5148620605469 163.6350860595703 484.6734924316406 163.98126220703125 C 518.8031005859375 191.72027587890625 519.4103393554688 208.0276336669922 515.4036254882812 215.2796173095703" stroke-width="0.0" fill="rgb(52, 212, 119)" opacity="0.05504815" stroke="rgb(0, 0, 0)" stroke-opacity="1.0" stroke-linecap="round" stroke-linejoin="round"/>
    <path d="M 437.353515625 258.7703552246094 C 447.8010559082031 259.0738220214844 446.45111083984375 281.5671081542969 465.0702209472656 269.5995178222656 C 466.26708984375 283.9281921386719 462.2783508300781 325.1422424316406 439.0033264160156 342.88946533203125 C 428.473876953125 293.7594909667969 430.83245849609375 240.7137908935547 444.9679260253906 234.7796630859375 C 445.45660400390625 264.8708190917969 464.0662841796875 286.5694885253906 437.353515625 258.7703552246094" stroke-width="0.0" fill="rgb(115, 225, 69)" opacity="0.04556354" stroke="rgb(0, 0, 0)" stroke-opacity="1.0" stroke-linecap="round" stroke-linejoin="round"/>
    <path d="M 495.7436828613281 70.81979370117188 C 498.6225280761719 71.16561126708984 501.4696044921875 97.75263977050781 490.6772155761719 97.15824890136719 C 474.0415954589844 68.79446411132812 466.1800842285156 58.924957275390625 461.4983825683594 48.34953308105469 C 476.48760986328125 67.82843780517578 491.827392578125 77.1770248413086 486.7250671386719 71.91741180419922 C 489.90350341796875 69.03854370117188 520.3349609375 75.11164855957031 495.7436828613281 70.81979370117188" stroke-width="0.0" fill="rgb(47, 205, 71)" opacity="0.014002253" stroke="rgb(0, 0, 0)" stroke-opacity="1.0" stroke-linecap="round" stroke-linejoin="round"/>
    <path d="M 33.10870361328125 202.5016632080078 C 33.697296142578125 206.32833862304688 36.20148468017578 213.9407196044922 20.629131317138672 195.67672729492188 C 0.8685923218727112 233.9750518798828 31.35711669921875 226.94593811035156 57.360321044921875 215.57229614257812 C 66.4591293334961 173.5769500732422 73.53150939941406 173.689208984375 5.049899578094482 183.05413818359375 C -13.758125305175781 170.523681640625 -2.858930826187134 204.15924072265625 33.10870361328125 202.5016632080078" stroke-width="0.0" fill="rgb(32, 213, 83)" opacity="0.0" stroke="rgb(0, 0, 0)" stroke-opacity="1.0" stroke-linecap="round" stroke-linejoin="round"/>
    <path d="M 122.188232421875 324.43365478515625 C 115.83148956298828 338.0921325683594 113.52171325683594 357.2810363769531 108.9959487915039 362.9530334472656 C 79.47196960449219 362.71148681640625 79.97187042236328 344.2051696777344 84.28691864013672 341.33868408203125 C 86.7183609008789 337.9710998535156 90.9679183959961 320.2643737792969 112.1111831665039 313.32275390625 C 138.25462341308594 313.6910705566406 126.59602355957031 310.5411682128906 122.188232421875 324.43365478515625" stroke-width="0.0" fill="rgb(34, 194, 101)" opacity="0.026443318" stroke="rgb(0, 0, 0)" stroke-opacity="1.0" stroke-linecap="round" stroke-linejoin="round"/>
    <path d="M 20.59917449951172 89.55162048339844 C 29.336580276489258 89.60292053222656 13.274439811706543 90.91444396972656 2.0169622898101807 96.20413970947266 C 51.35952377319336 101.42498016357422 25.743602752685547 59.75383758544922 11.19200325012207 81.31343078613281 C 25.70355224609375 92.53899383544922 17.79237937927246 61.999881744384766 21.300249099731445 47.59949493408203 C 32.96603012084961 63.24663162231445 30.55843734741211 95.78527069091797 20.59917449951172 89.55162048339844" stroke-width="0.0" fill="rgb(82, 218, 59)" opacity="0.0013364966" stroke="rgb(0, 0, 0)" stroke-opacity="1.0" stroke-linecap="round" stroke-linejoin="round"/>
    <path d="M 170.1322021484375 186.70103454589844 C 181.6372528076172 215.0587615966797 180.3277130126953 206.45001220703125 146.9973907470703 174.0406494140625 C 118.96959686279297 181.80357360839844 100.63768005371094 197.0859375 110.8609390258789 218.90220642089844 C 106.81876373291016 193.88319396972656 134.4116973876953 159.89691162109375 142.61473083496094 194.26095581054688 C 218.3709716796875 170.1834716796875 234.42271423339844 181.2200164794922 170.1322021484375 186.70103454589844" stroke-width="0.0" fill="rgb(0, 159, 201)" opacity="0.0" stroke="rgb(0, 0, 0)" stroke-opacity="1.0" stroke-linecap="round" stroke-linejoin="round"/>
    <path d="M 49.57305145263672 232.6460723876953 C 66.36531066894531 235.24208068847656 51.08141326904297 219.37594604492188 -1.4311410188674927 218.750732421875 C 16.82630729675293 188.73812866210938 0.9307400584220886 160.735107421875 27.868776321411133 175.92919921875 C 21.224061965942383 195.5904998779297 7.199768543243408 175.84420776367188 41.96014404296875 173.57894897460938 C 51.27632522583008 153.60946655273438 50.17777633666992 183.88511657714844 49.57305145263672 232.6460723876953" stroke-width="0.0" fill="rgb(68, 185, 134)" opacity="0.0" stroke="rgb(0, 0, 0)" stroke-opacity="1.0" stroke-linecap="round" stroke-linejoin="round"/>
    <path d="M 81.64469146728516 37.98296356201172 C 92.80033874511719 54.259178161621094 83.19738006591797 70.88743591308594 59.05526351928711 57.728328704833984 C 66.01373291015625 73.70886993408203 45.837215423583984 58.17391586303711 50.799007415771484 49.996681213378906 C 49.56523132324219 45.1671028137207 50.952178955078125 28.35489273071289 60.556793212890625 41.435420989990234 C 95.27996063232422 36.84441375732422 84.52904510498047 45.87587356567383 81.64469146728516 37.98296356201172" stroke-width="0.0" fill="rgb(74, 234, 133)" opacity="0.041046474" stroke="rgb(0, 0, 0)" stroke-opacity="1.0" stroke-linecap="round" stroke-linejoin="round"/>
    <path d="M 56.09117126464844 178.52304077148438 C 68.16893005371094 206.2941436767578 64.70860290527344 216.1232147216797 51.143333435058594 215.24746704101562 C 18.839370727539062 200.73683166503906 0.07678870111703873 206.23431396484375 7.965657711029053 209.06288146972656 C 21.687274932861328 190.17330932617188 39.027809143066406 185.5686798095703 61.001678466796875 172.75189208984375 C 47.123043060302734 167.2388458251953 51.794437408447266 171.44189453125 56.09117126464844 178.52304077148438" stroke-width="0.0" fill="rgb(33, 225, 96)" opacity="0.08612067" stroke="rgb(0, 0, 0)" stroke-opacity="1.0" stroke-linecap="round" stroke-linejoin="round"/>
    <path d="M 325.7919006347656 334.07183837890625 C 326.2209167480469 354.751708984375 345.89892578125 362.8171691894531 305.2809753417969 363.5723571777344 C 253.504638671875 356.2781066894531 260.8031921386719 356.81695556640625 267.92242431640625 323.07781982421875 C 272.1632995605469 296.8160705566406 274.373046875 291.0863952636719 314.0341796875 269.76934814453125 C 339.9765930175781 298.6145935058594 335.4200134277344 310.2052917480469 325.7919006347656 334.07183837890625" stroke-width="0.0" fill="rgb(245, 255, 137)" opacity="0.016558098" stroke="rgb(0, 0, 0)" stroke-opacity="1.0" stroke-linecap="round" stroke-linejoin="round"/>
    <path d="M 365.587646484375 434.396728515625 C 383.5306701660156 438.4534912109375 366.98077392578125 451.4084777832031 351.7992248535156 433.9539794921875 C 323.7524108886719 458.9659729003906 307.409423828125 440.3487243652344 342.99224853515625 414.61553955078125 C 330.6727294921875 379.66534423828125 326.3157043457031 383.7371826171875 329.9795227050781 400.0020751953125 C 353.1194763183594 416.1868896484375 361.5977783203125 406.6187438964844 365.587646484375 434.396728515625" stroke-width="0.0" fill="rgb(2, 230, 188)" opacity="0.12884885" stroke="rgb(0, 0, 0)" stroke-opacity="1.0" stroke-linecap="round" stroke-linejoin="round"/>
    <path d="M 337.6294860839844 435.9861145019531 C 350.0521545410156 421.8726501464844 321.1455383300781 429.7500305175781 285.16070556640625 415.3153991699219 C 299.0304260253906 418.6553955078125 318.3670654296875 407.277099609375 347.6843566894531 390.5547790527344 C 338.1982727050781 407.72918701171875 327.99505615234375 416.9278259277344 316.48052978515625 400.0933837890625 C 338.0885009765625 398.41912841796875 334.8548583984375 396.8098449707031 337.6294860839844 435.9861145019531" stroke-width="0.0" fill="rgb(194, 153, 235)" opacity="0.10649656" stroke="rgb(0, 0, 0)" stroke-opacity="1.0" stroke-linecap="round" stroke-linejoin="round"/>
    <path d="M 526.8997192382812 238.6667022705078 C 516.4107055664062 253.8442840576172 516.8554077148438 259.79107666015625 513.0443725585938 263.53375244140625 C 496.14373779296875 262.396484375 485.6824951171875 252.41342163085938 457.20050048828125 253.4622039794922 C 462.29620361328125 226.88095092773438 480.8894958496094 239.00926208496094 521.5257568359375 235.7657012939453 C 510.9619140625 215.50254821777344 510.0548095703125 212.0356903076172 526.8997192382812 238.6667022705078" stroke-width="0.0" fill="rgb(74, 220, 86)" opacity="0.010094438" stroke="rgb(0, 0, 0)" stroke-opacity="1.0" stroke-linecap="round" stroke-linejoin="round"/>
    <path d="M 462.6426696777344 146.74496459960938 C 455.3269958496094 185.1495819091797 439.67144775390625 193.5008544921875 433.5335693359375 173.09690856933594 C 427.5341796875 139.6551971435547 411.8651428222656 118.36567687988281 395.32244873046875 157.06631469726562 C 362.83587646484375 159.94700622558594 398.6182556152344 140.42596435546875 419.4187316894531 128.10794067382812 C 459.27203369140625 134.43919372558594 463.7829895019531 122.23753356933594 462.6426696777344 146.74496459960938" stroke-width="0.0" fill="rgb(61, 212, 127)" opacity="0.029698195" stroke="rgb(0, 0, 0)" stroke-opacity="1.0" stroke-linecap="round" stroke-linejoin="round"/>
    <path d="M 460.5189208984375 309.1257629394531 C 463.539794921875 318.750732421875 458.07562255859375 339.2261657714844 439.8712463378906 365.0209655761719 C 406.1267395019531 348.81396484375 407.727783203125 329.5943603515625 405.8810119628906 298.4960632324219 C 410.4036560058594 291.9188232421875 394.1394958496094 321.12060546875 385.7812805175781 288.8607482910156 C 423.38360595703125 290.85919189453125 434.40911865234375 294.0321960449219 460.5189208984375 309.1257629394531" stroke-width="0.0" fill="rgb(119, 223, 91)" opacity="0.025368107" stroke="rgb(0, 0, 0)" stroke-opacity="1.0" stroke-linecap="round" stroke-linejoin="round"/>
    <path d="M 450.201416015625 79.19318389892578 C 423.3547668457031 94.16239929199219 399.0640563964844 101.427490234375 396.3676452636719 88.01042175292969 C 390.5298767089844 75.2995834350586 370.3088684082031 67.26344299316406 413.9259033203125 72.58413696289062 C 420.1974182128906 74.12633514404297 413.3925476074219 10.373807907104492 395.0667419433594 55.575233459472656 C 412.21697998046875 50.989078521728516 433.70849609375 56.391883850097656 450.201416015625 79.19318389892578" stroke-width="0.0" fill="rgb(71, 213, 108)" opacity="0.0434067" stroke="rgb(0, 0, 0)" stroke-opacity="1.0" stroke-linecap="round" stroke-linejoin="round"/>
    <path d="M 423.67584228515625 467.9977722167969 C 432.07147216796875 470.1300048828125 418.0747985839844 467.1183776855469 405.8861083984375 447.6507263183594 C 359.8456115722656 456.5036315917969 360.47637939453125 442.6458740234375 369.01971435546875 461.70855712890625 C 396.6352844238281 446.792724609375 380.46002197265625 448.6746520996094 389.441162109375 409.1187744140625 C 390.91455078125 432.80364990234375 376.1531677246094 462.9591064453125 423.67584228515625 467.9977722167969" stroke-width="0.0" fill="rgb(32, 202, 87)" opacity="0.0" stroke="rgb(0, 0, 0)" stroke-opacity="1.0" stroke-linecap="round" stroke-linejoin="round"/>
    <path d="M 32.6730842590332 77.7664566040039 C 22.065332412719727 77.69222259521484 25.0648136138916 111.626953125 11.023953437805176 100.75879669189453 C 17.88245964050293 93.95767211914062 5.667512893676758 78.55016326904297 19.930683135986328 96.43476104736328 C 46.832767486572266 62.92526626586914 66.06234741210938 79.37397003173828 39.165740966796875 91.47608947753906 C 21.66415786743164 72.32080078125 19.3452205657959 86.22872161865234 32.6730842590332 77.7664566040039" stroke-width="0.0" fill="rgb(100, 234, 117)" opacity="0.003910388" stroke="rgb(0, 0, 0)" stroke-opacity="1.0" stroke-linecap="round" stroke-linejoin="round"/>
    <path d="M 213.8203125 414.3807373046875 C 204.1988067626953 419.3164367675781 192.5261688232422 438.59234619140625 180.23268127441406 449.29168701171875 C 177.1462860107422 452.60430908203125 188.15357971191406 426.34100341796875 182.2284393310547 399.76727294921875 C 168.44451904296875 404.83221435546875 159.24855041503906 403.9552307128906 180.2167205810547 406.41790771484375 C 191.57020568847656 401.9044494628906 194.348876953125 405.1697998046875 213.8203125 414.3807373046875" stroke-width="0.0" fill="rgb(186, 148, 234)" opacity="0.023711944" stroke="rgb(0, 0, 0)" stroke-opacity="1.0" stroke-linecap="round" stroke-linejoin="round"/>
    <path d="M 328.4920349121094 158.8975372314453 C 339.2490234375 194.7066650390625 336.8757629394531 199.90994262695312 313.9710998535156 199.9402313232422 C 302.4437255859375 194.5591278076172 304.3895263671875 180.89804077148438 322.9471435546875 175.98855590820312 C 322.395751953125 158.37962341308594 313.9307861328125 156.76315307617188 329.7510070800781 144.07606506347656 C 346.5628662109375 135.3814697265625 347.7349853515625 142.7657928466797 328.4920349121094 158.8975372314453" stroke-width="0.0" fill="rgb(181, 14, 46)" opacity="0.33768293" stroke="rgb(0, 0, 0)" stroke-opacity="1.0" stroke-linecap="round" stroke-linejoin="round"/>
  </g>
</svg>
