<?xml version="1.0" ?>
<svg xmlns="http://www.w3.org/2000/svg" version="1.1" width="512" height="512">
  <defs/>
  <g>
    <path d="M 246.71788024902344 362.6877746582031 C 145.4718475341797 545.6670532226562 136.90908813476562 354.55938720703125 121.6976318359375 443.380126953125 C 59.06853103637695 422.0442810058594 -8.776961326599121 306.0272521972656 92.15625 189.42051696777344 C 90.91471099853516 359.8019104003906 98.01727294921875 278.4747009277344 98.01585388183594 335.6875915527344 C 80.10376739501953 356.18975830078125 56.07758712768555 317.02850341796875 246.71788024902344 362.6877746582031" stroke-width="0.0" fill="rgb(36, 23, 0)" opacity="0.99967366" stroke="rgb(0, 0, 0)" stroke-opacity="1.0" stroke-linecap="round" stroke-linejoin="round"/>
    <path d="M 188.83688354492188 211.78659057617188 C 241.58660888671875 266.73291015625 150.58680725097656 285.2632141113281 179.1743621826172 314.13604736328125 C 128.79364013671875 315.085693359375 76.17118072509766 278.79180908203125 87.42691040039062 239.04087829589844 C 89.53103637695312 242.1555938720703 20.59758949279785 229.0294189453125 164.52679443359375 206.61248779296875 C 180.13380432128906 266.6537170410156 192.7316131591797 243.12188720703125 188.83688354492188 211.78659057617188" stroke-width="0.0" fill="rgb(39, 7, 12)" opacity="0.98351854" stroke="rgb(0, 0, 0)" stroke-opacity="1.0" stroke-linecap="round" stroke-linejoin="round"/>
    <path d="M 409.85089111328125 235.1055145263672 C 410.9079284667969 348.49462890625 225.0542449951172 259.07470703125 386.9539794921875 263.7538757324219 C 415.0195007324219 242.9884033203125 336.4006042480469 189.22337341308594 313.2873840332031 382.13653564453125 C 267.1224670410156 216.50497436523438 350.58331298828125 222.1822967529297 383.6332702636719 234.48394775390625 C 454.7668151855469 238.741455078125 412.0877380371094 233.3161163330078 409.85089111328125 235.1055145263672" stroke-width="0.0" fill="rgb(64, 30, 87)" opacity="0.75594056" stroke="rgb(0, 0, 0)" stroke-opacity="1.0" stroke-linecap="round" stroke-linejoin="round"/>
    <path d="M 190.27464294433594 181.3472137451172 C 155.26173400878906 261.77197265625 214.9495849609375 216.25552368164062 99.73136901855469 241.30332946777344 C 67.72467041015625 242.44476318359375 134.7443389892578 197.70008850097656 168.38722229003906 185.83335876464844 C 193.5981903076172 227.88780212402344 185.51443481445312 237.2179412841797 211.1094207763672 200.2088165283203 C 174.03884887695312 100.99388885498047 169.44163513183594 103.55004119873047 190.27464294433594 181.3472137451172" stroke-width="0.0" fill="rgb(110, 47, 21)" opacity="0.7058735" stroke="rgb(0, 0, 0)" stroke-opacity="1.0" stroke-linecap="round" stroke-linejoin="round"/>
    <path d="M 558.421142578125 333.1017150878906 C 556.87939453125 415.67388916015625 415.16021728515625 382.5986022949219 459.41265869140625 473.4158020019531 C 300.89794921875 324.81689453125 401.5592041015625 421.6130065917969 322.2673034667969 256.59661865234375 C 434.61376953125 358.9983825683594 303.3497009277344 321.875 397.1833190917969 318.33233642578125 C 457.2823181152344 359.99090576171875 393.85491943359375 375.40966796875 558.421142578125 333.1017150878906" stroke-width="0.0" fill="rgb(56, 51, 174)" opacity="0.5523767" stroke="rgb(0, 0, 0)" stroke-opacity="1.0" stroke-linecap="round" stroke-linejoin="round"/>
    <path d="M 441.51849365234375 218.2857208251953 C 461.837890625 291.3954772949219 488.70794677734375 318.536376953125 429.6898193359375 404.2414245605469 C 451.9677429199219 282.0457458496094 464.74273681640625 334.5953369140625 409.2215270996094 179.735595703125 C 468.45318603515625 107.51026153564453 493.30615234375 -45.77446365356445 496.4373779296875 61.30878448486328 C 457.15618896484375 209.64540100097656 495.6156921386719 176.10951232910156 441.51849365234375 218.2857208251953" stroke-width="0.0" fill="rgb(31, 9, 31)" opacity="0.94926953" stroke="rgb(0, 0, 0)" stroke-opacity="1.0" stroke-linecap="round" stroke-linejoin="round"/>
    <path d="M 347.7156066894531 289.0661926269531 C 283.2561340332031 324.6966552734375 327.57025146484375 382.72174072265625 352.95233154296875 344.184814453125 C 268.6195068359375 326.13665771484375 335.3717346191406 325.56231689453125 283.1924133300781 344.8598327636719 C 285.0822448730469 327.5720520019531 286.506591796875 250.02197265625 292.0886535644531 238.75479125976562 C 322.5713195800781 225.2412872314453 328.92584228515625 260.0264587402344 347.7156066894531 289.0661926269531" stroke-width="0.0" fill="rgb(240, 241, 255)" opacity="0.96803004" stroke="rgb(0, 0, 0)" stroke-opacity="1.0" stroke-linecap="round" stroke-linejoin="round"/>
    <path d="M 384.5075988769531 268.054443359375 C 410.9419860839844 245.19619750976562 395.1030578613281 245.2855682373047 393.48345947265625 228.8202362060547 C 375.20355224609375 217.1360626220703 362.9686584472656 206.16796875 320.8801574707031 207.23670959472656 C 304.4975280761719 281.9403381347656 356.7188720703125 252.5243682861328 336.86590576171875 221.460693359375 C 307.18865966796875 225.70240783691406 305.64703369140625 232.92091369628906 384.5075988769531 268.054443359375" stroke-width="0.0" fill="rgb(50, 25, 69)" opacity="0.9570438" stroke="rgb(0, 0, 0)" stroke-opacity="1.0" stroke-linecap="round" stroke-linejoin="round"/>
    <path d="M 56.71773147583008 96.37509155273438 C 90.94986724853516 180.43360900878906 47.97574996948242 122.1642837524414 206.1458282470703 121.8407974243164 C 41.853572845458984 179.07470703125 62.13579559326172 321.132568359375 20.838109970092773 83.32610321044922 C 3.1991541385650635 -16.152467727661133 58.87911605834961 -60.450626373291016 168.67996215820312 120.2165298461914 C 31.850191116333008 45.06771469116211 48.29700469970703 12.594917297363281 56.71773147583008 96.37509155273438" stroke-width="0.0" fill="rgb(28, 11, 3)" opacity="0.98509836" stroke="rgb(0, 0, 0)" stroke-opacity="1.0" stroke-linecap="round" stroke-linejoin="round"/>
    <path d="M 232.02891540527344 261.16827392578125 C 213.2948760986328 269.90167236328125 329.4674377441406 248.4163055419922 306.36669921875 324.8265380859375 C 32.40986633300781 385.35235595703125 164.78659057617188 320.34814453125 177.93087768554688 261.1431579589844 C 141.5918426513672 181.48178100585938 197.533203125 217.84222412109375 192.5740203857422 258.1961975097656 C 221.63584899902344 282.8812255859375 207.3656463623047 259.35345458984375 232.02891540527344 261.16827392578125" stroke-width="0.0" fill="rgb(18, 9, 38)" opacity="0.94190675" stroke="rgb(0, 0, 0)" stroke-opacity="1.0" stroke-linecap="round" stroke-linejoin="round"/>
    <path d="M 400.77154541015625 262.41162109375 C 393.3941345214844 236.44509887695312 388.0992431640625 244.0146484375 386.35443115234375 253.931884765625 C 383.6309509277344 277.9476318359375 359.0329284667969 285.7127380371094 346.1257019042969 258.5123291015625 C 363.74066162109375 237.4507293701172 375.3728942871094 292.63079833984375 399.41412353515625 263.1387023925781 C 395.6134948730469 232.70420837402344 381.20977783203125 235.43634033203125 400.77154541015625 262.41162109375" stroke-width="0.0" fill="rgb(191, 121, 113)" opacity="0.7996108" stroke="rgb(0, 0, 0)" stroke-opacity="1.0" stroke-linecap="round" stroke-linejoin="round"/>
    <path d="M 484.6382141113281 -8.981385231018066 C 321.0645751953125 71.88853454589844 402.8534240722656 109.60508728027344 250.29165649414062 108.18359375 C 133.04623413085938 112.54129028320312 191.59934997558594 70.21587371826172 1.962914228439331 -30.25205421447754 C 212.55690002441406 43.35649871826172 78.8144302368164 107.5342788696289 309.3708190917969 89.08482360839844 C 364.3310546875 90.37908172607422 377.12139892578125 3.9052889347076416 484.6382141113281 -8.981385231018066" stroke-width="0.0" fill="rgb(33, 3, 23)" opacity="0.9761708" stroke="rgb(0, 0, 0)" stroke-opacity="1.0" stroke-linecap="round" stroke-linejoin="round"/>
    <path d="M 330.0322570800781 372.8445739746094 C 69.88590240478516 453.8441467285156 184.21038818359375 339.4046936035156 133.35012817382812 398.8509826660156 C 123.60696411132812 409.8883972167969 152.8870391845703 364.8800964355469 154.4501190185547 364.22125244140625 C 155.7918243408203 338.91717529296875 159.58602905273438 307.2781066894531 189.65631103515625 300.26800537109375 C 289.1932067871094 311.5887145996094 357.87042236328125 307.9647216796875 330.0322570800781 372.8445739746094" stroke-width="0.0" fill="rgb(209, 252, 255)" opacity="1.0" stroke="rgb(0, 0, 0)" stroke-opacity="1.0" stroke-linecap="round" stroke-linejoin="round"/>
    <path d="M 464.8712158203125 49.3101806640625 C 477.8200988769531 19.340185165405273 482.11474609375 31.232004165649414 471.7489013671875 90.52552032470703 C 445.9189147949219 91.5342025756836 466.6551818847656 108.81184387207031 444.1163635253906 99.33033752441406 C 463.5248718261719 -25.04153823852539 452.4604187011719 -67.38725280761719 466.73565673828125 -22.548377990722656 C 487.3619689941406 28.279481887817383 505.290771484375 44.230506896972656 464.8712158203125 49.3101806640625" stroke-width="0.0" fill="rgb(71, 53, 88)" opacity="0.6072989" stroke="rgb(0, 0, 0)" stroke-opacity="1.0" stroke-linecap="round" stroke-linejoin="round"/>
    <path d="M 474.99322509765625 36.041778564453125 C 337.2900695800781 128.1096649169922 461.20947265625 127.28923797607422 416.14324951171875 189.25885009765625 C 316.85003662109375 59.70104217529297 323.4854431152344 127.00404357910156 364.63397216796875 60.74348068237305 C 339.47503662109375 100.6742172241211 376.3280944824219 26.514392852783203 344.379638671875 100.09494018554688 C 353.68408203125 101.38932037353516 441.8375549316406 -15.284998893737793 474.99322509765625 36.041778564453125" stroke-width="0.0" fill="rgb(39, 0, 31)" opacity="0.9693561" stroke="rgb(0, 0, 0)" stroke-opacity="1.0" stroke-linecap="round" stroke-linejoin="round"/>
    <path d="M 468.3822937011719 415.762939453125 C 439.94317626953125 419.449951171875 519.4491577148438 555.0068969726562 429.5180969238281 502.7064514160156 C 401.3645324707031 342.2788391113281 461.33343505859375 448.5357666015625 401.45166015625 355.4841003417969 C 556.8350219726562 448.6582336425781 349.16387939453125 359.8899230957031 415.7936706542969 335.7742004394531 C 469.7570495605469 399.819580078125 498.0798645019531 399.8872985839844 468.3822937011719 415.762939453125" stroke-width="0.0" fill="rgb(240, 220, 172)" opacity="0.9837254" stroke="rgb(0, 0, 0)" stroke-opacity="1.0" stroke-linecap="round" stroke-linejoin="round"/>
    <path d="M 486.1867370605469 50.81972122192383 C 451.4880676269531 24.3679256439209 492.82550048828125 53.75840759277344 437.0765075683594 157.58580017089844 C 398.35577392578125 97.91320037841797 416.3880310058594 162.48861694335938 443.580078125 44.789371490478516 C 455.421142578125 37.59733963012695 463.94024658203125 17.137622833251953 463.0722961425781 45.86323547363281 C 438.5927429199219 -4.406092643737793 485.860595703125 -30.628009796142578 486.1867370605469 50.81972122192383" stroke-width="0.0" fill="rgb(47, 15, 49)" opacity="0.6049027" stroke="rgb(0, 0, 0)" stroke-opacity="1.0" stroke-linecap="round" stroke-linejoin="round"/>
    <path d="M 420.0595397949219 431.01507568359375 C 454.8746032714844 405.6699523925781 381.9858093261719 442.5725402832031 303.45562744140625 465.1246643066406 C 216.3995361328125 479.93792724609375 128.4365692138672 437.73553466796875 155.5527801513672 408.2478942871094 C 217.14881896972656 454.5770263671875 215.8783721923828 442.8214111328125 246.9849853515625 435.14990234375 C 270.26953125 428.352783203125 353.9665222167969 473.1055908203125 420.0595397949219 431.01507568359375" stroke-width="0.0" fill="rgb(25, 0, 16)" opacity="0.9509334" stroke="rgb(0, 0, 0)" stroke-opacity="1.0" stroke-linecap="round" stroke-linejoin="round"/>
    <path d="M 196.4294891357422 310.71649169921875 C 231.98861694335938 262.00341796875 265.9768981933594 269.88616943359375 205.82571411132812 304.3551940917969 C 175.09072875976562 283.0960693359375 236.69595336914062 286.11456298828125 236.5655059814453 241.7103729248047 C 180.160400390625 253.02821350097656 173.7464141845703 274.78155517578125 167.47242736816406 305.9222412109375 C 153.47711181640625 360.5523986816406 164.9647216796875 307.6814270019531 196.4294891357422 310.71649169921875" stroke-width="0.0" fill="rgb(255, 251, 255)" opacity="1.0" stroke="rgb(0, 0, 0)" stroke-opacity="1.0" stroke-linecap="round" stroke-linejoin="round"/>
    <path d="M 540.8006591796875 408.73291015625 C 468.6242980957031 555.4247436523438 411.91607666015625 506.5293273925781 427.6571044921875 418.0679931640625 C 449.0631408691406 382.8022155761719 464.2341003417969 392.96722412109375 475.05169677734375 397.66033935546875 C 478.8988037109375 416.94146728515625 438.8858337402344 414.0583801269531 456.1270751953125 382.75152587890625 C 556.484130859375 403.9350280761719 502.8989562988281 398.7032165527344 540.8006591796875 408.73291015625" stroke-width="0.0" fill="rgb(232, 214, 194)" opacity="0.6476501" stroke="rgb(0, 0, 0)" stroke-opacity="1.0" stroke-linecap="round" stroke-linejoin="round"/>
    <path d="M 303.2266540527344 412.1267395019531 C 257.1633605957031 364.9187316894531 240.4619140625 353.94696044921875 305.8058166503906 383.6236572265625 C 315.705322265625 418.9359130859375 265.7944641113281 385.187255859375 224.9947967529297 410.258544921875 C 165.61524963378906 442.5177307128906 207.66920471191406 394.9681396484375 304.1125183105469 293.38665771484375 C 304.6291809082031 420.55572509765625 356.5350646972656 440.72332763671875 303.2266540527344 412.1267395019531" stroke-width="0.0" fill="rgb(23, 17, 82)" opacity="0.9063854" stroke="rgb(0, 0, 0)" stroke-opacity="1.0" stroke-linecap="round" stroke-linejoin="round"/>
    <path d="M 42.704742431640625 32.961753845214844 C 22.312820434570312 9.137755393981934 44.36912536621094 122.57147216796875 96.5971450805664 204.99853515625 C 54.2196044921875 303.9890441894531 35.1562385559082 45.6887092590332 49.0761833190918 62.76935577392578 C 27.06514549255371 19.379106521606445 34.341529846191406 -27.704927444458008 105.42186737060547 32.7427978515625 C 131.3033447265625 120.89215087890625 48.0087776184082 24.4550838470459 42.704742431640625 32.961753845214844" stroke-width="0.0" fill="rgb(170, 68, 12)" opacity="0.8869164" stroke="rgb(0, 0, 0)" stroke-opacity="1.0" stroke-linecap="round" stroke-linejoin="round"/>
    <path d="M 227.58665466308594 42.277442932128906 C 168.9535369873047 25.235403060913086 167.82794189453125 5.98635196685791 172.3278045654297 56.269203186035156 C 169.09312438964844 37.550289154052734 157.18856811523438 14.54216480255127 105.28666687011719 -19.108379364013672 C 89.37556457519531 -28.765522003173828 81.68112182617188 -39.576812744140625 150.65530395507812 -41.025997161865234 C 200.32064819335938 -18.305387496948242 223.01829528808594 -20.617656707763672 227.58665466308594 42.277442932128906" stroke-width="0.0" fill="rgb(233, 236, 242)" opacity="0.67539227" stroke="rgb(0, 0, 0)" stroke-opacity="1.0" stroke-linecap="round" stroke-linejoin="round"/>
    <path d="M 156.53012084960938 283.4704895019531 C 137.48268127441406 354.2951965332031 125.9411849975586 363.3628234863281 103.5213623046875 382.7464294433594 C 79.15919494628906 353.3521728515625 72.50578308105469 355.3690185546875 73.60371398925781 348.07989501953125 C 59.9933967590332 293.1800537109375 67.25066375732422 266.67333984375 101.21685791015625 221.195068359375 C 116.96897888183594 277.2144775390625 126.44398498535156 279.2128601074219 156.53012084960938 283.4704895019531" stroke-width="0.0" fill="rgb(197, 91, 1)" opacity="1.0" stroke="rgb(0, 0, 0)" stroke-opacity="1.0" stroke-linecap="round" stroke-linejoin="round"/>
    <path d="M 91.13237762451172 255.05738830566406 C 81.92182159423828 257.6497802734375 73.4170913696289 266.83331298828125 73.0831069946289 281.0672302246094 C 85.01576232910156 252.4848175048828 64.65692138671875 277.93365478515625 69.2760238647461 300.7626953125 C 79.48615264892578 228.39437866210938 108.25962829589844 164.32066345214844 97.32213592529297 242.56756591796875 C 87.86763000488281 248.31968688964844 104.10420989990234 234.78091430664062 91.13237762451172 255.05738830566406" stroke-width="0.0" fill="rgb(240, 202, 54)" opacity="0.9404503" stroke="rgb(0, 0, 0)" stroke-opacity="1.0" stroke-linecap="round" stroke-linejoin="round"/>
    <path d="M 259.0211486816406 138.64950561523438 C 245.20101928710938 163.64144897460938 285.8248291015625 239.32305908203125 242.13467407226562 251.46311950683594 C 133.62191772460938 225.9917449951172 118.37564086914062 192.46392822265625 141.36968994140625 119.42623901367188 C 131.07017517089844 52.423038482666016 149.72935485839844 102.61237335205078 202.71029663085938 106.18741607666016 C 266.27728271484375 106.32066345214844 261.5299987792969 90.46266174316406 259.0211486816406 138.64950561523438" stroke-width="0.0" fill="rgb(221, 96, 48)" opacity="1.0" stroke="rgb(0, 0, 0)" stroke-opacity="1.0" stroke-linecap="round" stroke-linejoin="round"/>
    <path d="M 306.6343688964844 391.6683349609375 C 289.3504638671875 352.9291076660156 329.0111083984375 361.2921447753906 311.2900085449219 389.9040222167969 C 278.2416076660156 342.5422668457031 269.0074768066406 354.7366943359375 267.5503234863281 346.90313720703125 C 297.9455871582031 348.7225036621094 293.84588623046875 288.287353515625 348.235595703125 316.3753967285156 C 346.8542785644531 339.5887145996094 299.5721435546875 380.3327331542969 306.6343688964844 391.6683349609375" stroke-width="0.0" fill="rgb(113, 238, 255)" opacity="0.5348659" stroke="rgb(0, 0, 0)" stroke-opacity="1.0" stroke-linecap="round" stroke-linejoin="round"/>
    <path d="M 21.8369197845459 428.93780517578125 C -14.317110061645508 391.33734130859375 106.65089416503906 362.197998046875 66.83475494384766 376.107177734375 C 15.155777931213379 427.4776611328125 13.385608673095703 391.64666748046875 94.7430191040039 363.1464538574219 C -52.897674560546875 362.0032043457031 -5.563864231109619 363.4909362792969 74.9554214477539 359.03973388671875 C 76.30872344970703 377.4093933105469 78.56692504882812 362.7040100097656 21.8369197845459 428.93780517578125" stroke-width="0.0" fill="rgb(4, 61, 0)" opacity="0.06715757" stroke="rgb(0, 0, 0)" stroke-opacity="1.0" stroke-linecap="round" stroke-linejoin="round"/>
    <path d="M 323.15826416015625 409.4620056152344 C 308.51104736328125 379.6410827636719 322.5951843261719 393.588134765625 296.1706848144531 371.754638671875 C 299.0090026855469 433.0877685546875 326.6915588378906 457.1675109863281 355.24481201171875 428.7569885253906 C 311.6990051269531 414.64849853515625 265.9071350097656 404.7946472167969 327.843505859375 392.0467834472656 C 381.2820129394531 389.2781677246094 354.6559753417969 387.2991943359375 323.15826416015625 409.4620056152344" stroke-width="0.0" fill="rgb(32, 13, 45)" opacity="0.93954164" stroke="rgb(0, 0, 0)" stroke-opacity="1.0" stroke-linecap="round" stroke-linejoin="round"/>
    <path d="M 438.2360534667969 59.16320037841797 C 459.653564453125 49.34221649169922 493.00311279296875 68.7621841430664 438.21148681640625 138.51669311523438 C 419.8205871582031 171.80718994140625 409.6685791015625 114.97254180908203 385.43255615234375 118.775146484375 C 389.5401306152344 102.42221069335938 400.5174865722656 75.32708740234375 420.7558898925781 79.08418273925781 C 387.9438781738281 90.72013092041016 427.8363342285156 71.53104400634766 438.2360534667969 59.16320037841797" stroke-width="0.0" fill="rgb(227, 71, 148)" opacity="0.8863215" stroke="rgb(0, 0, 0)" stroke-opacity="1.0" stroke-linecap="round" stroke-linejoin="round"/>
    <path d="M 167.5131072998047 89.83393096923828 C 168.3688201904297 72.4184799194336 168.9619140625 91.27155303955078 170.14675903320312 114.18450927734375 C 170.84478759765625 118.3813247680664 162.81764221191406 104.27301025390625 117.32260131835938 73.21642303466797 C 92.09840393066406 12.204071998596191 131.620849609375 51.62144088745117 165.07069396972656 77.32840728759766 C 188.3294677734375 85.21475982666016 199.98153686523438 98.1377944946289 167.5131072998047 89.83393096923828" stroke-width="0.0" fill="rgb(55, 3, 9)" opacity="0.8279353" stroke="rgb(0, 0, 0)" stroke-opacity="1.0" stroke-linecap="round" stroke-linejoin="round"/>
    <path d="M 532.1419677734375 442.8291931152344 C 543.58837890625 480.0308532714844 544.0880737304688 484.54217529296875 523.9595947265625 462.29949951171875 C 507.6865234375 465.0556335449219 498.7920837402344 442.40704345703125 498.5677795410156 430.93548583984375 C 494.8358459472656 439.8436279296875 510.92376708984375 423.4996337890625 534.1546630859375 421.9284362792969 C 524.2904663085938 425.6336975097656 529.3707275390625 430.8746337890625 532.1419677734375 442.8291931152344" stroke-width="0.0" fill="rgb(200, 173, 146)" opacity="0.3395211" stroke="rgb(0, 0, 0)" stroke-opacity="1.0" stroke-linecap="round" stroke-linejoin="round"/>
    <path d="M 372.15728759765625 208.34214782714844 C 388.8702697753906 248.5584259033203 375.8381652832031 299.545654296875 349.281005859375 302.70330810546875 C 330.5146484375 212.30857849121094 321.0128479003906 229.92376708984375 334.0280456542969 270.5736999511719 C 344.12066650390625 274.5469055175781 341.4979248046875 253.16632080078125 357.7299499511719 231.49851989746094 C 416.0498352050781 239.0239715576172 375.7628479003906 230.87538146972656 372.15728759765625 208.34214782714844" stroke-width="0.0" fill="rgb(39, 8, 32)" opacity="0.9985772" stroke="rgb(0, 0, 0)" stroke-opacity="1.0" stroke-linecap="round" stroke-linejoin="round"/>
    <path d="M 486.06768798828125 402.7131652832031 C 472.1100769042969 408.9822692871094 453.56781005859375 423.3194580078125 457.5342102050781 436.5697937011719 C 421.7893981933594 426.86529541015625 411.9808349609375 443.7959289550781 414.5750427246094 382.58868408203125 C 418.76068115234375 350.5519714355469 403.7085876464844 332.34088134765625 437.89947509765625 349.1952209472656 C 473.85009765625 370.2770080566406 486.6090393066406 398.92193603515625 486.06768798828125 402.7131652832031" stroke-width="0.0" fill="rgb(229, 214, 197)" opacity="0.78559875" stroke="rgb(0, 0, 0)" stroke-opacity="1.0" stroke-linecap="round" stroke-linejoin="round"/>
    <path d="M 172.1632080078125 408.87451171875 C 185.53854370117188 420.19903564453125 181.7462921142578 425.86065673828125 158.03359985351562 415.5060729980469 C 138.13177490234375 414.5734558105469 153.93539428710938 440.1671447753906 148.98593139648438 419.6044921875 C 141.3339385986328 391.0623779296875 166.2732391357422 393.5369567871094 178.30160522460938 413.2063293457031 C 150.16957092285156 430.701416015625 148.00518798828125 426.18572998046875 172.1632080078125 408.87451171875" stroke-width="0.0" fill="rgb(158, 243, 169)" opacity="0.48519644" stroke="rgb(0, 0, 0)" stroke-opacity="1.0" stroke-linecap="round" stroke-linejoin="round"/>
    <path d="M 417.1178894042969 388.9853515625 C 423.8566589355469 416.8883972167969 396.2198791503906 418.4938049316406 415.345703125 429.0698547363281 C 406.135498046875 403.6637878417969 415.6417541503906 366.7403564453125 392.249267578125 344.07562255859375 C 394.16607666015625 308.91754150390625 384.06207275390625 270.45904541015625 423.7290954589844 320.6344909667969 C 451.0284118652344 349.11346435546875 415.0399169921875 356.8497619628906 417.1178894042969 388.9853515625" stroke-width="0.0" fill="rgb(250, 156, 164)" opacity="0.65989053" stroke="rgb(0, 0, 0)" stroke-opacity="1.0" stroke-linecap="round" stroke-linejoin="round"/>
    <path d="M 141.34397888183594 100.67296600341797 C 166.59837341308594 128.7456817626953 141.7987823486328 150.5193328857422 100.85218811035156 142.1859130859375 C 96.98004150390625 140.6057891845703 102.62940979003906 104.37390899658203 81.69563293457031 73.94633483886719 C 55.387489318847656 11.158722877502441 74.36509704589844 20.367984771728516 112.85308074951172 53.69933319091797 C 131.40773010253906 63.07312774658203 129.94729614257812 86.91190338134766 141.34397888183594 100.67296600341797" stroke-width="0.0" fill="rgb(27, 2, 26)" opacity="0.9986729" stroke="rgb(0, 0, 0)" stroke-opacity="1.0" stroke-linecap="round" stroke-linejoin="round"/>
    <path d="M 401.95318603515625 391.8485107421875 C 395.5142822265625 436.0003967285156 377.04168701171875 452.442626953125 347.352783203125 429.6955871582031 C 323.59686279296875 411.8027038574219 353.4749755859375 394.8199157714844 349.8125305175781 375.7733154296875 C 308.8490295410156 340.1789855957031 293.14459228515625 338.85809326171875 313.51177978515625 387.0186462402344 C 343.6328125 392.9472351074219 375.9792175292969 360.8912048339844 401.95318603515625 391.8485107421875" stroke-width="0.0" fill="rgb(120, 114, 185)" opacity="0.4301855" stroke="rgb(0, 0, 0)" stroke-opacity="1.0" stroke-linecap="round" stroke-linejoin="round"/>
    <path d="M 113.0058822631836 367.1641540527344 C 113.58893585205078 364.3109130859375 108.22028350830078 379.98638916015625 109.44345092773438 390.6658020019531 C 92.91351318359375 395.2687072753906 72.98138427734375 370.3174133300781 60.31803894042969 331.8308410644531 C 66.21372985839844 313.35400390625 73.22722625732422 352.4272766113281 98.93399810791016 364.9068908691406 C 97.77302551269531 374.41790771484375 123.23648071289062 378.6942138671875 113.0058822631836 367.1641540527344" stroke-width="0.0" fill="rgb(196, 46, 7)" opacity="0.8248243" stroke="rgb(0, 0, 0)" stroke-opacity="1.0" stroke-linecap="round" stroke-linejoin="round"/>
    <path d="M 256.0114440917969 100.22199249267578 C 265.5815124511719 154.3054656982422 271.73748779296875 197.55416870117188 254.45960998535156 193.59104919433594 C 241.89352416992188 154.6471405029297 250.46322631835938 109.43450927734375 244.21351623535156 98.0615005493164 C 229.87049865722656 108.78851318359375 241.4668426513672 85.70384216308594 250.5620574951172 85.92987060546875 C 236.58221435546875 91.00030517578125 294.50103759765625 93.2085952758789 256.0114440917969 100.22199249267578" stroke-width="0.0" fill="rgb(8, 3, 40)" opacity="0.65227306" stroke="rgb(0, 0, 0)" stroke-opacity="1.0" stroke-linecap="round" stroke-linejoin="round"/>
    <path d="M 436.58197021484375 93.2143783569336 C 429.1988220214844 111.18446350097656 417.28643798828125 117.85254669189453 431.6110534667969 102.40184020996094 C 435.64825439453125 85.1645278930664 416.1441650390625 88.00352478027344 404.4881591796875 85.70600891113281 C 397.6031494140625 78.47732543945312 414.8493347167969 60.17470932006836 453.7686462402344 38.75544357299805 C 457.40887451171875 53.26102828979492 456.0052185058594 72.0352783203125 436.58197021484375 93.2143783569336" stroke-width="0.0" fill="rgb(212, 56, 146)" opacity="0.93882644" stroke="rgb(0, 0, 0)" stroke-opacity="1.0" stroke-linecap="round" stroke-linejoin="round"/>
    <path d="M 131.2993621826172 121.45418548583984 C 114.84394836425781 131.5289764404297 100.32463836669922 167.80661010742188 86.97025299072266 171.3562774658203 C 64.46031188964844 159.6305389404297 77.01742553710938 158.46636962890625 81.12590789794922 125.22620391845703 C 62.50482177734375 108.75020599365234 46.37592315673828 45.770713806152344 56.74699401855469 78.25910949707031 C 131.18359375 106.7828369140625 123.33895111083984 113.9758529663086 131.2993621826172 121.45418548583984" stroke-width="0.0" fill="rgb(229, 42, 96)" opacity="0.75810564" stroke="rgb(0, 0, 0)" stroke-opacity="1.0" stroke-linecap="round" stroke-linejoin="round"/>
    <path d="M 551.8741455078125 475.49945068359375 C 520.4595336914062 517.4486083984375 511.7738037109375 524.1069946289062 480.7524108886719 541.553466796875 C 470.7279052734375 505.70843505859375 463.16412353515625 483.91595458984375 459.40863037109375 487.1083068847656 C 463.0953369140625 483.6485900878906 477.7321472167969 473.1543273925781 498.89227294921875 450.9522705078125 C 546.1201782226562 446.18267822265625 557.3071899414062 451.3640441894531 551.8741455078125 475.49945068359375" stroke-width="0.0" fill="rgb(237, 199, 37)" opacity="0.3869494" stroke="rgb(0, 0, 0)" stroke-opacity="1.0" stroke-linecap="round" stroke-linejoin="round"/>
    <path d="M 298.8771057128906 301.6728820800781 C 266.7011413574219 299.581787109375 286.6573486328125 357.1776123046875 268.3016052246094 359.16070556640625 C 216.9462127685547 345.1628723144531 198.596435546875 305.72967529296875 213.68533325195312 305.8840637207031 C 237.5205535888672 317.7265930175781 279.205322265625 303.1266174316406 264.24072265625 315.289794921875 C 269.2077331542969 311.2975769042969 281.5958557128906 331.0091247558594 298.8771057128906 301.6728820800781" stroke-width="0.0" fill="rgb(0, 48, 88)" opacity="0.9668052" stroke="rgb(0, 0, 0)" stroke-opacity="1.0" stroke-linecap="round" stroke-linejoin="round"/>
    <path d="M 430.2210693359375 109.05778503417969 C 429.6585693359375 147.73355102539062 446.015869140625 181.772705078125 437.22222900390625 185.9051055908203 C 396.24365234375 162.3164520263672 402.6651611328125 147.94374084472656 426.78961181640625 138.66473388671875 C 406.96160888671875 149.97227478027344 418.85162353515625 149.2524871826172 418.7290954589844 138.4627227783203 C 443.5410461425781 129.58425903320312 436.0874938964844 127.4634780883789 430.2210693359375 109.05778503417969" stroke-width="0.0" fill="rgb(236, 71, 113)" opacity="0.8900397" stroke="rgb(0, 0, 0)" stroke-opacity="1.0" stroke-linecap="round" stroke-linejoin="round"/>
    <path d="M 453.2087707519531 514.1317138671875 C 451.4605712890625 528.903564453125 450.6148376464844 540.937255859375 443.10650634765625 543.0359497070312 C 433.46551513671875 526.0057373046875 441.01092529296875 503.2845764160156 425.8473205566406 472.2677001953125 C 433.2278137207031 479.2621154785156 437.0649108886719 470.86199951171875 436.40887451171875 462.0679931640625 C 440.4263916015625 474.68060302734375 433.7835693359375 504.8772277832031 453.2087707519531 514.1317138671875" stroke-width="0.0" fill="rgb(226, 114, 77)" opacity="0.6551629" stroke="rgb(0, 0, 0)" stroke-opacity="1.0" stroke-linecap="round" stroke-linejoin="round"/>
    <path d="M 468.10699462890625 8.399801254272461 C 486.5168151855469 28.04204750061035 473.9671325683594 26.76626968383789 481.3793029785156 26.535709381103516 C 467.88201904296875 32.555213928222656 454.2192077636719 36.13820266723633 434.6085205078125 24.137224197387695 C 474.54852294921875 7.295512676239014 480.6543273925781 -3.041151285171509 471.2418212890625 -23.045093536376953 C 447.326416015625 -31.087045669555664 483.85748291015625 7.121531963348389 468.10699462890625 8.399801254272461" stroke-width="0.0" fill="rgb(110, 53, 34)" opacity="0.5966786" stroke="rgb(0, 0, 0)" stroke-opacity="1.0" stroke-linecap="round" stroke-linejoin="round"/>
    <path d="M 171.2397918701172 283.6003112792969 C 179.9788055419922 283.30615234375 182.0773162841797 262.15966796875 168.73289489746094 257.52215576171875 C 149.30995178222656 283.5502624511719 162.76263427734375 282.4631042480469 164.91897583007812 258.8277587890625 C 155.9495391845703 233.77452087402344 137.10723876953125 204.7301025390625 193.57814025878906 215.65907287597656 C 186.4966278076172 280.00079345703125 184.82223510742188 282.4011535644531 171.2397918701172 283.6003112792969" stroke-width="0.0" fill="rgb(60, 47, 146)" opacity="0.55389297" stroke="rgb(0, 0, 0)" stroke-opacity="1.0" stroke-linecap="round" stroke-linejoin="round"/>
    <path d="M 190.66827392578125 424.3123474121094 C 199.11000061035156 430.7517395019531 189.90707397460938 434.75115966796875 180.05691528320312 451.7361145019531 C 156.6197509765625 459.06854248046875 131.90269470214844 452.7991943359375 119.34284210205078 439.02740478515625 C 141.73275756835938 383.9250183105469 176.29876708984375 376.2256774902344 188.32666015625 414.952392578125 C 205.6134796142578 429.0859375 195.54539489746094 406.4959716796875 190.66827392578125 424.3123474121094" stroke-width="0.0" fill="rgb(191, 203, 106)" opacity="0.1231151" stroke="rgb(0, 0, 0)" stroke-opacity="1.0" stroke-linecap="round" stroke-linejoin="round"/>
    <path d="M 198.72515869140625 242.58607482910156 C 196.67356872558594 241.92459106445312 198.7351837158203 256.94970703125 174.6602325439453 258.9929504394531 C 170.61990356445312 273.8782653808594 169.40386962890625 267.6771240234375 168.73721313476562 254.5006103515625 C 162.72640991210938 226.9134979248047 187.28945922851562 241.169677734375 192.95591735839844 261.0350646972656 C 167.47657775878906 254.85499572753906 183.07362365722656 226.92047119140625 198.72515869140625 242.58607482910156" stroke-width="0.0" fill="rgb(105, 58, 63)" opacity="0.24204683" stroke="rgb(0, 0, 0)" stroke-opacity="1.0" stroke-linecap="round" stroke-linejoin="round"/>
    <path d="M 196.37950134277344 339.31292724609375 C 198.96710205078125 342.17108154296875 176.55783081054688 350.8551025390625 171.6757354736328 355.7584228515625 C 162.62619018554688 344.56121826171875 174.01376342773438 351.6729431152344 170.01487731933594 351.1049499511719 C 172.60482788085938 337.8529052734375 175.6482696533203 335.50750732421875 186.62164306640625 327.6949768066406 C 175.0303955078125 322.94915771484375 178.68519592285156 326.2810974121094 196.37950134277344 339.31292724609375" stroke-width="0.0" fill="rgb(98, 61, 150)" opacity="0.5744811" stroke="rgb(0, 0, 0)" stroke-opacity="1.0" stroke-linecap="round" stroke-linejoin="round"/>
    <path d="M 75.35799407958984 412.1810302734375 C 74.3982162475586 448.8968811035156 46.621986389160156 436.1726989746094 15.861541748046875 437.5640563964844 C 29.764345169067383 427.4658508300781 31.957542419433594 412.90850830078125 84.71353149414062 443.2740173339844 C 54.559303283691406 472.9883728027344 62.402469635009766 447.57183837890625 58.6680908203125 428.0370788574219 C 57.69804000854492 420.59613037109375 77.83450317382812 416.31231689453125 75.35799407958984 412.1810302734375" stroke-width="0.0" fill="rgb(237, 255, 220)" opacity="0.0" stroke="rgb(0, 0, 0)" stroke-opacity="1.0" stroke-linecap="round" stroke-linejoin="round"/>
    <path d="M 496.2765197753906 425.883544921875 C 494.3061828613281 495.1699523925781 468.9652404785156 515.2154541015625 450.4298095703125 479.1741027832031 C 445.2211608886719 464.27264404296875 432.1258544921875 459.4570617675781 435.711181640625 458.32684326171875 C 385.1608581542969 441.76641845703125 442.3029479980469 424.4515380859375 470.78240966796875 431.45098876953125 C 447.7543029785156 427.12457275390625 472.0838623046875 425.69183349609375 496.2765197753906 425.883544921875" stroke-width="0.0" fill="rgb(250, 210, 146)" opacity="0.03305052" stroke="rgb(0, 0, 0)" stroke-opacity="1.0" stroke-linecap="round" stroke-linejoin="round"/>
    <path d="M 445.55303955078125 403.8495178222656 C 488.3283996582031 397.0892028808594 496.448974609375 379.1283874511719 451.90924072265625 381.92584228515625 C 424.00823974609375 390.0677795410156 403.68658447265625 377.3381652832031 411.291259765625 356.8468933105469 C 423.603515625 352.0592346191406 430.24041748046875 347.8045959472656 449.2033996582031 336.7616271972656 C 442.55560302734375 348.619140625 438.66412353515625 369.4988098144531 445.55303955078125 403.8495178222656" stroke-width="0.0" fill="rgb(152, 206, 117)" opacity="0.0" stroke="rgb(0, 0, 0)" stroke-opacity="1.0" stroke-linecap="round" stroke-linejoin="round"/>
    <path d="M 33.674190521240234 108.49518585205078 C 68.9222183227539 108.55329895019531 59.625423431396484 166.9101104736328 44.48137283325195 158.0857696533203 C 40.64684295654297 114.63224029541016 24.115297317504883 133.8231658935547 -4.697447299957275 143.27235412597656 C -21.543991088867188 102.69802856445312 3.1768226623535156 96.60010528564453 26.922555923461914 93.04036712646484 C 50.314395904541016 88.69319152832031 51.605098724365234 135.36761474609375 33.674190521240234 108.49518585205078" stroke-width="0.0" fill="rgb(190, 216, 236)" opacity="0.0" stroke="rgb(0, 0, 0)" stroke-opacity="1.0" stroke-linecap="round" stroke-linejoin="round"/>
    <path d="M 94.07478332519531 489.46856689453125 C 36.87761688232422 498.29351806640625 34.62407302856445 494.669189453125 48.5524787902832 481.06427001953125 C 67.58600616455078 469.3167724609375 71.02230834960938 458.9736328125 54.007633209228516 484.8426818847656 C 13.085124969482422 456.47265625 13.334171295166016 456.1640930175781 46.750545501708984 468.7062072753906 C 76.71944427490234 443.9819030761719 64.81103515625 442.0086669921875 94.07478332519531 489.46856689453125" stroke-width="0.0" fill="rgb(205, 255, 222)" opacity="0.0" stroke="rgb(0, 0, 0)" stroke-opacity="1.0" stroke-linecap="round" stroke-linejoin="round"/>
    <path d="M 123.6627426147461 237.3495330810547 C 123.9383773803711 230.4171142578125 130.27064514160156 210.82049560546875 142.6327362060547 229.01913452148438 C 146.3775634765625 249.9481964111328 113.06500244140625 253.4011993408203 100.1134033203125 224.94528198242188 C 168.29437255859375 238.15728759765625 149.6186065673828 248.74972534179688 130.10165405273438 225.78294372558594 C 153.02212524414062 229.8283233642578 153.75457763671875 227.93594360351562 123.6627426147461 237.3495330810547" stroke-width="0.0" fill="rgb(97, 110, 109)" opacity="0.0" stroke="rgb(0, 0, 0)" stroke-opacity="1.0" stroke-linecap="round" stroke-linejoin="round"/>
    <path d="M 319.0895080566406 19.611618041992188 C 316.1199645996094 60.6927375793457 327.7552490234375 90.71383666992188 311.1428527832031 80.9698486328125 C 215.28158569335938 66.38567352294922 204.73146057128906 56.251953125 237.84828186035156 15.456761360168457 C 273.5352783203125 20.392915725708008 267.9189453125 1.6594306230545044 293.5728759765625 -33.644187927246094 C 335.5663146972656 -31.710710525512695 345.6082763671875 1.1694588661193848 319.0895080566406 19.611618041992188" stroke-width="0.0" fill="rgb(240, 255, 255)" opacity="0.104511395" stroke="rgb(0, 0, 0)" stroke-opacity="1.0" stroke-linecap="round" stroke-linejoin="round"/>
    <path d="M 150.98165893554688 142.94300842285156 C 156.08963012695312 163.96942138671875 148.31565856933594 185.95791625976562 111.03717803955078 236.44398498535156 C 62.561885833740234 245.89456176757812 48.75962448120117 232.67221069335938 63.6682243347168 158.6269989013672 C 105.09674072265625 102.4081039428711 116.90824890136719 115.01298522949219 136.70462036132812 157.0881805419922 C 110.3153305053711 142.0517120361328 133.2349853515625 157.9800567626953 150.98165893554688 142.94300842285156" stroke-width="0.0" fill="rgb(174, 189, 0)" opacity="0.06574648" stroke="rgb(0, 0, 0)" stroke-opacity="1.0" stroke-linecap="round" stroke-linejoin="round"/>
    <path d="M 470.6942443847656 246.85369873046875 C 442.5404052734375 238.8223876953125 429.64471435546875 250.95484924316406 439.82659912109375 241.24464416503906 C 431.40130615234375 243.79183959960938 427.8516845703125 248.45384216308594 431.70220947265625 228.82928466796875 C 399.6980895996094 236.00523376464844 433.121826171875 240.77903747558594 469.0063171386719 241.14053344726562 C 479.5723876953125 221.601806640625 495.5345153808594 226.2969970703125 470.6942443847656 246.85369873046875" stroke-width="0.0" fill="rgb(31, 1, 137)" opacity="0.08904278" stroke="rgb(0, 0, 0)" stroke-opacity="1.0" stroke-linecap="round" stroke-linejoin="round"/>
    <path d="M 320.7356262207031 390.3380126953125 C 354.9880676269531 414.3273620605469 357.30108642578125 408.0566101074219 356.9740905761719 402.64434814453125 C 355.42559814453125 431.7470397949219 314.9458312988281 416.1253662109375 306.7068786621094 402.4767761230469 C 344.27081298828125 396.8071594238281 369.6304016113281 399.840087890625 358.470458984375 414.19207763671875 C 345.848876953125 391.46453857421875 362.50787353515625 366.77099609375 320.7356262207031 390.3380126953125" stroke-width="0.0" fill="rgb(70, 91, 212)" opacity="0.23932044" stroke="rgb(0, 0, 0)" stroke-opacity="1.0" stroke-linecap="round" stroke-linejoin="round"/>
    <path d="M 380.1680603027344 204.73455810546875 C 342.75811767578125 188.7699737548828 334.173828125 198.14479064941406 345.1483459472656 218.00979614257812 C 377.9256591796875 214.0260009765625 369.7905578613281 188.99769592285156 339.062744140625 171.06704711914062 C 320.59033203125 167.43365478515625 328.7166442871094 152.94081115722656 382.0508117675781 158.16798400878906 C 401.2657165527344 167.21664428710938 393.6787414550781 154.0103302001953 380.1680603027344 204.73455810546875" stroke-width="0.0" fill="rgb(255, 255, 145)" opacity="0.004938993" stroke="rgb(0, 0, 0)" stroke-opacity="1.0" stroke-linecap="round" stroke-linejoin="round"/>
    <path d="M 116.26313781738281 397.1744689941406 C 193.83168029785156 415.5633850097656 139.9574737548828 462.0068664550781 110.79481506347656 485.64178466796875 C 93.49363708496094 434.7520446777344 88.7010726928711 412.5045166015625 55.59410095214844 420.5721740722656 C 36.69014358520508 465.0478515625 66.34305572509766 469.2852478027344 72.45091247558594 438.1322326660156 C 88.61373901367188 419.9951477050781 92.34036254882812 422.3966979980469 116.26313781738281 397.1744689941406" stroke-width="0.0" fill="rgb(166, 249, 198)" opacity="0.0" stroke="rgb(0, 0, 0)" stroke-opacity="1.0" stroke-linecap="round" stroke-linejoin="round"/>
    <path d="M 129.18743896484375 486.9469909667969 C 117.39599609375 490.3421936035156 84.25741577148438 490.01446533203125 92.03109741210938 505.2032470703125 C 85.49967956542969 463.43408203125 37.35250473022461 476.9737548828125 22.267417907714844 452.4300231933594 C 58.02963638305664 457.1745910644531 81.22825622558594 446.89520263671875 93.51976776123047 437.6690673828125 C 90.3036880493164 433.875732421875 85.63130950927734 444.3017578125 129.18743896484375 486.9469909667969" stroke-width="0.0" fill="rgb(231, 245, 248)" opacity="0.0068742177" stroke="rgb(0, 0, 0)" stroke-opacity="1.0" stroke-linecap="round" stroke-linejoin="round"/>
  </g>
</svg>
