<?xml version="1.0" ?>
<svg xmlns="http://www.w3.org/2000/svg" version="1.1" width="512" height="512">
  <defs/>
  <g>
    <path d="M 254.99746704101562 326.4867248535156 C 194.40565490722656 499.62701416015625 211.18617248535156 323.0804748535156 128.76016235351562 450.89410400390625 C 66.15811157226562 427.8025207519531 -6.91818904876709 286.6816101074219 86.19831848144531 187.34002685546875 C 58.26178741455078 360.3500671386719 47.16057205200195 298.07080078125 81.2419662475586 329.64227294921875 C 94.25788116455078 345.9391784667969 49.63985824584961 294.983642578125 254.99746704101562 326.4867248535156" stroke-width="0.0" fill="rgb(79, 33, 5)" opacity="0.95691276" stroke="rgb(0, 0, 0)" stroke-opacity="1.0" stroke-linecap="round" stroke-linejoin="round"/>
    <path d="M 188.2594757080078 219.09400939941406 C 219.1148223876953 260.8410339355469 110.64447784423828 272.830322265625 143.2088165283203 288.6553649902344 C 128.12850952148438 309.6522521972656 72.28373718261719 281.6559143066406 91.7706527709961 238.5123291015625 C 108.7293930053711 247.98712158203125 11.95840072631836 228.12771606445312 147.29483032226562 201.88919067382812 C 158.97198486328125 299.83367919921875 162.10296630859375 263.7284851074219 188.2594757080078 219.09400939941406" stroke-width="0.0" fill="rgb(37, 4, 3)" opacity="0.97998875" stroke="rgb(0, 0, 0)" stroke-opacity="1.0" stroke-linecap="round" stroke-linejoin="round"/>
    <path d="M 401.68792724609375 231.28866577148438 C 423.5113525390625 365.7704162597656 243.31393432617188 273.4311218261719 377.67041015625 229.72982788085938 C 386.2550964355469 232.45840454101562 322.3815612792969 160.528564453125 300.3424377441406 388.5751953125 C 250.22674560546875 219.15316772460938 347.0775146484375 209.77304077148438 395.04718017578125 206.56065368652344 C 457.3437805175781 245.72071838378906 434.1611022949219 242.69456481933594 401.68792724609375 231.28866577148438" stroke-width="0.0" fill="rgb(45, 9, 5)" opacity="0.91888523" stroke="rgb(0, 0, 0)" stroke-opacity="1.0" stroke-linecap="round" stroke-linejoin="round"/>
    <path d="M 191.68203735351562 217.2670440673828 C 156.16331481933594 288.2917175292969 214.03460693359375 266.6625671386719 135.90133666992188 274.4277648925781 C 46.54965591430664 235.0786590576172 134.62847900390625 209.959228515625 194.09730529785156 211.67889404296875 C 212.59735107421875 194.4191131591797 193.3638458251953 218.9127197265625 197.31646728515625 202.27516174316406 C 145.15892028808594 119.42891693115234 157.00750732421875 109.62989807128906 191.68203735351562 217.2670440673828" stroke-width="0.0" fill="rgb(0, 0, 42)" opacity="0.63386166" stroke="rgb(0, 0, 0)" stroke-opacity="1.0" stroke-linecap="round" stroke-linejoin="round"/>
    <path d="M 564.4835205078125 337.3218078613281 C 556.6238403320312 411.9351501464844 419.719970703125 383.9362487792969 455.8027648925781 482.6239929199219 C 311.65814208984375 315.1134948730469 376.2378845214844 412.6448059082031 296.8100280761719 258.40399169921875 C 428.7530212402344 330.97796630859375 316.7969055175781 301.29656982421875 389.68963623046875 371.69696044921875 C 450.6962585449219 359.639404296875 397.57110595703125 374.8150329589844 564.4835205078125 337.3218078613281" stroke-width="0.0" fill="rgb(113, 25, 144)" opacity="0.5434892" stroke="rgb(0, 0, 0)" stroke-opacity="1.0" stroke-linecap="round" stroke-linejoin="round"/>
    <path d="M 433.9273986816406 177.00888061523438 C 474.9426574707031 288.2159729003906 508.60174560546875 301.69940185546875 458.7662048339844 404.4551086425781 C 477.0456848144531 289.8409423828125 485.639892578125 335.0023193359375 432.8773498535156 195.47267150878906 C 470.144287109375 115.84326934814453 489.8551330566406 4.196860313415527 479.2921142578125 88.53717803955078 C 450.5576171875 215.61648559570312 447.26202392578125 143.71548461914062 433.9273986816406 177.00888061523438" stroke-width="0.0" fill="rgb(54, 4, 19)" opacity="0.9008963" stroke="rgb(0, 0, 0)" stroke-opacity="1.0" stroke-linecap="round" stroke-linejoin="round"/>
    <path d="M 360.5635070800781 297.359375 C 266.0504150390625 314.32891845703125 290.179931640625 356.2022399902344 298.6504211425781 306.9403076171875 C 294.346435546875 302.9726867675781 377.4525451660156 289.0322570800781 311.87640380859375 287.31549072265625 C 283.16064453125 279.0328369140625 269.7176513671875 262.25677490234375 287.73712158203125 224.3843231201172 C 318.0737609863281 219.7088165283203 329.7893981933594 272.0685729980469 360.5635070800781 297.359375" stroke-width="0.0" fill="rgb(226, 221, 255)" opacity="0.921859" stroke="rgb(0, 0, 0)" stroke-opacity="1.0" stroke-linecap="round" stroke-linejoin="round"/>
    <path d="M 363.659912109375 300.05560302734375 C 427.8175964355469 230.450439453125 376.93756103515625 238.39524841308594 377.0596923828125 193.65219116210938 C 382.5164794921875 215.5009765625 394.51165771484375 235.5275115966797 329.9966125488281 247.04995727539062 C 316.3880920410156 222.05482482910156 320.1273193359375 207.6488494873047 331.5264892578125 228.49551391601562 C 347.8590393066406 238.2508544921875 328.1020202636719 238.65887451171875 363.659912109375 300.05560302734375" stroke-width="0.0" fill="rgb(2, 10, 68)" opacity="0.89865094" stroke="rgb(0, 0, 0)" stroke-opacity="1.0" stroke-linecap="round" stroke-linejoin="round"/>
    <path d="M 59.69317626953125 87.99861907958984 C 107.91700744628906 209.0692138671875 73.82052612304688 94.572509765625 210.8632354736328 114.57386016845703 C 36.337459564208984 188.424072265625 107.61590576171875 298.9547424316406 46.29090118408203 54.693233489990234 C 10.759692192077637 -30.46230697631836 56.09971618652344 -66.18896484375 175.58572387695312 113.70758819580078 C 36.871482849121094 29.288795471191406 45.309051513671875 -29.911659240722656 59.69317626953125 87.99861907958984" stroke-width="0.0" fill="rgb(31, 28, 10)" opacity="0.9370749" stroke="rgb(0, 0, 0)" stroke-opacity="1.0" stroke-linecap="round" stroke-linejoin="round"/>
    <path d="M 240.31822204589844 324.4564514160156 C 199.46620178222656 319.5965270996094 294.0431213378906 294.30560302734375 261.2396545410156 333.272705078125 C 30.786836624145508 369.9547119140625 138.4407196044922 303.4824523925781 152.1193084716797 237.41192626953125 C 119.27095794677734 202.052734375 180.33016967773438 234.1881561279297 198.27517700195312 274.0999755859375 C 249.47653198242188 278.96087646484375 245.38299560546875 279.183837890625 240.31822204589844 324.4564514160156" stroke-width="0.0" fill="rgb(55, 32, 23)" opacity="0.9355462" stroke="rgb(0, 0, 0)" stroke-opacity="1.0" stroke-linecap="round" stroke-linejoin="round"/>
    <path d="M 376.9687194824219 221.25584411621094 C 434.7948303222656 230.24009704589844 390.5899658203125 237.925048828125 400.0196838378906 254.3114013671875 C 392.2525329589844 294.3704833984375 377.80810546875 269.9600524902344 298.52581787109375 208.96531677246094 C 338.58856201171875 216.3899383544922 358.66009521484375 307.4183349609375 394.1990966796875 265.4482727050781 C 410.2283020019531 238.62644958496094 395.512451171875 230.8565673828125 376.9687194824219 221.25584411621094" stroke-width="0.0" fill="rgb(238, 190, 146)" opacity="0.979696" stroke="rgb(0, 0, 0)" stroke-opacity="1.0" stroke-linecap="round" stroke-linejoin="round"/>
    <path d="M 488.7996520996094 -18.557268142700195 C 303.5075378417969 59.28034591674805 350.1128845214844 75.3321304321289 216.30567932128906 60.43413162231445 C 121.5692367553711 108.97490692138672 184.5576629638672 68.04484558105469 -9.418660163879395 -16.566909790039062 C 233.6595458984375 25.025917053222656 140.021728515625 79.62403869628906 282.6469421386719 44.011474609375 C 348.47802734375 60.42652130126953 384.8401184082031 4.170234203338623 488.7996520996094 -18.557268142700195" stroke-width="0.0" fill="rgb(80, 19, 7)" opacity="0.84043604" stroke="rgb(0, 0, 0)" stroke-opacity="1.0" stroke-linecap="round" stroke-linejoin="round"/>
    <path d="M 360.7882080078125 378.281005859375 C 129.34689331054688 427.7630310058594 234.88658142089844 291.55126953125 145.35476684570312 401.9717712402344 C 117.52672576904297 402.7389221191406 172.293212890625 367.138916015625 143.9796600341797 380.1947937011719 C 154.6880340576172 340.0728759765625 156.1864471435547 300.14251708984375 201.59991455078125 298.0334167480469 C 302.9716491699219 318.7743225097656 370.611083984375 295.9119873046875 360.7882080078125 378.281005859375" stroke-width="0.0" fill="rgb(233, 233, 251)" opacity="0.95916194" stroke="rgb(0, 0, 0)" stroke-opacity="1.0" stroke-linecap="round" stroke-linejoin="round"/>
    <path d="M 461.23419189453125 42.89333724975586 C 491.52227783203125 48.02450180053711 483.7620849609375 41.77737045288086 469.399169921875 34.05970764160156 C 478.4799499511719 41.02397155761719 497.4499206542969 82.36652374267578 472.7359924316406 99.63732147216797 C 478.13323974609375 -5.272932052612305 457.3923645019531 -47.5864143371582 471.3836669921875 -79.25633239746094 C 464.2318115234375 -12.898378372192383 459.4480895996094 32.76750564575195 461.23419189453125 42.89333724975586" stroke-width="0.0" fill="rgb(55, 28, 24)" opacity="0.82327443" stroke="rgb(0, 0, 0)" stroke-opacity="1.0" stroke-linecap="round" stroke-linejoin="round"/>
    <path d="M 450.09381103515625 35.12696838378906 C 358.10516357421875 153.9947967529297 430.10687255859375 121.50518035888672 406.8834533691406 155.23788452148438 C 296.48968505859375 70.71955871582031 330.4527587890625 156.24090576171875 375.32830810546875 59.11387252807617 C 332.4944763183594 71.43887329101562 375.46710205078125 -0.6364856362342834 323.3138122558594 85.54939270019531 C 349.33416748046875 101.03507995605469 421.843505859375 -19.165376663208008 450.09381103515625 35.12696838378906" stroke-width="0.0" fill="rgb(85, 18, 21)" opacity="0.8828447" stroke="rgb(0, 0, 0)" stroke-opacity="1.0" stroke-linecap="round" stroke-linejoin="round"/>
    <path d="M 454.2427062988281 382.7288818359375 C 443.8521728515625 391.3948059082031 514.3394165039062 519.1509399414062 390.336669921875 519.5900268554688 C 360.77618408203125 371.6971435546875 459.8013916015625 463.418701171875 415.81683349609375 359.6697998046875 C 575.0145263671875 429.8733825683594 377.3133239746094 381.8710021972656 426.5902404785156 357.5042724609375 C 470.8603515625 391.248046875 482.08026123046875 401.1734619140625 454.2427062988281 382.7288818359375" stroke-width="0.0" fill="rgb(233, 154, 150)" opacity="0.83622414" stroke="rgb(0, 0, 0)" stroke-opacity="1.0" stroke-linecap="round" stroke-linejoin="round"/>
    <path d="M 469.3202209472656 55.072166442871094 C 451.89874267578125 5.004810810089111 478.0044250488281 40.315650939941406 422.2899475097656 143.70848083496094 C 395.8695373535156 94.57410430908203 422.0939636230469 166.39273071289062 436.46563720703125 16.7989444732666 C 452.825439453125 36.55726623535156 436.93109130859375 48.4051628112793 453.66339111328125 59.413414001464844 C 476.337158203125 31.271549224853516 455.7415771484375 33.265220642089844 469.3202209472656 55.072166442871094" stroke-width="0.0" fill="rgb(2, 65, 76)" opacity="0.7900788" stroke="rgb(0, 0, 0)" stroke-opacity="1.0" stroke-linecap="round" stroke-linejoin="round"/>
    <path d="M 425.2743225097656 433.9566345214844 C 447.5675964355469 428.2610168457031 393.92816162109375 470.9923400878906 295.4071960449219 495.4638977050781 C 214.41200256347656 499.2286682128906 110.99004364013672 438.3762512207031 154.60150146484375 408.9930114746094 C 256.7654724121094 437.86114501953125 245.49769592285156 441.8242492675781 242.70440673828125 417.4989013671875 C 262.75128173828125 416.6844787597656 354.892333984375 456.7505187988281 425.2743225097656 433.9566345214844" stroke-width="0.0" fill="rgb(109, 4, 34)" opacity="0.4620218" stroke="rgb(0, 0, 0)" stroke-opacity="1.0" stroke-linecap="round" stroke-linejoin="round"/>
    <path d="M 211.47622680664062 307.084228515625 C 256.2082824707031 286.35711669921875 299.1592712402344 304.3146057128906 241.06573486328125 322.7303466796875 C 202.25711059570312 315.39453125 243.79953002929688 293.3758544921875 205.1919708251953 229.32034301757812 C 178.373046875 240.882080078125 169.83888244628906 262.0378723144531 162.76870727539062 282.13250732421875 C 124.3570785522461 348.87408447265625 158.39744567871094 307.8793640136719 211.47622680664062 307.084228515625" stroke-width="0.0" fill="rgb(249, 232, 242)" opacity="0.9389508" stroke="rgb(0, 0, 0)" stroke-opacity="1.0" stroke-linecap="round" stroke-linejoin="round"/>
    <path d="M 540.1622314453125 394.07366943359375 C 472.6791076660156 550.16943359375 430.7165222167969 494.1840515136719 448.6505432128906 418.864990234375 C 458.6788024902344 409.6190185546875 456.9897766113281 406.5921936035156 462.76806640625 400.6831359863281 C 485.6844787597656 425.0477600097656 421.5267028808594 431.0495300292969 442.746826171875 384.79052734375 C 536.2921752929688 398.8192443847656 483.9697570800781 369.5618591308594 540.1622314453125 394.07366943359375" stroke-width="0.0" fill="rgb(229, 163, 153)" opacity="0.7208593" stroke="rgb(0, 0, 0)" stroke-opacity="1.0" stroke-linecap="round" stroke-linejoin="round"/>
    <path d="M 272.3306884765625 410.2909240722656 C 227.639404296875 388.0554504394531 246.3245086669922 382.06927490234375 240.6004638671875 386.34527587890625 C 245.3884735107422 370.6587219238281 262.74310302734375 364.78070068359375 238.93978881835938 401.5706787109375 C 174.48426818847656 399.3907470703125 202.88409423828125 374.59442138671875 268.819091796875 267.3550720214844 C 290.30889892578125 378.211669921875 370.9109802246094 376.7627258300781 272.3306884765625 410.2909240722656" stroke-width="0.0" fill="rgb(58, 34, 79)" opacity="0.84456086" stroke="rgb(0, 0, 0)" stroke-opacity="1.0" stroke-linecap="round" stroke-linejoin="round"/>
    <path d="M 62.623287200927734 -3.403550386428833 C 43.998355865478516 4.871096611022949 50.45362091064453 125.56018829345703 111.36930847167969 158.85293579101562 C 82.07038879394531 270.98504638671875 35.92790603637695 22.193090438842773 26.237916946411133 34.53400802612305 C 32.363182067871094 9.744941711425781 17.85700225830078 -15.91054630279541 107.05156707763672 26.517263412475586 C 157.39120483398438 100.76937103271484 81.07162475585938 -1.6686309576034546 62.623287200927734 -3.403550386428833" stroke-width="0.0" fill="rgb(145, 72, 56)" opacity="0.994271" stroke="rgb(0, 0, 0)" stroke-opacity="1.0" stroke-linecap="round" stroke-linejoin="round"/>
    <path d="M 207.96104431152344 39.115535736083984 C 149.69041442871094 42.20963668823242 150.02183532714844 16.89783477783203 159.06491088867188 72.34825134277344 C 133.05130004882812 58.99211120605469 113.98262023925781 48.17945861816406 82.17953491210938 12.674365997314453 C 109.12364196777344 -25.41714096069336 97.91191101074219 -35.59571838378906 158.46383666992188 -34.63418197631836 C 200.68295288085938 -17.038650512695312 203.94956970214844 -13.703100204467773 207.96104431152344 39.115535736083984" stroke-width="0.0" fill="rgb(251, 252, 253)" opacity="0.5965801" stroke="rgb(0, 0, 0)" stroke-opacity="1.0" stroke-linecap="round" stroke-linejoin="round"/>
    <path d="M 142.35960388183594 295.8103942871094 C 149.03819274902344 353.4190673828125 134.97283935546875 350.2223205566406 104.74995422363281 374.198486328125 C 77.8594970703125 334.6678161621094 75.71915435791016 346.34326171875 32.0091552734375 322.0509948730469 C 31.827056884765625 263.8726806640625 38.26125717163086 234.43594360351562 103.28984832763672 233.0832061767578 C 112.81944274902344 282.9527893066406 105.62032318115234 299.8801574707031 142.35960388183594 295.8103942871094" stroke-width="0.0" fill="rgb(185, 82, 10)" opacity="1.0" stroke="rgb(0, 0, 0)" stroke-opacity="1.0" stroke-linecap="round" stroke-linejoin="round"/>
    <path d="M 85.426025390625 235.04432678222656 C 75.97611236572266 243.60671997070312 70.22700500488281 252.0146484375 77.51789855957031 254.0395050048828 C 66.71024322509766 238.35838317871094 85.7613754272461 282.07330322265625 10.04569149017334 260.4811706542969 C 0.14509719610214233 168.34327697753906 58.06222915649414 131.1079864501953 64.1736831665039 234.4896697998047 C 111.35786437988281 240.5015106201172 91.10511779785156 224.30860900878906 85.426025390625 235.04432678222656" stroke-width="0.0" fill="rgb(236, 244, 239)" opacity="0.4948891" stroke="rgb(0, 0, 0)" stroke-opacity="1.0" stroke-linecap="round" stroke-linejoin="round"/>
    <path d="M 281.3728942871094 110.3379135131836 C 257.9275207519531 162.57591247558594 281.5208740234375 195.04335021972656 216.58079528808594 209.52499389648438 C 158.54859924316406 187.03704833984375 149.88546752929688 184.34568786621094 151.73257446289062 140.11810302734375 C 184.30519104003906 51.72822189331055 187.2774658203125 75.39038848876953 229.51986694335938 84.88453674316406 C 268.2046813964844 105.27392578125 303.18170166015625 94.2114028930664 281.3728942871094 110.3379135131836" stroke-width="0.0" fill="rgb(169, 79, 13)" opacity="1.0" stroke="rgb(0, 0, 0)" stroke-opacity="1.0" stroke-linecap="round" stroke-linejoin="round"/>
    <path d="M 311.93768310546875 397.9781799316406 C 284.7298278808594 348.1053771972656 334.86163330078125 361.06939697265625 313.05963134765625 379.1983947753906 C 264.1432800292969 363.6100769042969 259.33868408203125 372.64276123046875 244.74903869628906 331.9642333984375 C 281.6853332519531 342.1810302734375 288.2333068847656 269.4711608886719 297.66314697265625 291.79779052734375 C 343.4134826660156 374.4853820800781 324.44256591796875 404.1690368652344 311.93768310546875 397.9781799316406" stroke-width="0.0" fill="rgb(46, 211, 254)" opacity="0.886608" stroke="rgb(0, 0, 0)" stroke-opacity="1.0" stroke-linecap="round" stroke-linejoin="round"/>
    <path d="M 9.714097023010254 427.258544921875 C -6.462387561798096 408.735107421875 115.2719955444336 365.966796875 47.19169235229492 362.2530212402344 C -18.27055549621582 422.4775390625 3.454418659210205 391.8870544433594 94.68124389648438 341.71636962890625 C -10.874236106872559 335.30322265625 24.487279891967773 341.0924377441406 82.73577117919922 346.4957580566406 C 75.68082427978516 374.48455810546875 79.3816146850586 362.36822509765625 9.714097023010254 427.258544921875" stroke-width="0.0" fill="rgb(126, 101, 21)" opacity="0.0" stroke="rgb(0, 0, 0)" stroke-opacity="1.0" stroke-linecap="round" stroke-linejoin="round"/>
    <path d="M 313.3441162109375 386.9156188964844 C 311.0809631347656 396.9374084472656 329.4189453125 410.3232727050781 329.58197021484375 395.33154296875 C 319.1158752441406 420.2176513671875 334.06365966796875 441.9309997558594 357.0730895996094 391.2179260253906 C 304.5597839355469 397.7249450683594 263.3291320800781 397.0381164550781 303.0927429199219 375.7279968261719 C 327.91229248046875 344.13970947265625 346.7550354003906 365.3677978515625 313.3441162109375 386.9156188964844" stroke-width="0.0" fill="rgb(183, 5, 145)" opacity="0.59739023" stroke="rgb(0, 0, 0)" stroke-opacity="1.0" stroke-linecap="round" stroke-linejoin="round"/>
    <path d="M 420.5353698730469 72.76217651367188 C 440.2294006347656 67.03056335449219 467.7513122558594 47.86968994140625 427.6871337890625 130.27676391601562 C 419.1117858886719 173.10240173339844 392.20440673828125 125.22284698486328 347.1631774902344 105.68685913085938 C 387.6313171386719 108.3368911743164 393.16937255859375 73.98715209960938 418.2306823730469 63.95228958129883 C 397.0155334472656 93.57389068603516 412.2517395019531 83.00188446044922 420.5353698730469 72.76217651367188" stroke-width="0.0" fill="rgb(105, 65, 161)" opacity="0.99851906" stroke="rgb(0, 0, 0)" stroke-opacity="1.0" stroke-linecap="round" stroke-linejoin="round"/>
    <path d="M 188.8352813720703 91.71125030517578 C 197.36752319335938 75.12969207763672 187.47958374023438 97.98141479492188 188.51841735839844 102.85330200195312 C 183.7626190185547 100.66777801513672 159.1335906982422 114.53375244140625 132.31790161132812 77.90445709228516 C 106.56781768798828 24.88575553894043 129.90013122558594 71.00597381591797 194.8851776123047 68.5849380493164 C 206.92872619628906 79.94862365722656 198.0028076171875 83.83103942871094 188.8352813720703 91.71125030517578" stroke-width="0.0" fill="rgb(159, 74, 25)" opacity="0.9950685" stroke="rgb(0, 0, 0)" stroke-opacity="1.0" stroke-linecap="round" stroke-linejoin="round"/>
    <path d="M 531.8523559570312 440.48583984375 C 531.2156982421875 467.00396728515625 531.2875366210938 471.57672119140625 529.8192138671875 455.4827575683594 C 515.019287109375 456.8262634277344 495.5606994628906 452.2546691894531 495.3257141113281 434.3094787597656 C 497.585693359375 430.2019348144531 495.0373229980469 421.83160400390625 531.7841186523438 426.9958190917969 C 524.2904663085938 425.6336975097656 529.3707275390625 430.8746337890625 531.8523559570312 440.48583984375" stroke-width="0.0" fill="rgb(224, 166, 115)" opacity="0.28591627" stroke="rgb(0, 0, 0)" stroke-opacity="1.0" stroke-linecap="round" stroke-linejoin="round"/>
    <path d="M 379.16552734375 209.07601928710938 C 384.9452819824219 248.9063262939453 362.6045837402344 279.147216796875 358.6844787597656 267.7760314941406 C 354.396728515625 211.67581176757812 350.6719665527344 270.65142822265625 327.072021484375 256.20306396484375 C 329.48760986328125 239.85398864746094 343.6923522949219 239.55694580078125 339.7645568847656 220.88156127929688 C 366.3751220703125 218.86048889160156 330.8222351074219 211.70675659179688 379.16552734375 209.07601928710938" stroke-width="0.0" fill="rgb(49, 19, 41)" opacity="0.85525966" stroke="rgb(0, 0, 0)" stroke-opacity="1.0" stroke-linecap="round" stroke-linejoin="round"/>
    <path d="M 482.5237121582031 407.0542297363281 C 483.39459228515625 423.0173034667969 457.63494873046875 428.7541198730469 440.021240234375 459.6165771484375 C 448.17352294921875 464.8327331542969 435.56134033203125 439.62359619140625 430.93359375 381.6366271972656 C 389.47210693359375 350.3840026855469 393.5915832519531 343.50054931640625 442.7807312011719 330.69305419921875 C 472.5185546875 384.2518615722656 479.1460266113281 399.71954345703125 482.5237121582031 407.0542297363281" stroke-width="0.0" fill="rgb(195, 203, 223)" opacity="0.46513158" stroke="rgb(0, 0, 0)" stroke-opacity="1.0" stroke-linecap="round" stroke-linejoin="round"/>
    <path d="M 198.9985809326172 436.42877197265625 C 163.14186096191406 427.1634521484375 171.40933227539062 421.5951232910156 159.77098083496094 410.7072448730469 C 148.3330078125 418.31182861328125 148.61036682128906 449.3326721191406 146.7077178955078 455.6129455566406 C 138.63284301757812 402.24871826171875 134.71559143066406 376.1037902832031 167.60081481933594 382.5565185546875 C 182.37046813964844 398.59246826171875 189.2950439453125 405.6301574707031 198.9985809326172 436.42877197265625" stroke-width="0.0" fill="rgb(192, 213, 216)" opacity="0.9965428" stroke="rgb(0, 0, 0)" stroke-opacity="1.0" stroke-linecap="round" stroke-linejoin="round"/>
    <path d="M 421.6271667480469 400.6917419433594 C 403.3228759765625 400.87872314453125 412.6465148925781 419.7814636230469 435.4541931152344 415.53826904296875 C 405.7027282714844 402.5398864746094 401.34478759765625 379.9286193847656 409.5506896972656 348.8927001953125 C 394.02001953125 295.3368225097656 366.9691162109375 269.5499267578125 430.62152099609375 299.478759765625 C 431.5553283691406 374.306640625 433.9733581542969 369.728515625 421.6271667480469 400.6917419433594" stroke-width="0.0" fill="rgb(255, 189, 187)" opacity="0.00040452665" stroke="rgb(0, 0, 0)" stroke-opacity="1.0" stroke-linecap="round" stroke-linejoin="round"/>
    <path d="M 137.5231475830078 107.39032745361328 C 183.32736206054688 121.0083236694336 164.71243286132812 121.45462036132812 146.2532196044922 131.8311309814453 C 140.32815551757812 94.93394470214844 138.74559020996094 67.16294860839844 81.29624938964844 82.28905487060547 C 79.4582290649414 27.09707260131836 87.65491485595703 36.539424896240234 103.72545623779297 62.86250686645508 C 113.84244537353516 85.00442504882812 120.44027709960938 91.07390594482422 137.5231475830078 107.39032745361328" stroke-width="0.0" fill="rgb(67, 55, 162)" opacity="0.95216405" stroke="rgb(0, 0, 0)" stroke-opacity="1.0" stroke-linecap="round" stroke-linejoin="round"/>
    <path d="M 342.2831726074219 398.7472229003906 C 351.7279968261719 399.748291015625 366.20159912109375 428.63507080078125 317.0591125488281 443.712158203125 C 335.2247619628906 379.8656005859375 361.8929443359375 362.85894775390625 328.9964599609375 375.8917236328125 C 311.4831237792969 352.375244140625 322.5956726074219 323.15863037109375 323.6803283691406 353.46282958984375 C 311.0157775878906 393.9818115234375 333.2204895019531 390.2393798828125 342.2831726074219 398.7472229003906" stroke-width="0.0" fill="rgb(95, 58, 74)" opacity="0.44094703" stroke="rgb(0, 0, 0)" stroke-opacity="1.0" stroke-linecap="round" stroke-linejoin="round"/>
    <path d="M 108.55036926269531 367.45599365234375 C 120.7847671508789 360.9024658203125 118.21617889404297 368.71282958984375 95.99651336669922 355.3492431640625 C 64.36250305175781 394.8627624511719 78.24491882324219 387.94476318359375 64.18769836425781 356.9880065917969 C 58.97529220581055 328.5927429199219 75.42254638671875 337.9609069824219 111.64665985107422 362.0657043457031 C 107.15018463134766 345.837158203125 128.72552490234375 369.7895812988281 108.55036926269531 367.45599365234375" stroke-width="0.0" fill="rgb(157, 41, 7)" opacity="0.94390696" stroke="rgb(0, 0, 0)" stroke-opacity="1.0" stroke-linecap="round" stroke-linejoin="round"/>
    <path d="M 297.7969970703125 91.75340270996094 C 345.13739013671875 138.72296142578125 341.56475830078125 182.0274200439453 283.3100891113281 181.3800811767578 C 227.20541381835938 169.6414031982422 235.01783752441406 137.7541961669922 251.7726593017578 129.00509643554688 C 253.77493286132812 136.5484161376953 257.83038330078125 130.01951599121094 179.298828125 53.48995590209961 C 199.77212524414062 4.436929702758789 315.01678466796875 14.480436325073242 297.7969970703125 91.75340270996094" stroke-width="0.0" fill="rgb(155, 65, 23)" opacity="0.9507415" stroke="rgb(0, 0, 0)" stroke-opacity="1.0" stroke-linecap="round" stroke-linejoin="round"/>
    <path d="M 435.5712585449219 77.30392456054688 C 425.9421081542969 88.29132843017578 417.5361022949219 100.83451080322266 442.467529296875 103.97115325927734 C 439.4226989746094 73.48960876464844 443.5281677246094 95.90412902832031 418.1726989746094 91.25936889648438 C 399.95635986328125 72.31334686279297 412.7467041015625 65.75074005126953 442.4261779785156 40.57838821411133 C 441.9173278808594 56.33152389526367 441.2232360839844 89.03813934326172 435.5712585449219 77.30392456054688" stroke-width="0.0" fill="rgb(126, 62, 220)" opacity="0.7396244" stroke="rgb(0, 0, 0)" stroke-opacity="1.0" stroke-linecap="round" stroke-linejoin="round"/>
    <path d="M 145.39585876464844 122.90066528320312 C 116.30594635009766 133.1703338623047 88.33804321289062 152.94651794433594 97.62156677246094 145.3196563720703 C 109.91957092285156 143.59303283691406 108.74411010742188 149.42933654785156 104.60189819335938 116.63457489013672 C 88.13212585449219 89.7838363647461 71.72245788574219 69.77253723144531 91.87860870361328 65.78233337402344 C 157.74618530273438 86.54804992675781 166.29434204101562 109.85175323486328 145.39585876464844 122.90066528320312" stroke-width="0.0" fill="rgb(127, 50, 139)" opacity="0.9281487" stroke="rgb(0, 0, 0)" stroke-opacity="1.0" stroke-linecap="round" stroke-linejoin="round"/>
    <path d="M 558.8320922851562 477.2034606933594 C 520.4595336914062 517.4486083984375 511.7738037109375 524.1069946289062 472.4385681152344 531.1514892578125 C 444.8027038574219 529.9364013671875 448.5089111328125 542.07568359375 470.3976135253906 512.4371948242188 C 459.2784423828125 474.3930969238281 476.5470275878906 478.6407165527344 497.4937438964844 450.94805908203125 C 541.18896484375 445.4143981933594 559.3480834960938 453.3896484375 558.8320922851562 477.2034606933594" stroke-width="0.0" fill="rgb(255, 191, 0)" opacity="0.75991064" stroke="rgb(0, 0, 0)" stroke-opacity="1.0" stroke-linecap="round" stroke-linejoin="round"/>
    <path d="M 270.0648193359375 299.88946533203125 C 301.9022521972656 283.20184326171875 302.85693359375 328.705078125 263.6977844238281 342.6106872558594 C 219.052978515625 328.5409851074219 174.2562255859375 319.5570983886719 198.28355407714844 291.7593994140625 C 285.5954284667969 296.7507019042969 288.3745422363281 302.1203918457031 254.0797119140625 320.3636779785156 C 245.67648315429688 298.9928283691406 260.7934265136719 329.9014587402344 270.0648193359375 299.88946533203125" stroke-width="0.0" fill="rgb(42, 50, 32)" opacity="0.9987298" stroke="rgb(0, 0, 0)" stroke-opacity="1.0" stroke-linecap="round" stroke-linejoin="round"/>
    <path d="M 435.02520751953125 121.5822982788086 C 429.9410705566406 125.27483367919922 419.9208984375 149.59384155273438 424.7939758300781 189.63282775878906 C 382.0264892578125 177.9850616455078 390.40838623046875 153.76898193359375 402.9355163574219 134.87266540527344 C 430.79754638671875 154.46978759765625 438.24359130859375 148.50543212890625 417.60223388671875 150.27174377441406 C 426.2882995605469 137.0577850341797 440.1527404785156 139.3288116455078 435.02520751953125 121.5822982788086" stroke-width="0.0" fill="rgb(139, 32, 110)" opacity="0.56778103" stroke="rgb(0, 0, 0)" stroke-opacity="1.0" stroke-linecap="round" stroke-linejoin="round"/>
    <path d="M 460.44940185546875 482.60968017578125 C 476.1051330566406 490.6535339355469 464.9031677246094 508.4589538574219 429.9501647949219 542.329833984375 C 422.2861022949219 517.1727294921875 422.3363952636719 497.8695373535156 431.9810485839844 514.8953857421875 C 429.5266418457031 476.8116149902344 427.07855224609375 475.1207275390625 434.40142822265625 481.46612548828125 C 447.8057861328125 467.13934326171875 447.05621337890625 485.84808349609375 460.44940185546875 482.60968017578125" stroke-width="0.0" fill="rgb(234, 85, 100)" opacity="0.6040737" stroke="rgb(0, 0, 0)" stroke-opacity="1.0" stroke-linecap="round" stroke-linejoin="round"/>
    <path d="M 463.4040832519531 15.185259819030762 C 477.052001953125 51.24169158935547 477.68475341796875 52.25027847290039 473.2227478027344 23.529335021972656 C 474.7872619628906 -10.807945251464844 468.2745361328125 -9.589147567749023 430.40850830078125 -8.87319278717041 C 438.0710754394531 -18.8131160736084 455.22027587890625 -17.280004501342773 459.1767883300781 -25.62415885925293 C 464.1480407714844 -29.459461212158203 486.82623291015625 -14.979185104370117 463.4040832519531 15.185259819030762" stroke-width="0.0" fill="rgb(68, 22, 66)" opacity="0.6916017" stroke="rgb(0, 0, 0)" stroke-opacity="1.0" stroke-linecap="round" stroke-linejoin="round"/>
    <path d="M 186.5286407470703 242.5842742919922 C 181.46990966796875 249.05386352539062 185.16452026367188 262.9587097167969 155.46102905273438 254.20701599121094 C 144.12210083007812 259.3108825683594 163.36981201171875 271.430908203125 158.5382843017578 240.7190399169922 C 169.60108947753906 226.20135498046875 172.2202911376953 242.34202575683594 188.90145874023438 245.53208923339844 C 180.1707000732422 249.34457397460938 177.16357421875 251.8922882080078 186.5286407470703 242.5842742919922" stroke-width="0.0" fill="rgb(191, 18, 49)" opacity="0.5006535" stroke="rgb(0, 0, 0)" stroke-opacity="1.0" stroke-linecap="round" stroke-linejoin="round"/>
    <path d="M 208.7654266357422 442.48663330078125 C 191.0205535888672 436.8475036621094 161.07791137695312 439.1239929199219 179.36953735351562 453.6393737792969 C 154.5615234375 461.56085205078125 130.56103515625 467.6800842285156 127.42604064941406 450.6936950683594 C 116.44895935058594 405.7427978515625 144.12428283691406 381.50067138671875 152.68150329589844 379.7173156738281 C 168.02577209472656 397.4826354980469 176.5731964111328 412.5005187988281 208.7654266357422 442.48663330078125" stroke-width="0.0" fill="rgb(141, 73, 0)" opacity="0.67217857" stroke="rgb(0, 0, 0)" stroke-opacity="1.0" stroke-linecap="round" stroke-linejoin="round"/>
    <path d="M 185.0121307373047 245.38478088378906 C 194.19784545898438 223.66995239257812 189.75225830078125 245.68421936035156 176.80413818359375 265.6038513183594 C 170.03453063964844 269.60919189453125 167.06578063964844 260.42596435546875 173.5364532470703 207.01174926757812 C 207.91473388671875 220.25372314453125 187.24720764160156 249.66090393066406 211.23001098632812 237.8063507080078 C 225.53517150878906 215.40699768066406 195.20928955078125 217.6360626220703 185.0121307373047 245.38478088378906" stroke-width="0.0" fill="rgb(179, 113, 135)" opacity="0.9976563" stroke="rgb(0, 0, 0)" stroke-opacity="1.0" stroke-linecap="round" stroke-linejoin="round"/>
    <path d="M 181.16781616210938 333.60333251953125 C 183.41807556152344 344.3105163574219 173.156005859375 339.7301330566406 190.74842834472656 373.8996276855469 C 157.87232971191406 365.3213806152344 160.4635467529297 354.2534484863281 200.8643798828125 364.3471374511719 C 193.80374145507812 347.8278503417969 197.04437255859375 360.57806396484375 177.40579223632812 330.9732971191406 C 158.6685028076172 351.2667541503906 186.6221160888672 334.5433044433594 181.16781616210938 333.60333251953125" stroke-width="0.0" fill="rgb(24, 65, 165)" opacity="0.94020116" stroke="rgb(0, 0, 0)" stroke-opacity="1.0" stroke-linecap="round" stroke-linejoin="round"/>
    <path d="M 97.57462310791016 448.12255859375 C 94.07295989990234 466.33367919921875 49.572261810302734 463.16375732421875 48.708187103271484 442.37939453125 C 75.99537658691406 434.5417175292969 63.83735656738281 426.5066833496094 72.66790008544922 434.9521179199219 C 65.65681457519531 446.5987854003906 73.96566772460938 425.84552001953125 68.13928985595703 421.0069274902344 C 78.20198822021484 415.765869140625 93.29969787597656 439.6871032714844 97.57462310791016 448.12255859375" stroke-width="0.0" fill="rgb(240, 255, 247)" opacity="0.003522328" stroke="rgb(0, 0, 0)" stroke-opacity="1.0" stroke-linecap="round" stroke-linejoin="round"/>
    <path d="M 479.2580871582031 459.95977783203125 C 468.03253173828125 500.9810485839844 466.16033935546875 513.9739379882812 448.228515625 490.6571350097656 C 419.4647521972656 462.55010986328125 402.1374816894531 463.1518249511719 413.86260986328125 429.2442626953125 C 399.2546691894531 411.743408203125 429.79595947265625 407.6932678222656 454.5247497558594 419.2665100097656 C 442.10626220703125 442.8507080078125 483.673583984375 450.3084411621094 479.2580871582031 459.95977783203125" stroke-width="0.0" fill="rgb(251, 199, 160)" opacity="0.20049404" stroke="rgb(0, 0, 0)" stroke-opacity="1.0" stroke-linecap="round" stroke-linejoin="round"/>
    <path d="M 427.3463134765625 403.2646789550781 C 484.6175231933594 398.62664794921875 482.9388427734375 408.93365478515625 468.7615051269531 401.1616516113281 C 429.4772644042969 422.5691833496094 403.9731750488281 415.7746887207031 368.19158935546875 355.06341552734375 C 376.1545715332031 322.67474365234375 387.1264953613281 329.54205322265625 430.54241943359375 332.5144348144531 C 433.00665283203125 344.3201599121094 423.9129638671875 386.3895568847656 427.3463134765625 403.2646789550781" stroke-width="0.0" fill="rgb(239, 128, 237)" opacity="0.12439121" stroke="rgb(0, 0, 0)" stroke-opacity="1.0" stroke-linecap="round" stroke-linejoin="round"/>
    <path d="M 53.40211486816406 155.3544464111328 C 84.03668212890625 149.50978088378906 97.72273254394531 92.51200103759766 47.06528854370117 134.69036865234375 C 37.48885726928711 141.10768127441406 21.33449363708496 127.18206024169922 43.01085662841797 112.1115951538086 C 41.647682189941406 95.21048736572266 22.85283851623535 77.655029296875 40.479736328125 68.20219421386719 C 8.697509765625 87.74552154541016 23.56451416015625 109.56452941894531 53.40211486816406 155.3544464111328" stroke-width="0.0" fill="rgb(251, 248, 255)" opacity="0.011949185" stroke="rgb(0, 0, 0)" stroke-opacity="1.0" stroke-linecap="round" stroke-linejoin="round"/>
    <path d="M 38.66231918334961 494.7451171875 C 45.47659683227539 462.8529052734375 39.84308624267578 466.7692565917969 51.71153259277344 462.5229797363281 C 65.87841033935547 500.6824645996094 37.52186584472656 481.5079345703125 7.196425914764404 452.1783752441406 C -3.967785596847534 443.9770202636719 -16.375598907470703 449.7730407714844 22.446725845336914 466.0897521972656 C 19.72747039794922 468.71868896484375 24.342193603515625 479.5685119628906 38.66231918334961 494.7451171875" stroke-width="0.0" fill="rgb(205, 255, 188)" opacity="0.004150523" stroke="rgb(0, 0, 0)" stroke-opacity="1.0" stroke-linecap="round" stroke-linejoin="round"/>
    <path d="M 129.64877319335938 224.35769653320312 C 102.99313354492188 225.50308227539062 99.67779541015625 248.70814514160156 128.40028381347656 261.9705810546875 C 142.95034790039062 265.10986328125 107.34383392333984 261.47772216796875 106.54875183105469 224.1898956298828 C 124.0066909790039 219.48248291015625 111.5702133178711 232.2541961669922 117.93621826171875 220.725341796875 C 153.1168670654297 244.28477478027344 151.92666625976562 223.08502197265625 129.64877319335938 224.35769653320312" stroke-width="0.0" fill="rgb(74, 224, 255)" opacity="0.9999099" stroke="rgb(0, 0, 0)" stroke-opacity="1.0" stroke-linecap="round" stroke-linejoin="round"/>
    <path d="M 314.0754699707031 27.446922302246094 C 315.85845947265625 43.959632873535156 310.6832580566406 59.450050354003906 277.19036865234375 58.13250732421875 C 251.69369506835938 37.1467399597168 257.40496826171875 6.202994346618652 249.33157348632812 -0.30620938539505005 C 251.7690887451172 -10.647590637207031 255.1380157470703 -18.274423599243164 281.20989990234375 -31.03716278076172 C 291.7001953125 -15.852578163146973 293.67108154296875 -0.5319203734397888 314.0754699707031 27.446922302246094" stroke-width="0.0" fill="rgb(197, 242, 255)" opacity="0.05808775" stroke="rgb(0, 0, 0)" stroke-opacity="1.0" stroke-linecap="round" stroke-linejoin="round"/>
    <path d="M 117.45138549804688 178.86973571777344 C 113.36515045166016 150.54017639160156 127.60291290283203 159.62608337402344 93.2221450805664 218.17337036132812 C 98.00688934326172 199.84371948242188 122.58808135986328 172.80633544921875 135.80599975585938 131.7487335205078 C 107.56201934814453 107.42346954345703 100.2314224243164 122.85986328125 158.8967742919922 129.61550903320312 C 138.10813903808594 106.75057220458984 136.36331176757812 132.8192596435547 117.45138549804688 178.86973571777344" stroke-width="0.0" fill="rgb(240, 236, 220)" opacity="0.024481859" stroke="rgb(0, 0, 0)" stroke-opacity="1.0" stroke-linecap="round" stroke-linejoin="round"/>
    <path d="M 477.26727294921875 232.8606414794922 C 458.3883972167969 235.9528045654297 445.5713806152344 236.7334747314453 457.2528381347656 236.82215881347656 C 441.8154602050781 263.42974853515625 430.5088806152344 250.37599182128906 460.02447509765625 248.008544921875 C 451.60406494140625 235.9531707763672 466.2453918457031 243.7584991455078 474.6003723144531 240.83738708496094 C 460.1712341308594 232.2051239013672 484.8075866699219 224.38270568847656 477.26727294921875 232.8606414794922" stroke-width="0.0" fill="rgb(60, 7, 113)" opacity="0.0" stroke="rgb(0, 0, 0)" stroke-opacity="1.0" stroke-linecap="round" stroke-linejoin="round"/>
    <path d="M 428.26434326171875 413.1024169921875 C 414.8543701171875 473.3746032714844 358.2625732421875 454.3526306152344 339.1353454589844 432.3190612792969 C 342.5831604003906 395.2226257324219 309.4122619628906 389.5613708496094 312.218505859375 387.14007568359375 C 330.6163635253906 388.9914855957031 328.6851806640625 372.0828857421875 333.68426513671875 361.180419921875 C 369.9955139160156 384.7614440917969 369.10418701171875 372.8629455566406 428.26434326171875 413.1024169921875" stroke-width="0.0" fill="rgb(62, 218, 87)" opacity="0.22912765" stroke="rgb(0, 0, 0)" stroke-opacity="1.0" stroke-linecap="round" stroke-linejoin="round"/>
    <path d="M 400.3674011230469 178.71755981445312 C 366.0965270996094 193.4210205078125 335.17559814453125 209.82337951660156 342.4917907714844 211.43238830566406 C 343.4982604980469 199.64186096191406 320.7412109375 171.13027954101562 299.4515380859375 173.42507934570312 C 278.59051513671875 122.12825775146484 283.5234069824219 107.84654235839844 381.50128173828125 113.6580810546875 C 418.2613830566406 113.82704162597656 407.5850524902344 144.8983917236328 400.3674011230469 178.71755981445312" stroke-width="0.0" fill="rgb(153, 74, 129)" opacity="0.2467853" stroke="rgb(0, 0, 0)" stroke-opacity="1.0" stroke-linecap="round" stroke-linejoin="round"/>
    <path d="M 118.28870391845703 428.3021545410156 C 99.50303649902344 436.98272705078125 87.2435531616211 449.4317321777344 72.69853973388672 469.5401916503906 C 59.18818664550781 483.24169921875 78.98805236816406 446.2095642089844 76.34331512451172 444.0650329589844 C 61.41297149658203 434.01995849609375 100.56380462646484 439.7188720703125 110.44790649414062 437.2332763671875 C 107.60888671875 416.25384521484375 111.27420806884766 412.81536865234375 118.28870391845703 428.3021545410156" stroke-width="0.0" fill="rgb(219, 254, 196)" opacity="0.0" stroke="rgb(0, 0, 0)" stroke-opacity="1.0" stroke-linecap="round" stroke-linejoin="round"/>
    <path d="M 119.01851654052734 458.8666687011719 C 117.23540496826172 482.45489501953125 118.71895599365234 492.7511901855469 69.9167709350586 488.47955322265625 C 58.62721633911133 439.585205078125 63.399986267089844 455.0916748046875 69.49523162841797 469.45404052734375 C 69.84540557861328 422.9296875 87.1803970336914 429.0607604980469 69.78617858886719 457.4798583984375 C 79.81942749023438 445.8480224609375 76.60611724853516 454.0258483886719 119.01851654052734 458.8666687011719" stroke-width="0.0" fill="rgb(244, 255, 209)" opacity="0.0" stroke="rgb(0, 0, 0)" stroke-opacity="1.0" stroke-linecap="round" stroke-linejoin="round"/>
  </g>
</svg>
