<?xml version="1.0" ?>
<svg xmlns="http://www.w3.org/2000/svg" version="1.1" width="512" height="512">
  <defs/>
  <g>
    <path d="M 551.4246826171875 473.1246643066406 C 548.88232421875 518.2211303710938 549.809814453125 525.8021850585938 376.82086181640625 534.6237182617188 C 337.13372802734375 543.2450561523438 342.40582275390625 516.8775024414062 247.14244079589844 429.2637023925781 C 277.860595703125 308.94403076171875 370.69683837890625 340.6946105957031 515.8156127929688 338.8858642578125 C 566.7301635742188 334.14398193359375 575.8250732421875 356.6474304199219 551.4246826171875 473.1246643066406" stroke-width="0.0" fill="rgb(11, 5, 125)" opacity="0.9636076" stroke="rgb(0, 0, 0)" stroke-opacity="1.0" stroke-linecap="round" stroke-linejoin="round"/>
    <path d="M 302.743408203125 478.50836181640625 C 360.7538757324219 511.27020263671875 401.7650451660156 511.48065185546875 290.5600891113281 526.364013671875 C -51.100406646728516 521.1051635742188 -51.19970703125 512.4564819335938 -49.52175521850586 469.46295166015625 C -29.13788604736328 200.87242126464844 -18.828227996826172 193.2948455810547 24.363554000854492 187.1678924560547 C 144.146484375 309.6463928222656 182.48594665527344 300.0736389160156 302.743408203125 478.50836181640625" stroke-width="0.0" fill="rgb(22, 4, 199)" opacity="0.9953078" stroke="rgb(0, 0, 0)" stroke-opacity="1.0" stroke-linecap="round" stroke-linejoin="round"/>
    <path d="M 329.4909362792969 376.59991455078125 C 335.54864501953125 428.1682434082031 294.96392822265625 401.81134033203125 208.7069091796875 404.12005615234375 C 66.54096221923828 360.67083740234375 107.2900619506836 301.7585754394531 51.12790298461914 166.6886749267578 C 38.625022888183594 184.84764099121094 60.030120849609375 169.24008178710938 114.32441711425781 183.6385040283203 C 251.91546630859375 197.4823760986328 270.19677734375 160.5989227294922 329.4909362792969 376.59991455078125" stroke-width="0.0" fill="rgb(231, 248, 95)" opacity="1.0" stroke="rgb(0, 0, 0)" stroke-opacity="1.0" stroke-linecap="round" stroke-linejoin="round"/>
    <path d="M 287.91448974609375 15.853245735168457 C 281.07733154296875 236.47682189941406 252.9961395263672 171.0861358642578 37.11997604370117 243.3911590576172 C -46.92103958129883 228.7375946044922 -38.207889556884766 207.91018676757812 -25.950407028198242 163.98361206054688 C -16.494123458862305 -18.97837257385254 -10.838438034057617 -25.126850128173828 35.96099853515625 -30.949663162231445 C 208.5653533935547 -37.95661926269531 224.177978515625 -40.228843688964844 287.91448974609375 15.853245735168457" stroke-width="0.0" fill="rgb(32, 12, 206)" opacity="0.9759416" stroke="rgb(0, 0, 0)" stroke-opacity="1.0" stroke-linecap="round" stroke-linejoin="round"/>
    <path d="M 551.724365234375 45.337867736816406 C 437.1586608886719 277.0122375488281 434.47052001953125 288.0397033691406 365.76708984375 321.5302734375 C 282.1092224121094 325.2967224121094 300.6357421875 300.9117736816406 246.94277954101562 169.249267578125 C 269.35882568359375 7.457831382751465 197.86134338378906 -26.171350479125977 346.8160400390625 -24.99231719970703 C 563.2000122070312 -5.52442741394043 563.2000122070312 4.830130577087402 551.724365234375 45.337867736816406" stroke-width="0.0" fill="rgb(20, 3, 208)" opacity="0.98282653" stroke="rgb(0, 0, 0)" stroke-opacity="1.0" stroke-linecap="round" stroke-linejoin="round"/>
    <path d="M 341.55181884765625 67.56491088867188 C 296.4763488769531 297.1196594238281 264.44281005859375 277.8872985839844 205.70863342285156 245.90768432617188 C 71.54076385498047 272.54034423828125 53.55595779418945 282.95465087890625 84.24950408935547 231.12452697753906 C 96.59842681884766 143.60394287109375 111.81153106689453 128.5470733642578 302.96533203125 36.22164535522461 C 297.8333435058594 -17.969518661499023 288.31561279296875 -5.4871745109558105 341.55181884765625 67.56491088867188" stroke-width="0.0" fill="rgb(170, 250, 41)" opacity="0.93974817" stroke="rgb(0, 0, 0)" stroke-opacity="1.0" stroke-linecap="round" stroke-linejoin="round"/>
    <path d="M 464.6708679199219 329.7585754394531 C 448.559814453125 386.636474609375 463.66290283203125 465.91058349609375 335.10791015625 450.5589599609375 C 298.96978759765625 407.2519836425781 285.57818603515625 403.1744079589844 256.35821533203125 376.6925964355469 C 262.1246032714844 204.30368041992188 265.63623046875 208.79452514648438 347.3062438964844 177.04115295410156 C 397.77386474609375 294.35369873046875 434.80322265625 286.99688720703125 464.6708679199219 329.7585754394531" stroke-width="0.0" fill="rgb(239, 242, 96)" opacity="0.995766" stroke="rgb(0, 0, 0)" stroke-opacity="1.0" stroke-linecap="round" stroke-linejoin="round"/>
    <path d="M 545.2771606445312 164.6134033203125 C 555.432861328125 324.7804870605469 556.680908203125 343.63006591796875 445.7861633300781 426.47802734375 C 339.19940185546875 423.98773193359375 391.50360107421875 359.7391052246094 385.0870056152344 279.7915954589844 C 351.33892822265625 193.53993225097656 396.40460205078125 139.4454345703125 535.0118408203125 80.6688003540039 C 563.2000122070312 76.2098159790039 563.2000122070312 99.41815185546875 545.2771606445312 164.6134033203125" stroke-width="0.0" fill="rgb(18, 13, 155)" opacity="0.96987176" stroke="rgb(0, 0, 0)" stroke-opacity="1.0" stroke-linecap="round" stroke-linejoin="round"/>
    <path d="M 413.376708984375 266.3421325683594 C 429.1440124511719 279.1683044433594 383.5367736816406 222.07093811035156 351.26300048828125 261.93878173828125 C 341.45819091796875 265.908203125 308.0533447265625 231.918701171875 195.09317016601562 267.30780029296875 C 237.6203155517578 136.68026733398438 264.0153503417969 164.7353515625 313.710205078125 157.9611053466797 C 363.7743835449219 146.41404724121094 395.0686340332031 163.32122802734375 413.376708984375 266.3421325683594" stroke-width="0.0" fill="rgb(225, 255, 10)" opacity="0.42808595" stroke="rgb(0, 0, 0)" stroke-opacity="1.0" stroke-linecap="round" stroke-linejoin="round"/>
    <path d="M 433.64599609375 258.5022277832031 C 457.2763977050781 339.7554931640625 451.7246398925781 423.24713134765625 363.1180725097656 412.46881103515625 C 314.635498046875 325.8048400878906 375.783935546875 267.2259826660156 307.55584716796875 169.96408081054688 C 420.5415954589844 157.5087127685547 355.1322326660156 246.94139099121094 302.94659423828125 154.63461303710938 C 397.980224609375 110.32894897460938 429.701904296875 266.340576171875 433.64599609375 258.5022277832031" stroke-width="0.0" fill="rgb(238, 169, 35)" opacity="1.0" stroke="rgb(0, 0, 0)" stroke-opacity="1.0" stroke-linecap="round" stroke-linejoin="round"/>
    <path d="M 348.6111145019531 82.98713684082031 C 299.623779296875 72.2743148803711 292.61773681640625 111.68238830566406 252.63560485839844 172.14810180664062 C 164.01109313964844 232.23150634765625 190.62283325195312 158.0172119140625 85.93616485595703 162.25900268554688 C 112.89054107666016 -5.47157621383667 139.24652099609375 -15.587237358093262 262.7549133300781 -56.34558868408203 C 355.14093017578125 -58.15896987915039 359.0160217285156 -4.082649230957031 348.6111145019531 82.98713684082031" stroke-width="0.0" fill="rgb(20, 6, 206)" opacity="1.0" stroke="rgb(0, 0, 0)" stroke-opacity="1.0" stroke-linecap="round" stroke-linejoin="round"/>
    <path d="M 290.4208984375 399.2854919433594 C 252.24928283691406 431.4101867675781 223.33273315429688 419.3626708984375 202.50439453125 385.0789489746094 C 120.62870788574219 368.1416320800781 103.51154327392578 397.0268859863281 208.3426513671875 401.9802551269531 C 143.11758422851562 350.19818115234375 148.1304168701172 256.9985656738281 172.57888793945312 277.0075378417969 C 234.8690643310547 355.2734680175781 167.7459716796875 372.4401550292969 290.4208984375 399.2854919433594" stroke-width="0.0" fill="rgb(255, 211, 11)" opacity="0.7920758" stroke="rgb(0, 0, 0)" stroke-opacity="1.0" stroke-linecap="round" stroke-linejoin="round"/>
    <path d="M 465.58538818359375 402.500732421875 C 457.46575927734375 417.2431335449219 449.07586669921875 432.4969482421875 414.9004821777344 450.3630676269531 C 428.69598388671875 444.6573791503906 415.55865478515625 443.3977355957031 383.1036071777344 448.0133972167969 C 389.38134765625 435.9852294921875 402.4412841796875 396.7830505371094 406.6447448730469 410.5035705566406 C 434.9064025878906 399.88275146484375 456.53033447265625 398.9263000488281 465.58538818359375 402.500732421875" stroke-width="0.0" fill="rgb(34, 25, 67)" opacity="0.70293695" stroke="rgb(0, 0, 0)" stroke-opacity="1.0" stroke-linecap="round" stroke-linejoin="round"/>
    <path d="M 364.4168395996094 319.5835876464844 C 375.64129638671875 500.11767578125 387.6369934082031 496.7711181640625 301.6068420410156 480.62115478515625 C 250.3260955810547 449.10992431640625 237.8240203857422 430.359619140625 218.46072387695312 409.52960205078125 C 242.84912109375 413.31036376953125 265.931884765625 430.31683349609375 284.9468078613281 404.9651794433594 C 285.0709533691406 429.7226867675781 306.6760559082031 386.68597412109375 364.4168395996094 319.5835876464844" stroke-width="0.0" fill="rgb(1, 16, 150)" opacity="0.99060535" stroke="rgb(0, 0, 0)" stroke-opacity="1.0" stroke-linecap="round" stroke-linejoin="round"/>
    <path d="M 313.1152648925781 258.11431884765625 C 241.771728515625 254.16085815429688 210.69012451171875 291.83111572265625 245.938720703125 335.115234375 C 143.3833770751953 359.88372802734375 141.51751708984375 304.5879211425781 165.0337677001953 267.7986755371094 C 167.49114990234375 224.95245361328125 172.69432067871094 155.921630859375 285.52117919921875 203.44586181640625 C 309.2872314453125 177.0093536376953 330.45849609375 199.28436279296875 313.1152648925781 258.11431884765625" stroke-width="0.0" fill="rgb(255, 251, 89)" opacity="1.0" stroke="rgb(0, 0, 0)" stroke-opacity="1.0" stroke-linecap="round" stroke-linejoin="round"/>
    <path d="M 448.3428039550781 452.5155029296875 C 431.73162841796875 485.3233642578125 408.5112609863281 491.6914978027344 369.16900634765625 516.8458251953125 C 340.58544921875 504.08319091796875 305.9015808105469 500.2723388671875 285.4970397949219 466.4953918457031 C 316.5034484863281 416.7295227050781 353.49365234375 413.7537841796875 381.8756103515625 428.6750183105469 C 441.7354431152344 402.12054443359375 441.1603088378906 418.0877380371094 448.3428039550781 452.5155029296875" stroke-width="0.0" fill="rgb(21, 16, 149)" opacity="0.99839956" stroke="rgb(0, 0, 0)" stroke-opacity="1.0" stroke-linecap="round" stroke-linejoin="round"/>
    <path d="M 280.0347595214844 254.66053771972656 C 245.45957946777344 276.4068908691406 212.71022033691406 281.1109924316406 257.2742919921875 300.78619384765625 C 255.93978881835938 370.72503662109375 257.26739501953125 369.6893310546875 230.4900360107422 385.5408935546875 C 276.74505615234375 414.2433776855469 286.3411865234375 409.156494140625 281.45318603515625 388.532958984375 C 264.0310974121094 374.4887390136719 282.88677978515625 384.1868896484375 280.0347595214844 254.66053771972656" stroke-width="0.0" fill="rgb(230, 123, 53)" opacity="0.6984159" stroke="rgb(0, 0, 0)" stroke-opacity="1.0" stroke-linecap="round" stroke-linejoin="round"/>
    <path d="M 202.7189178466797 205.89764404296875 C 75.21609497070312 104.07115173339844 65.75858306884766 423.0176696777344 193.24656677246094 418.6374206542969 C 87.26102447509766 307.624267578125 280.5447692871094 133.619140625 113.12336730957031 195.87171936035156 C 42.86329650878906 308.7406005859375 68.65441131591797 242.1117706298828 169.7382354736328 179.10995483398438 C 139.05487060546875 355.318603515625 140.31491088867188 254.09439086914062 202.7189178466797 205.89764404296875" stroke-width="0.0" fill="rgb(254, 250, 83)" opacity="1.0" stroke="rgb(0, 0, 0)" stroke-opacity="1.0" stroke-linecap="round" stroke-linejoin="round"/>
    <path d="M 328.78143310546875 146.08998107910156 C 321.62353515625 197.9878387451172 314.8320617675781 199.49755859375 315.3213195800781 191.03604125976562 C 299.7869873046875 186.3092498779297 291.28338623046875 181.8321990966797 291.6374206542969 153.1308135986328 C 307.61724853515625 111.86235046386719 298.23309326171875 130.02040100097656 299.916259765625 122.40336608886719 C 306.8877868652344 132.9236297607422 319.72613525390625 86.09756469726562 328.78143310546875 146.08998107910156" stroke-width="0.0" fill="rgb(0, 44, 126)" opacity="1.0" stroke="rgb(0, 0, 0)" stroke-opacity="1.0" stroke-linecap="round" stroke-linejoin="round"/>
    <path d="M 133.68576049804688 190.54550170898438 C 101.63977813720703 218.63458251953125 91.95500946044922 308.2348327636719 112.18571472167969 363.1016540527344 C 12.617435455322266 348.28173828125 -19.799631118774414 321.5066223144531 -35.55023956298828 233.176025390625 C 57.745243072509766 228.13209533691406 45.82208251953125 192.227783203125 124.63859558105469 121.85638427734375 C 215.38246154785156 162.7768096923828 184.32594299316406 152.1259307861328 133.68576049804688 190.54550170898438" stroke-width="0.0" fill="rgb(19, 3, 218)" opacity="1.0" stroke="rgb(0, 0, 0)" stroke-opacity="1.0" stroke-linecap="round" stroke-linejoin="round"/>
    <path d="M 224.39036560058594 188.77261352539062 C 137.1383056640625 319.904052734375 222.68655395507812 403.2951354980469 180.6993865966797 330.2987060546875 C 151.75335693359375 273.06610107421875 180.30865478515625 233.0662841796875 192.9933319091797 252.35194396972656 C 169.62814331054688 285.0888671875 153.66726684570312 237.6404571533203 176.09469604492188 243.8827667236328 C 200.11676025390625 229.6965789794922 167.2836151123047 152.7313232421875 224.39036560058594 188.77261352539062" stroke-width="0.0" fill="rgb(9, 16, 110)" opacity="0.9763389" stroke="rgb(0, 0, 0)" stroke-opacity="1.0" stroke-linecap="round" stroke-linejoin="round"/>
    <path d="M 352.2384033203125 148.68528747558594 C 332.9951171875 215.24476623535156 309.0374450683594 25.747190475463867 269.9216003417969 155.4248046875 C 251.1046905517578 219.98680114746094 266.1230773925781 158.0045928955078 268.7188415527344 161.49533081054688 C 274.6117248535156 89.04732513427734 287.5416564941406 108.89073181152344 293.1393737792969 133.89561462402344 C 325.2685852050781 79.69620513916016 323.7867126464844 78.35581970214844 352.2384033203125 148.68528747558594" stroke-width="0.0" fill="rgb(133, 243, 6)" opacity="0.9781818" stroke="rgb(0, 0, 0)" stroke-opacity="1.0" stroke-linecap="round" stroke-linejoin="round"/>
    <path d="M 280.6274108886719 155.64877319335938 C 282.8378601074219 176.05084228515625 283.5419921875 165.5624237060547 286.2435607910156 165.2148895263672 C 299.536865234375 147.40310668945312 321.5789794921875 115.35906219482422 275.62640380859375 138.7606201171875 C 260.7519836425781 146.2786102294922 281.6424865722656 160.70127868652344 304.79852294921875 173.891357421875 C 283.4961853027344 202.83843994140625 262.1728820800781 187.16970825195312 280.6274108886719 155.64877319335938" stroke-width="0.0" fill="rgb(52, 183, 18)" opacity="0.13828827" stroke="rgb(0, 0, 0)" stroke-opacity="1.0" stroke-linecap="round" stroke-linejoin="round"/>
    <path d="M 214.14480590820312 401.01690673828125 C 210.29527282714844 404.26104736328125 231.77593994140625 412.7718505859375 209.00772094726562 426.5340576171875 C 155.87429809570312 434.18231201171875 138.29513549804688 403.12799072265625 159.65658569335938 376.2388610839844 C 141.97796630859375 356.959716796875 155.8378448486328 327.25396728515625 180.48715209960938 369.4773864746094 C 197.3778533935547 373.62615966796875 209.93455505371094 382.036865234375 214.14480590820312 401.01690673828125" stroke-width="0.0" fill="rgb(245, 249, 93)" opacity="1.0" stroke="rgb(0, 0, 0)" stroke-opacity="1.0" stroke-linecap="round" stroke-linejoin="round"/>
    <path d="M 409.1195373535156 414.4956970214844 C 396.17169189453125 427.6484069824219 400.6507568359375 410.1936950683594 372.86370849609375 388.61480712890625 C 284.7254943847656 393.5939025878906 273.29510498046875 399.6736145019531 306.994873046875 363.9320983886719 C 320.5857849121094 408.7984619140625 338.4515686035156 410.2265319824219 338.7103271484375 326.36138916015625 C 374.9728698730469 353.7890625 403.5841979980469 349.65228271484375 409.1195373535156 414.4956970214844" stroke-width="0.0" fill="rgb(140, 29, 96)" opacity="0.0" stroke="rgb(0, 0, 0)" stroke-opacity="1.0" stroke-linecap="round" stroke-linejoin="round"/>
    <path d="M 275.3802490234375 264.6025390625 C 260.0393981933594 290.4759826660156 239.3399200439453 286.8642883300781 242.45130920410156 267.5379333496094 C 239.34439086914062 280.65521240234375 221.89295959472656 275.4119873046875 214.25888061523438 264.76708984375 C 219.02810668945312 268.5198059082031 204.13619995117188 273.4842834472656 247.12008666992188 276.56201171875 C 248.91368103027344 245.66375732421875 283.5726013183594 250.70074462890625 275.3802490234375 264.6025390625" stroke-width="0.0" fill="rgb(197, 141, 55)" opacity="0.0" stroke="rgb(0, 0, 0)" stroke-opacity="1.0" stroke-linecap="round" stroke-linejoin="round"/>
    <path d="M 184.62107849121094 358.6962890625 C 151.72726440429688 396.5325622558594 137.244140625 390.626953125 176.95753479003906 369.62176513671875 C 172.80616760253906 340.52587890625 158.5615234375 349.521240234375 164.62232971191406 338.947265625 C 150.44100952148438 357.0956726074219 159.4398193359375 338.1790771484375 166.03652954101562 360.2049560546875 C 190.180419921875 347.35491943359375 205.67379760742188 357.78814697265625 184.62107849121094 358.6962890625" stroke-width="0.0" fill="rgb(255, 242, 37)" opacity="0.068933964" stroke="rgb(0, 0, 0)" stroke-opacity="1.0" stroke-linecap="round" stroke-linejoin="round"/>
    <path d="M 279.8125 305.7318115234375 C 282.0663146972656 295.79254150390625 296.576416015625 295.48748779296875 258.7566223144531 339.33319091796875 C 236.1208953857422 341.36102294921875 234.42088317871094 316.1606750488281 254.27297973632812 339.7701721191406 C 248.6309051513672 312.51409912109375 251.51002502441406 281.2669372558594 281.81878662109375 227.7671661376953 C 288.46881103515625 256.0037536621094 291.0449523925781 284.48077392578125 279.8125 305.7318115234375" stroke-width="0.0" fill="rgb(0, 11, 168)" opacity="0.9957063" stroke="rgb(0, 0, 0)" stroke-opacity="1.0" stroke-linecap="round" stroke-linejoin="round"/>
    <path d="M 328.749267578125 85.75784301757812 C 363.4637451171875 63.79069519042969 356.2903747558594 91.73286437988281 343.5704040527344 109.06060028076172 C 353.2895812988281 88.69231414794922 338.62298583984375 101.10012817382812 302.6437072753906 102.37539672851562 C 313.13018798828125 79.98063659667969 340.8111877441406 88.2857666015625 322.7084655761719 96.66712951660156 C 322.23150634765625 98.12654113769531 335.9511413574219 106.95291137695312 328.749267578125 85.75784301757812" stroke-width="0.0" fill="rgb(157, 218, 28)" opacity="0.7142348" stroke="rgb(0, 0, 0)" stroke-opacity="1.0" stroke-linecap="round" stroke-linejoin="round"/>
    <path d="M 290.2144470214844 243.8295440673828 C 269.45849609375 226.8150634765625 270.8419189453125 239.12193298339844 288.6431579589844 235.8795166015625 C 256.3743896484375 231.43861389160156 245.001953125 248.41847229003906 259.98974609375 226.2866668701172 C 277.1797790527344 195.51611328125 262.7649841308594 163.10037231445312 257.9546203613281 187.48008728027344 C 268.673095703125 212.9432830810547 284.70977783203125 221.55519104003906 290.2144470214844 243.8295440673828" stroke-width="0.0" fill="rgb(127, 116, 7)" opacity="0.49559098" stroke="rgb(0, 0, 0)" stroke-opacity="1.0" stroke-linecap="round" stroke-linejoin="round"/>
    <path d="M 281.0231628417969 255.75311279296875 C 278.785888671875 253.09765625 286.3508605957031 256.3684387207031 274.5158996582031 256.4087829589844 C 261.8305358886719 271.3994140625 256.3315734863281 261.7452697753906 244.86534118652344 271.3453063964844 C 252.3663787841797 224.50384521484375 262.3016662597656 220.60865783691406 278.11083984375 240.8241729736328 C 275.6142272949219 246.80856323242188 280.6405334472656 257.8880310058594 281.0231628417969 255.75311279296875" stroke-width="0.0" fill="rgb(107, 61, 53)" opacity="0.049354296" stroke="rgb(0, 0, 0)" stroke-opacity="1.0" stroke-linecap="round" stroke-linejoin="round"/>
    <path d="M 368.8307800292969 216.05123901367188 C 363.7764587402344 200.51605224609375 374.2760009765625 225.02471923828125 374.90179443359375 225.2576904296875 C 340.8375244140625 233.03073120117188 335.6564636230469 213.3358154296875 333.3508605957031 203.9884490966797 C 357.3668518066406 179.95677185058594 332.2663879394531 162.22337341308594 360.7450256347656 180.06251525878906 C 375.9964294433594 199.73805236816406 381.6581726074219 207.3939971923828 368.8307800292969 216.05123901367188" stroke-width="0.0" fill="rgb(255, 182, 41)" opacity="0.09580803" stroke="rgb(0, 0, 0)" stroke-opacity="1.0" stroke-linecap="round" stroke-linejoin="round"/>
    <path d="M 78.60485076904297 456.5227966308594 C 77.72561645507812 455.5505676269531 87.11698913574219 467.68170166015625 84.50824737548828 467.0452575683594 C 71.197509765625 476.129150390625 56.814876556396484 464.31219482421875 50.202674865722656 446.1988525390625 C 40.12850570678711 419.36859130859375 44.93715286254883 428.7471618652344 66.00496673583984 436.0345764160156 C 78.05810546875 445.27362060546875 76.82235717773438 467.9857482910156 78.60485076904297 456.5227966308594" stroke-width="0.0" fill="rgb(65, 150, 28)" opacity="0.6790262" stroke="rgb(0, 0, 0)" stroke-opacity="1.0" stroke-linecap="round" stroke-linejoin="round"/>
    <path d="M 190.41854858398438 364.74371337890625 C 224.77618408203125 366.1421203613281 206.45555114746094 360.43707275390625 192.14239501953125 355.6677551269531 C 194.67083740234375 361.1749572753906 199.55140686035156 355.7162780761719 203.3477783203125 323.8342590332031 C 194.9631805419922 318.5712890625 168.2199249267578 324.8619384765625 184.3348388671875 330.1202697753906 C 193.07821655273438 306.29833984375 212.54502868652344 326.5987243652344 190.41854858398438 364.74371337890625" stroke-width="0.0" fill="rgb(255, 216, 88)" opacity="0.15023018" stroke="rgb(0, 0, 0)" stroke-opacity="1.0" stroke-linecap="round" stroke-linejoin="round"/>
    <path d="M 43.427215576171875 307.578125 C 55.41939926147461 353.64251708984375 32.324710845947266 344.3603820800781 28.789033889770508 321.9033508300781 C 35.8220329284668 342.202392578125 37.90213394165039 346.3955993652344 26.201677322387695 317.35516357421875 C 20.629091262817383 306.1976013183594 23.163509368896484 294.45367431640625 30.270206451416016 276.16204833984375 C 37.598331451416016 286.2205505371094 44.25960922241211 292.0374755859375 43.427215576171875 307.578125" stroke-width="0.0" fill="rgb(126, 155, 19)" opacity="0.78414124" stroke="rgb(0, 0, 0)" stroke-opacity="1.0" stroke-linecap="round" stroke-linejoin="round"/>
    <path d="M 130.9027862548828 430.84130859375 C 130.52638244628906 456.3876647949219 112.85169982910156 462.6522521972656 93.12139892578125 468.0816955566406 C 99.92566680908203 462.58929443359375 94.69171905517578 473.99090576171875 99.7688980102539 448.6498718261719 C 100.76063537597656 436.6324462890625 116.83573913574219 430.01751708984375 111.61892700195312 433.22637939453125 C 120.970458984375 426.6233215332031 136.4700164794922 430.7029724121094 130.9027862548828 430.84130859375" stroke-width="0.0" fill="rgb(192, 192, 17)" opacity="0.7970496" stroke="rgb(0, 0, 0)" stroke-opacity="1.0" stroke-linecap="round" stroke-linejoin="round"/>
    <path d="M 492.582763671875 60.768699645996094 C 500.08837890625 50.71756362915039 486.1659240722656 61.05690383911133 473.9726867675781 88.62974548339844 C 452.8895568847656 110.79706573486328 454.2567138671875 93.37300109863281 479.2287902832031 100.18435668945312 C 468.4583740234375 72.313720703125 484.85260009765625 63.14685821533203 493.70648193359375 64.9068603515625 C 495.2511901855469 78.07919311523438 484.4814453125 58.59839630126953 492.582763671875 60.768699645996094" stroke-width="0.0" fill="rgb(63, 3, 216)" opacity="0.03384544" stroke="rgb(0, 0, 0)" stroke-opacity="1.0" stroke-linecap="round" stroke-linejoin="round"/>
    <path d="M 74.03960418701172 193.8390350341797 C 63.244232177734375 181.54290771484375 41.191184997558594 182.72467041015625 29.754457473754883 189.6927490234375 C -7.5701823234558105 205.81459045410156 -22.415864944458008 213.19065856933594 9.618313789367676 205.59786987304688 C 31.339204788208008 201.42330932617188 51.550880432128906 203.05393981933594 38.49925994873047 173.14337158203125 C 59.75865936279297 170.85009765625 68.9435806274414 160.3311767578125 74.03960418701172 193.8390350341797" stroke-width="0.0" fill="rgb(38, 24, 198)" opacity="0.03588073" stroke="rgb(0, 0, 0)" stroke-opacity="1.0" stroke-linecap="round" stroke-linejoin="round"/>
    <path d="M 315.0242614746094 332.2376403808594 C 305.07440185546875 350.4225158691406 311.3285217285156 374.72528076171875 314.00250244140625 352.1946716308594 C 293.8450012207031 328.3126220703125 257.3416748046875 328.47406005859375 289.01361083984375 325.7249450683594 C 300.3765563964844 301.1724548339844 301.4776916503906 302.8504333496094 329.7671203613281 300.84002685546875 C 320.1208190917969 291.4307861328125 326.34783935546875 318.7359924316406 315.0242614746094 332.2376403808594" stroke-width="0.0" fill="rgb(239, 242, 98)" opacity="0.3207474" stroke="rgb(0, 0, 0)" stroke-opacity="1.0" stroke-linecap="round" stroke-linejoin="round"/>
    <path d="M 362.8355712890625 457.5230712890625 C 364.9818115234375 448.81494140625 337.1712341308594 467.55328369140625 340.2796936035156 464.7309265136719 C 326.28411865234375 469.7684020996094 340.66632080078125 464.09197998046875 349.5384521484375 459.8976135253906 C 352.1687316894531 447.96826171875 372.3073425292969 446.54913330078125 397.6504211425781 425.2442932128906 C 349.09716796875 410.8247375488281 366.30755615234375 410.7022705078125 362.8355712890625 457.5230712890625" stroke-width="0.0" fill="rgb(1, 31, 127)" opacity="0.24849609" stroke="rgb(0, 0, 0)" stroke-opacity="1.0" stroke-linecap="round" stroke-linejoin="round"/>
    <path d="M 365.7225646972656 384.1066589355469 C 402.4217529296875 422.9482727050781 397.5658874511719 442.6809997558594 343.57269287109375 426.2838134765625 C 304.13983154296875 421.14642333984375 315.4565734863281 438.6257629394531 297.86114501953125 397.3962097167969 C 332.6012878417969 395.6287536621094 365.365478515625 435.7158203125 381.8829345703125 400.21710205078125 C 379.1788024902344 346.35870361328125 365.2308349609375 358.9678039550781 365.7225646972656 384.1066589355469" stroke-width="0.0" fill="rgb(0, 76, 105)" opacity="0.20107079" stroke="rgb(0, 0, 0)" stroke-opacity="1.0" stroke-linecap="round" stroke-linejoin="round"/>
    <path d="M 425.0810546875 72.72261810302734 C 419.4943542480469 75.25418090820312 412.8695983886719 96.41987609863281 411.1430358886719 107.49311065673828 C 405.0583190917969 85.4727783203125 407.92730712890625 72.70148468017578 412.05841064453125 63.65513229370117 C 401.6471862792969 69.04893493652344 406.0552978515625 57.285438537597656 412.2971496582031 40.993099212646484 C 414.8551330566406 35.298065185546875 423.1199645996094 55.560768127441406 425.0810546875 72.72261810302734" stroke-width="0.0" fill="rgb(139, 175, 80)" opacity="0.7289427" stroke="rgb(0, 0, 0)" stroke-opacity="1.0" stroke-linecap="round" stroke-linejoin="round"/>
    <path d="M 63.15995407104492 48.48054885864258 C 43.43758773803711 99.28919982910156 48.611515045166016 110.14301300048828 34.526554107666016 104.19627380371094 C -2.754443883895874 97.57880401611328 -8.402731895446777 101.61053466796875 9.727176666259766 105.07099151611328 C 38.69021987915039 107.76017761230469 44.63272476196289 92.50128173828125 59.43364334106445 86.70618438720703 C 40.41876220703125 48.573116302490234 34.68722915649414 38.505123138427734 63.15995407104492 48.48054885864258" stroke-width="0.0" fill="rgb(52, 40, 244)" opacity="0.0" stroke="rgb(0, 0, 0)" stroke-opacity="1.0" stroke-linecap="round" stroke-linejoin="round"/>
    <path d="M 80.61231231689453 159.7511749267578 C 48.60116958618164 196.51217651367188 22.082849502563477 188.55943298339844 -25.622692108154297 140.65196228027344 C 11.91089153289795 117.26251220703125 -0.6112604141235352 128.0924530029297 -16.854812622070312 136.9720001220703 C -27.90951919555664 133.43435668945312 -14.266169548034668 137.4693145751953 -13.124533653259277 169.889892578125 C 14.85952091217041 174.4221649169922 19.537078857421875 160.77658081054688 80.61231231689453 159.7511749267578" stroke-width="0.0" fill="rgb(44, 16, 181)" opacity="0.04457348" stroke="rgb(0, 0, 0)" stroke-opacity="1.0" stroke-linecap="round" stroke-linejoin="round"/>
    <path d="M 564.4469604492188 263.2272644042969 C 554.6488037109375 257.5248718261719 537.3438110351562 272.87603759765625 481.6442565917969 269.96795654296875 C 478.24273681640625 269.2444763183594 489.3903503417969 284.0565490722656 482.89471435546875 231.6188201904297 C 468.62994384765625 187.05609130859375 452.17852783203125 198.44692993164062 475.76025390625 211.87330627441406 C 521.93896484375 212.14476013183594 540.8944091796875 233.79310607910156 564.4469604492188 263.2272644042969" stroke-width="0.0" fill="rgb(30, 14, 132)" opacity="0.03644593" stroke="rgb(0, 0, 0)" stroke-opacity="1.0" stroke-linecap="round" stroke-linejoin="round"/>
    <path d="M 282.2149658203125 54.25030517578125 C 287.4667663574219 100.8666000366211 292.1756591796875 112.42406463623047 268.2813415527344 90.00099182128906 C 340.9173583984375 21.3358211517334 315.69598388671875 36.24168395996094 292.2928771972656 43.23234558105469 C 339.1642150878906 69.1133804321289 353.30328369140625 32.689205169677734 328.8674011230469 10.633566856384277 C 298.1568603515625 30.967784881591797 324.66351318359375 31.4698543548584 282.2149658203125 54.25030517578125" stroke-width="0.0" fill="rgb(41, 26, 240)" opacity="0.0" stroke="rgb(0, 0, 0)" stroke-opacity="1.0" stroke-linecap="round" stroke-linejoin="round"/>
    <path d="M 383.9920959472656 280.17864990234375 C 402.6898498535156 296.8271789550781 433.4608459472656 283.0367431640625 428.4506530761719 284.2749328613281 C 389.03424072265625 325.4640197753906 406.67327880859375 318.8369140625 367.697998046875 283.7572937011719 C 390.63580322265625 247.2382354736328 388.9570007324219 236.0749053955078 406.03948974609375 236.5979766845703 C 420.87274169921875 264.03314208984375 439.96392822265625 273.7979736328125 383.9920959472656 280.17864990234375" stroke-width="0.0" fill="rgb(247, 151, 49)" opacity="0.12651864" stroke="rgb(0, 0, 0)" stroke-opacity="1.0" stroke-linecap="round" stroke-linejoin="round"/>
    <path d="M 529.0120849609375 131.2213592529297 C 529.8160400390625 157.07363891601562 520.313232421875 168.54913330078125 527.0244140625 158.43099975585938 C 518.5023193359375 153.64820861816406 502.25457763671875 135.1083526611328 481.072265625 138.32513427734375 C 466.5037841796875 86.68474578857422 464.6556091308594 83.41862487792969 510.7888488769531 93.29487609863281 C 542.531494140625 94.37531280517578 540.3391723632812 101.73907470703125 529.0120849609375 131.2213592529297" stroke-width="0.0" fill="rgb(30, 6, 196)" opacity="0.05228876" stroke="rgb(0, 0, 0)" stroke-opacity="1.0" stroke-linecap="round" stroke-linejoin="round"/>
    <path d="M 545.3216552734375 168.9474334716797 C 536.373779296875 167.1529998779297 527.5983276367188 178.33534240722656 534.6266479492188 167.89166259765625 C 505.7018127441406 161.4002685546875 482.5306091308594 155.21658325195312 477.4962158203125 168.2238311767578 C 476.18267822265625 167.02174377441406 483.4046325683594 175.35311889648438 521.0142211914062 167.7825927734375 C 525.0185546875 154.34815979003906 533.520263671875 162.73150634765625 545.3216552734375 168.9474334716797" stroke-width="0.0" fill="rgb(47, 9, 141)" opacity="0.0" stroke="rgb(0, 0, 0)" stroke-opacity="1.0" stroke-linecap="round" stroke-linejoin="round"/>
    <path d="M 82.64605712890625 369.40826416015625 C 92.7842025756836 394.5946044921875 92.31688690185547 389.7666015625 63.728675842285156 376.4675598144531 C 45.206642150878906 369.3896484375 38.482425689697266 353.5825500488281 39.45573043823242 344.4189453125 C 42.880409240722656 346.73785400390625 51.2144660949707 359.3853454589844 70.44291687011719 359.631103515625 C 94.0141372680664 369.45294189453125 74.54393768310547 364.7333679199219 82.64605712890625 369.40826416015625" stroke-width="0.0" fill="rgb(61, 151, 50)" opacity="0.64372116" stroke="rgb(0, 0, 0)" stroke-opacity="1.0" stroke-linecap="round" stroke-linejoin="round"/>
    <path d="M 336.1975402832031 283.1070556640625 C 344.82373046875 258.7392272949219 326.8900146484375 257.62310791015625 296.00408935546875 274.77587890625 C 287.8772277832031 253.51287841796875 289.6654968261719 236.64146423339844 290.7469177246094 251.5514678955078 C 301.60711669921875 251.6049041748047 308.45892333984375 240.05162048339844 299.5445251464844 227.2316131591797 C 342.5694274902344 229.20565795898438 348.1852722167969 227.8574981689453 336.1975402832031 283.1070556640625" stroke-width="0.0" fill="rgb(255, 254, 56)" opacity="0.042871617" stroke="rgb(0, 0, 0)" stroke-opacity="1.0" stroke-linecap="round" stroke-linejoin="round"/>
    <path d="M 502.8985900878906 138.12399291992188 C 498.2282409667969 142.61065673828125 470.7334899902344 123.28483581542969 491.72955322265625 162.931884765625 C 500.4935302734375 164.75836181640625 477.74432373046875 150.11712646484375 475.1109619140625 144.86404418945312 C 478.8250427246094 139.7534637451172 485.63311767578125 125.74369049072266 481.77301025390625 133.90594482421875 C 475.7679748535156 130.88772583007812 483.42816162109375 135.97784423828125 502.8985900878906 138.12399291992188" stroke-width="0.0" fill="rgb(0, 0, 119)" opacity="0.0" stroke="rgb(0, 0, 0)" stroke-opacity="1.0" stroke-linecap="round" stroke-linejoin="round"/>
    <path d="M 484.9020080566406 457.2917785644531 C 484.40594482421875 456.1195068359375 496.71990966796875 465.1940002441406 477.7160339355469 482.158935546875 C 462.28778076171875 465.872314453125 436.22979736328125 477.83880615234375 428.2713317871094 473.2808837890625 C 458.5881042480469 463.4784851074219 454.3758239746094 428.94317626953125 442.6658935546875 457.72802734375 C 484.2113037109375 437.2392883300781 483.2404479980469 457.75018310546875 484.9020080566406 457.2917785644531" stroke-width="0.0" fill="rgb(37, 32, 75)" opacity="0.06787512" stroke="rgb(0, 0, 0)" stroke-opacity="1.0" stroke-linecap="round" stroke-linejoin="round"/>
    <path d="M 490.20562744140625 411.2418518066406 C 468.7841491699219 407.06817626953125 473.65863037109375 353.7602844238281 505.4374084472656 350.674072265625 C 490.74993896484375 390.37957763671875 479.97064208984375 394.0968017578125 476.3830261230469 387.0844421386719 C 488.5692443847656 359.9433288574219 472.28009033203125 350.04632568359375 503.76007080078125 372.33929443359375 C 504.85186767578125 348.34173583984375 499.7828369140625 355.89971923828125 490.20562744140625 411.2418518066406" stroke-width="0.0" fill="rgb(30, 18, 104)" opacity="0.011375152" stroke="rgb(0, 0, 0)" stroke-opacity="1.0" stroke-linecap="round" stroke-linejoin="round"/>
    <path d="M 158.45693969726562 439.8916320800781 C 152.39669799804688 422.4287414550781 149.41282653808594 440.08929443359375 155.35487365722656 435.8601379394531 C 138.07130432128906 441.81939697265625 131.86419677734375 440.78997802734375 122.8931655883789 430.7503356933594 C 147.28712463378906 434.8323669433594 141.88931274414062 411.9692687988281 124.78919982910156 421.64251708984375 C 118.5794906616211 429.9185485839844 140.24378967285156 443.38629150390625 158.45693969726562 439.8916320800781" stroke-width="0.0" fill="rgb(61, 5, 227)" opacity="0.07929865" stroke="rgb(0, 0, 0)" stroke-opacity="1.0" stroke-linecap="round" stroke-linejoin="round"/>
    <path d="M 124.57494354248047 184.03269958496094 C 135.11880493164062 207.6918182373047 107.38642120361328 200.9712677001953 58.54023742675781 187.9329376220703 C 80.00336456298828 189.71151733398438 84.11946868896484 162.3262481689453 74.99435424804688 159.3359375 C 76.29418182373047 179.51315307617188 59.96384811401367 163.3914031982422 75.35140228271484 133.3249053955078 C 101.16146850585938 139.1090545654297 114.19923400878906 146.46669006347656 124.57494354248047 184.03269958496094" stroke-width="0.0" fill="rgb(11, 0, 206)" opacity="0.02575191" stroke="rgb(0, 0, 0)" stroke-opacity="1.0" stroke-linecap="round" stroke-linejoin="round"/>
    <path d="M 189.64149475097656 125.75239562988281 C 173.28118896484375 173.14315795898438 181.03843688964844 175.0812225341797 185.39805603027344 196.53416442871094 C 135.12196350097656 188.25076293945312 160.75465393066406 175.2127685546875 163.8478240966797 159.3407440185547 C 170.03990173339844 111.45791625976562 158.451904296875 76.29186248779297 203.04421997070312 90.43079376220703 C 216.5855712890625 102.64501953125 187.8385009765625 114.35770416259766 189.64149475097656 125.75239562988281" stroke-width="0.0" fill="rgb(132, 255, 0)" opacity="1.0" stroke="rgb(0, 0, 0)" stroke-opacity="1.0" stroke-linecap="round" stroke-linejoin="round"/>
    <path d="M 156.56820678710938 392.20599365234375 C 174.294677734375 404.950927734375 177.24412536621094 421.6200256347656 195.83448791503906 417.40142822265625 C 172.44081115722656 397.8913879394531 165.3386688232422 385.760009765625 154.39134216308594 365.84619140625 C 166.62937927246094 369.1669616699219 178.34266662597656 377.6578369140625 164.83883666992188 378.3439025878906 C 147.55450439453125 387.1994323730469 140.14862060546875 404.4953308105469 156.56820678710938 392.20599365234375" stroke-width="0.0" fill="rgb(248, 247, 90)" opacity="0.33578888" stroke="rgb(0, 0, 0)" stroke-opacity="1.0" stroke-linecap="round" stroke-linejoin="round"/>
    <path d="M 454.5765686035156 109.10780334472656 C 455.9342346191406 117.76444244384766 442.8550109863281 131.63088989257812 427.1878662109375 138.83836364746094 C 421.4715270996094 148.95614624023438 415.89959716796875 159.03273010253906 422.95062255859375 140.56016540527344 C 426.945068359375 121.26791381835938 446.93927001953125 107.87877655029297 461.05950927734375 108.63861083984375 C 462.4595642089844 107.21941375732422 452.6530456542969 117.41357421875 454.5765686035156 109.10780334472656" stroke-width="0.0" fill="rgb(101, 162, 119)" opacity="0.64042926" stroke="rgb(0, 0, 0)" stroke-opacity="1.0" stroke-linecap="round" stroke-linejoin="round"/>
    <path d="M 274.57318115234375 311.89361572265625 C 259.5026550292969 322.87066650390625 234.6367645263672 280.1625061035156 259.22991943359375 334.7664489746094 C 230.67481994628906 359.6643981933594 235.17547607421875 311.72637939453125 233.2562255859375 304.19561767578125 C 235.25408935546875 278.2869567871094 273.18096923828125 258.3102722167969 254.24078369140625 287.2864685058594 C 242.79698181152344 307.8134460449219 264.1710510253906 309.8964538574219 274.57318115234375 311.89361572265625" stroke-width="0.0" fill="rgb(27, 39, 38)" opacity="0.122740015" stroke="rgb(0, 0, 0)" stroke-opacity="1.0" stroke-linecap="round" stroke-linejoin="round"/>
    <path d="M 191.9228973388672 499.1875305175781 C 167.60958862304688 461.3576965332031 156.3255615234375 487.1665344238281 160.36660766601562 481.3740234375 C 143.12290954589844 475.84539794921875 115.95706176757812 488.61480712890625 118.47757720947266 494.8826599121094 C 138.4789581298828 478.03912353515625 141.81236267089844 474.1213073730469 116.19285583496094 502.8018493652344 C 120.43267822265625 486.0132751464844 139.11428833007812 509.47662353515625 191.9228973388672 499.1875305175781" stroke-width="0.0" fill="rgb(1, 1, 225)" opacity="0.004564128" stroke="rgb(0, 0, 0)" stroke-opacity="1.0" stroke-linecap="round" stroke-linejoin="round"/>
    <path d="M 455.4743347167969 338.1123962402344 C 448.60491943359375 350.851806640625 427.5799255371094 364.279296875 440.2244567871094 397.6042785644531 C 415.3481140136719 415.52587890625 429.2048645019531 425.4836730957031 446.5061950683594 415.08367919921875 C 432.3292236328125 364.833251953125 436.4242248535156 331.8852233886719 434.4912414550781 333.2189636230469 C 440.381103515625 313.3797912597656 450.3022766113281 330.63360595703125 455.4743347167969 338.1123962402344" stroke-width="0.0" fill="rgb(21, 45, 5)" opacity="0.022702333" stroke="rgb(0, 0, 0)" stroke-opacity="1.0" stroke-linecap="round" stroke-linejoin="round"/>
    <path d="M 315.1421813964844 97.80120086669922 C 289.919677734375 105.54090881347656 286.1328125 125.0599136352539 293.363037109375 114.26997375488281 C 294.0224304199219 96.44673156738281 278.7451477050781 118.6068344116211 279.7040710449219 121.37598419189453 C 278.64288330078125 131.72328186035156 294.95074462890625 115.27295684814453 341.46929931640625 119.76068115234375 C 323.6673278808594 117.00965118408203 323.0937194824219 96.86331176757812 315.1421813964844 97.80120086669922" stroke-width="0.0" fill="rgb(216, 255, 3)" opacity="0.20207308" stroke="rgb(0, 0, 0)" stroke-opacity="1.0" stroke-linecap="round" stroke-linejoin="round"/>
    <path d="M 390.3028564453125 42.341773986816406 C 383.879150390625 68.73297119140625 383.8630676269531 71.30059051513672 352.738525390625 76.27452087402344 C 362.6744689941406 50.13079833984375 363.0740966796875 43.62582015991211 376.101806640625 62.85956573486328 C 373.3385314941406 12.973553657531738 357.74737548828125 8.259199142456055 412.6189880371094 41.1634407043457 C 413.9308776855469 75.93370819091797 387.27825927734375 58.129676818847656 390.3028564453125 42.341773986816406" stroke-width="0.0" fill="rgb(20, 19, 221)" opacity="0.015817875" stroke="rgb(0, 0, 0)" stroke-opacity="1.0" stroke-linecap="round" stroke-linejoin="round"/>
  </g>
</svg>
