<?xml version="1.0" ?>
<svg xmlns="http://www.w3.org/2000/svg" version="1.1" width="512" height="512">
  <defs/>
  <g>
    <path d="M 516.1277465820312 474.81744384765625 C 550.4332275390625 513.6891479492188 553.288818359375 521.210205078125 397.08935546875 531.4918212890625 C 318.7253723144531 549.8346557617188 277.1588439941406 545.405517578125 147.75296020507812 467.0335388183594 C 294.5871276855469 384.0093078613281 405.70306396484375 387.2742614746094 485.1373291015625 292.2279357910156 C 557.14208984375 326.466552734375 550.8260498046875 353.4713439941406 516.1277465820312 474.81744384765625" stroke-width="0.0" fill="rgb(47, 255, 45)" opacity="0.8665333" stroke="rgb(0, 0, 0)" stroke-opacity="1.0" stroke-linecap="round" stroke-linejoin="round"/>
    <path d="M 240.5719757080078 297.15887451171875 C 280.4303894042969 484.48968505859375 333.5201110839844 517.0707397460938 289.1672058105469 537.7679443359375 C -55.467193603515625 526.857666015625 -55.4661865234375 519.7122802734375 -92.1559066772461 440.5638427734375 C -45.66666030883789 137.9839324951172 -7.193104267120361 110.72447204589844 68.6056137084961 188.62380981445312 C 145.9481658935547 344.3186340332031 143.26953125 293.4201965332031 240.5719757080078 297.15887451171875" stroke-width="0.0" fill="rgb(144, 150, 164)" opacity="0.9999219" stroke="rgb(0, 0, 0)" stroke-opacity="1.0" stroke-linecap="round" stroke-linejoin="round"/>
    <path d="M 284.9386291503906 321.17095947265625 C 130.17454528808594 301.9774475097656 53.71670913696289 358.3538513183594 166.93930053710938 334.7127380371094 C 79.56283569335938 239.23794555664062 13.867843627929688 333.7594299316406 11.495565414428711 158.45501708984375 C 41.941715240478516 108.13163757324219 113.492919921875 64.34772491455078 268.1778869628906 101.86736297607422 C 326.57366943359375 183.97715759277344 363.9303283691406 268.7403564453125 284.9386291503906 321.17095947265625" stroke-width="0.0" fill="rgb(44, 40, 145)" opacity="0.9980806" stroke="rgb(0, 0, 0)" stroke-opacity="1.0" stroke-linecap="round" stroke-linejoin="round"/>
    <path d="M 231.5233917236328 -37.38224792480469 C 194.81683349609375 91.77616119384766 123.65950012207031 51.157684326171875 72.37683868408203 254.8342742919922 C -31.520883560180664 270.7021484375 -43.481956481933594 239.7837371826172 -27.411996841430664 183.89669799804688 C -16.451900482177734 -18.537282943725586 -10.644554138183594 -24.558425903320312 32.21444320678711 -18.7316837310791 C 204.95166015625 -27.166507720947266 235.46905517578125 -44.79048538208008 231.5233917236328 -37.38224792480469" stroke-width="0.0" fill="rgb(88, 255, 25)" opacity="0.8325409" stroke="rgb(0, 0, 0)" stroke-opacity="1.0" stroke-linecap="round" stroke-linejoin="round"/>
    <path d="M 524.9369506835938 115.48381805419922 C 437.5722961425781 329.6276550292969 470.1175537109375 340.85919189453125 305.9319152832031 282.2606506347656 C 282.23468017578125 279.0666198730469 253.06494140625 208.0408477783203 255.52438354492188 228.08128356933594 C 440.8497314453125 232.10362243652344 316.1045837402344 288.0267639160156 339.44683837890625 -21.13511848449707 C 556.3494262695312 -12.299635887145996 563.1416015625 -1.2265698909759521 524.9369506835938 115.48381805419922" stroke-width="0.0" fill="rgb(98, 0, 245)" opacity="0.75465417" stroke="rgb(0, 0, 0)" stroke-opacity="1.0" stroke-linecap="round" stroke-linejoin="round"/>
    <path d="M 362.244873046875 201.93856811523438 C 159.86026000976562 189.45452880859375 157.63674926757812 -2.237691640853882 150.10569763183594 148.2743377685547 C 80.5569076538086 255.39984130859375 59.49315643310547 263.2720031738281 66.08599090576172 210.65975952148438 C 87.2370834350586 110.59822082519531 73.50865936279297 71.67705535888672 285.2997741699219 -37.184547424316406 C 442.5847473144531 46.618080139160156 496.10205078125 59.79304885864258 362.244873046875 201.93856811523438" stroke-width="0.0" fill="rgb(224, 136, 48)" opacity="0.99451154" stroke="rgb(0, 0, 0)" stroke-opacity="1.0" stroke-linecap="round" stroke-linejoin="round"/>
    <path d="M 535.4571533203125 366.0003967285156 C 534.1729125976562 512.5798950195312 561.9801635742188 544.6769409179688 261.6795959472656 591.9865112304688 C 222.50564575195312 464.36279296875 291.832763671875 281.10693359375 246.79632568359375 322.8013916015625 C 354.6689453125 324.6028137207031 303.7498779296875 213.20407104492188 372.4698181152344 240.1925048828125 C 465.8961181640625 249.5814208984375 485.9823913574219 223.50900268554688 535.4571533203125 366.0003967285156" stroke-width="0.0" fill="rgb(219, 251, 26)" opacity="0.5156567" stroke="rgb(0, 0, 0)" stroke-opacity="1.0" stroke-linecap="round" stroke-linejoin="round"/>
    <path d="M 568.24951171875 158.48878479003906 C 593.9059448242188 325.5894470214844 594.9221801757812 354.9774169921875 503.9529113769531 351.6608581542969 C 343.8772277832031 330.77154541015625 361.376220703125 332.03173828125 376.8250427246094 206.13986206054688 C 461.0419006347656 90.65616607666016 385.5025329589844 30.3311767578125 491.68109130859375 -15.237895965576172 C 588.05517578125 25.664457321166992 582.5049438476562 56.54890060424805 568.24951171875 158.48878479003906" stroke-width="0.0" fill="rgb(136, 255, 50)" opacity="0.9652758" stroke="rgb(0, 0, 0)" stroke-opacity="1.0" stroke-linecap="round" stroke-linejoin="round"/>
    <path d="M 362.05218505859375 214.53903198242188 C 389.86773681640625 316.54486083984375 403.1805419921875 312.9080505371094 295.9985656738281 327.398193359375 C 288.91009521484375 321.35107421875 280.6689453125 307.1951904296875 236.81407165527344 217.19273376464844 C 322.0673522949219 253.3968963623047 329.6703796386719 279.6243591308594 352.1251525878906 284.9343566894531 C 345.7630920410156 275.6387634277344 348.7473449707031 292.81805419921875 362.05218505859375 214.53903198242188" stroke-width="0.0" fill="rgb(255, 250, 131)" opacity="0.99710006" stroke="rgb(0, 0, 0)" stroke-opacity="1.0" stroke-linecap="round" stroke-linejoin="round"/>
    <path d="M 344.4924621582031 179.2178955078125 C 356.92236328125 224.37574768066406 377.0284423828125 230.5906219482422 369.8681945800781 251.30332946777344 C 407.3740539550781 187.8000946044922 385.4095458984375 280.6165771484375 195.3838653564453 206.33453369140625 C 273.8429260253906 216.10345458984375 305.3553771972656 173.58090209960938 363.4867248535156 136.40084838867188 C 346.493896484375 212.1529083251953 339.2259521484375 242.5767364501953 344.4924621582031 179.2178955078125" stroke-width="0.0" fill="rgb(187, 101, 87)" opacity="0.4757915" stroke="rgb(0, 0, 0)" stroke-opacity="1.0" stroke-linecap="round" stroke-linejoin="round"/>
    <path d="M 280.99676513671875 219.17967224121094 C 178.53817749023438 290.86871337890625 237.5509796142578 289.3790283203125 91.57535552978516 345.4216003417969 C 235.13522338867188 259.07110595703125 127.68647003173828 228.3732452392578 104.56320190429688 237.12994384765625 C 64.48799896240234 140.15151977539062 78.81987762451172 214.9219512939453 135.7447967529297 232.08975219726562 C 279.5044250488281 230.32675170898438 451.13580322265625 251.5375213623047 280.99676513671875 219.17967224121094" stroke-width="0.0" fill="rgb(47, 16, 241)" opacity="0.76080257" stroke="rgb(0, 0, 0)" stroke-opacity="1.0" stroke-linecap="round" stroke-linejoin="round"/>
    <path d="M 402.1503601074219 286.4216003417969 C 416.1399230957031 276.8528747558594 423.8901062011719 279.6320495605469 391.3287353515625 282.7704162597656 C 373.8951416015625 366.5272521972656 363.0312194824219 340.77374267578125 361.73870849609375 235.3309326171875 C 409.6653137207031 84.13343811035156 456.2228088378906 63.809200286865234 401.84521484375 230.2093963623047 C 346.9263916015625 257.43194580078125 372.27752685546875 289.7625427246094 402.1503601074219 286.4216003417969" stroke-width="0.0" fill="rgb(210, 133, 46)" opacity="0.9956554" stroke="rgb(0, 0, 0)" stroke-opacity="1.0" stroke-linecap="round" stroke-linejoin="round"/>
    <path d="M 380.96771240234375 87.29460144042969 C 305.3330993652344 113.76460266113281 296.46649169921875 161.02777099609375 311.83856201171875 153.43585205078125 C 136.71295166015625 143.8818359375 281.9396667480469 186.54478454589844 151.26034545898438 69.03083038330078 C 132.88966369628906 4.636833667755127 162.49691772460938 -7.074873924255371 274.473388671875 -58.290096282958984 C 345.46807861328125 16.221282958984375 361.135498046875 -9.34951114654541 380.96771240234375 87.29460144042969" stroke-width="0.0" fill="rgb(121, 251, 75)" opacity="0.97290194" stroke="rgb(0, 0, 0)" stroke-opacity="1.0" stroke-linecap="round" stroke-linejoin="round"/>
    <path d="M 225.76019287109375 325.6431579589844 C 181.94097900390625 403.1223449707031 136.20855712890625 396.9559631347656 145.2959747314453 385.28826904296875 C 169.94105529785156 353.36309814453125 241.46607971191406 317.3807067871094 108.76854705810547 405.2940673828125 C 138.9378204345703 368.0927734375 199.20413208007812 336.9642333984375 194.4987030029297 305.7458190917969 C 100.63865661621094 362.50555419921875 61.68234634399414 394.7456359863281 225.76019287109375 325.6431579589844" stroke-width="0.0" fill="rgb(57, 48, 183)" opacity="0.692538" stroke="rgb(0, 0, 0)" stroke-opacity="1.0" stroke-linecap="round" stroke-linejoin="round"/>
    <path d="M 551.168701171875 55.640541076660156 C 522.521484375 77.80570220947266 503.9508361816406 75.84811401367188 540.356201171875 73.8560791015625 C 547.7901611328125 116.80328369140625 506.17657470703125 101.9546890258789 325.0511474609375 98.12081146240234 C 322.6839294433594 12.730615615844727 316.7453918457031 -44.118927001953125 367.1854248046875 -43.98910903930664 C 540.7415161132812 -11.430086135864258 538.7570190429688 -0.6763355731964111 551.168701171875 55.640541076660156" stroke-width="0.0" fill="rgb(139, 243, 50)" opacity="0.9995192" stroke="rgb(0, 0, 0)" stroke-opacity="1.0" stroke-linecap="round" stroke-linejoin="round"/>
    <path d="M 201.486083984375 307.06195068359375 C 203.60092163085938 282.8840637207031 224.47994995117188 268.29119873046875 233.9460906982422 332.286865234375 C 206.74440002441406 373.4493713378906 84.15143585205078 370.5879211425781 159.52565002441406 275.58209228515625 C 221.53262329101562 281.4201965332031 184.92257690429688 260.07379150390625 249.41603088378906 241.4999542236328 C 245.7169189453125 278.5165710449219 240.94723510742188 291.7751159667969 201.486083984375 307.06195068359375" stroke-width="0.0" fill="rgb(148, 248, 220)" opacity="0.56623083" stroke="rgb(0, 0, 0)" stroke-opacity="1.0" stroke-linecap="round" stroke-linejoin="round"/>
    <path d="M 123.79191589355469 387.3973693847656 C 70.68023681640625 426.82073974609375 52.333351135253906 426.4525146484375 5.081636905670166 460.2154846191406 C -1.2712150812149048 455.6126403808594 -6.543773174285889 447.8302001953125 -37.58060836791992 406.55462646484375 C 14.670658111572266 383.855712890625 31.532554626464844 382.3820495605469 61.64118576049805 361.04180908203125 C 67.87757110595703 373.6681213378906 67.62454223632812 380.7430114746094 123.79191589355469 387.3973693847656" stroke-width="0.0" fill="rgb(83, 149, 109)" opacity="0.4181759" stroke="rgb(0, 0, 0)" stroke-opacity="1.0" stroke-linecap="round" stroke-linejoin="round"/>
    <path d="M 244.12831115722656 323.8123779296875 C 253.8031005859375 378.280029296875 273.5316162109375 413.35528564453125 269.4214172363281 351.1947326660156 C 254.7265625 337.6961669921875 245.68565368652344 354.2982177734375 256.4728698730469 361.00262451171875 C 262.24383544921875 351.17681884765625 356.0773620605469 311.87200927734375 234.05821228027344 312.54803466796875 C 222.49794006347656 372.99609375 231.3505401611328 339.1656494140625 244.12831115722656 323.8123779296875" stroke-width="0.0" fill="rgb(33, 64, 132)" opacity="0.5726561" stroke="rgb(0, 0, 0)" stroke-opacity="1.0" stroke-linecap="round" stroke-linejoin="round"/>
    <path d="M 364.6624755859375 199.1613006591797 C 362.9437561035156 195.73704528808594 367.6462097167969 208.11480712890625 369.5240478515625 190.14427185058594 C 361.843994140625 195.3754425048828 354.861572265625 217.6271209716797 363.8539123535156 229.2394256591797 C 406.490234375 214.82020568847656 422.7015075683594 218.41793823242188 367.0437927246094 99.87797546386719 C 324.7392578125 137.31838989257812 353.6300964355469 189.54330444335938 364.6624755859375 199.1613006591797" stroke-width="0.0" fill="rgb(21, 33, 123)" opacity="0.95269555" stroke="rgb(0, 0, 0)" stroke-opacity="1.0" stroke-linecap="round" stroke-linejoin="round"/>
    <path d="M 172.78018188476562 228.14254760742188 C 178.33453369140625 376.4500427246094 157.5863494873047 327.1669616699219 208.35877990722656 308.547119140625 C 59.091609954833984 400.23236083984375 137.26852416992188 401.57550048828125 59.43947219848633 217.7564697265625 C 71.12547302246094 230.86300659179688 41.96275329589844 145.2135009765625 97.90924072265625 99.47760009765625 C 115.28475952148438 297.3648986816406 119.09109497070312 213.19102478027344 172.78018188476562 228.14254760742188" stroke-width="0.0" fill="rgb(25, 45, 145)" opacity="0.92093104" stroke="rgb(0, 0, 0)" stroke-opacity="1.0" stroke-linecap="round" stroke-linejoin="round"/>
    <path d="M 141.71762084960938 505.1915283203125 C 115.84086608886719 521.7811279296875 118.64312744140625 532.06201171875 92.7589340209961 550.4750366210938 C 64.75820922851562 539.7564086914062 58.194915771484375 536.4349975585938 -17.73874855041504 465.0050964355469 C 21.28228759765625 439.1650085449219 38.38011169433594 434.5523681640625 144.4561767578125 370.12371826171875 C 216.1743621826172 416.5765075683594 184.39608764648438 469.1444091796875 141.71762084960938 505.1915283203125" stroke-width="0.0" fill="rgb(21, 41, 160)" opacity="0.9757344" stroke="rgb(0, 0, 0)" stroke-opacity="1.0" stroke-linecap="round" stroke-linejoin="round"/>
    <path d="M 126.52520751953125 305.6107482910156 C 60.738121032714844 330.90423583984375 116.20154571533203 328.7861328125 173.72427368164062 363.00762939453125 C 106.6775131225586 440.3610534667969 68.51121520996094 424.036376953125 -33.30903244018555 391.8133239746094 C -27.683223724365234 249.68508911132812 -8.06869888305664 207.12088012695312 55.963191986083984 232.87669372558594 C 121.35054016113281 319.50738525390625 89.53559112548828 256.748046875 126.52520751953125 305.6107482910156" stroke-width="0.0" fill="rgb(34, 164, 86)" opacity="1.0" stroke="rgb(0, 0, 0)" stroke-opacity="1.0" stroke-linecap="round" stroke-linejoin="round"/>
    <path d="M 181.81874084472656 546.7047119140625 C 199.5806884765625 545.1732177734375 188.62393188476562 530.4268188476562 185.58502197265625 501.0612487792969 C 175.548583984375 489.8060302734375 193.8070068359375 502.7579650878906 134.67723083496094 525.9071044921875 C 100.02484893798828 432.28558349609375 104.38501739501953 441.9520263671875 177.14830017089844 375.7667236328125 C 218.7103729248047 420.7344055175781 174.54751586914062 460.620849609375 181.81874084472656 546.7047119140625" stroke-width="0.0" fill="rgb(8, 136, 191)" opacity="0.10508656" stroke="rgb(0, 0, 0)" stroke-opacity="1.0" stroke-linecap="round" stroke-linejoin="round"/>
    <path d="M 135.8169403076172 243.98316955566406 C 135.11846923828125 280.2314147949219 142.17263793945312 229.7753143310547 122.79239654541016 280.28375244140625 C 50.4473762512207 276.7093200683594 66.21369171142578 257.8941345214844 13.345012664794922 227.2656707763672 C 1.4181699752807617 160.29759216308594 4.679263114929199 133.19593811035156 77.40057373046875 110.78079986572266 C 100.30636596679688 187.66848754882812 92.59193420410156 222.1854248046875 135.8169403076172 243.98316955566406" stroke-width="0.0" fill="rgb(44, 164, 83)" opacity="0.9657572" stroke="rgb(0, 0, 0)" stroke-opacity="1.0" stroke-linecap="round" stroke-linejoin="round"/>
    <path d="M 124.10936737060547 110.1975326538086 C 105.25798034667969 98.68223571777344 85.41851043701172 106.13778686523438 101.53034973144531 197.9368438720703 C 133.68711853027344 149.90736389160156 138.3431854248047 97.61968994140625 131.89073181152344 76.20533752441406 C 128.51065063476562 69.70452880859375 182.31320190429688 115.70262145996094 121.35189056396484 98.14215087890625 C 92.91429138183594 117.94541931152344 122.37100219726562 159.21282958984375 124.10936737060547 110.1975326538086" stroke-width="0.0" fill="rgb(13, 38, 161)" opacity="0.91788256" stroke="rgb(0, 0, 0)" stroke-opacity="1.0" stroke-linecap="round" stroke-linejoin="round"/>
    <path d="M 280.0633544921875 268.43994140625 C 253.29107666015625 243.61746215820312 307.2799377441406 241.5667266845703 275.22467041015625 267.533935546875 C 279.35699462890625 200.38455200195312 214.56903076171875 231.70364379882812 234.70289611816406 238.2369384765625 C 138.3977508544922 220.265380859375 220.32960510253906 226.34762573242188 274.7760314941406 229.07958984375 C 226.60476684570312 257.8160400390625 254.2866973876953 273.3056640625 280.0633544921875 268.43994140625" stroke-width="0.0" fill="rgb(64, 9, 191)" opacity="0.06277975" stroke="rgb(0, 0, 0)" stroke-opacity="1.0" stroke-linecap="round" stroke-linejoin="round"/>
    <path d="M 277.9314880371094 344.54345703125 C 269.93621826171875 309.8377380371094 380.4665832519531 435.87030029296875 362.29296875 385.55950927734375 C 282.5489807128906 318.2579040527344 284.42291259765625 326.8349304199219 230.25244140625 339.8772888183594 C 250.26968383789062 303.7883605957031 244.40090942382812 370.27093505859375 285.4406433105469 344.6031188964844 C 304.4958190917969 345.5426330566406 294.16326904296875 330.76678466796875 277.9314880371094 344.54345703125" stroke-width="0.0" fill="rgb(76, 61, 188)" opacity="0.88336617" stroke="rgb(0, 0, 0)" stroke-opacity="1.0" stroke-linecap="round" stroke-linejoin="round"/>
    <path d="M 46.761898040771484 534.1054077148438 C 17.63055419921875 520.297607421875 10.367242813110352 526.9745483398438 0.9059716463088989 531.2067260742188 C -9.364206314086914 527.7437133789062 -16.68471336364746 520.4232177734375 -51.605560302734375 479.37396240234375 C -48.44917678833008 474.0542907714844 -29.680763244628906 478.70135498046875 12.20179557800293 432.6381530761719 C 55.573158264160156 432.9525451660156 33.249229431152344 464.1995544433594 46.761898040771484 534.1054077148438" stroke-width="0.0" fill="rgb(41, 56, 155)" opacity="0.99735975" stroke="rgb(0, 0, 0)" stroke-opacity="1.0" stroke-linecap="round" stroke-linejoin="round"/>
    <path d="M 342.3194885253906 322.18499755859375 C 350.7691345214844 342.43145751953125 352.69244384765625 324.842529296875 408.26739501953125 356.66168212890625 C 258.844970703125 312.2609558105469 237.22943115234375 295.59466552734375 354.5557861328125 339.0396423339844 C 379.2104187011719 319.52667236328125 375.5048522949219 366.97967529296875 382.6507568359375 284.6741638183594 C 333.3065185546875 274.15625 319.65838623046875 290.9501953125 342.3194885253906 322.18499755859375" stroke-width="0.0" fill="rgb(241, 167, 140)" opacity="0.0" stroke="rgb(0, 0, 0)" stroke-opacity="1.0" stroke-linecap="round" stroke-linejoin="round"/>
    <path d="M 300.4276428222656 415.5289611816406 C 276.4178466796875 409.45220947265625 283.8243713378906 421.0389709472656 300.4353332519531 421.7983703613281 C 287.1885986328125 404.98370361328125 286.2756042480469 404.5777893066406 197.8596649169922 449.9959411621094 C 180.08514404296875 407.93157958984375 161.5312042236328 393.5777893066406 255.96229553222656 378.5267639160156 C 330.05072021484375 389.02020263671875 311.0429382324219 417.4255065917969 300.4276428222656 415.5289611816406" stroke-width="0.0" fill="rgb(56, 81, 154)" opacity="1.0" stroke="rgb(0, 0, 0)" stroke-opacity="1.0" stroke-linecap="round" stroke-linejoin="round"/>
    <path d="M 289.178955078125 484.40545654296875 C 290.3764953613281 521.06689453125 305.1107482910156 549.093994140625 300.7771911621094 553.9105224609375 C 290.088134765625 520.0128784179688 306.02178955078125 473.5612487792969 287.64227294921875 453.44488525390625 C 275.25372314453125 487.12396240234375 296.3498840332031 460.23974609375 289.2900390625 451.2213439941406 C 287.85675048828125 474.4935607910156 283.69647216796875 494.7298278808594 289.178955078125 484.40545654296875" stroke-width="0.0" fill="rgb(254, 203, 150)" opacity="0.9548029" stroke="rgb(0, 0, 0)" stroke-opacity="1.0" stroke-linecap="round" stroke-linejoin="round"/>
    <path d="M 321.1788635253906 171.23556518554688 C 291.0749206542969 171.6474609375 303.22314453125 176.89938354492188 257.4469909667969 150.25889587402344 C 222.5303192138672 158.50303649902344 226.80087280273438 189.36000061035156 241.73666381835938 213.14588928222656 C 312.12371826171875 200.17303466796875 300.6465148925781 187.7129669189453 295.75360107421875 153.69464111328125 C 301.4653015136719 125.52729034423828 321.5949401855469 124.32794952392578 321.1788635253906 171.23556518554688" stroke-width="0.0" fill="rgb(189, 154, 141)" opacity="0.94627666" stroke="rgb(0, 0, 0)" stroke-opacity="1.0" stroke-linecap="round" stroke-linejoin="round"/>
    <path d="M 372.23052978515625 242.40501403808594 C 362.66156005859375 246.31727600097656 345.30950927734375 249.17318725585938 327.0481872558594 221.74473571777344 C 355.2828369140625 243.78794860839844 334.499755859375 223.34893798828125 327.15716552734375 242.55361938476562 C 344.3388671875 243.20156860351562 339.0605773925781 238.8760986328125 341.2020568847656 248.89076232910156 C 367.72979736328125 235.20266723632812 381.46917724609375 226.0274200439453 372.23052978515625 242.40501403808594" stroke-width="0.0" fill="rgb(184, 133, 179)" opacity="0.13081373" stroke="rgb(0, 0, 0)" stroke-opacity="1.0" stroke-linecap="round" stroke-linejoin="round"/>
    <path d="M 286.4755859375 425.8726806640625 C 302.0982666015625 414.40008544921875 285.978271484375 406.5401916503906 265.2032775878906 432.0859680175781 C 261.53466796875 423.8719482421875 278.084228515625 436.3699951171875 271.4944763183594 444.6262512207031 C 273.4171142578125 416.6336975097656 289.3531188964844 402.5544738769531 292.51556396484375 404.4252624511719 C 282.8409423828125 384.78936767578125 272.6670837402344 426.1444091796875 286.4755859375 425.8726806640625" stroke-width="0.0" fill="rgb(218, 201, 147)" opacity="0.59300214" stroke="rgb(0, 0, 0)" stroke-opacity="1.0" stroke-linecap="round" stroke-linejoin="round"/>
    <path d="M 159.40635681152344 64.612548828125 C 180.54432678222656 65.5396957397461 168.79798889160156 87.55293273925781 147.4590606689453 90.63035583496094 C 105.7789306640625 108.0904769897461 84.22964477539062 98.73649597167969 99.41647338867188 74.88270568847656 C 118.90685272216797 29.341398239135742 107.61329650878906 24.370506286621094 143.10198974609375 32.36635208129883 C 153.93930053710938 42.28291702270508 149.2740020751953 47.11772155761719 159.40635681152344 64.612548828125" stroke-width="0.0" fill="rgb(115, 255, 70)" opacity="1.0" stroke="rgb(0, 0, 0)" stroke-opacity="1.0" stroke-linecap="round" stroke-linejoin="round"/>
    <path d="M 115.71879577636719 360.01300048828125 C 96.20499420166016 338.08587646484375 86.13377380371094 337.5324401855469 103.49137115478516 355.3877868652344 C 111.46788787841797 355.9324035644531 124.98822021484375 339.6545104980469 124.34063720703125 353.231201171875 C 108.98116302490234 356.224365234375 105.80586242675781 373.9477844238281 117.58922576904297 326.9528503417969 C 149.21893310546875 329.8170471191406 148.77044677734375 362.8539123535156 115.71879577636719 360.01300048828125" stroke-width="0.0" fill="rgb(149, 101, 220)" opacity="0.7143123" stroke="rgb(0, 0, 0)" stroke-opacity="1.0" stroke-linecap="round" stroke-linejoin="round"/>
    <path d="M 86.70629119873047 119.1170425415039 C 79.49671936035156 174.83505249023438 89.98250579833984 173.65505981445312 81.61731719970703 140.83811950683594 C 77.33303833007812 147.77267456054688 82.08161163330078 141.804931640625 105.61621856689453 115.5186996459961 C 92.66350555419922 93.16539001464844 86.87773895263672 99.56204986572266 99.88017272949219 97.82991027832031 C 104.38986206054688 88.5273208618164 111.57437896728516 113.21912384033203 86.70629119873047 119.1170425415039" stroke-width="0.0" fill="rgb(89, 118, 164)" opacity="0.19844708" stroke="rgb(0, 0, 0)" stroke-opacity="1.0" stroke-linecap="round" stroke-linejoin="round"/>
    <path d="M 378.71820068359375 339.07318115234375 C 401.9557189941406 323.2012939453125 386.96392822265625 327.5191955566406 416.4248046875 324.0932312011719 C 437.4068298339844 338.5263366699219 405.3772277832031 345.6108093261719 361.418212890625 354.1455993652344 C 363.9113464355469 305.4913330078125 395.5457763671875 308.77972412109375 395.67633056640625 326.5127258300781 C 390.1045837402344 352.0584411621094 389.8937072753906 337.6986999511719 378.71820068359375 339.07318115234375" stroke-width="0.0" fill="rgb(226, 168, 69)" opacity="0.71842057" stroke="rgb(0, 0, 0)" stroke-opacity="1.0" stroke-linecap="round" stroke-linejoin="round"/>
    <path d="M 313.7629089355469 447.506103515625 C 311.03009033203125 463.1496276855469 310.55316162109375 468.18914794921875 295.0799865722656 488.4653015136719 C 253.72848510742188 456.6976013183594 266.3634948730469 466.2645263671875 267.1289367675781 442.37103271484375 C 262.3382568359375 412.1732482910156 259.9643859863281 413.6632080078125 295.822265625 401.1020812988281 C 323.69866943359375 373.78143310546875 329.19879150390625 394.0028076171875 313.7629089355469 447.506103515625" stroke-width="0.0" fill="rgb(215, 197, 99)" opacity="0.981929" stroke="rgb(0, 0, 0)" stroke-opacity="1.0" stroke-linecap="round" stroke-linejoin="round"/>
    <path d="M 254.09957885742188 280.85858154296875 C 249.76597595214844 271.70355224609375 240.0328826904297 280.4309387207031 228.64321899414062 293.4814453125 C 212.84014892578125 297.8932189941406 195.1639862060547 293.3766174316406 198.89871215820312 277.30859375 C 206.2921600341797 265.5687561035156 244.6290283203125 264.107177734375 262.34942626953125 265.1060485839844 C 234.2320556640625 249.38455200195312 247.92884826660156 245.2563018798828 254.09957885742188 280.85858154296875" stroke-width="0.0" fill="rgb(55, 94, 134)" opacity="0.0" stroke="rgb(0, 0, 0)" stroke-opacity="1.0" stroke-linecap="round" stroke-linejoin="round"/>
    <path d="M 193.05917358398438 357.9285583496094 C 169.35232543945312 372.62811279296875 170.88734436035156 388.3822326660156 149.86663818359375 400.4355773925781 C 135.03236389160156 361.47955322265625 160.71669006347656 368.5064697265625 129.9858856201172 367.13037109375 C 79.02938079833984 354.5950012207031 111.03189086914062 346.20050048828125 181.50465393066406 343.92047119140625 C 184.50450134277344 327.2335510253906 184.7027130126953 341.6161804199219 193.05917358398438 357.9285583496094" stroke-width="0.0" fill="rgb(102, 144, 204)" opacity="0.992374" stroke="rgb(0, 0, 0)" stroke-opacity="1.0" stroke-linecap="round" stroke-linejoin="round"/>
    <path d="M 140.0955810546875 -19.645097732543945 C 172.8033905029297 -13.617266654968262 166.96885681152344 19.27581214904785 155.9307861328125 27.365766525268555 C 178.7577362060547 1.8286118507385254 169.72012329101562 -6.3677659034729 146.54666137695312 -16.436222076416016 C 151.21253967285156 -5.644403457641602 145.2301025390625 -20.678274154663086 140.68991088867188 -20.112707138061523 C 164.97213745117188 -9.263557434082031 162.97705078125 -1.573534369468689 140.0955810546875 -19.645097732543945" stroke-width="0.0" fill="rgb(124, 245, 37)" opacity="0.06922518" stroke="rgb(0, 0, 0)" stroke-opacity="1.0" stroke-linecap="round" stroke-linejoin="round"/>
    <path d="M 289.9461669921875 257.9313659667969 C 313.48199462890625 297.692138671875 259.0572204589844 301.05889892578125 251.73219299316406 315.70660400390625 C 247.88710021972656 319.39093017578125 226.8483428955078 332.7377624511719 242.18569946289062 312.37945556640625 C 235.8165283203125 312.98468017578125 229.45567321777344 314.6385498046875 272.0721130371094 318.3490295410156 C 208.8560333251953 300.5027770996094 194.66522216796875 231.1258544921875 289.9461669921875 257.9313659667969" stroke-width="0.0" fill="rgb(20, 5, 138)" opacity="0.9694271" stroke="rgb(0, 0, 0)" stroke-opacity="1.0" stroke-linecap="round" stroke-linejoin="round"/>
    <path d="M 87.61669921875 98.19815826416016 C 89.05182647705078 135.3946990966797 34.77545166015625 135.5691375732422 30.070144653320312 152.22491455078125 C 25.179832458496094 152.00616455078125 22.81510353088379 124.76435089111328 41.80579376220703 130.36595153808594 C 37.97683334350586 121.39203643798828 48.99443435668945 122.85630798339844 29.10897445678711 127.62069702148438 C 66.42327117919922 106.31238555908203 92.45146179199219 92.52340698242188 87.61669921875 98.19815826416016" stroke-width="0.0" fill="rgb(153, 193, 191)" opacity="0.072285436" stroke="rgb(0, 0, 0)" stroke-opacity="1.0" stroke-linecap="round" stroke-linejoin="round"/>
    <path d="M 535.5512084960938 -2.0685811042785645 C 528.0396118164062 75.33683013916016 517.1575927734375 79.07135772705078 507.4155578613281 53.60255813598633 C 485.580810546875 60.78457260131836 485.90216064453125 40.291255950927734 490.0025634765625 49.25423049926758 C 489.33404541015625 6.9521942138671875 478.7781677246094 -5.39157772064209 509.52960205078125 -16.59358787536621 C 515.7337036132812 19.52436637878418 521.6729736328125 12.304830551147461 535.5512084960938 -2.0685811042785645" stroke-width="0.0" fill="rgb(190, 231, 76)" opacity="0.1563043" stroke="rgb(0, 0, 0)" stroke-opacity="1.0" stroke-linecap="round" stroke-linejoin="round"/>
    <path d="M 296.7316589355469 344.5080871582031 C 300.2323303222656 333.9615173339844 284.4267272949219 330.7374572753906 273.8338317871094 280.00860595703125 C 282.2242126464844 307.40106201171875 251.32351684570312 305.5693664550781 263.1759948730469 264.52203369140625 C 254.73348999023438 247.26658630371094 254.77920532226562 266.34716796875 280.2889099121094 260.6251525878906 C 290.6207275390625 271.5494384765625 293.11883544921875 279.9120788574219 296.7316589355469 344.5080871582031" stroke-width="0.0" fill="rgb(124, 45, 91)" opacity="0.51537627" stroke="rgb(0, 0, 0)" stroke-opacity="1.0" stroke-linecap="round" stroke-linejoin="round"/>
    <path d="M 292.6628723144531 211.72845458984375 C 294.3388366699219 236.3873748779297 283.9444885253906 239.80392456054688 255.94798278808594 227.3739471435547 C 240.37123107910156 224.81886291503906 242.257568359375 241.6889190673828 259.11309814453125 224.18626403808594 C 258.422119140625 218.07720947265625 248.79319763183594 219.25192260742188 297.15240478515625 235.10435485839844 C 316.37628173828125 236.37208557128906 318.1219177246094 206.4287109375 292.6628723144531 211.72845458984375" stroke-width="0.0" fill="rgb(53, 47, 169)" opacity="0.7199572" stroke="rgb(0, 0, 0)" stroke-opacity="1.0" stroke-linecap="round" stroke-linejoin="round"/>
    <path d="M 69.52906036376953 300.72308349609375 C 47.122169494628906 333.6819152832031 37.30461883544922 341.242431640625 8.311038970947266 366.00213623046875 C -1.8699531555175781 346.4630126953125 -38.07841110229492 323.2445373535156 -9.27000904083252 318.20599365234375 C 7.030165672302246 343.57757568359375 21.964632034301758 314.23822021484375 29.862510681152344 281.2034606933594 C 66.16690826416016 275.4335021972656 86.61429595947266 310.74871826171875 69.52906036376953 300.72308349609375" stroke-width="0.0" fill="rgb(46, 108, 76)" opacity="0.6054116" stroke="rgb(0, 0, 0)" stroke-opacity="1.0" stroke-linecap="round" stroke-linejoin="round"/>
    <path d="M 191.73489379882812 430.44647216796875 C 178.63739013671875 450.91217041015625 192.46131896972656 468.5397033691406 182.5640869140625 448.2902526855469 C 182.7965850830078 424.20147705078125 210.15602111816406 448.3789978027344 216.0670623779297 425.00653076171875 C 158.98561096191406 392.0141296386719 181.44622802734375 436.9354248046875 212.79315185546875 417.74395751953125 C 218.5829620361328 413.47552490234375 199.12123107910156 407.1050109863281 191.73489379882812 430.44647216796875" stroke-width="0.0" fill="rgb(31, 160, 94)" opacity="0.010560051" stroke="rgb(0, 0, 0)" stroke-opacity="1.0" stroke-linecap="round" stroke-linejoin="round"/>
    <path d="M 46.07234573364258 332.9129943847656 C 27.515520095825195 348.2158508300781 42.693870544433594 326.5982666015625 53.939353942871094 404.5729064941406 C -24.017745971679688 403.0918884277344 -46.23838806152344 409.3329162597656 -36.38054656982422 362.8842468261719 C -18.573993682861328 332.21356201171875 -8.64406681060791 326.6376953125 12.28817081451416 310.1855773925781 C 60.93350601196289 339.4911193847656 66.4836196899414 333.6324157714844 46.07234573364258 332.9129943847656" stroke-width="0.0" fill="rgb(190, 232, 115)" opacity="0.848063" stroke="rgb(0, 0, 0)" stroke-opacity="1.0" stroke-linecap="round" stroke-linejoin="round"/>
    <path d="M 239.02308654785156 450.0918273925781 C 220.6934356689453 443.4924621582031 216.98915100097656 406.9180603027344 230.6862030029297 411.4183654785156 C 242.9482879638672 492.7908630371094 166.8542938232422 468.5978088378906 137.50186157226562 454.97308349609375 C 165.11276245117188 411.99249267578125 176.94342041015625 402.5747375488281 182.39083862304688 412.5082092285156 C 173.01608276367188 409.3213195800781 203.43801879882812 419.5364685058594 239.02308654785156 450.0918273925781" stroke-width="0.0" fill="rgb(93, 143, 140)" opacity="0.0047405083" stroke="rgb(0, 0, 0)" stroke-opacity="1.0" stroke-linecap="round" stroke-linejoin="round"/>
    <path d="M 372.6031799316406 237.1346435546875 C 378.9635925292969 254.44302368164062 357.86810302734375 249.49415588378906 344.6841125488281 247.89273071289062 C 350.9296569824219 234.7089385986328 362.99481201171875 216.63641357421875 349.9925842285156 213.60569763183594 C 325.173095703125 219.00088500976562 331.5789489746094 174.00552368164062 351.8043518066406 175.30279541015625 C 378.39739990234375 209.6200408935547 379.3963928222656 218.96011352539062 372.6031799316406 237.1346435546875" stroke-width="0.0" fill="rgb(233, 171, 62)" opacity="1.0" stroke="rgb(0, 0, 0)" stroke-opacity="1.0" stroke-linecap="round" stroke-linejoin="round"/>
    <path d="M 188.5244903564453 224.69815063476562 C 211.82022094726562 272.9869689941406 205.5584716796875 274.9228820800781 203.63516235351562 273.7138977050781 C 164.52793884277344 285.8790588378906 160.34947204589844 263.1495666503906 154.8481903076172 238.8571014404297 C 167.36959838867188 255.9425811767578 160.85494995117188 240.9718780517578 176.16860961914062 262.8919677734375 C 167.21107482910156 225.80172729492188 177.0626983642578 221.544921875 188.5244903564453 224.69815063476562" stroke-width="0.0" fill="rgb(27, 42, 209)" opacity="0.09658308" stroke="rgb(0, 0, 0)" stroke-opacity="1.0" stroke-linecap="round" stroke-linejoin="round"/>
    <path d="M 299.2967224121094 264.2277526855469 C 274.28424072265625 256.3602294921875 261.9116516113281 247.05340576171875 260.47113037109375 249.08021545410156 C 232.19332885742188 253.4966278076172 227.621826171875 257.56304931640625 242.5503387451172 224.580810546875 C 256.609619140625 247.590576171875 271.429931640625 248.15036010742188 276.5720520019531 254.40586853027344 C 286.78851318359375 251.32699584960938 293.6704406738281 249.81495666503906 299.2967224121094 264.2277526855469" stroke-width="0.0" fill="rgb(255, 208, 31)" opacity="0.42365703" stroke="rgb(0, 0, 0)" stroke-opacity="1.0" stroke-linecap="round" stroke-linejoin="round"/>
    <path d="M 176.4957275390625 368.3763427734375 C 189.9394989013672 338.4820556640625 168.64328002929688 349.3407897949219 177.77503967285156 348.2900085449219 C 193.43881225585938 328.3226318359375 183.49957275390625 320.34674072265625 164.67193603515625 332.1807556152344 C 154.17953491210938 349.6440124511719 151.0520477294922 359.4287109375 159.44223022460938 341.468017578125 C 153.9733428955078 350.4779052734375 155.3409881591797 370.1982116699219 176.4957275390625 368.3763427734375" stroke-width="0.0" fill="rgb(79, 159, 176)" opacity="0.38211954" stroke="rgb(0, 0, 0)" stroke-opacity="1.0" stroke-linecap="round" stroke-linejoin="round"/>
    <path d="M 468.3937683105469 482.6856384277344 C 452.8779296875 468.423095703125 416.7168273925781 480.1789245605469 465.3064880371094 473.8081970214844 C 455.419189453125 453.9455871582031 425.8664855957031 458.91900634765625 432.7205505371094 449.9505310058594 C 425.7706604003906 425.1830139160156 464.7776794433594 453.7469177246094 462.27490234375 461.75799560546875 C 430.9668273925781 466.0342712402344 445.9364013671875 488.52337646484375 468.3937683105469 482.6856384277344" stroke-width="0.0" fill="rgb(131, 228, 72)" opacity="0.0" stroke="rgb(0, 0, 0)" stroke-opacity="1.0" stroke-linecap="round" stroke-linejoin="round"/>
    <path d="M 430.1827392578125 372.147705078125 C 442.350341796875 364.2757873535156 454.92767333984375 398.5646057128906 445.2420654296875 395.6820068359375 C 383.6869201660156 409.64794921875 371.84100341796875 369.0839538574219 435.24725341796875 367.03509521484375 C 433.57843017578125 349.8608703613281 429.8562927246094 329.9554138183594 437.7549743652344 319.01141357421875 C 450.3005676269531 330.1148681640625 442.2264709472656 342.48797607421875 430.1827392578125 372.147705078125" stroke-width="0.0" fill="rgb(128, 255, 75)" opacity="0.21619312" stroke="rgb(0, 0, 0)" stroke-opacity="1.0" stroke-linecap="round" stroke-linejoin="round"/>
    <path d="M 32.43947219848633 107.5455322265625 C 36.38120651245117 125.03255462646484 24.9477596282959 135.82461547851562 18.495899200439453 107.43855285644531 C 9.848031997680664 105.5036392211914 6.214278697967529 123.98838806152344 4.347121238708496 127.04750061035156 C 10.678380966186523 119.66111755371094 5.5931901931762695 143.09388732910156 -5.301701068878174 157.7916717529297 C 34.09333801269531 129.0428924560547 28.42993927001953 112.46435546875 32.43947219848633 107.5455322265625" stroke-width="0.0" fill="rgb(150, 243, 40)" opacity="0.03942002" stroke="rgb(0, 0, 0)" stroke-opacity="1.0" stroke-linecap="round" stroke-linejoin="round"/>
    <path d="M 360.63787841796875 87.91859436035156 C 331.87139892578125 76.40969848632812 323.88037109375 137.30401611328125 352.5293273925781 155.98854064941406 C 391.6131896972656 91.50122833251953 347.65740966796875 91.59541320800781 345.2792663574219 95.66844940185547 C 352.6382751464844 93.2044677734375 342.36639404296875 66.0122299194336 294.2545471191406 150.59254455566406 C 325.1859436035156 143.7233428955078 340.5007019042969 93.61808776855469 360.63787841796875 87.91859436035156" stroke-width="0.0" fill="rgb(30, 9, 138)" opacity="0.8494315" stroke="rgb(0, 0, 0)" stroke-opacity="1.0" stroke-linecap="round" stroke-linejoin="round"/>
    <path d="M 42.38364028930664 521.0462036132812 C 56.186927795410156 512.2720336914062 63.679141998291016 521.2036743164062 36.720298767089844 519.595703125 C -5.155864715576172 495.9623107910156 -11.176803588867188 477.1856384277344 -1.3846274614334106 474.8374328613281 C 6.413738250732422 474.96246337890625 20.49431800842285 446.546630859375 42.06560516357422 438.18365478515625 C 39.08835983276367 444.51446533203125 34.05659103393555 469.2973327636719 42.38364028930664 521.0462036132812" stroke-width="0.0" fill="rgb(10, 40, 190)" opacity="0.096147776" stroke="rgb(0, 0, 0)" stroke-opacity="1.0" stroke-linecap="round" stroke-linejoin="round"/>
    <path d="M 130.8298797607422 226.6809844970703 C 145.9213409423828 224.89405822753906 149.75802612304688 251.5084686279297 137.3125457763672 242.1236572265625 C 137.91433715820312 249.4428253173828 126.79698944091797 248.1199188232422 115.9942398071289 250.79708862304688 C 147.93003845214844 265.7734375 159.55502319335938 251.10414123535156 164.7303009033203 219.0129852294922 C 176.15489196777344 210.01492309570312 168.21334838867188 233.4302520751953 130.8298797607422 226.6809844970703" stroke-width="0.0" fill="rgb(0, 94, 161)" opacity="0.0" stroke="rgb(0, 0, 0)" stroke-opacity="1.0" stroke-linecap="round" stroke-linejoin="round"/>
    <path d="M 289.5130615234375 14.54678726196289 C 303.31689453125 29.24029541015625 276.611083984375 36.07596206665039 266.5608825683594 25.703615188598633 C 259.04791259765625 39.98883056640625 249.55908203125 21.978944778442383 262.4294128417969 8.863907814025879 C 240.7416229248047 -2.950051784515381 270.51953125 -5.267264366149902 274.4747314453125 -13.970803260803223 C 291.94818115234375 -19.15846824645996 307.8911437988281 -10.296051025390625 289.5130615234375 14.54678726196289" stroke-width="0.0" fill="rgb(150, 247, 126)" opacity="0.043302163" stroke="rgb(0, 0, 0)" stroke-opacity="1.0" stroke-linecap="round" stroke-linejoin="round"/>
    <path d="M 514.4104614257812 258.2958984375 C 537.965087890625 254.4285125732422 558.5314331054688 289.4486999511719 532.8629760742188 260.24658203125 C 505.9186706542969 274.30133056640625 509.473388671875 280.0693054199219 500.35894775390625 261.8450927734375 C 510.34283447265625 257.34637451171875 498.3969421386719 232.29457092285156 506.0273742675781 179.48036193847656 C 520.0764770507812 283.9033508300781 495.63330078125 319.0183410644531 514.4104614257812 258.2958984375" stroke-width="0.0" fill="rgb(113, 247, 11)" opacity="0.080608286" stroke="rgb(0, 0, 0)" stroke-opacity="1.0" stroke-linecap="round" stroke-linejoin="round"/>
    <path d="M 127.56073760986328 118.97025299072266 C 142.83143615722656 163.70997619628906 115.60525512695312 194.6944580078125 117.47696685791016 165.23959350585938 C 90.93604278564453 159.6088104248047 83.01060485839844 160.650146484375 105.55709075927734 152.4039306640625 C 110.306640625 168.29055786132812 115.1251220703125 160.80307006835938 126.15457916259766 121.08493041992188 C 154.6183319091797 85.28980255126953 140.24380493164062 109.27141571044922 127.56073760986328 118.97025299072266" stroke-width="0.0" fill="rgb(148, 62, 10)" opacity="0.005063127" stroke="rgb(0, 0, 0)" stroke-opacity="1.0" stroke-linecap="round" stroke-linejoin="round"/>
  </g>
</svg>
