<?xml version="1.0" ?>
<svg xmlns="http://www.w3.org/2000/svg" version="1.1" width="512" height="512">
  <defs/>
  <g>
    <path d="M 534.3546142578125 456.03826904296875 C 547.4852905273438 516.6414794921875 548.3889770507812 525.1383666992188 391.3504943847656 531.8592529296875 C 319.76873779296875 563.2000122070312 290.24560546875 563.2000122070312 297.9698486328125 548.2972412109375 C 353.84283447265625 383.92425537109375 425.90130615234375 380.3388366699219 532.3245239257812 345.2535400390625 C 562.9082641601562 316.3078308105469 563.0614013671875 335.505615234375 534.3546142578125 456.03826904296875" stroke-width="0.0" fill="rgb(59, 76, 250)" opacity="0.9324321" stroke="rgb(0, 0, 0)" stroke-opacity="1.0" stroke-linecap="round" stroke-linejoin="round"/>
    <path d="M 336.98516845703125 418.9910583496094 C 320.87353515625 507.1130676269531 291.4652404785156 518.3660888671875 248.9296112060547 540.4783325195312 C -51.7291374206543 517.822021484375 -59.66640853881836 513.8820190429688 20.41340446472168 490.0068054199219 C 19.556421279907227 196.8631591796875 -13.507828712463379 190.61279296875 39.10675048828125 207.39422607421875 C 228.1502685546875 257.3443298339844 271.279296875 207.86451721191406 336.98516845703125 418.9910583496094" stroke-width="0.0" fill="rgb(208, 255, 255)" opacity="0.15846057" stroke="rgb(0, 0, 0)" stroke-opacity="1.0" stroke-linecap="round" stroke-linejoin="round"/>
    <path d="M 312.5533752441406 364.1142883300781 C 465.857421875 287.7222900390625 284.4711608886719 368.82086181640625 226.90753173828125 318.55572509765625 C 110.47859954833984 424.0909118652344 7.2585530281066895 319.90521240234375 59.07422637939453 168.08287048339844 C 78.4010009765625 184.5507354736328 66.41507720947266 152.18739318847656 129.69601440429688 174.45069885253906 C 199.29916381835938 243.72177124023438 293.3060607910156 147.1123504638672 312.5533752441406 364.1142883300781" stroke-width="0.0" fill="rgb(47, 33, 217)" opacity="0.72223765" stroke="rgb(0, 0, 0)" stroke-opacity="1.0" stroke-linecap="round" stroke-linejoin="round"/>
    <path d="M 178.1633758544922 -55.32361602783203 C 173.33731079101562 143.70611572265625 168.3710479736328 142.24517822265625 24.499252319335938 254.5175018310547 C -50.05656433105469 245.6101531982422 -43.34195327758789 231.18246459960938 -35.43067932128906 158.14894104003906 C -16.190303802490234 -17.708452224731445 -9.996477127075195 -23.574756622314453 32.775753021240234 -18.098133087158203 C 196.82273864746094 -23.394615173339844 224.5518341064453 -36.593833923339844 178.1633758544922 -55.32361602783203" stroke-width="0.0" fill="rgb(27, 247, 123)" opacity="0.91170055" stroke="rgb(0, 0, 0)" stroke-opacity="1.0" stroke-linecap="round" stroke-linejoin="round"/>
    <path d="M 517.9790649414062 85.52651977539062 C 453.91900634765625 286.8810119628906 447.54327392578125 360.58721923828125 360.7161865234375 332.81591796875 C 348.0798645019531 221.35494995117188 112.7557373046875 342.91339111328125 227.14031982421875 230.7517852783203 C 255.738037109375 79.78760528564453 227.1917724609375 30.60971450805664 362.33697509765625 -41.730712890625 C 567.5730590820312 -5.9423041343688965 568.6342163085938 12.914325714111328 517.9790649414062 85.52651977539062" stroke-width="0.0" fill="rgb(94, 104, 224)" opacity="0.9896998" stroke="rgb(0, 0, 0)" stroke-opacity="1.0" stroke-linecap="round" stroke-linejoin="round"/>
    <path d="M 272.093505859375 159.7611541748047 C 179.96315002441406 298.8500671386719 262.7244873046875 255.97959899902344 207.10330200195312 267.9669189453125 C 191.52978515625 177.7146759033203 111.83982849121094 180.1668701171875 51.14229965209961 228.43408203125 C 148.62448120117188 141.60357666015625 117.17620086669922 61.87882614135742 333.84039306640625 -22.30752944946289 C 316.3743591308594 -38.468624114990234 251.24168395996094 -59.51734924316406 272.093505859375 159.7611541748047" stroke-width="0.0" fill="rgb(124, 127, 217)" opacity="1.0" stroke="rgb(0, 0, 0)" stroke-opacity="1.0" stroke-linecap="round" stroke-linejoin="round"/>
    <path d="M 437.5364074707031 288.611328125 C 403.6868896484375 411.3362121582031 417.69110107421875 439.8330383300781 225.3490753173828 432.21630859375 C 52.75651550292969 430.1414489746094 39.19081497192383 444.01849365234375 341.8287048339844 443.58062744140625 C 252.34393310546875 255.1398162841797 308.75384521484375 205.15789794921875 313.4953308105469 239.21368408203125 C 485.1864929199219 233.36610412597656 456.7276916503906 245.5974884033203 437.5364074707031 288.611328125" stroke-width="0.0" fill="rgb(61, 68, 161)" opacity="0.83911306" stroke="rgb(0, 0, 0)" stroke-opacity="1.0" stroke-linecap="round" stroke-linejoin="round"/>
    <path d="M 555.9228515625 195.38938903808594 C 570.7963256835938 338.8733215332031 583.0772705078125 362.522216796875 486.03643798828125 448.3858642578125 C 383.22088623046875 383.5987854003906 435.42840576171875 303.8473815917969 396.5678405761719 244.6850128173828 C 391.52734375 95.86650085449219 357.4451904296875 2.9135780334472656 504.5154724121094 -12.05044937133789 C 560.0653686523438 47.14096450805664 577.09716796875 71.01114654541016 555.9228515625 195.38938903808594" stroke-width="0.0" fill="rgb(63, 253, 94)" opacity="0.9955505" stroke="rgb(0, 0, 0)" stroke-opacity="1.0" stroke-linecap="round" stroke-linejoin="round"/>
    <path d="M 408.222412109375 90.64627075195312 C 407.14984130859375 117.32363891601562 432.7171936035156 323.9889221191406 398.2522888183594 411.24774169921875 C 411.8254699707031 148.3157196044922 158.5313262939453 324.61474609375 236.91932678222656 242.33094787597656 C 206.50894165039062 218.46453857421875 282.469970703125 219.2824249267578 374.1278991699219 233.04495239257812 C 381.17877197265625 120.38741302490234 344.48974609375 132.5101776123047 408.222412109375 90.64627075195312" stroke-width="0.0" fill="rgb(63, 0, 116)" opacity="1.0" stroke="rgb(0, 0, 0)" stroke-opacity="1.0" stroke-linecap="round" stroke-linejoin="round"/>
    <path d="M 243.66720581054688 281.62078857421875 C 248.83041381835938 254.06529235839844 207.5497283935547 283.7716369628906 218.21156311035156 261.55072021484375 C 266.8559875488281 287.1612243652344 234.74220275878906 289.3947448730469 193.50692749023438 257.54461669921875 C 181.4224853515625 207.48712158203125 218.31483459472656 218.181396484375 216.59593200683594 260.9070739746094 C 213.2900848388672 264.4940490722656 194.10154724121094 240.9940643310547 243.66720581054688 281.62078857421875" stroke-width="0.0" fill="rgb(74, 111, 199)" opacity="0.7160418" stroke="rgb(0, 0, 0)" stroke-opacity="1.0" stroke-linecap="round" stroke-linejoin="round"/>
    <path d="M 388.25518798828125 292.98773193359375 C 370.55810546875 269.1357116699219 377.56976318359375 288.9468688964844 409.8533935546875 370.2090759277344 C 343.407470703125 353.4149169921875 357.6431884765625 380.8839416503906 367.0634460449219 354.65985107421875 C 346.2806701660156 154.14828491210938 357.4841003417969 212.9928741455078 380.6285400390625 186.00381469726562 C 392.2577819824219 271.3382263183594 376.8297424316406 282.0721740722656 388.25518798828125 292.98773193359375" stroke-width="0.0" fill="rgb(108, 89, 218)" opacity="0.76855165" stroke="rgb(0, 0, 0)" stroke-opacity="1.0" stroke-linecap="round" stroke-linejoin="round"/>
    <path d="M 382.348388671875 134.7620086669922 C 241.23709106445312 143.2734375 232.93435668945312 132.7025604248047 125.79190063476562 124.80843353271484 C 145.53562927246094 116.69725036621094 191.47328186035156 66.05860137939453 138.61489868164062 174.62612915039062 C 110.70259094238281 23.06287384033203 137.4132080078125 11.571941375732422 214.54098510742188 -28.397693634033203 C 380.4986572265625 -42.27436447143555 389.4273681640625 -9.067755699157715 382.348388671875 134.7620086669922" stroke-width="0.0" fill="rgb(42, 249, 120)" opacity="0.98517215" stroke="rgb(0, 0, 0)" stroke-opacity="1.0" stroke-linecap="round" stroke-linejoin="round"/>
    <path d="M 385.8659362792969 426.9889831542969 C 119.95174407958984 346.1647033691406 375.7399597167969 376.1909484863281 118.84687042236328 374.23443603515625 C 118.41854095458984 326.1036071777344 110.28853607177734 395.6612548828125 420.0328063964844 364.0536193847656 C 231.3475799560547 331.42803955078125 -31.274784088134766 355.57659912109375 -52.28146743774414 316.7992248535156 C 97.12435913085938 389.5087585449219 516.4833374023438 306.62847900390625 385.8659362792969 426.9889831542969" stroke-width="0.0" fill="rgb(66, 255, 212)" opacity="1.0" stroke="rgb(0, 0, 0)" stroke-opacity="1.0" stroke-linecap="round" stroke-linejoin="round"/>
    <path d="M 538.5447998046875 73.1875228881836 C 503.38909912109375 76.34107208251953 463.6728515625 67.12812042236328 528.0973510742188 69.13501739501953 C 520.150634765625 111.24253845214844 488.5796813964844 96.41433715820312 379.2136535644531 112.35265350341797 C 360.1759948730469 0.20513348281383514 352.91644287109375 -44.18672180175781 394.4879150390625 -42.128807067871094 C 540.9146118164062 -10.191633224487305 536.6610717773438 3.261720895767212 538.5447998046875 73.1875228881836" stroke-width="0.0" fill="rgb(113, 255, 52)" opacity="1.0" stroke="rgb(0, 0, 0)" stroke-opacity="1.0" stroke-linecap="round" stroke-linejoin="round"/>
    <path d="M 475.4038391113281 439.18157958984375 C 430.7118225097656 440.997802734375 405.1859130859375 441.7655944824219 378.5456848144531 436.84423828125 C 350.12628173828125 434.0401611328125 388.10601806640625 458.83416748046875 375.25933837890625 426.1759033203125 C 366.9767761230469 346.1304931640625 402.8979797363281 324.50433349609375 454.7239685058594 363.3647155761719 C 462.26043701171875 418.9862365722656 481.8807067871094 435.5226745605469 475.4038391113281 439.18157958984375" stroke-width="0.0" fill="rgb(52, 252, 116)" opacity="0.9727024" stroke="rgb(0, 0, 0)" stroke-opacity="1.0" stroke-linecap="round" stroke-linejoin="round"/>
    <path d="M 343.09283447265625 438.3678894042969 C 355.6701965332031 437.00634765625 358.3529357910156 496.1260070800781 301.1780700683594 593.995361328125 C 105.68257904052734 571.9226684570312 64.93858337402344 564.9329223632812 25.45697784423828 436.0287170410156 C 222.34329223632812 439.6763610839844 302.53717041015625 443.34130859375 289.009765625 430.09124755859375 C 261.8064880371094 418.6553955078125 289.7427978515625 437.84185791015625 343.09283447265625 438.3678894042969" stroke-width="0.0" fill="rgb(75, 30, 255)" opacity="0.9827499" stroke="rgb(0, 0, 0)" stroke-opacity="1.0" stroke-linecap="round" stroke-linejoin="round"/>
    <path d="M 415.94366455078125 427.9295349121094 C 422.8956604003906 466.1213684082031 419.5784606933594 452.0660400390625 361.84967041015625 467.1156311035156 C 343.66705322265625 479.8750305175781 344.8169250488281 506.4178161621094 302.2653503417969 435.5650939941406 C 285.0880432128906 418.9931335449219 279.31414794921875 436.0989074707031 338.8218078613281 432.5681457519531 C 432.06927490234375 404.3524169921875 408.59674072265625 344.23773193359375 415.94366455078125 427.9295349121094" stroke-width="0.0" fill="rgb(96, 131, 236)" opacity="0.10591517" stroke="rgb(0, 0, 0)" stroke-opacity="1.0" stroke-linecap="round" stroke-linejoin="round"/>
    <path d="M 32.76323699951172 402.7893371582031 C 56.45854949951172 473.9603576660156 101.65642547607422 480.3643798828125 40.44743728637695 458.0710754394531 C -23.89375114440918 402.55914306640625 -5.045834541320801 394.9222106933594 -15.268802642822266 397.94879150390625 C 0.38993343710899353 420.8714294433594 4.66533088684082 407.792236328125 42.427162170410156 448.3558044433594 C 0.7617797255516052 462.3016662597656 7.027365207672119 432.5666198730469 32.76323699951172 402.7893371582031" stroke-width="0.0" fill="rgb(244, 171, 255)" opacity="0.07177853" stroke="rgb(0, 0, 0)" stroke-opacity="1.0" stroke-linecap="round" stroke-linejoin="round"/>
    <path d="M 399.74603271484375 126.50184631347656 C 367.3244934082031 140.66064453125 438.0410461425781 143.3354949951172 307.3323669433594 134.53134155273438 C 379.560546875 121.7912826538086 384.9983215332031 147.73614501953125 353.0851745605469 131.6757049560547 C 155.82241821289062 151.87823486328125 96.1863021850586 151.16697692871094 143.95889282226562 126.64803314208984 C 390.3148498535156 114.94265747070312 390.3398742675781 95.73566436767578 399.74603271484375 126.50184631347656" stroke-width="0.0" fill="rgb(64, 2, 110)" opacity="0.977307" stroke="rgb(0, 0, 0)" stroke-opacity="1.0" stroke-linecap="round" stroke-linejoin="round"/>
    <path d="M 357.95111083984375 233.26089477539062 C 338.6663513183594 209.0053253173828 343.999755859375 132.65481567382812 357.939208984375 348.36309814453125 C 362.5981140136719 131.89068603515625 435.3830261230469 222.86288452148438 192.00839233398438 210.53775024414062 C 192.7412872314453 219.22955322265625 457.90045166015625 215.67044067382812 355.7294006347656 219.32261657714844 C 355.1985168457031 163.28616333007812 374.725830078125 203.0815887451172 357.95111083984375 233.26089477539062" stroke-width="0.0" fill="rgb(66, 158, 154)" opacity="0.062318224" stroke="rgb(0, 0, 0)" stroke-opacity="1.0" stroke-linecap="round" stroke-linejoin="round"/>
    <path d="M 151.0440673828125 357.30059814453125 C 178.4808349609375 415.5533142089844 85.56612396240234 321.93658447265625 118.05626678466797 429.0773010253906 C 41.04127883911133 498.109130859375 -38.396949768066406 466.5108642578125 -52.76667785644531 313.56439208984375 C 16.56011199951172 231.607421875 35.051963806152344 208.92825317382812 139.60728454589844 92.90567779541016 C 151.04623413085938 145.8436737060547 150.6127166748047 182.41390991210938 151.0440673828125 357.30059814453125" stroke-width="0.0" fill="rgb(43, 137, 214)" opacity="0.9973203" stroke="rgb(0, 0, 0)" stroke-opacity="1.0" stroke-linecap="round" stroke-linejoin="round"/>
    <path d="M 158.80226135253906 555.2455444335938 C 123.9425277709961 521.8115844726562 111.82440948486328 523.4666748046875 61.602848052978516 555.4898681640625 C 54.04447555541992 550.0006103515625 48.81984329223633 538.25830078125 48.50287628173828 477.0513610839844 C 13.75576114654541 446.2672119140625 19.798171997070312 437.47808837890625 75.34612274169922 444.1513977050781 C 157.5904998779297 436.4000549316406 153.2620849609375 481.3860778808594 158.80226135253906 555.2455444335938" stroke-width="0.0" fill="rgb(100, 13, 255)" opacity="0.97573096" stroke="rgb(0, 0, 0)" stroke-opacity="1.0" stroke-linecap="round" stroke-linejoin="round"/>
    <path d="M 225.4949493408203 139.2938690185547 C 290.8545837402344 220.9332275390625 269.04345703125 49.82219314575195 283.93682861328125 150.29367065429688 C 254.8607177734375 199.49046325683594 215.6604766845703 174.51144409179688 234.92111206054688 138.5090789794922 C 224.7715606689453 225.76747131347656 305.0578918457031 111.9389419555664 237.58811950683594 137.59854125976562 C 296.5694580078125 91.30513763427734 301.4446716308594 217.2992706298828 225.4949493408203 139.2938690185547" stroke-width="0.0" fill="rgb(167, 150, 78)" opacity="0.0024610097" stroke="rgb(0, 0, 0)" stroke-opacity="1.0" stroke-linecap="round" stroke-linejoin="round"/>
    <path d="M 300.273681640625 239.1510772705078 C 267.3406982421875 215.1564483642578 258.4313049316406 235.2879180908203 271.29461669921875 225.806396484375 C 281.22271728515625 242.00523376464844 284.8603820800781 241.35623168945312 273.1408996582031 258.9560241699219 C 281.6256408691406 214.9911651611328 297.279052734375 229.64381408691406 294.8619079589844 220.96006774902344 C 300.66571044921875 227.6495819091797 299.2262878417969 200.9811248779297 300.273681640625 239.1510772705078" stroke-width="0.0" fill="rgb(127, 133, 94)" opacity="0.0" stroke="rgb(0, 0, 0)" stroke-opacity="1.0" stroke-linecap="round" stroke-linejoin="round"/>
    <path d="M 307.3768310546875 120.01478576660156 C 207.17019653320312 100.27063751220703 250.09446716308594 130.7929229736328 225.79698181152344 151.4972686767578 C 241.01742553710938 151.1396484375 101.040283203125 153.8144073486328 116.02066040039062 136.04669189453125 C 226.2364501953125 129.00985717773438 244.54031372070312 114.84368133544922 227.02833557128906 121.10884094238281 C 246.7086944580078 135.3958282470703 232.10841369628906 103.97969818115234 307.3768310546875 120.01478576660156" stroke-width="0.0" fill="rgb(177, 119, 135)" opacity="0.0055656675" stroke="rgb(0, 0, 0)" stroke-opacity="1.0" stroke-linecap="round" stroke-linejoin="round"/>
    <path d="M 348.65576171875 369.6510314941406 C 360.8847961425781 323.52532958984375 318.916015625 343.8317565917969 303.84259033203125 353.3236999511719 C 310.76434326171875 337.6647644042969 263.8736572265625 331.504638671875 155.7967071533203 330.90679931640625 C 181.3065948486328 324.7140197753906 166.66839599609375 333.0120544433594 304.2154846191406 325.2052307128906 C 259.7017822265625 339.63446044921875 297.1529846191406 331.3498840332031 348.65576171875 369.6510314941406" stroke-width="0.0" fill="rgb(55, 79, 225)" opacity="0.1395009" stroke="rgb(0, 0, 0)" stroke-opacity="1.0" stroke-linecap="round" stroke-linejoin="round"/>
    <path d="M 58.919769287109375 511.4084167480469 C 95.15263366699219 538.1503295898438 70.44515228271484 533.6392211914062 13.822793960571289 528.7147216796875 C -9.364206314086914 527.7437133789062 -16.68471336364746 520.4232177734375 -41.572261810302734 489.12799072265625 C -44.20586013793945 473.06146240234375 -55.39206314086914 450.9972229003906 -18.523181915283203 440.95068359375 C 64.2306900024414 442.7893371582031 62.110984802246094 443.86395263671875 58.919769287109375 511.4084167480469" stroke-width="0.0" fill="rgb(116, 0, 255)" opacity="1.0" stroke="rgb(0, 0, 0)" stroke-opacity="1.0" stroke-linecap="round" stroke-linejoin="round"/>
    <path d="M 206.3886260986328 209.0612030029297 C 272.63671875 206.5364532470703 310.59332275390625 205.62200927734375 128.64002990722656 214.72171020507812 C 116.0983657836914 228.2720184326172 115.22381591796875 165.84954833984375 115.64378356933594 143.8778839111328 C 121.32952117919922 128.996826171875 121.49395751953125 124.95087432861328 146.7244415283203 129.02127075195312 C 144.986083984375 116.95636749267578 168.91331481933594 151.01564025878906 206.3886260986328 209.0612030029297" stroke-width="0.0" fill="rgb(158, 52, 205)" opacity="0.5674679" stroke="rgb(0, 0, 0)" stroke-opacity="1.0" stroke-linecap="round" stroke-linejoin="round"/>
    <path d="M 174.2113800048828 121.80159759521484 C 172.93772888183594 122.26132202148438 181.78575134277344 115.35525512695312 158.88999938964844 130.599609375 C 129.87046813964844 116.12471008300781 143.41395568847656 101.79248809814453 158.8462677001953 102.95728302001953 C 158.90667724609375 102.11263275146484 189.55435180664062 116.49369049072266 170.17494201660156 126.13906860351562 C 192.00079345703125 130.49880981445312 196.32635498046875 119.02571105957031 174.2113800048828 121.80159759521484" stroke-width="0.0" fill="rgb(6, 131, 161)" opacity="0.37881783" stroke="rgb(0, 0, 0)" stroke-opacity="1.0" stroke-linecap="round" stroke-linejoin="round"/>
    <path d="M 452.7408142089844 119.59789276123047 C 433.6725769042969 149.3274383544922 427.7552795410156 146.77154541015625 411.21759033203125 131.0836639404297 C 398.6064147949219 113.56438446044922 377.945068359375 124.36770629882812 333.4926452636719 103.86675262451172 C 303.0912170410156 104.1224594116211 280.32305908203125 4.4036865234375 314.6978454589844 -29.236961364746094 C 459.3789978027344 58.76266860961914 455.0396728515625 87.42706298828125 452.7408142089844 119.59789276123047" stroke-width="0.0" fill="rgb(79, 253, 82)" opacity="0.9977589" stroke="rgb(0, 0, 0)" stroke-opacity="1.0" stroke-linecap="round" stroke-linejoin="round"/>
    <path d="M 375.0738830566406 262.0438232421875 C 389.675537109375 284.0619201660156 387.3170166015625 260.7352294921875 367.7546691894531 264.6192321777344 C 345.54638671875 251.08953857421875 346.008056640625 243.2015380859375 302.7086486816406 241.751708984375 C 277.1667785644531 231.04132080078125 305.9464111328125 220.44972229003906 324.4561767578125 223.94235229492188 C 334.1270751953125 244.73492431640625 382.7684631347656 229.39500427246094 375.0738830566406 262.0438232421875" stroke-width="0.0" fill="rgb(89, 113, 207)" opacity="0.6539559" stroke="rgb(0, 0, 0)" stroke-opacity="1.0" stroke-linecap="round" stroke-linejoin="round"/>
    <path d="M 242.73248291015625 271.62213134765625 C 246.99232482910156 305.0460510253906 240.52432250976562 332.1705322265625 234.06260681152344 289.212890625 C 176.06951904296875 252.81993103027344 155.94314575195312 238.09481811523438 147.34657287597656 274.61175537109375 C 155.27261352539062 268.0735168457031 160.25706481933594 263.1781005859375 192.05081176757812 239.904296875 C 241.20294189453125 248.0749969482422 225.9000701904297 251.05015563964844 242.73248291015625 271.62213134765625" stroke-width="0.0" fill="rgb(115, 144, 241)" opacity="0.84910196" stroke="rgb(0, 0, 0)" stroke-opacity="1.0" stroke-linecap="round" stroke-linejoin="round"/>
    <path d="M 187.31600952148438 407.9945983886719 C 162.62960815429688 419.0000915527344 165.9781951904297 416.9762878417969 174.75173950195312 426.2830810546875 C 126.9227294921875 432.3136291503906 125.49361419677734 444.3533020019531 112.25852966308594 436.25628662109375 C 134.2429962158203 444.5935974121094 173.63055419921875 434.1698913574219 175.11341857910156 421.1707458496094 C 175.24571228027344 415.26605224609375 181.8141326904297 412.68780517578125 187.31600952148438 407.9945983886719" stroke-width="0.0" fill="rgb(192, 153, 129)" opacity="0.0" stroke="rgb(0, 0, 0)" stroke-opacity="1.0" stroke-linecap="round" stroke-linejoin="round"/>
    <path d="M 433.9183654785156 406.34051513671875 C 435.3571472167969 408.43359375 403.4302978515625 401.0169677734375 391.3407897949219 417.43328857421875 C 355.1578369140625 434.4969482421875 360.264404296875 422.0129699707031 400.24346923828125 395.7840576171875 C 408.03887939453125 341.44976806640625 377.927001953125 355.98175048828125 424.5899353027344 362.55084228515625 C 423.2909240722656 383.7666015625 434.9482116699219 397.97467041015625 433.9183654785156 406.34051513671875" stroke-width="0.0" fill="rgb(44, 255, 116)" opacity="0.6818028" stroke="rgb(0, 0, 0)" stroke-opacity="1.0" stroke-linecap="round" stroke-linejoin="round"/>
    <path d="M 268.0201110839844 159.44981384277344 C 281.5765686035156 149.9176483154297 284.5941467285156 143.9194793701172 280.1514892578125 147.14389038085938 C 254.49583435058594 151.68045043945312 252.6866912841797 150.9266357421875 261.9114074707031 150.1624298095703 C 232.02267456054688 131.28240966796875 257.1856384277344 119.26880645751953 242.70359802246094 153.89349365234375 C 215.3701934814453 130.0987091064453 253.66339111328125 142.2870635986328 268.0201110839844 159.44981384277344" stroke-width="0.0" fill="rgb(131, 131, 216)" opacity="0.18690759" stroke="rgb(0, 0, 0)" stroke-opacity="1.0" stroke-linecap="round" stroke-linejoin="round"/>
    <path d="M 278.9632568359375 268.54345703125 C 284.3177795410156 279.58758544921875 280.84173583984375 312.97015380859375 288.8048095703125 322.0428466796875 C 282.3152160644531 326.0804138183594 221.82586669921875 306.2569580078125 234.25054931640625 289.88787841796875 C 244.75390625 297.8485107421875 225.4882354736328 290.30413818359375 209.88717651367188 287.8513488769531 C 236.70962524414062 232.095458984375 268.95648193359375 261.25616455078125 278.9632568359375 268.54345703125" stroke-width="0.0" fill="rgb(110, 116, 241)" opacity="0.7867872" stroke="rgb(0, 0, 0)" stroke-opacity="1.0" stroke-linecap="round" stroke-linejoin="round"/>
    <path d="M 177.98793029785156 334.0442199707031 C 175.98550415039062 364.8467102050781 186.75216674804688 378.33544921875 155.36297607421875 344.5739440917969 C 128.87416076660156 367.41815185546875 118.27889251708984 388.39422607421875 133.39682006835938 386.015869140625 C 144.83502197265625 351.5807800292969 170.02403259277344 339.1301574707031 160.33251953125 318.51617431640625 C 181.26109313964844 323.1114196777344 189.8353729248047 337.6517333984375 177.98793029785156 334.0442199707031" stroke-width="0.0" fill="rgb(120, 54, 89)" opacity="0.04600101" stroke="rgb(0, 0, 0)" stroke-opacity="1.0" stroke-linecap="round" stroke-linejoin="round"/>
    <path d="M 189.3854522705078 260.6983642578125 C 235.3818359375 268.01043701171875 234.82203674316406 279.1147766113281 203.07931518554688 276.7321472167969 C 171.349853515625 240.14073181152344 170.21017456054688 259.4888000488281 182.41058349609375 256.2166748046875 C 186.73049926757812 251.7488250732422 192.51614379882812 253.4436492919922 200.8309326171875 241.54342651367188 C 188.9713592529297 220.5755615234375 187.74330139160156 241.5366668701172 189.3854522705078 260.6983642578125" stroke-width="0.0" fill="rgb(25, 122, 106)" opacity="0.021010974" stroke="rgb(0, 0, 0)" stroke-opacity="1.0" stroke-linecap="round" stroke-linejoin="round"/>
    <path d="M 290.8716735839844 245.89903259277344 C 280.84613037109375 259.4283142089844 271.09912109375 263.26165771484375 263.6256103515625 260.8279113769531 C 284.65179443359375 255.88478088378906 265.77099609375 242.77882385253906 246.826904296875 233.23318481445312 C 273.7793273925781 261.7204895019531 289.0244140625 247.27487182617188 266.8545227050781 219.1455078125 C 293.2240905761719 199.86964416503906 303.3238220214844 206.30386352539062 290.8716735839844 245.89903259277344" stroke-width="0.0" fill="rgb(90, 117, 213)" opacity="0.5946561" stroke="rgb(0, 0, 0)" stroke-opacity="1.0" stroke-linecap="round" stroke-linejoin="round"/>
    <path d="M 189.99856567382812 351.3954772949219 C 184.79248046875 352.837646484375 183.07044982910156 369.9459533691406 177.5739288330078 351.2112121582031 C 158.89344787597656 353.3756103515625 152.9796142578125 358.65484619140625 156.3145751953125 329.949951171875 C 123.22470092773438 313.4202575683594 155.25570678710938 315.0689392089844 198.25624084472656 317.3553466796875 C 188.13829040527344 355.2838439941406 180.3221435546875 354.67645263671875 189.99856567382812 351.3954772949219" stroke-width="0.0" fill="rgb(37, 35, 225)" opacity="0.20538554" stroke="rgb(0, 0, 0)" stroke-opacity="1.0" stroke-linecap="round" stroke-linejoin="round"/>
    <path d="M 70.97136688232422 467.1034851074219 C 91.77176666259766 468.3553161621094 87.3242416381836 473.0370788574219 46.001426696777344 469.91961669921875 C 53.41912841796875 464.7138366699219 44.746124267578125 481.4153747558594 46.93360900878906 473.15362548828125 C 53.161376953125 464.42718505859375 84.43212127685547 461.1090393066406 91.29621124267578 433.0667419433594 C 71.98246002197266 426.9848327636719 79.04422760009766 427.78729248046875 70.97136688232422 467.1034851074219" stroke-width="0.0" fill="rgb(51, 77, 245)" opacity="0.0" stroke="rgb(0, 0, 0)" stroke-opacity="1.0" stroke-linecap="round" stroke-linejoin="round"/>
    <path d="M 468.49468994140625 487.9027404785156 C 457.4508972167969 517.486328125 468.3591003417969 492.745361328125 448.7431335449219 500.3083801269531 C 422.7969970703125 533.0106201171875 426.8368835449219 528.8818359375 401.7957458496094 507.96905517578125 C 457.72149658203125 474.58709716796875 461.1889343261719 468.888427734375 475.8486328125 401.0461730957031 C 465.34991455078125 406.6229248046875 477.80999755859375 435.88128662109375 468.49468994140625 487.9027404785156" stroke-width="0.0" fill="rgb(86, 81, 248)" opacity="0.06876153" stroke="rgb(0, 0, 0)" stroke-opacity="1.0" stroke-linecap="round" stroke-linejoin="round"/>
    <path d="M 449.50579833984375 355.05743408203125 C 449.25933837890625 379.6436462402344 449.2584533691406 391.71746826171875 436.89788818359375 394.2799987792969 C 420.9648742675781 398.1438293457031 417.8099365234375 384.66571044921875 422.19366455078125 353.37896728515625 C 420.3712463378906 326.5538024902344 414.476318359375 333.9864807128906 454.05908203125 348.8531799316406 C 444.0527648925781 343.1014404296875 441.998291015625 341.6754455566406 449.50579833984375 355.05743408203125" stroke-width="0.0" fill="rgb(71, 204, 216)" opacity="0.00028142356" stroke="rgb(0, 0, 0)" stroke-opacity="1.0" stroke-linecap="round" stroke-linejoin="round"/>
    <path d="M 38.27191162109375 460.02630615234375 C 75.6613998413086 473.24224853515625 95.97480010986328 471.0326232910156 76.6169204711914 463.0531005859375 C 42.47195816040039 507.39056396484375 15.680001258850098 490.049560546875 69.34447479248047 491.97088623046875 C 74.19499206542969 520.2105712890625 24.06142234802246 482.3023376464844 42.38334274291992 464.20684814453125 C 48.390586853027344 432.2049255371094 54.16110610961914 431.86468505859375 38.27191162109375 460.02630615234375" stroke-width="0.0" fill="rgb(76, 16, 254)" opacity="0.015560443" stroke="rgb(0, 0, 0)" stroke-opacity="1.0" stroke-linecap="round" stroke-linejoin="round"/>
    <path d="M 151.02554321289062 236.4566192626953 C 133.85040283203125 238.09716796875 128.8880615234375 238.13067626953125 131.1228790283203 311.71588134765625 C 128.16819763183594 339.3048400878906 112.19026184082031 294.5152893066406 113.4130630493164 257.97857666015625 C 121.10150146484375 237.18528747558594 109.46150207519531 232.4241485595703 121.5459976196289 206.95333862304688 C 160.3734130859375 188.31211853027344 158.81320190429688 187.4857940673828 151.02554321289062 236.4566192626953" stroke-width="0.0" fill="rgb(204, 11, 137)" opacity="0.39975545" stroke="rgb(0, 0, 0)" stroke-opacity="1.0" stroke-linecap="round" stroke-linejoin="round"/>
    <path d="M 462.52667236328125 238.0529022216797 C 471.48382568359375 225.37884521484375 470.44635009765625 254.35903930664062 466.3871765136719 247.17759704589844 C 454.2513122558594 229.4575958251953 438.7877502441406 214.8148193359375 430.302001953125 238.18698120117188 C 450.02716064453125 232.57684326171875 444.5200500488281 226.50868225097656 448.1604919433594 235.70516967773438 C 453.5865478515625 218.47955322265625 471.2214660644531 232.12838745117188 462.52667236328125 238.0529022216797" stroke-width="0.0" fill="rgb(60, 215, 147)" opacity="0.010448443" stroke="rgb(0, 0, 0)" stroke-opacity="1.0" stroke-linecap="round" stroke-linejoin="round"/>
    <path d="M 380.340087890625 171.65640258789062 C 375.7752380371094 203.70689392089844 365.6357727050781 239.0614013671875 333.7351379394531 203.25875854492188 C 328.7467956542969 203.1282958984375 345.839599609375 210.39276123046875 322.348876953125 212.74032592773438 C 310.29742431640625 181.62344360351562 328.3480224609375 172.84552001953125 361.41680908203125 190.19219970703125 C 356.44305419921875 192.2346954345703 366.1330871582031 174.76055908203125 380.340087890625 171.65640258789062" stroke-width="0.0" fill="rgb(63, 167, 143)" opacity="0.09261054" stroke="rgb(0, 0, 0)" stroke-opacity="1.0" stroke-linecap="round" stroke-linejoin="round"/>
    <path d="M 67.41276550292969 482.6917419433594 C 71.65485382080078 479.126953125 54.51263427734375 479.25897216796875 28.75728988647461 468.3938903808594 C 43.05736541748047 468.7787170410156 46.01321792602539 470.5267028808594 59.20442581176758 454.293212890625 C 47.03017044067383 449.0110778808594 56.93290328979492 438.7913818359375 88.46298217773438 439.3382263183594 C 52.12401580810547 421.9356689453125 39.6273307800293 482.2756652832031 67.41276550292969 482.6917419433594" stroke-width="0.0" fill="rgb(76, 64, 255)" opacity="0.026366817" stroke="rgb(0, 0, 0)" stroke-opacity="1.0" stroke-linecap="round" stroke-linejoin="round"/>
    <path d="M 438.9521179199219 87.76632690429688 C 449.2281494140625 56.29161834716797 437.3597717285156 64.75342559814453 441.9503173828125 65.64088439941406 C 429.9788818359375 22.833948135375977 424.3889465332031 44.44416046142578 440.6925354003906 62.35476303100586 C 458.2304992675781 83.13658142089844 446.4622802734375 41.76102066040039 441.51373291015625 55.312049865722656 C 408.1893310546875 23.063798904418945 415.3078918457031 64.79446411132812 438.9521179199219 87.76632690429688" stroke-width="0.0" fill="rgb(63, 253, 96)" opacity="0.08842107" stroke="rgb(0, 0, 0)" stroke-opacity="1.0" stroke-linecap="round" stroke-linejoin="round"/>
    <path d="M 307.5805358886719 175.58633422851562 C 309.4853210449219 202.52041625976562 298.8752746582031 206.36924743652344 276.4467468261719 182.3606719970703 C 281.4225769042969 188.2890625 277.1446533203125 224.35647583007812 265.9286193847656 186.61802673339844 C 258.534423828125 146.62879943847656 272.8034973144531 137.55613708496094 274.3385314941406 156.18441772460938 C 321.5234069824219 153.9680633544922 314.0460510253906 147.81610107421875 307.5805358886719 175.58633422851562" stroke-width="0.0" fill="rgb(80, 196, 125)" opacity="0.024380345" stroke="rgb(0, 0, 0)" stroke-opacity="1.0" stroke-linecap="round" stroke-linejoin="round"/>
    <path d="M 211.34091186523438 30.402740478515625 C 195.3096923828125 92.4967041015625 179.52781677246094 85.47402954101562 140.0967559814453 83.65514373779297 C 107.37008666992188 73.55970001220703 98.75479888916016 40.398193359375 121.15040588378906 47.562557220458984 C 135.32138061523438 7.654514789581299 130.88185119628906 -21.741615295410156 182.28497314453125 12.977992057800293 C 147.3327178955078 24.319055557250977 150.58143615722656 -3.517397880554199 211.34091186523438 30.402740478515625" stroke-width="0.0" fill="rgb(76, 246, 129)" opacity="0.09910741" stroke="rgb(0, 0, 0)" stroke-opacity="1.0" stroke-linecap="round" stroke-linejoin="round"/>
    <path d="M 217.1251220703125 357.94281005859375 C 206.12075805664062 335.4559326171875 183.72674560546875 347.3753967285156 195.285400390625 364.7322998046875 C 201.1492156982422 347.0252990722656 188.61444091796875 336.55816650390625 145.0095977783203 336.6312255859375 C 155.22349548339844 325.4834289550781 177.8638153076172 326.6861572265625 182.6589813232422 351.04400634765625 C 180.81796264648438 362.5654602050781 189.26914978027344 375.06634521484375 217.1251220703125 357.94281005859375" stroke-width="0.0" fill="rgb(19, 194, 196)" opacity="0.06545407" stroke="rgb(0, 0, 0)" stroke-opacity="1.0" stroke-linecap="round" stroke-linejoin="round"/>
    <path d="M 55.871543884277344 319.0867004394531 C 63.591026306152344 341.3350524902344 57.8543586730957 350.6702880859375 32.67710494995117 343.0751953125 C -2.4532828330993652 348.5699157714844 17.161346435546875 342.95751953125 28.285493850708008 332.6032409667969 C 24.172924041748047 313.0298156738281 24.27254295349121 296.5202331542969 38.3441162109375 297.6895751953125 C 53.76616287231445 298.1890869140625 54.88629913330078 302.1146240234375 55.871543884277344 319.0867004394531" stroke-width="0.0" fill="rgb(42, 96, 220)" opacity="0.0" stroke="rgb(0, 0, 0)" stroke-opacity="1.0" stroke-linecap="round" stroke-linejoin="round"/>
    <path d="M 395.472412109375 416.52996826171875 C 399.61761474609375 438.261962890625 412.1759033203125 453.8554382324219 389.1495666503906 433.5899658203125 C 372.0845031738281 479.07550048828125 392.88555908203125 441.2751159667969 377.8863830566406 418.3456726074219 C 335.39935302734375 416.4123840332031 354.54351806640625 397.8502502441406 399.6117248535156 399.401123046875 C 439.91058349609375 393.3185119628906 423.1671447753906 416.26739501953125 395.472412109375 416.52996826171875" stroke-width="0.0" fill="rgb(24, 234, 141)" opacity="0.0" stroke="rgb(0, 0, 0)" stroke-opacity="1.0" stroke-linecap="round" stroke-linejoin="round"/>
    <path d="M 138.47193908691406 279.8338928222656 C 147.14462280273438 308.1562805175781 158.10975646972656 305.1743469238281 138.47573852539062 299.5880126953125 C 122.76615905761719 296.6426086425781 117.30148315429688 286.0688171386719 102.42668914794922 286.0809631347656 C 103.92048645019531 257.414794921875 111.29827117919922 250.22474670410156 126.32938385009766 264.8053283691406 C 121.8924331665039 284.4889221191406 122.42300415039062 289.8250427246094 138.47193908691406 279.8338928222656" stroke-width="0.0" fill="rgb(59, 118, 187)" opacity="0.023245199" stroke="rgb(0, 0, 0)" stroke-opacity="1.0" stroke-linecap="round" stroke-linejoin="round"/>
    <path d="M 143.54052734375 451.6632385253906 C 149.83407592773438 472.7107849121094 144.25222778320312 478.810546875 118.29973602294922 472.6905212402344 C 97.58929443359375 469.7956237792969 88.72935485839844 457.97515869140625 96.93618774414062 457.63885498046875 C 113.17521667480469 454.9042053222656 124.95399475097656 436.8305358886719 126.93831634521484 440.9797668457031 C 127.99073791503906 425.3799743652344 137.9772186279297 420.036376953125 143.54052734375 451.6632385253906" stroke-width="0.0" fill="rgb(71, 34, 251)" opacity="0.14881042" stroke="rgb(0, 0, 0)" stroke-opacity="1.0" stroke-linecap="round" stroke-linejoin="round"/>
    <path d="M 258.9269104003906 37.58799743652344 C 266.9830627441406 51.816932678222656 260.1938171386719 61.68018341064453 258.5291748046875 45.143253326416016 C 242.6736297607422 55.76188278198242 234.59304809570312 47.678592681884766 238.89602661132812 40.71417236328125 C 244.31243896484375 41.14358901977539 251.18887329101562 28.431982040405273 237.88690185546875 29.16168212890625 C 248.89779663085938 26.276405334472656 251.78106689453125 25.119853973388672 258.9269104003906 37.58799743652344" stroke-width="0.0" fill="rgb(51, 194, 126)" opacity="0.00025215064" stroke="rgb(0, 0, 0)" stroke-opacity="1.0" stroke-linecap="round" stroke-linejoin="round"/>
    <path d="M 137.8226776123047 346.10748291015625 C 129.18692016601562 326.8890075683594 119.06727600097656 337.7927551269531 82.5329360961914 352.06109619140625 C 82.49222564697266 332.904296875 100.0306396484375 316.8135986328125 110.04550170898438 303.5238342285156 C 93.99282836914062 284.89312744140625 117.76683807373047 284.30743408203125 112.42735290527344 313.82843017578125 C 119.58554077148438 308.0791320800781 133.6529998779297 299.6919250488281 137.8226776123047 346.10748291015625" stroke-width="0.0" fill="rgb(94, 100, 251)" opacity="0.04064743" stroke="rgb(0, 0, 0)" stroke-opacity="1.0" stroke-linecap="round" stroke-linejoin="round"/>
    <path d="M 539.7313842773438 219.65997314453125 C 560.4495849609375 272.8365173339844 532.0934448242188 274.1764831542969 488.9670715332031 267.2716979980469 C 434.1640319824219 283.6190490722656 431.6288146972656 282.4277648925781 427.63946533203125 140.32525634765625 C 418.4092712402344 102.29674530029297 446.3840026855469 137.24391174316406 443.8135681152344 110.8551025390625 C 553.1056518554688 106.56208801269531 554.359130859375 117.02941131591797 539.7313842773438 219.65997314453125" stroke-width="0.0" fill="rgb(85, 254, 76)" opacity="0.36093923" stroke="rgb(0, 0, 0)" stroke-opacity="1.0" stroke-linecap="round" stroke-linejoin="round"/>
    <path d="M 436.8662414550781 266.7417907714844 C 444.27484130859375 315.98846435546875 460.9754943847656 314.2550048828125 444.0226745605469 296.7767639160156 C 426.3199462890625 287.416015625 410.62286376953125 272.327880859375 407.8213195800781 246.23048400878906 C 453.707763671875 236.9025421142578 461.8362121582031 238.56959533691406 427.39410400390625 252.89996337890625 C 436.6787109375 247.4252471923828 446.13958740234375 252.83245849609375 436.8662414550781 266.7417907714844" stroke-width="0.0" fill="rgb(72, 169, 175)" opacity="0.0" stroke="rgb(0, 0, 0)" stroke-opacity="1.0" stroke-linecap="round" stroke-linejoin="round"/>
    <path d="M 491.8738708496094 81.27737426757812 C 479.83123779296875 70.01392364501953 476.4233703613281 69.65796661376953 494.36761474609375 53.385658264160156 C 502.063720703125 63.94417190551758 473.39581298828125 59.83694839477539 462.6049499511719 69.54690551757812 C 465.22784423828125 52.266700744628906 478.5074462890625 45.33137512207031 475.92340087890625 58.53628921508789 C 473.2121887207031 69.5843505859375 492.4945068359375 77.13384246826172 491.8738708496094 81.27737426757812" stroke-width="0.0" fill="rgb(123, 255, 124)" opacity="0.060998626" stroke="rgb(0, 0, 0)" stroke-opacity="1.0" stroke-linecap="round" stroke-linejoin="round"/>
    <path d="M 93.16896057128906 252.06893920898438 C 79.87196350097656 289.9533386230469 47.83957290649414 281.8033142089844 -18.044219970703125 279.11944580078125 C -17.21229362487793 221.86502075195312 -36.1756591796875 206.5301513671875 -0.6448532938957214 160.0792694091797 C 23.183679580688477 152.6683807373047 14.076528549194336 163.584228515625 52.03916931152344 149.32717895507812 C 83.30396270751953 142.2427215576172 105.2129898071289 159.74569702148438 93.16896057128906 252.06893920898438" stroke-width="0.0" fill="rgb(0, 235, 134)" opacity="0.32423544" stroke="rgb(0, 0, 0)" stroke-opacity="1.0" stroke-linecap="round" stroke-linejoin="round"/>
    <path d="M 172.8824005126953 335.7005310058594 C 202.9503631591797 362.03448486328125 145.69517517089844 362.0975646972656 118.08566284179688 356.27215576171875 C 120.370361328125 369.2126159667969 114.9206314086914 305.4818115234375 118.183837890625 305.8948669433594 C 108.22038269042969 359.6908874511719 103.18809509277344 358.319580078125 110.62107849121094 342.34912109375 C 101.08000946044922 352.13055419921875 104.0384521484375 339.53973388671875 172.8824005126953 335.7005310058594" stroke-width="0.0" fill="rgb(10, 171, 214)" opacity="1.0" stroke="rgb(0, 0, 0)" stroke-opacity="1.0" stroke-linecap="round" stroke-linejoin="round"/>
    <path d="M 39.316497802734375 96.42769622802734 C 59.5224609375 135.79539489746094 53.82425308227539 141.02764892578125 19.84362030029297 137.2896728515625 C 52.86375427246094 135.33917236328125 2.700359582901001 140.6432647705078 -17.35696792602539 138.55471801757812 C -22.908666610717773 57.57455062866211 -14.464780807495117 58.31144714355469 27.114715576171875 64.67459106445312 C 35.57314682006836 65.29676055908203 37.7848014831543 64.89861297607422 39.316497802734375 96.42769622802734" stroke-width="0.0" fill="rgb(63, 209, 182)" opacity="0.03600384" stroke="rgb(0, 0, 0)" stroke-opacity="1.0" stroke-linecap="round" stroke-linejoin="round"/>
  </g>
</svg>
