<?xml version="1.0" ?>
<svg xmlns="http://www.w3.org/2000/svg" version="1.1" width="512" height="512">
  <defs/>
  <g>
    <path d="M 555.4120483398438 449.5461730957031 C 553.1840209960938 482.50872802734375 503.0161437988281 530.5070190429688 433.4360046386719 560.8746337890625 C 285.40142822265625 568.5687866210938 282.3763122558594 557.6028442382812 212.10020446777344 431.3080139160156 C 302.9442443847656 400.73602294921875 380.3038635253906 388.3193359375 491.7320861816406 338.7622985839844 C 573.6846923828125 359.3120422363281 580.6694946289062 342.4255065917969 555.4120483398438 449.5461730957031" stroke-width="0.0" fill="rgb(22, 158, 86)" opacity="0.8652048" stroke="rgb(0, 0, 0)" stroke-opacity="1.0" stroke-linecap="round" stroke-linejoin="round"/>
    <path d="M 258.09722900390625 375.779541015625 C 271.7764587402344 487.0661315917969 364.0997619628906 419.8004455566406 227.6498260498047 563.4283447265625 C -41.479393005371094 563.2000122070312 -20.873289108276367 492.0749206542969 -74.74064636230469 360.2679138183594 C -80.65467071533203 187.80662536621094 -59.120384216308594 159.4161376953125 116.03072357177734 135.16485595703125 C 246.9636993408203 191.47084045410156 168.84849548339844 248.34597778320312 258.09722900390625 375.779541015625" stroke-width="0.0" fill="rgb(127, 249, 116)" opacity="0.5981169" stroke="rgb(0, 0, 0)" stroke-opacity="1.0" stroke-linecap="round" stroke-linejoin="round"/>
    <path d="M 144.58651733398438 291.46453857421875 C 187.52110290527344 235.1665802001953 189.55908203125 281.50048828125 182.2267303466797 374.3871154785156 C -28.698108673095703 354.124267578125 -53.7048454284668 398.5478210449219 -36.55364990234375 213.66061401367188 C -7.906053066253662 144.44088745117188 2.7484588623046875 139.31468200683594 176.83348083496094 193.70582580566406 C 164.12928771972656 318.4623107910156 147.7740936279297 315.91461181640625 144.58651733398438 291.46453857421875" stroke-width="0.0" fill="rgb(180, 234, 181)" opacity="0.5326781" stroke="rgb(0, 0, 0)" stroke-opacity="1.0" stroke-linecap="round" stroke-linejoin="round"/>
    <path d="M 378.80633544921875 83.95988464355469 C 260.9175720214844 123.11376953125 157.71078491210938 -8.79209041595459 27.780567169189453 144.39596557617188 C -26.07065200805664 191.79994201660156 -52.69173049926758 155.5876007080078 -52.343875885009766 71.82617950439453 C -48.850608825683594 21.282608032226562 17.57298469543457 -22.486919403076172 90.41038513183594 -57.69346618652344 C 325.9549865722656 -79.38787841796875 350.13299560546875 -81.4330062866211 378.80633544921875 83.95988464355469" stroke-width="0.0" fill="rgb(126, 233, 132)" opacity="0.73525417" stroke="rgb(0, 0, 0)" stroke-opacity="1.0" stroke-linecap="round" stroke-linejoin="round"/>
    <path d="M 241.1112823486328 134.74697875976562 C 227.2485809326172 227.5815887451172 193.45460510253906 200.3983612060547 165.54931640625 250.17315673828125 C 145.3006134033203 256.47332763671875 100.25199890136719 219.41342163085938 -9.19461441040039 151.4943084716797 C 19.675521850585938 93.72660064697266 241.5971221923828 -42.48478698730469 384.90045166015625 129.02235412597656 C 220.09153747558594 281.44873046875 162.6885528564453 113.7342300415039 241.1112823486328 134.74697875976562" stroke-width="0.0" fill="rgb(165, 232, 174)" opacity="1.0" stroke="rgb(0, 0, 0)" stroke-opacity="1.0" stroke-linecap="round" stroke-linejoin="round"/>
    <path d="M 431.3829040527344 202.10134887695312 C 464.2153015136719 493.7881164550781 401.5130310058594 465.638427734375 217.9267578125 428.4637451171875 C 355.4863586425781 373.49407958984375 308.43328857421875 310.1756896972656 352.0308837890625 332.83319091796875 C 332.9550476074219 376.6553039550781 314.9844665527344 359.6268615722656 318.81610107421875 291.6437072753906 C 373.8740234375 183.66232299804688 313.847412109375 176.25575256347656 431.3829040527344 202.10134887695312" stroke-width="0.0" fill="rgb(43, 179, 108)" opacity="1.0" stroke="rgb(0, 0, 0)" stroke-opacity="1.0" stroke-linecap="round" stroke-linejoin="round"/>
    <path d="M 532.590087890625 89.76485443115234 C 578.9940185546875 343.836669921875 543.5631103515625 352.1380310058594 449.9219970703125 369.0648498535156 C 314.0216979980469 353.7196044921875 370.8385009765625 317.359619140625 328.56793212890625 217.23483276367188 C 334.6722106933594 57.905452728271484 292.8659973144531 177.2672882080078 383.5841979980469 7.763150691986084 C 594.19677734375 -20.342615127563477 554.9134521484375 35.70766067504883 532.590087890625 89.76485443115234" stroke-width="0.0" fill="rgb(67, 168, 122)" opacity="0.9927855" stroke="rgb(0, 0, 0)" stroke-opacity="1.0" stroke-linecap="round" stroke-linejoin="round"/>
    <path d="M 385.0950012207031 272.59674072265625 C 327.9939880371094 379.2472839355469 347.37249755859375 202.0143585205078 284.0692138671875 528.8590698242188 C 223.5797882080078 322.6400146484375 194.9201202392578 393.1640319824219 255.0360107421875 261.2184143066406 C 340.4827575683594 254.31658935546875 265.38470458984375 189.68092346191406 319.056884765625 213.434326171875 C 308.5676574707031 256.1363525390625 346.6630859375 154.39886474609375 385.0950012207031 272.59674072265625" stroke-width="0.0" fill="rgb(16, 0, 150)" opacity="1.0" stroke="rgb(0, 0, 0)" stroke-opacity="1.0" stroke-linecap="round" stroke-linejoin="round"/>
    <path d="M 329.1360168457031 259.2195739746094 C 195.54122924804688 333.88226318359375 247.67745971679688 212.6297607421875 210.27188110351562 568.7133178710938 C 220.840576171875 261.41998291015625 237.92684936523438 342.2503356933594 217.4492645263672 263.2496643066406 C 185.05181884765625 199.77879333496094 289.877685546875 -16.026081085205078 193.4890899658203 289.2815856933594 C 230.7392578125 285.3570556640625 209.6346435546875 3.745433807373047 329.1360168457031 259.2195739746094" stroke-width="0.0" fill="rgb(6, 0, 147)" opacity="0.99814415" stroke="rgb(0, 0, 0)" stroke-opacity="1.0" stroke-linecap="round" stroke-linejoin="round"/>
    <path d="M 546.5287475585938 82.10758209228516 C 509.0654602050781 101.30152130126953 532.9740600585938 122.88453674316406 468.07635498046875 141.1602783203125 C 452.27130126953125 114.02007293701172 440.33160400390625 108.27240753173828 345.7994689941406 8.883881568908691 C 296.1813049316406 -24.568115234375 344.10113525390625 -26.697242736816406 451.4134826660156 -36.09471130371094 C 524.1558227539062 -13.975769996643066 536.4097290039062 30.708364486694336 546.5287475585938 82.10758209228516" stroke-width="0.0" fill="rgb(197, 255, 188)" opacity="0.97920465" stroke="rgb(0, 0, 0)" stroke-opacity="1.0" stroke-linecap="round" stroke-linejoin="round"/>
    <path d="M 260.05633544921875 418.6320495605469 C 256.0174255371094 428.9254150390625 281.28570556640625 474.2207336425781 235.3805389404297 461.62249755859375 C 263.3393249511719 413.3731994628906 269.53045654296875 415.2410583496094 254.04225158691406 417.7763366699219 C 260.26971435546875 395.6989440917969 275.4036865234375 388.703857421875 259.5656433105469 375.87030029296875 C 270.93524169921875 350.506103515625 262.15069580078125 400.6123352050781 260.05633544921875 418.6320495605469" stroke-width="0.0" fill="rgb(166, 193, 37)" opacity="0.7517835" stroke="rgb(0, 0, 0)" stroke-opacity="1.0" stroke-linecap="round" stroke-linejoin="round"/>
    <path d="M 219.49208068847656 255.5000457763672 C 213.02915954589844 206.10125732421875 229.32211303710938 270.1387634277344 225.5592041015625 308.82958984375 C 189.57298278808594 312.6840515136719 140.0294952392578 319.9635925292969 139.89892578125 258.217529296875 C 172.28579711914062 248.42852783203125 158.5963897705078 271.7219543457031 203.406982421875 237.14735412597656 C 226.08706665039062 151.44322204589844 220.91192626953125 228.11007690429688 219.49208068847656 255.5000457763672" stroke-width="0.0" fill="rgb(15, 0, 142)" opacity="1.0" stroke="rgb(0, 0, 0)" stroke-opacity="1.0" stroke-linecap="round" stroke-linejoin="round"/>
    <path d="M 468.5704040527344 389.53961181640625 C 465.1241455078125 413.266845703125 455.45306396484375 409.701904296875 440.9690246582031 399.1998291015625 C 463.9813537597656 403.6657409667969 413.287109375 419.9429931640625 390.88983154296875 399.2416687011719 C 376.59771728515625 331.02716064453125 373.7923583984375 347.7292175292969 425.7179870605469 372.60662841796875 C 451.1707763671875 399.009521484375 453.1640625 394.9676208496094 468.5704040527344 389.53961181640625" stroke-width="0.0" fill="rgb(60, 177, 114)" opacity="0.803699" stroke="rgb(0, 0, 0)" stroke-opacity="1.0" stroke-linecap="round" stroke-linejoin="round"/>
    <path d="M 307.91595458984375 405.3831787109375 C 289.44219970703125 410.793701171875 249.6542205810547 411.6702575683594 255.56893920898438 406.7218017578125 C 271.4185791015625 408.233642578125 215.4951934814453 372.08746337890625 230.60104370117188 381.50299072265625 C 249.55068969726562 401.8168640136719 270.70452880859375 384.9035949707031 249.87701416015625 379.32049560546875 C 272.7617492675781 378.59405517578125 256.68890380859375 416.15899658203125 307.91595458984375 405.3831787109375" stroke-width="0.0" fill="rgb(82, 0, 40)" opacity="0.3096656" stroke="rgb(0, 0, 0)" stroke-opacity="1.0" stroke-linecap="round" stroke-linejoin="round"/>
    <path d="M 329.53009033203125 168.40147399902344 C 348.3565979003906 263.26519775390625 334.7254943847656 255.49293518066406 292.4645690917969 183.8386993408203 C 289.3541564941406 161.98081970214844 230.9935760498047 161.21041870117188 243.4561767578125 226.2196044921875 C 311.9954528808594 216.5729522705078 316.1984558105469 194.70005798339844 315.1121826171875 174.57571411132812 C 342.5477600097656 167.81793212890625 324.3705749511719 141.30966186523438 329.53009033203125 168.40147399902344" stroke-width="0.0" fill="rgb(216, 224, 206)" opacity="0.94413847" stroke="rgb(0, 0, 0)" stroke-opacity="1.0" stroke-linecap="round" stroke-linejoin="round"/>
    <path d="M 217.78749084472656 67.40684509277344 C 216.522216796875 54.6339111328125 224.8563232421875 33.016387939453125 231.50765991210938 111.47041320800781 C 231.02552795410156 167.98500061035156 214.1829376220703 168.666748046875 214.2462615966797 109.00428771972656 C 137.609375 110.52533721923828 171.9778289794922 75.12751007080078 215.2472381591797 34.042762756347656 C 222.52862548828125 56.39470672607422 222.2375030517578 71.27841186523438 217.78749084472656 67.40684509277344" stroke-width="0.0" fill="rgb(45, 13, 103)" opacity="0.95234925" stroke="rgb(0, 0, 0)" stroke-opacity="1.0" stroke-linecap="round" stroke-linejoin="round"/>
    <path d="M 275.4524230957031 223.41720581054688 C 254.39813232421875 258.7615051269531 232.89080810546875 266.7789306640625 279.6882019042969 237.9138946533203 C 281.0605773925781 249.67391967773438 259.0103759765625 261.7365417480469 264.62579345703125 218.27635192871094 C 262.4271545410156 196.78689575195312 240.90753173828125 178.02365112304688 265.3361511230469 181.4619903564453 C 269.6292419433594 226.35472106933594 268.46014404296875 226.11903381347656 275.4524230957031 223.41720581054688" stroke-width="0.0" fill="rgb(191, 97, 118)" opacity="0.4815504" stroke="rgb(0, 0, 0)" stroke-opacity="1.0" stroke-linecap="round" stroke-linejoin="round"/>
    <path d="M 220.2349395751953 96.48407745361328 C 219.71958923339844 167.88914489746094 242.43304443359375 201.53814697265625 202.19630432128906 191.6870880126953 C 172.4541778564453 204.06268310546875 221.73690795898438 213.77731323242188 209.3505401611328 139.11563110351562 C 195.07968139648438 58.29290771484375 259.4642333984375 71.20639038085938 271.67108154296875 92.61289978027344 C 232.47137451171875 100.34886932373047 223.5340576171875 108.17315673828125 220.2349395751953 96.48407745361328" stroke-width="0.0" fill="rgb(57, 18, 111)" opacity="0.97613233" stroke="rgb(0, 0, 0)" stroke-opacity="1.0" stroke-linecap="round" stroke-linejoin="round"/>
    <path d="M 306.9461975097656 340.80523681640625 C 322.1529846191406 374.5939025878906 333.46734619140625 374.0124816894531 296.821533203125 400.7509460449219 C 290.94189453125 372.76507568359375 296.546875 433.2203063964844 311.8138732910156 369.8473205566406 C 321.18017578125 304.56884765625 293.4415283203125 319.56793212890625 298.1292724609375 306.98052978515625 C 334.5033874511719 363.98687744140625 291.01885986328125 327.08306884765625 306.9461975097656 340.80523681640625" stroke-width="0.0" fill="rgb(52, 89, 136)" opacity="0.08100633" stroke="rgb(0, 0, 0)" stroke-opacity="1.0" stroke-linecap="round" stroke-linejoin="round"/>
    <path d="M 371.09075927734375 230.8194122314453 C 312.8803405761719 268.0177307128906 333.93035888671875 235.8032684326172 334.2535705566406 259.43878173828125 C 327.2936706542969 202.3931884765625 275.7215576171875 247.97032165527344 292.41033935546875 151.2055206298828 C 293.562744140625 252.2559814453125 289.4248352050781 163.3991241455078 290.3780212402344 156.9752655029297 C 346.78662109375 94.805419921875 361.4042053222656 178.951171875 371.09075927734375 230.8194122314453" stroke-width="0.0" fill="rgb(72, 180, 141)" opacity="1.0" stroke="rgb(0, 0, 0)" stroke-opacity="1.0" stroke-linecap="round" stroke-linejoin="round"/>
    <path d="M 301.6126708984375 437.4757385253906 C 301.035888671875 424.3596496582031 305.5215759277344 420.70867919921875 310.3205261230469 411.23431396484375 C 298.1175842285156 447.6133728027344 293.5861511230469 465.5935974121094 306.60711669921875 424.65594482421875 C 312.0903625488281 383.0115661621094 288.6110534667969 357.4778747558594 328.5703430175781 362.66400146484375 C 297.6459045410156 414.49725341796875 310.6233215332031 436.4765930175781 301.6126708984375 437.4757385253906" stroke-width="0.0" fill="rgb(0, 218, 41)" opacity="0.643561" stroke="rgb(0, 0, 0)" stroke-opacity="1.0" stroke-linecap="round" stroke-linejoin="round"/>
    <path d="M 262.81689453125 464.9891052246094 C 298.6014709472656 456.5849914550781 305.5699157714844 485.6856689453125 300.8326721191406 531.3128662109375 C 235.1463165283203 490.79583740234375 198.92742919921875 471.589111328125 220.4871063232422 451.2565002441406 C 255.23765563964844 446.94525146484375 231.63099670410156 466.7334289550781 259.2466735839844 452.6246337890625 C 270.2333984375 429.90130615234375 250.5696258544922 431.7545471191406 262.81689453125 464.9891052246094" stroke-width="0.0" fill="rgb(18, 192, 73)" opacity="0.9753391" stroke="rgb(0, 0, 0)" stroke-opacity="1.0" stroke-linecap="round" stroke-linejoin="round"/>
    <path d="M 316.4596252441406 270.9365234375 C 300.2637023925781 265.2340087890625 272.9263610839844 276.2560729980469 278.7773742675781 301.7943115234375 C 317.41552734375 293.6061096191406 324.26507568359375 280.673828125 323.603515625 323.5035095214844 C 300.3520202636719 334.60760498046875 296.8338623046875 291.7899169921875 329.5768127441406 273.370361328125 C 314.4421691894531 275.3797607421875 311.2635803222656 346.39251708984375 316.4596252441406 270.9365234375" stroke-width="0.0" fill="rgb(85, 12, 76)" opacity="0.08560084" stroke="rgb(0, 0, 0)" stroke-opacity="1.0" stroke-linecap="round" stroke-linejoin="round"/>
    <path d="M 215.65916442871094 445.267578125 C 222.10409545898438 547.0746459960938 226.27684020996094 568.406982421875 208.31329345703125 533.271728515625 C 209.8123016357422 472.5902099609375 205.25045776367188 475.96820068359375 220.95677185058594 512.8291015625 C 210.5115509033203 502.35284423828125 200.15306091308594 473.0169982910156 218.760009765625 464.8925476074219 C 227.16488647460938 469.31781005859375 229.5927276611328 449.9284973144531 215.65916442871094 445.267578125" stroke-width="0.0" fill="rgb(174, 255, 125)" opacity="1.0" stroke="rgb(0, 0, 0)" stroke-opacity="1.0" stroke-linecap="round" stroke-linejoin="round"/>
    <path d="M 269.9002685546875 482.73480224609375 C 231.51678466796875 439.1556701660156 230.58937072753906 428.2725830078125 238.12814331054688 438.5749816894531 C 213.65248107910156 452.3731689453125 226.8300323486328 422.1885986328125 252.72084045410156 427.3571472167969 C 242.24609375 273.69049072265625 277.7185363769531 212.78004455566406 273.4183349609375 374.5462646484375 C 275.7493591308594 398.256103515625 276.38470458984375 409.1522521972656 269.9002685546875 482.73480224609375" stroke-width="0.0" fill="rgb(255, 214, 0)" opacity="1.0" stroke="rgb(0, 0, 0)" stroke-opacity="1.0" stroke-linecap="round" stroke-linejoin="round"/>
    <path d="M 316.3520812988281 479.85906982421875 C 320.8966064453125 480.23297119140625 270.53363037109375 486.2111511230469 260.6046142578125 482.1819763183594 C 275.2748718261719 478.3567199707031 263.1364440917969 482.3231201171875 270.1222839355469 486.13763427734375 C 279.01727294921875 482.04736328125 291.0614013671875 429.75054931640625 312.950439453125 404.57666015625 C 321.94073486328125 452.069091796875 321.6455078125 476.11285400390625 316.3520812988281 479.85906982421875" stroke-width="0.0" fill="rgb(9, 0, 150)" opacity="1.0" stroke="rgb(0, 0, 0)" stroke-opacity="1.0" stroke-linecap="round" stroke-linejoin="round"/>
    <path d="M 566.6901245117188 126.39871978759766 C 543.2357788085938 184.3776397705078 512.4356689453125 201.4196014404297 486.60357666015625 164.83718872070312 C 456.6012878417969 119.03469848632812 444.40576171875 104.45672607421875 438.20849609375 105.22207641601562 C 509.45263671875 102.2801742553711 473.3846435546875 127.77796173095703 476.24951171875 108.13458251953125 C 458.6190185546875 106.09526062011719 507.03765869140625 86.32408905029297 566.6901245117188 126.39871978759766" stroke-width="0.0" fill="rgb(212, 255, 176)" opacity="1.0" stroke="rgb(0, 0, 0)" stroke-opacity="1.0" stroke-linecap="round" stroke-linejoin="round"/>
    <path d="M 295.87652587890625 193.33253479003906 C 297.0381774902344 209.5246124267578 311.5387878417969 193.77142333984375 289.2398986816406 205.26290893554688 C 271.7646484375 239.4690704345703 244.90005493164062 236.46627807617188 219.4503173828125 159.11196899414062 C 239.17054748535156 111.06611633300781 234.13525390625 116.18577575683594 305.1014404296875 126.36932373046875 C 310.3367919921875 176.73191833496094 315.0473937988281 169.10377502441406 295.87652587890625 193.33253479003906" stroke-width="0.0" fill="rgb(255, 207, 180)" opacity="1.0" stroke="rgb(0, 0, 0)" stroke-opacity="1.0" stroke-linecap="round" stroke-linejoin="round"/>
    <path d="M 262.2351989746094 443.8709716796875 C 292.2689208984375 435.9183654785156 302.3246765136719 486.38763427734375 260.95166015625 490.3693542480469 C 218.39382934570312 416.0192565917969 214.82244873046875 407.8600769042969 222.1720428466797 372.0160827636719 C 247.32659912109375 376.0166320800781 256.7669982910156 394.2879638671875 249.17013549804688 398.4266357421875 C 252.75576782226562 413.0528869628906 212.64500427246094 432.6673583984375 262.2351989746094 443.8709716796875" stroke-width="0.0" fill="rgb(12, 0, 160)" opacity="1.0" stroke="rgb(0, 0, 0)" stroke-opacity="1.0" stroke-linecap="round" stroke-linejoin="round"/>
    <path d="M 257.32440185546875 451.6412353515625 C 257.9577331542969 475.509033203125 257.1126403808594 471.7464599609375 262.8720397949219 486.29888916015625 C 205.5055694580078 473.66668701171875 205.0550537109375 479.0911865234375 207.5189971923828 475.62945556640625 C 214.51309204101562 413.4190368652344 209.69927978515625 391.8149719238281 235.12008666992188 412.600341796875 C 256.4595642089844 413.8492736816406 256.5040283203125 402.6002197265625 257.32440185546875 451.6412353515625" stroke-width="0.0" fill="rgb(12, 0, 162)" opacity="1.0" stroke="rgb(0, 0, 0)" stroke-opacity="1.0" stroke-linecap="round" stroke-linejoin="round"/>
    <path d="M 575.3367919921875 472.14678955078125 C 519.0442504882812 515.8566284179688 510.5816650390625 522.5712280273438 484.6906433105469 532.0502319335938 C 465.0831604003906 531.114013671875 461.5205383300781 525.078125 480.4207763671875 544.1341552734375 C 475.4697570800781 509.1572265625 473.7227783203125 465.624267578125 475.153564453125 474.178466796875 C 515.6967163085938 469.4497375488281 549.71435546875 470.99615478515625 575.3367919921875 472.14678955078125" stroke-width="0.0" fill="rgb(63, 154, 122)" opacity="0.027954236" stroke="rgb(0, 0, 0)" stroke-opacity="1.0" stroke-linecap="round" stroke-linejoin="round"/>
    <path d="M 269.12945556640625 286.501953125 C 281.18524169921875 327.4606018066406 269.1292724609375 286.8404235839844 221.9287567138672 297.88287353515625 C 206.11004638671875 299.01507568359375 211.5924835205078 268.1507873535156 225.64112854003906 272.7214660644531 C 215.77223205566406 270.78955078125 250.51687622070312 290.61932373046875 221.220703125 279.7266540527344 C 220.82904052734375 275.3977966308594 260.82904052734375 271.4383544921875 269.12945556640625 286.501953125" stroke-width="0.0" fill="rgb(255, 229, 0)" opacity="1.0" stroke="rgb(0, 0, 0)" stroke-opacity="1.0" stroke-linecap="round" stroke-linejoin="round"/>
    <path d="M 323.59942626953125 280.6656188964844 C 316.4974060058594 314.9399719238281 256.3802490234375 278.2744445800781 257.565185546875 318.8106994628906 C 252.94557189941406 303.2503967285156 260.43756103515625 281.79461669921875 229.94337463378906 278.79974365234375 C 259.3038024902344 299.79022216796875 253.8369598388672 302.08135986328125 256.8236083984375 231.6565399169922 C 311.289306640625 242.14566040039062 224.18418884277344 275.26556396484375 323.59942626953125 280.6656188964844" stroke-width="0.0" fill="rgb(255, 235, 0)" opacity="1.0" stroke="rgb(0, 0, 0)" stroke-opacity="1.0" stroke-linecap="round" stroke-linejoin="round"/>
    <path d="M 130.61422729492188 42.12799835205078 C 162.20303344726562 37.05332946777344 152.10643005371094 75.84876251220703 148.8441162109375 132.92694091796875 C 101.93512725830078 123.95673370361328 94.20230865478516 94.83751678466797 88.7944107055664 69.03343200683594 C 125.23367309570312 58.93752670288086 143.99220275878906 62.177669525146484 138.29473876953125 73.6007080078125 C 119.34700775146484 74.22457885742188 120.33565521240234 76.96951293945312 130.61422729492188 42.12799835205078" stroke-width="0.0" fill="rgb(155, 237, 166)" opacity="0.17314976" stroke="rgb(0, 0, 0)" stroke-opacity="1.0" stroke-linecap="round" stroke-linejoin="round"/>
    <path d="M 203.1687469482422 65.85113525390625 C 214.0419464111328 93.44735717773438 208.89878845214844 84.12255096435547 214.33868408203125 80.2188491821289 C 211.1642608642578 87.44092559814453 169.7478485107422 74.50808715820312 172.36669921875 83.16340637207031 C 168.5283203125 89.69721221923828 163.6274871826172 64.2396011352539 171.39846801757812 35.52579879760742 C 203.21109008789062 46.073974609375 210.47232055664062 49.91829299926758 203.1687469482422 65.85113525390625" stroke-width="0.0" fill="rgb(147, 247, 151)" opacity="0.91352564" stroke="rgb(0, 0, 0)" stroke-opacity="1.0" stroke-linecap="round" stroke-linejoin="round"/>
    <path d="M 233.27743530273438 246.72166442871094 C 233.61355590820312 238.90798950195312 212.2791748046875 248.85302734375 201.07115173339844 247.63792419433594 C 196.7260284423828 248.51722717285156 202.86993408203125 232.0275115966797 198.6266326904297 220.69268798828125 C 182.2488555908203 235.4978790283203 175.3825225830078 231.20513916015625 179.45343017578125 242.1217041015625 C 197.7281951904297 229.52362060546875 222.6012420654297 227.65037536621094 233.27743530273438 246.72166442871094" stroke-width="0.0" fill="rgb(24, 37, 77)" opacity="0.00010766939" stroke="rgb(0, 0, 0)" stroke-opacity="1.0" stroke-linecap="round" stroke-linejoin="round"/>
    <path d="M 143.9580078125 228.8587188720703 C 162.2730255126953 173.09475708007812 131.37054443359375 172.524169921875 137.60025024414062 192.95826721191406 C 43.82859420776367 202.73895263671875 64.26476287841797 215.67196655273438 49.34011459350586 143.6124267578125 C 73.1619644165039 110.1686782836914 65.29026794433594 117.66675567626953 136.95106506347656 138.0069580078125 C 148.48345947265625 134.0553436279297 136.5536651611328 176.7976837158203 143.9580078125 228.8587188720703" stroke-width="0.0" fill="rgb(170, 251, 177)" opacity="0.035872966" stroke="rgb(0, 0, 0)" stroke-opacity="1.0" stroke-linecap="round" stroke-linejoin="round"/>
    <path d="M 123.88406372070312 126.83822631835938 C 135.46006774902344 172.18353271484375 63.36118698120117 170.25375366210938 48.31322479248047 119.6645278930664 C 42.93399429321289 135.1177215576172 23.21678352355957 112.91075897216797 37.72237777709961 101.42535400390625 C 59.98368453979492 76.77168273925781 34.9951286315918 64.01496124267578 84.11387634277344 81.96309661865234 C 93.74361419677734 78.55476379394531 107.56208801269531 80.14844512939453 123.88406372070312 126.83822631835938" stroke-width="0.0" fill="rgb(164, 237, 168)" opacity="0.25403073" stroke="rgb(0, 0, 0)" stroke-opacity="1.0" stroke-linecap="round" stroke-linejoin="round"/>
    <path d="M 376.54827880859375 393.43084716796875 C 392.07696533203125 407.3311767578125 380.6533203125 438.39532470703125 360.0914611816406 402.8056640625 C 350.7106018066406 376.9610290527344 314.5425109863281 399.71673583984375 306.608154296875 369.2118225097656 C 302.4856262207031 318.9463195800781 338.15313720703125 332.0944519042969 338.7880859375 355.635498046875 C 338.0001220703125 389.38189697265625 341.0941162109375 392.00592041015625 376.54827880859375 393.43084716796875" stroke-width="0.0" fill="rgb(37, 191, 95)" opacity="0.95473343" stroke="rgb(0, 0, 0)" stroke-opacity="1.0" stroke-linecap="round" stroke-linejoin="round"/>
    <path d="M 73.21247100830078 469.2468566894531 C 81.11536407470703 456.102783203125 71.22664642333984 463.4452209472656 79.85363006591797 443.054931640625 C 96.86058044433594 467.9678649902344 67.61756896972656 451.86517333984375 53.34084701538086 444.68597412109375 C 34.11022186279297 439.5511779785156 58.1489143371582 440.5762023925781 70.5635986328125 443.6639709472656 C 74.14791107177734 443.173583984375 68.28772735595703 458.56793212890625 73.21247100830078 469.2468566894531" stroke-width="0.0" fill="rgb(183, 255, 137)" opacity="0.0" stroke="rgb(0, 0, 0)" stroke-opacity="1.0" stroke-linecap="round" stroke-linejoin="round"/>
    <path d="M 462.3479919433594 482.0948486328125 C 463.4483337402344 509.85113525390625 458.58251953125 525.956298828125 465.275634765625 540.8292236328125 C 448.0441589355469 537.970458984375 447.90948486328125 513.953857421875 445.6972351074219 487.08917236328125 C 450.2615661621094 478.22735595703125 447.6235656738281 482.890380859375 453.5329895019531 485.0482482910156 C 467.4386291503906 484.7990417480469 461.05035400390625 493.0518493652344 462.3479919433594 482.0948486328125" stroke-width="0.0" fill="rgb(86, 154, 116)" opacity="0.062126625" stroke="rgb(0, 0, 0)" stroke-opacity="1.0" stroke-linecap="round" stroke-linejoin="round"/>
    <path d="M 165.2095947265625 69.38261413574219 C 164.24884033203125 21.598379135131836 151.635498046875 16.396005630493164 137.6999969482422 88.94477844238281 C 80.58982849121094 84.82874298095703 100.78244018554688 61.25248336791992 108.5970230102539 19.850278854370117 C 115.53448486328125 15.912216186523438 106.99578857421875 21.41577911376953 145.57154846191406 -11.81307315826416 C 147.81483459472656 4.726873397827148 135.17214965820312 41.31679916381836 165.2095947265625 69.38261413574219" stroke-width="0.0" fill="rgb(164, 239, 181)" opacity="0.16384222" stroke="rgb(0, 0, 0)" stroke-opacity="1.0" stroke-linecap="round" stroke-linejoin="round"/>
    <path d="M 199.88180541992188 333.9378356933594 C 200.61204528808594 354.2872009277344 199.94381713867188 376.8489990234375 196.9176025390625 380.0108337402344 C 172.64508056640625 363.3369140625 154.3808135986328 364.6151123046875 148.88812255859375 348.45965576171875 C 158.5113525390625 324.7010498046875 172.34396362304688 320.33843994140625 190.58717346191406 326.4821472167969 C 201.28689575195312 325.7004699707031 216.62840270996094 333.5683288574219 199.88180541992188 333.9378356933594" stroke-width="0.0" fill="rgb(197, 255, 143)" opacity="0.0067958506" stroke="rgb(0, 0, 0)" stroke-opacity="1.0" stroke-linecap="round" stroke-linejoin="round"/>
    <path d="M 52.81550598144531 335.3231201171875 C 48.15581130981445 331.0751647949219 45.73147964477539 328.07421875 29.422855377197266 329.0943603515625 C 33.12178039550781 351.4713439941406 20.704729080200195 317.62969970703125 30.228647232055664 308.35101318359375 C 24.659561157226562 324.62713623046875 26.972766876220703 301.82843017578125 27.37665367126465 277.5526428222656 C 48.35660934448242 296.0191650390625 52.8991584777832 310.0364074707031 52.81550598144531 335.3231201171875" stroke-width="0.0" fill="rgb(179, 235, 179)" opacity="0.014960292" stroke="rgb(0, 0, 0)" stroke-opacity="1.0" stroke-linecap="round" stroke-linejoin="round"/>
    <path d="M 432.98370361328125 464.24163818359375 C 436.70465087890625 475.72454833984375 418.88909912109375 459.3236999511719 416.5572509765625 454.84832763671875 C 405.8390808105469 445.3945007324219 394.6109619140625 435.171875 396.505126953125 408.528564453125 C 376.18365478515625 405.9286193847656 385.2142333984375 405.81396484375 384.4028015136719 434.2158508300781 C 400.376953125 429.7210693359375 410.1980895996094 436.7455139160156 432.98370361328125 464.24163818359375" stroke-width="0.0" fill="rgb(83, 161, 124)" opacity="0.089559026" stroke="rgb(0, 0, 0)" stroke-opacity="1.0" stroke-linecap="round" stroke-linejoin="round"/>
    <path d="M 144.7395477294922 350.49127197265625 C 137.94859313964844 386.6929016113281 104.85633850097656 384.3811950683594 85.31316375732422 379.8849182128906 C 110.2533187866211 311.5960693359375 93.0805892944336 318.43975830078125 139.1485595703125 344.54095458984375 C 128.818603515625 364.9234924316406 113.33299255371094 342.0437927246094 117.7765121459961 320.9927978515625 C 124.4524917602539 328.9664611816406 142.4979248046875 319.85626220703125 144.7395477294922 350.49127197265625" stroke-width="0.0" fill="rgb(183, 226, 194)" opacity="0.012708081" stroke="rgb(0, 0, 0)" stroke-opacity="1.0" stroke-linecap="round" stroke-linejoin="round"/>
    <path d="M 48.30702209472656 197.06588745117188 C 78.169921875 208.77931213378906 63.48137664794922 201.36456298828125 60.057315826416016 198.9962158203125 C 36.344234466552734 204.76368713378906 30.328022003173828 188.58399963378906 2.108574867248535 188.56077575683594 C 27.223587036132812 201.47787475585938 34.529510498046875 192.31222534179688 35.693790435791016 149.59327697753906 C 46.98069381713867 159.33578491210938 57.618553161621094 175.3489532470703 48.30702209472656 197.06588745117188" stroke-width="0.0" fill="rgb(202, 227, 156)" opacity="0.039109673" stroke="rgb(0, 0, 0)" stroke-opacity="1.0" stroke-linecap="round" stroke-linejoin="round"/>
    <path d="M 188.73306274414062 347.9559631347656 C 124.95980834960938 368.31591796875 115.91505432128906 361.9176940917969 62.26875305175781 364.7789611816406 C 107.30888366699219 357.804443359375 104.21537780761719 339.17352294921875 95.92202758789062 328.25994873046875 C 101.73307037353516 323.3913879394531 115.67172241210938 327.3441467285156 112.11888885498047 319.1241760253906 C 125.43181610107422 309.7991638183594 150.56167602539062 287.3800964355469 188.73306274414062 347.9559631347656" stroke-width="0.0" fill="rgb(175, 238, 151)" opacity="0.0020404134" stroke="rgb(0, 0, 0)" stroke-opacity="1.0" stroke-linecap="round" stroke-linejoin="round"/>
    <path d="M 18.027265548706055 94.44393920898438 C 49.67400360107422 88.3066635131836 42.40377426147461 116.47648620605469 21.303239822387695 134.73370361328125 C 2.983078956604004 119.14496612548828 14.453794479370117 69.82655334472656 38.313392639160156 57.33327865600586 C 4.747514724731445 58.294517517089844 16.27206039428711 34.36758041381836 16.057703018188477 78.68814086914062 C 16.966047286987305 102.8959732055664 11.860316276550293 128.1636505126953 18.027265548706055 94.44393920898438" stroke-width="0.0" fill="rgb(142, 251, 142)" opacity="0.1774326" stroke="rgb(0, 0, 0)" stroke-opacity="1.0" stroke-linecap="round" stroke-linejoin="round"/>
    <path d="M 174.49032592773438 169.4805145263672 C 170.1997833251953 215.22666931152344 142.46884155273438 210.31546020507812 116.11585998535156 201.11996459960938 C 128.12228393554688 206.5836639404297 140.56427001953125 196.29425048828125 116.58096313476562 242.4789581298828 C 100.90166473388672 192.80519104003906 118.73717498779297 146.8220977783203 111.59539794921875 122.15870666503906 C 160.52645874023438 118.01091003417969 180.21951293945312 123.1351547241211 174.49032592773438 169.4805145263672" stroke-width="0.0" fill="rgb(157, 246, 159)" opacity="0.022282396" stroke="rgb(0, 0, 0)" stroke-opacity="1.0" stroke-linecap="round" stroke-linejoin="round"/>
    <path d="M 201.1497344970703 360.5622863769531 C 205.85984802246094 384.7635498046875 195.2777557373047 395.6470947265625 188.67062377929688 404.0503845214844 C 187.69862365722656 410.1883850097656 190.7616729736328 414.7745666503906 195.0494842529297 401.1455383300781 C 197.8730926513672 347.1614074707031 175.89431762695312 353.2251892089844 181.5882568359375 352.908203125 C 205.62982177734375 359.2970886230469 210.2489471435547 366.95098876953125 201.1497344970703 360.5622863769531" stroke-width="0.0" fill="rgb(255, 199, 234)" opacity="0.02630238" stroke="rgb(0, 0, 0)" stroke-opacity="1.0" stroke-linecap="round" stroke-linejoin="round"/>
    <path d="M 86.5394287109375 96.83976745605469 C 75.13059997558594 99.9006118774414 61.290531158447266 96.67345428466797 46.99263000488281 137.20904541015625 C -1.984132170677185 134.5677947998047 34.2738151550293 109.95731353759766 33.16593933105469 55.79179000854492 C 41.286903381347656 46.41670608520508 24.568777084350586 40.27400207519531 38.23063659667969 22.61577796936035 C 64.3975601196289 37.97083282470703 64.54778289794922 70.74749755859375 86.5394287109375 96.83976745605469" stroke-width="0.0" fill="rgb(158, 229, 174)" opacity="0.038676213" stroke="rgb(0, 0, 0)" stroke-opacity="1.0" stroke-linecap="round" stroke-linejoin="round"/>
    <path d="M 91.59078216552734 173.38290405273438 C 97.44706726074219 229.6761474609375 85.62286376953125 203.69943237304688 44.50244140625 202.54672241210938 C 11.535699844360352 206.5555419921875 1.7649887800216675 213.093994140625 -7.352023601531982 185.50222778320312 C -1.9602874517440796 149.03271484375 -1.3382874727249146 133.84202575683594 17.03468894958496 150.1420135498047 C 45.587581634521484 168.7936553955078 57.64733123779297 175.5317840576172 91.59078216552734 173.38290405273438" stroke-width="0.0" fill="rgb(164, 251, 149)" opacity="0.106054924" stroke="rgb(0, 0, 0)" stroke-opacity="1.0" stroke-linecap="round" stroke-linejoin="round"/>
    <path d="M 335.9374084472656 350.5411376953125 C 314.8128967285156 344.9039001464844 313.6659240722656 342.1618347167969 314.32135009765625 355.03350830078125 C 303.1249694824219 357.3374328613281 306.6300048828125 338.3482666015625 304.1045837402344 335.267333984375 C 309.29840087890625 304.4908447265625 298.51312255859375 305.67669677734375 306.8066711425781 312.30084228515625 C 326.6477355957031 313.38153076171875 340.4185791015625 308.2626953125 335.9374084472656 350.5411376953125" stroke-width="0.0" fill="rgb(16, 202, 74)" opacity="0.9933138" stroke="rgb(0, 0, 0)" stroke-opacity="1.0" stroke-linecap="round" stroke-linejoin="round"/>
    <path d="M 401.2113952636719 424.4923095703125 C 403.57427978515625 464.7471923828125 398.5763244628906 474.70263671875 346.9323425292969 472.4096984863281 C 353.2901916503906 452.0792236328125 337.8420104980469 458.9359436035156 320.6064147949219 434.93280029296875 C 309.3800354003906 437.92779541015625 306.58270263671875 439.9276123046875 348.73211669921875 430.0134582519531 C 394.0011291503906 406.0323791503906 393.28778076171875 379.0719909667969 401.2113952636719 424.4923095703125" stroke-width="0.0" fill="rgb(45, 200, 59)" opacity="0.0699181" stroke="rgb(0, 0, 0)" stroke-opacity="1.0" stroke-linecap="round" stroke-linejoin="round"/>
    <path d="M 335.04119873046875 411.519287109375 C 321.9921569824219 438.8642883300781 350.9723815917969 445.6983642578125 344.7743225097656 426.4637451171875 C 290.5948791503906 430.2259216308594 316.4945983886719 452.13153076171875 325.42724609375 417.45819091796875 C 308.2732849121094 393.5631103515625 297.6598205566406 370.57818603515625 333.01141357421875 366.0883483886719 C 330.3152160644531 422.50042724609375 334.0286865234375 421.8460998535156 335.04119873046875 411.519287109375" stroke-width="0.0" fill="rgb(1, 192, 37)" opacity="0.038437016" stroke="rgb(0, 0, 0)" stroke-opacity="1.0" stroke-linecap="round" stroke-linejoin="round"/>
    <path d="M 523.0548706054688 214.62355041503906 C 499.93603515625 221.9724884033203 506.9998779296875 238.39065551757812 499.6625061035156 258.0586242675781 C 473.45550537109375 263.8961486816406 481.63787841796875 268.2552795410156 476.09173583984375 229.31976318359375 C 481.8811340332031 220.09458923339844 489.4034118652344 202.51646423339844 490.880859375 199.4473114013672 C 503.3461608886719 229.29017639160156 509.36383056640625 242.8764190673828 523.0548706054688 214.62355041503906" stroke-width="0.0" fill="rgb(110, 143, 151)" opacity="0.04499964" stroke="rgb(0, 0, 0)" stroke-opacity="1.0" stroke-linecap="round" stroke-linejoin="round"/>
    <path d="M 409.83740234375 179.56654357910156 C 447.1140441894531 188.75216674804688 435.76214599609375 170.5485076904297 377.67535400390625 177.74974060058594 C 375.27716064453125 141.84075927734375 381.6330871582031 128.91554260253906 380.9930114746094 150.96446228027344 C 392.762939453125 165.9380645751953 409.0106201171875 127.94159698486328 430.08135986328125 150.53724670410156 C 411.03729248046875 152.2997283935547 423.5116882324219 143.47398376464844 409.83740234375 179.56654357910156" stroke-width="0.0" fill="rgb(36, 192, 82)" opacity="0.012290111" stroke="rgb(0, 0, 0)" stroke-opacity="1.0" stroke-linecap="round" stroke-linejoin="round"/>
    <path d="M 440.0108947753906 298.32843017578125 C 421.20977783203125 313.59881591796875 425.7318420410156 304.9872131347656 385.02215576171875 307.96533203125 C 424.3023376464844 320.7987060546875 437.95379638671875 309.5879821777344 407.3476257324219 258.71820068359375 C 412.28955078125 266.3479919433594 410.94287109375 274.2409362792969 479.05133056640625 281.2124938964844 C 467.9267578125 273.4304504394531 456.98175048828125 269.4073181152344 440.0108947753906 298.32843017578125" stroke-width="0.0" fill="rgb(36, 190, 84)" opacity="0.049317356" stroke="rgb(0, 0, 0)" stroke-opacity="1.0" stroke-linecap="round" stroke-linejoin="round"/>
    <path d="M 411.9763488769531 60.02100372314453 C 420.166015625 61.464073181152344 409.9701843261719 64.33230590820312 412.8064880371094 61.98440933227539 C 418.8412170410156 79.04120635986328 410.384033203125 68.25496673583984 418.2774658203125 72.91248321533203 C 395.93292236328125 104.3392562866211 415.12030029296875 93.48345947265625 418.24725341796875 73.2634506225586 C 420.8605041503906 65.29271697998047 418.8144226074219 58.932342529296875 411.9763488769531 60.02100372314453" stroke-width="0.0" fill="rgb(164, 230, 79)" opacity="0.028348312" stroke="rgb(0, 0, 0)" stroke-opacity="1.0" stroke-linecap="round" stroke-linejoin="round"/>
    <path d="M 365.68212890625 412.7251892089844 C 366.1288757324219 427.2814025878906 409.3326416015625 434.4040222167969 413.247314453125 475.84698486328125 C 363.72418212890625 477.10546875 362.9299011230469 468.4282531738281 360.3271179199219 453.11029052734375 C 393.1170959472656 472.9156188964844 390.8620300292969 451.2264099121094 422.0631103515625 435.2044677734375 C 408.21533203125 431.1966857910156 412.389892578125 429.8594055175781 365.68212890625 412.7251892089844" stroke-width="0.0" fill="rgb(89, 139, 139)" opacity="0.08674598" stroke="rgb(0, 0, 0)" stroke-opacity="1.0" stroke-linecap="round" stroke-linejoin="round"/>
    <path d="M 50.62614440917969 81.57513427734375 C 59.43577194213867 92.90731048583984 72.64525604248047 119.52984619140625 51.79535675048828 186.1191864013672 C -22.081504821777344 154.36428833007812 10.455853462219238 137.70257568359375 15.72783374786377 61.72102355957031 C 37.09945297241211 77.48922729492188 24.005422592163086 82.81450653076172 -17.040624618530273 73.25224304199219 C 16.69537925720215 52.32018280029297 62.119232177734375 75.35249328613281 50.62614440917969 81.57513427734375" stroke-width="0.0" fill="rgb(159, 238, 164)" opacity="0.26677588" stroke="rgb(0, 0, 0)" stroke-opacity="1.0" stroke-linecap="round" stroke-linejoin="round"/>
    <path d="M 193.1785430908203 415.0450744628906 C 192.71173095703125 468.3077392578125 196.5927734375 459.04766845703125 188.2530059814453 439.1954345703125 C 180.7506561279297 427.27996826171875 174.1825408935547 418.7940673828125 175.79434204101562 390.9781188964844 C 181.7191162109375 410.0067443847656 181.50225830078125 415.42626953125 176.9652862548828 402.3109436035156 C 198.50439453125 403.8041687011719 208.1483612060547 402.1574401855469 193.1785430908203 415.0450744628906" stroke-width="0.0" fill="rgb(188, 240, 116)" opacity="0.00392375" stroke="rgb(0, 0, 0)" stroke-opacity="1.0" stroke-linecap="round" stroke-linejoin="round"/>
    <path d="M 340.1057434082031 169.41734313964844 C 334.5832214355469 167.1476287841797 315.83673095703125 172.31472778320312 325.9638671875 175.1846466064453 C 317.074951171875 177.3155975341797 313.4598693847656 172.00173950195312 314.07659912109375 180.68246459960938 C 321.2967224121094 188.7289276123047 332.9714660644531 178.6737823486328 328.6064758300781 150.14280700683594 C 314.62249755859375 151.5852813720703 326.9726257324219 169.8614501953125 340.1057434082031 169.41734313964844" stroke-width="0.0" fill="rgb(204, 136, 184)" opacity="0.0011457317" stroke="rgb(0, 0, 0)" stroke-opacity="1.0" stroke-linecap="round" stroke-linejoin="round"/>
  </g>
</svg>
