<?xml version="1.0" ?>
<svg xmlns="http://www.w3.org/2000/svg" version="1.1" width="512" height="512">
  <defs/>
  <g>
    <path d="M 542.9528198242188 426.1793212890625 C 542.056640625 515.231201171875 547.8551025390625 525.180419921875 452.08123779296875 528.1154174804688 C 386.8619384765625 532.6854248046875 333.3935852050781 563.2000122070312 247.68553161621094 525.2362060546875 C 358.2112121582031 401.4662780761719 422.73114013671875 425.0564270019531 487.36041259765625 335.1277770996094 C 586.7146606445312 327.0068054199219 586.7461547851562 330.2905578613281 542.9528198242188 426.1793212890625" stroke-width="0.0" fill="rgb(38, 154, 173)" opacity="0.80386305" stroke="rgb(0, 0, 0)" stroke-opacity="1.0" stroke-linecap="round" stroke-linejoin="round"/>
    <path d="M 142.69386291503906 451.4360046386719 C 225.0465087890625 429.6062316894531 253.42022705078125 392.09368896484375 297.80926513671875 533.5899047851562 C -51.20000076293945 520.029052734375 -51.20000076293945 513.2939453125 -63.992088317871094 474.9584655761719 C -47.32612991333008 189.09637451171875 -35.2160758972168 190.38087463378906 47.00628662109375 187.84051513671875 C 178.44622802734375 215.66769409179688 113.74067687988281 243.5677032470703 142.69386291503906 451.4360046386719" stroke-width="0.0" fill="rgb(43, 170, 173)" opacity="0.8641661" stroke="rgb(0, 0, 0)" stroke-opacity="1.0" stroke-linecap="round" stroke-linejoin="round"/>
    <path d="M 187.83184814453125 214.601318359375 C 121.12871551513672 269.2132873535156 161.93392944335938 330.8912353515625 149.98805236816406 285.867919921875 C 94.77494049072266 536.354736328125 90.92213439941406 372.7933654785156 81.91729736328125 181.51828002929688 C 43.15669250488281 200.40101623535156 61.2180290222168 218.66921997070312 225.6658935546875 102.13109588623047 C 242.0635986328125 158.47544860839844 323.51263427734375 181.5355682373047 187.83184814453125 214.601318359375" stroke-width="0.0" fill="rgb(1, 0, 20)" opacity="0.99895984" stroke="rgb(0, 0, 0)" stroke-opacity="1.0" stroke-linecap="round" stroke-linejoin="round"/>
    <path d="M 313.77630615234375 -32.22960662841797 C 325.1443786621094 170.24476623535156 255.99063110351562 135.8414764404297 31.031736373901367 219.97654724121094 C -60.207855224609375 215.8880157470703 -62.955223083496094 209.53668212890625 -56.975669860839844 65.78506469726562 C -13.334906578063965 -13.992923736572266 -5.4589362144470215 -18.950611114501953 19.24289894104004 -14.213537216186523 C 181.98854064941406 -17.96293067932129 218.76731872558594 -41.131221771240234 313.77630615234375 -32.22960662841797" stroke-width="0.0" fill="rgb(58, 180, 195)" opacity="0.9985509" stroke="rgb(0, 0, 0)" stroke-opacity="1.0" stroke-linecap="round" stroke-linejoin="round"/>
    <path d="M 572.4038696289062 133.44424438476562 C 484.376953125 311.85980224609375 461.3390808105469 311.83941650390625 392.01593017578125 208.0126190185547 C 315.6226501464844 197.08892822265625 206.1205596923828 226.4955596923828 226.54751586914062 189.6372833251953 C 220.58035278320312 22.01940155029297 316.2140197753906 134.52833557128906 357.4969482421875 -8.10695743560791 C 553.0260009765625 -36.628273010253906 556.7488403320312 1.7601181268692017 572.4038696289062 133.44424438476562" stroke-width="0.0" fill="rgb(255, 254, 0)" opacity="1.0" stroke="rgb(0, 0, 0)" stroke-opacity="1.0" stroke-linecap="round" stroke-linejoin="round"/>
    <path d="M 428.2677917480469 316.05950927734375 C 432.3184509277344 490.7687072753906 458.919677734375 577.6591796875 278.015625 551.2970581054688 C 317.87042236328125 318.48681640625 338.63336181640625 510.29205322265625 331.07745361328125 322.5501708984375 C 296.9049072265625 253.64466857910156 219.81748962402344 298.623291015625 193.65145874023438 214.92323303222656 C 420.8961486816406 186.41226196289062 424.94281005859375 199.6736602783203 428.2677917480469 316.05950927734375" stroke-width="0.0" fill="rgb(100, 177, 184)" opacity="0.15314496" stroke="rgb(0, 0, 0)" stroke-opacity="1.0" stroke-linecap="round" stroke-linejoin="round"/>
    <path d="M 578.6779174804688 227.73049926757812 C 560.013427734375 323.3405456542969 549.748779296875 316.4742126464844 399.8397216796875 428.5144958496094 C 344.9674072265625 446.7943420410156 437.0567626953125 383.39764404296875 376.4854431152344 216.26010131835938 C 281.28521728515625 -10.704866409301758 251.38291931152344 -54.3146858215332 481.32391357421875 -35.782962799072266 C 573.6615600585938 50.1483039855957 569.4805908203125 90.36595916748047 578.6779174804688 227.73049926757812" stroke-width="0.0" fill="rgb(72, 174, 186)" opacity="1.0" stroke="rgb(0, 0, 0)" stroke-opacity="1.0" stroke-linecap="round" stroke-linejoin="round"/>
    <path d="M 420.87420654296875 354.69451904296875 C 473.9675598144531 471.84954833984375 377.08599853515625 421.6111755371094 387.1039123535156 291.9704284667969 C 365.5899963378906 233.49879455566406 329.8379821777344 210.61839294433594 349.00823974609375 226.1778564453125 C 335.85528564453125 210.8135986328125 306.1965637207031 193.64743041992188 267.2257995605469 212.54037475585938 C 402.0074462890625 151.06747436523438 337.0187072753906 52.89745330810547 420.87420654296875 354.69451904296875" stroke-width="0.0" fill="rgb(0, 0, 28)" opacity="1.0" stroke="rgb(0, 0, 0)" stroke-opacity="1.0" stroke-linecap="round" stroke-linejoin="round"/>
    <path d="M 447.48907470703125 193.86587524414062 C 399.91888427734375 287.7484436035156 409.12493896484375 313.31390380859375 375.60943603515625 238.2996368408203 C 369.6683654785156 224.95506286621094 350.5130615234375 189.5869903564453 337.8163146972656 193.7139892578125 C 367.5378112792969 178.3480682373047 340.1675109863281 145.4340057373047 248.65963745117188 29.122766494750977 C 424.0583190917969 33.03115463256836 416.6726379394531 133.994140625 447.48907470703125 193.86587524414062" stroke-width="0.0" fill="rgb(65, 178, 187)" opacity="0.999161" stroke="rgb(0, 0, 0)" stroke-opacity="1.0" stroke-linecap="round" stroke-linejoin="round"/>
    <path d="M 204.75186157226562 210.8376007080078 C 242.20640563964844 182.79727172851562 218.75396728515625 206.23838806152344 237.8517608642578 230.8643035888672 C 229.29840087890625 211.7565155029297 189.51577758789062 171.83311462402344 164.5340118408203 244.20321655273438 C 171.53372192382812 201.50294494628906 234.2083740234375 204.86984252929688 260.64935302734375 217.67491149902344 C 122.79749298095703 143.62570190429688 172.43576049804688 242.93431091308594 204.75186157226562 210.8376007080078" stroke-width="0.0" fill="rgb(0, 0, 28)" opacity="0.7572482" stroke="rgb(0, 0, 0)" stroke-opacity="1.0" stroke-linecap="round" stroke-linejoin="round"/>
    <path d="M 498.14324951171875 286.9074401855469 C 495.4287109375 365.52490234375 490.75372314453125 417.47918701171875 404.98358154296875 453.7060241699219 C 459.1394348144531 345.19891357421875 378.65338134765625 293.6213684082031 381.0711364746094 232.00967407226562 C 424.9981994628906 278.4892883300781 431.14459228515625 259.6929931640625 395.3695373535156 74.96150207519531 C 482.1937255859375 177.81825256347656 491.1227111816406 230.96823120117188 498.14324951171875 286.9074401855469" stroke-width="0.0" fill="rgb(72, 174, 188)" opacity="0.9960584" stroke="rgb(0, 0, 0)" stroke-opacity="1.0" stroke-linecap="round" stroke-linejoin="round"/>
    <path d="M 271.0947570800781 58.371829986572266 C 221.472900390625 69.82903289794922 254.15090942382812 49.803443908691406 279.2798767089844 73.40311431884766 C 277.2691650390625 94.24932861328125 191.9277801513672 78.0593032836914 165.95301818847656 187.61880493164062 C 273.3384094238281 130.1663055419922 380.1343688964844 140.23162841796875 292.9755554199219 95.20378112792969 C 252.8653106689453 65.56462860107422 207.60418701171875 90.42566680908203 271.0947570800781 58.371829986572266" stroke-width="0.0" fill="rgb(7, 0, 26)" opacity="1.0" stroke="rgb(0, 0, 0)" stroke-opacity="1.0" stroke-linecap="round" stroke-linejoin="round"/>
    <path d="M 146.73573303222656 323.1102600097656 C 133.96498107910156 402.59521484375 122.15667724609375 425.69696044921875 230.05003356933594 480.1043395996094 C 139.846923828125 461.3542175292969 144.18450927734375 375.46661376953125 143.2783203125 390.5980529785156 C 128.92791748046875 349.9237060546875 136.79869079589844 343.2033996582031 144.2367401123047 282.0227966308594 C 162.60768127441406 269.4078674316406 153.56585693359375 227.91937255859375 146.73573303222656 323.1102600097656" stroke-width="0.0" fill="rgb(52, 0, 73)" opacity="0.091084346" stroke="rgb(0, 0, 0)" stroke-opacity="1.0" stroke-linecap="round" stroke-linejoin="round"/>
    <path d="M 533.8719482421875 27.45643424987793 C 547.0794677734375 133.34234619140625 563.2000122070312 198.51629638671875 557.529296875 145.31317138671875 C 495.94580078125 67.43184661865234 471.7582092285156 38.37626647949219 399.48419189453125 -29.609615325927734 C 352.4057312011719 -36.5623664855957 381.7399597167969 -29.16037368774414 447.279296875 -17.786087036132812 C 542.5020751953125 -12.75610637664795 541.1154174804688 -3.227013349533081 533.8719482421875 27.45643424987793" stroke-width="0.0" fill="rgb(75, 173, 186)" opacity="0.06346962" stroke="rgb(0, 0, 0)" stroke-opacity="1.0" stroke-linecap="round" stroke-linejoin="round"/>
    <path d="M 446.7542419433594 428.71075439453125 C 433.1682434082031 409.2575988769531 458.3608093261719 431.31744384765625 419.66204833984375 534.69189453125 C 382.1426696777344 475.2210693359375 365.56842041015625 475.07061767578125 391.06524658203125 397.28173828125 C 434.5771484375 393.4351806640625 449.6307678222656 402.4474792480469 440.2412109375 423.6920471191406 C 428.6158447265625 416.3894348144531 425.06689453125 444.4038391113281 446.7542419433594 428.71075439453125" stroke-width="0.0" fill="rgb(38, 169, 173)" opacity="0.0" stroke="rgb(0, 0, 0)" stroke-opacity="1.0" stroke-linecap="round" stroke-linejoin="round"/>
    <path d="M 349.14263916015625 461.8937683105469 C 180.07382202148438 447.06915283203125 302.14825439453125 461.3898010253906 341.7461242675781 451.79937744140625 C 154.85430908203125 513.383056640625 212.7893829345703 463.5242614746094 133.12722778320312 467.7551574707031 C 224.27113342285156 387.2005920410156 264.2532653808594 420.43402099609375 302.1575622558594 416.3721618652344 C 312.64111328125 437.884033203125 297.8673400878906 408.2063903808594 349.14263916015625 461.8937683105469" stroke-width="0.0" fill="rgb(255, 255, 243)" opacity="1.0" stroke="rgb(0, 0, 0)" stroke-opacity="1.0" stroke-linecap="round" stroke-linejoin="round"/>
    <path d="M 404.7557373046875 462.4334411621094 C 395.9481201171875 459.0280456542969 406.0050354003906 483.7230224609375 374.9923095703125 479.2173156738281 C 396.5377502441406 467.389404296875 370.794189453125 504.2351379394531 279.0665283203125 490.2840881347656 C 408.84033203125 456.5452575683594 337.0807800292969 422.0184326171875 402.29473876953125 419.1925354003906 C 473.46624755859375 413.53167724609375 429.10235595703125 436.05322265625 404.7557373046875 462.4334411621094" stroke-width="0.0" fill="rgb(81, 171, 184)" opacity="0.8953976" stroke="rgb(0, 0, 0)" stroke-opacity="1.0" stroke-linecap="round" stroke-linejoin="round"/>
    <path d="M 303.2453308105469 9.667106628417969 C 215.36708068847656 52.351993560791016 205.24972534179688 47.41560745239258 167.98439025878906 29.178340911865234 C 199.86427307128906 61.33475112915039 200.5868377685547 69.75662994384766 65.7880630493164 69.69947052001953 C 75.14519500732422 -46.77072525024414 109.22490692138672 -39.88532638549805 197.67532348632812 -24.72565269470215 C 287.1802978515625 -49.888214111328125 316.2510070800781 -54.231040954589844 303.2453308105469 9.667106628417969" stroke-width="0.0" fill="rgb(59, 223, 125)" opacity="0.0" stroke="rgb(0, 0, 0)" stroke-opacity="1.0" stroke-linecap="round" stroke-linejoin="round"/>
    <path d="M 330.1097717285156 111.63439178466797 C 303.1780700683594 119.66388702392578 280.0636291503906 75.16471862792969 276.4683532714844 145.41465759277344 C 358.2015686035156 140.51283264160156 227.9616241455078 185.90476989746094 353.8683166503906 206.20462036132812 C 352.03399658203125 147.56289672851562 344.9521179199219 116.38509368896484 301.0705261230469 100.95015716552734 C 343.67108154296875 116.65399932861328 316.2918395996094 116.13563537597656 330.1097717285156 111.63439178466797" stroke-width="0.0" fill="rgb(0, 0, 25)" opacity="1.0" stroke="rgb(0, 0, 0)" stroke-opacity="1.0" stroke-linecap="round" stroke-linejoin="round"/>
    <path d="M 440.72515869140625 194.76002502441406 C 433.03948974609375 227.0283203125 431.2311706542969 253.61317443847656 428.1406555175781 327.694091796875 C 401.069580078125 333.4048767089844 405.1404113769531 296.41925048828125 375.0057678222656 209.97459411621094 C 360.1632080078125 102.52429962158203 416.5840759277344 142.38760375976562 438.3837890625 205.18222045898438 C 443.67852783203125 228.79705810546875 443.9255676269531 204.12425231933594 440.72515869140625 194.76002502441406" stroke-width="0.0" fill="rgb(53, 186, 182)" opacity="0.20842013" stroke="rgb(0, 0, 0)" stroke-opacity="1.0" stroke-linecap="round" stroke-linejoin="round"/>
    <path d="M 148.14918518066406 228.20321655273438 C 108.91705322265625 304.0103759765625 80.52963256835938 400.0250549316406 94.75807189941406 405.4864807128906 C 81.0104751586914 395.0375671386719 100.52934265136719 300.4600524902344 65.29354858398438 188.8349151611328 C 34.694068908691406 221.98683166503906 79.8797378540039 158.65841674804688 169.0381317138672 144.97032165527344 C 166.2897491455078 179.96524047851562 175.10263061523438 171.0792999267578 148.14918518066406 228.20321655273438" stroke-width="0.0" fill="rgb(58, 186, 188)" opacity="1.0" stroke="rgb(0, 0, 0)" stroke-opacity="1.0" stroke-linecap="round" stroke-linejoin="round"/>
    <path d="M 162.85943603515625 44.52696990966797 C 134.46661376953125 144.63247680664062 160.35775756835938 237.92074584960938 1.0738587379455566 271.5428161621094 C -69.2482681274414 62.63771438598633 16.113935470581055 45.79618453979492 17.462297439575195 62.71329116821289 C 9.077680587768555 87.42768859863281 38.5843505859375 53.838287353515625 30.68198013305664 32.341270446777344 C 57.11642837524414 44.842559814453125 90.96551513671875 21.17719078063965 162.85943603515625 44.52696990966797" stroke-width="0.0" fill="rgb(82, 163, 196)" opacity="0.078792036" stroke="rgb(0, 0, 0)" stroke-opacity="1.0" stroke-linecap="round" stroke-linejoin="round"/>
    <path d="M 310.8223571777344 152.27635192871094 C 303.4634704589844 182.57595825195312 273.0303649902344 194.76182556152344 310.8088684082031 187.7681884765625 C 252.37652587890625 188.95529174804688 282.1065368652344 153.6525115966797 219.66622924804688 198.13096618652344 C 213.3489227294922 87.37248992919922 235.10572814941406 72.9302978515625 306.5419921875 123.47549438476562 C 285.3665466308594 163.387939453125 325.8118896484375 186.96925354003906 310.8223571777344 152.27635192871094" stroke-width="0.0" fill="rgb(0, 0, 38)" opacity="1.0" stroke="rgb(0, 0, 0)" stroke-opacity="1.0" stroke-linecap="round" stroke-linejoin="round"/>
    <path d="M 238.0377960205078 154.3583526611328 C 246.49571228027344 156.70297241210938 239.90774536132812 204.55104064941406 212.26754760742188 196.99960327148438 C 184.7386932373047 180.39060974121094 186.13059997558594 172.79371643066406 203.68365478515625 152.2615509033203 C 210.7508544921875 144.53172302246094 212.05291748046875 145.93138122558594 214.3396453857422 143.07994079589844 C 213.48687744140625 144.3809356689453 232.4812469482422 138.03378295898438 238.0377960205078 154.3583526611328" stroke-width="0.0" fill="rgb(245, 233, 250)" opacity="0.9354891" stroke="rgb(0, 0, 0)" stroke-opacity="1.0" stroke-linecap="round" stroke-linejoin="round"/>
    <path d="M 319.1347961425781 448.7254638671875 C 339.6166076660156 431.63330078125 303.5999755859375 434.7832946777344 363.86126708984375 465.2195739746094 C 330.927490234375 485.07830810546875 280.8638610839844 495.72344970703125 252.5086212158203 483.4676818847656 C 319.7798767089844 458.83380126953125 318.1066589355469 440.5301818847656 324.7275390625 437.0560607910156 C 320.9620361328125 448.6362609863281 318.4073791503906 449.08837890625 319.1347961425781 448.7254638671875" stroke-width="0.0" fill="rgb(255, 238, 0)" opacity="1.0" stroke="rgb(0, 0, 0)" stroke-opacity="1.0" stroke-linecap="round" stroke-linejoin="round"/>
    <path d="M 316.60980224609375 489.9739990234375 C 339.8123474121094 515.8807983398438 315.1609802246094 526.6618041992188 266.6454772949219 517.1694946289062 C 228.15597534179688 488.0419616699219 148.87828063964844 523.7864990234375 127.49237060546875 434.8485412597656 C 198.3065948486328 511.8711853027344 253.56373596191406 490.14739990234375 252.49468994140625 474.9583435058594 C 311.15087890625 453.9656066894531 254.06732177734375 482.1144104003906 316.60980224609375 489.9739990234375" stroke-width="0.0" fill="rgb(77, 167, 196)" opacity="0.9525452" stroke="rgb(0, 0, 0)" stroke-opacity="1.0" stroke-linecap="round" stroke-linejoin="round"/>
    <path d="M 287.48358154296875 139.33123779296875 C 326.1687927246094 139.88209533691406 306.1679382324219 185.382568359375 289.6716613769531 169.9038848876953 C 280.9451904296875 117.30715942382812 273.17559814453125 134.1984100341797 281.3843078613281 147.8362274169922 C 289.43975830078125 126.30489349365234 287.5946350097656 137.23582458496094 290.9689025878906 154.2944793701172 C 292.7904052734375 139.2705535888672 266.82049560546875 116.48944091796875 287.48358154296875 139.33123779296875" stroke-width="0.0" fill="rgb(8, 2, 31)" opacity="0.5798492" stroke="rgb(0, 0, 0)" stroke-opacity="1.0" stroke-linecap="round" stroke-linejoin="round"/>
    <path d="M 404.3385925292969 73.62677764892578 C 390.6322937011719 92.33918762207031 424.11810302734375 108.2298812866211 460.0520935058594 177.627685546875 C 366.79290771484375 129.10899353027344 358.17266845703125 104.04141235351562 290.7459716796875 -7.544057846069336 C 371.0919494628906 -2.9601240158081055 385.56549072265625 62.82510757446289 364.0626220703125 43.459228515625 C 380.11334228515625 47.482566833496094 393.7410888671875 68.42591857910156 404.3385925292969 73.62677764892578" stroke-width="0.0" fill="rgb(79, 178, 170)" opacity="0.07848341" stroke="rgb(0, 0, 0)" stroke-opacity="1.0" stroke-linecap="round" stroke-linejoin="round"/>
    <path d="M 450.96881103515625 432.0996398925781 C 464.1486511230469 444.0633850097656 423.5632019042969 453.7625427246094 399.85211181640625 411.7301025390625 C 402.51190185546875 410.31500244140625 416.6277160644531 422.34857177734375 394.6551513671875 454.577392578125 C 384.306640625 408.8907165527344 392.79534912109375 368.0325622558594 390.6578674316406 380.18463134765625 C 374.3919677734375 414.7084655761719 378.2789001464844 421.5780334472656 450.96881103515625 432.0996398925781" stroke-width="0.0" fill="rgb(54, 176, 162)" opacity="0.0091057625" stroke="rgb(0, 0, 0)" stroke-opacity="1.0" stroke-linecap="round" stroke-linejoin="round"/>
    <path d="M 347.9728698730469 107.08858489990234 C 351.6805114746094 127.96041107177734 355.1580505371094 137.81619262695312 345.8094787597656 152.3424072265625 C 316.4834899902344 119.29441833496094 308.6607971191406 106.69731903076172 303.5980529785156 87.65311431884766 C 311.1226806640625 94.46196746826172 314.0439453125 102.49315643310547 311.6598815917969 98.74622344970703 C 340.8044738769531 108.47879028320312 352.850830078125 107.24908447265625 347.9728698730469 107.08858489990234" stroke-width="0.0" fill="rgb(60, 174, 173)" opacity="0.9733842" stroke="rgb(0, 0, 0)" stroke-opacity="1.0" stroke-linecap="round" stroke-linejoin="round"/>
    <path d="M 451.02972412109375 515.6779174804688 C 467.5424499511719 540.441650390625 451.8328552246094 560.9403686523438 433.041259765625 497.8207092285156 C 417.2392883300781 475.7823791503906 408.83282470703125 484.2574462890625 420.4614562988281 518.018310546875 C 422.75250244140625 465.3810119628906 424.2970275878906 442.22747802734375 429.5236511230469 454.12054443359375 C 451.4974365234375 445.9610290527344 445.3032531738281 447.7130126953125 451.02972412109375 515.6779174804688" stroke-width="0.0" fill="rgb(87, 166, 220)" opacity="0.03021511" stroke="rgb(0, 0, 0)" stroke-opacity="1.0" stroke-linecap="round" stroke-linejoin="round"/>
    <path d="M 174.7362823486328 453.84222412109375 C 165.1754150390625 454.517578125 170.44720458984375 483.48272705078125 132.1158447265625 488.8312072753906 C 122.24807739257812 469.05889892578125 111.76573181152344 416.66033935546875 130.37657165527344 407.50482177734375 C 134.02366638183594 388.8924865722656 115.73135375976562 401.8858947753906 135.0116424560547 354.177734375 C 138.21458435058594 393.74566650390625 144.8575897216797 452.2478332519531 174.7362823486328 453.84222412109375" stroke-width="0.0" fill="rgb(64, 169, 184)" opacity="1.0" stroke="rgb(0, 0, 0)" stroke-opacity="1.0" stroke-linecap="round" stroke-linejoin="round"/>
    <path d="M 201.1949462890625 421.26934814453125 C 186.40341186523438 447.00982666015625 183.6117706298828 460.6080017089844 180.1563262939453 429.4248352050781 C 178.992919921875 431.0494689941406 176.1277313232422 420.36474609375 152.01112365722656 446.4669189453125 C 145.944091796875 419.9833068847656 119.36096954345703 380.95263671875 165.29000854492188 337.59307861328125 C 193.16722106933594 411.2638244628906 196.7869415283203 430.4219970703125 201.1949462890625 421.26934814453125" stroke-width="0.0" fill="rgb(206, 168, 242)" opacity="0.0048998822" stroke="rgb(0, 0, 0)" stroke-opacity="1.0" stroke-linecap="round" stroke-linejoin="round"/>
    <path d="M 175.6201934814453 241.51513671875 C 200.6302490234375 247.2343292236328 177.3984832763672 238.0594940185547 157.54722595214844 259.50341796875 C 170.52392578125 255.5047149658203 147.00057983398438 258.7286682128906 143.3990478515625 248.5377197265625 C 153.14419555664062 221.92535400390625 169.68316650390625 217.4152069091797 170.32015991210938 212.00985717773438 C 206.07557678222656 204.60076904296875 205.1347198486328 193.17601013183594 175.6201934814453 241.51513671875" stroke-width="0.0" fill="rgb(19, 25, 17)" opacity="0.0" stroke="rgb(0, 0, 0)" stroke-opacity="1.0" stroke-linecap="round" stroke-linejoin="round"/>
    <path d="M 460.0908508300781 471.246337890625 C 465.7855529785156 460.7525329589844 453.315185546875 470.0859069824219 439.823974609375 454.1260070800781 C 423.5423278808594 470.1121520996094 418.25897216796875 462.6375732421875 411.4117431640625 431.2773742675781 C 422.8162536621094 435.6114196777344 431.63836669921875 444.69207763671875 453.42401123046875 442.8465881347656 C 449.6980285644531 448.2000732421875 453.9192810058594 454.47412109375 460.0908508300781 471.246337890625" stroke-width="0.0" fill="rgb(55, 204, 89)" opacity="0.0" stroke="rgb(0, 0, 0)" stroke-opacity="1.0" stroke-linecap="round" stroke-linejoin="round"/>
    <path d="M 316.88446044921875 30.783464431762695 C 303.6979064941406 23.045984268188477 314.0550842285156 30.12084197998047 263.3833312988281 24.008333206176758 C 256.618408203125 33.027950286865234 256.6135559082031 27.08970069885254 257.7740478515625 -8.91281509399414 C 258.905517578125 -5.2740864753723145 267.4532165527344 -8.972208976745605 306.1524353027344 -78.68311309814453 C 315.8989562988281 -56.48546600341797 316.13018798828125 1.1710762977600098 316.88446044921875 30.783464431762695" stroke-width="0.0" fill="rgb(15, 198, 163)" opacity="0.0868124" stroke="rgb(0, 0, 0)" stroke-opacity="1.0" stroke-linecap="round" stroke-linejoin="round"/>
    <path d="M 113.71668243408203 105.50804901123047 C 100.75431060791016 136.2770538330078 90.16605377197266 143.01344299316406 97.41831970214844 116.55012512207031 C 87.90508270263672 125.99390411376953 104.79210662841797 125.9798812866211 95.0765151977539 88.79289245605469 C 82.67657470703125 108.66775512695312 70.2952880859375 117.10797119140625 78.84513854980469 55.65380096435547 C 111.22230529785156 41.50182342529297 110.36043548583984 66.52859497070312 113.71668243408203 105.50804901123047" stroke-width="0.0" fill="rgb(35, 188, 118)" opacity="0.0" stroke="rgb(0, 0, 0)" stroke-opacity="1.0" stroke-linecap="round" stroke-linejoin="round"/>
    <path d="M 381.7810363769531 393.0166931152344 C 382.8428955078125 415.00830078125 382.5445556640625 426.55126953125 346.7786560058594 456.5856018066406 C 277.8915710449219 455.07989501953125 275.5899963378906 418.9182434082031 308.9341125488281 385.266357421875 C 326.26177978515625 373.9375305175781 331.8481750488281 366.990234375 351.90350341796875 291.2703552246094 C 379.6494140625 327.4192810058594 384.17132568359375 348.2606506347656 381.7810363769531 393.0166931152344" stroke-width="0.0" fill="rgb(206, 235, 240)" opacity="0.10515431" stroke="rgb(0, 0, 0)" stroke-opacity="1.0" stroke-linecap="round" stroke-linejoin="round"/>
    <path d="M 119.83858489990234 448.6656494140625 C 142.2499542236328 490.32177734375 117.03719329833984 494.7074279785156 117.98609161376953 470.5517578125 C 70.61778259277344 467.493896484375 71.1448974609375 473.7521667480469 67.41674041748047 453.0794372558594 C 53.205322265625 467.0991516113281 96.87884521484375 472.1624450683594 111.83195495605469 469.46588134765625 C 99.6970443725586 430.0554504394531 110.22615051269531 426.7646484375 119.83858489990234 448.6656494140625" stroke-width="0.0" fill="rgb(7, 203, 152)" opacity="0.0" stroke="rgb(0, 0, 0)" stroke-opacity="1.0" stroke-linecap="round" stroke-linejoin="round"/>
    <path d="M 323.6032409667969 161.9027557373047 C 325.2879638671875 174.96023559570312 335.3980712890625 178.4056396484375 313.5809326171875 198.5807647705078 C 294.94293212890625 201.419921875 282.4689636230469 177.6888885498047 286.3246154785156 176.6118621826172 C 275.9722595214844 173.8354034423828 281.46575927734375 141.82476806640625 302.6710205078125 143.77052307128906 C 316.54888916015625 148.47671508789062 321.0933837890625 154.4731903076172 323.6032409667969 161.9027557373047" stroke-width="0.0" fill="rgb(249, 246, 253)" opacity="0.98422647" stroke="rgb(0, 0, 0)" stroke-opacity="1.0" stroke-linecap="round" stroke-linejoin="round"/>
    <path d="M 450.0164489746094 411.66693115234375 C 442.787841796875 464.1318359375 412.3414306640625 463.571044921875 383.10546875 462.50323486328125 C 402.05126953125 462.26824951171875 393.1895751953125 417.90386962890625 402.0608825683594 437.62396240234375 C 404.4901123046875 393.0239562988281 413.6283874511719 411.0375061035156 370.8764953613281 449.98406982421875 C 346.731201171875 433.0726013183594 403.57354736328125 426.3879699707031 450.0164489746094 411.66693115234375" stroke-width="0.0" fill="rgb(66, 182, 173)" opacity="0.17036052" stroke="rgb(0, 0, 0)" stroke-opacity="1.0" stroke-linecap="round" stroke-linejoin="round"/>
    <path d="M 348.486328125 31.676307678222656 C 331.8211975097656 152.79249572753906 372.4417724609375 121.1375961303711 183.42259216308594 125.71854400634766 C 187.35858154296875 55.127071380615234 147.98204040527344 39.44511413574219 184.55482482910156 37.126007080078125 C 206.7873992919922 106.71980285644531 254.00392150878906 84.266357421875 246.7585906982422 24.817005157470703 C 290.549560546875 2.247102737426758 256.3857116699219 149.58767700195312 348.486328125 31.676307678222656" stroke-width="0.0" fill="rgb(255, 209, 0)" opacity="1.0" stroke="rgb(0, 0, 0)" stroke-opacity="1.0" stroke-linecap="round" stroke-linejoin="round"/>
    <path d="M 125.12149810791016 316.32879638671875 C 127.91889190673828 349.052001953125 132.91812133789062 378.1615905761719 105.59834289550781 421.5155029296875 C 78.98190307617188 385.4223327636719 90.8272476196289 361.4136047363281 73.265625 356.5692443847656 C 60.3402099609375 299.7991943359375 54.150848388671875 288.9817810058594 120.72477722167969 276.3719787597656 C 126.09857940673828 304.19921875 115.74369812011719 339.4073486328125 125.12149810791016 316.32879638671875" stroke-width="0.0" fill="rgb(69, 187, 187)" opacity="0.0" stroke="rgb(0, 0, 0)" stroke-opacity="1.0" stroke-linecap="round" stroke-linejoin="round"/>
    <path d="M 495.1357727050781 193.8245849609375 C 482.4377136230469 248.8523406982422 479.50555419921875 267.93212890625 470.2437744140625 246.2342071533203 C 486.10064697265625 198.68765258789062 477.47381591796875 219.88430786132812 467.8673095703125 230.35977172851562 C 525.9481811523438 236.32928466796875 515.8593139648438 200.66311645507812 490.051513671875 206.96923828125 C 445.2956848144531 219.44757080078125 471.1885986328125 233.15884399414062 495.1357727050781 193.8245849609375" stroke-width="0.0" fill="rgb(48, 191, 173)" opacity="0.0127897225" stroke="rgb(0, 0, 0)" stroke-opacity="1.0" stroke-linecap="round" stroke-linejoin="round"/>
    <path d="M 465.0084533691406 273.7051086425781 C 465.70745849609375 228.25701904296875 464.1961975097656 239.65525817871094 494.5509338378906 242.61231994628906 C 428.3037109375 249.68141174316406 441.7536315917969 244.07847595214844 452.57952880859375 278.7790832519531 C 461.79864501953125 303.53204345703125 453.9550476074219 266.56298828125 458.13616943359375 273.45758056640625 C 446.8824462890625 210.31222534179688 439.9752197265625 261.9375 465.0084533691406 273.7051086425781" stroke-width="0.0" fill="rgb(74, 145, 204)" opacity="0.009081105" stroke="rgb(0, 0, 0)" stroke-opacity="1.0" stroke-linecap="round" stroke-linejoin="round"/>
    <path d="M 478.34210205078125 34.059261322021484 C 456.6485595703125 -7.238095283508301 442.05755615234375 13.5936279296875 473.9801940917969 52.78908157348633 C 482.5785217285156 110.3288803100586 475.7762756347656 103.21553039550781 477.36871337890625 36.907981872558594 C 527.7377319335938 52.37791442871094 525.1447143554688 83.5875015258789 494.9286804199219 110.37324523925781 C 483.72607421875 96.98690032958984 506.0450134277344 113.86677551269531 478.34210205078125 34.059261322021484" stroke-width="0.0" fill="rgb(36, 200, 173)" opacity="0.0036872597" stroke="rgb(0, 0, 0)" stroke-opacity="1.0" stroke-linecap="round" stroke-linejoin="round"/>
    <path d="M 40.45311737060547 195.78553771972656 C 30.54081916809082 206.853271484375 29.25518035888672 228.14727783203125 6.5330705642700195 219.3069305419922 C 16.36871337890625 200.31822204589844 37.93751525878906 194.9788818359375 -1.5722110271453857 204.76040649414062 C -5.220512390136719 179.7974090576172 -4.783664226531982 173.09817504882812 26.244674682617188 178.03863525390625 C 18.053260803222656 207.2218475341797 20.700586318969727 213.7818603515625 40.45311737060547 195.78553771972656" stroke-width="0.0" fill="rgb(38, 229, 161)" opacity="0.027202783" stroke="rgb(0, 0, 0)" stroke-opacity="1.0" stroke-linecap="round" stroke-linejoin="round"/>
    <path d="M 156.13592529296875 344.5845642089844 C 131.57057189941406 322.1423034667969 116.98648071289062 302.6787109375 86.82826232910156 311.1492004394531 C 83.1546630859375 376.1527099609375 62.902400970458984 355.3570556640625 70.70793914794922 353.31787109375 C 92.7454605102539 329.2081298828125 100.53996276855469 321.35357666015625 96.44273376464844 330.4435729980469 C 101.14331817626953 328.894287109375 125.78337860107422 335.1240234375 156.13592529296875 344.5845642089844" stroke-width="0.0" fill="rgb(0, 84, 86)" opacity="0.00041631472" stroke="rgb(0, 0, 0)" stroke-opacity="1.0" stroke-linecap="round" stroke-linejoin="round"/>
    <path d="M 21.33692741394043 110.40705871582031 C 36.73664855957031 129.2378692626953 42.03042984008789 122.86054229736328 -16.79899787902832 117.61434173583984 C 7.28893518447876 89.22219848632812 1.5260084867477417 98.47832489013672 -16.731002807617188 97.94783020019531 C -13.437499046325684 57.69985580444336 -19.861921310424805 49.884666442871094 -14.177756309509277 50.23973846435547 C 35.73518753051758 60.49063491821289 22.04277992248535 69.8488540649414 21.33692741394043 110.40705871582031" stroke-width="0.0" fill="rgb(100, 157, 178)" opacity="0.0024868893" stroke="rgb(0, 0, 0)" stroke-opacity="1.0" stroke-linecap="round" stroke-linejoin="round"/>
    <path d="M 152.55784606933594 169.35183715820312 C 154.65771484375 202.29969787597656 146.7232666015625 186.0487823486328 124.47655487060547 172.3289794921875 C 130.67108154296875 207.22767639160156 90.89337158203125 174.83053588867188 155.2923583984375 163.51756286621094 C 152.57870483398438 162.84556579589844 148.55487060546875 157.5737762451172 182.70993041992188 180.1724090576172 C 160.9389190673828 142.46975708007812 109.1019515991211 148.9219207763672 152.55784606933594 169.35183715820312" stroke-width="0.0" fill="rgb(9, 217, 151)" opacity="0.0" stroke="rgb(0, 0, 0)" stroke-opacity="1.0" stroke-linecap="round" stroke-linejoin="round"/>
    <path d="M 46.452396392822266 176.64291381835938 C 43.0208854675293 221.37461853027344 34.49817657470703 240.33106994628906 25.388826370239258 205.54576110839844 C 14.1978178024292 209.44142150878906 8.84047794342041 209.28146362304688 -8.320676803588867 210.25111389160156 C -0.3332001566886902 194.5186309814453 27.579551696777344 205.15528869628906 25.04279136657715 206.13290405273438 C 35.7207145690918 164.8400115966797 16.486257553100586 180.1890869140625 46.452396392822266 176.64291381835938" stroke-width="0.0" fill="rgb(76, 175, 201)" opacity="0.010997976" stroke="rgb(0, 0, 0)" stroke-opacity="1.0" stroke-linecap="round" stroke-linejoin="round"/>
    <path d="M 68.35807037353516 47.49195861816406 C 73.04084014892578 61.209739685058594 78.98143768310547 61.24458694458008 80.28305053710938 67.46218872070312 C 50.65336227416992 64.7710952758789 72.27351379394531 54.00447463989258 72.68474578857422 47.592552185058594 C 42.110816955566406 46.43112564086914 54.40742874145508 38.03731918334961 60.186248779296875 51.32516098022461 C 64.46246337890625 50.21481704711914 70.2528305053711 51.159584045410156 68.35807037353516 47.49195861816406" stroke-width="0.0" fill="rgb(57, 205, 117)" opacity="0.0021836131" stroke="rgb(0, 0, 0)" stroke-opacity="1.0" stroke-linecap="round" stroke-linejoin="round"/>
    <path d="M 58.51884078979492 214.78367614746094 C 79.14286804199219 210.5143280029297 45.46226501464844 202.14938354492188 17.50181770324707 186.97581481933594 C 21.068897247314453 213.61277770996094 38.70055389404297 206.755615234375 32.28984451293945 186.5023651123047 C 21.544992446899414 190.1288299560547 39.2516975402832 194.21255493164062 63.41743850708008 196.5700225830078 C 61.571353912353516 173.46746826171875 44.747196197509766 183.18035888671875 58.51884078979492 214.78367614746094" stroke-width="0.0" fill="rgb(18, 200, 138)" opacity="0.027676156" stroke="rgb(0, 0, 0)" stroke-opacity="1.0" stroke-linecap="round" stroke-linejoin="round"/>
    <path d="M 346.6949462890625 335.8638916015625 C 338.64251708984375 360.3641052246094 326.2574768066406 370.6111145019531 306.6009521484375 373.501220703125 C 298.4497375488281 364.00152587890625 283.6199951171875 347.4884948730469 284.2757873535156 324.690673828125 C 299.48858642578125 320.21490478515625 291.5513000488281 289.1739807128906 306.5775451660156 279.7707824707031 C 344.61944580078125 292.2057189941406 349.90771484375 303.1415100097656 346.6949462890625 335.8638916015625" stroke-width="0.0" fill="rgb(252, 252, 245)" opacity="0.006030697" stroke="rgb(0, 0, 0)" stroke-opacity="1.0" stroke-linecap="round" stroke-linejoin="round"/>
    <path d="M 363.2056579589844 470.99407958984375 C 373.9967041015625 438.76690673828125 352.9608459472656 448.1156311035156 348.962646484375 422.90167236328125 C 348.8575744628906 446.8660888671875 352.416748046875 439.2891540527344 340.98223876953125 428.90374755859375 C 398.26531982421875 452.9818420410156 397.62432861328125 421.4787902832031 393.77099609375 372.956787109375 C 395.9917297363281 379.6173400878906 394.5572204589844 408.3228454589844 363.2056579589844 470.99407958984375" stroke-width="0.0" fill="rgb(21, 215, 171)" opacity="0.0" stroke="rgb(0, 0, 0)" stroke-opacity="1.0" stroke-linecap="round" stroke-linejoin="round"/>
    <path d="M 334.9720764160156 447.9730224609375 C 327.36956787109375 452.5859680175781 304.1641540527344 444.27191162109375 319.3117980957031 408.2032470703125 C 323.1322326660156 481.2568054199219 302.63336181640625 464.068603515625 285.4016418457031 430.222412109375 C 297.507568359375 402.7155456542969 320.4313049316406 402.5920715332031 370.685546875 403.5308532714844 C 348.2047424316406 367.6573791503906 333.85894775390625 396.91619873046875 334.9720764160156 447.9730224609375" stroke-width="0.0" fill="rgb(255, 235, 255)" opacity="0.11688359" stroke="rgb(0, 0, 0)" stroke-opacity="1.0" stroke-linecap="round" stroke-linejoin="round"/>
    <path d="M 509.27032470703125 255.722900390625 C 510.7939453125 270.8226318359375 499.1699523925781 296.4410705566406 503.5299377441406 259.1904602050781 C 461.1681213378906 238.8428497314453 470.5181884765625 239.66761779785156 474.20709228515625 256.37841796875 C 470.5428771972656 211.65383911132812 471.0587158203125 187.6295623779297 478.7894592285156 228.0276336669922 C 512.0902709960938 210.53367614746094 515.277587890625 204.97361755371094 509.27032470703125 255.722900390625" stroke-width="0.0" fill="rgb(74, 170, 174)" opacity="0.027593896" stroke="rgb(0, 0, 0)" stroke-opacity="1.0" stroke-linecap="round" stroke-linejoin="round"/>
    <path d="M 446.63275146484375 172.48095703125 C 432.9264221191406 137.2279510498047 443.6062316894531 152.4084014892578 442.7119140625 214.88827514648438 C 400.845947265625 193.99566650390625 402.70416259765625 190.39466857910156 373.7035827636719 198.0734405517578 C 377.8926086425781 76.56385040283203 367.3398132324219 55.82384490966797 410.5044860839844 62.52370834350586 C 441.13653564453125 115.33173370361328 443.39739990234375 123.92488098144531 446.63275146484375 172.48095703125" stroke-width="0.0" fill="rgb(70, 174, 191)" opacity="0.16139357" stroke="rgb(0, 0, 0)" stroke-opacity="1.0" stroke-linecap="round" stroke-linejoin="round"/>
    <path d="M 427.0367126464844 296.80303955078125 C 431.679443359375 346.005126953125 450.6958923339844 353.4440612792969 444.88153076171875 337.50250244140625 C 420.9414367675781 313.756591796875 424.25836181640625 299.7562255859375 435.5730895996094 311.0228271484375 C 443.6976318359375 303.93524169921875 422.4759826660156 324.3958740234375 446.7764587402344 314.2345275878906 C 432.5047912597656 300.96923828125 415.97442626953125 323.4039306640625 427.0367126464844 296.80303955078125" stroke-width="0.0" fill="rgb(40, 181, 134)" opacity="0.0" stroke="rgb(0, 0, 0)" stroke-opacity="1.0" stroke-linecap="round" stroke-linejoin="round"/>
    <path d="M 393.31817626953125 101.46824645996094 C 387.4580078125 87.45081329345703 389.71173095703125 60.3985481262207 385.2682800292969 77.56200408935547 C 389.3827819824219 92.93002319335938 385.6611328125 104.09905242919922 365.4099426269531 77.19617462158203 C 374.62945556640625 32.25663375854492 394.1161804199219 44.4587516784668 387.74774169921875 68.98490142822266 C 405.4841003417969 63.087890625 421.6756591796875 71.20791625976562 393.31817626953125 101.46824645996094" stroke-width="0.0" fill="rgb(21, 188, 157)" opacity="0.02304482" stroke="rgb(0, 0, 0)" stroke-opacity="1.0" stroke-linecap="round" stroke-linejoin="round"/>
    <path d="M 390.56695556640625 417.73382568359375 C 419.4168395996094 461.4255676269531 408.6609802246094 489.4146728515625 400.93798828125 448.54541015625 C 386.869384765625 439.8248291015625 358.2366027832031 460.0513916015625 340.09527587890625 442.71954345703125 C 389.74871826171875 431.1824035644531 395.65643310546875 427.5937805175781 394.9508056640625 443.17926025390625 C 378.3243713378906 436.486083984375 386.7856750488281 423.0340881347656 390.56695556640625 417.73382568359375" stroke-width="0.0" fill="rgb(84, 164, 194)" opacity="0.089833185" stroke="rgb(0, 0, 0)" stroke-opacity="1.0" stroke-linecap="round" stroke-linejoin="round"/>
    <path d="M 3.266364812850952 56.963016510009766 C 40.64041519165039 115.54454040527344 52.52455139160156 108.25443267822266 33.75982666015625 111.92168426513672 C 33.44234848022461 120.81895446777344 35.06218719482422 80.8126449584961 25.105371475219727 61.3274040222168 C 42.558555603027344 89.60289001464844 48.21038818359375 75.28878784179688 25.65176010131836 70.29183197021484 C 35.740665435791016 70.00419616699219 21.365341186523438 57.39928436279297 3.266364812850952 56.963016510009766" stroke-width="0.0" fill="rgb(39, 193, 152)" opacity="0.0" stroke="rgb(0, 0, 0)" stroke-opacity="1.0" stroke-linecap="round" stroke-linejoin="round"/>
    <path d="M 232.8589324951172 409.4292907714844 C 214.8292694091797 431.87518310546875 201.22169494628906 441.2301025390625 165.1010284423828 472.5838928222656 C 151.92977905273438 439.0508117675781 151.15435791015625 403.515380859375 171.2018585205078 404.2099914550781 C 166.99786376953125 388.1867980957031 148.00747680664062 350.5257873535156 192.22232055664062 387.4687805175781 C 220.7904052734375 383.4750671386719 220.8328857421875 382.4925231933594 232.8589324951172 409.4292907714844" stroke-width="0.0" fill="rgb(255, 255, 255)" opacity="0.015367504" stroke="rgb(0, 0, 0)" stroke-opacity="1.0" stroke-linecap="round" stroke-linejoin="round"/>
    <path d="M 333.45068359375 148.33839416503906 C 341.25177001953125 164.59852600097656 345.70355224609375 177.40272521972656 335.47528076171875 176.88571166992188 C 316.01190185546875 173.60916137695312 316.7519226074219 161.04800415039062 297.79931640625 156.4662322998047 C 280.3377990722656 191.14210510253906 296.7348937988281 202.07540893554688 336.5832824707031 164.7375030517578 C 332.55072021484375 137.3992462158203 332.22174072265625 138.96820068359375 333.45068359375 148.33839416503906" stroke-width="0.0" fill="rgb(0, 0, 28)" opacity="0.5479745" stroke="rgb(0, 0, 0)" stroke-opacity="1.0" stroke-linecap="round" stroke-linejoin="round"/>
  </g>
</svg>
