<?xml version="1.0" ?>
<svg xmlns="http://www.w3.org/2000/svg" version="1.1" width="512" height="512">
  <defs/>
  <g>
    <path d="M 257.8311462402344 362.70355224609375 C 159.82937622070312 529.61328125 174.2816925048828 354.599853515625 107.00780487060547 444.1075744628906 C 54.983062744140625 420.7461242675781 -16.475234985351562 308.3169250488281 85.41937255859375 186.80758666992188 C 56.45648956298828 358.68511962890625 67.3025131225586 303.2638244628906 78.0417251586914 329.6385803222656 C 95.36331176757812 350.5092468261719 79.22341918945312 313.2831726074219 257.8311462402344 362.70355224609375" stroke-width="0.0" fill="rgb(0, 1, 20)" opacity="1.0" stroke="rgb(0, 0, 0)" stroke-opacity="1.0" stroke-linecap="round" stroke-linejoin="round"/>
    <path d="M 184.8566131591797 203.2413330078125 C 260.0867919921875 279.5028076171875 155.03054809570312 284.6605224609375 163.61407470703125 290.6925964355469 C 143.02056884765625 302.73712158203125 86.85745239257812 267.2030334472656 99.80105590820312 214.677978515625 C 104.33954620361328 222.3481903076172 8.227556228637695 211.5360107421875 178.1807403564453 201.9018096923828 C 179.9545135498047 279.1370849609375 166.21694946289062 265.5272216796875 184.8566131591797 203.2413330078125" stroke-width="0.0" fill="rgb(0, 1, 30)" opacity="0.99559164" stroke="rgb(0, 0, 0)" stroke-opacity="1.0" stroke-linecap="round" stroke-linejoin="round"/>
    <path d="M 395.684326171875 228.1144561767578 C 384.5775146484375 334.09051513671875 203.6221923828125 260.93988037109375 382.6540222167969 246.66827392578125 C 413.5009765625 228.2727508544922 345.1581115722656 176.49288940429688 309.60626220703125 381.0393371582031 C 253.40802001953125 201.5259552001953 341.7940979003906 178.6746826171875 363.84307861328125 206.13560485839844 C 424.73193359375 248.74844360351562 373.25286865234375 267.4578552246094 395.684326171875 228.1144561767578" stroke-width="0.0" fill="rgb(0, 0, 24)" opacity="1.0" stroke="rgb(0, 0, 0)" stroke-opacity="1.0" stroke-linecap="round" stroke-linejoin="round"/>
    <path d="M 203.83644104003906 217.46742248535156 C 142.25372314453125 245.07342529296875 175.78318786621094 185.7176055908203 103.67364501953125 218.63552856445312 C 41.956363677978516 227.12002563476562 135.0843048095703 193.81277465820312 180.9059600830078 192.25035095214844 C 197.86972045898438 216.467041015625 182.47650146484375 226.1917266845703 198.7633056640625 192.0058135986328 C 169.29946899414062 97.40467071533203 169.18264770507812 94.88835906982422 203.83644104003906 217.46742248535156" stroke-width="0.0" fill="rgb(149, 78, 3)" opacity="0.95048517" stroke="rgb(0, 0, 0)" stroke-opacity="1.0" stroke-linecap="round" stroke-linejoin="round"/>
    <path d="M 567.7705688476562 341.0055236816406 C 557.4532470703125 412.6005554199219 403.8280029296875 382.4622802734375 470.74456787109375 455.3713073730469 C 297.1565246582031 332.0275573730469 376.41973876953125 437.10369873046875 306.7974548339844 276.2951965332031 C 439.7138366699219 368.8712463378906 325.0475769042969 335.24798583984375 402.0882568359375 348.2775573730469 C 466.5693054199219 362.37969970703125 412.2857360839844 384.4407653808594 567.7705688476562 341.0055236816406" stroke-width="0.0" fill="rgb(10, 0, 23)" opacity="0.99498135" stroke="rgb(0, 0, 0)" stroke-opacity="1.0" stroke-linecap="round" stroke-linejoin="round"/>
    <path d="M 449.82415771484375 218.2283477783203 C 475.6216125488281 291.71356201171875 504.3831481933594 320.08551025390625 454.082275390625 410.059814453125 C 471.3609924316406 300.2203674316406 476.7725524902344 334.8441467285156 433.48919677734375 218.51077270507812 C 472.7483825683594 117.52090454101562 485.0171813964844 -49.52769088745117 490.956787109375 47.057987213134766 C 454.0357666015625 194.44915771484375 471.37408447265625 139.3791046142578 449.82415771484375 218.2283477783203" stroke-width="0.0" fill="rgb(0, 0, 26)" opacity="1.0" stroke="rgb(0, 0, 0)" stroke-opacity="1.0" stroke-linecap="round" stroke-linejoin="round"/>
    <path d="M 369.3726501464844 284.36370849609375 C 266.7509460449219 303.4252624511719 295.15850830078125 359.5357971191406 310.1784973144531 310.1021728515625 C 299.3108825683594 316.2330017089844 352.2578430175781 320.058837890625 278.3152160644531 296.0858459472656 C 277.5904541015625 284.39202880859375 275.1954650878906 236.19708251953125 292.2843017578125 232.23780822753906 C 316.69989013671875 225.6235809326172 332.59271240234375 262.7371520996094 369.3726501464844 284.36370849609375" stroke-width="0.0" fill="rgb(255, 251, 170)" opacity="1.0" stroke="rgb(0, 0, 0)" stroke-opacity="1.0" stroke-linecap="round" stroke-linejoin="round"/>
    <path d="M 380.1534729003906 244.27879333496094 C 404.3612976074219 232.58717346191406 391.56695556640625 248.77694702148438 390.2187805175781 232.70053100585938 C 375.6022033691406 219.48599243164062 369.26983642578125 215.97906494140625 336.0149230957031 227.52268981933594 C 329.2428894042969 228.14480590820312 330.7611389160156 212.50454711914062 332.9404296875 235.40234375 C 335.3831787109375 258.0129699707031 326.47979736328125 239.7145538330078 380.1534729003906 244.27879333496094" stroke-width="0.0" fill="rgb(34, 8, 53)" opacity="0.97305447" stroke="rgb(0, 0, 0)" stroke-opacity="1.0" stroke-linecap="round" stroke-linejoin="round"/>
    <path d="M 89.16548156738281 72.45838928222656 C 112.99341583251953 180.17247009277344 62.62823486328125 75.96472930908203 183.3678436279297 78.73384857177734 C 31.06875228881836 180.00782775878906 88.3963851928711 342.1657409667969 29.899612426757812 79.45498657226562 C 3.87070369720459 -0.6036476492881775 36.824180603027344 -33.03487014770508 185.61370849609375 123.74993896484375 C 16.679075241088867 51.93247604370117 64.8075180053711 0.6459117531776428 89.16548156738281 72.45838928222656" stroke-width="0.0" fill="rgb(0, 0, 15)" opacity="1.0" stroke="rgb(0, 0, 0)" stroke-opacity="1.0" stroke-linecap="round" stroke-linejoin="round"/>
    <path d="M 233.18771362304688 309.8919982910156 C 207.78170776367188 312.7720947265625 323.6486511230469 287.72723388671875 288.590576171875 330.342529296875 C 31.408519744873047 384.8326416015625 155.9555206298828 321.8695373535156 145.99688720703125 238.90774536132812 C 114.5606689453125 181.171142578125 197.94544982910156 216.81224060058594 218.40524291992188 236.4586944580078 C 232.0849609375 282.0592956542969 225.62994384765625 292.9460144042969 233.18771362304688 309.8919982910156" stroke-width="0.0" fill="rgb(0, 0, 20)" opacity="1.0" stroke="rgb(0, 0, 0)" stroke-opacity="1.0" stroke-linecap="round" stroke-linejoin="round"/>
    <path d="M 430.84967041015625 289.5057678222656 C 380.0766906738281 274.15484619140625 371.9265441894531 246.8876953125 386.0844421386719 245.1003875732422 C 384.7586669921875 255.22117614746094 351.3624267578125 270.1207580566406 334.4246826171875 239.10092163085938 C 333.96905517578125 203.1127166748047 298.69097900390625 187.5465850830078 406.8732604980469 153.2600555419922 C 438.1377868652344 227.01815795898438 449.5581359863281 297.4669189453125 430.84967041015625 289.5057678222656" stroke-width="0.0" fill="rgb(255, 228, 102)" opacity="0.776352" stroke="rgb(0, 0, 0)" stroke-opacity="1.0" stroke-linecap="round" stroke-linejoin="round"/>
    <path d="M 494.8466796875 6.736225605010986 C 310.0545349121094 67.29705810546875 372.3702087402344 105.68429565429688 259.2790222167969 117.58068084716797 C 125.38284301757812 109.06605529785156 183.18014526367188 71.64534759521484 -11.54371166229248 -4.867171764373779 C 227.5847625732422 35.06821060180664 119.17842864990234 109.49107360839844 297.07940673828125 92.12889099121094 C 353.3842468261719 76.76051330566406 377.9975891113281 10.009660720825195 494.8466796875 6.736225605010986" stroke-width="0.0" fill="rgb(0, 0, 22)" opacity="1.0" stroke="rgb(0, 0, 0)" stroke-opacity="1.0" stroke-linecap="round" stroke-linejoin="round"/>
    <path d="M 352.6759033203125 381.70367431640625 C 75.31800842285156 468.9644470214844 187.751708984375 361.32342529296875 155.8612518310547 407.93896484375 C 144.7010040283203 409.9034423828125 157.92689514160156 354.64483642578125 158.57373046875 350.9560241699219 C 159.03262329101562 350.1509704589844 165.94151306152344 313.9778747558594 197.0110321044922 296.13519287109375 C 287.8869934082031 338.4499816894531 371.0094299316406 313.930419921875 352.6759033203125 381.70367431640625" stroke-width="0.0" fill="rgb(255, 192, 254)" opacity="0.99343127" stroke="rgb(0, 0, 0)" stroke-opacity="1.0" stroke-linecap="round" stroke-linejoin="round"/>
    <path d="M 474.55462646484375 72.65721893310547 C 469.8239440917969 66.1353759765625 482.95281982421875 60.21135711669922 487.8392333984375 46.69572830200195 C 469.6903076171875 50.69898986816406 488.7710266113281 99.90205383300781 467.4903564453125 109.64116668701172 C 482.8957824707031 -1.420239806175232 475.33056640625 -39.22477722167969 458.95550537109375 -13.19006061553955 C 479.30169677734375 25.11195182800293 491.1036682128906 44.68626403808594 474.55462646484375 72.65721893310547" stroke-width="0.0" fill="rgb(0, 4, 11)" opacity="0.9995781" stroke="rgb(0, 0, 0)" stroke-opacity="1.0" stroke-linecap="round" stroke-linejoin="round"/>
    <path d="M 443.63177490234375 15.427051544189453 C 346.10125732421875 148.43045043945312 455.19256591796875 126.77715301513672 414.3863220214844 167.04310607910156 C 334.71075439453125 49.326133728027344 356.7884826660156 138.19863891601562 358.50146484375 53.03438949584961 C 349.74542236328125 115.07691955566406 381.0598449707031 30.549108505249023 350.70513916015625 92.7544174194336 C 358.4041442871094 105.41759490966797 453.58416748046875 -9.592018127441406 443.63177490234375 15.427051544189453" stroke-width="0.0" fill="rgb(0, 0, 13)" opacity="1.0" stroke="rgb(0, 0, 0)" stroke-opacity="1.0" stroke-linecap="round" stroke-linejoin="round"/>
    <path d="M 465.06719970703125 422.40545654296875 C 434.7101745605469 409.4800109863281 501.0792236328125 524.397705078125 423.56610107421875 489.42877197265625 C 395.6055908203125 331.95703125 459.6530456542969 439.0254211425781 391.6259460449219 355.2516784667969 C 545.6810302734375 456.57476806640625 333.0594787597656 363.2961730957031 431.91400146484375 317.89691162109375 C 492.59356689453125 375.75897216796875 504.1569519042969 385.55780029296875 465.06719970703125 422.40545654296875" stroke-width="0.0" fill="rgb(220, 250, 253)" opacity="0.5580319" stroke="rgb(0, 0, 0)" stroke-opacity="1.0" stroke-linecap="round" stroke-linejoin="round"/>
    <path d="M 482.2158508300781 43.608097076416016 C 443.9669189453125 24.719579696655273 473.5382080078125 41.00785446166992 433.8719787597656 167.50106811523438 C 382.23199462890625 105.47755432128906 421.5850830078125 171.23927307128906 409.92608642578125 30.400665283203125 C 459.4235534667969 39.80375671386719 459.65924072265625 63.91127395629883 451.0693359375 71.78947448730469 C 460.6174621582031 33.000770568847656 467.8521728515625 25.521865844726562 482.2158508300781 43.608097076416016" stroke-width="0.0" fill="rgb(0, 0, 10)" opacity="0.99970484" stroke="rgb(0, 0, 0)" stroke-opacity="1.0" stroke-linecap="round" stroke-linejoin="round"/>
    <path d="M 426.6884460449219 384.24945068359375 C 487.00408935546875 429.31927490234375 416.8640441894531 476.9364929199219 323.77825927734375 483.4852600097656 C 229.6107940673828 485.5513916015625 138.96145629882812 431.32159423828125 194.82461547851562 412.6390380859375 C 264.7790222167969 420.01873779296875 249.93740844726562 424.9405822753906 227.1127166748047 422.5562438964844 C 233.26290893554688 406.6981506347656 296.3463439941406 420.0252990722656 426.6884460449219 384.24945068359375" stroke-width="0.0" fill="rgb(5, 9, 0)" opacity="0.5106015" stroke="rgb(0, 0, 0)" stroke-opacity="1.0" stroke-linecap="round" stroke-linejoin="round"/>
    <path d="M 205.58212280273438 289.7174377441406 C 281.6608581542969 294.0496520996094 310.9555969238281 297.52020263671875 238.47979736328125 299.4914855957031 C 205.7018585205078 305.15240478515625 244.9784698486328 279.9997863769531 221.61593627929688 217.8118896484375 C 178.23460388183594 247.1061248779297 171.17581176757812 273.60101318359375 130.69790649414062 286.50830078125 C 132.99813842773438 346.684326171875 149.43075561523438 282.7289733886719 205.58212280273438 289.7174377441406" stroke-width="0.0" fill="rgb(255, 225, 141)" opacity="0.9995093" stroke="rgb(0, 0, 0)" stroke-opacity="1.0" stroke-linecap="round" stroke-linejoin="round"/>
    <path d="M 564.62060546875 436.1182861328125 C 510.67596435546875 587.9998168945312 461.45977783203125 513.2417602539062 449.15576171875 398.8598937988281 C 441.5034484863281 417.0354919433594 459.818115234375 422.0020751953125 466.21636962890625 384.6883239746094 C 486.6942138671875 400.38970947265625 430.9264221191406 418.1044921875 485.5737609863281 350.0884704589844 C 560.2283935546875 384.3210754394531 481.6120300292969 383.652587890625 564.62060546875 436.1182861328125" stroke-width="0.0" fill="rgb(224, 204, 155)" opacity="0.9834672" stroke="rgb(0, 0, 0)" stroke-opacity="1.0" stroke-linecap="round" stroke-linejoin="round"/>
    <path d="M 284.80194091796875 415.3734436035156 C 245.3149871826172 395.0530090332031 223.37139892578125 390.3428649902344 269.4740905761719 378.2303466796875 C 301.6559753417969 419.2198791503906 267.55718994140625 399.8087158203125 221.78289794921875 417.48956298828125 C 169.4979248046875 432.6871337890625 212.84625244140625 400.19525146484375 311.3431701660156 299.6922302246094 C 293.2254638671875 428.2279968261719 332.8171081542969 431.4215393066406 284.80194091796875 415.3734436035156" stroke-width="0.0" fill="rgb(0, 1, 23)" opacity="1.0" stroke="rgb(0, 0, 0)" stroke-opacity="1.0" stroke-linecap="round" stroke-linejoin="round"/>
    <path d="M 65.35223388671875 41.54545211791992 C 48.83892822265625 26.061050415039062 52.60038375854492 133.9426727294922 105.46631622314453 220.80404663085938 C 77.8633804321289 288.7533874511719 35.26872253417969 32.22718811035156 32.94720458984375 37.617069244384766 C 9.728901863098145 -19.024314880371094 -0.6971147656440735 -18.624799728393555 102.35088348388672 41.4487419128418 C 171.0730438232422 100.21943664550781 73.49657440185547 14.034557342529297 65.35223388671875 41.54545211791992" stroke-width="0.0" fill="rgb(168, 112, 0)" opacity="0.98150724" stroke="rgb(0, 0, 0)" stroke-opacity="1.0" stroke-linecap="round" stroke-linejoin="round"/>
    <path d="M 195.1644744873047 20.207096099853516 C 123.62979125976562 32.87594985961914 137.5455322265625 37.59477996826172 172.55458068847656 39.3150634765625 C 159.95901489257812 29.013090133666992 138.03732299804688 31.347606658935547 77.73094177246094 15.69439697265625 C 127.80345153808594 -6.69086217880249 108.2590103149414 -26.20874786376953 169.8136444091797 -45.37272262573242 C 207.29339599609375 -31.752050399780273 199.01951599121094 -29.24241828918457 195.1644744873047 20.207096099853516" stroke-width="0.0" fill="rgb(252, 250, 253)" opacity="0.3732691" stroke="rgb(0, 0, 0)" stroke-opacity="1.0" stroke-linecap="round" stroke-linejoin="round"/>
    <path d="M 172.58114624023438 290.2945861816406 C 135.14273071289062 351.3231201171875 134.98985290527344 369.74957275390625 118.7441177368164 376.05517578125 C 58.53902816772461 362.6888732910156 51.94119644165039 372.4889831542969 48.54768753051758 324.1429138183594 C 46.2877311706543 297.60076904296875 58.89979553222656 254.7655487060547 105.50431823730469 197.3407745361328 C 116.94131469726562 272.7943115234375 116.87235260009766 272.0024108886719 172.58114624023438 290.2945861816406" stroke-width="0.0" fill="rgb(255, 185, 60)" opacity="1.0" stroke="rgb(0, 0, 0)" stroke-opacity="1.0" stroke-linecap="round" stroke-linejoin="round"/>
    <path d="M 93.73628234863281 258.38421630859375 C 98.48904418945312 258.9365234375 95.67363739013672 260.23297119140625 100.11354064941406 262.01336669921875 C 74.20197296142578 246.4065399169922 65.31040954589844 268.52362060546875 57.17851638793945 291.48468017578125 C 72.72544860839844 224.89564514160156 104.33428955078125 166.78579711914062 84.82321166992188 236.55064392089844 C 79.69577026367188 221.58038330078125 89.7145004272461 193.3256072998047 93.73628234863281 258.38421630859375" stroke-width="0.0" fill="rgb(252, 198, 36)" opacity="0.9228842" stroke="rgb(0, 0, 0)" stroke-opacity="1.0" stroke-linecap="round" stroke-linejoin="round"/>
    <path d="M 370.0146179199219 176.2461395263672 C 296.4963684082031 227.8015594482422 321.827392578125 270.6166076660156 251.59725952148438 288.0032653808594 C 165.61668395996094 199.8883514404297 143.0439910888672 183.63919067382812 129.41900634765625 122.87384033203125 C 164.52288818359375 66.34298706054688 158.47882080078125 92.77265167236328 232.16629028320312 114.18827819824219 C 341.4603576660156 109.36940002441406 396.0309753417969 53.07770538330078 370.0146179199219 176.2461395263672" stroke-width="0.0" fill="rgb(255, 180, 86)" opacity="0.9942421" stroke="rgb(0, 0, 0)" stroke-opacity="1.0" stroke-linecap="round" stroke-linejoin="round"/>
    <path d="M 345.49169921875 372.1361389160156 C 310.7052001953125 329.2160339355469 345.9669189453125 370.42413330078125 310.2594909667969 404.4409484863281 C 262.7159423828125 356.5208435058594 249.9096221923828 365.7793273925781 266.9740905761719 340.7260437011719 C 310.2165832519531 348.3994445800781 310.4186706542969 282.758056640625 328.6214294433594 313.51129150390625 C 370.42095947265625 347.5001525878906 328.7014465332031 381.9861755371094 345.49169921875 372.1361389160156" stroke-width="0.0" fill="rgb(249, 181, 253)" opacity="0.9985352" stroke="rgb(0, 0, 0)" stroke-opacity="1.0" stroke-linecap="round" stroke-linejoin="round"/>
    <path d="M 35.4091796875 441.8818664550781 C 19.78424835205078 434.76385498046875 131.2671661376953 382.4654846191406 55.59200668334961 373.68182373046875 C -0.34942466020584106 410.0357971191406 3.986632823944092 388.8112487792969 92.31430053710938 351.4878234863281 C -49.09838104248047 357.0859375 -9.023694038391113 361.0224914550781 74.69935607910156 358.739501953125 C 98.59099578857422 396.44866943359375 98.5996322631836 381.3569030761719 35.4091796875 441.8818664550781" stroke-width="0.0" fill="rgb(0, 17, 0)" opacity="0.0" stroke="rgb(0, 0, 0)" stroke-opacity="1.0" stroke-linecap="round" stroke-linejoin="round"/>
    <path d="M 352.4442443847656 436.60491943359375 C 312.3391418457031 441.0054626464844 313.3216247558594 446.81085205078125 295.31719970703125 414.3113098144531 C 292.7267150878906 368.24285888671875 287.18798828125 389.6076354980469 330.46331787109375 416.33331298828125 C 311.3978576660156 418.642333984375 259.5432434082031 410.7511291503906 337.2667541503906 410.64923095703125 C 383.2128601074219 360.5049133300781 390.6902160644531 399.08306884765625 352.4442443847656 436.60491943359375" stroke-width="0.0" fill="rgb(1, 4, 24)" opacity="0.99232346" stroke="rgb(0, 0, 0)" stroke-opacity="1.0" stroke-linecap="round" stroke-linejoin="round"/>
    <path d="M 405.4424743652344 75.0995101928711 C 430.3945617675781 59.11320495605469 452.7264404296875 41.81291198730469 425.8428955078125 138.4021453857422 C 429.8101806640625 170.73397827148438 402.127197265625 117.42919158935547 380.8321533203125 96.61310577392578 C 382.2432556152344 92.62596893310547 398.7325744628906 73.58988952636719 420.80975341796875 64.7153549194336 C 404.9603271484375 87.2940673828125 424.2865295410156 75.78507232666016 405.4424743652344 75.0995101928711" stroke-width="0.0" fill="rgb(243, 9, 145)" opacity="0.98978853" stroke="rgb(0, 0, 0)" stroke-opacity="1.0" stroke-linecap="round" stroke-linejoin="round"/>
    <path d="M 163.7967529296875 102.78949737548828 C 175.82398986816406 104.43360900878906 159.1363983154297 110.3783950805664 170.7216796875 118.91292572021484 C 166.3645477294922 118.17395782470703 165.30276489257812 104.99297332763672 127.8829345703125 71.50302124023438 C 73.77911376953125 21.50643539428711 132.17578125 56.89567565917969 161.66651916503906 83.18621826171875 C 174.44569396972656 88.97130584716797 186.84808349609375 98.10880279541016 163.7967529296875 102.78949737548828" stroke-width="0.0" fill="rgb(254, 211, 5)" opacity="0.9988723" stroke="rgb(0, 0, 0)" stroke-opacity="1.0" stroke-linecap="round" stroke-linejoin="round"/>
    <path d="M 531.8523559570312 440.48583984375 C 531.2156982421875 467.00396728515625 531.2875366210938 471.57672119140625 533.5789794921875 451.08837890625 C 523.85546875 440.8974304199219 513.7212524414062 426.94927978515625 493.5429382324219 418.3529968261719 C 473.2503967285156 451.893798828125 496.1379089355469 440.86663818359375 531.8397827148438 430.5123596191406 C 524.2904663085938 425.6336975097656 529.3707275390625 430.8746337890625 531.8523559570312 440.48583984375" stroke-width="0.0" fill="rgb(214, 211, 172)" opacity="0.022797946" stroke="rgb(0, 0, 0)" stroke-opacity="1.0" stroke-linecap="round" stroke-linejoin="round"/>
    <path d="M 398.0036926269531 222.66629028320312 C 403.1721496582031 243.70654296875 378.77056884765625 299.35577392578125 353.7957458496094 272.38531494140625 C 327.5928039550781 236.65406799316406 314.2154541015625 235.11798095703125 295.34271240234375 234.81231689453125 C 329.8249206542969 240.5375518798828 329.28106689453125 252.52316284179688 329.8857727050781 214.51722717285156 C 362.65191650390625 203.73037719726562 355.8408203125 202.44200134277344 398.0036926269531 222.66629028320312" stroke-width="0.0" fill="rgb(0, 0, 22)" opacity="0.99982905" stroke="rgb(0, 0, 0)" stroke-opacity="1.0" stroke-linecap="round" stroke-linejoin="round"/>
    <path d="M 475.6806945800781 431.2283935546875 C 476.1144714355469 435.826416015625 451.532470703125 433.4252624511719 475.94580078125 433.331298828125 C 461.0497741699219 415.2328186035156 442.5638122558594 410.8868408203125 416.8927307128906 390.86895751953125 C 396.4036560058594 360.0379638671875 407.2250671386719 343.7091064453125 518.359130859375 332.4823303222656 C 509.75592041015625 375.48773193359375 509.0111083984375 393.28460693359375 475.6806945800781 431.2283935546875" stroke-width="0.0" fill="rgb(233, 187, 177)" opacity="1.0" stroke="rgb(0, 0, 0)" stroke-opacity="1.0" stroke-linecap="round" stroke-linejoin="round"/>
    <path d="M 178.75753784179688 410.98516845703125 C 153.5814208984375 411.74481201171875 155.29022216796875 403.56536865234375 153.29864501953125 410.0899353027344 C 154.6806640625 406.2455139160156 159.57276916503906 399.66583251953125 128.40682983398438 422.8896179199219 C 131.421630859375 382.264892578125 132.1754913330078 383.0816345214844 140.7822265625 404.9322509765625 C 162.62538146972656 418.6119384765625 166.82826232910156 410.9940185546875 178.75753784179688 410.98516845703125" stroke-width="0.0" fill="rgb(180, 184, 214)" opacity="0.72723716" stroke="rgb(0, 0, 0)" stroke-opacity="1.0" stroke-linecap="round" stroke-linejoin="round"/>
    <path d="M 431.6172790527344 380.15753173828125 C 430.93731689453125 379.0589599609375 441.7878112792969 408.34454345703125 443.2549743652344 420.7760925292969 C 400.3857421875 419.9564514160156 377.3324279785156 396.02239990234375 377.1000061035156 361.27655029296875 C 346.24847412109375 304.6738586425781 319.6633605957031 263.7452392578125 450.70294189453125 262.0389404296875 C 476.7201843261719 350.09027099609375 448.4530029296875 343.1518249511719 431.6172790527344 380.15753173828125" stroke-width="0.0" fill="rgb(255, 204, 103)" opacity="0.9972612" stroke="rgb(0, 0, 0)" stroke-opacity="1.0" stroke-linecap="round" stroke-linejoin="round"/>
    <path d="M 126.14628601074219 95.62345886230469 C 130.68728637695312 103.44883728027344 115.52391052246094 89.60494995117188 113.36178588867188 108.14163970947266 C 92.69828033447266 140.07948303222656 82.08678436279297 120.5983657836914 72.86945343017578 80.9302749633789 C 58.25295639038086 52.33100891113281 82.4067153930664 47.343204498291016 100.37982177734375 64.21806335449219 C 110.96855163574219 81.00529479980469 123.4405288696289 87.90066528320312 126.14628601074219 95.62345886230469" stroke-width="0.0" fill="rgb(224, 0, 147)" opacity="0.9539512" stroke="rgb(0, 0, 0)" stroke-opacity="1.0" stroke-linecap="round" stroke-linejoin="round"/>
    <path d="M 342.3943176269531 373.6856994628906 C 335.613525390625 376.9548034667969 309.73077392578125 366.8094177246094 308.4759216308594 396.1798095703125 C 351.8446960449219 405.77886962890625 371.9769592285156 397.6288146972656 359.25689697265625 371.9068298339844 C 338.34967041015625 335.66351318359375 331.9208068847656 334.05322265625 350.85589599609375 346.2295227050781 C 336.8487243652344 370.5834655761719 334.4268493652344 368.4090881347656 342.3943176269531 373.6856994628906" stroke-width="0.0" fill="rgb(84, 14, 116)" opacity="0.19757324" stroke="rgb(0, 0, 0)" stroke-opacity="1.0" stroke-linecap="round" stroke-linejoin="round"/>
    <path d="M 130.5931396484375 363.9215087890625 C 141.9682159423828 389.12005615234375 141.43148803710938 426.10614013671875 105.77071380615234 430.5121765136719 C 70.23164367675781 391.26904296875 55.1461296081543 359.9720458984375 57.217342376708984 335.2242126464844 C 80.91136169433594 348.0263671875 71.56185150146484 353.8105163574219 93.15267181396484 353.7962341308594 C 96.33043670654297 364.6665954589844 110.82344818115234 377.53155517578125 130.5931396484375 363.9215087890625" stroke-width="0.0" fill="rgb(255, 182, 61)" opacity="0.99415934" stroke="rgb(0, 0, 0)" stroke-opacity="1.0" stroke-linecap="round" stroke-linejoin="round"/>
    <path d="M 280.32855224609375 109.85530853271484 C 279.1245422363281 158.16322326660156 286.5267028808594 159.0655975341797 292.44830322265625 140.62081909179688 C 279.9668273925781 119.12710571289062 272.5043640136719 130.00619506835938 270.4164733886719 125.5922622680664 C 268.34088134765625 115.24544525146484 272.12255859375 128.2604217529297 271.2115478515625 116.43037414550781 C 234.83639526367188 93.41765594482422 293.7809753417969 86.58340454101562 280.32855224609375 109.85530853271484" stroke-width="0.0" fill="rgb(16, 0, 14)" opacity="0.44680908" stroke="rgb(0, 0, 0)" stroke-opacity="1.0" stroke-linecap="round" stroke-linejoin="round"/>
    <path d="M 442.0579833984375 70.5582275390625 C 432.1845703125 104.04156494140625 423.9509582519531 129.66831970214844 410.29205322265625 124.11172485351562 C 378.5011291503906 89.35865020751953 391.0144958496094 85.2755355834961 387.67529296875 93.52340698242188 C 401.8226013183594 72.25948333740234 413.9395446777344 55.111114501953125 428.4720764160156 52.862239837646484 C 441.01806640625 58.62962341308594 441.5329284667969 63.02072525024414 442.0579833984375 70.5582275390625" stroke-width="0.0" fill="rgb(246, 25, 113)" opacity="1.0" stroke="rgb(0, 0, 0)" stroke-opacity="1.0" stroke-linecap="round" stroke-linejoin="round"/>
    <path d="M 113.29948425292969 117.2914047241211 C 104.00983428955078 129.80238342285156 87.36579895019531 149.47653198242188 87.82254028320312 148.9275665283203 C 86.86351013183594 148.51292419433594 85.05610656738281 140.91342163085938 83.2759017944336 130.71420288085938 C 76.39141845703125 96.9938735961914 60.08543014526367 58.151885986328125 78.45263671875 58.27667999267578 C 141.04515075683594 97.88311767578125 133.9229278564453 87.41477966308594 113.29948425292969 117.2914047241211" stroke-width="0.0" fill="rgb(222, 9, 98)" opacity="0.99361926" stroke="rgb(0, 0, 0)" stroke-opacity="1.0" stroke-linecap="round" stroke-linejoin="round"/>
    <path d="M 540.724365234375 467.5798034667969 C 525.62744140625 546.572021484375 502.1762390136719 563.6968994140625 351.1888122558594 511.03790283203125 C 360.2133483886719 446.5135498046875 395.48529052734375 447.8836975097656 447.3712158203125 485.8081970214844 C 465.2310485839844 490.3546142578125 459.0303039550781 476.20111083984375 494.7723083496094 433.1829833984375 C 548.6694946289062 435.9400634765625 553.8965454101562 434.7575378417969 540.724365234375 467.5798034667969" stroke-width="0.0" fill="rgb(140, 157, 149)" opacity="0.28897297" stroke="rgb(0, 0, 0)" stroke-opacity="1.0" stroke-linecap="round" stroke-linejoin="round"/>
    <path d="M 293.5440368652344 310.68829345703125 C 300.6862487792969 328.371337890625 304.15081787109375 349.77008056640625 254.55007934570312 357.7757873535156 C 207.66055297851562 344.2898254394531 182.8895721435547 305.372314453125 203.0414276123047 278.7485656738281 C 247.7459259033203 255.49041748046875 318.83184814453125 268.23687744140625 336.0928955078125 300.7014465332031 C 264.3087463378906 324.9730224609375 252.78981018066406 328.2895812988281 293.5440368652344 310.68829345703125" stroke-width="0.0" fill="rgb(0, 0, 25)" opacity="1.0" stroke="rgb(0, 0, 0)" stroke-opacity="1.0" stroke-linecap="round" stroke-linejoin="round"/>
    <path d="M 432.2203063964844 139.69398498535156 C 437.4214172363281 147.72763061523438 436.9584655761719 174.89723205566406 426.7158203125 177.90524291992188 C 410.9414978027344 168.08596801757812 402.1879577636719 140.43995666503906 406.65692138671875 153.26058959960938 C 407.36236572265625 140.6497344970703 419.13433837890625 157.56011962890625 427.8948669433594 146.63113403320312 C 425.0320129394531 134.38978576660156 427.31817626953125 132.70269775390625 432.2203063964844 139.69398498535156" stroke-width="0.0" fill="rgb(0, 0, 13)" opacity="1.0" stroke="rgb(0, 0, 0)" stroke-opacity="1.0" stroke-linecap="round" stroke-linejoin="round"/>
    <path d="M 470.6279602050781 502.35595703125 C 471.5483703613281 520.6820068359375 465.4817199707031 528.1822509765625 453.916015625 550.7677001953125 C 453.2655944824219 528.3594970703125 453.4689636230469 493.8946838378906 447.4851379394531 468.0721130371094 C 457.3934326171875 483.5921630859375 465.2594299316406 479.1457824707031 448.8894958496094 464.4975891113281 C 439.437744140625 470.4703674316406 452.6974792480469 484.4266662597656 470.6279602050781 502.35595703125" stroke-width="0.0" fill="rgb(208, 185, 153)" opacity="0.0017151941" stroke="rgb(0, 0, 0)" stroke-opacity="1.0" stroke-linecap="round" stroke-linejoin="round"/>
    <path d="M 471.8533935546875 3.470695734024048 C 468.85980224609375 7.348119258880615 430.6966857910156 18.432716369628906 458.5068359375 36.56757736206055 C 517.8731689453125 -0.38592439889907837 467.3638916015625 -2.851243495941162 431.5828857421875 -10.027928352355957 C 443.84527587890625 -10.10892105102539 458.35986328125 -11.140172004699707 463.79351806640625 -19.093063354492188 C 488.89947509765625 -19.845233917236328 490.4831848144531 -14.91659164428711 471.8533935546875 3.470695734024048" stroke-width="0.0" fill="rgb(96, 114, 101)" opacity="0.8607532" stroke="rgb(0, 0, 0)" stroke-opacity="1.0" stroke-linecap="round" stroke-linejoin="round"/>
    <path d="M 177.99240112304688 239.57247924804688 C 175.8211212158203 240.9376678466797 180.94871520996094 246.58746337890625 183.47547912597656 250.91476440429688 C 178.15396118164062 243.3083038330078 180.89212036132812 251.9281463623047 176.86297607421875 243.72982788085938 C 179.6858673095703 240.26864624023438 173.0508270263672 241.5450439453125 162.3299560546875 236.03871154785156 C 144.3699493408203 231.9329833984375 172.42718505859375 227.43846130371094 177.99240112304688 239.57247924804688" stroke-width="0.0" fill="rgb(69, 74, 139)" opacity="0.4345157" stroke="rgb(0, 0, 0)" stroke-opacity="1.0" stroke-linecap="round" stroke-linejoin="round"/>
    <path d="M 185.617919921875 412.53936767578125 C 186.076904296875 424.8752746582031 185.43817138671875 443.5985412597656 189.12806701660156 454.8806457519531 C 163.8495635986328 453.83123779296875 142.8790740966797 448.8347473144531 121.87905883789062 421.7037658691406 C 118.60140991210938 383.98687744140625 143.94056701660156 386.72698974609375 166.25494384765625 399.5514831542969 C 158.77395629882812 412.7795104980469 180.26368713378906 406.6058349609375 185.617919921875 412.53936767578125" stroke-width="0.0" fill="rgb(255, 247, 191)" opacity="0.0" stroke="rgb(0, 0, 0)" stroke-opacity="1.0" stroke-linecap="round" stroke-linejoin="round"/>
    <path d="M 178.1735382080078 242.98553466796875 C 179.01312255859375 246.0790252685547 180.21438598632812 243.27423095703125 175.9706573486328 242.84730529785156 C 177.2051239013672 250.3726043701172 167.48069763183594 219.0919189453125 153.44834899902344 229.69290161132812 C 182.21658325195312 246.36695861816406 182.78675842285156 249.5643768310547 176.67086791992188 242.75816345214844 C 180.3949432373047 247.6048126220703 176.67332458496094 241.41648864746094 178.1735382080078 242.98553466796875" stroke-width="0.0" fill="rgb(107, 146, 158)" opacity="0.58937925" stroke="rgb(0, 0, 0)" stroke-opacity="1.0" stroke-linecap="round" stroke-linejoin="round"/>
    <path d="M 188.8026580810547 340.8760070800781 C 185.6029815673828 342.2230224609375 174.55636596679688 350.0783386230469 173.2947540283203 353.4884338378906 C 173.63340759277344 358.5769348144531 175.27011108398438 359.8040466308594 179.7989959716797 357.3199157714844 C 178.6050262451172 347.94683837890625 180.4503631591797 346.29925537109375 184.37603759765625 346.4782409667969 C 184.1359100341797 346.6789855957031 189.0802764892578 346.7274475097656 188.8026580810547 340.8760070800781" stroke-width="0.0" fill="rgb(132, 63, 150)" opacity="0.52254057" stroke="rgb(0, 0, 0)" stroke-opacity="1.0" stroke-linecap="round" stroke-linejoin="round"/>
    <path d="M 84.236083984375 444.0636291503906 C 83.83999633789062 466.5189208984375 75.97676849365234 469.60601806640625 70.99551391601562 461.7856140136719 C 73.86132049560547 448.3122863769531 71.220703125 442.6094970703125 67.21199035644531 454.08941650390625 C 33.410064697265625 444.3483581542969 54.012306213378906 429.1100769042969 51.801002502441406 443.4396667480469 C 87.26545715332031 445.60687255859375 104.54734802246094 439.8891296386719 84.236083984375 444.0636291503906" stroke-width="0.0" fill="rgb(248, 252, 233)" opacity="0.0" stroke="rgb(0, 0, 0)" stroke-opacity="1.0" stroke-linecap="round" stroke-linejoin="round"/>
    <path d="M 475.9877624511719 436.4403991699219 C 473.8297424316406 468.1748962402344 465.9490966796875 490.8846130371094 451.60845947265625 484.77716064453125 C 448.79547119140625 459.9601135253906 424.3855895996094 447.11431884765625 443.2168884277344 431.8314208984375 C 453.13641357421875 443.5636291503906 473.282958984375 449.9871826171875 466.1554260253906 463.4704895019531 C 435.48504638671875 452.5352478027344 465.80242919921875 458.014404296875 475.9877624511719 436.4403991699219" stroke-width="0.0" fill="rgb(248, 255, 209)" opacity="0.0" stroke="rgb(0, 0, 0)" stroke-opacity="1.0" stroke-linecap="round" stroke-linejoin="round"/>
    <path d="M 441.0632629394531 386.15509033203125 C 472.6272888183594 335.5810852050781 435.2991027832031 350.2165832519531 449.308349609375 387.3428649902344 C 438.9578857421875 392.4189758300781 439.41937255859375 384.4205627441406 435.4538879394531 376.15179443359375 C 428.7293701171875 345.3775939941406 433.051513671875 334.69659423828125 424.6817321777344 323.9085388183594 C 412.5880432128906 348.8434753417969 413.832763671875 371.682861328125 441.0632629394531 386.15509033203125" stroke-width="0.0" fill="rgb(214, 230, 197)" opacity="0.025421273" stroke="rgb(0, 0, 0)" stroke-opacity="1.0" stroke-linecap="round" stroke-linejoin="round"/>
    <path d="M 36.3546257019043 141.69017028808594 C 56.128971099853516 145.92076110839844 46.81071472167969 152.5674591064453 26.884784698486328 144.05189514160156 C 21.36178970336914 146.5557861328125 26.915037155151367 149.9588623046875 -6.094742774963379 137.37539672851562 C 14.36546802520752 102.54811096191406 16.032743453979492 82.5524673461914 28.098703384399414 98.1134262084961 C 72.24769592285156 85.59180450439453 48.2115478515625 100.79154968261719 36.3546257019043 141.69017028808594" stroke-width="0.0" fill="rgb(121, 226, 172)" opacity="0.012367375" stroke="rgb(0, 0, 0)" stroke-opacity="1.0" stroke-linecap="round" stroke-linejoin="round"/>
    <path d="M 62.96622085571289 491.6565246582031 C 91.61620330810547 504.8303527832031 80.26341247558594 497.86956787109375 22.679885864257812 504.2582702636719 C 0.6537510752677917 482.6419372558594 -0.6359837651252747 473.8702392578125 27.859766006469727 458.8138732910156 C 11.14033317565918 446.0506896972656 17.567384719848633 443.440185546875 55.099388122558594 455.16497802734375 C 88.97648620605469 438.5445556640625 90.47420501708984 428.9022216796875 62.96622085571289 491.6565246582031" stroke-width="0.0" fill="rgb(255, 255, 245)" opacity="0.0" stroke="rgb(0, 0, 0)" stroke-opacity="1.0" stroke-linecap="round" stroke-linejoin="round"/>
    <path d="M 106.43063354492188 219.7450408935547 C 110.57237243652344 246.6731414794922 108.78440856933594 251.3526153564453 122.1534652709961 273.7346496582031 C 118.70858001708984 264.90740966796875 106.5342788696289 253.43617248535156 105.65906524658203 218.7561492919922 C 145.16778564453125 218.01519775390625 114.14697265625 220.72523498535156 114.33373260498047 216.28805541992188 C 131.94674682617188 211.74363708496094 120.28187561035156 214.18907165527344 106.43063354492188 219.7450408935547" stroke-width="0.0" fill="rgb(200, 217, 77)" opacity="0.0021256092" stroke="rgb(0, 0, 0)" stroke-opacity="1.0" stroke-linecap="round" stroke-linejoin="round"/>
    <path d="M 320.1940612792969 6.95643424987793 C 306.07000732421875 54.30405807495117 308.2147521972656 57.76610565185547 285.2616271972656 50.54179000854492 C 256.4423522949219 28.6044979095459 254.0936737060547 18.566164016723633 241.6585693359375 25.34344482421875 C 242.4310302734375 0.3985814154148102 250.75253295898438 -14.42147445678711 251.70620727539062 -12.539498329162598 C 282.8973693847656 -9.38379192352295 297.6197204589844 -12.021098136901855 320.1940612792969 6.95643424987793" stroke-width="0.0" fill="rgb(251, 215, 255)" opacity="0.0036643213" stroke="rgb(0, 0, 0)" stroke-opacity="1.0" stroke-linecap="round" stroke-linejoin="round"/>
    <path d="M 181.71649169921875 127.93193054199219 C 190.15548706054688 191.6170654296875 158.47825622558594 197.52752685546875 94.52068328857422 230.58126831054688 C 63.153900146484375 201.14918518066406 88.98416900634766 172.23394775390625 99.70477294921875 165.79161071777344 C 105.00894927978516 161.92640686035156 120.40962219238281 139.9381866455078 109.79927825927734 142.71571350097656 C 123.05989074707031 129.72340393066406 130.77381896972656 104.4837646484375 181.71649169921875 127.93193054199219" stroke-width="0.0" fill="rgb(255, 186, 72)" opacity="0.994115" stroke="rgb(0, 0, 0)" stroke-opacity="1.0" stroke-linecap="round" stroke-linejoin="round"/>
    <path d="M 454.70062255859375 236.65240478515625 C 452.2611389160156 239.3617401123047 442.7413330078125 244.59796142578125 447.3821105957031 232.68165588378906 C 442.7246398925781 233.118896484375 444.6394958496094 245.35362243652344 445.8404235839844 249.75863647460938 C 450.340576171875 241.15380859375 443.67828369140625 241.9791259765625 452.21087646484375 238.16749572753906 C 464.9945983886719 235.3654327392578 462.74285888671875 239.1887969970703 454.70062255859375 236.65240478515625" stroke-width="0.0" fill="rgb(0, 4, 0)" opacity="0.004091351" stroke="rgb(0, 0, 0)" stroke-opacity="1.0" stroke-linecap="round" stroke-linejoin="round"/>
    <path d="M 361.26593017578125 375.9605407714844 C 357.1667785644531 389.85198974609375 345.1678466796875 393.91998291015625 325.388916015625 406.6662292480469 C 312.18756103515625 398.5537414550781 300.715576171875 403.0194091796875 325.8448181152344 413.27947998046875 C 348.1134338378906 399.806884765625 359.05224609375 389.0255432128906 352.4154052734375 354.2053527832031 C 354.0523986816406 359.3230895996094 413.81195068359375 362.5157165527344 361.26593017578125 375.9605407714844" stroke-width="0.0" fill="rgb(13, 0, 106)" opacity="0.028519329" stroke="rgb(0, 0, 0)" stroke-opacity="1.0" stroke-linecap="round" stroke-linejoin="round"/>
    <path d="M 412.7667236328125 188.6222686767578 C 390.74810791015625 210.80528259277344 385.6334228515625 208.523193359375 371.4281311035156 188.7416534423828 C 349.2312316894531 189.00643920898438 355.3683166503906 189.6571044921875 336.42803955078125 191.86312866210938 C 339.91949462890625 194.76368713378906 340.7620849609375 174.74082946777344 354.5235595703125 152.10641479492188 C 383.9654235839844 128.7718505859375 398.3262023925781 125.98937225341797 412.7667236328125 188.6222686767578" stroke-width="0.0" fill="rgb(255, 169, 115)" opacity="0.04475431" stroke="rgb(0, 0, 0)" stroke-opacity="1.0" stroke-linecap="round" stroke-linejoin="round"/>
    <path d="M 112.21372985839844 456.064697265625 C 111.23308563232422 457.04449462890625 100.98685455322266 465.7005615234375 84.59488677978516 489.59405517578125 C 60.47731018066406 481.6117858886719 63.181854248046875 462.2375793457031 56.3488655090332 415.7069396972656 C 62.603233337402344 411.9855041503906 79.83320617675781 408.8193664550781 91.80850219726562 451.4965515136719 C 93.45378875732422 436.0460205078125 100.74580383300781 438.2676086425781 112.21372985839844 456.064697265625" stroke-width="0.0" fill="rgb(237, 241, 173)" opacity="0.0" stroke="rgb(0, 0, 0)" stroke-opacity="1.0" stroke-linecap="round" stroke-linejoin="round"/>
    <path d="M 89.48172760009766 472.02191162109375 C 103.5627670288086 476.7080078125 88.8646469116211 475.8858337402344 61.7220573425293 470.0622863769531 C 31.241161346435547 495.282958984375 30.178478240966797 491.72845458984375 39.834110260009766 475.3113098144531 C 53.28696823120117 451.657470703125 67.66050720214844 450.8869323730469 76.58563232421875 443.2986755371094 C 70.0713119506836 447.17572021484375 73.49678802490234 465.8706359863281 89.48172760009766 472.02191162109375" stroke-width="0.0" fill="rgb(255, 255, 157)" opacity="0.0" stroke="rgb(0, 0, 0)" stroke-opacity="1.0" stroke-linecap="round" stroke-linejoin="round"/>
  </g>
</svg>
