<?xml version="1.0" ?>
<svg xmlns="http://www.w3.org/2000/svg" version="1.1" width="512" height="512">
  <defs/>
  <g>
    <path d="M 264.3333435058594 339.000732421875 C 206.76416015625 480.4708251953125 206.52337646484375 294.5240478515625 102.93283081054688 457.420654296875 C 83.82361602783203 412.6159362792969 13.65549087524414 258.1931457519531 92.96208953857422 146.62567138671875 C 122.72734069824219 326.2690734863281 100.99381256103516 249.9214324951172 89.74667358398438 319.68389892578125 C 108.03903198242188 349.7822570800781 68.09794616699219 328.2434997558594 264.3333435058594 339.000732421875" stroke-width="0.0" fill="rgb(231, 128, 2)" opacity="0.52456516" stroke="rgb(0, 0, 0)" stroke-opacity="1.0" stroke-linecap="round" stroke-linejoin="round"/>
    <path d="M 152.16200256347656 228.0968475341797 C 220.52426147460938 267.2740173339844 130.12301635742188 278.8421630859375 151.77322387695312 291.7296142578125 C 136.02532958984375 300.1420593261719 81.44230651855469 274.58197021484375 97.4791259765625 257.1614074707031 C 84.15560913085938 261.74237060546875 12.9210205078125 226.404541015625 196.715087890625 221.17213439941406 C 196.7239990234375 288.831298828125 170.4080352783203 279.1855163574219 152.16200256347656 228.0968475341797" stroke-width="0.0" fill="rgb(0, 0, 10)" opacity="1.0" stroke="rgb(0, 0, 0)" stroke-opacity="1.0" stroke-linecap="round" stroke-linejoin="round"/>
    <path d="M 411.0963439941406 231.6222686767578 C 435.0059509277344 332.8516845703125 265.3064880371094 232.07920837402344 397.4681396484375 228.58090209960938 C 411.9833679199219 199.73927307128906 330.5896301269531 148.38250732421875 288.9553527832031 372.0437927246094 C 227.72653198242188 231.1160125732422 336.3045959472656 237.95814514160156 405.52374267578125 225.12142944335938 C 470.6259765625 225.09243774414062 426.8526916503906 268.135009765625 411.0963439941406 231.6222686767578" stroke-width="0.0" fill="rgb(0, 0, 29)" opacity="1.0" stroke="rgb(0, 0, 0)" stroke-opacity="1.0" stroke-linecap="round" stroke-linejoin="round"/>
    <path d="M 202.99815368652344 203.2266387939453 C 172.9504852294922 286.1297302246094 231.09320068359375 253.97996520996094 117.10922241210938 245.28370666503906 C 49.41900634765625 221.10122680664062 126.49189758300781 184.45565795898438 145.35435485839844 212.18807983398438 C 184.48065185546875 242.5850830078125 193.62586975097656 250.77207946777344 204.76173400878906 211.1377410888672 C 173.04954528808594 93.13368225097656 154.66790771484375 108.3214111328125 202.99815368652344 203.2266387939453" stroke-width="0.0" fill="rgb(0, 0, 11)" opacity="1.0" stroke="rgb(0, 0, 0)" stroke-opacity="1.0" stroke-linecap="round" stroke-linejoin="round"/>
    <path d="M 519.6196899414062 291.8255615234375 C 555.1356201171875 401.8393249511719 400.54779052734375 370.1166076660156 438.26092529296875 479.84283447265625 C 283.0720520019531 335.3828430175781 339.0764465332031 446.5393981933594 336.189697265625 251.7202606201172 C 486.4757080078125 322.7319030761719 351.5601806640625 305.4970397949219 415.4998474121094 318.5670166015625 C 450.9173583984375 345.7323913574219 373.0495910644531 360.5208435058594 519.6196899414062 291.8255615234375" stroke-width="0.0" fill="rgb(255, 206, 31)" opacity="0.24125634" stroke="rgb(0, 0, 0)" stroke-opacity="1.0" stroke-linecap="round" stroke-linejoin="round"/>
    <path d="M 414.9331970214844 206.1423797607422 C 454.2042236328125 298.1626892089844 486.2242431640625 310.0863952636719 434.33209228515625 397.7423400878906 C 453.179443359375 280.5665588378906 467.1923828125 321.7007751464844 406.03350830078125 190.68576049804688 C 467.8791809082031 110.49249267578125 482.676025390625 1.4921875 476.6632385253906 73.93934631347656 C 446.6318664550781 170.75082397460938 438.1479187011719 96.30485534667969 414.9331970214844 206.1423797607422" stroke-width="0.0" fill="rgb(38, 13, 30)" opacity="0.82970583" stroke="rgb(0, 0, 0)" stroke-opacity="1.0" stroke-linecap="round" stroke-linejoin="round"/>
    <path d="M 355.18426513671875 271.5148620605469 C 305.47918701171875 335.57373046875 340.5234680175781 401.4091796875 336.68450927734375 330.57012939453125 C 281.753662109375 330.95843505859375 360.4474792480469 333.4736328125 344.3860168457031 311.0744934082031 C 309.6413269042969 255.73907470703125 282.1101989746094 257.9648132324219 298.4399108886719 230.59153747558594 C 338.58099365234375 223.259521484375 356.76202392578125 245.6197052001953 355.18426513671875 271.5148620605469" stroke-width="0.0" fill="rgb(255, 246, 195)" opacity="0.99787617" stroke="rgb(0, 0, 0)" stroke-opacity="1.0" stroke-linecap="round" stroke-linejoin="round"/>
    <path d="M 381.5822448730469 274.4074401855469 C 411.4849548339844 266.61151123046875 389.56549072265625 244.46583557128906 432.1333312988281 231.69305419921875 C 399.28350830078125 203.9935760498047 382.0238342285156 213.45323181152344 350.76263427734375 230.13406372070312 C 337.31488037109375 212.3285369873047 294.6963195800781 202.79345703125 310.4936828613281 236.57273864746094 C 348.3638610839844 237.1871337890625 331.0906677246094 235.78692626953125 381.5822448730469 274.4074401855469" stroke-width="0.0" fill="rgb(0, 0, 13)" opacity="0.99915546" stroke="rgb(0, 0, 0)" stroke-opacity="1.0" stroke-linecap="round" stroke-linejoin="round"/>
    <path d="M 83.230712890625 76.42924499511719 C 132.27789306640625 174.30345153808594 107.03450775146484 94.53129577636719 187.76779174804688 103.1245346069336 C 6.229973793029785 140.58389282226562 117.4106674194336 251.16470336914062 28.894283294677734 76.9179458618164 C -5.67999792098999 -22.467880249023438 46.93800354003906 -63.06489944458008 176.6749267578125 121.73152160644531 C 13.56383991241455 56.039703369140625 62.68946075439453 3.2768495082855225 83.230712890625 76.42924499511719" stroke-width="0.0" fill="rgb(0, 0, 10)" opacity="1.0" stroke="rgb(0, 0, 0)" stroke-opacity="1.0" stroke-linecap="round" stroke-linejoin="round"/>
    <path d="M 254.9046630859375 313.00927734375 C 229.12936401367188 318.8426513671875 332.9259948730469 283.556884765625 290.0340576171875 318.93804931640625 C 44.62590789794922 385.0109558105469 170.12168884277344 327.9849548339844 182.774658203125 266.1099853515625 C 166.87391662597656 223.66204833984375 189.35472106933594 246.27955627441406 196.7559814453125 255.3648681640625 C 225.9818878173828 272.64056396484375 240.42184448242188 273.24053955078125 254.9046630859375 313.00927734375" stroke-width="0.0" fill="rgb(0, 0, 23)" opacity="1.0" stroke="rgb(0, 0, 0)" stroke-opacity="1.0" stroke-linecap="round" stroke-linejoin="round"/>
    <path d="M 375.9746398925781 250.72048950195312 C 391.8061218261719 252.5894317626953 383.6654052734375 246.6090850830078 381.1650695800781 241.09483337402344 C 382.12103271484375 258.7162170410156 329.3184509277344 282.2845764160156 310.76177978515625 241.25515747070312 C 355.3992004394531 240.4015655517578 361.75372314453125 275.55145263671875 378.767578125 246.12698364257812 C 388.9806823730469 252.3455047607422 385.9950256347656 258.73968505859375 375.9746398925781 250.72048950195312" stroke-width="0.0" fill="rgb(255, 224, 77)" opacity="0.7341454" stroke="rgb(0, 0, 0)" stroke-opacity="1.0" stroke-linecap="round" stroke-linejoin="round"/>
    <path d="M 496.1849670410156 -17.31284523010254 C 339.5259094238281 88.65364837646484 391.4400939941406 107.60421752929688 241.58164978027344 104.62833404541016 C 126.8533706665039 108.32413482666016 187.9781036376953 62.96309280395508 5.801346302032471 -11.51810073852539 C 231.3064422607422 32.28866958618164 139.89129638671875 70.15372467041016 321.5585632324219 81.25086975097656 C 381.99005126953125 97.93729400634766 408.53228759765625 22.735702514648438 496.1849670410156 -17.31284523010254" stroke-width="0.0" fill="rgb(2, 2, 10)" opacity="0.915724" stroke="rgb(0, 0, 0)" stroke-opacity="1.0" stroke-linecap="round" stroke-linejoin="round"/>
    <path d="M 338.3266906738281 390.3214416503906 C 138.96005249023438 461.1583251953125 237.4818572998047 316.9687194824219 154.82614135742188 409.76043701171875 C 136.37733459472656 415.0595703125 190.39527893066406 359.42926025390625 151.18946838378906 365.6763916015625 C 139.99102783203125 341.1843566894531 142.6066131591797 296.0521240234375 180.35931396484375 302.92919921875 C 281.7210693359375 323.74542236328125 348.03106689453125 311.61492919921875 338.3266906738281 390.3214416503906" stroke-width="0.0" fill="rgb(247, 230, 250)" opacity="0.99081904" stroke="rgb(0, 0, 0)" stroke-opacity="1.0" stroke-linecap="round" stroke-linejoin="round"/>
    <path d="M 473.91412353515625 61.98954772949219 C 469.80157470703125 -3.8872580528259277 490.2574462890625 -12.595867156982422 502.4684143066406 20.739776611328125 C 490.02081298828125 64.80349731445312 489.4495544433594 85.92296600341797 460.3279724121094 115.17044830322266 C 468.95654296875 -1.3669759035110474 445.3663024902344 -39.32646942138672 475.539306640625 -59.0102424621582 C 483.4615173339844 13.428838729858398 496.51177978515625 49.08235549926758 473.91412353515625 61.98954772949219" stroke-width="0.0" fill="rgb(0, 11, 9)" opacity="0.9719761" stroke="rgb(0, 0, 0)" stroke-opacity="1.0" stroke-linecap="round" stroke-linejoin="round"/>
    <path d="M 461.7858581542969 37.350242614746094 C 352.612548828125 139.3465576171875 445.5118408203125 125.51049041748047 423.980224609375 155.44956970214844 C 314.7997131347656 57.629920959472656 324.3345031738281 154.73390197753906 363.337158203125 63.677860260009766 C 348.11932373046875 123.97840881347656 392.239501953125 46.83124923706055 332.17474365234375 95.33295440673828 C 349.35302734375 97.91865539550781 440.563232421875 -11.756318092346191 461.7858581542969 37.350242614746094" stroke-width="0.0" fill="rgb(0, 0, 14)" opacity="1.0" stroke="rgb(0, 0, 0)" stroke-opacity="1.0" stroke-linecap="round" stroke-linejoin="round"/>
    <path d="M 480.2587890625 385.3254089355469 C 458.6600036621094 401.1757507324219 520.2428588867188 536.59521484375 361.6554260253906 533.3655395507812 C 328.7508850097656 346.78729248046875 428.212890625 453.665771484375 411.3114929199219 364.6650695800781 C 535.588134765625 466.515625 343.0653381347656 377.5714416503906 427.9256896972656 335.86724853515625 C 503.4244689941406 366.5872802734375 507.4986877441406 382.4261474609375 480.2587890625 385.3254089355469" stroke-width="0.0" fill="rgb(255, 232, 208)" opacity="0.7433913" stroke="rgb(0, 0, 0)" stroke-opacity="1.0" stroke-linecap="round" stroke-linejoin="round"/>
    <path d="M 481.4517822265625 13.231608390808105 C 464.9787902832031 3.955155849456787 509.4945373535156 66.39473724365234 430.022216796875 148.52438354492188 C 378.63525390625 119.7227554321289 423.91876220703125 177.5123748779297 431.3086853027344 25.503662109375 C 465.75396728515625 -1.986556053161621 457.82110595703125 15.107075691223145 454.6131286621094 82.61946868896484 C 444.88226318359375 12.46225357055664 443.50775146484375 -15.769200325012207 481.4517822265625 13.231608390808105" stroke-width="0.0" fill="rgb(0, 0, 7)" opacity="1.0" stroke="rgb(0, 0, 0)" stroke-opacity="1.0" stroke-linecap="round" stroke-linejoin="round"/>
    <path d="M 403.47821044921875 415.3789978027344 C 420.7491149902344 448.7491455078125 422.9190368652344 508.4172668457031 327.8861999511719 527.632568359375 C 212.62391662597656 527.1463623046875 167.204833984375 443.2947082519531 192.1138916015625 379.3088684082031 C 249.9921417236328 432.2630615234375 259.8010559082031 426.996337890625 212.2786407470703 408.54119873046875 C 237.1019287109375 394.8148498535156 333.90338134765625 429.6859130859375 403.47821044921875 415.3789978027344" stroke-width="0.0" fill="rgb(135, 89, 5)" opacity="0.6171566" stroke="rgb(0, 0, 0)" stroke-opacity="1.0" stroke-linecap="round" stroke-linejoin="round"/>
    <path d="M 195.03179931640625 336.0628967285156 C 271.3720397949219 287.0771179199219 297.11920166015625 295.98291015625 217.91354370117188 311.39434814453125 C 160.42425537109375 276.6500549316406 228.6183624267578 278.7862243652344 223.95852661132812 223.78598022460938 C 161.63832092285156 222.41712951660156 175.39471435546875 272.09332275390625 151.8302764892578 289.7569885253906 C 132.69346618652344 352.6275329589844 132.97401428222656 303.7738952636719 195.03179931640625 336.0628967285156" stroke-width="0.0" fill="rgb(253, 218, 251)" opacity="0.9951482" stroke="rgb(0, 0, 0)" stroke-opacity="1.0" stroke-linecap="round" stroke-linejoin="round"/>
    <path d="M 573.054931640625 405.45819091796875 C 530.5487670898438 532.297607421875 474.986572265625 445.90301513671875 463.8157043457031 373.26153564453125 C 439.7745361328125 388.5551452636719 451.1030578613281 385.8082580566406 440.1556396484375 382.36407470703125 C 464.398681640625 388.1814270019531 414.92413330078125 390.67205810546875 471.226318359375 337.981201171875 C 575.0176391601562 384.9254455566406 493.7203369140625 375.3189697265625 573.054931640625 405.45819091796875" stroke-width="0.0" fill="rgb(254, 255, 255)" opacity="0.97764355" stroke="rgb(0, 0, 0)" stroke-opacity="1.0" stroke-linecap="round" stroke-linejoin="round"/>
    <path d="M 332.85321044921875 370.9744567871094 C 323.29107666015625 394.6387023925781 312.2109069824219 425.2923278808594 261.0016174316406 408.3675537109375 C 201.3477783203125 427.70428466796875 194.57589721679688 384.3958740234375 208.31678771972656 384.9057922363281 C 214.54034423828125 422.6566467285156 226.9512176513672 396.6870422363281 282.17413330078125 264.7716064453125 C 303.14703369140625 392.93463134765625 361.81939697265625 371.4245910644531 332.85321044921875 370.9744567871094" stroke-width="0.0" fill="rgb(0, 3, 16)" opacity="0.9991737" stroke="rgb(0, 0, 0)" stroke-opacity="1.0" stroke-linecap="round" stroke-linejoin="round"/>
    <path d="M 34.942909240722656 3.7189064025878906 C 11.634376525878906 34.800899505615234 31.471715927124023 134.42404174804688 104.21216583251953 178.15939331054688 C 78.91305541992188 272.2456359863281 31.584697723388672 35.96381759643555 25.596763610839844 70.17501831054688 C 23.861188888549805 -8.083608627319336 16.89292335510254 -27.84002685546875 118.43574523925781 25.427915573120117 C 167.81228637695312 105.23860168457031 82.13026428222656 -5.704237461090088 34.942909240722656 3.7189064025878906" stroke-width="0.0" fill="rgb(140, 87, 64)" opacity="0.41017473" stroke="rgb(0, 0, 0)" stroke-opacity="1.0" stroke-linecap="round" stroke-linejoin="round"/>
    <path d="M 218.13768005371094 26.452518463134766 C 175.11512756347656 42.38629913330078 179.2770233154297 30.66421890258789 181.2703857421875 80.95622253417969 C 127.11365509033203 61.88850784301758 116.05233764648438 48.948486328125 68.99537658691406 14.363873481750488 C 76.43536376953125 -45.76163101196289 76.13294982910156 -34.876182556152344 164.88751220703125 -46.61921310424805 C 207.40464782714844 -30.67697525024414 218.79981994628906 -27.280948638916016 218.13768005371094 26.452518463134766" stroke-width="0.0" fill="rgb(255, 254, 255)" opacity="1.0" stroke="rgb(0, 0, 0)" stroke-opacity="1.0" stroke-linecap="round" stroke-linejoin="round"/>
    <path d="M 193.22023010253906 263.6150817871094 C 178.634765625 393.37847900390625 169.47146606445312 390.1586608886719 120.6727066040039 382.20758056640625 C 82.60594940185547 333.1316223144531 92.8224105834961 322.9450378417969 72.58428192138672 322.0343322753906 C 63.50206756591797 273.3868713378906 66.20416259765625 252.3651885986328 94.88025665283203 239.96115112304688 C 111.37709045410156 295.38275146484375 118.58242797851562 282.4742736816406 193.22023010253906 263.6150817871094" stroke-width="0.0" fill="rgb(255, 193, 52)" opacity="1.0" stroke="rgb(0, 0, 0)" stroke-opacity="1.0" stroke-linecap="round" stroke-linejoin="round"/>
    <path d="M 95.17826843261719 252.63504028320312 C 89.61629486083984 243.71946716308594 87.52570343017578 251.87124633789062 99.6214370727539 238.34873962402344 C 70.65353393554688 250.77459716796875 81.01756286621094 301.6176452636719 63.88178253173828 255.99481201171875 C 35.59657287597656 146.1049346923828 60.98711013793945 119.029296875 72.53533935546875 210.77464294433594 C 41.1224250793457 245.25721740722656 78.11817932128906 242.735107421875 95.17826843261719 252.63504028320312" stroke-width="0.0" fill="rgb(255, 251, 248)" opacity="0.9898883" stroke="rgb(0, 0, 0)" stroke-opacity="1.0" stroke-linecap="round" stroke-linejoin="round"/>
    <path d="M 315.2992248535156 61.02370071411133 C 265.5439758300781 174.91322326660156 286.5444641113281 210.1232452392578 219.8651580810547 231.97666931152344 C 142.64730834960938 236.5167999267578 139.6414337158203 221.03707885742188 138.55307006835938 99.57870483398438 C 140.4655303955078 -3.7377820014953613 236.70053100585938 11.29314136505127 231.79811096191406 51.80954360961914 C 155.99806213378906 41.172550201416016 232.6494140625 4.183349132537842 315.2992248535156 61.02370071411133" stroke-width="0.0" fill="rgb(201, 110, 0)" opacity="1.0" stroke="rgb(0, 0, 0)" stroke-opacity="1.0" stroke-linecap="round" stroke-linejoin="round"/>
    <path d="M 323.662353515625 355.1897888183594 C 307.0863037109375 343.4907531738281 340.583984375 361.0656433105469 337.716064453125 364.1966247558594 C 299.2266845703125 378.6421813964844 243.53118896484375 423.197509765625 258.5345153808594 333.82733154296875 C 273.335693359375 322.3919677734375 317.56219482421875 264.59442138671875 332.34234619140625 303.73358154296875 C 350.8594665527344 319.48614501953125 313.42095947265625 368.413818359375 323.662353515625 355.1897888183594" stroke-width="0.0" fill="rgb(149, 197, 251)" opacity="0.95955867" stroke="rgb(0, 0, 0)" stroke-opacity="1.0" stroke-linecap="round" stroke-linejoin="round"/>
    <path d="M 17.02539825439453 434.5453796386719 C 14.95538330078125 428.8338928222656 128.3369140625 378.63519287109375 51.080482482910156 370.4193115234375 C 2.8540241718292236 424.4505615234375 10.082961082458496 392.9299621582031 99.2770767211914 355.1336364746094 C -48.607059478759766 357.9978332519531 -14.741515159606934 352.1565856933594 87.11837005615234 358.2354431152344 C 98.98789978027344 396.1181945800781 98.19424438476562 380.53948974609375 17.02539825439453 434.5453796386719" stroke-width="0.0" fill="rgb(86, 115, 19)" opacity="0.0" stroke="rgb(0, 0, 0)" stroke-opacity="1.0" stroke-linecap="round" stroke-linejoin="round"/>
    <path d="M 317.4373474121094 402.04132080078125 C 325.13330078125 416.67236328125 305.94964599609375 449.4791564941406 303.2622375488281 407.9166564941406 C 328.0321350097656 397.8157043457031 322.3751525878906 394.8710021972656 322.30767822265625 384.75482177734375 C 320.103271484375 409.1954345703125 303.6916198730469 386.9789123535156 340.4598693847656 395.2963562011719 C 339.5806579589844 376.56353759765625 337.31365966796875 380.812744140625 317.4373474121094 402.04132080078125" stroke-width="0.0" fill="rgb(79, 106, 116)" opacity="0.63485914" stroke="rgb(0, 0, 0)" stroke-opacity="1.0" stroke-linecap="round" stroke-linejoin="round"/>
    <path d="M 427.8344421386719 60.21466827392578 C 430.43914794921875 53.765438079833984 453.8771667480469 36.73908615112305 410.3773193359375 109.7860336303711 C 425.3471984863281 165.73805236816406 409.7008056640625 111.03997039794922 369.0295715332031 118.48657989501953 C 402.06201171875 112.74872589111328 409.9478759765625 87.8097915649414 422.5078125 64.74259948730469 C 412.0026550292969 75.36857604980469 429.0836486816406 57.45118713378906 427.8344421386719 60.21466827392578" stroke-width="0.0" fill="rgb(202, 64, 113)" opacity="0.65812296" stroke="rgb(0, 0, 0)" stroke-opacity="1.0" stroke-linecap="round" stroke-linejoin="round"/>
    <path d="M 192.8690948486328 78.93095397949219 C 179.8283233642578 85.26651763916016 156.81764221191406 63.470054626464844 123.60781860351562 127.04672241210938 C 153.65594482421875 143.76316833496094 174.1227569580078 100.32003021240234 140.5474090576172 72.97516632080078 C 98.09610748291016 31.61848258972168 137.85604858398438 58.962398529052734 165.1381378173828 83.5392074584961 C 181.22763061523438 66.40354919433594 202.98512268066406 78.49723052978516 192.8690948486328 78.93095397949219" stroke-width="0.0" fill="rgb(191, 113, 0)" opacity="0.7370563" stroke="rgb(0, 0, 0)" stroke-opacity="1.0" stroke-linecap="round" stroke-linejoin="round"/>
    <path d="M 531.8523559570312 440.48583984375 C 531.2156982421875 467.00396728515625 531.2875366210938 471.57672119140625 530.0317993164062 456.3684997558594 C 525.16552734375 441.357666015625 509.0548095703125 420.0813293457031 497.6628112792969 431.413818359375 C 498.2452697753906 431.89404296875 504.391357421875 431.19775390625 542.1678466796875 429.33184814453125 C 524.2904663085938 425.6336975097656 529.3707275390625 430.8746337890625 531.8523559570312 440.48583984375" stroke-width="0.0" fill="rgb(244, 208, 194)" opacity="0.0" stroke="rgb(0, 0, 0)" stroke-opacity="1.0" stroke-linecap="round" stroke-linejoin="round"/>
    <path d="M 390.2124328613281 233.3806610107422 C 404.63140869140625 272.37451171875 403.8512268066406 302.60504150390625 359.7074279785156 265.2890625 C 328.0567321777344 227.2760467529297 319.3383483886719 224.97425842285156 312.9506530761719 224.4778594970703 C 329.5444030761719 234.2664031982422 333.27496337890625 227.75120544433594 319.0292663574219 225.4473114013672 C 346.22076416015625 223.64439392089844 305.4674377441406 227.34849548339844 390.2124328613281 233.3806610107422" stroke-width="0.0" fill="rgb(0, 0, 4)" opacity="1.0" stroke="rgb(0, 0, 0)" stroke-opacity="1.0" stroke-linecap="round" stroke-linejoin="round"/>
    <path d="M 459.3560485839844 419.5732421875 C 443.7745666503906 420.4568786621094 442.8437805175781 429.5294189453125 435.595947265625 474.3116149902344 C 402.6845703125 466.0741271972656 402.77667236328125 452.257568359375 419.23931884765625 415.5208740234375 C 418.6460266113281 367.9047546386719 433.159912109375 348.2149963378906 438.28643798828125 362.81439208984375 C 462.5608825683594 374.09283447265625 464.02911376953125 390.1737976074219 459.3560485839844 419.5732421875" stroke-width="0.0" fill="rgb(255, 232, 224)" opacity="0.7577842" stroke="rgb(0, 0, 0)" stroke-opacity="1.0" stroke-linecap="round" stroke-linejoin="round"/>
    <path d="M 164.98013305664062 394.5344543457031 C 176.66102600097656 387.9286804199219 195.17478942871094 399.452392578125 184.52435302734375 434.0915222167969 C 191.03172302246094 456.03045654296875 149.34561157226562 468.88330078125 119.7608871459961 451.1065979003906 C 160.1041717529297 381.6820983886719 151.9423828125 360.5243225097656 195.15765380859375 376.558837890625 C 205.46400451660156 398.03143310546875 187.5745849609375 406.5929260253906 164.98013305664062 394.5344543457031" stroke-width="0.0" fill="rgb(249, 255, 202)" opacity="0.91927975" stroke="rgb(0, 0, 0)" stroke-opacity="1.0" stroke-linecap="round" stroke-linejoin="round"/>
    <path d="M 442.01678466796875 405.3794250488281 C 420.7364501953125 417.17999267578125 426.4552917480469 446.430908203125 425.6335144042969 423.9988098144531 C 347.5694274902344 407.88824462890625 345.22882080078125 361.958740234375 390.5502014160156 341.1282958984375 C 397.3925476074219 286.21051025390625 399.2369384765625 204.30487060546875 480.6500244140625 240.4300079345703 C 492.864990234375 329.7822570800781 473.8653564453125 335.4761047363281 442.01678466796875 405.3794250488281" stroke-width="0.0" fill="rgb(252, 215, 155)" opacity="1.0" stroke="rgb(0, 0, 0)" stroke-opacity="1.0" stroke-linecap="round" stroke-linejoin="round"/>
    <path d="M 138.74127197265625 101.60828399658203 C 153.58729553222656 116.81529998779297 141.08018493652344 91.15693664550781 127.90912628173828 122.91703033447266 C 116.56159210205078 153.0282745361328 101.57617950439453 105.97896575927734 69.34097290039062 78.61751556396484 C 60.31686019897461 25.970840454101562 71.15023803710938 34.73215103149414 90.63255310058594 69.44257354736328 C 98.41598510742188 92.38756561279297 115.70948028564453 94.23651885986328 138.74127197265625 101.60828399658203" stroke-width="0.0" fill="rgb(179, 105, 93)" opacity="0.8103868" stroke="rgb(0, 0, 0)" stroke-opacity="1.0" stroke-linecap="round" stroke-linejoin="round"/>
    <path d="M 331.53125 389.8787841796875 C 325.07623291015625 392.6337890625 324.7433166503906 389.04144287109375 344.0811462402344 384.6783142089844 C 330.5857238769531 390.96356201171875 338.82098388671875 386.51422119140625 330.36273193359375 367.9657897949219 C 354.0751037597656 295.72320556640625 303.3977355957031 303.0992126464844 315.97113037109375 361.9958801269531 C 323.51708984375 371.6947021484375 345.9718017578125 376.3390197753906 331.53125 389.8787841796875" stroke-width="0.0" fill="rgb(44, 25, 67)" opacity="0.94845515" stroke="rgb(0, 0, 0)" stroke-opacity="1.0" stroke-linecap="round" stroke-linejoin="round"/>
    <path d="M 134.14761352539062 363.8333740234375 C 137.48446655273438 390.6630554199219 130.05911254882812 400.4111022949219 113.00886535644531 389.9978942871094 C 80.0755844116211 387.6435241699219 76.96418762207031 365.1042175292969 77.59675598144531 348.85595703125 C 83.54906463623047 311.030029296875 96.10542297363281 339.6933898925781 104.11648559570312 347.95123291015625 C 111.56261444091797 356.4658203125 119.46002197265625 362.6617736816406 134.14761352539062 363.8333740234375" stroke-width="0.0" fill="rgb(250, 165, 9)" opacity="0.94761926" stroke="rgb(0, 0, 0)" stroke-opacity="1.0" stroke-linecap="round" stroke-linejoin="round"/>
    <path d="M 359.9911804199219 59.10076141357422 C 315.0849609375 222.2718048095703 330.1723327636719 263.0660705566406 244.20907592773438 251.59310913085938 C 240.87246704101562 177.13426208496094 251.70631408691406 137.14549255371094 247.51075744628906 145.8345184326172 C 277.5763854980469 149.61351013183594 292.0194091796875 138.9267578125 249.8723907470703 61.98614501953125 C 191.5688934326172 5.548498630523682 383.1756591796875 -3.475179672241211 359.9911804199219 59.10076141357422" stroke-width="0.0" fill="rgb(205, 105, 0)" opacity="1.0" stroke="rgb(0, 0, 0)" stroke-opacity="1.0" stroke-linecap="round" stroke-linejoin="round"/>
    <path d="M 429.85406494140625 83.3326416015625 C 415.7012023925781 97.54476165771484 402.6561279296875 125.36589050292969 418.02349853515625 113.17074584960938 C 403.84149169921875 98.4926986694336 392.1067199707031 89.28934478759766 409.1309509277344 98.12902069091797 C 412.97662353515625 77.97233581542969 417.2659912109375 53.39295959472656 462.7981872558594 34.04625701904297 C 438.1293640136719 78.92210388183594 429.26947021484375 64.33943176269531 429.85406494140625 83.3326416015625" stroke-width="0.0" fill="rgb(206, 175, 99)" opacity="0.9555796" stroke="rgb(0, 0, 0)" stroke-opacity="1.0" stroke-linecap="round" stroke-linejoin="round"/>
    <path d="M 135.2078094482422 152.99853515625 C 119.04290771484375 147.30833435058594 115.35498809814453 160.43545532226562 119.5774154663086 148.15065002441406 C 107.4515609741211 114.03411102294922 109.38557434082031 109.47229766845703 98.31294250488281 102.48519134521484 C 80.81692504882812 98.15084838867188 64.89488220214844 49.885921478271484 71.69329833984375 45.04304504394531 C 132.14768981933594 115.17198181152344 143.5521240234375 138.3090057373047 135.2078094482422 152.99853515625" stroke-width="0.0" fill="rgb(190, 150, 95)" opacity="0.9730745" stroke="rgb(0, 0, 0)" stroke-opacity="1.0" stroke-linecap="round" stroke-linejoin="round"/>
    <path d="M 544.7001342773438 452.1306457519531 C 520.4595336914062 517.4486083984375 511.7738037109375 524.1069946289062 489.2046203613281 547.3740234375 C 464.6849365234375 529.7809448242188 453.2333984375 512.20947265625 438.72613525390625 474.4198303222656 C 442.53961181640625 453.7479553222656 462.3146057128906 453.2206115722656 482.6176452636719 452.8277587890625 C 544.0364379882812 442.73974609375 554.6885986328125 430.2247009277344 544.7001342773438 452.1306457519531" stroke-width="0.0" fill="rgb(254, 210, 160)" opacity="0.0" stroke="rgb(0, 0, 0)" stroke-opacity="1.0" stroke-linecap="round" stroke-linejoin="round"/>
    <path d="M 262.667724609375 305.7658386230469 C 266.1833190917969 307.28961181640625 276.8656005859375 324.0928649902344 249.4724578857422 342.3476867675781 C 232.7540283203125 305.7972412109375 199.5042266845703 297.77294921875 209.33302307128906 294.23175048828125 C 299.5508117675781 297.51190185546875 301.1278991699219 289.0323791503906 273.9518127441406 311.1327819824219 C 254.03688049316406 313.2341613769531 235.8568572998047 324.8024597167969 262.667724609375 305.7658386230469" stroke-width="0.0" fill="rgb(0, 0, 17)" opacity="1.0" stroke="rgb(0, 0, 0)" stroke-opacity="1.0" stroke-linecap="round" stroke-linejoin="round"/>
    <path d="M 430.44818115234375 145.84310913085938 C 448.4143371582031 162.79612731933594 443.0290832519531 176.93756103515625 427.1673889160156 167.06507873535156 C 414.29315185546875 166.0149688720703 421.3468017578125 141.90982055664062 410.4432067871094 136.92857360839844 C 407.26190185546875 154.3163604736328 409.2875061035156 144.1316375732422 404.5355529785156 122.5234603881836 C 431.8219299316406 128.3765106201172 432.26043701171875 132.1004638671875 430.44818115234375 145.84310913085938" stroke-width="0.0" fill="rgb(6, 5, 0)" opacity="0.9491713" stroke="rgb(0, 0, 0)" stroke-opacity="1.0" stroke-linecap="round" stroke-linejoin="round"/>
    <path d="M 423.3761291503906 512.275146484375 C 465.1747741699219 540.054931640625 470.4731750488281 544.022216796875 433.0159606933594 527.0911254882812 C 424.0031433105469 494.8133239746094 429.7176208496094 484.1534423828125 425.3332214355469 495.0347900390625 C 415.8456115722656 469.987548828125 414.2648620605469 460.72711181640625 413.0924377441406 459.31475830078125 C 427.28387451171875 470.2528076171875 422.5899963378906 489.45587158203125 423.3761291503906 512.275146484375" stroke-width="0.0" fill="rgb(254, 167, 115)" opacity="0.58848524" stroke="rgb(0, 0, 0)" stroke-opacity="1.0" stroke-linecap="round" stroke-linejoin="round"/>
    <path d="M 432.68231201171875 40.27183151245117 C 465.2684631347656 30.69102668762207 482.1484375 42.89444351196289 467.5115051269531 24.55511474609375 C 483.18121337890625 -10.811504364013672 455.1358642578125 -10.009894371032715 438.2384033203125 -6.514143466949463 C 447.3179931640625 -14.41090202331543 451.8768005371094 -19.408233642578125 471.21392822265625 -17.154891967773438 C 475.2849426269531 -19.628192901611328 477.3829040527344 -15.233241081237793 432.68231201171875 40.27183151245117" stroke-width="0.0" fill="rgb(0, 4, 1)" opacity="0.54183954" stroke="rgb(0, 0, 0)" stroke-opacity="1.0" stroke-linecap="round" stroke-linejoin="round"/>
    <path d="M 192.34133911132812 244.03025817871094 C 189.10787963867188 260.03765869140625 178.29441833496094 263.3907470703125 170.27972412109375 273.3840637207031 C 145.0955047607422 283.10595703125 156.56240844726562 279.1409606933594 160.8241729736328 252.1932373046875 C 159.4112548828125 250.5579376220703 173.6304931640625 233.88604736328125 172.74842834472656 227.27330017089844 C 182.56590270996094 238.6227569580078 194.77944946289062 230.89967346191406 192.34133911132812 244.03025817871094" stroke-width="0.0" fill="rgb(255, 230, 87)" opacity="0.98468107" stroke="rgb(0, 0, 0)" stroke-opacity="1.0" stroke-linecap="round" stroke-linejoin="round"/>
    <path d="M 193.98373413085938 382.2828063964844 C 170.8741912841797 406.42816162109375 192.6710968017578 426.3533020019531 244.16696166992188 514.29638671875 C 124.95608520507812 526.4559326171875 107.3822021484375 534.494384765625 97.3398666381836 469.61798095703125 C 102.31522369384766 346.6594543457031 145.66505432128906 342.0422058105469 161.93231201171875 392.3237609863281 C 190.28347778320312 416.1126403808594 218.40353393554688 410.48077392578125 193.98373413085938 382.2828063964844" stroke-width="0.0" fill="rgb(243, 164, 24)" opacity="0.7734918" stroke="rgb(0, 0, 0)" stroke-opacity="1.0" stroke-linecap="round" stroke-linejoin="round"/>
    <path d="M 211.12857055664062 229.485107421875 C 221.15538024902344 234.54925537109375 199.77346801757812 249.9593505859375 193.30633544921875 265.8934631347656 C 184.36485290527344 236.4911346435547 174.74472045898438 233.8041534423828 190.59471130371094 228.1227264404297 C 189.7886199951172 239.13925170898438 197.38031005859375 234.61123657226562 190.6995849609375 243.72787475585938 C 179.27828979492188 238.88258361816406 183.39352416992188 218.53819274902344 211.12857055664062 229.485107421875" stroke-width="0.0" fill="rgb(255, 198, 127)" opacity="1.0" stroke="rgb(0, 0, 0)" stroke-opacity="1.0" stroke-linecap="round" stroke-linejoin="round"/>
    <path d="M 192.007568359375 376.8946228027344 C 238.84439086914062 377.1424865722656 247.75987243652344 398.2284240722656 203.03443908691406 407.01800537109375 C 171.85494995117188 379.0939025878906 171.49917602539062 356.4360046386719 170.37741088867188 338.3082580566406 C 178.5743865966797 318.7933349609375 184.94064331054688 301.6288146972656 195.9801025390625 339.9017028808594 C 185.88951110839844 349.093017578125 193.95999145507812 334.3777160644531 192.007568359375 376.8946228027344" stroke-width="0.0" fill="rgb(9, 4, 23)" opacity="0.9880641" stroke="rgb(0, 0, 0)" stroke-opacity="1.0" stroke-linecap="round" stroke-linejoin="round"/>
    <path d="M 75.3287582397461 431.1655578613281 C 58.50606155395508 449.488037109375 66.74327850341797 435.4619140625 49.92615509033203 484.2825622558594 C 67.35578918457031 458.2416687011719 49.982540130615234 451.08880615234375 84.17646026611328 443.5657653808594 C 56.94303894042969 438.3180847167969 75.05015563964844 442.7691955566406 72.91044616699219 433.2732238769531 C 57.805973052978516 418.4048767089844 83.72688293457031 435.68023681640625 75.3287582397461 431.1655578613281" stroke-width="0.0" fill="rgb(209, 255, 227)" opacity="0.0" stroke="rgb(0, 0, 0)" stroke-opacity="1.0" stroke-linecap="round" stroke-linejoin="round"/>
    <path d="M 448.8714294433594 431.16937255859375 C 466.289306640625 502.01605224609375 488.7156677246094 495.76806640625 458.3815002441406 471.8785400390625 C 443.38055419921875 464.3543701171875 446.7232360839844 443.0770568847656 452.50384521484375 439.7214660644531 C 429.3327331542969 441.3224792480469 431.49371337890625 433.4963073730469 431.3417663574219 433.72674560546875 C 449.69732666015625 420.9252014160156 470.7548828125 430.9433288574219 448.8714294433594 431.16937255859375" stroke-width="0.0" fill="rgb(255, 247, 155)" opacity="0.0" stroke="rgb(0, 0, 0)" stroke-opacity="1.0" stroke-linecap="round" stroke-linejoin="round"/>
    <path d="M 431.1671447753906 393.6655578613281 C 485.7911071777344 363.9852294921875 461.6123962402344 391.94049072265625 446.4811706542969 378.9913330078125 C 453.425537109375 362.998291015625 449.3166198730469 351.025390625 434.7028503417969 344.1688232421875 C 400.0814514160156 327.9608154296875 378.9453125 325.5458679199219 406.7431945800781 343.4134826660156 C 429.33111572265625 327.4180603027344 428.6764831542969 374.7200927734375 431.1671447753906 393.6655578613281" stroke-width="0.0" fill="rgb(255, 175, 236)" opacity="0.067613855" stroke="rgb(0, 0, 0)" stroke-opacity="1.0" stroke-linecap="round" stroke-linejoin="round"/>
    <path d="M 46.69538879394531 116.1805648803711 C 43.21051025390625 110.66768646240234 14.603680610656738 126.14668273925781 17.1697998046875 148.9571990966797 C 33.1093635559082 141.26724243164062 -5.336578845977783 139.96221923828125 22.098834991455078 119.40180969238281 C 18.38731575012207 113.46165466308594 8.307507514953613 87.61051940917969 15.693017959594727 107.80843353271484 C 38.42720413208008 111.04119873046875 37.63477325439453 107.68260192871094 46.69538879394531 116.1805648803711" stroke-width="0.0" fill="rgb(255, 250, 255)" opacity="0.0068049813" stroke="rgb(0, 0, 0)" stroke-opacity="1.0" stroke-linecap="round" stroke-linejoin="round"/>
    <path d="M 34.592830657958984 473.8229675292969 C 41.35198211669922 488.6637878417969 40.32416915893555 489.339599609375 36.37797546386719 493.81097412109375 C 15.073272705078125 541.8907470703125 -11.341614723205566 499.2606506347656 39.5782356262207 452.8228454589844 C 24.155134201049805 423.04949951171875 5.8118181228637695 421.6976013183594 -4.133742332458496 438.87432861328125 C 38.34532165527344 468.3642883300781 58.72820281982422 470.30712890625 34.592830657958984 473.8229675292969" stroke-width="0.0" fill="rgb(255, 248, 255)" opacity="0.006370671" stroke="rgb(0, 0, 0)" stroke-opacity="1.0" stroke-linecap="round" stroke-linejoin="round"/>
    <path d="M 132.27151489257812 241.62953186035156 C 126.59185028076172 232.45968627929688 134.74058532714844 240.37905883789062 114.28123474121094 236.68087768554688 C 132.2157440185547 241.9962615966797 127.39091491699219 232.91091918945312 103.12152099609375 250.07168579101562 C 119.14936065673828 233.69671630859375 122.18189239501953 222.92282104492188 124.14338684082031 241.41976928710938 C 135.74842834472656 224.2418670654297 125.59284973144531 233.91363525390625 132.27151489257812 241.62953186035156" stroke-width="0.0" fill="rgb(105, 115, 248)" opacity="0.6235929" stroke="rgb(0, 0, 0)" stroke-opacity="1.0" stroke-linecap="round" stroke-linejoin="round"/>
    <path d="M 313.71881103515625 0.5961422324180603 C 297.83349609375 20.51486587524414 290.30517578125 42.67515182495117 287.7222595214844 48.372047424316406 C 245.68887329101562 53.83167266845703 231.94517517089844 46.99298095703125 225.09620666503906 22.5732479095459 C 233.49755859375 12.079519271850586 251.26364135742188 -7.7335357666015625 270.127197265625 -33.439849853515625 C 302.7531433105469 -23.981281280517578 303.784423828125 -10.830950736999512 313.71881103515625 0.5961422324180603" stroke-width="0.0" fill="rgb(199, 211, 99)" opacity="0.007445066" stroke="rgb(0, 0, 0)" stroke-opacity="1.0" stroke-linecap="round" stroke-linejoin="round"/>
    <path d="M 131.17861938476562 107.23222351074219 C 161.57839965820312 127.03009796142578 156.91940307617188 197.31370544433594 143.01861572265625 208.9298095703125 C 59.30253982543945 226.79415893554688 40.87702178955078 194.2295379638672 58.929744720458984 146.93734741210938 C 100.2978286743164 129.8283233642578 112.23666381835938 112.72686767578125 151.28062438964844 121.25049591064453 C 166.45237731933594 93.85418701171875 116.20514678955078 88.91149139404297 131.17861938476562 107.23222351074219" stroke-width="0.0" fill="rgb(253, 155, 2)" opacity="0.96300405" stroke="rgb(0, 0, 0)" stroke-opacity="1.0" stroke-linecap="round" stroke-linejoin="round"/>
    <path d="M 474.09503173828125 237.8365478515625 C 463.9550476074219 238.399169921875 449.9393615722656 245.1542205810547 434.31610107421875 248.50498962402344 C 429.3258056640625 245.12368774414062 433.7594299316406 240.8632354736328 440.1666564941406 233.34011840820312 C 450.3860778808594 234.04388427734375 448.5061950683594 239.38841247558594 467.72039794921875 232.47320556640625 C 463.52142333984375 237.182861328125 483.19866943359375 236.60350036621094 474.09503173828125 237.8365478515625" stroke-width="0.0" fill="rgb(36, 27, 19)" opacity="0.0" stroke="rgb(0, 0, 0)" stroke-opacity="1.0" stroke-linecap="round" stroke-linejoin="round"/>
    <path d="M 378.85028076171875 405.8701171875 C 359.38262939453125 386.6902160644531 367.630859375 382.462158203125 370.0480041503906 418.5982360839844 C 315.7657775878906 435.6297607421875 308.47161865234375 422.6220703125 318.5697021484375 395.67095947265625 C 326.49273681640625 385.99505615234375 339.1381530761719 375.0552978515625 356.70135498046875 386.34381103515625 C 365.9967956542969 390.1166687011719 371.420166015625 388.54583740234375 378.85028076171875 405.8701171875" stroke-width="0.0" fill="rgb(133, 210, 24)" opacity="0.15278241" stroke="rgb(0, 0, 0)" stroke-opacity="1.0" stroke-linecap="round" stroke-linejoin="round"/>
    <path d="M 423.8175048828125 193.3793487548828 C 416.16961669921875 195.9596405029297 373.4822082519531 185.80186462402344 337.0655212402344 239.90133666992188 C 325.8290710449219 257.0857849121094 294.0681457519531 250.26150512695312 316.1227722167969 197.56288146972656 C 311.00927734375 137.6875 292.97900390625 98.34658813476562 358.5738220214844 52.21923828125 C 438.5923156738281 98.36752319335938 437.829833984375 136.61312866210938 423.8175048828125 193.3793487548828" stroke-width="0.0" fill="rgb(234, 143, 0)" opacity="0.9699535" stroke="rgb(0, 0, 0)" stroke-opacity="1.0" stroke-linecap="round" stroke-linejoin="round"/>
    <path d="M 110.32020568847656 456.04461669921875 C 141.97190856933594 472.5931396484375 156.07347106933594 490.8925476074219 118.84284210205078 507.314453125 C 76.6037826538086 503.8724365234375 74.57245635986328 478.5076904296875 74.72056579589844 450.04193115234375 C 78.83061981201172 431.5688171386719 74.9692611694336 439.7927551269531 49.494781494140625 438.4880065917969 C 93.33382415771484 436.9537048339844 108.5022964477539 433.3173522949219 110.32020568847656 456.04461669921875" stroke-width="0.0" fill="rgb(252, 227, 183)" opacity="0.0" stroke="rgb(0, 0, 0)" stroke-opacity="1.0" stroke-linecap="round" stroke-linejoin="round"/>
    <path d="M 94.83922576904297 472.04913330078125 C 97.12628936767578 466.5503845214844 75.6806640625 468.43621826171875 58.174407958984375 461.1628723144531 C 71.04524230957031 453.9333190917969 48.4503173828125 458.510986328125 41.57258224487305 443.7532958984375 C 38.38389587402344 425.7927551269531 47.326576232910156 419.10113525390625 46.62285232543945 441.1545104980469 C 71.59213256835938 449.4341735839844 86.85497283935547 450.14398193359375 94.83922576904297 472.04913330078125" stroke-width="0.0" fill="rgb(255, 254, 171)" opacity="0.0" stroke="rgb(0, 0, 0)" stroke-opacity="1.0" stroke-linecap="round" stroke-linejoin="round"/>
  </g>
</svg>
