<?xml version="1.0" ?>
<svg xmlns="http://www.w3.org/2000/svg" version="1.1" width="512" height="512">
  <defs/>
  <g>
    <path d="M 522.4890747070312 483.6072692871094 C 548.88232421875 518.2211303710938 549.809814453125 525.8021850585938 378.0224914550781 540.339599609375 C 343.306884765625 540.154541015625 334.0556335449219 519.9514770507812 251.72955322265625 434.48553466796875 C 274.26165771484375 311.1922912597656 377.3426818847656 331.3992004394531 494.0376892089844 331.0805969238281 C 557.0706176757812 343.0543518066406 551.66259765625 365.7083435058594 522.4890747070312 483.6072692871094" stroke-width="0.0" fill="rgb(69, 12, 127)" opacity="0.88905025" stroke="rgb(0, 0, 0)" stroke-opacity="1.0" stroke-linecap="round" stroke-linejoin="round"/>
    <path d="M 305.7169494628906 474.2105712890625 C 354.3226013183594 523.0797119140625 377.21844482421875 526.7815551757812 250.70550537109375 530.1932983398438 C -60.93588638305664 531.0320434570312 -60.99042510986328 522.33984375 -34.654388427734375 468.6327209472656 C -10.801092147827148 176.73553466796875 -13.052433013916016 175.30929565429688 -12.600353240966797 205.8767547607422 C 131.42877197265625 323.73809814453125 165.66091918945312 315.41290283203125 305.7169494628906 474.2105712890625" stroke-width="0.0" fill="rgb(103, 20, 166)" opacity="0.8430763" stroke="rgb(0, 0, 0)" stroke-opacity="1.0" stroke-linecap="round" stroke-linejoin="round"/>
    <path d="M 329.24639892578125 347.74755859375 C 288.3987121582031 436.84625244140625 304.20458984375 436.9808654785156 207.12167358398438 419.1448059082031 C 65.90884399414062 361.378173828125 97.91967010498047 301.1407165527344 46.805511474609375 181.82066345214844 C 19.41439437866211 220.51597595214844 13.570307731628418 206.92129516601562 82.59283447265625 208.50714111328125 C 275.8123474121094 189.07810974121094 320.61968994140625 144.02841186523438 329.24639892578125 347.74755859375" stroke-width="0.0" fill="rgb(248, 207, 80)" opacity="0.9977944" stroke="rgb(0, 0, 0)" stroke-opacity="1.0" stroke-linecap="round" stroke-linejoin="round"/>
    <path d="M 269.630126953125 12.662489891052246 C 271.1390686035156 240.987548828125 251.0111846923828 193.93743896484375 50.31663131713867 280.9882507324219 C -50.87371826171875 235.114990234375 -38.152381896972656 209.25946044921875 -22.581357955932617 162.40541076660156 C -16.494123458862305 -18.97837257385254 -10.838438034057617 -25.126850128173828 73.64765930175781 -58.538639068603516 C 231.2674560546875 -62.1440315246582 244.98533630371094 -62.72193908691406 269.630126953125 12.662489891052246" stroke-width="0.0" fill="rgb(116, 41, 174)" opacity="0.9186915" stroke="rgb(0, 0, 0)" stroke-opacity="1.0" stroke-linecap="round" stroke-linejoin="round"/>
    <path d="M 565.0191650390625 56.51280212402344 C 431.25048828125 269.4649353027344 422.32611083984375 276.4029541015625 385.9454040527344 331.2118225097656 C 316.8685607910156 310.6631774902344 322.5924072265625 267.90966796875 251.90000915527344 159.5530242919922 C 261.21392822265625 1.7720723152160645 189.7765655517578 -39.309688568115234 349.8097839355469 -35.35441207885742 C 563.2000122070312 -5.52442741394043 563.2000122070312 4.830130577087402 565.0191650390625 56.51280212402344" stroke-width="0.0" fill="rgb(94, 6, 158)" opacity="0.83701956" stroke="rgb(0, 0, 0)" stroke-opacity="1.0" stroke-linecap="round" stroke-linejoin="round"/>
    <path d="M 333.5306396484375 49.848655700683594 C 277.1120910644531 272.8856506347656 227.4558868408203 249.73326110839844 189.08651733398438 215.51739501953125 C 51.49909973144531 247.593505859375 40.82215881347656 257.03607177734375 94.36569213867188 242.99188232421875 C 114.34423828125 155.05381774902344 114.47235870361328 124.10633850097656 300.8877868652344 19.595348358154297 C 315.2064208984375 -49.075164794921875 324.6450500488281 -41.50437927246094 333.5306396484375 49.848655700683594" stroke-width="0.0" fill="rgb(68, 75, 163)" opacity="0.4801533" stroke="rgb(0, 0, 0)" stroke-opacity="1.0" stroke-linecap="round" stroke-linejoin="round"/>
    <path d="M 453.2675476074219 325.553955078125 C 448.63336181640625 392.4061279296875 460.82940673828125 457.54156494140625 323.1828918457031 457.98223876953125 C 281.8794250488281 423.14453125 260.4531555175781 427.4123840332031 227.71327209472656 399.2846984863281 C 247.97555541992188 172.4803009033203 235.38131713867188 167.96075439453125 339.6301574707031 187.50210571289062 C 407.99578857421875 282.404541015625 449.5008850097656 266.2958068847656 453.2675476074219 325.553955078125" stroke-width="0.0" fill="rgb(255, 253, 43)" opacity="0.964705" stroke="rgb(0, 0, 0)" stroke-opacity="1.0" stroke-linecap="round" stroke-linejoin="round"/>
    <path d="M 557.1552734375 173.98326110839844 C 561.259521484375 327.8919982910156 561.9712524414062 350.1709289550781 435.73095703125 456.9878234863281 C 300.4044189453125 443.3675537109375 353.8060607910156 370.2153625488281 351.4629211425781 241.9607391357422 C 301.1270751953125 182.002685546875 392.3479309082031 155.64649963378906 567.3092041015625 124.17868041992188 C 563.2000122070312 76.2098159790039 563.2000122070312 99.41815185546875 557.1552734375 173.98326110839844" stroke-width="0.0" fill="rgb(86, 39, 147)" opacity="0.9950809" stroke="rgb(0, 0, 0)" stroke-opacity="1.0" stroke-linecap="round" stroke-linejoin="round"/>
    <path d="M 411.72760009765625 234.1483612060547 C 400.4676208496094 294.5028076171875 381.3949279785156 236.84373474121094 399.9201354980469 254.85833740234375 C 403.3785095214844 182.2232666015625 372.4219665527344 157.85079956054688 153.81240844726562 226.92605590820312 C 220.8466339111328 134.47625732421875 285.0716247558594 162.0875701904297 324.84716796875 146.10650634765625 C 356.86224365234375 128.0355682373047 410.4476318359375 150.26513671875 411.72760009765625 234.1483612060547" stroke-width="0.0" fill="rgb(193, 253, 1)" opacity="0.9897228" stroke="rgb(0, 0, 0)" stroke-opacity="1.0" stroke-linecap="round" stroke-linejoin="round"/>
    <path d="M 432.5657958984375 260.4850158691406 C 443.3343505859375 293.60235595703125 423.4552001953125 401.61590576171875 362.82733154296875 408.6771240234375 C 356.59759521484375 319.80206298828125 405.28228759765625 256.5767517089844 316.7899475097656 161.06288146972656 C 395.31964111328125 181.24978637695312 360.9640197753906 235.70057678222656 316.939697265625 146.0916290283203 C 397.510498046875 97.51405334472656 430.62835693359375 267.5766906738281 432.5657958984375 260.4850158691406" stroke-width="0.0" fill="rgb(85, 40, 139)" opacity="0.41918293" stroke="rgb(0, 0, 0)" stroke-opacity="1.0" stroke-linecap="round" stroke-linejoin="round"/>
    <path d="M 337.6279602050781 114.61239624023438 C 306.1831970214844 98.95899200439453 295.68231201171875 136.00991821289062 229.23001098632812 150.3503875732422 C 253.27914428710938 179.07333374023438 232.0264892578125 117.47203826904297 115.27006530761719 137.81195068359375 C 115.57769775390625 -11.490880012512207 132.4866485595703 -28.090599060058594 240.3568572998047 -69.2288818359375 C 355.324462890625 -50.830928802490234 363.32952880859375 4.018263339996338 337.6279602050781 114.61239624023438" stroke-width="0.0" fill="rgb(128, 52, 182)" opacity="0.99713814" stroke="rgb(0, 0, 0)" stroke-opacity="1.0" stroke-linecap="round" stroke-linejoin="round"/>
    <path d="M 275.10198974609375 431.24053955078125 C 257.0500183105469 429.89312744140625 219.2709197998047 417.8440246582031 190.66403198242188 399.0523681640625 C 152.7045440673828 379.0385437011719 122.5452651977539 411.28204345703125 205.05551147460938 417.91680908203125 C 164.7987518310547 363.6634826660156 187.2085418701172 281.82647705078125 169.9136505126953 295.2120056152344 C 228.4536895751953 360.4763488769531 154.29864501953125 392.762451171875 275.10198974609375 431.24053955078125" stroke-width="0.0" fill="rgb(234, 219, 37)" opacity="0.77155465" stroke="rgb(0, 0, 0)" stroke-opacity="1.0" stroke-linecap="round" stroke-linejoin="round"/>
    <path d="M 457.7667236328125 405.8801574707031 C 447.0144958496094 408.4248962402344 448.64569091796875 429.36529541015625 414.1640930175781 445.552734375 C 389.90887451171875 463.0021667480469 416.33856201171875 430.424560546875 383.3177185058594 418.79412841796875 C 389.0614013671875 432.2236022949219 432.2652282714844 411.9532165527344 428.0984802246094 404.1880187988281 C 421.3426818847656 396.98626708984375 461.1872253417969 404.14251708984375 457.7667236328125 405.8801574707031" stroke-width="0.0" fill="rgb(90, 36, 143)" opacity="0.31451586" stroke="rgb(0, 0, 0)" stroke-opacity="1.0" stroke-linecap="round" stroke-linejoin="round"/>
    <path d="M 369.0785827636719 385.0318603515625 C 354.36505126953125 494.2337951660156 364.2155456542969 487.75982666015625 309.0743713378906 470.8836975097656 C 253.5319366455078 440.72900390625 243.05307006835938 415.1282043457031 235.6434783935547 413.5422058105469 C 253.4779510498047 428.1823425292969 270.78594970703125 435.37689208984375 289.3507385253906 406.5785217285156 C 299.6951904296875 424.1594543457031 339.89019775390625 391.510986328125 369.0785827636719 385.0318603515625" stroke-width="0.0" fill="rgb(92, 29, 147)" opacity="1.0" stroke="rgb(0, 0, 0)" stroke-opacity="1.0" stroke-linecap="round" stroke-linejoin="round"/>
    <path d="M 332.26104736328125 221.84515380859375 C 231.27285766601562 218.28216552734375 189.41981506347656 294.40704345703125 199.6455078125 336.018310546875 C 143.0370330810547 372.9925537109375 141.326171875 313.6647644042969 184.53189086914062 281.0938415527344 C 155.66647338867188 226.64756774902344 156.7621307373047 183.74066162109375 260.3096008300781 187.68173217773438 C 293.3367004394531 180.89410400390625 332.1357421875 214.669677734375 332.26104736328125 221.84515380859375" stroke-width="0.0" fill="rgb(249, 246, 21)" opacity="0.99905205" stroke="rgb(0, 0, 0)" stroke-opacity="1.0" stroke-linecap="round" stroke-linejoin="round"/>
    <path d="M 450.2245788574219 434.38031005859375 C 430.45703125 497.9128723144531 434.25262451171875 502.59747314453125 391.1402893066406 513.2921752929688 C 333.360107421875 494.5384826660156 297.2217712402344 512.1353759765625 287.6972961425781 456.2568664550781 C 305.018310546875 400.75738525390625 328.25494384765625 407.2676696777344 374.4541015625 421.8111877441406 C 438.9794921875 394.6700134277344 461.06146240234375 409.34613037109375 450.2245788574219 434.38031005859375" stroke-width="0.0" fill="rgb(86, 40, 142)" opacity="0.9997942" stroke="rgb(0, 0, 0)" stroke-opacity="1.0" stroke-linecap="round" stroke-linejoin="round"/>
    <path d="M 288.66290283203125 231.82244873046875 C 269.2954406738281 279.1673889160156 249.12098693847656 321.7222595214844 263.01971435546875 326.2482604980469 C 259.7145080566406 364.0993347167969 251.53732299804688 376.2909240722656 214.28823852539062 390.2200927734375 C 257.52923583984375 414.2083740234375 283.7498474121094 402.34814453125 281.76507568359375 354.5963134765625 C 263.3559875488281 354.5113525390625 286.52362060546875 379.9033203125 288.66290283203125 231.82244873046875" stroke-width="0.0" fill="rgb(255, 245, 27)" opacity="0.6655048" stroke="rgb(0, 0, 0)" stroke-opacity="1.0" stroke-linecap="round" stroke-linejoin="round"/>
    <path d="M 284.9149169921875 167.8422088623047 C 67.33599853515625 106.49237060546875 43.62565994262695 439.0965881347656 179.64358520507812 443.47198486328125 C 109.85416412353516 342.4832458496094 301.92059326171875 149.23818969726562 124.1252212524414 201.61361694335938 C 19.1418399810791 275.6962585449219 33.11415481567383 208.9956817626953 159.03689575195312 173.13267517089844 C 154.92996215820312 388.2166442871094 178.34280395507812 301.06488037109375 284.9149169921875 167.8422088623047" stroke-width="0.0" fill="rgb(255, 255, 56)" opacity="1.0" stroke="rgb(0, 0, 0)" stroke-opacity="1.0" stroke-linecap="round" stroke-linejoin="round"/>
    <path d="M 322.78717041015625 148.49209594726562 C 350.38787841796875 184.2947235107422 333.5974426269531 181.40957641601562 335.44659423828125 184.3314208984375 C 321.41180419921875 176.3755645751953 309.8940734863281 180.51600646972656 299.19110107421875 135.83274841308594 C 278.1122131347656 160.35903930664062 295.7706604003906 154.603271484375 309.821044921875 131.57723999023438 C 301.1997985839844 149.35873413085938 294.81982421875 111.75432586669922 322.78717041015625 148.49209594726562" stroke-width="0.0" fill="rgb(57, 62, 127)" opacity="0.80412555" stroke="rgb(0, 0, 0)" stroke-opacity="1.0" stroke-linecap="round" stroke-linejoin="round"/>
    <path d="M 174.82916259765625 200.35389709472656 C 121.06079864501953 251.5521240234375 92.5466079711914 313.69232177734375 107.82310485839844 392.5442810058594 C -11.328800201416016 364.219482421875 -43.719093322753906 342.0146179199219 -63.01171875 208.5321044921875 C 56.531803131103516 212.4255828857422 57.53740692138672 199.96755981445312 178.4571533203125 92.36650085449219 C 274.689453125 175.71966552734375 210.49021911621094 153.18116760253906 174.82916259765625 200.35389709472656" stroke-width="0.0" fill="rgb(126, 53, 181)" opacity="1.0" stroke="rgb(0, 0, 0)" stroke-opacity="1.0" stroke-linecap="round" stroke-linejoin="round"/>
    <path d="M 231.1284942626953 196.29629516601562 C 143.75485229492188 318.6614990234375 237.51806640625 390.9089050292969 179.6757049560547 360.59716796875 C 173.7884979248047 312.8045349121094 205.47283935546875 261.7583923339844 191.95556640625 254.47264099121094 C 163.63650512695312 294.471923828125 183.81234741210938 266.71978759765625 191.47817993164062 255.79502868652344 C 208.00038146972656 266.2362060546875 208.92295837402344 212.71868896484375 231.1284942626953 196.29629516601562" stroke-width="0.0" fill="rgb(129, 121, 54)" opacity="0.72830725" stroke="rgb(0, 0, 0)" stroke-opacity="1.0" stroke-linecap="round" stroke-linejoin="round"/>
    <path d="M 421.68426513671875 69.02629089355469 C 301.8562927246094 230.2213897705078 314.73785400390625 66.25938415527344 302.0529479980469 201.5425567626953 C 261.5257568359375 218.99618530273438 272.165771484375 151.2604217529297 307.5796813964844 129.96575927734375 C 289.145751953125 127.04515838623047 307.6700439453125 128.6957244873047 301.57391357421875 131.41897583007812 C 325.4971008300781 74.81854248046875 417.16046142578125 41.94724655151367 421.68426513671875 69.02629089355469" stroke-width="0.0" fill="rgb(134, 249, 2)" opacity="0.97286487" stroke="rgb(0, 0, 0)" stroke-opacity="1.0" stroke-linecap="round" stroke-linejoin="round"/>
    <path d="M 274.64642333984375 144.67636108398438 C 329.87103271484375 199.18675231933594 380.8004150390625 196.05287170410156 347.97235107421875 131.76513671875 C 254.41787719726562 163.0821533203125 261.57891845703125 160.82289123535156 266.30010986328125 157.65013122558594 C 251.62139892578125 158.23037719726562 269.81085205078125 162.74542236328125 295.495849609375 197.07595825195312 C 285.8860168457031 194.51502990722656 276.89251708984375 173.51795959472656 274.64642333984375 144.67636108398438" stroke-width="0.0" fill="rgb(159, 255, 0)" opacity="0.9042274" stroke="rgb(0, 0, 0)" stroke-opacity="1.0" stroke-linecap="round" stroke-linejoin="round"/>
    <path d="M 247.88340759277344 395.7345886230469 C 290.89776611328125 424.31964111328125 269.6263122558594 444.6194152832031 206.04714965820312 460.08135986328125 C 128.57489013671875 454.9713439941406 116.79081726074219 424.55743408203125 145.2255859375 348.6275329589844 C 163.65463256835938 367.17962646484375 192.14173889160156 375.6386413574219 215.99766540527344 363.233154296875 C 199.60336303710938 346.83050537109375 204.9703826904297 369.9188232421875 247.88340759277344 395.7345886230469" stroke-width="0.0" fill="rgb(255, 248, 49)" opacity="1.0" stroke="rgb(0, 0, 0)" stroke-opacity="1.0" stroke-linecap="round" stroke-linejoin="round"/>
    <path d="M 375.9039001464844 400.3974914550781 C 367.26422119140625 413.8832702636719 354.9626159667969 407.1728210449219 333.5494689941406 414.99896240234375 C 287.5197448730469 427.88043212890625 275.1234130859375 417.2095031738281 317.865234375 374.5010681152344 C 294.1278076171875 393.0709533691406 320.0829162597656 376.8727722167969 351.5899658203125 272.4456787109375 C 387.852294921875 320.37017822265625 380.7518310546875 351.99072265625 375.9039001464844 400.3974914550781" stroke-width="0.0" fill="rgb(87, 30, 147)" opacity="1.0" stroke="rgb(0, 0, 0)" stroke-opacity="1.0" stroke-linecap="round" stroke-linejoin="round"/>
    <path d="M 283.2476501464844 276.2391357421875 C 308.5982971191406 272.88726806640625 287.4880065917969 296.10528564453125 256.6736755371094 304.5012512207031 C 240.4462890625 285.7148742675781 263.4257507324219 233.38983154296875 218.39735412597656 214.62283325195312 C 172.5279083251953 298.00860595703125 209.99612426757812 320.038818359375 249.83726501464844 284.64593505859375 C 265.94781494140625 201.40431213378906 281.74609375 230.1529541015625 283.2476501464844 276.2391357421875" stroke-width="0.0" fill="rgb(204, 150, 203)" opacity="0.17773488" stroke="rgb(0, 0, 0)" stroke-opacity="1.0" stroke-linecap="round" stroke-linejoin="round"/>
    <path d="M 244.68057250976562 318.87286376953125 C 224.08644104003906 385.762939453125 184.60580444335938 371.9603271484375 193.92506408691406 351.45587158203125 C 167.92440795898438 331.0592346191406 154.54119873046875 339.5638122558594 140.40829467773438 331.1754455566406 C 144.4314422607422 350.2557373046875 143.96543884277344 351.2862548828125 138.03466796875 339.77734375 C 187.0791473388672 347.2112121582031 172.4346466064453 338.07073974609375 244.68057250976562 318.87286376953125" stroke-width="0.0" fill="rgb(255, 157, 141)" opacity="0.0560423" stroke="rgb(0, 0, 0)" stroke-opacity="1.0" stroke-linecap="round" stroke-linejoin="round"/>
    <path d="M 270.1556701660156 269.7778625488281 C 266.7905578613281 272.6569519042969 267.7439270019531 294.966552734375 237.95553588867188 344.0802307128906 C 214.55921936035156 302.39447021484375 248.5001678466797 305.43475341796875 208.36341857910156 315.32623291015625 C 212.46018981933594 282.7395935058594 214.84487915039062 257.6742248535156 273.3400573730469 217.71644592285156 C 296.2170104980469 208.30690002441406 274.1971130371094 254.5194091796875 270.1556701660156 269.7778625488281" stroke-width="0.0" fill="rgb(83, 27, 172)" opacity="0.8741394" stroke="rgb(0, 0, 0)" stroke-opacity="1.0" stroke-linecap="round" stroke-linejoin="round"/>
    <path d="M 341.32391357421875 116.20136260986328 C 366.6150817871094 119.761474609375 353.2871398925781 124.65142059326172 347.02960205078125 111.12419128417969 C 317.4563293457031 106.17643737792969 308.3306579589844 104.94166564941406 297.7757568359375 98.11333465576172 C 313.8763427734375 90.88146209716797 333.1889343261719 95.120849609375 325.92401123046875 93.30451202392578 C 324.7516174316406 100.12621307373047 323.3672180175781 110.41283416748047 341.32391357421875 116.20136260986328" stroke-width="0.0" fill="rgb(121, 227, 39)" opacity="0.0" stroke="rgb(0, 0, 0)" stroke-opacity="1.0" stroke-linecap="round" stroke-linejoin="round"/>
    <path d="M 280.1322326660156 248.30545043945312 C 265.2933349609375 244.45974731445312 285.620849609375 244.06834411621094 265.6240234375 233.33348083496094 C 262.4881896972656 222.1889190673828 255.15231323242188 234.542236328125 281.2154846191406 238.87852478027344 C 273.08038330078125 224.42202758789062 287.1485595703125 170.1997833251953 321.19610595703125 170.226806640625 C 312.6488037109375 232.25601196289062 294.0137634277344 205.16549682617188 280.1322326660156 248.30545043945312" stroke-width="0.0" fill="rgb(84, 13, 145)" opacity="0.98425156" stroke="rgb(0, 0, 0)" stroke-opacity="1.0" stroke-linecap="round" stroke-linejoin="round"/>
    <path d="M 282.4218444824219 229.6866912841797 C 259.2911376953125 230.50997924804688 264.9546813964844 237.6519317626953 276.76031494140625 255.60804748535156 C 261.5277404785156 281.102783203125 280.37481689453125 271.04241943359375 284.6007080078125 257.95001220703125 C 269.6664733886719 230.44740295410156 256.7045593261719 209.38865661621094 259.0946350097656 241.7092742919922 C 273.7056884765625 252.19361877441406 290.1116027832031 252.09381103515625 282.4218444824219 229.6866912841797" stroke-width="0.0" fill="rgb(218, 102, 25)" opacity="0.032525048" stroke="rgb(0, 0, 0)" stroke-opacity="1.0" stroke-linecap="round" stroke-linejoin="round"/>
    <path d="M 386.4405517578125 242.00009155273438 C 391.96826171875 224.62261962890625 425.8236999511719 255.1581573486328 399.0855407714844 167.38771057128906 C 373.1943664550781 176.53382873535156 348.0670471191406 194.9164581298828 283.1808166503906 163.8070831298828 C 308.08349609375 136.02618408203125 345.4303283691406 150.40817260742188 381.9430847167969 169.02903747558594 C 370.8488464355469 209.78338623046875 377.2108154296875 185.24566650390625 386.4405517578125 242.00009155273438" stroke-width="0.0" fill="rgb(66, 238, 3)" opacity="0.3154696" stroke="rgb(0, 0, 0)" stroke-opacity="1.0" stroke-linecap="round" stroke-linejoin="round"/>
    <path d="M 70.6409683227539 459.1953430175781 C 73.34381866455078 470.6116027832031 68.56340026855469 463.3065185546875 72.35089111328125 459.0896301269531 C 74.77194213867188 460.3359375 59.73634338378906 451.0910339355469 50.63005828857422 453.94134521484375 C 39.79362487792969 436.8701171875 63.221580505371094 448.53289794921875 56.73604202270508 435.1734924316406 C 65.8443603515625 448.5044250488281 65.5123062133789 457.5513916015625 70.6409683227539 459.1953430175781" stroke-width="0.0" fill="rgb(125, 63, 175)" opacity="0.2359429" stroke="rgb(0, 0, 0)" stroke-opacity="1.0" stroke-linecap="round" stroke-linejoin="round"/>
    <path d="M 207.2162628173828 357.91864013671875 C 199.69467163085938 383.0744934082031 193.97068786621094 377.3310546875 190.8008270263672 362.96197509765625 C 187.37554931640625 316.76422119140625 201.37698364257812 370.083251953125 249.57327270507812 336.0816650390625 C 212.20034790039062 288.9873352050781 195.97872924804688 320.6434326171875 201.42568969726562 313.76617431640625 C 194.89797973632812 330.184814453125 203.87184143066406 372.9471740722656 207.2162628173828 357.91864013671875" stroke-width="0.0" fill="rgb(56, 94, 203)" opacity="0.58613706" stroke="rgb(0, 0, 0)" stroke-opacity="1.0" stroke-linecap="round" stroke-linejoin="round"/>
    <path d="M 36.34724044799805 313.4783020019531 C 39.878639221191406 329.99334716796875 36.99116134643555 327.07177734375 34.25321960449219 327.3063049316406 C 38.814064025878906 327.8754577636719 39.944793701171875 327.973876953125 34.93018341064453 306.40069580078125 C 35.70964813232422 299.5981140136719 34.05559158325195 302.8123474121094 37.504554748535156 296.5888671875 C 33.262428283691406 300.20538330078125 34.39020919799805 301.824951171875 36.34724044799805 313.4783020019531" stroke-width="0.0" fill="rgb(73, 115, 108)" opacity="0.43556052" stroke="rgb(0, 0, 0)" stroke-opacity="1.0" stroke-linecap="round" stroke-linejoin="round"/>
    <path d="M 120.79430389404297 427.7613220214844 C 117.87312316894531 435.9935302734375 101.9623031616211 447.4102478027344 100.15913391113281 453.25665283203125 C 100.39484405517578 459.1070556640625 100.59769439697266 462.8856506347656 99.87193298339844 453.4242248535156 C 106.16068267822266 445.7438659667969 114.19628143310547 432.9382629394531 118.46099090576172 426.40203857421875 C 117.28211212158203 437.16229248046875 116.56719970703125 431.7635803222656 120.79430389404297 427.7613220214844" stroke-width="0.0" fill="rgb(111, 83, 166)" opacity="0.62548304" stroke="rgb(0, 0, 0)" stroke-opacity="1.0" stroke-linecap="round" stroke-linejoin="round"/>
    <path d="M 479.7427062988281 55.35346221923828 C 474.1108093261719 41.89026641845703 472.4049987792969 59.129764556884766 471.48175048828125 77.7037582397461 C 470.6460876464844 99.79591369628906 473.9937744140625 99.67781066894531 477.33709716796875 99.16178131103516 C 477.067138671875 63.479862213134766 468.71710205078125 45.88933181762695 490.6094970703125 58.179840087890625 C 489.73004150390625 83.71379852294922 486.1396484375 69.47157287597656 479.7427062988281 55.35346221923828" stroke-width="0.0" fill="rgb(112, 47, 172)" opacity="0.0" stroke="rgb(0, 0, 0)" stroke-opacity="1.0" stroke-linecap="round" stroke-linejoin="round"/>
    <path d="M 67.97978973388672 159.4352569580078 C 85.48623657226562 201.27679443359375 55.18303298950195 207.18618774414062 18.181495666503906 225.76055908203125 C 14.204122543334961 249.15399169921875 -30.810453414916992 229.77880859375 -2.9650845527648926 201.99139404296875 C 34.9103889465332 219.84791564941406 24.42020606994629 175.89926147460938 22.78805923461914 183.38014221191406 C 57.431968688964844 162.50747680664062 74.26451110839844 148.7120819091797 67.97978973388672 159.4352569580078" stroke-width="0.0" fill="rgb(126, 58, 182)" opacity="0.6763578" stroke="rgb(0, 0, 0)" stroke-opacity="1.0" stroke-linecap="round" stroke-linejoin="round"/>
    <path d="M 308.9700927734375 338.9921569824219 C 314.3253479003906 349.73016357421875 316.014892578125 351.8067626953125 312.4834289550781 348.78839111328125 C 298.10382080078125 345.2048645019531 278.3334655761719 346.6092529296875 277.4908142089844 326.2557373046875 C 275.21893310546875 318.636474609375 296.304931640625 322.1370544433594 309.7688903808594 312.75006103515625 C 307.4752197265625 303.9692687988281 314.77996826171875 306.38604736328125 308.9700927734375 338.9921569824219" stroke-width="0.0" fill="rgb(217, 229, 16)" opacity="0.0" stroke="rgb(0, 0, 0)" stroke-opacity="1.0" stroke-linecap="round" stroke-linejoin="round"/>
    <path d="M 384.0559997558594 422.7505187988281 C 366.71435546875 414.445556640625 364.01416015625 454.5168151855469 375.44256591796875 455.9134826660156 C 380.3182373046875 425.09967041015625 359.6751708984375 419.03265380859375 323.69244384765625 418.6225280761719 C 310.3484802246094 418.0032958984375 340.59844970703125 423.60150146484375 378.46197509765625 411.07562255859375 C 386.96002197265625 416.71978759765625 382.17474365234375 418.4604187011719 384.0559997558594 422.7505187988281" stroke-width="0.0" fill="rgb(108, 13, 178)" opacity="0.048438296" stroke="rgb(0, 0, 0)" stroke-opacity="1.0" stroke-linecap="round" stroke-linejoin="round"/>
    <path d="M 340.7860412597656 415.6346740722656 C 343.89263916015625 425.9832763671875 340.3421936035156 442.37872314453125 332.189208984375 436.0907287597656 C 331.0033264160156 433.7872314453125 327.44085693359375 416.75128173828125 315.2924499511719 424.4900207519531 C 319.3482360839844 423.79541015625 331.197998046875 427.7026062011719 348.0211181640625 429.29547119140625 C 344.6868896484375 414.4397277832031 360.0265197753906 420.8443298339844 340.7860412597656 415.6346740722656" stroke-width="0.0" fill="rgb(123, 20, 63)" opacity="0.0" stroke="rgb(0, 0, 0)" stroke-opacity="1.0" stroke-linecap="round" stroke-linejoin="round"/>
    <path d="M 412.431884765625 60.29524612426758 C 410.4695739746094 63.061527252197266 411.7912902832031 76.60594177246094 414.91021728515625 96.20146942138672 C 411.77777099609375 87.82234191894531 407.5759582519531 77.77305603027344 411.0376281738281 51.31684112548828 C 420.84613037109375 73.18492126464844 413.7483215332031 60.677879333496094 406.115966796875 53.459983825683594 C 415.3684997558594 61.73179626464844 414.46807861328125 74.56708526611328 412.431884765625 60.29524612426758" stroke-width="0.0" fill="rgb(62, 140, 12)" opacity="0.66347307" stroke="rgb(0, 0, 0)" stroke-opacity="1.0" stroke-linecap="round" stroke-linejoin="round"/>
    <path d="M 43.51468276977539 77.88259887695312 C 46.75505828857422 75.77767944335938 48.56317901611328 97.59453582763672 57.7050895690918 110.81143188476562 C -1.2881063222885132 89.70903015136719 12.294384956359863 84.556640625 3.0400900840759277 98.21976470947266 C 61.20722579956055 101.2845458984375 60.88467025756836 110.51374816894531 58.29111099243164 69.55160522460938 C 35.15365219116211 62.70991516113281 59.39430618286133 83.36761474609375 43.51468276977539 77.88259887695312" stroke-width="0.0" fill="rgb(109, 79, 164)" opacity="0.00058139884" stroke="rgb(0, 0, 0)" stroke-opacity="1.0" stroke-linecap="round" stroke-linejoin="round"/>
    <path d="M 43.58418655395508 178.90357971191406 C 24.87429428100586 165.63836669921875 22.48479461669922 135.40740966796875 21.95734214782715 118.88280487060547 C 8.006970405578613 153.4994354248047 -12.190938949584961 150.76144409179688 -29.235107421875 144.51242065429688 C -1.8046919107437134 125.88699340820312 12.822574615478516 126.50212860107422 30.363548278808594 107.23649597167969 C 19.210968017578125 104.6242446899414 20.20437240600586 116.54083251953125 43.58418655395508 178.90357971191406" stroke-width="0.0" fill="rgb(129, 56, 144)" opacity="0.005158739" stroke="rgb(0, 0, 0)" stroke-opacity="1.0" stroke-linecap="round" stroke-linejoin="round"/>
    <path d="M 501.89007568359375 367.73126220703125 C 489.69964599609375 305.3057556152344 491.3640441894531 275.79241943359375 476.49041748046875 248.52333068847656 C 486.1402587890625 257.503662109375 482.5845642089844 259.4923400878906 476.6952819824219 249.5047607421875 C 469.1226806640625 225.75140380859375 463.69097900390625 215.1048583984375 497.3202209472656 162.2953338623047 C 530.4358520507812 214.44313049316406 572.5110473632812 252.60377502441406 501.89007568359375 367.73126220703125" stroke-width="0.0" fill="rgb(71, 68, 93)" opacity="0.08750852" stroke="rgb(0, 0, 0)" stroke-opacity="1.0" stroke-linecap="round" stroke-linejoin="round"/>
    <path d="M 306.0891418457031 60.52481460571289 C 318.5337219238281 65.19073486328125 337.7417297363281 75.94935607910156 333.79473876953125 46.3835563659668 C 342.1324157714844 13.558528900146484 328.55792236328125 24.268259048461914 304.2277526855469 59.049217224121094 C 291.217041015625 50.33824920654297 290.5693359375 53.61707305908203 313.7153015136719 48.40339279174805 C 338.9320983886719 44.602088928222656 330.52001953125 58.06565856933594 306.0891418457031 60.52481460571289" stroke-width="0.0" fill="rgb(143, 43, 190)" opacity="0.03664995" stroke="rgb(0, 0, 0)" stroke-opacity="1.0" stroke-linecap="round" stroke-linejoin="round"/>
    <path d="M 425.2517395019531 273.4923095703125 C 424.88800048828125 278.4236755371094 434.39794921875 293.71142578125 431.2712707519531 288.38299560546875 C 414.5654296875 284.28472900390625 421.6108703613281 270.27178955078125 414.5107727050781 267.7042236328125 C 404.2988586425781 265.13714599609375 405.9538879394531 265.6282043457031 425.9921875 270.6629943847656 C 412.0087585449219 255.10403442382812 428.5701904296875 276.0382080078125 425.2517395019531 273.4923095703125" stroke-width="0.0" fill="rgb(195, 105, 14)" opacity="0.0" stroke="rgb(0, 0, 0)" stroke-opacity="1.0" stroke-linecap="round" stroke-linejoin="round"/>
    <path d="M 531.874267578125 130.2698516845703 C 541.772216796875 161.23243713378906 546.23779296875 174.6787872314453 499.4436340332031 152.79815673828125 C 521.9190063476562 153.3534698486328 533.9583740234375 138.92247009277344 491.7472839355469 126.02239227294922 C 470.7498474121094 119.36820983886719 482.3251953125 124.5641098022461 519.4532470703125 127.31790924072266 C 520.5720825195312 111.61329650878906 523.3575439453125 117.5732192993164 531.874267578125 130.2698516845703" stroke-width="0.0" fill="rgb(91, 38, 145)" opacity="0.0" stroke="rgb(0, 0, 0)" stroke-opacity="1.0" stroke-linecap="round" stroke-linejoin="round"/>
    <path d="M 530.2477416992188 144.09262084960938 C 532.2512817382812 147.24098205566406 533.4112548828125 165.60337829589844 510.8140563964844 194.17050170898438 C 510.3413391113281 169.57936096191406 520.5851440429688 163.05429077148438 519.7802734375 142.6607208251953 C 509.1939392089844 141.4979248046875 519.4586181640625 161.69041442871094 527.250244140625 170.48614501953125 C 517.7416381835938 147.39990234375 525.1123657226562 154.182373046875 530.2477416992188 144.09262084960938" stroke-width="0.0" fill="rgb(146, 19, 80)" opacity="0.06635495" stroke="rgb(0, 0, 0)" stroke-opacity="1.0" stroke-linecap="round" stroke-linejoin="round"/>
    <path d="M 67.4573974609375 369.1509094238281 C 87.42417907714844 399.6040954589844 83.8519515991211 397.0152282714844 68.49345397949219 369.0949401855469 C 57.109825134277344 358.90155029296875 52.78409194946289 348.3314514160156 56.524959564208984 345.94317626953125 C 59.678470611572266 354.2427062988281 59.2939338684082 355.7646789550781 61.67662048339844 362.2545471191406 C 53.64974594116211 352.23529052734375 59.40812683105469 354.3448181152344 67.4573974609375 369.1509094238281" stroke-width="0.0" fill="rgb(107, 83, 142)" opacity="0.5349907" stroke="rgb(0, 0, 0)" stroke-opacity="1.0" stroke-linecap="round" stroke-linejoin="round"/>
    <path d="M 325.5058898925781 265.109375 C 348.9277648925781 281.50531005859375 326.2818298339844 283.275146484375 334.02130126953125 264.66534423828125 C 328.6200256347656 248.2000274658203 297.6033020019531 263.7213134765625 308.06878662109375 236.03826904296875 C 328.3738708496094 259.4521484375 332.648193359375 254.427978515625 324.7939147949219 236.90171813964844 C 317.75 231.75755310058594 314.65643310546875 239.66757202148438 325.5058898925781 265.109375" stroke-width="0.0" fill="rgb(255, 255, 32)" opacity="0.076495074" stroke="rgb(0, 0, 0)" stroke-opacity="1.0" stroke-linecap="round" stroke-linejoin="round"/>
    <path d="M 489.9720764160156 118.94245147705078 C 498.6252746582031 166.9105987548828 512.9857177734375 148.97698974609375 512.6917724609375 123.0748062133789 C 495.7144470214844 121.32296752929688 493.17425537109375 116.12065887451172 471.71759033203125 127.97570037841797 C 461.6649169921875 117.53168487548828 462.6919860839844 100.49568176269531 478.6673583984375 100.93550109863281 C 459.17059326171875 72.37738037109375 468.9902038574219 98.59447479248047 489.9720764160156 118.94245147705078" stroke-width="0.0" fill="rgb(119, 59, 198)" opacity="0.0" stroke="rgb(0, 0, 0)" stroke-opacity="1.0" stroke-linecap="round" stroke-linejoin="round"/>
    <path d="M 478.4687805175781 474.8960876464844 C 482.16424560546875 477.809326171875 462.8301086425781 476.7518310546875 451.24224853515625 462.941162109375 C 459.76434326171875 469.55841064453125 454.9154357910156 451.3166198730469 459.4450988769531 434.76800537109375 C 438.0144348144531 432.68792724609375 429.4695739746094 453.4351806640625 444.99346923828125 461.4551086425781 C 461.66973876953125 446.0966796875 471.831787109375 459.568603515625 478.4687805175781 474.8960876464844" stroke-width="0.0" fill="rgb(105, 37, 160)" opacity="0.02206769" stroke="rgb(0, 0, 0)" stroke-opacity="1.0" stroke-linecap="round" stroke-linejoin="round"/>
    <path d="M 508.63909912109375 389.2746887207031 C 524.4010620117188 372.2531433105469 502.45849609375 384.9446716308594 450.8356018066406 387.2454528808594 C 485.01513671875 404.4091491699219 487.38897705078125 393.7333984375 465.7144470214844 395.65911865234375 C 462.1116638183594 336.6769714355469 447.6867980957031 341.375732421875 481.9300231933594 350.569091796875 C 481.6499938964844 379.43212890625 488.35638427734375 394.4301452636719 508.63909912109375 389.2746887207031" stroke-width="0.0" fill="rgb(80, 62, 83)" opacity="0.024128178" stroke="rgb(0, 0, 0)" stroke-opacity="1.0" stroke-linecap="round" stroke-linejoin="round"/>
    <path d="M 175.9499969482422 415.53607177734375 C 181.5661163330078 433.9643859863281 172.8827667236328 468.5479736328125 152.73207092285156 442.6264343261719 C 119.000244140625 438.0749816894531 126.85211944580078 423.4040222167969 165.4567108154297 423.16351318359375 C 144.2236785888672 426.89385986328125 130.79835510253906 410.7467956542969 133.1057891845703 415.15283203125 C 139.30398559570312 430.43023681640625 145.06298828125 420.89813232421875 175.9499969482422 415.53607177734375" stroke-width="0.0" fill="rgb(91, 24, 201)" opacity="0.0" stroke="rgb(0, 0, 0)" stroke-opacity="1.0" stroke-linecap="round" stroke-linejoin="round"/>
    <path d="M 136.41165161132812 181.98199462890625 C 155.19833374023438 204.03549194335938 147.3739776611328 187.6981201171875 93.68817138671875 211.32894897460938 C 47.176048278808594 198.017822265625 27.256793975830078 200.3219757080078 43.655555725097656 241.13233947753906 C 47.96272277832031 158.6490936279297 26.42359733581543 135.50242614746094 60.191009521484375 171.30130004882812 C 120.80811309814453 147.86062622070312 141.84259033203125 149.452392578125 136.41165161132812 181.98199462890625" stroke-width="0.0" fill="rgb(121, 39, 182)" opacity="0.0" stroke="rgb(0, 0, 0)" stroke-opacity="1.0" stroke-linecap="round" stroke-linejoin="round"/>
    <path d="M 191.93960571289062 150.26698303222656 C 199.26242065429688 165.9208984375 192.69456481933594 165.69448852539062 197.94003295898438 169.34751892089844 C 191.87721252441406 149.7401123046875 192.557861328125 123.88919067382812 184.55899047851562 122.93170928955078 C 163.0968017578125 129.9208526611328 166.05197143554688 122.41424560546875 184.3192138671875 119.00776672363281 C 184.4821014404297 120.597412109375 191.1051483154297 134.42935180664062 191.93960571289062 150.26698303222656" stroke-width="0.0" fill="rgb(77, 109, 119)" opacity="0.518102" stroke="rgb(0, 0, 0)" stroke-opacity="1.0" stroke-linecap="round" stroke-linejoin="round"/>
    <path d="M 154.5845184326172 402.4850769042969 C 155.61279296875 403.3479919433594 168.74160766601562 407.6973876953125 160.01129150390625 412.0468444824219 C 158.0210418701172 392.24188232421875 158.8931884765625 389.9790954589844 150.71910095214844 398.0749206542969 C 145.05654907226562 395.28521728515625 150.28860473632812 394.9566650390625 147.00430297851562 404.22589111328125 C 156.32435607910156 411.5873107910156 162.6536865234375 410.490234375 154.5845184326172 402.4850769042969" stroke-width="0.0" fill="rgb(255, 233, 73)" opacity="0.0" stroke="rgb(0, 0, 0)" stroke-opacity="1.0" stroke-linecap="round" stroke-linejoin="round"/>
    <path d="M 439.6881103515625 117.61261749267578 C 441.61920166015625 115.09707641601562 432.37042236328125 125.45792388916016 429.5243225097656 137.9574737548828 C 434.2584228515625 131.21998596191406 427.2947692871094 131.60806274414062 429.9796447753906 132.47499084472656 C 434.740478515625 123.91686248779297 437.9951171875 114.26917266845703 439.352783203125 112.85829162597656 C 443.3891906738281 117.66947937011719 435.7208251953125 127.13155364990234 439.6881103515625 117.61261749267578" stroke-width="0.0" fill="rgb(84, 86, 123)" opacity="0.49460056" stroke="rgb(0, 0, 0)" stroke-opacity="1.0" stroke-linecap="round" stroke-linejoin="round"/>
    <path d="M 248.05975341796875 282.288330078125 C 249.1133575439453 306.5216979980469 219.11917114257812 315.0331726074219 226.20428466796875 340.5177917480469 C 225.94882202148438 345.6492004394531 245.38644409179688 320.3811340332031 221.1905059814453 267.2908020019531 C 182.5706329345703 285.2887268066406 170.80699157714844 359.9172058105469 190.25001525878906 381.54937744140625 C 273.7213134765625 317.9521484375 234.2016143798828 309.8895568847656 248.05975341796875 282.288330078125" stroke-width="0.0" fill="rgb(5, 0, 206)" opacity="0.6835929" stroke="rgb(0, 0, 0)" stroke-opacity="1.0" stroke-linecap="round" stroke-linejoin="round"/>
    <path d="M 183.45297241210938 489.2893371582031 C 194.30471801757812 512.7754516601562 197.63710021972656 505.3725891113281 177.63150024414062 482.8994140625 C 114.98591613769531 488.6647033691406 121.60570526123047 483.3616027832031 112.96492767333984 469.3772888183594 C 120.02169799804688 471.1835632324219 131.4358367919922 473.0265197753906 150.66758728027344 486.4999084472656 C 155.64163208007812 476.85833740234375 162.63504028320312 473.83087158203125 183.45297241210938 489.2893371582031" stroke-width="0.0" fill="rgb(106, 54, 226)" opacity="0.0" stroke="rgb(0, 0, 0)" stroke-opacity="1.0" stroke-linecap="round" stroke-linejoin="round"/>
    <path d="M 426.48028564453125 375.1966247558594 C 433.7234191894531 431.37542724609375 454.43878173828125 416.44921875 435.7152099609375 401.5401916503906 C 430.7962341308594 396.7742614746094 414.976806640625 395.575927734375 434.7090148925781 398.7465515136719 C 432.0001220703125 375.0690002441406 435.12371826171875 367.34686279296875 456.10260009765625 376.309814453125 C 461.7593994140625 379.5239562988281 456.6307373046875 369.15411376953125 426.48028564453125 375.1966247558594" stroke-width="0.0" fill="rgb(57, 75, 76)" opacity="0.0075131734" stroke="rgb(0, 0, 0)" stroke-opacity="1.0" stroke-linecap="round" stroke-linejoin="round"/>
    <path d="M 293.32403564453125 140.01194763183594 C 311.4763488769531 135.84620666503906 297.4028015136719 143.34036254882812 293.9780578613281 154.7684783935547 C 298.9745788574219 132.42453002929688 302.7021179199219 160.95919799804688 300.4835205078125 146.9586639404297 C 294.86572265625 122.39681243896484 310.2252197265625 110.40294647216797 295.1910705566406 125.17090606689453 C 291.8184814453125 119.53047180175781 271.736083984375 109.91748809814453 293.32403564453125 140.01194763183594" stroke-width="0.0" fill="rgb(174, 165, 89)" opacity="0.0" stroke="rgb(0, 0, 0)" stroke-opacity="1.0" stroke-linecap="round" stroke-linejoin="round"/>
    <path d="M 352.331298828125 24.9946231842041 C 361.6199645996094 8.986689567565918 353.1724853515625 16.91114044189453 361.3424072265625 26.451316833496094 C 376.75738525390625 23.603727340698242 379.4740295410156 43.963890075683594 378.8738098144531 75.3499526977539 C 367.7613525390625 42.81666946411133 375.42510986328125 30.80211067199707 339.6541748046875 35.47285461425781 C 370.55950927734375 63.590084075927734 367.9972229003906 49.733131408691406 352.331298828125 24.9946231842041" stroke-width="0.0" fill="rgb(152, 37, 214)" opacity="0.054519754" stroke="rgb(0, 0, 0)" stroke-opacity="1.0" stroke-linecap="round" stroke-linejoin="round"/>
  </g>
</svg>
