<?xml version="1.0" ?>
<svg xmlns="http://www.w3.org/2000/svg" version="1.1" width="512" height="512">
  <defs/>
  <g>
    <path d="M 531.1030883789062 454.6368713378906 C 546.7626342773438 517.3433227539062 548.8076782226562 525.6675415039062 369.9690246582031 558.5990600585938 C 296.204833984375 572.4461669921875 261.78900146484375 561.0403442382812 157.08006286621094 472.8133239746094 C 315.9671630859375 402.7758483886719 434.2540283203125 412.7293701171875 511.267822265625 320.529541015625 C 557.6624755859375 327.03302001953125 558.2821044921875 341.0731201171875 531.1030883789062 454.6368713378906" stroke-width="0.0" fill="rgb(76, 255, 60)" opacity="0.76076174" stroke="rgb(0, 0, 0)" stroke-opacity="1.0" stroke-linecap="round" stroke-linejoin="round"/>
    <path d="M 251.51596069335938 281.23406982421875 C 292.179931640625 470.59942626953125 355.62652587890625 500.7134704589844 314.5315856933594 516.41845703125 C -54.664031982421875 527.2562866210938 -54.56480026245117 520.086181640625 -93.05668640136719 446.4218444824219 C -51.90161895751953 147.1907501220703 -16.889299392700195 120.53952026367188 64.53145599365234 201.7504425048828 C 135.5706024169922 350.3129577636719 134.02491760253906 269.6551208496094 251.51596069335938 281.23406982421875" stroke-width="0.0" fill="rgb(118, 153, 240)" opacity="0.9945628" stroke="rgb(0, 0, 0)" stroke-opacity="1.0" stroke-linecap="round" stroke-linejoin="round"/>
    <path d="M 264.5440979003906 322.8290710449219 C 120.14825439453125 314.63458251953125 54.32880401611328 358.6060485839844 160.90411376953125 323.0149230957031 C 85.64598083496094 256.7076416015625 16.014883041381836 346.00177001953125 28.00519371032715 193.70460510253906 C 75.74788665771484 135.5466766357422 126.98255157470703 66.75968933105469 255.9947052001953 105.11262512207031 C 319.1473693847656 200.6079864501953 350.75994873046875 257.3157653808594 264.5440979003906 322.8290710449219" stroke-width="0.0" fill="rgb(77, 36, 102)" opacity="0.9889323" stroke="rgb(0, 0, 0)" stroke-opacity="1.0" stroke-linecap="round" stroke-linejoin="round"/>
    <path d="M 224.58924865722656 -45.83650588989258 C 185.50775146484375 80.62893676757812 115.6732406616211 42.12604522705078 73.03203582763672 248.42958068847656 C 1.1380959749221802 256.20318603515625 -1.8866562843322754 221.64353942871094 -16.461891174316406 152.8942413330078 C -30.775516510009766 -4.342823028564453 -22.304256439208984 -20.4283504486084 32.115821838378906 -18.722469329833984 C 204.95166015625 -27.166507720947266 235.46905517578125 -44.79048538208008 224.58924865722656 -45.83650588989258" stroke-width="0.0" fill="rgb(121, 255, 42)" opacity="0.75309104" stroke="rgb(0, 0, 0)" stroke-opacity="1.0" stroke-linecap="round" stroke-linejoin="round"/>
    <path d="M 549.383544921875 86.73921203613281 C 460.19366455078125 297.3504333496094 456.8605041503906 336.9720153808594 284.0185852050781 298.13946533203125 C 263.1314697265625 289.8011779785156 229.9761199951172 232.20050048828125 254.19447326660156 230.23129272460938 C 446.7226867675781 231.21527099609375 329.05206298828125 280.373046875 348.5566711425781 -38.741172790527344 C 558.0169677734375 -13.670575141906738 564.9622802734375 -2.7425854206085205 549.383544921875 86.73921203613281" stroke-width="0.0" fill="rgb(23, 12, 235)" opacity="0.9747475" stroke="rgb(0, 0, 0)" stroke-opacity="1.0" stroke-linecap="round" stroke-linejoin="round"/>
    <path d="M 363.1263122558594 198.1404571533203 C 145.35694885253906 209.31353759765625 173.30201721191406 8.673622131347656 130.97128295898438 144.69163513183594 C 99.43347930908203 258.40972900390625 56.50817108154297 235.6936798095703 77.31917572021484 199.75936889648438 C 82.0943603515625 94.61637878417969 61.13844680786133 56.826881408691406 283.2049255371094 -43.9698371887207 C 475.93743896484375 66.22122955322266 517.7185668945312 78.0843734741211 363.1263122558594 198.1404571533203" stroke-width="0.0" fill="rgb(163, 16, 57)" opacity="0.99584824" stroke="rgb(0, 0, 0)" stroke-opacity="1.0" stroke-linecap="round" stroke-linejoin="round"/>
    <path d="M 559.8455810546875 345.4732666015625 C 534.1729125976562 512.5798950195312 561.9801635742188 544.6769409179688 271.479248046875 602.3467407226562 C 225.90516662597656 480.2252502441406 278.9222412109375 306.3606262207031 240.82107543945312 311.3710632324219 C 399.3912353515625 323.5484619140625 331.6130065917969 234.71238708496094 366.6358337402344 221.83523559570312 C 486.7893981933594 237.90139770507812 508.4782409667969 212.4708709716797 559.8455810546875 345.4732666015625" stroke-width="0.0" fill="rgb(255, 182, 65)" opacity="0.13507321" stroke="rgb(0, 0, 0)" stroke-opacity="1.0" stroke-linecap="round" stroke-linejoin="round"/>
    <path d="M 590.1326293945312 182.3199920654297 C 594.576416015625 336.5424499511719 586.2198486328125 354.2447509765625 463.7929382324219 379.954345703125 C 336.5978088378906 379.30999755859375 384.6742248535156 358.9099426269531 385.3238525390625 201.40577697753906 C 468.5006103515625 95.23287963867188 423.5833740234375 69.65003204345703 554.6898803710938 51.380794525146484 C 582.0670776367188 18.614953994750977 583.822509765625 55.788414001464844 590.1326293945312 182.3199920654297" stroke-width="0.0" fill="rgb(141, 251, 92)" opacity="1.0" stroke="rgb(0, 0, 0)" stroke-opacity="1.0" stroke-linecap="round" stroke-linejoin="round"/>
    <path d="M 387.1430358886719 280.4464111328125 C 367.3847351074219 301.138671875 377.3623962402344 318.7044677734375 323.0311279296875 313.1105651855469 C 266.8987121582031 296.7735595703125 252.44882202148438 307.10321044921875 243.62245178222656 248.836181640625 C 283.2808837890625 286.96600341796875 295.4730529785156 302.10980224609375 321.6288757324219 317.4649963378906 C 337.1513366699219 309.3037414550781 373.6579284667969 326.4039001464844 387.1430358886719 280.4464111328125" stroke-width="0.0" fill="rgb(127, 27, 130)" opacity="0.6302951" stroke="rgb(0, 0, 0)" stroke-opacity="1.0" stroke-linecap="round" stroke-linejoin="round"/>
    <path d="M 361.7867431640625 194.98391723632812 C 375.69781494140625 227.2939910888672 390.6492614746094 229.68817138671875 391.8091125488281 246.4992218017578 C 408.6423645019531 187.1772918701172 382.9104309082031 275.6798400878906 182.43600463867188 218.8431396484375 C 200.4269561767578 145.88084411621094 274.7987976074219 140.84799194335938 338.68280029296875 112.17811584472656 C 354.6582946777344 236.34649658203125 325.87237548828125 257.9720153808594 361.7867431640625 194.98391723632812" stroke-width="0.0" fill="rgb(213, 112, 41)" opacity="0.65931803" stroke="rgb(0, 0, 0)" stroke-opacity="1.0" stroke-linecap="round" stroke-linejoin="round"/>
    <path d="M 258.9106140136719 229.45223999023438 C 207.50042724609375 310.3843994140625 259.95465087890625 297.4888916015625 55.37913513183594 315.68341064453125 C 195.80776977539062 261.3819274902344 88.34307098388672 252.5484619140625 71.53179931640625 254.61172485351562 C 39.91469192504883 163.97349548339844 55.230613708496094 233.5915069580078 165.7244110107422 223.6513671875 C 314.05078125 248.0546112060547 474.6112060546875 254.2043914794922 258.9106140136719 229.45223999023438" stroke-width="0.0" fill="rgb(4, 17, 231)" opacity="0.96392995" stroke="rgb(0, 0, 0)" stroke-opacity="1.0" stroke-linecap="round" stroke-linejoin="round"/>
    <path d="M 387.4370422363281 278.0005798339844 C 384.99468994140625 288.4845275878906 391.7771301269531 268.09478759765625 384.5675964355469 299.89837646484375 C 370.4822692871094 360.241943359375 362.57647705078125 343.6050720214844 378.61090087890625 254.9374237060547 C 377.0168151855469 77.0267333984375 441.9454345703125 76.4522705078125 396.66680908203125 229.246826171875 C 375.0699768066406 243.18441772460938 392.0883483886719 273.8761901855469 387.4370422363281 278.0005798339844" stroke-width="0.0" fill="rgb(254, 93, 25)" opacity="0.92745847" stroke="rgb(0, 0, 0)" stroke-opacity="1.0" stroke-linecap="round" stroke-linejoin="round"/>
    <path d="M 354.8213806152344 55.057125091552734 C 312.5968017578125 113.3263168334961 312.0718078613281 153.7207794189453 292.5252380371094 133.23416137695312 C 124.52196502685547 119.49436950683594 261.5390319824219 183.33192443847656 158.17628479003906 58.70795440673828 C 142.7128448486328 -6.821669578552246 159.68601989746094 -12.690298080444336 267.774169921875 -54.8902473449707 C 321.6732482910156 14.243354797363281 381.2733459472656 6.06049108505249 354.8213806152344 55.057125091552734" stroke-width="0.0" fill="rgb(128, 255, 91)" opacity="1.0" stroke="rgb(0, 0, 0)" stroke-opacity="1.0" stroke-linecap="round" stroke-linejoin="round"/>
    <path d="M 220.59674072265625 326.2149963378906 C 154.67581176757812 380.892822265625 124.98724365234375 388.8912048339844 155.59182739257812 385.3676452636719 C 165.69142150878906 339.70208740234375 242.58453369140625 309.3863525390625 99.08607482910156 386.06396484375 C 137.41270446777344 365.7540283203125 191.55274963378906 331.2406311035156 225.41952514648438 332.1980895996094 C 128.2013397216797 386.1632385253906 82.85816955566406 415.8283386230469 220.59674072265625 326.2149963378906" stroke-width="0.0" fill="rgb(138, 195, 206)" opacity="0.3213017" stroke="rgb(0, 0, 0)" stroke-opacity="1.0" stroke-linecap="round" stroke-linejoin="round"/>
    <path d="M 554.3361206054688 53.61166000366211 C 526.7717895507812 73.4122314453125 512.4651489257812 68.95587158203125 517.2015380859375 95.08576965332031 C 492.9841613769531 117.9386978149414 454.4786071777344 65.15772247314453 320.99017333984375 58.62237548828125 C 315.064697265625 -7.386636257171631 305.1396789550781 -47.85893249511719 357.3442687988281 -53.60205078125 C 540.7415161132812 -11.430086135864258 538.7570190429688 -0.6763355731964111 554.3361206054688 53.61166000366211" stroke-width="0.0" fill="rgb(137, 255, 93)" opacity="1.0" stroke="rgb(0, 0, 0)" stroke-opacity="1.0" stroke-linecap="round" stroke-linejoin="round"/>
    <path d="M 200.1741485595703 287.6316223144531 C 211.92660522460938 267.0599365234375 221.02516174316406 258.5101318359375 238.04348754882812 308.0671081542969 C 184.07391357421875 346.980224609375 83.26411437988281 361.4154968261719 163.41717529296875 270.5467834472656 C 217.96749877929688 295.4051208496094 178.7957763671875 281.3008728027344 231.82327270507812 244.63595581054688 C 223.81588745117188 255.19677734375 218.7203369140625 274.800537109375 200.1741485595703 287.6316223144531" stroke-width="0.0" fill="rgb(119, 124, 241)" opacity="0.0" stroke="rgb(0, 0, 0)" stroke-opacity="1.0" stroke-linecap="round" stroke-linejoin="round"/>
    <path d="M 111.6386489868164 376.6181945800781 C 65.89852142333984 427.5966491699219 70.13609313964844 446.0141906738281 32.38093948364258 487.4314270019531 C -4.953091144561768 458.53277587890625 -13.718864440917969 455.422119140625 -46.732940673828125 394.9766540527344 C -23.678131103515625 347.0959167480469 -15.080029487609863 344.4150390625 41.33324432373047 341.3369445800781 C 83.1485595703125 359.86956787109375 90.94007873535156 370.3934631347656 111.6386489868164 376.6181945800781" stroke-width="0.0" fill="rgb(34, 93, 194)" opacity="0.5960642" stroke="rgb(0, 0, 0)" stroke-opacity="1.0" stroke-linecap="round" stroke-linejoin="round"/>
    <path d="M 247.0628204345703 317.82562255859375 C 254.49990844726562 357.7377624511719 269.6623840332031 378.6894226074219 276.1209411621094 351.09539794921875 C 292.5484924316406 339.4991760253906 280.7250671386719 331.9701843261719 241.6563720703125 333.8382873535156 C 212.84983825683594 324.1498718261719 292.49627685546875 311.1114501953125 250.8875732421875 309.9635314941406 C 264.7072448730469 332.21966552734375 263.2785339355469 310.8064270019531 247.0628204345703 317.82562255859375" stroke-width="0.0" fill="rgb(200, 92, 185)" opacity="0.31309015" stroke="rgb(0, 0, 0)" stroke-opacity="1.0" stroke-linecap="round" stroke-linejoin="round"/>
    <path d="M 383.2646789550781 215.5966796875 C 395.2459411621094 194.2511749267578 381.1546325683594 186.80667114257812 362.9873046875 159.67140197753906 C 361.1973876953125 178.8143768310547 368.0808410644531 208.8189697265625 381.7532043457031 237.7262725830078 C 398.4601745605469 226.93296813964844 422.5065612792969 218.0325927734375 417.170654296875 129.9312744140625 C 329.62298583984375 144.40179443359375 352.1949462890625 194.48031616210938 383.2646789550781 215.5966796875" stroke-width="0.0" fill="rgb(37, 11, 80)" opacity="1.0" stroke="rgb(0, 0, 0)" stroke-opacity="1.0" stroke-linecap="round" stroke-linejoin="round"/>
    <path d="M 128.44699096679688 278.153564453125 C 138.3965606689453 373.3843078613281 159.06298828125 339.89337158203125 216.9462432861328 337.48724365234375 C 40.108978271484375 377.395263671875 141.0983428955078 368.9019470214844 51.68560028076172 225.3756866455078 C 35.25358200073242 224.33767700195312 44.84730911254883 161.80563354492188 101.2980728149414 120.88146209716797 C 105.45923614501953 303.0599670410156 130.9302520751953 234.8872833251953 128.44699096679688 278.153564453125" stroke-width="0.0" fill="rgb(98, 52, 119)" opacity="0.85155463" stroke="rgb(0, 0, 0)" stroke-opacity="1.0" stroke-linecap="round" stroke-linejoin="round"/>
    <path d="M 138.81011962890625 507.3502197265625 C 121.73686981201172 530.532958984375 111.63887786865234 532.720703125 99.10615539550781 553.486083984375 C 45.69395446777344 558.9877319335938 47.026580810546875 548.3906860351562 -11.108256340026855 466.6186218261719 C 20.708621978759766 437.6317138671875 35.08788299560547 430.0590515136719 136.2227020263672 343.04241943359375 C 195.06143188476562 400.802001953125 164.11630249023438 460.900390625 138.81011962890625 507.3502197265625" stroke-width="0.0" fill="rgb(23, 128, 87)" opacity="0.98614866" stroke="rgb(0, 0, 0)" stroke-opacity="1.0" stroke-linecap="round" stroke-linejoin="round"/>
    <path d="M 130.1123046875 323.068603515625 C 73.85099029541016 321.57159423828125 133.1763458251953 296.7093200683594 139.51654052734375 342.1346435546875 C 87.75960540771484 449.0032043457031 46.176300048828125 452.96435546875 -45.365421295166016 418.5496826171875 C -38.79563903808594 229.1485137939453 -25.974536895751953 187.5898895263672 69.21142578125 214.1212158203125 C 146.0816192626953 304.62017822265625 108.60467529296875 244.41444396972656 130.1123046875 323.068603515625" stroke-width="0.0" fill="rgb(20, 127, 88)" opacity="0.99859655" stroke="rgb(0, 0, 0)" stroke-opacity="1.0" stroke-linecap="round" stroke-linejoin="round"/>
    <path d="M 207.10809326171875 538.6165771484375 C 201.7963409423828 549.9993286132812 192.96656799316406 541.8283081054688 189.211669921875 483.4931640625 C 183.14895629882812 455.5552673339844 173.06654357910156 466.5399475097656 107.43707275390625 487.1235046386719 C 101.64120483398438 434.0163879394531 113.46296691894531 442.9940185546875 177.6077880859375 371.9202880859375 C 207.91773986816406 418.8478698730469 185.6278839111328 469.4943542480469 207.10809326171875 538.6165771484375" stroke-width="0.0" fill="rgb(72, 111, 144)" opacity="0.0020009219" stroke="rgb(0, 0, 0)" stroke-opacity="1.0" stroke-linecap="round" stroke-linejoin="round"/>
    <path d="M 118.21487426757812 239.6058349609375 C 124.45437622070312 257.968994140625 127.26948547363281 220.00222778320312 124.3841552734375 281.1719970703125 C 50.86162567138672 295.3736572265625 36.36724853515625 278.7511901855469 -10.186017990112305 215.6479034423828 C 23.485107421875 188.93911743164062 49.28336715698242 171.50625610351562 104.85140991210938 110.07867431640625 C 98.79512023925781 193.2280731201172 90.28224182128906 215.57911682128906 118.21487426757812 239.6058349609375" stroke-width="0.0" fill="rgb(14, 123, 106)" opacity="0.9962184" stroke="rgb(0, 0, 0)" stroke-opacity="1.0" stroke-linecap="round" stroke-linejoin="round"/>
    <path d="M 105.50536346435547 156.59800720214844 C 109.53141784667969 113.2515869140625 102.93028259277344 121.00933837890625 94.27241516113281 145.60353088378906 C 113.80400085449219 143.64968872070312 106.30889892578125 141.4876251220703 120.23477172851562 122.44070434570312 C 125.32416534423828 74.62907409667969 160.51991271972656 75.27816772460938 74.6588363647461 86.2609634399414 C 32.639007568359375 93.75653076171875 95.32328033447266 162.97100830078125 105.50536346435547 156.59800720214844" stroke-width="0.0" fill="rgb(42, 0, 122)" opacity="0.9947291" stroke="rgb(0, 0, 0)" stroke-opacity="1.0" stroke-linecap="round" stroke-linejoin="round"/>
    <path d="M 278.7101745605469 260.2398986816406 C 250.2273406982422 261.05718994140625 284.4111328125 264.3935241699219 270.764892578125 257.8135681152344 C 287.66131591796875 225.22874450683594 239.5891571044922 260.0103454589844 231.11575317382812 254.505126953125 C 131.7127685546875 214.7869873046875 208.5956268310547 203.42730712890625 292.2638244628906 221.59031677246094 C 229.56137084960938 224.6270294189453 255.01930236816406 225.31646728515625 278.7101745605469 260.2398986816406" stroke-width="0.0" fill="rgb(18, 44, 185)" opacity="0.019863883" stroke="rgb(0, 0, 0)" stroke-opacity="1.0" stroke-linecap="round" stroke-linejoin="round"/>
    <path d="M 275.8821105957031 328.8740539550781 C 268.9012145996094 304.4313659667969 394.0501708984375 430.38275146484375 346.25750732421875 394.8888854980469 C 286.9890441894531 321.3575744628906 265.8941650390625 329.20782470703125 238.5404510498047 325.644775390625 C 260.30181884765625 298.87603759765625 236.77699279785156 360.24346923828125 286.54827880859375 320.67669677734375 C 298.0943908691406 373.3882751464844 265.16326904296875 360.304931640625 275.8821105957031 328.8740539550781" stroke-width="0.0" fill="rgb(255, 203, 217)" opacity="0.0" stroke="rgb(0, 0, 0)" stroke-opacity="1.0" stroke-linecap="round" stroke-linejoin="round"/>
    <path d="M 57.633140563964844 522.1729125976562 C 17.63055419921875 520.297607421875 10.367242813110352 526.9745483398438 0.9059716463088989 531.2067260742188 C -9.364206314086914 527.7437133789062 -16.68471336364746 520.4232177734375 -25.169536590576172 506.57476806640625 C -38.1737174987793 482.9083557128906 -47.541236877441406 457.8516540527344 1.7480311393737793 422.03009033203125 C 92.01052856445312 426.2334289550781 59.91105270385742 445.7462463378906 57.633140563964844 522.1729125976562" stroke-width="0.0" fill="rgb(27, 125, 84)" opacity="1.0" stroke="rgb(0, 0, 0)" stroke-opacity="1.0" stroke-linecap="round" stroke-linejoin="round"/>
    <path d="M 367.9209899902344 313.0722961425781 C 354.0668029785156 330.93939208984375 351.62353515625 315.3183288574219 405.0005798339844 347.4236755371094 C 274.1570739746094 306.3233947753906 252.69158935546875 287.6914978027344 375.690185546875 323.6910705566406 C 374.80963134765625 309.8040466308594 367.48675537109375 352.8604431152344 375.5340576171875 302.2859802246094 C 350.3602600097656 302.01422119140625 335.827392578125 311.2619323730469 367.9209899902344 313.0722961425781" stroke-width="0.0" fill="rgb(255, 132, 101)" opacity="0.10313681" stroke="rgb(0, 0, 0)" stroke-opacity="1.0" stroke-linecap="round" stroke-linejoin="round"/>
    <path d="M 309.9018249511719 410.5136413574219 C 300.9896545410156 409.55609130859375 306.2841796875 433.4124450683594 319.8025817871094 441.9722595214844 C 276.7357177734375 413.1976013183594 270.5957336425781 379.9795837402344 194.44375610351562 407.5400085449219 C 141.783935546875 413.8953857421875 115.01860046386719 400.3210144042969 230.5897674560547 383.7703857421875 C 306.05950927734375 381.8520812988281 286.7586364746094 422.370361328125 309.9018249511719 410.5136413574219" stroke-width="0.0" fill="rgb(71, 74, 241)" opacity="0.9523769" stroke="rgb(0, 0, 0)" stroke-opacity="1.0" stroke-linecap="round" stroke-linejoin="round"/>
    <path d="M 336.5108642578125 449.94073486328125 C 353.4788513183594 498.1912536621094 393.7906799316406 525.0687866210938 358.30731201171875 564.0079345703125 C 255.95274353027344 561.859619140625 276.29229736328125 506.3287353515625 282.3310241699219 452.81939697265625 C 269.88427734375 462.6132507324219 288.0198974609375 456.0574035644531 294.684326171875 420.93145751953125 C 306.95928955078125 432.14642333984375 327.5179748535156 428.1228332519531 336.5108642578125 449.94073486328125" stroke-width="0.0" fill="rgb(255, 241, 204)" opacity="1.0" stroke="rgb(0, 0, 0)" stroke-opacity="1.0" stroke-linecap="round" stroke-linejoin="round"/>
    <path d="M 333.28350830078125 147.94712829589844 C 284.8332824707031 149.90199279785156 291.5370788574219 170.29241943359375 294.7120361328125 221.84913635253906 C 248.06793212890625 221.97010803222656 252.12429809570312 205.5303955078125 257.7335205078125 158.64541625976562 C 302.57666015625 176.16246032714844 286.8188781738281 171.9371795654297 304.022216796875 147.79428100585938 C 312.6345520019531 105.92044830322266 356.9375305175781 93.46415710449219 333.28350830078125 147.94712829589844" stroke-width="0.0" fill="rgb(152, 79, 152)" opacity="0.59318835" stroke="rgb(0, 0, 0)" stroke-opacity="1.0" stroke-linecap="round" stroke-linejoin="round"/>
    <path d="M 376.1495056152344 276.9306335449219 C 356.26898193359375 311.2023620605469 334.55938720703125 264.4266052246094 334.5550842285156 211.189208984375 C 317.4771728515625 211.5377960205078 298.9754943847656 216.1285858154297 298.4145202636719 239.79481506347656 C 338.3741455078125 241.00128173828125 312.10626220703125 218.88523864746094 299.2513427734375 220.4425506591797 C 349.6903076171875 209.9764404296875 384.2322998046875 205.8427734375 376.1495056152344 276.9306335449219" stroke-width="0.0" fill="rgb(56, 5, 242)" opacity="0.7758571" stroke="rgb(0, 0, 0)" stroke-opacity="1.0" stroke-linecap="round" stroke-linejoin="round"/>
    <path d="M 326.8799133300781 433.38812255859375 C 336.0970153808594 398.8898620605469 303.16162109375 430.5609130859375 283.0517578125 470.1214904785156 C 254.09539794921875 463.7535400390625 280.06024169921875 452.3810729980469 295.8211975097656 444.2633361816406 C 290.5349426269531 427.76812744140625 303.5124206542969 417.1737060546875 338.0602111816406 392.3904113769531 C 354.0006408691406 399.7720947265625 334.5426330566406 448.7153625488281 326.8799133300781 433.38812255859375" stroke-width="0.0" fill="rgb(255, 189, 239)" opacity="1.0" stroke="rgb(0, 0, 0)" stroke-opacity="1.0" stroke-linecap="round" stroke-linejoin="round"/>
    <path d="M 156.70904541015625 27.595014572143555 C 160.099853515625 46.49055862426758 162.9838104248047 91.81841278076172 170.1649932861328 60.251041412353516 C 116.45626831054688 63.89616012573242 94.48755645751953 77.14716339111328 97.03782653808594 71.14379119873047 C 96.88117980957031 21.099458694458008 87.31580352783203 21.617034912109375 141.37550354003906 27.945974349975586 C 155.9926300048828 6.77979850769043 154.33346557617188 26.972145080566406 156.70904541015625 27.595014572143555" stroke-width="0.0" fill="rgb(147, 255, 90)" opacity="1.0" stroke="rgb(0, 0, 0)" stroke-opacity="1.0" stroke-linecap="round" stroke-linejoin="round"/>
    <path d="M 115.82740020751953 379.0821533203125 C 135.0487518310547 379.7273254394531 131.3980255126953 351.801025390625 132.3795166015625 348.0093688964844 C 123.1193618774414 361.2051696777344 125.0773696899414 353.422607421875 125.83456420898438 368.63470458984375 C 128.93043518066406 364.3062438964844 128.1212921142578 348.36566162109375 128.89613342285156 349.83807373046875 C 148.34947204589844 342.7585754394531 149.85345458984375 348.90093994140625 115.82740020751953 379.0821533203125" stroke-width="0.0" fill="rgb(73, 69, 193)" opacity="0.5315068" stroke="rgb(0, 0, 0)" stroke-opacity="1.0" stroke-linecap="round" stroke-linejoin="round"/>
    <path d="M 97.76715087890625 107.76141357421875 C 96.34679412841797 131.4171600341797 99.49549102783203 143.01666259765625 95.78192901611328 152.65707397460938 C 98.9638671875 159.05868530273438 108.96435546875 143.03993225097656 81.7445068359375 140.46031188964844 C 77.0177001953125 127.42115020751953 86.80557250976562 119.81645202636719 92.8525161743164 108.56285858154297 C 83.92103576660156 118.41178131103516 94.77268981933594 127.81532287597656 97.76715087890625 107.76141357421875" stroke-width="0.0" fill="rgb(0, 82, 83)" opacity="0.08901237" stroke="rgb(0, 0, 0)" stroke-opacity="1.0" stroke-linecap="round" stroke-linejoin="round"/>
    <path d="M 413.8131103515625 318.3934631347656 C 408.2275085449219 320.0629577636719 404.7989196777344 314.6084899902344 409.36456298828125 319.34881591796875 C 416.9656066894531 316.70379638671875 378.0861511230469 318.9078674316406 378.7265319824219 321.77325439453125 C 368.100341796875 314.95025634765625 368.8750305175781 321.2907409667969 410.1206970214844 316.8030090332031 C 398.7420349121094 318.757080078125 401.1198425292969 316.9444885253906 413.8131103515625 318.3934631347656" stroke-width="0.0" fill="rgb(161, 233, 106)" opacity="0.30973813" stroke="rgb(0, 0, 0)" stroke-opacity="1.0" stroke-linecap="round" stroke-linejoin="round"/>
    <path d="M 335.8992919921875 451.1659240722656 C 309.487548828125 461.7358093261719 301.24554443359375 456.9674377441406 278.4826965332031 511.6598205566406 C 231.6409149169922 535.0198974609375 250.4669952392578 509.8389892578125 256.0838928222656 473.8343505859375 C 283.3228759765625 443.8419189453125 280.2012023925781 425.809326171875 322.00994873046875 415.1214294433594 C 340.60498046875 415.1788635253906 333.4903869628906 385.7071533203125 335.8992919921875 451.1659240722656" stroke-width="0.0" fill="rgb(255, 226, 218)" opacity="1.0" stroke="rgb(0, 0, 0)" stroke-opacity="1.0" stroke-linecap="round" stroke-linejoin="round"/>
    <path d="M 266.2090759277344 285.9372863769531 C 265.9720458984375 306.7215881347656 268.9385986328125 311.67572021484375 240.54356384277344 313.68121337890625 C 204.97747802734375 329.5086669921875 168.49391174316406 333.2757568359375 203.82949829101562 304.515380859375 C 227.6209716796875 286.3912048339844 241.66111755371094 263.26055908203125 255.94384765625 265.0816650390625 C 243.43003845214844 262.72711181640625 249.884033203125 257.70245361328125 266.2090759277344 285.9372863769531" stroke-width="0.0" fill="rgb(230, 207, 255)" opacity="0.7445809" stroke="rgb(0, 0, 0)" stroke-opacity="1.0" stroke-linecap="round" stroke-linejoin="round"/>
    <path d="M 229.9261016845703 373.09735107421875 C 202.4047088623047 425.9289855957031 192.5708465576172 417.3785400390625 132.4955596923828 381.2707824707031 C 154.45379638671875 363.6528015136719 179.8451690673828 389.8197937011719 145.0131378173828 391.2084655761719 C 104.4486312866211 374.21575927734375 124.38306427001953 345.3922424316406 158.2151336669922 307.9667053222656 C 201.46804809570312 330.0340881347656 245.06341552734375 313.4312744140625 229.9261016845703 373.09735107421875" stroke-width="0.0" fill="rgb(137, 192, 251)" opacity="0.98421067" stroke="rgb(0, 0, 0)" stroke-opacity="1.0" stroke-linecap="round" stroke-linejoin="round"/>
    <path d="M 158.15318298339844 1.2411091327667236 C 204.8236083984375 5.2989068031311035 190.12445068359375 36.57749938964844 142.84510803222656 42.74241638183594 C 116.85103607177734 46.21901321411133 144.91224670410156 -14.777606010437012 113.69308471679688 4.3345746994018555 C 128.4810333251953 -0.6218953132629395 178.702880859375 4.661609649658203 221.70712280273438 2.4988908767700195 C 174.6511688232422 -18.93495750427246 176.6341094970703 -13.294123649597168 158.15318298339844 1.2411091327667236" stroke-width="0.0" fill="rgb(146, 255, 91)" opacity="0.5306484" stroke="rgb(0, 0, 0)" stroke-opacity="1.0" stroke-linecap="round" stroke-linejoin="round"/>
    <path d="M 279.736572265625 300.68359375 C 290.69189453125 339.8602600097656 274.9970703125 341.3821105957031 239.68179321289062 360.11248779296875 C 220.8402557373047 350.4835510253906 189.25027465820312 331.5891418457031 230.62820434570312 288.3697509765625 C 213.3834686279297 303.0027160644531 213.8534393310547 304.3596496582031 231.47276306152344 301.777587890625 C 266.06768798828125 280.8115234375 273.0567321777344 300.40447998046875 279.736572265625 300.68359375" stroke-width="0.0" fill="rgb(0, 0, 61)" opacity="1.0" stroke="rgb(0, 0, 0)" stroke-opacity="1.0" stroke-linecap="round" stroke-linejoin="round"/>
    <path d="M 100.8780517578125 99.93136596679688 C 82.6263198852539 122.71221923828125 49.938316345214844 132.49830627441406 53.80576705932617 132.8428955078125 C 46.7398681640625 145.4329071044922 38.538597106933594 122.8414306640625 34.90292739868164 148.91183471679688 C 23.22355079650879 125.68444061279297 45.350440979003906 123.34022521972656 55.1634635925293 122.27719116210938 C 69.22882080078125 97.95049285888672 93.79653930664062 93.349365234375 100.8780517578125 99.93136596679688" stroke-width="0.0" fill="rgb(81, 191, 177)" opacity="0.004567192" stroke="rgb(0, 0, 0)" stroke-opacity="1.0" stroke-linecap="round" stroke-linejoin="round"/>
    <path d="M 545.7658081054688 4.615780353546143 C 522.8929443359375 48.10106658935547 501.23541259765625 63.034446716308594 495.4762268066406 61.367244720458984 C 473.1910095214844 64.1195297241211 485.7608642578125 34.73783493041992 481.8692321777344 44.197120666503906 C 483.919677734375 24.636003494262695 477.5374755859375 11.6780424118042 496.4957580566406 -5.059835910797119 C 490.0970764160156 31.363243103027344 506.11456298828125 15.84555721282959 545.7658081054688 4.615780353546143" stroke-width="0.0" fill="rgb(182, 234, 113)" opacity="0.109417245" stroke="rgb(0, 0, 0)" stroke-opacity="1.0" stroke-linecap="round" stroke-linejoin="round"/>
    <path d="M 325.423095703125 319.1413879394531 C 293.095703125 316.1200866699219 289.5018615722656 325.5547790527344 281.47406005859375 303.2464904785156 C 271.9959716796875 295.42596435546875 256.1510009765625 301.4154052734375 241.45712280273438 292.650390625 C 232.5362091064453 232.8941650390625 254.27322387695312 239.8702850341797 282.85137939453125 282.9006652832031 C 278.29107666015625 297.8897399902344 296.0124816894531 300.7347412109375 325.423095703125 319.1413879394531" stroke-width="0.0" fill="rgb(255, 255, 206)" opacity="0.9537039" stroke="rgb(0, 0, 0)" stroke-opacity="1.0" stroke-linecap="round" stroke-linejoin="round"/>
    <path d="M 301.9771728515625 218.93431091308594 C 311.6965637207031 231.95675659179688 297.9524230957031 236.35311889648438 250.6192169189453 231.5986328125 C 247.1170654296875 219.29788208007812 258.9010009765625 222.55897521972656 253.58294677734375 189.49826049804688 C 255.01507568359375 198.1152801513672 244.03402709960938 214.67271423339844 251.59934997558594 240.04676818847656 C 262.01788330078125 230.31346130371094 314.9104919433594 220.2274932861328 301.9771728515625 218.93431091308594" stroke-width="0.0" fill="rgb(173, 87, 72)" opacity="0.39338645" stroke="rgb(0, 0, 0)" stroke-opacity="1.0" stroke-linecap="round" stroke-linejoin="round"/>
    <path d="M 62.14926528930664 308.92120361328125 C 44.20545959472656 330.2152099609375 38.02018356323242 332.3413391113281 19.003320693969727 344.68011474609375 C 33.0172004699707 338.2169494628906 14.527698516845703 332.6183166503906 30.281415939331055 340.6176452636719 C 30.256893157958984 327.2200012207031 40.99812698364258 311.7306213378906 62.51054000854492 316.47357177734375 C 61.337589263916016 291.2387390136719 68.11068725585938 317.3079833984375 62.14926528930664 308.92120361328125" stroke-width="0.0" fill="rgb(26, 121, 92)" opacity="0.53537816" stroke="rgb(0, 0, 0)" stroke-opacity="1.0" stroke-linecap="round" stroke-linejoin="round"/>
    <path d="M 251.67974853515625 466.92230224609375 C 172.40969848632812 459.3088684082031 204.13768005371094 460.0255432128906 192.28639221191406 501.8323669433594 C 183.5383758544922 456.49951171875 199.73252868652344 458.2726135253906 168.3471221923828 428.83502197265625 C 203.77732849121094 426.8880310058594 189.23037719726562 449.62384033203125 216.4739227294922 454.82232666015625 C 222.4607696533203 437.877685546875 227.28590393066406 443.22015380859375 251.67974853515625 466.92230224609375" stroke-width="0.0" fill="rgb(87, 198, 187)" opacity="0.07634326" stroke="rgb(0, 0, 0)" stroke-opacity="1.0" stroke-linecap="round" stroke-linejoin="round"/>
    <path d="M 23.6192684173584 329.23687744140625 C -4.620998859405518 352.1267395019531 -20.03192710876465 360.9268493652344 -1.3752224445343018 415.033447265625 C -13.829632759094238 404.56939697265625 -45.804630279541016 416.29339599609375 -23.307188034057617 369.0331726074219 C -4.477954864501953 345.9623107910156 9.179241180419922 343.3138732910156 40.56557083129883 310.9103698730469 C 37.8504753112793 320.1306457519531 38.390830993652344 310.667724609375 23.6192684173584 329.23687744140625" stroke-width="0.0" fill="rgb(159, 221, 159)" opacity="0.6182376" stroke="rgb(0, 0, 0)" stroke-opacity="1.0" stroke-linecap="round" stroke-linejoin="round"/>
    <path d="M 196.59420776367188 424.1434631347656 C 194.27920532226562 441.5703125 172.42593383789062 447.5447998046875 170.7779998779297 448.7198791503906 C 165.8919219970703 455.2417907714844 173.045654296875 441.8936462402344 175.59353637695312 415.54376220703125 C 187.31814575195312 421.3658752441406 148.79347229003906 401.5124816894531 179.11676025390625 435.77520751953125 C 163.9606475830078 429.3000183105469 195.59823608398438 425.0697021484375 196.59420776367188 424.1434631347656" stroke-width="0.0" fill="rgb(180, 123, 162)" opacity="0.012452574" stroke="rgb(0, 0, 0)" stroke-opacity="1.0" stroke-linecap="round" stroke-linejoin="round"/>
    <path d="M 380.9898681640625 252.25657653808594 C 396.5575866699219 239.1343994140625 375.7231140136719 229.71266174316406 370.04010009765625 223.502197265625 C 354.2074279785156 228.57875061035156 343.3700256347656 226.86691284179688 331.52716064453125 235.74203491210938 C 291.324462890625 224.56549072265625 293.4477844238281 156.88584899902344 349.3459167480469 151.82855224609375 C 376.3647766113281 207.35528564453125 383.2248840332031 214.6427764892578 380.9898681640625 252.25657653808594" stroke-width="0.0" fill="rgb(189, 102, 10)" opacity="1.0" stroke="rgb(0, 0, 0)" stroke-opacity="1.0" stroke-linecap="round" stroke-linejoin="round"/>
    <path d="M 148.21267700195312 244.71620178222656 C 183.90855407714844 278.8470458984375 174.2722930908203 281.5563049316406 196.14706420898438 277.5371398925781 C 187.5167236328125 274.6705322265625 188.5891876220703 251.19436645507812 146.03778076171875 249.59376525878906 C 157.14491271972656 241.7762451171875 161.43849182128906 246.11602783203125 185.29190063476562 240.47108459472656 C 214.14317321777344 220.32742309570312 160.0980682373047 193.79974365234375 148.21267700195312 244.71620178222656" stroke-width="0.0" fill="rgb(33, 46, 240)" opacity="0.01164177" stroke="rgb(0, 0, 0)" stroke-opacity="1.0" stroke-linecap="round" stroke-linejoin="round"/>
    <path d="M 262.4931640625 264.2483215332031 C 265.4654235839844 267.1945495605469 268.2843017578125 290.538818359375 277.59228515625 271.9906311035156 C 246.81272888183594 252.06658935546875 253.4295196533203 278.18597412109375 269.98077392578125 266.337890625 C 239.88290405273438 247.8489990234375 254.3917694091797 251.7699432373047 269.77362060546875 260.72198486328125 C 272.30047607421875 267.7425231933594 265.6165771484375 263.2751770019531 262.4931640625 264.2483215332031" stroke-width="0.0" fill="rgb(195, 129, 0)" opacity="0.06714253" stroke="rgb(0, 0, 0)" stroke-opacity="1.0" stroke-linecap="round" stroke-linejoin="round"/>
    <path d="M 173.09573364257812 371.816162109375 C 190.97837829589844 339.7982482910156 184.47210693359375 371.5208435058594 170.9071502685547 382.9349365234375 C 156.55357360839844 358.9335021972656 142.4800262451172 347.0875244140625 133.87335205078125 324.6046447753906 C 161.30662536621094 333.2794189453125 163.79690551757812 339.55810546875 153.2771759033203 344.01373291015625 C 152.002197265625 337.41839599609375 171.7099151611328 347.40869140625 173.09573364257812 371.816162109375" stroke-width="0.0" fill="rgb(121, 166, 250)" opacity="0.02028738" stroke="rgb(0, 0, 0)" stroke-opacity="1.0" stroke-linecap="round" stroke-linejoin="round"/>
    <path d="M 453.12017822265625 492.8830261230469 C 454.3170166015625 463.3605041503906 448.36370849609375 461.1077575683594 421.6417541503906 431.93145751953125 C 429.81866455078125 474.74224853515625 430.08856201171875 472.73870849609375 426.18353271484375 421.4021301269531 C 458.8172302246094 469.5970458984375 454.5567932128906 478.9724426269531 417.74432373046875 455.00445556640625 C 408.18719482421875 462.3519287109375 418.0841064453125 490.8186950683594 453.12017822265625 492.8830261230469" stroke-width="0.0" fill="rgb(131, 241, 122)" opacity="0.026471548" stroke="rgb(0, 0, 0)" stroke-opacity="1.0" stroke-linecap="round" stroke-linejoin="round"/>
    <path d="M 467.364013671875 420.8326721191406 C 403.37615966796875 422.55224609375 390.00189208984375 384.5827941894531 389.5917053222656 420.052001953125 C 342.2001953125 397.5985107421875 362.187744140625 371.5337829589844 411.7441101074219 355.46075439453125 C 460.7975158691406 356.7579040527344 457.2917785644531 366.4600524902344 459.2538757324219 360.7058410644531 C 461.9803466796875 360.5038757324219 463.419921875 381.5756530761719 467.364013671875 420.8326721191406" stroke-width="0.0" fill="rgb(123, 255, 89)" opacity="0.997768" stroke="rgb(0, 0, 0)" stroke-opacity="1.0" stroke-linecap="round" stroke-linejoin="round"/>
    <path d="M 37.19585418701172 100.43460083007812 C 32.43443298339844 118.51097869873047 24.131153106689453 138.19400024414062 24.49812126159668 142.3200225830078 C 16.789213180541992 129.55284118652344 11.006755828857422 127.35760498046875 31.037128448486328 121.48324584960938 C 25.08217430114746 101.13276672363281 7.570353031158447 90.18791961669922 11.228433609008789 82.98785400390625 C 32.59480667114258 106.14955139160156 37.049156188964844 111.80966186523438 37.19585418701172 100.43460083007812" stroke-width="0.0" fill="rgb(147, 255, 103)" opacity="0.0028840431" stroke="rgb(0, 0, 0)" stroke-opacity="1.0" stroke-linecap="round" stroke-linejoin="round"/>
    <path d="M 390.707763671875 104.97251892089844 C 404.4249572753906 144.17042541503906 399.19635009765625 144.791015625 344.0067138671875 155.5084228515625 C 336.6727294921875 97.40321350097656 342.9017028808594 87.01773071289062 355.0267639160156 114.46327209472656 C 325.360595703125 94.1621322631836 323.7214660644531 85.87174224853516 360.9341125488281 59.535152435302734 C 379.0843505859375 66.3916244506836 383.1899108886719 84.889404296875 390.707763671875 104.97251892089844" stroke-width="0.0" fill="rgb(3, 15, 140)" opacity="0.9585995" stroke="rgb(0, 0, 0)" stroke-opacity="1.0" stroke-linecap="round" stroke-linejoin="round"/>
    <path d="M 36.696529388427734 510.3002624511719 C 42.19290542602539 492.719482421875 38.4771842956543 502.3530578613281 34.339290618896484 489.0062561035156 C 16.859844207763672 490.0947265625 0.5511103868484497 463.10369873046875 -9.114904403686523 455.28961181640625 C -19.03371810913086 441.59759521484375 -6.089890956878662 443.360107421875 28.988447189331055 447.607177734375 C 32.86677932739258 465.31768798828125 24.06414794921875 489.4137878417969 36.696529388427734 510.3002624511719" stroke-width="0.0" fill="rgb(71, 108, 77)" opacity="0.07661028" stroke="rgb(0, 0, 0)" stroke-opacity="1.0" stroke-linecap="round" stroke-linejoin="round"/>
    <path d="M 162.41741943359375 221.13499450683594 C 151.82740783691406 260.8120422363281 146.6224822998047 250.3819580078125 126.03787231445312 267.5050964355469 C 128.34400939941406 246.4334716796875 129.88641357421875 236.41268920898438 129.71029663085938 272.24859619140625 C 109.97021484375 271.5533447265625 99.91777038574219 218.0978240966797 103.64446258544922 218.74234008789062 C 129.87539672851562 246.69805908203125 142.84413146972656 227.39784240722656 162.41741943359375 221.13499450683594" stroke-width="0.0" fill="rgb(0, 74, 174)" opacity="0.054939996" stroke="rgb(0, 0, 0)" stroke-opacity="1.0" stroke-linecap="round" stroke-linejoin="round"/>
    <path d="M 279.3105773925781 -4.26838493347168 C 286.0865478515625 32.60007095336914 281.1612548828125 37.9271354675293 274.9197082519531 14.295782089233398 C 276.92645263671875 26.821067810058594 269.7939453125 20.026979446411133 272.4572448730469 -8.523225784301758 C 226.90008544921875 -1.3244651556015015 255.44798278808594 4.529374599456787 316.01458740234375 -7.09860372543335 C 277.46722412109375 -28.92170524597168 274.5028076171875 6.531001567840576 279.3105773925781 -4.26838493347168" stroke-width="0.0" fill="rgb(139, 230, 109)" opacity="0.032060143" stroke="rgb(0, 0, 0)" stroke-opacity="1.0" stroke-linecap="round" stroke-linejoin="round"/>
    <path d="M 505.568359375 255.85304260253906 C 551.2538452148438 261.1613464355469 537.4964599609375 266.9528503417969 505.447265625 267.36297607421875 C 506.3970947265625 279.7619323730469 495.9374694824219 259.8454895019531 499.6748046875 259.64404296875 C 497.14434814453125 244.63540649414062 498.0924072265625 231.24282836914062 502.78387451171875 214.54400634765625 C 516.0643310546875 229.31005859375 501.78851318359375 261.17822265625 505.568359375 255.85304260253906" stroke-width="0.0" fill="rgb(160, 235, 44)" opacity="0.054749273" stroke="rgb(0, 0, 0)" stroke-opacity="1.0" stroke-linecap="round" stroke-linejoin="round"/>
    <path d="M 138.45237731933594 157.00823974609375 C 136.15582275390625 193.0001220703125 114.47476959228516 205.84132385253906 97.49694061279297 185.39552307128906 C 97.28160858154297 165.63613891601562 100.94931030273438 156.61972045898438 103.31731414794922 147.69325256347656 C 103.228759765625 159.85325622558594 107.14154815673828 142.80357360839844 123.84342193603516 105.82958221435547 C 151.49270629882812 115.7415542602539 148.99514770507812 140.4864501953125 138.45237731933594 157.00823974609375" stroke-width="0.0" fill="rgb(252, 118, 3)" opacity="0.73013216" stroke="rgb(0, 0, 0)" stroke-opacity="1.0" stroke-linecap="round" stroke-linejoin="round"/>
  </g>
</svg>
