<?xml version="1.0" ?>
<svg height="512" style="background-color: rgb(193, 195, 175, 0.22445958852767944)" version="1.1" width="512" xmlns="http://www.w3.org/2000/svg">
  <defs/>
  <g>
    <path d="M 534.5875854492188 454.8187561035156 C 547.4852905273438 516.6414794921875 548.3889770507812 525.1383666992188 391.3504943847656 531.8592529296875 C 319.76873779296875 563.2000122070312 290.24560546875 563.2000122070312 268.0829162597656 516.4954223632812 C 323.31536865234375 349.54443359375 389.583984375 344.873046875 493.88446044921875 318.6743469238281 C 562.9597778320312 317.2782287597656 563.1803588867188 334.9939880371094 534.5875854492188 454.8187561035156" fill="rgb(4, 170, 157)" opacity="0.94118595" stroke="rgb(0, 0, 0)" stroke-linecap="round" stroke-linejoin="round" stroke-opacity="1.0" stroke-width="0"/>
    <path d="M 294.88702392578125 432.8431091308594 C 302.2069091796875 486.9574890136719 289.6058044433594 510.467529296875 239.04840087890625 527.3285522460938 C -51.20000076293945 519.230712890625 -51.20000076293945 511.73809814453125 -39.78407669067383 477.9865417480469 C -14.505940437316895 212.02549743652344 -7.125476360321045 211.41798400878906 43.64209747314453 207.791259765625 C 226.5582733154297 257.42279052734375 259.09771728515625 211.731201171875 294.88702392578125 432.8431091308594" fill="rgb(196, 247, 30)" opacity="0.81194067" stroke="rgb(0, 0, 0)" stroke-linecap="round" stroke-linejoin="round" stroke-opacity="1.0" stroke-width="0"/>
    <path d="M 301.64703369140625 355.67236328125 C 413.1065673828125 332.3858642578125 224.67701721191406 422.8877868652344 244.39662170410156 364.7144775390625 C 121.38990020751953 450.72930908203125 7.581776142120361 341.84136962890625 58.26020812988281 176.96063232421875 C 52.524173736572266 180.15977478027344 39.33346939086914 174.21615600585938 129.42971801757812 183.50372314453125 C 200.57192993164062 247.35581970214844 296.2957763671875 146.77679443359375 301.64703369140625 355.67236328125" fill="rgb(0, 0, 10)" opacity="1.0" stroke="rgb(0, 0, 0)" stroke-linecap="round" stroke-linejoin="round" stroke-opacity="1.0" stroke-width="0"/>
    <path d="M 192.26284790039062 -47.78049087524414 C 177.10260009765625 143.8319091796875 157.881103515625 126.56228637695312 14.964871406555176 228.5714111328125 C -34.1719970703125 228.01138305664062 -32.03306198120117 211.32467651367188 -17.606813430786133 139.2661895751953 C -16.190303802490234 -17.708452224731445 -9.996477127075195 -23.574756622314453 32.775753021240234 -18.098133087158203 C 196.82273864746094 -23.394615173339844 224.5518341064453 -36.593833923339844 192.26284790039062 -47.78049087524414" fill="rgb(33, 184, 182)" opacity="0.8477545" stroke="rgb(0, 0, 0)" stroke-linecap="round" stroke-linejoin="round" stroke-opacity="1.0" stroke-width="0"/>
    <path d="M 511.2440185546875 80.78580474853516 C 429.82586669921875 291.9602966308594 431.8360595703125 383.8059387207031 333.4504699707031 314.9549865722656 C 350.02960205078125 210.18350219726562 134.71380615234375 327.540771484375 219.78366088867188 217.5501251220703 C 241.86318969726562 69.78559112548828 219.68008422851562 32.43754959106445 367.6966247558594 -30.140460968017578 C 563.2000122070312 -9.873539924621582 562.336669921875 6.786977291107178 511.2440185546875 80.78580474853516" fill="rgb(222, 202, 183)" opacity="0.7960564" stroke="rgb(0, 0, 0)" stroke-linecap="round" stroke-linejoin="round" stroke-opacity="1.0" stroke-width="0"/>
    <path d="M 253.7118377685547 169.84783935546875 C 176.4844970703125 294.2718505859375 260.5019226074219 244.0367889404297 187.22564697265625 298.3897705078125 C 190.69403076171875 176.8966827392578 130.54550170898438 182.15658569335938 72.42985534667969 233.49908447265625 C 140.1621856689453 133.38763427734375 105.26004791259766 52.35451126098633 328.5820007324219 -14.666207313537598 C 314.386474609375 -24.776212692260742 243.48561096191406 -46.80476760864258 253.7118377685547 169.84783935546875" fill="rgb(195, 162, 131)" opacity="1.0" stroke="rgb(0, 0, 0)" stroke-linecap="round" stroke-linejoin="round" stroke-opacity="1.0" stroke-width="0"/>
    <path d="M 453.89508056640625 316.28851318359375 C 440.2181396484375 432.1825866699219 459.5984191894531 450.5514831542969 234.9742431640625 439.96221923828125 C 85.29088592529297 416.5148010253906 62.56483840942383 421.2196044921875 317.9161376953125 416.3238220214844 C 225.94815063476562 271.40087890625 291.0550537109375 202.2720947265625 311.5306091308594 217.96783447265625 C 469.41375732421875 207.80679321289062 468.7855529785156 229.1131134033203 453.89508056640625 316.28851318359375" fill="rgb(0, 0, 25)" opacity="1.0" stroke="rgb(0, 0, 0)" stroke-linecap="round" stroke-linejoin="round" stroke-opacity="1.0" stroke-width="0"/>
    <path d="M 536.0035400390625 179.160888671875 C 551.9625244140625 324.6329650878906 559.4659423828125 344.3272705078125 472.2864685058594 418.568603515625 C 409.3885192871094 369.7167663574219 435.9978332519531 318.7669372558594 375.46624755859375 255.35707092285156 C 380.423583984375 97.02307891845703 351.7568359375 26.97710418701172 505.40966796875 27.807186126708984 C 560.7750854492188 49.99168014526367 562.1829833984375 87.45076751708984 536.0035400390625 179.160888671875" fill="rgb(15, 193, 183)" opacity="0.9514741" stroke="rgb(0, 0, 0)" stroke-linecap="round" stroke-linejoin="round" stroke-opacity="1.0" stroke-width="0"/>
    <path d="M 378.574462890625 108.68038177490234 C 379.121337890625 110.05687713623047 390.09173583984375 238.84292602539062 361.94793701171875 369.2566223144531 C 393.9893493652344 109.94853210449219 121.93090057373047 285.70172119140625 223.08746337890625 210.14686584472656 C 204.2425994873047 214.2493438720703 295.4630126953125 212.52182006835938 381.3962707519531 216.2800750732422 C 394.2875671386719 99.05915069580078 358.84637451171875 123.09326934814453 378.574462890625 108.68038177490234" fill="rgb(0, 0, 22)" opacity="0.6690155" stroke="rgb(0, 0, 0)" stroke-linecap="round" stroke-linejoin="round" stroke-opacity="1.0" stroke-width="0"/>
    <path d="M 241.03562927246094 262.9910583496094 C 255.50331115722656 253.8230743408203 215.9285888671875 296.08746337890625 214.15684509277344 287.2010498046875 C 262.96624755859375 277.50482177734375 243.36769104003906 270.73516845703125 190.2799835205078 274.6412658691406 C 191.8341064453125 196.40077209472656 225.31817626953125 198.65431213378906 217.58627319335938 245.27662658691406 C 241.36944580078125 257.36456298828125 218.5953369140625 224.07974243164062 241.03562927246094 262.9910583496094" fill="rgb(1, 1, 8)" opacity="0.9860468" stroke="rgb(0, 0, 0)" stroke-linecap="round" stroke-linejoin="round" stroke-opacity="1.0" stroke-width="0"/>
    <path d="M 381.2543029785156 251.8045654296875 C 364.3279113769531 266.1346435546875 376.9151306152344 284.7622375488281 405.27490234375 366.2870178222656 C 355.552734375 334.4108581542969 355.2721252441406 339.614013671875 355.5986328125 323.57904052734375 C 349.902099609375 170.38021850585938 382.16107177734375 220.80575561523438 376.759033203125 182.82777404785156 C 398.9395446777344 263.35015869140625 376.146240234375 255.51370239257812 381.2543029785156 251.8045654296875" fill="rgb(7, 216, 205)" opacity="0.9218376" stroke="rgb(0, 0, 0)" stroke-linecap="round" stroke-linejoin="round" stroke-opacity="1.0" stroke-width="0"/>
    <path d="M 356.1656494140625 101.85055541992188 C 260.74859619140625 99.4981460571289 262.9972839355469 99.6724624633789 149.96104431152344 106.71188354492188 C 164.10374450683594 127.03714752197266 182.3625946044922 49.91344451904297 130.85072326660156 166.15940856933594 C 121.43174743652344 23.947160720825195 146.10891723632812 7.3455305099487305 212.2750701904297 -28.72355079650879 C 362.8919372558594 -21.20246124267578 381.3089294433594 0.3065063953399658 356.1656494140625 101.85055541992188" fill="rgb(27, 176, 188)" opacity="1.0" stroke="rgb(0, 0, 0)" stroke-linecap="round" stroke-linejoin="round" stroke-opacity="1.0" stroke-width="0"/>
    <path d="M 361.1737365722656 434.208984375 C 95.26713562011719 373.7769775390625 354.3251037597656 411.488037109375 122.70331573486328 401.88812255859375 C 125.1078109741211 331.5086364746094 81.64464569091797 377.2513122558594 374.2191162109375 353.17657470703125 C 204.72523498535156 345.8119201660156 -48.331966400146484 367.954345703125 -46.497135162353516 323.2774353027344 C 92.34890747070312 390.6523132324219 503.6680908203125 306.9071960449219 361.1737365722656 434.208984375" fill="rgb(236, 211, 185)" opacity="0.9982297" stroke="rgb(0, 0, 0)" stroke-linecap="round" stroke-linejoin="round" stroke-opacity="1.0" stroke-width="0"/>
    <path d="M 519.6055297851562 42.04627227783203 C 498.43243408203125 55.59925079345703 481.20245361328125 57.914676666259766 470.26806640625 52.156829833984375 C 479.4792175292969 60.77572250366211 463.3769836425781 49.39544677734375 388.6021423339844 63.31824493408203 C 393.52056884765625 11.241456031799316 398.11224365234375 -16.404800415039062 451.43212890625 -16.350234985351562 C 540.9146118164062 -10.191633224487305 536.6610717773438 3.261720895767212 519.6055297851562 42.04627227783203" fill="rgb(28, 192, 166)" opacity="0.9982877" stroke="rgb(0, 0, 0)" stroke-linecap="round" stroke-linejoin="round" stroke-opacity="1.0" stroke-width="0"/>
    <path d="M 462.79779052734375 428.5013427734375 C 452.3758239746094 436.58056640625 452.9141540527344 442.61041259765625 410.45111083984375 461.0000915527344 C 393.8674621582031 468.3203430175781 385.8386535644531 466.5864562988281 378.9274597167969 410.3223876953125 C 375.707763671875 337.4004821777344 403.0726318359375 315.4703369140625 445.6685485839844 361.5867919921875 C 449.722900390625 418.1330261230469 479.38629150390625 404.9082336425781 462.79779052734375 428.5013427734375" fill="rgb(38, 192, 179)" opacity="1.0" stroke="rgb(0, 0, 0)" stroke-linecap="round" stroke-linejoin="round" stroke-opacity="1.0" stroke-width="0"/>
    <path d="M 323.005859375 415.2590637207031 C 338.49835205078125 424.54815673828125 336.0218200683594 475.57537841796875 266.22216796875 557.4069213867188 C 127.36542510986328 555.9122314453125 96.56324005126953 539.6063842773438 73.88025665283203 416.56304931640625 C 251.3522186279297 416.5874328613281 282.4590759277344 416.9638366699219 293.7034606933594 420.4844055175781 C 289.6067810058594 415.630126953125 290.4432678222656 418.02734375 323.005859375 415.2590637207031" fill="rgb(38, 83, 238)" opacity="0.9998167" stroke="rgb(0, 0, 0)" stroke-linecap="round" stroke-linejoin="round" stroke-opacity="1.0" stroke-width="0"/>
    <path d="M 448.2242126464844 433.0002136230469 C 425.003173828125 472.3357849121094 404.78912353515625 454.0417175292969 359.64984130859375 459.694580078125 C 330.8012390136719 460.9161376953125 313.08636474609375 505.17169189453125 275.740234375 436.75384521484375 C 279.2503356933594 395.7699890136719 281.9624938964844 422.58453369140625 352.5480651855469 431.38128662109375 C 449.1824645996094 419.9349060058594 437.48077392578125 348.8382263183594 448.2242126464844 433.0002136230469" fill="rgb(47, 160, 233)" opacity="0.8542629" stroke="rgb(0, 0, 0)" stroke-linecap="round" stroke-linejoin="round" stroke-opacity="1.0" stroke-width="0"/>
    <path d="M 58.35260009765625 389.9928283691406 C 66.35595703125 431.0703125 76.26368713378906 455.51513671875 -3.1818292140960693 466.7799377441406 C -11.336326599121094 393.3880310058594 14.157942771911621 402.9456481933594 25.460689544677734 406.3775939941406 C 31.991134643554688 406.4914245605469 35.4478759765625 393.6908264160156 65.3320083618164 400.5423583984375 C 49.75442123413086 419.0579833984375 40.79535675048828 392.4345703125 58.35260009765625 389.9928283691406" fill="rgb(117, 126, 217)" opacity="0.45447505" stroke="rgb(0, 0, 0)" stroke-linecap="round" stroke-linejoin="round" stroke-opacity="1.0" stroke-width="0"/>
    <path d="M 372.80908203125 124.8714370727539 C 371.2061462402344 134.406494140625 431.47882080078125 134.49502563476562 286.5258483886719 133.7320098876953 C 362.7348327636719 127.1457748413086 371.3172302246094 151.38818359375 344.1755065917969 104.86453247070312 C 177.7423553466797 104.23609161376953 132.6408233642578 107.86835479736328 187.27969360351562 103.11947631835938 C 397.3282165527344 108.59131622314453 344.27862548828125 90.68264770507812 372.80908203125 124.8714370727539" fill="rgb(126, 3, 29)" opacity="1.0" stroke="rgb(0, 0, 0)" stroke-linecap="round" stroke-linejoin="round" stroke-opacity="1.0" stroke-width="0"/>
    <path d="M 367.063232421875 217.8861846923828 C 351.48492431640625 216.8362274169922 359.5976867675781 156.61289978027344 357.3722229003906 335.63507080078125 C 349.17889404296875 131.31105041503906 420.0166320800781 228.12364196777344 196.0191192626953 206.80117797851562 C 174.71990966796875 220.80844116210938 445.2930908203125 205.27853393554688 355.4533386230469 208.896728515625 C 372.00830078125 178.6976776123047 392.38055419921875 209.7035369873047 367.063232421875 217.8861846923828" fill="rgb(202, 233, 145)" opacity="0.2065395" stroke="rgb(0, 0, 0)" stroke-linecap="round" stroke-linejoin="round" stroke-opacity="1.0" stroke-width="0"/>
    <path d="M 147.89930725097656 309.4189758300781 C 151.02870178222656 376.3577880859375 104.79702758789062 303.1463623046875 129.0749969482422 428.36004638671875 C 38.61985397338867 473.96533203125 -29.25341033935547 433.5038757324219 -50.14402770996094 303.014892578125 C -5.650158405303955 202.91796875 32.465572357177734 205.49978637695312 154.21788024902344 101.60386657714844 C 134.8142547607422 133.1540069580078 151.43601989746094 178.19033813476562 147.89930725097656 309.4189758300781" fill="rgb(25, 98, 255)" opacity="1.0" stroke="rgb(0, 0, 0)" stroke-linecap="round" stroke-linejoin="round" stroke-opacity="1.0" stroke-width="0"/>
    <path d="M 113.68280029296875 516.1041259765625 C 123.9425277709961 521.8115844726562 111.82440948486328 523.4666748046875 91.45539093017578 525.6927490234375 C 73.51216125488281 527.4002685546875 59.73955154418945 524.6906127929688 23.846126556396484 471.2541809082031 C 19.940214157104492 436.5728759765625 27.89189338684082 419.0467224121094 72.8218994140625 401.93939208984375 C 139.94390869140625 431.4884033203125 124.59081268310547 474.98553466796875 113.68280029296875 516.1041259765625" fill="rgb(73, 61, 255)" opacity="1.0" stroke="rgb(0, 0, 0)" stroke-linecap="round" stroke-linejoin="round" stroke-opacity="1.0" stroke-width="0"/>
    <path d="M 223.6050262451172 146.81126403808594 C 295.97186279296875 229.1655731201172 264.4953918457031 54.403114318847656 288.9334411621094 149.7452850341797 C 258.5968322753906 198.7000274658203 206.53372192382812 169.43798828125 231.62371826171875 123.47797393798828 C 233.78500366210938 226.09689331054688 314.4385070800781 120.26295471191406 230.7127685546875 119.571533203125 C 301.4472351074219 73.64208221435547 297.3678894042969 212.8589630126953 223.6050262451172 146.81126403808594" fill="rgb(175, 59, 11)" opacity="0.59258956" stroke="rgb(0, 0, 0)" stroke-linecap="round" stroke-linejoin="round" stroke-opacity="1.0" stroke-width="0"/>
    <path d="M 295.2625427246094 249.04527282714844 C 276.97991943359375 245.2732391357422 273.07232666015625 258.98748779296875 255.9901123046875 245.3542938232422 C 257.1805114746094 259.9549255371094 266.652099609375 258.45208740234375 280.5858459472656 260.3231201171875 C 283.6640930175781 214.2232208251953 287.5180969238281 225.72308349609375 287.3597106933594 211.71762084960938 C 297.2669372558594 219.98985290527344 295.788330078125 200.8997344970703 295.2625427246094 249.04527282714844" fill="rgb(255, 190, 48)" opacity="0.2598592" stroke="rgb(0, 0, 0)" stroke-linecap="round" stroke-linejoin="round" stroke-opacity="1.0" stroke-width="0"/>
    <path d="M 288.253173828125 147.76669311523438 C 203.55540466308594 120.94145965576172 255.2863311767578 136.38848876953125 235.49362182617188 137.2167205810547 C 256.1465759277344 131.4566650390625 114.20501708984375 135.7994384765625 135.90567016601562 131.2598419189453 C 219.3654022216797 134.8450164794922 242.15914916992188 123.33663940429688 228.48684692382812 136.0319061279297 C 242.4051055908203 129.5369415283203 213.27713012695312 117.96385955810547 288.253173828125 147.76669311523438" fill="rgb(160, 10, 64)" opacity="0.6795289" stroke="rgb(0, 0, 0)" stroke-linecap="round" stroke-linejoin="round" stroke-opacity="1.0" stroke-width="0"/>
    <path d="M 362.294677734375 358.624267578125 C 352.3041687011719 321.4732666015625 311.6400451660156 336.8519592285156 289.3354187011719 349.9832458496094 C 311.8833312988281 337.63568115234375 262.70184326171875 338.493896484375 147.3114013671875 349.55963134765625 C 181.36016845703125 319.1457824707031 167.09085083007812 339.91534423828125 313.28094482421875 335.7621154785156 C 254.6192626953125 338.36370849609375 303.0673522949219 324.2341613769531 362.294677734375 358.624267578125" fill="rgb(227, 224, 211)" opacity="0.87505156" stroke="rgb(0, 0, 0)" stroke-linecap="round" stroke-linejoin="round" stroke-opacity="1.0" stroke-width="0"/>
    <path d="M 63.471736907958984 517.9717407226562 C 30.760190963745117 533.237060546875 12.10596752166748 529.2991333007812 0.7132576107978821 530.5223388671875 C -9.364206314086914 527.7437133789062 -16.68471336364746 520.4232177734375 -20.64738655090332 510.0622253417969 C -19.44413948059082 498.2104187011719 -31.31902503967285 473.1430358886719 6.25072717666626 407.55169677734375 C 62.19081115722656 426.1655578613281 62.29772186279297 457.9221496582031 63.471736907958984 517.9717407226562" fill="rgb(100, 69, 255)" opacity="1.0" stroke="rgb(0, 0, 0)" stroke-linecap="round" stroke-linejoin="round" stroke-opacity="1.0" stroke-width="0"/>
    <path d="M 176.43902587890625 201.9071807861328 C 292.0251770019531 212.0530242919922 330.1636047363281 215.53622436523438 126.75181579589844 214.2831573486328 C 124.04713439941406 189.60646057128906 127.79218292236328 156.3524169921875 123.19580841064453 159.98880004882812 C 126.7151870727539 161.1058807373047 115.02980041503906 120.33767700195312 143.80645751953125 131.5284881591797 C 149.461669921875 120.57556915283203 152.82191467285156 160.1983184814453 176.43902587890625 201.9071807861328" fill="rgb(255, 190, 44)" opacity="1.0" stroke="rgb(0, 0, 0)" stroke-linecap="round" stroke-linejoin="round" stroke-opacity="1.0" stroke-width="0"/>
    <path d="M 189.0274200439453 103.63573455810547 C 160.64784240722656 106.93113708496094 167.30555725097656 97.15027618408203 146.92808532714844 133.3137664794922 C 121.44511413574219 137.20008850097656 144.54891967773438 115.75006103515625 152.88356018066406 101.84751892089844 C 163.5972900390625 96.29368591308594 210.575927734375 105.73469543457031 194.49913024902344 107.79621124267578 C 185.43527221679688 107.47110748291016 195.5679168701172 105.75224304199219 189.0274200439453 103.63573455810547" fill="rgb(148, 41, 1)" opacity="0.93298954" stroke="rgb(0, 0, 0)" stroke-linecap="round" stroke-linejoin="round" stroke-opacity="1.0" stroke-width="0"/>
    <path d="M 448.2062072753906 111.66556549072266 C 432.43389892578125 128.31271362304688 419.91461181640625 121.84938049316406 387.5693054199219 126.22234344482422 C 373.3121032714844 134.2217254638672 372.4801025390625 132.90826416015625 353.3847961425781 95.3006362915039 C 362.62115478515625 35.88169479370117 325.1771240234375 -17.18993377685547 361.0252685546875 -50.33570861816406 C 465.3533630371094 39.798118591308594 459.3642272949219 80.29360961914062 448.2062072753906 111.66556549072266" fill="rgb(24, 180, 170)" opacity="0.995265" stroke="rgb(0, 0, 0)" stroke-linecap="round" stroke-linejoin="round" stroke-opacity="1.0" stroke-width="0"/>
    <path d="M 377.8938903808594 255.97755432128906 C 391.6315612792969 276.9476318359375 369.19781494140625 271.72119140625 369.6385803222656 255.16766357421875 C 346.0867614746094 246.18414306640625 329.3702087402344 252.23011779785156 321.80548095703125 238.51002502441406 C 306.5618591308594 212.92921447753906 329.6239929199219 213.5019073486328 328.3935852050781 229.09390258789062 C 336.7806396484375 247.738037109375 377.6265563964844 233.5054931640625 377.8938903808594 255.97755432128906" fill="rgb(255, 180, 0)" opacity="1.0" stroke="rgb(0, 0, 0)" stroke-linecap="round" stroke-linejoin="round" stroke-opacity="1.0" stroke-width="0"/>
    <path d="M 241.96949768066406 276.1373291015625 C 232.7945556640625 311.0013122558594 220.5856475830078 355.103759765625 177.61514282226562 343.6938781738281 C 146.67758178710938 319.2521667480469 140.21607971191406 281.1033935546875 144.38970947265625 269.3783264160156 C 151.40476989746094 265.4486999511719 167.30853271484375 265.63519287109375 184.20303344726562 261.752685546875 C 202.3017120361328 266.8403625488281 223.96876525878906 258.5882568359375 241.96949768066406 276.1373291015625" fill="rgb(255, 255, 230)" opacity="1.0" stroke="rgb(0, 0, 0)" stroke-linecap="round" stroke-linejoin="round" stroke-opacity="1.0" stroke-width="0"/>
    <path d="M 196.939453125 418.6622009277344 C 181.41073608398438 412.348876953125 181.69281005859375 432.3473205566406 174.29562377929688 434.9066162109375 C 137.16859436035156 432.945068359375 134.07174682617188 443.771484375 129.43463134765625 406.0250549316406 C 123.33464813232422 423.6174621582031 153.97286987304688 413.1282043457031 195.8201904296875 409.8603210449219 C 180.28363037109375 413.7861022949219 189.80596923828125 419.9653625488281 196.939453125 418.6622009277344" fill="rgb(255, 114, 0)" opacity="1.0" stroke="rgb(0, 0, 0)" stroke-linecap="round" stroke-linejoin="round" stroke-opacity="1.0" stroke-width="0"/>
    <path d="M 440.64532470703125 388.41412353515625 C 405.58502197265625 386.9731750488281 409.1601257324219 400.8948974609375 400.841796875 446.7962951660156 C 358.7335510253906 438.6805114746094 371.4413757324219 429.9546203613281 385.237548828125 394.5185852050781 C 385.527587890625 354.543212890625 377.4369201660156 360.9278564453125 430.85491943359375 354.9699401855469 C 416.5213317871094 390.2189636230469 436.47247314453125 387.847900390625 440.64532470703125 388.41412353515625" fill="rgb(27, 190, 175)" opacity="0.9846298" stroke="rgb(0, 0, 0)" stroke-linecap="round" stroke-linejoin="round" stroke-opacity="1.0" stroke-width="0"/>
    <path d="M 276.1128234863281 145.1223907470703 C 276.2524719238281 150.1682586669922 266.7734375 159.9573516845703 251.923583984375 164.79293823242188 C 246.17654418945312 160.93968200683594 237.88818359375 143.04409790039062 243.31849670410156 131.552490234375 C 227.6764373779297 123.17794799804688 244.32154846191406 115.12499237060547 235.0084991455078 126.41819763183594 C 237.48158264160156 125.56261444091797 268.23284912109375 133.0677947998047 276.1128234863281 145.1223907470703" fill="rgb(233, 174, 75)" opacity="1.0" stroke="rgb(0, 0, 0)" stroke-linecap="round" stroke-linejoin="round" stroke-opacity="1.0" stroke-width="0"/>
    <path d="M 250.66358947753906 275.66455078125 C 270.8480224609375 281.4162902832031 275.3566589355469 300.8769226074219 262.50640869140625 316.73089599609375 C 244.86248779296875 335.0260009765625 207.60850524902344 323.53936767578125 228.0666961669922 314.4656677246094 C 274.2592468261719 309.63995361328125 252.04454040527344 283.4241943359375 224.12307739257812 283.14300537109375 C 241.09356689453125 268.114013671875 244.3045196533203 276.99884033203125 250.66358947753906 275.66455078125" fill="rgb(255, 247, 220)" opacity="1.0" stroke="rgb(0, 0, 0)" stroke-linecap="round" stroke-linejoin="round" stroke-opacity="1.0" stroke-width="0"/>
    <path d="M 190.99012756347656 348.7508239746094 C 166.40170288085938 353.6197204589844 162.4457550048828 364.7002868652344 157.9652557373047 358.0307312011719 C 141.54058837890625 375.9408264160156 130.8330078125 383.5171203613281 120.25016784667969 357.51934814453125 C 128.81858825683594 341.2771911621094 155.7478485107422 333.2202453613281 141.49954223632812 337.3396911621094 C 176.52359008789062 339.14202880859375 180.56492614746094 346.48333740234375 190.99012756347656 348.7508239746094" fill="rgb(159, 15, 4)" opacity="0.24513514" stroke="rgb(0, 0, 0)" stroke-linecap="round" stroke-linejoin="round" stroke-opacity="1.0" stroke-width="0"/>
    <path d="M 193.94276428222656 272.3913879394531 C 246.59034729003906 273.4923400878906 237.03643798828125 280.69976806640625 177.87364196777344 280.5975646972656 C 148.36575317382812 269.9512634277344 154.62158203125 273.42437744140625 181.2227020263672 269.8764343261719 C 181.50653076171875 260.1731262207031 186.9657745361328 250.3915557861328 190.60040283203125 245.18048095703125 C 179.2050018310547 227.3246612548828 180.1209259033203 250.55364990234375 193.94276428222656 272.3913879394531" fill="rgb(102, 49, 0)" opacity="0.53679407" stroke="rgb(0, 0, 0)" stroke-linecap="round" stroke-linejoin="round" stroke-opacity="1.0" stroke-width="0"/>
    <path d="M 290.37005615234375 248.9871063232422 C 274.60406494140625 245.462158203125 277.5640869140625 261.6636047363281 272.9236755371094 269.2926940917969 C 264.2587890625 272.7840270996094 250.55508422851562 268.92572021484375 254.315185546875 266.2522888183594 C 255.88235473632812 229.07760620117188 254.1683349609375 228.57090759277344 273.47808837890625 238.48416137695312 C 290.732421875 223.419677734375 293.78289794921875 230.61557006835938 290.37005615234375 248.9871063232422" fill="rgb(228, 203, 200)" opacity="0.8154038" stroke="rgb(0, 0, 0)" stroke-linecap="round" stroke-linejoin="round" stroke-opacity="1.0" stroke-width="0"/>
    <path d="M 191.8426971435547 339.4792785644531 C 180.43653869628906 349.45574951171875 172.43121337890625 356.2176513671875 167.45169067382812 353.75482177734375 C 160.85476684570312 358.47967529296875 150.91128540039062 352.5643310546875 156.4909210205078 350.28271484375 C 162.67929077148438 338.0670166015625 163.19580078125 334.1832580566406 185.03271484375 343.1125793457031 C 184.76641845703125 341.4209899902344 194.73486328125 341.8264465332031 191.8426971435547 339.4792785644531" fill="rgb(24, 98, 134)" opacity="0.03591464" stroke="rgb(0, 0, 0)" stroke-linecap="round" stroke-linejoin="round" stroke-opacity="1.0" stroke-width="0"/>
    <path d="M 89.85611724853516 450.404052734375 C 83.03901672363281 464.77459716796875 77.90801239013672 471.882568359375 67.37007904052734 465.2593994140625 C 57.46306228637695 463.50775146484375 52.287052154541016 457.4674377441406 64.71685028076172 445.14923095703125 C 53.136295318603516 436.32354736328125 62.139827728271484 437.4912109375 68.12393188476562 438.3164367675781 C 72.61082458496094 440.68438720703125 88.2468032836914 435.5002746582031 89.85611724853516 450.404052734375" fill="rgb(78, 143, 236)" opacity="0.07392296" stroke="rgb(0, 0, 0)" stroke-linecap="round" stroke-linejoin="round" stroke-opacity="1.0" stroke-width="0"/>
    <path d="M 456.56591796875 454.8308410644531 C 456.1215515136719 465.2684631347656 447.1376037597656 477.3495788574219 443.1517028808594 483.6352844238281 C 428.2955627441406 476.1517333984375 424.48248291015625 473.11578369140625 427.8014221191406 468.70355224609375 C 425.8802185058594 447.50048828125 433.88775634765625 441.2359924316406 448.3490295410156 437.5110778808594 C 449.07708740234375 444.56561279296875 456.80535888671875 450.9387512207031 456.56591796875 454.8308410644531" fill="rgb(63, 212, 186)" opacity="0.0" stroke="rgb(0, 0, 0)" stroke-linecap="round" stroke-linejoin="round" stroke-opacity="1.0" stroke-width="0"/>
    <path d="M 451.4507141113281 361.39501953125 C 450.605224609375 383.34210205078125 452.9319763183594 400.2618713378906 434.3733215332031 395.0465087890625 C 416.3192138671875 399.68218994140625 412.8995056152344 384.6043395996094 424.4002685546875 365.3495788574219 C 416.2362365722656 355.2572937011719 423.48370361328125 351.5845031738281 457.9267272949219 354.3371276855469 C 449.33929443359375 348.7081298828125 453.3507385253906 349.9234619140625 451.4507141113281 361.39501953125" fill="rgb(0, 150, 107)" opacity="0.38777682" stroke="rgb(0, 0, 0)" stroke-linecap="round" stroke-linejoin="round" stroke-opacity="1.0" stroke-width="0"/>
    <path d="M 55.03830337524414 465.8444519042969 C 51.42273712158203 481.1107177734375 42.125732421875 485.3319396972656 36.40311813354492 480.934326171875 C 31.320711135864258 478.1471862792969 26.951467514038086 476.8260498046875 34.40113067626953 463.4565734863281 C 26.172893524169922 468.4974060058594 24.291492462158203 456.7190246582031 33.762245178222656 457.0188903808594 C 36.85319900512695 453.5599365234375 49.627769470214844 459.3998718261719 55.03830337524414 465.8444519042969" fill="rgb(122, 84, 255)" opacity="0.0" stroke="rgb(0, 0, 0)" stroke-linecap="round" stroke-linejoin="round" stroke-opacity="1.0" stroke-width="0"/>
    <path d="M 148.70619201660156 241.5789337158203 C 154.44192504882812 248.44520568847656 142.09088134765625 254.9011993408203 137.99147033691406 275.00579833984375 C 118.29437255859375 277.56683349609375 117.60514068603516 263.7913818359375 122.71733856201172 241.8678436279297 C 109.88139343261719 225.4326934814453 114.5552978515625 216.89500427246094 126.79251861572266 222.4677734375 C 145.86489868164062 216.6556396484375 151.8338623046875 230.56011962890625 148.70619201660156 241.5789337158203" fill="rgb(0, 83, 238)" opacity="0.0" stroke="rgb(0, 0, 0)" stroke-linecap="round" stroke-linejoin="round" stroke-opacity="1.0" stroke-width="0"/>
    <path d="M 465.7458801269531 233.73678588867188 C 466.72906494140625 243.25997924804688 461.6820373535156 252.31710815429688 464.84661865234375 253.38710021972656 C 452.5130310058594 239.8227996826172 443.6291809082031 234.92494201660156 448.69158935546875 246.09347534179688 C 446.0712585449219 229.8380584716797 444.6767272949219 223.04476928710938 461.12591552734375 227.0615234375 C 458.1668701171875 210.87774658203125 472.7997741699219 223.2197723388672 465.7458801269531 233.73678588867188" fill="rgb(25, 170, 150)" opacity="0.0" stroke="rgb(0, 0, 0)" stroke-linecap="round" stroke-linejoin="round" stroke-opacity="1.0" stroke-width="0"/>
    <path d="M 371.03753662109375 192.16973876953125 C 369.9285888671875 202.14012145996094 366.52520751953125 213.49929809570312 371.5467224121094 216.33114624023438 C 356.0042724609375 214.7417449951172 340.30596923828125 212.64463806152344 327.8019104003906 206.14425659179688 C 330.2171630859375 179.5054168701172 332.5008239746094 170.87501525878906 356.2812805175781 181.64793395996094 C 365.46533203125 185.768798828125 378.5914001464844 190.3394012451172 371.03753662109375 192.16973876953125" fill="rgb(196, 250, 184)" opacity="0.02474799" stroke="rgb(0, 0, 0)" stroke-linecap="round" stroke-linejoin="round" stroke-opacity="1.0" stroke-width="0"/>
    <path d="M 87.48458099365234 448.70660400390625 C 84.69396209716797 459.2240295410156 83.86487579345703 456.5540771484375 65.66825103759766 460.16845703125 C 52.81807327270508 469.3594665527344 45.48396301269531 474.2359924316406 53.40177917480469 465.900634765625 C 48.31972885131836 434.73675537109375 56.75944137573242 428.01165771484375 70.12423706054688 442.4150695800781 C 78.33201599121094 437.0140380859375 81.10296630859375 453.3468017578125 87.48458099365234 448.70660400390625" fill="rgb(58, 79, 255)" opacity="0.026573569" stroke="rgb(0, 0, 0)" stroke-linecap="round" stroke-linejoin="round" stroke-opacity="1.0" stroke-width="0"/>
    <path d="M 461.98626708984375 57.254905700683594 C 470.3048400878906 57.71714401245117 458.6265563964844 63.49146270751953 452.41937255859375 52.09695816040039 C 437.66461181640625 58.24012756347656 439.64752197265625 54.55315017700195 448.1255187988281 47.931217193603516 C 444.2474060058594 49.232139587402344 446.7689514160156 38.45253372192383 454.5166015625 39.16237258911133 C 457.2937316894531 34.9560546875 465.1692810058594 41.33406448364258 461.98626708984375 57.254905700683594" fill="rgb(58, 170, 212)" opacity="0.009353477" stroke="rgb(0, 0, 0)" stroke-linecap="round" stroke-linejoin="round" stroke-opacity="1.0" stroke-width="0"/>
    <path d="M 309.67755126953125 171.2017364501953 C 312.4945373535156 188.66879272460938 307.6416931152344 195.48316955566406 276.3678283691406 173.6230926513672 C 273.8049011230469 193.4127197265625 268.4501647949219 208.612060546875 273.6158142089844 190.61756896972656 C 288.31988525390625 169.1156768798828 289.60894775390625 151.042236328125 289.76324462890625 137.9987335205078 C 309.6651611328125 143.41427612304688 308.2907409667969 153.95327758789062 309.67755126953125 171.2017364501953" fill="rgb(235, 255, 148)" opacity="0.084893934" stroke="rgb(0, 0, 0)" stroke-linecap="round" stroke-linejoin="round" stroke-opacity="1.0" stroke-width="0"/>
    <path d="M 158.62384033203125 37.335567474365234 C 161.8861541748047 58.77684020996094 157.92498779296875 62.85422897338867 141.60231018066406 59.127071380615234 C 123.58355712890625 57.22108840942383 122.09879302978516 42.929420471191406 131.5576171875 46.62230682373047 C 132.0850067138672 34.953304290771484 129.20498657226562 31.20758056640625 141.89869689941406 34.182823181152344 C 153.07064819335938 31.72439956665039 155.0060272216797 27.662982940673828 158.62384033203125 37.335567474365234" fill="rgb(85, 195, 223)" opacity="0.030405276" stroke="rgb(0, 0, 0)" stroke-linecap="round" stroke-linejoin="round" stroke-opacity="1.0" stroke-width="0"/>
    <path d="M 212.9299774169922 343.9542236328125 C 198.29501342773438 349.1353454589844 189.1595001220703 352.3113708496094 196.1288604736328 355.5085754394531 C 187.525390625 354.50689697265625 177.57156372070312 346.0695495605469 161.58795166015625 344.41314697265625 C 171.93629455566406 342.40032958984375 175.1220703125 333.1141052246094 187.32876586914062 347.1382751464844 C 191.6645050048828 342.0697021484375 203.0465850830078 342.8916931152344 212.9299774169922 343.9542236328125" fill="rgb(134, 219, 138)" opacity="0.25879925" stroke="rgb(0, 0, 0)" stroke-linecap="round" stroke-linejoin="round" stroke-opacity="1.0" stroke-width="0"/>
    <path d="M 63.88766098022461 318.31927490234375 C 61.00526809692383 338.1843566894531 51.64480209350586 345.4599914550781 33.68360137939453 346.35845947265625 C 20.195083618164062 342.0377197265625 18.99884605407715 331.5350646972656 20.062824249267578 318.61932373046875 C 21.261507034301758 314.6535949707031 35.505821228027344 305.97515869140625 41.48716354370117 302.4067687988281 C 53.78517150878906 300.1158142089844 58.20842742919922 302.9270324707031 63.88766098022461 318.31927490234375" fill="rgb(75, 158, 237)" opacity="0.2642093" stroke="rgb(0, 0, 0)" stroke-linecap="round" stroke-linejoin="round" stroke-opacity="1.0" stroke-width="0"/>
    <path d="M 423.6446228027344 450.52825927734375 C 407.08172607421875 444.3439636230469 399.5252685546875 452.0058898925781 390.42071533203125 456.4820251464844 C 379.48590087890625 461.4875793457031 377.007080078125 459.0689392089844 383.1834411621094 435.4089660644531 C 378.233642578125 432.3751220703125 395.6923522949219 435.4982604980469 407.16021728515625 431.8211364746094 C 412.33709716796875 418.7920837402344 420.7183837890625 428.09820556640625 423.6446228027344 450.52825927734375" fill="rgb(2, 156, 153)" opacity="0.0" stroke="rgb(0, 0, 0)" stroke-linecap="round" stroke-linejoin="round" stroke-opacity="1.0" stroke-width="0"/>
    <path d="M 140.4484100341797 275.5979919433594 C 144.9347381591797 279.3355712890625 142.52574157714844 297.0727844238281 127.11296081542969 294.2374572753906 C 130.25115966796875 288.3885192871094 118.5616455078125 278.8670959472656 110.26688385009766 279.4075927734375 C 117.8441390991211 266.7131042480469 123.13027954101562 254.9887237548828 128.2523193359375 259.0325622558594 C 130.98973083496094 266.2723388671875 134.4532012939453 277.8160095214844 140.4484100341797 275.5979919433594" fill="rgb(29, 73, 255)" opacity="0.0" stroke="rgb(0, 0, 0)" stroke-linecap="round" stroke-linejoin="round" stroke-opacity="1.0" stroke-width="0"/>
    <path d="M 147.23170471191406 453.2533874511719 C 144.09249877929688 470.0962219238281 139.37338256835938 481.34808349609375 111.14508056640625 473.3699645996094 C 99.29705810546875 467.5361328125 91.10997009277344 458.20281982421875 95.70774841308594 445.9908447265625 C 95.00920104980469 438.42169189453125 106.56452178955078 426.5064392089844 123.46964263916016 431.119384765625 C 134.4789581298828 416.9876708984375 143.74685668945312 422.4002380371094 147.23170471191406 453.2533874511719" fill="rgb(112, 83, 255)" opacity="0.65835273" stroke="rgb(0, 0, 0)" stroke-linecap="round" stroke-linejoin="round" stroke-opacity="1.0" stroke-width="0"/>
    <path d="M 265.1262512207031 35.584434509277344 C 264.1454772949219 50.93756103515625 261.1693420410156 59.02425765991211 263.23126220703125 47.5743522644043 C 241.8472900390625 59.03715133666992 235.47259521484375 48.33907699584961 236.5787811279297 41.21453857421875 C 233.3706512451172 35.583953857421875 239.96578979492188 24.457035064697266 248.72715759277344 24.257755279541016 C 253.04196166992188 27.924110412597656 256.1593933105469 28.197114944458008 265.1262512207031 35.584434509277344" fill="rgb(8, 123, 79)" opacity="0.3303133" stroke="rgb(0, 0, 0)" stroke-linecap="round" stroke-linejoin="round" stroke-opacity="1.0" stroke-width="0"/>
    <path d="M 118.66826629638672 349.2127380371094 C 121.56609344482422 354.50079345703125 127.04212188720703 358.8826599121094 112.24072265625 358.5744934082031 C 96.16880798339844 357.6855163574219 89.99065399169922 351.26043701171875 88.26058959960938 345.0076599121094 C 96.427490234375 332.9002685546875 105.625732421875 330.080322265625 115.36859130859375 329.4999084472656 C 122.23468780517578 322.0496520996094 123.90157318115234 329.0069274902344 118.66826629638672 349.2127380371094" fill="rgb(80, 56, 213)" opacity="0.06664616" stroke="rgb(0, 0, 0)" stroke-linecap="round" stroke-linejoin="round" stroke-opacity="1.0" stroke-width="0"/>
    <path d="M 508.1137390136719 221.9567108154297 C 510.6435241699219 228.4815673828125 498.7675476074219 234.33509826660156 491.50347900390625 240.61740112304688 C 475.55615234375 238.23196411132812 467.4815673828125 231.2384490966797 469.3260498046875 223.48776245117188 C 478.9458923339844 215.49473571777344 485.3060302734375 205.84291076660156 494.4681091308594 198.42311096191406 C 500.3105773925781 199.14639282226562 505.58770751953125 208.58425903320312 508.1137390136719 221.9567108154297" fill="rgb(54, 189, 159)" opacity="0.0" stroke="rgb(0, 0, 0)" stroke-linecap="round" stroke-linejoin="round" stroke-opacity="1.0" stroke-width="0"/>
    <path d="M 452.0460510253906 255.5214080810547 C 454.0608215332031 277.90411376953125 448.97308349609375 289.46575927734375 436.3235778808594 290.8851318359375 C 420.8349914550781 284.29351806640625 413.99188232421875 271.478515625 415.79046630859375 257.9562683105469 C 418.20819091796875 256.4349670410156 432.3329772949219 254.2820281982422 439.8733215332031 250.58355712890625 C 438.45074462890625 243.13870239257812 453.8209533691406 253.1704864501953 452.0460510253906 255.5214080810547" fill="rgb(86, 197, 170)" opacity="0.056682147" stroke="rgb(0, 0, 0)" stroke-linecap="round" stroke-linejoin="round" stroke-opacity="1.0" stroke-width="0"/>
    <path d="M 501.690185546875 68.55550384521484 C 495.69635009765625 75.16849517822266 491.7517395019531 92.64385986328125 490.92681884765625 82.55118560791016 C 480.6232604980469 81.03150177001953 475.387939453125 70.4679946899414 472.0606384277344 53.52663803100586 C 462.2434387207031 54.09862518310547 469.4661560058594 48.96318054199219 482.80670166015625 58.43211364746094 C 490.6587829589844 55.01658248901367 499.8982238769531 63.36753845214844 501.690185546875 68.55550384521484" fill="rgb(21, 173, 176)" opacity="0.07620114" stroke="rgb(0, 0, 0)" stroke-linecap="round" stroke-linejoin="round" stroke-opacity="1.0" stroke-width="0"/>
    <path d="M 51.489803314208984 196.17642211914062 C 55.48952865600586 213.66868591308594 50.69007110595703 220.70204162597656 39.06040954589844 210.7575225830078 C 22.94200325012207 204.86122131347656 18.413816452026367 201.06838989257812 21.800945281982422 193.96522521972656 C 14.978508949279785 190.16517639160156 28.222341537475586 185.9521026611328 34.70175552368164 181.99790954589844 C 45.81564712524414 179.2564239501953 49.90626907348633 178.68397521972656 51.489803314208984 196.17642211914062" fill="rgb(66, 115, 255)" opacity="0.0" stroke="rgb(0, 0, 0)" stroke-linecap="round" stroke-linejoin="round" stroke-opacity="1.0" stroke-width="0"/>
    <path d="M 132.68112182617188 337.1390686035156 C 136.08287048339844 350.6747741699219 128.27560424804688 355.0365295410156 111.22777557373047 353.66021728515625 C 99.18004608154297 359.48162841796875 90.2813491821289 350.6651916503906 90.55767059326172 337.1503601074219 C 88.65850067138672 326.63031005859375 100.17095947265625 315.82354736328125 104.92851257324219 321.6162414550781 C 117.73977661132812 320.8215637207031 126.06224822998047 327.4178161621094 132.68112182617188 337.1390686035156" fill="rgb(57, 80, 255)" opacity="0.29589695" stroke="rgb(0, 0, 0)" stroke-linecap="round" stroke-linejoin="round" stroke-opacity="1.0" stroke-width="0"/>
    <path d="M 38.32272720336914 96.3448715209961 C 49.62130355834961 101.41033935546875 40.27473068237305 106.09888458251953 31.72162437438965 99.62295532226562 C 21.825271606445312 97.83076477050781 10.792074203491211 94.14826965332031 0.3887619972229004 86.80349731445312 C 0.03242546319961548 73.7138671875 9.2188720703125 70.538330078125 25.94538116455078 70.04446411132812 C 30.09346580505371 74.42935943603516 39.62031936645508 82.31678009033203 38.32272720336914 96.3448715209961" fill="rgb(70, 164, 215)" opacity="0.04565009" stroke="rgb(0, 0, 0)" stroke-linecap="round" stroke-linejoin="round" stroke-opacity="1.0" stroke-width="0"/>
  </g>
</svg>
