<?xml version="1.0" ?>
<svg height="512" style="background-color: rgb(253, 247, 152, 0.3176031708717346)" version="1.1" width="512" xmlns="http://www.w3.org/2000/svg">
  <defs/>
  <g>
    <path d="M 546.5708618164062 440.8038330078125 C 544.2413940429688 473.51165771484375 493.9432067871094 521.3825073242188 439.29901123046875 537.9732666015625 C 303.61212158203125 548.1045532226562 289.3437805175781 546.7430419921875 207.32574462890625 425.8892822265625 C 330.9632263183594 409.0880126953125 425.4334411621094 417.76861572265625 523.3401489257812 366.259033203125 C 562.2642822265625 332.8126525878906 563.1925048828125 352.7061767578125 546.5708618164062 440.8038330078125" fill="rgb(35, 173, 24)" opacity="0.8849706" stroke="rgb(0, 0, 0)" stroke-linecap="round" stroke-linejoin="round" stroke-opacity="1.0" stroke-width="0"/>
    <path d="M 217.72433471679688 410.46173095703125 C 270.8127136230469 470.8414001464844 359.2614440917969 403.0987548828125 213.56031799316406 545.2860717773438 C -41.479393005371094 563.2000122070312 -20.873289108276367 492.0749206542969 -37.87039566040039 404.03082275390625 C -39.17411422729492 234.70452880859375 -15.283637046813965 207.07644653320312 61.54909133911133 170.96878051757812 C 205.15310668945312 239.19187927246094 129.10360717773438 290.193603515625 217.72433471679688 410.46173095703125" fill="rgb(176, 255, 4)" opacity="0.7847081" stroke="rgb(0, 0, 0)" stroke-linecap="round" stroke-linejoin="round" stroke-opacity="1.0" stroke-width="0"/>
    <path d="M 142.20184326171875 301.3993225097656 C 149.43177795410156 268.5401306152344 144.08502197265625 297.1915283203125 161.9432373046875 331.47222900390625 C 26.860525131225586 319.87518310546875 -9.050538063049316 360.20361328125 -17.888757705688477 192.792236328125 C 1.6372648477554321 142.9677734375 13.504073143005371 135.19967651367188 178.58160400390625 192.1587371826172 C 161.55325317382812 314.16766357421875 139.44723510742188 302.40057373046875 142.20184326171875 301.3993225097656" fill="rgb(184, 255, 37)" opacity="0.98258024" stroke="rgb(0, 0, 0)" stroke-linecap="round" stroke-linejoin="round" stroke-opacity="1.0" stroke-width="0"/>
    <path d="M 356.79974365234375 77.04002380371094 C 263.9002685546875 115.09773254394531 164.6514434814453 -9.491750717163086 36.13352584838867 151.72157287597656 C -30.134000778198242 191.0895233154297 -50.511348724365234 160.69627380371094 -44.64537811279297 80.91973876953125 C -45.48702621459961 24.650426864624023 20.946195602416992 -19.108959197998047 70.26925659179688 -37.25993728637695 C 295.1349182128906 -51.20000076293945 318.50018310546875 -51.20000076293945 356.79974365234375 77.04002380371094" fill="rgb(177, 251, 0)" opacity="0.8155918" stroke="rgb(0, 0, 0)" stroke-linecap="round" stroke-linejoin="round" stroke-opacity="1.0" stroke-width="0"/>
    <path d="M 233.02914428710938 105.90312957763672 C 199.10653686523438 200.52037048339844 176.5465087890625 185.17588806152344 150.39463806152344 236.90908813476562 C 140.75375366210938 259.0121765136719 85.20209503173828 230.15902709960938 19.30152130126953 175.81556701660156 C 34.37037658691406 103.9286880493164 225.76431274414062 -28.402963638305664 372.01641845703125 147.0652313232422 C 235.1201629638672 267.1175842285156 177.86766052246094 99.82770538330078 233.02914428710938 105.90312957763672" fill="rgb(174, 250, 37)" opacity="1.0" stroke="rgb(0, 0, 0)" stroke-linecap="round" stroke-linejoin="round" stroke-opacity="1.0" stroke-width="0"/>
    <path d="M 437.5904541015625 188.57518005371094 C 437.5619201660156 466.74639892578125 385.29754638671875 449.46380615234375 210.82252502441406 426.5285339355469 C 378.419677734375 390.9527282714844 336.4256896972656 333.1422119140625 354.7663879394531 335.6312561035156 C 331.2895812988281 376.6923522949219 323.6457214355469 374.2103271484375 345.5933837890625 322.329345703125 C 399.2752380371094 218.80906677246094 326.16607666015625 188.96299743652344 437.5904541015625 188.57518005371094" fill="rgb(58, 189, 18)" opacity="0.91622365" stroke="rgb(0, 0, 0)" stroke-linecap="round" stroke-linejoin="round" stroke-opacity="1.0" stroke-width="0"/>
    <path d="M 516.3880004882812 131.251220703125 C 561.2147216796875 353.43621826171875 559.8744506835938 374.4460144042969 476.84423828125 398.41339111328125 C 317.5696716308594 349.54901123046875 383.3094787597656 306.2792663574219 329.421630859375 216.5541229248047 C 308.8418273925781 78.85636901855469 264.9683837890625 141.7532958984375 324.2156677246094 -1.8748607635498047 C 538.3711547851562 -0.5440678000450134 515.2156982421875 73.50592041015625 516.3880004882812 131.251220703125" fill="rgb(77, 183, 37)" opacity="1.0" stroke="rgb(0, 0, 0)" stroke-linecap="round" stroke-linejoin="round" stroke-opacity="1.0" stroke-width="0"/>
    <path d="M 323.0576477050781 268.4869384765625 C 343.2390441894531 388.5867614746094 363.82080078125 216.4187774658203 259.7073669433594 522.2320556640625 C 215.1090850830078 316.8651123046875 189.8348846435547 402.2067565917969 267.9389343261719 271.5995788574219 C 350.8147277832031 261.5496520996094 279.97039794921875 189.5418243408203 318.9462890625 189.32192993164062 C 301.50677490234375 283.015625 322.21221923828125 178.1224822998047 323.0576477050781 268.4869384765625" fill="rgb(0, 35, 56)" opacity="0.99925494" stroke="rgb(0, 0, 0)" stroke-linecap="round" stroke-linejoin="round" stroke-opacity="1.0" stroke-width="0"/>
    <path d="M 302.5030822753906 248.60568237304688 C 177.26776123046875 321.8239440917969 228.811767578125 198.5889892578125 200.80880737304688 529.5723876953125 C 198.69265747070312 196.24708557128906 205.79598999023438 293.9874267578125 208.449462890625 242.0596160888672 C 176.55703735351562 173.8103485107422 277.885986328125 -48.425174713134766 199.2582550048828 287.03887939453125 C 255.03135681152344 300.84344482421875 227.57083129882812 10.91132926940918 302.5030822753906 248.60568237304688" fill="rgb(0, 49, 85)" opacity="1.0" stroke="rgb(0, 0, 0)" stroke-linecap="round" stroke-linejoin="round" stroke-opacity="1.0" stroke-width="0"/>
    <path d="M 533.4965209960938 75.66136932373047 C 490.6141662597656 82.9917984008789 493.0778503417969 73.42247009277344 478.21826171875 112.03192901611328 C 463.01141357421875 99.054931640625 445.53021240234375 101.05038452148438 353.2198486328125 1.159313440322876 C 318.19989013671875 -16.17007827758789 375.4454040527344 -15.599508285522461 482.69232177734375 -24.477933883666992 C 524.1558227539062 -13.975769996643066 536.4097290039062 30.708364486694336 533.4965209960938 75.66136932373047" fill="rgb(204, 255, 39)" opacity="1.0" stroke="rgb(0, 0, 0)" stroke-linecap="round" stroke-linejoin="round" stroke-opacity="1.0" stroke-width="0"/>
    <path d="M 249.95030212402344 398.7700500488281 C 267.770263671875 418.6647644042969 289.7996520996094 464.43463134765625 240.48629760742188 457.8529968261719 C 257.13311767578125 405.7255859375 264.70709228515625 405.70428466796875 259.1155090332031 412.17962646484375 C 263.0660705566406 399.4435119628906 275.9513854980469 407.7563781738281 257.80560302734375 379.98614501953125 C 264.9041748046875 342.9750671386719 242.12974548339844 379.628662109375 249.95030212402344 398.7700500488281" fill="rgb(179, 255, 0)" opacity="1.0" stroke="rgb(0, 0, 0)" stroke-linecap="round" stroke-linejoin="round" stroke-opacity="1.0" stroke-width="0"/>
    <path d="M 216.27777099609375 253.56178283691406 C 238.42025756835938 206.88760375976562 238.42974853515625 269.3575744628906 213.42689514160156 294.0968017578125 C 182.14390563964844 300.535400390625 137.84674072265625 312.75164794921875 173.57568359375 259.73760986328125 C 189.90467834472656 258.1908874511719 192.7140655517578 286.4504089355469 200.98890686035156 229.76332092285156 C 219.6676788330078 115.44285583496094 220.08270263671875 206.52871704101562 216.27777099609375 253.56178283691406" fill="rgb(8, 40, 50)" opacity="1.0" stroke="rgb(0, 0, 0)" stroke-linecap="round" stroke-linejoin="round" stroke-opacity="1.0" stroke-width="0"/>
    <path d="M 473.1451110839844 388.80352783203125 C 477.0495910644531 417.7627868652344 473.27978515625 416.9385070800781 456.4730224609375 416.1931457519531 C 454.5059509277344 434.0775146484375 414.5263671875 443.33795166015625 396.5613098144531 409.13299560546875 C 399.9446105957031 353.65924072265625 415.70391845703125 349.6005859375 441.7518615722656 363.1974182128906 C 468.6183776855469 385.8175964355469 476.5018615722656 389.41851806640625 473.1451110839844 388.80352783203125" fill="rgb(61, 201, 47)" opacity="0.99847096" stroke="rgb(0, 0, 0)" stroke-linecap="round" stroke-linejoin="round" stroke-opacity="1.0" stroke-width="0"/>
    <path d="M 305.5135803222656 374.3189392089844 C 291.9274597167969 401.22406005859375 253.79905700683594 396.15386962890625 244.93014526367188 384.59759521484375 C 248.81607055664062 411.5697326660156 194.2981719970703 376.2206726074219 219.81849670410156 376.478271484375 C 254.13084411621094 395.6210632324219 276.3128662109375 378.490966796875 259.30145263671875 374.68988037109375 C 280.1666259765625 371.3047790527344 250.35256958007812 397.470703125 305.5135803222656 374.3189392089844" fill="rgb(255, 74, 0)" opacity="0.8794522" stroke="rgb(0, 0, 0)" stroke-linecap="round" stroke-linejoin="round" stroke-opacity="1.0" stroke-width="0"/>
    <path d="M 329.2716369628906 155.8476104736328 C 346.3971252441406 263.77264404296875 304.7917175292969 273.9482421875 283.232177734375 210.761962890625 C 289.8634338378906 175.40420532226562 235.79425048828125 169.00314331054688 240.1007843017578 187.49990844726562 C 278.20831298828125 176.6874237060547 297.6072082519531 175.74041748046875 300.18658447265625 166.9912567138672 C 327.8689880371094 149.8829345703125 315.7142639160156 119.79176330566406 329.2716369628906 155.8476104736328" fill="rgb(255, 254, 254)" opacity="0.99019" stroke="rgb(0, 0, 0)" stroke-linecap="round" stroke-linejoin="round" stroke-opacity="1.0" stroke-width="0"/>
    <path d="M 227.7272491455078 61.34857177734375 C 223.0531768798828 55.095916748046875 231.69383239746094 60.0594596862793 229.2480010986328 109.18389129638672 C 229.47048950195312 153.5883026123047 209.87527465820312 144.97055053710938 212.9888153076172 91.30438995361328 C 181.602783203125 73.83647918701172 197.5318603515625 54.22636795043945 208.33721923828125 18.748023986816406 C 218.21627807617188 47.06416320800781 224.81707763671875 59.00074005126953 227.7272491455078 61.34857177734375" fill="rgb(0, 59, 112)" opacity="1.0" stroke="rgb(0, 0, 0)" stroke-linecap="round" stroke-linejoin="round" stroke-opacity="1.0" stroke-width="0"/>
    <path d="M 279.5732116699219 229.96774291992188 C 258.5243835449219 232.91587829589844 264.27984619140625 232.85145568847656 263.1709289550781 233.3802947998047 C 265.546142578125 264.6055603027344 263.0047912597656 289.1471862792969 257.2911682128906 251.53675842285156 C 260.0224304199219 214.42538452148438 254.97164916992188 191.01727294921875 263.8258056640625 202.2547607421875 C 265.1084899902344 232.4357147216797 256.7244873046875 230.73284912109375 279.5732116699219 229.96774291992188" fill="rgb(100, 205, 242)" opacity="0.7515197" stroke="rgb(0, 0, 0)" stroke-linecap="round" stroke-linejoin="round" stroke-opacity="1.0" stroke-width="0"/>
    <path d="M 234.66970825195312 103.20833587646484 C 227.13780212402344 164.44393920898438 230.91046142578125 203.96946716308594 157.62232971191406 217.2738800048828 C 148.67796325683594 193.986328125 203.7930145263672 205.86956787109375 210.72312927246094 136.61767578125 C 213.71376037597656 95.00867462158203 210.82284545898438 121.6429214477539 229.0478515625 120.55438995361328 C 227.7767333984375 106.23262786865234 232.49427795410156 122.84654235839844 234.66970825195312 103.20833587646484" fill="rgb(0, 65, 75)" opacity="1.0" stroke="rgb(0, 0, 0)" stroke-linecap="round" stroke-linejoin="round" stroke-opacity="1.0" stroke-width="0"/>
    <path d="M 297.6631164550781 351.7007141113281 C 311.4780578613281 387.7076721191406 334.90380859375 384.55364990234375 291.6605529785156 425.4099426269531 C 290.40618896484375 337.92169189453125 286.5882568359375 412.12384033203125 315.821533203125 368.43115234375 C 303.1572570800781 315.8661193847656 271.9298095703125 335.2510070800781 292.5953674316406 296.3449401855469 C 334.1070556640625 360.1816101074219 281.1404113769531 327.41815185546875 297.6631164550781 351.7007141113281" fill="rgb(252, 221, 255)" opacity="1.0" stroke="rgb(0, 0, 0)" stroke-linecap="round" stroke-linejoin="round" stroke-opacity="1.0" stroke-width="0"/>
    <path d="M 350.232666015625 254.3853759765625 C 314.6535949707031 273.7851257324219 318.39453125 260.4084167480469 324.4451599121094 291.0345764160156 C 320.6148376464844 205.27847290039062 268.0146484375 280.8866271972656 284.95343017578125 177.7366485595703 C 272.2743225097656 253.2230682373047 281.8658752441406 165.3607940673828 294.3943176269531 178.00823974609375 C 341.2563781738281 133.5399169921875 348.134765625 197.91632080078125 350.232666015625 254.3853759765625" fill="rgb(244, 242, 244)" opacity="0.9487846" stroke="rgb(0, 0, 0)" stroke-linecap="round" stroke-linejoin="round" stroke-opacity="1.0" stroke-width="0"/>
    <path d="M 304.4291687011719 412.25738525390625 C 307.03253173828125 433.9162292480469 303.8549499511719 447.90863037109375 310.98101806640625 430.14013671875 C 312.5218811035156 440.0289001464844 311.1758728027344 453.782470703125 316.98980712890625 419.6838684082031 C 318.36517333984375 395.858154296875 298.9507751464844 361.0312805175781 337.1159973144531 351.4109191894531 C 306.56707763671875 428.45257568359375 306.0521240234375 434.6949157714844 304.4291687011719 412.25738525390625" fill="rgb(177, 163, 27)" opacity="0.024989663" stroke="rgb(0, 0, 0)" stroke-linecap="round" stroke-linejoin="round" stroke-opacity="1.0" stroke-width="0"/>
    <path d="M 277.99169921875 452.0455017089844 C 295.10467529296875 454.0137939453125 278.8435974121094 471.6502380371094 275.7609558105469 524.1802368164062 C 230.3404541015625 502.4628601074219 200.0468292236328 483.4535827636719 228.36087036132812 443.64971923828125 C 235.13658142089844 442.4522705078125 234.37484741210938 467.4079284667969 264.2295227050781 453.1608581542969 C 277.03912353515625 434.58642578125 260.533935546875 425.01544189453125 277.99169921875 452.0455017089844" fill="rgb(39, 185, 31)" opacity="1.0" stroke="rgb(0, 0, 0)" stroke-linecap="round" stroke-linejoin="round" stroke-opacity="1.0" stroke-width="0"/>
    <path d="M 300.00457763671875 287.8876037597656 C 296.8783874511719 291.79302978515625 281.3501892089844 285.51556396484375 305.5820617675781 310.3666687011719 C 325.8356018066406 303.4375305175781 327.4273681640625 292.88458251953125 322.0166931152344 317.1732177734375 C 286.4123229980469 326.57733154296875 293.51556396484375 299.60516357421875 334.5542297363281 281.239501953125 C 295.9598388671875 260.1940612792969 298.10821533203125 335.90350341796875 300.00457763671875 287.8876037597656" fill="rgb(241, 4, 0)" opacity="1.0" stroke="rgb(0, 0, 0)" stroke-linecap="round" stroke-linejoin="round" stroke-opacity="1.0" stroke-width="0"/>
    <path d="M 217.57232666015625 446.490966796875 C 218.1505584716797 526.2190551757812 212.5236358642578 540.9093627929688 191.73764038085938 512.2211303710938 C 192.06443786621094 479.5736389160156 185.2103271484375 481.75653076171875 191.5507354736328 487.4779357910156 C 195.01976013183594 491.2274169921875 191.057373046875 468.093017578125 208.0983123779297 455.8538513183594 C 210.78919982910156 478.9427185058594 228.51083374023438 470.0623779296875 217.57232666015625 446.490966796875" fill="rgb(197, 255, 61)" opacity="1.0" stroke="rgb(0, 0, 0)" stroke-linecap="round" stroke-linejoin="round" stroke-opacity="1.0" stroke-width="0"/>
    <path d="M 244.923583984375 410.3142395019531 C 255.46165466308594 382.4759826660156 240.7145233154297 378.1648864746094 233.0189208984375 420.1802673339844 C 216.96185302734375 441.389404296875 230.38189697265625 400.39031982421875 245.08355712890625 407.46820068359375 C 260.2778015136719 334.7658996582031 257.139404296875 290.8661804199219 271.6769104003906 383.21734619140625 C 253.54788208007812 371.7115478515625 251.953369140625 384.1684875488281 244.923583984375 410.3142395019531" fill="rgb(248, 60, 0)" opacity="0.963227" stroke="rgb(0, 0, 0)" stroke-linecap="round" stroke-linejoin="round" stroke-opacity="1.0" stroke-width="0"/>
    <path d="M 318.9852294921875 477.9454650878906 C 304.9191589355469 475.77947998046875 287.6923522949219 476.3788757324219 284.7599182128906 474.3222351074219 C 289.1939697265625 476.7900390625 282.6096496582031 464.44482421875 278.3677062988281 475.3752136230469 C 268.113037109375 435.31427001953125 278.0865783691406 422.1619873046875 292.7527160644531 441.2588806152344 C 295.44000244140625 470.054443359375 317.0231628417969 467.8370666503906 318.9852294921875 477.9454650878906" fill="rgb(0, 65, 83)" opacity="0.907808" stroke="rgb(0, 0, 0)" stroke-linecap="round" stroke-linejoin="round" stroke-opacity="1.0" stroke-width="0"/>
    <path d="M 536.6708374023438 96.76046752929688 C 552.9130249023438 138.3719940185547 550.2548217773438 152.00732421875 503.93682861328125 145.48211669921875 C 468.17303466796875 108.90272521972656 451.9482727050781 101.92436218261719 440.73681640625 88.45426177978516 C 501.2823791503906 94.4267349243164 482.41033935546875 97.9281005859375 488.3432922363281 58.54691696166992 C 503.7507019042969 58.61683654785156 512.4490356445312 59.94116973876953 536.6708374023438 96.76046752929688" fill="rgb(203, 255, 40)" opacity="1.0" stroke="rgb(0, 0, 0)" stroke-linecap="round" stroke-linejoin="round" stroke-opacity="1.0" stroke-width="0"/>
    <path d="M 321.7703857421875 187.2049102783203 C 313.3909606933594 182.73269653320312 292.07293701171875 182.1149139404297 291.6573486328125 191.15106201171875 C 258.4056701660156 200.572998046875 252.03761291503906 218.7298126220703 259.2222595214844 182.81265258789062 C 258.1466064453125 129.39561462402344 255.06024169921875 145.98109436035156 293.2908630371094 154.0660400390625 C 299.22113037109375 171.16397094726562 308.0877990722656 167.1116485595703 321.7703857421875 187.2049102783203" fill="rgb(221, 228, 194)" opacity="0.3514867" stroke="rgb(0, 0, 0)" stroke-linecap="round" stroke-linejoin="round" stroke-opacity="1.0" stroke-width="0"/>
    <path d="M 249.45310974121094 397.3358154296875 C 253.19186401367188 405.0274353027344 260.544189453125 440.9466857910156 227.6927947998047 460.287109375 C 229.9268798828125 401.0014953613281 225.2360382080078 394.0667419433594 226.83917236328125 389.2933654785156 C 234.3675079345703 399.2071838378906 252.3922119140625 391.3345947265625 247.2779083251953 390.8930358886719 C 252.0816650390625 393.8399963378906 258.5586853027344 385.8630676269531 249.45310974121094 397.3358154296875" fill="rgb(0, 33, 73)" opacity="0.9516248" stroke="rgb(0, 0, 0)" stroke-linecap="round" stroke-linejoin="round" stroke-opacity="1.0" stroke-width="0"/>
    <path d="M 241.52516174316406 451.7713928222656 C 251.98052978515625 479.8088684082031 240.89540100097656 480.07757568359375 241.9498748779297 471.6681823730469 C 208.3193359375 482.8692321777344 190.59434509277344 474.337890625 217.41839599609375 462.540283203125 C 234.00686645507812 445.7923889160156 230.288330078125 433.7362976074219 229.97877502441406 425.9960021972656 C 256.9366455078125 427.8408203125 250.22671508789062 424.025390625 241.52516174316406 451.7713928222656" fill="rgb(0, 36, 64)" opacity="1.0" stroke="rgb(0, 0, 0)" stroke-linecap="round" stroke-linejoin="round" stroke-opacity="1.0" stroke-width="0"/>
    <path d="M 539.02978515625 467.8609313964844 C 519.0442504882812 515.8566284179688 510.5816650390625 522.5712280273438 484.6906433105469 532.0502319335938 C 465.0831604003906 531.114013671875 461.5205383300781 525.078125 477.1138916015625 529.0625610351562 C 481.18524169921875 507.07977294921875 484.40716552734375 482.4483337402344 470.35748291015625 469.7803039550781 C 497.0796203613281 462.3257751464844 529.6611938476562 463.7558898925781 539.02978515625 467.8609313964844" fill="rgb(26, 188, 42)" opacity="0.9968557" stroke="rgb(0, 0, 0)" stroke-linecap="round" stroke-linejoin="round" stroke-opacity="1.0" stroke-width="0"/>
    <path d="M 273.19915771484375 272.8200988769531 C 275.2894592285156 316.5613708496094 262.00958251953125 300.6934814453125 231.91921997070312 309.9769287109375 C 224.46067810058594 292.558349609375 209.39892578125 290.1590881347656 220.99343872070312 267.5513610839844 C 235.9871368408203 271.41827392578125 227.23826599121094 281.90460205078125 218.03346252441406 248.64488220214844 C 246.2699432373047 271.3609924316406 262.1879577636719 271.61480712890625 273.19915771484375 272.8200988769531" fill="rgb(207, 17, 0)" opacity="1.0" stroke="rgb(0, 0, 0)" stroke-linecap="round" stroke-linejoin="round" stroke-opacity="1.0" stroke-width="0"/>
    <path d="M 294.91900634765625 290.7731628417969 C 290.6733703613281 329.2076110839844 286.5158386230469 331.8338317871094 259.0289611816406 331.2637939453125 C 236.51922607421875 323.9805603027344 233.9717559814453 323.5245666503906 237.03134155273438 299.46240234375 C 259.8646545410156 304.97076416015625 257.62945556640625 304.9162902832031 266.4242858886719 263.64544677734375 C 280.1612854003906 272.0304870605469 275.9959716796875 293.3111877441406 294.91900634765625 290.7731628417969" fill="rgb(163, 39, 6)" opacity="1.0" stroke="rgb(0, 0, 0)" stroke-linecap="round" stroke-linejoin="round" stroke-opacity="1.0" stroke-width="0"/>
    <path d="M 136.5381622314453 71.76459503173828 C 148.2464599609375 90.39427185058594 134.60423278808594 92.16426849365234 116.59479522705078 109.8292236328125 C 104.79222106933594 107.91374969482422 99.17886352539062 91.54645538330078 99.12332153320312 65.42945098876953 C 117.23210144042969 64.59980010986328 130.50962829589844 74.50511932373047 141.21751403808594 73.0420913696289 C 130.55422973632812 69.88804626464844 142.84744262695312 77.52892303466797 136.5381622314453 71.76459503173828" fill="rgb(166, 211, 114)" opacity="0.030545782" stroke="rgb(0, 0, 0)" stroke-linecap="round" stroke-linejoin="round" stroke-opacity="1.0" stroke-width="0"/>
    <path d="M 210.3534698486328 72.23758697509766 C 216.23106384277344 99.15109252929688 214.66810607910156 104.571533203125 206.0281524658203 95.29461669921875 C 196.9106903076172 78.9112548828125 197.55006408691406 78.45197296142578 187.24932861328125 67.82393646240234 C 192.548095703125 94.34095764160156 191.20535278320312 80.33841705322266 185.4372100830078 58.40303039550781 C 198.52757263183594 53.90057373046875 205.3304901123047 57.380889892578125 210.3534698486328 72.23758697509766" fill="rgb(176, 255, 81)" opacity="0.98177356" stroke="rgb(0, 0, 0)" stroke-linecap="round" stroke-linejoin="round" stroke-opacity="1.0" stroke-width="0"/>
    <path d="M 233.78741455078125 242.23587036132812 C 223.96754455566406 249.85665893554688 202.69627380371094 244.00537109375 202.11895751953125 247.17884826660156 C 199.19622802734375 251.2882537841797 193.22813415527344 240.4403839111328 179.62924194335938 230.24974060058594 C 180.17117309570312 226.4986114501953 179.3975372314453 224.65628051757812 190.27120971679688 233.38323974609375 C 200.75331115722656 246.44874572753906 222.8773956298828 235.66598510742188 233.78741455078125 242.23587036132812" fill="rgb(81, 37, 0)" opacity="0.74176306" stroke="rgb(0, 0, 0)" stroke-linecap="round" stroke-linejoin="round" stroke-opacity="1.0" stroke-width="0"/>
    <path d="M 135.5726318359375 167.5816650390625 C 134.50927734375 161.96324157714844 128.40023803710938 168.53457641601562 120.98799896240234 179.264404296875 C 101.9990234375 184.12411499023438 87.87651062011719 180.86953735351562 89.959716796875 163.46484375 C 97.66763305664062 144.45330810546875 101.14917755126953 132.9826202392578 111.96873474121094 137.03468322753906 C 127.96125030517578 139.65728759765625 142.9767303466797 147.1412353515625 135.5726318359375 167.5816650390625" fill="rgb(201, 237, 97)" opacity="0.0" stroke="rgb(0, 0, 0)" stroke-linecap="round" stroke-linejoin="round" stroke-opacity="1.0" stroke-width="0"/>
    <path d="M 104.11881256103516 122.14336395263672 C 104.98121643066406 136.7792205810547 88.5346450805664 140.2340087890625 63.12864303588867 122.02410125732422 C 49.51001739501953 139.10337829589844 38.410926818847656 132.41937255859375 46.80329132080078 108.62872314453125 C 51.8110466003418 85.34681701660156 43.31021499633789 78.65521240234375 68.82463073730469 83.65989685058594 C 76.81969451904297 94.17921447753906 86.80628967285156 98.81243896484375 104.11881256103516 122.14336395263672" fill="rgb(159, 234, 67)" opacity="0.06699458" stroke="rgb(0, 0, 0)" stroke-linecap="round" stroke-linejoin="round" stroke-opacity="1.0" stroke-width="0"/>
    <path d="M 366.30999755859375 396.49871826171875 C 391.0981140136719 414.30548095703125 400.3387451171875 435.77093505859375 363.88067626953125 410.36553955078125 C 345.8888854980469 392.3064880371094 337.6034851074219 382.5927734375 321.60296630859375 364.1059875488281 C 316.9018249511719 344.7462158203125 324.42584228515625 352.41705322265625 342.42877197265625 372.3614196777344 C 341.6105651855469 368.6649169921875 350.40966796875 381.7630310058594 366.30999755859375 396.49871826171875" fill="rgb(145, 172, 208)" opacity="0.94008636" stroke="rgb(0, 0, 0)" stroke-linecap="round" stroke-linejoin="round" stroke-opacity="1.0" stroke-width="0"/>
    <path d="M 74.6455078125 468.7210693359375 C 79.51424407958984 463.15777587890625 73.61740112304688 468.21630859375 77.08625030517578 455.94671630859375 C 83.92056274414062 449.6112365722656 63.66797637939453 445.4748840332031 49.2520751953125 449.4847717285156 C 53.35163497924805 443.2961120605469 63.060508728027344 440.49822998046875 81.30989837646484 436.7121887207031 C 82.7823715209961 433.7377014160156 73.85285949707031 448.95208740234375 74.6455078125 468.7210693359375" fill="rgb(153, 244, 75)" opacity="0.06638526" stroke="rgb(0, 0, 0)" stroke-linecap="round" stroke-linejoin="round" stroke-opacity="1.0" stroke-width="0"/>
    <path d="M 471.8493957519531 485.2616882324219 C 465.3328857421875 496.3912048339844 461.51812744140625 510.11138916015625 458.3957824707031 524.3788452148438 C 445.68634033203125 521.7327270507812 447.7023010253906 506.3851623535156 449.7561340332031 496.8670959472656 C 448.204833984375 482.0681457519531 449.8398132324219 483.91900634765625 456.6656799316406 484.182373046875 C 472.63861083984375 479.2133483886719 476.6938171386719 484.2237548828125 471.8493957519531 485.2616882324219" fill="rgb(72, 170, 91)" opacity="0.008212788" stroke="rgb(0, 0, 0)" stroke-linecap="round" stroke-linejoin="round" stroke-opacity="1.0" stroke-width="0"/>
    <path d="M 148.54087829589844 29.175975799560547 C 141.68002319335938 32.84593200683594 136.2369384765625 39.010555267333984 141.8428192138672 43.08816146850586 C 135.29714965820312 39.564327239990234 127.55025482177734 31.21040153503418 128.02659606933594 22.380399703979492 C 122.30435180664062 21.27029037475586 123.95796203613281 16.421630859375 124.39154815673828 0.4594820737838745 C 144.56004333496094 14.808255195617676 151.02944946289062 23.587182998657227 148.54087829589844 29.175975799560547" fill="rgb(192, 236, 89)" opacity="0.048958357" stroke="rgb(0, 0, 0)" stroke-linecap="round" stroke-linejoin="round" stroke-opacity="1.0" stroke-width="0"/>
    <path d="M 204.50613403320312 333.24365234375 C 204.42938232421875 357.897705078125 204.22854614257812 380.4682312011719 202.41407775878906 378.5089111328125 C 177.33590698242188 362.4059753417969 172.22312927246094 351.0194091796875 160.3682403564453 342.80426025390625 C 163.6737518310547 329.6634826660156 174.46363830566406 321.051513671875 191.64370727539062 319.67315673828125 C 204.96884155273438 322.23858642578125 214.03424072265625 327.371337890625 204.50613403320312 333.24365234375" fill="rgb(236, 229, 179)" opacity="0.08087698" stroke="rgb(0, 0, 0)" stroke-linecap="round" stroke-linejoin="round" stroke-opacity="1.0" stroke-width="0"/>
    <path d="M 55.556331634521484 328.0711669921875 C 63.428810119628906 334.9642028808594 55.27613830566406 340.89959716796875 28.8662052154541 330.8388977050781 C 24.65131950378418 339.75640869140625 20.378368377685547 325.6055908203125 22.371896743774414 310.0073547363281 C 18.904205322265625 298.27923583984375 16.822927474975586 295.1409912109375 26.86172866821289 290.2056579589844 C 42.67496871948242 304.1559753417969 47.53765106201172 310.894287109375 55.556331634521484 328.0711669921875" fill="rgb(197, 245, 102)" opacity="0.014091256" stroke="rgb(0, 0, 0)" stroke-linecap="round" stroke-linejoin="round" stroke-opacity="1.0" stroke-width="0"/>
    <path d="M 439.6199951171875 467.8506164550781 C 443.1635437011719 472.00250244140625 418.4602966308594 460.3963928222656 416.30682373046875 456.4543762207031 C 404.41864013671875 447.94744873046875 395.08770751953125 438.1391296386719 384.6864929199219 429.9349060058594 C 369.0852966308594 419.8179016113281 381.96038818359375 412.5440673828125 394.35113525390625 421.7202453613281 C 397.0203857421875 431.30389404296875 411.5841064453125 435.4527893066406 439.6199951171875 467.8506164550781" fill="rgb(159, 213, 255)" opacity="1.0" stroke="rgb(0, 0, 0)" stroke-linecap="round" stroke-linejoin="round" stroke-opacity="1.0" stroke-width="0"/>
    <path d="M 127.2357177734375 356.3332214355469 C 134.15098571777344 358.26947021484375 125.96855926513672 362.9487609863281 110.79924011230469 361.0773620605469 C 103.88835906982422 351.7796936035156 97.21693420410156 342.68585205078125 98.24120330810547 351.26361083984375 C 111.51956939697266 350.4036560058594 118.3016357421875 344.7576599121094 109.2230453491211 337.5538330078125 C 108.17586517333984 333.8802795410156 117.23452758789062 341.1270446777344 127.2357177734375 356.3332214355469" fill="rgb(182, 255, 116)" opacity="0.01798807" stroke="rgb(0, 0, 0)" stroke-linecap="round" stroke-linejoin="round" stroke-opacity="1.0" stroke-width="0"/>
    <path d="M 51.59084701538086 197.0726318359375 C 42.760498046875 197.2287139892578 40.83595657348633 204.62152099609375 40.70509719848633 201.48350524902344 C 27.54096794128418 198.08517456054688 18.819194793701172 194.12147521972656 19.983972549438477 202.29762268066406 C 22.608871459960938 199.2697296142578 29.054914474487305 189.3415985107422 21.376386642456055 173.52908325195312 C 41.00316619873047 174.83790588378906 46.981876373291016 184.18630981445312 51.59084701538086 197.0726318359375" fill="rgb(197, 232, 107)" opacity="0.03953832" stroke="rgb(0, 0, 0)" stroke-linecap="round" stroke-linejoin="round" stroke-opacity="1.0" stroke-width="0"/>
    <path d="M 117.0997543334961 342.796630859375 C 116.69671630859375 344.53924560546875 118.16646575927734 356.53411865234375 112.82450103759766 347.685791015625 C 112.42120361328125 341.6318359375 105.10075378417969 331.9339294433594 98.5836181640625 326.95416259765625 C 102.79792022705078 336.0145568847656 109.10179901123047 329.05889892578125 109.27393341064453 321.4280700683594 C 111.64375305175781 319.8701477050781 113.35458374023438 338.39739990234375 117.0997543334961 342.796630859375" fill="rgb(168, 224, 41)" opacity="0.06472138" stroke="rgb(0, 0, 0)" stroke-linecap="round" stroke-linejoin="round" stroke-opacity="1.0" stroke-width="0"/>
    <path d="M 33.721492767333984 106.82902526855469 C 45.65085983276367 96.30928039550781 30.319421768188477 94.00523376464844 25.422563552856445 90.96533966064453 C 25.31412124633789 95.72582244873047 20.762544631958008 83.9622802734375 8.96247673034668 77.21422576904297 C 1.521838665008545 72.0737533569336 6.730685710906982 64.003662109375 10.028879165649414 74.65874481201172 C 27.32714080810547 76.55075073242188 25.9363956451416 90.02153015136719 33.721492767333984 106.82902526855469" fill="rgb(186, 255, 70)" opacity="0.027045486" stroke="rgb(0, 0, 0)" stroke-linecap="round" stroke-linejoin="round" stroke-opacity="1.0" stroke-width="0"/>
    <path d="M 163.02085876464844 179.10226440429688 C 161.2427520751953 190.54139709472656 151.5240478515625 189.55517578125 134.352294921875 184.74343872070312 C 127.12813568115234 194.46792602539062 125.50366973876953 183.56356811523438 124.4518051147461 178.50827026367188 C 128.39842224121094 177.6830291748047 133.968017578125 166.13345336914062 138.17628479003906 155.88035583496094 C 149.38540649414062 155.01622009277344 152.8787841796875 169.44876098632812 163.02085876464844 179.10226440429688" fill="rgb(178, 255, 82)" opacity="0.044829566" stroke="rgb(0, 0, 0)" stroke-linecap="round" stroke-linejoin="round" stroke-opacity="1.0" stroke-width="0"/>
    <path d="M 215.35162353515625 370.0613098144531 C 215.59754943847656 394.2677001953125 204.90017700195312 404.1160583496094 194.09100341796875 406.30096435546875 C 182.38833618164062 402.0596008300781 178.2122802734375 396.81243896484375 174.4544219970703 385.83990478515625 C 172.92138671875 376.1639099121094 176.3366241455078 365.0763244628906 192.9385223388672 360.1554870605469 C 207.86947631835938 361.9028015136719 213.99940490722656 369.8869323730469 215.35162353515625 370.0613098144531" fill="rgb(238, 174, 233)" opacity="0.013849825" stroke="rgb(0, 0, 0)" stroke-linecap="round" stroke-linejoin="round" stroke-opacity="1.0" stroke-width="0"/>
    <path d="M 74.6650390625 40.98225784301758 C 73.63574981689453 52.18685531616211 61.576904296875 59.677303314208984 61.88393783569336 68.08583068847656 C 66.94416046142578 64.50464630126953 54.643917083740234 57.00121307373047 45.5012321472168 50.443538665771484 C 51.088748931884766 45.64241409301758 55.741233825683594 35.306373596191406 59.620277404785156 36.377655029296875 C 70.20003509521484 37.33356475830078 71.85713958740234 47.069175720214844 74.6650390625 40.98225784301758" fill="rgb(166, 248, 87)" opacity="0.0" stroke="rgb(0, 0, 0)" stroke-linecap="round" stroke-linejoin="round" stroke-opacity="1.0" stroke-width="0"/>
    <path d="M 59.87599563598633 182.97210693359375 C 65.67748260498047 206.6251983642578 54.835453033447266 212.7532196044922 29.521238327026367 213.93324279785156 C 19.11614990234375 211.9616241455078 10.495039939880371 207.76260375976562 7.034059524536133 198.14361572265625 C 14.382762908935547 167.80300903320312 14.157916069030762 151.40139770507812 19.216495513916016 155.84420776367188 C 45.821563720703125 170.72898864746094 59.830284118652344 177.32162475585938 59.87599563598633 182.97210693359375" fill="rgb(180, 243, 54)" opacity="0.30502298" stroke="rgb(0, 0, 0)" stroke-linecap="round" stroke-linejoin="round" stroke-opacity="1.0" stroke-width="0"/>
    <path d="M 315.8221130371094 340.987060546875 C 317.1565246582031 333.8978271484375 309.4759826660156 341.942626953125 310.98834228515625 356.42852783203125 C 302.45684814453125 349.8739318847656 293.1752014160156 343.5262145996094 306.7506408691406 338.02734375 C 307.94775390625 318.3985595703125 298.1950378417969 314.9269714355469 317.88739013671875 315.82354736328125 C 322.1434326171875 310.4900817871094 321.3382568359375 319.9623718261719 315.8221130371094 340.987060546875" fill="rgb(231, 38, 3)" opacity="0.9759224" stroke="rgb(0, 0, 0)" stroke-linecap="round" stroke-linejoin="round" stroke-opacity="1.0" stroke-width="0"/>
    <path d="M 386.86279296875 439.00872802734375 C 388.90478515625 444.42840576171875 379.898681640625 450.4689636230469 364.12762451171875 451.4633483886719 C 347.8401184082031 447.29779052734375 339.2048034667969 440.56817626953125 343.6693420410156 431.7594299316406 C 339.5141906738281 418.57293701171875 349.0636291503906 412.5401611328125 353.1906433105469 418.6344909667969 C 362.318115234375 416.1423645019531 372.5284118652344 421.30255126953125 386.86279296875 439.00872802734375" fill="rgb(17, 198, 20)" opacity="0.14809649" stroke="rgb(0, 0, 0)" stroke-linecap="round" stroke-linejoin="round" stroke-opacity="1.0" stroke-width="0"/>
    <path d="M 337.5828552246094 421.3919982910156 C 335.4998474121094 437.45196533203125 343.0626220703125 438.0239562988281 336.33233642578125 438.8987121582031 C 309.00616455078125 441.864013671875 305.340087890625 440.898193359375 299.7844543457031 403.4136047363281 C 294.92425537109375 401.57696533203125 310.2123107910156 404.436279296875 340.306884765625 395.032958984375 C 351.6938171386719 395.4454040527344 355.4377746582031 415.5390625 337.5828552246094 421.3919982910156" fill="rgb(22, 193, 0)" opacity="0.002512585" stroke="rgb(0, 0, 0)" stroke-linecap="round" stroke-linejoin="round" stroke-opacity="1.0" stroke-width="0"/>
    <path d="M 504.4788513183594 235.73187255859375 C 491.159912109375 231.1396484375 488.5555725097656 241.45310974121094 495.02178955078125 266.6315612792969 C 478.1321716308594 266.2977294921875 472.470947265625 256.1506042480469 473.8475341796875 239.319091796875 C 474.64215087890625 226.38624572753906 484.6952819824219 225.14491271972656 498.48095703125 219.65260314941406 C 501.35223388671875 224.9852294921875 509.8771057128906 231.6536407470703 504.4788513183594 235.73187255859375" fill="rgb(104, 139, 32)" opacity="0.0" stroke="rgb(0, 0, 0)" stroke-linecap="round" stroke-linejoin="round" stroke-opacity="1.0" stroke-width="0"/>
    <path d="M 436.50830078125 157.1432342529297 C 443.4785461425781 166.21385192871094 431.414306640625 166.63626098632812 409.83172607421875 171.07003784179688 C 395.4928283691406 178.22372436523438 398.45159912109375 170.0462646484375 397.97357177734375 146.46644592285156 C 407.6864013671875 146.1757049560547 418.8890380859375 136.2039337158203 419.98419189453125 137.0230712890625 C 419.5308837890625 141.5838623046875 427.9040832519531 148.48707580566406 436.50830078125 157.1432342529297" fill="rgb(78, 176, 26)" opacity="0.0010512212" stroke="rgb(0, 0, 0)" stroke-linecap="round" stroke-linejoin="round" stroke-opacity="1.0" stroke-width="0"/>
    <path d="M 447.6896057128906 308.23199462890625 C 431.10186767578125 309.0140686035156 425.2462158203125 315.04248046875 409.6730041503906 309.296630859375 C 404.52099609375 322.347900390625 408.4557800292969 321.80328369140625 406.53338623046875 296.4107971191406 C 414.7912902832031 299.1706848144531 409.9073791503906 286.0709533691406 429.2332763671875 282.3428955078125 C 439.7169189453125 277.8135070800781 447.4504089355469 291.6216125488281 447.6896057128906 308.23199462890625" fill="rgb(76, 177, 39)" opacity="0.0" stroke="rgb(0, 0, 0)" stroke-linecap="round" stroke-linejoin="round" stroke-opacity="1.0" stroke-width="0"/>
    <path d="M 414.06683349609375 63.32344055175781 C 424.7003479003906 76.65668487548828 415.5484313964844 87.07868957519531 404.522705078125 84.15190887451172 C 400.167236328125 85.91539001464844 402.2918395996094 73.0781021118164 403.0341796875 61.16620635986328 C 387.093017578125 66.01585388183594 400.5882568359375 60.40840530395508 411.4712219238281 61.42612075805664 C 423.9037780761719 58.79758071899414 428.7245178222656 58.133583068847656 414.06683349609375 63.32344055175781" fill="rgb(107, 183, 34)" opacity="0.0" stroke="rgb(0, 0, 0)" stroke-linecap="round" stroke-linejoin="round" stroke-opacity="1.0" stroke-width="0"/>
    <path d="M 385.8815612792969 430.984130859375 C 382.3310241699219 448.60992431640625 385.8509216308594 464.04962158203125 379.29931640625 461.8191223144531 C 367.88592529296875 465.36956787109375 359.2620544433594 457.83056640625 360.281982421875 450.9407043457031 C 368.2848205566406 446.7126159667969 371.6622314453125 434.1731872558594 377.7274475097656 433.5074157714844 C 391.7255554199219 434.44952392578125 400.7196044921875 434.8759765625 385.8815612792969 430.984130859375" fill="rgb(78, 166, 69)" opacity="0.0" stroke="rgb(0, 0, 0)" stroke-linecap="round" stroke-linejoin="round" stroke-opacity="1.0" stroke-width="0"/>
    <path d="M 43.14630126953125 83.5545883178711 C 43.83917999267578 94.70973205566406 35.865821838378906 100.99454498291016 33.01426696777344 109.59330749511719 C 10.459293365478516 105.28485107421875 5.36323356628418 97.84864807128906 8.268972396850586 84.02375793457031 C 16.94236183166504 80.92887878417969 20.697534561157227 70.32011413574219 28.6030330657959 60.59305191040039 C 33.69905090332031 59.337364196777344 38.07738494873047 74.53785705566406 43.14630126953125 83.5545883178711" fill="rgb(197, 255, 52)" opacity="0.144139" stroke="rgb(0, 0, 0)" stroke-linecap="round" stroke-linejoin="round" stroke-opacity="1.0" stroke-width="0"/>
    <path d="M 204.12265014648438 406.2357482910156 C 213.25982666015625 442.0962219238281 210.17739868164062 441.9005126953125 191.19873046875 435.4351806640625 C 180.53468322753906 427.6258850097656 175.61181640625 417.9389953613281 168.94203186035156 405.7269287109375 C 170.9197998046875 415.5586242675781 181.5324249267578 409.35614013671875 182.0113983154297 396.69769287109375 C 202.26235961914062 399.70745849609375 211.5021209716797 400.8907775878906 204.12265014648438 406.2357482910156" fill="rgb(159, 201, 111)" opacity="0.20756264" stroke="rgb(0, 0, 0)" stroke-linecap="round" stroke-linejoin="round" stroke-opacity="1.0" stroke-width="0"/>
    <path d="M 336.8326416015625 165.34140014648438 C 330.41552734375 164.93179321289062 319.9842834472656 169.9357452392578 329.1332702636719 171.13499450683594 C 318.4201965332031 172.8909149169922 311.2350158691406 166.27349853515625 309.1917419433594 164.98265075683594 C 312.8227233886719 169.7863311767578 321.42718505859375 156.00723266601562 326.1024169921875 145.5148468017578 C 321.5686950683594 154.21697998046875 327.13153076171875 167.52398681640625 336.8326416015625 165.34140014648438" fill="rgb(254, 146, 218)" opacity="0.08533701" stroke="rgb(0, 0, 0)" stroke-linecap="round" stroke-linejoin="round" stroke-opacity="1.0" stroke-width="0"/>
  </g>
</svg>
