<?xml version="1.0" ?>
<svg height="512" style="background-color: rgb(203, 201, 240, 0.23688927292823792)" version="1.1" width="512" xmlns="http://www.w3.org/2000/svg">
  <defs/>
  <g>
    <path d="M 531.100341796875 457.31494140625 C 542.056640625 515.231201171875 547.8551025390625 525.180419921875 452.08123779296875 528.1154174804688 C 386.8619384765625 532.6854248046875 333.3935852050781 563.2000122070312 261.2147521972656 514.747314453125 C 329.4466247558594 363.7957458496094 392.9761962890625 399.57452392578125 505.09857177734375 344.7723083496094 C 557.009765625 333.0241394042969 559.2396240234375 342.7469787597656 531.100341796875 457.31494140625" fill="rgb(61, 192, 8)" opacity="0.8377346" stroke="rgb(0, 0, 0)" stroke-linecap="round" stroke-linejoin="round" stroke-opacity="1.0" stroke-width="0"/>
    <path d="M 164.32351684570312 426.3056945800781 C 217.6925506591797 423.8573913574219 271.1844177246094 390.4668273925781 317.2343444824219 525.7215576171875 C -51.20000076293945 520.029052734375 -51.20000076293945 513.2939453125 -51.20000076293945 483.0904235839844 C -35.838844299316406 194.4108428955078 -25.566679000854492 187.95806884765625 56.415855407714844 185.75868225097656 C 211.366943359375 239.4303741455078 143.1896514892578 221.10830688476562 164.32351684570312 426.3056945800781" fill="rgb(8, 189, 111)" opacity="0.96277535" stroke="rgb(0, 0, 0)" stroke-linecap="round" stroke-linejoin="round" stroke-opacity="1.0" stroke-width="0"/>
    <path d="M 218.25779724121094 246.38343811035156 C 142.8682861328125 296.62353515625 194.25765991210938 374.97412109375 165.3469696044922 325.8398132324219 C 148.57911682128906 527.47265625 112.52838897705078 353.7528076171875 52.34982681274414 192.69798278808594 C 28.222654342651367 192.92398071289062 47.699039459228516 206.9374237060547 243.22772216796875 95.07870483398438 C 267.88287353515625 182.11056518554688 356.52947998046875 215.2066650390625 218.25779724121094 246.38343811035156" fill="rgb(43, 79, 114)" opacity="0.9148292" stroke="rgb(0, 0, 0)" stroke-linecap="round" stroke-linejoin="round" stroke-opacity="1.0" stroke-width="0"/>
    <path d="M 311.8031005859375 4.101462364196777 C 324.85113525390625 177.2260284423828 236.1782989501953 121.60175323486328 13.647087097167969 210.57095336914062 C -33.697452545166016 216.3728485107422 -22.728275299072266 198.82266235351562 -15.745562553405762 47.05546951293945 C -13.334906578063965 -13.992923736572266 -5.4589362144470215 -18.950611114501953 21.054468154907227 -17.092485427856445 C 188.91212463378906 -24.567119598388672 217.4682159423828 -39.560672760009766 311.8031005859375 4.101462364196777" fill="rgb(77, 232, 62)" opacity="0.8749832" stroke="rgb(0, 0, 0)" stroke-linecap="round" stroke-linejoin="round" stroke-opacity="1.0" stroke-width="0"/>
    <path d="M 548.8832397460938 110.67047882080078 C 459.1053161621094 288.7101745605469 442.659423828125 276.8155212402344 361.1260681152344 253.89315795898438 C 303.6626281738281 237.57806396484375 216.26617431640625 248.86767578125 226.9383087158203 177.3476104736328 C 218.39549255371094 25.41347312927246 309.3446350097656 130.2383270263672 379.39642333984375 5.967009544372559 C 560.5216064453125 -28.164894104003906 558.96337890625 5.746277809143066 548.8832397460938 110.67047882080078" fill="rgb(255, 254, 0)" opacity="1.0" stroke="rgb(0, 0, 0)" stroke-linecap="round" stroke-linejoin="round" stroke-opacity="1.0" stroke-width="0"/>
    <path d="M 432.8485107421875 323.303955078125 C 437.3241882324219 481.0467529296875 460.2453918457031 558.4364624023438 259.4671325683594 532.7183227539062 C 335.1777648925781 307.51507568359375 361.5511169433594 509.9154357910156 349.9783630371094 320.76312255859375 C 317.5334167480469 217.1031951904297 263.14764404296875 255.3519744873047 257.66070556640625 228.8053741455078 C 448.24859619140625 232.24159240722656 440.87640380859375 243.6592254638672 432.8485107421875 323.303955078125" fill="rgb(87, 247, 95)" opacity="0.8263325" stroke="rgb(0, 0, 0)" stroke-linecap="round" stroke-linejoin="round" stroke-opacity="1.0" stroke-width="0"/>
    <path d="M 545.8535766601562 215.71243286132812 C 554.9151611328125 325.53997802734375 560.4004516601562 333.9641418457031 420.5295104980469 430.36578369140625 C 344.86090087890625 434.5128479003906 405.9508056640625 369.6306457519531 343.8045349121094 209.64938354492188 C 253.3146514892578 -3.3758656978607178 216.24978637695312 -39.19169998168945 445.5867004394531 -6.737736225128174 C 552.8440551757812 70.35575103759766 548.66259765625 110.21142578125 545.8535766601562 215.71243286132812" fill="rgb(109, 217, 62)" opacity="0.99378175" stroke="rgb(0, 0, 0)" stroke-linecap="round" stroke-linejoin="round" stroke-opacity="1.0" stroke-width="0"/>
    <path d="M 403.9159851074219 371.0444030761719 C 459.02069091796875 463.9239807128906 346.5357666015625 434.0245056152344 341.74176025390625 309.93890380859375 C 334.7709045410156 268.8428955078125 291.80963134765625 245.12522888183594 303.246337890625 251.89569091796875 C 294.87652587890625 245.64231872558594 285.1630554199219 244.25440979003906 228.75083923339844 234.23175048828125 C 403.57745361328125 149.7445526123047 333.7944030761719 91.96554565429688 403.9159851074219 371.0444030761719" fill="rgb(13, 25, 56)" opacity="0.9980848" stroke="rgb(0, 0, 0)" stroke-linecap="round" stroke-linejoin="round" stroke-opacity="1.0" stroke-width="0"/>
    <path d="M 448.1598815917969 177.5550537109375 C 376.00299072265625 289.680419921875 394.6856689453125 324.3920593261719 364.1211242675781 250.31353759765625 C 358.30670166015625 244.34561157226562 345.4551696777344 201.49452209472656 330.9482116699219 212.00108337402344 C 345.21868896484375 205.88905334472656 322.14971923828125 162.4134063720703 264.0802307128906 55.36948776245117 C 426.654296875 56.0706787109375 427.06768798828125 128.23695373535156 448.1598815917969 177.5550537109375" fill="rgb(115, 232, 54)" opacity="1.0" stroke="rgb(0, 0, 0)" stroke-linecap="round" stroke-linejoin="round" stroke-opacity="1.0" stroke-width="0"/>
    <path d="M 235.82717895507812 237.93386840820312 C 234.47738647460938 238.57537841796875 212.03269958496094 239.1114044189453 248.720458984375 234.32630920410156 C 198.29351806640625 230.10205078125 179.51600646972656 204.2302703857422 184.38015747070312 281.469482421875 C 194.72689819335938 243.47836303710938 245.80972290039062 249.23941040039062 260.43243408203125 219.21768188476562 C 129.4098358154297 148.7826690673828 184.79005432128906 240.22169494628906 235.82717895507812 237.93386840820312" fill="rgb(26, 78, 103)" opacity="0.8987986" stroke="rgb(0, 0, 0)" stroke-linecap="round" stroke-linejoin="round" stroke-opacity="1.0" stroke-width="0"/>
    <path d="M 479.0794372558594 284.288818359375 C 470.8921203613281 347.9550476074219 475.29248046875 417.3354187011719 364.5935363769531 469.0633850097656 C 420.9417724609375 365.55902099609375 360.21844482421875 311.302490234375 379.1216735839844 250.3589630126953 C 407.9756164550781 261.0666198730469 434.79180908203125 219.55433654785156 395.21942138671875 76.27725219726562 C 482.0871276855469 181.8634033203125 473.228515625 226.8268585205078 479.0794372558594 284.288818359375" fill="rgb(114, 231, 82)" opacity="0.9727469" stroke="rgb(0, 0, 0)" stroke-linecap="round" stroke-linejoin="round" stroke-opacity="1.0" stroke-width="0"/>
    <path d="M 267.927734375 50.92367935180664 C 217.55618286132812 69.22102355957031 251.8373260498047 40.94533157348633 275.6611633300781 63.807960510253906 C 259.375244140625 79.96721649169922 180.29168701171875 58.68161392211914 172.41940307617188 175.99234008789062 C 255.68194580078125 121.15021514892578 378.70233154296875 140.91610717773438 299.369873046875 85.12237548828125 C 255.13851928710938 59.18598175048828 202.9306182861328 81.43285369873047 267.927734375 50.92367935180664" fill="rgb(1, 28, 60)" opacity="0.992961" stroke="rgb(0, 0, 0)" stroke-linecap="round" stroke-linejoin="round" stroke-opacity="1.0" stroke-width="0"/>
    <path d="M 172.39260864257812 345.29534912109375 C 153.624267578125 401.234375 140.0621337890625 404.0223693847656 267.36956787109375 463.9375305175781 C 157.26112365722656 443.35186767578125 157.83506774902344 359.73944091796875 157.96591186523438 376.5750427246094 C 158.817626953125 369.0812072753906 164.13192749023438 374.59075927734375 165.38430786132812 288.9044189453125 C 202.27882385253906 286.8165283203125 178.30198669433594 242.30441284179688 172.39260864257812 345.29534912109375" fill="rgb(44, 72, 127)" opacity="1.0" stroke="rgb(0, 0, 0)" stroke-linecap="round" stroke-linejoin="round" stroke-opacity="1.0" stroke-width="0"/>
    <path d="M 533.8719482421875 27.45643424987793 C 547.0794677734375 133.34234619140625 563.2000122070312 198.51629638671875 518.6947021484375 186.31051635742188 C 474.4255676269531 87.4512710571289 457.390869140625 52.74504089355469 380.0139465332031 -9.671131134033203 C 352.4057312011719 -36.5623664855957 381.7399597167969 -29.16037368774414 447.279296875 -17.786087036132812 C 542.5020751953125 -12.75610637664795 541.1154174804688 -3.227013349533081 533.8719482421875 27.45643424987793" fill="rgb(112, 215, 22)" opacity="0.7739512" stroke="rgb(0, 0, 0)" stroke-linecap="round" stroke-linejoin="round" stroke-opacity="1.0" stroke-width="0"/>
    <path d="M 452.0964050292969 421.25518798828125 C 468.9856872558594 433.1786193847656 482.807373046875 449.76263427734375 453.26910400390625 481.0106506347656 C 413.5249328613281 448.4071044921875 399.0136413574219 449.4178771972656 394.4005126953125 425.7174377441406 C 428.7135314941406 405.1325988769531 434.1347351074219 391.239501953125 439.1114807128906 400.8545837402344 C 436.6321716308594 404.1611022949219 442.7642517089844 412.53997802734375 452.0964050292969 421.25518798828125" fill="rgb(98, 188, 61)" opacity="0.07410264" stroke="rgb(0, 0, 0)" stroke-linecap="round" stroke-linejoin="round" stroke-opacity="1.0" stroke-width="0"/>
    <path d="M 364.2680358886719 447.1786804199219 C 203.0685577392578 425.3919982910156 328.76495361328125 422.2215270996094 333.8238830566406 441.9456481933594 C 179.19227600097656 507.03857421875 243.89285278320312 439.12652587890625 155.84243774414062 444.29852294921875 C 198.93482971191406 395.9676208496094 221.0221710205078 437.8675231933594 274.25701904296875 422.4383850097656 C 298.9050598144531 438.7776184082031 288.8348083496094 394.89044189453125 364.2680358886719 447.1786804199219" fill="rgb(255, 255, 1)" opacity="1.0" stroke="rgb(0, 0, 0)" stroke-linecap="round" stroke-linejoin="round" stroke-opacity="1.0" stroke-width="0"/>
    <path d="M 410.3537902832031 457.4144287109375 C 399.1199035644531 460.6927795410156 379.35955810546875 474.5152893066406 386.9564208984375 470.13037109375 C 393.0569763183594 455.4044189453125 356.9265441894531 485.5157165527344 266.1936950683594 472.845703125 C 381.8472900390625 437.9234619140625 297.51141357421875 391.12579345703125 369.7112731933594 409.6384582519531 C 481.2156677246094 404.8564758300781 424.8280334472656 426.9581604003906 410.3537902832031 457.4144287109375" fill="rgb(91, 233, 84)" opacity="0.9603655" stroke="rgb(0, 0, 0)" stroke-linecap="round" stroke-linejoin="round" stroke-opacity="1.0" stroke-width="0"/>
    <path d="M 302.4283752441406 10.150619506835938 C 215.72906494140625 51.93804168701172 207.5753631591797 53.07413864135742 168.48641967773438 53.325653076171875 C 169.38536071777344 33.6791877746582 173.21279907226562 52.90254211425781 63.11465835571289 71.70587158203125 C 78.72052764892578 -45.20585250854492 115.15616607666016 -40.852561950683594 195.8933563232422 -30.263427734375 C 274.3363952636719 -24.730680465698242 305.4935607910156 -30.43387222290039 302.4283752441406 10.150619506835938" fill="rgb(167, 234, 35)" opacity="0.07396945" stroke="rgb(0, 0, 0)" stroke-linecap="round" stroke-linejoin="round" stroke-opacity="1.0" stroke-width="0"/>
    <path d="M 334.2662658691406 107.26319122314453 C 315.5287780761719 110.67524719238281 286.01824951171875 69.18888092041016 287.0775146484375 129.67056274414062 C 363.4958190917969 155.9561004638672 223.81338500976562 202.50059509277344 335.6367492675781 216.8153533935547 C 335.85546875 126.65919494628906 343.11273193359375 118.08653259277344 310.14056396484375 96.15874481201172 C 352.1651306152344 119.75199127197266 344.5860290527344 119.77415466308594 334.2662658691406 107.26319122314453" fill="rgb(65, 40, 64)" opacity="0.86699325" stroke="rgb(0, 0, 0)" stroke-linecap="round" stroke-linejoin="round" stroke-opacity="1.0" stroke-width="0"/>
    <path d="M 433.0292663574219 211.9009246826172 C 424.6281433105469 216.27316284179688 438.05419921875 231.3767852783203 422.0943298339844 319.89794921875 C 383.4384765625 353.5065612792969 391.1212463378906 313.50634765625 369.6814880371094 212.26112365722656 C 386.52972412109375 114.38422393798828 414.59783935546875 155.0745391845703 436.3324890136719 206.69488525390625 C 431.3230285644531 215.81727600097656 439.06915283203125 223.244384765625 433.0292663574219 211.9009246826172" fill="rgb(108, 210, 122)" opacity="0.10360946" stroke="rgb(0, 0, 0)" stroke-linecap="round" stroke-linejoin="round" stroke-opacity="1.0" stroke-width="0"/>
    <path d="M 155.6287078857422 243.27291870117188 C 132.47076416015625 308.236328125 119.46434783935547 434.2749328613281 139.35963439941406 419.5708312988281 C 91.86814880371094 384.53094482421875 103.55964660644531 298.96295166015625 52.54124450683594 199.26577758789062 C 22.720733642578125 209.06045532226562 67.55498504638672 147.70648193359375 171.12713623046875 117.66016387939453 C 178.7543487548828 192.49681091308594 182.20335388183594 201.0316925048828 155.6287078857422 243.27291870117188" fill="rgb(0, 193, 142)" opacity="0.98872805" stroke="rgb(0, 0, 0)" stroke-linecap="round" stroke-linejoin="round" stroke-opacity="1.0" stroke-width="0"/>
    <path d="M 145.010986328125 37.73374557495117 C 101.21508026123047 111.4474868774414 128.3690948486328 215.84722900390625 7.501887321472168 285.21575927734375 C -49.08483123779297 65.54949951171875 23.226430892944336 61.24174499511719 28.758275985717773 63.31886291503906 C 27.168249130249023 73.22191619873047 48.71586990356445 56.3284912109375 47.781280517578125 63.48746871948242 C 47.0941047668457 56.54145431518555 60.882320404052734 32.72540283203125 145.010986328125 37.73374557495117" fill="rgb(73, 225, 124)" opacity="0.113497004" stroke="rgb(0, 0, 0)" stroke-linecap="round" stroke-linejoin="round" stroke-opacity="1.0" stroke-width="0"/>
    <path d="M 313.25213623046875 157.92593383789062 C 307.4482421875 176.80014038085938 280.6138916015625 185.8705291748047 303.57977294921875 193.57376098632812 C 254.86343383789062 189.2705535888672 270.4608154296875 143.15133666992188 228.42654418945312 192.4385223388672 C 198.2655487060547 97.94401550292969 219.1510467529297 92.1035385131836 283.5252990722656 136.5167236328125 C 256.4421081542969 168.15501403808594 296.7050476074219 201.51760864257812 313.25213623046875 157.92593383789062" fill="rgb(43, 82, 105)" opacity="0.9899455" stroke="rgb(0, 0, 0)" stroke-linecap="round" stroke-linejoin="round" stroke-opacity="1.0" stroke-width="0"/>
    <path d="M 241.1067657470703 146.78919982910156 C 244.51072692871094 158.5641326904297 238.86767578125 177.41122436523438 217.42556762695312 178.111572265625 C 198.8840789794922 165.31051635742188 194.17222595214844 158.03700256347656 198.92649841308594 141.14329528808594 C 204.21058654785156 127.83504486083984 217.2106475830078 127.39604949951172 220.68350219726562 125.52642059326172 C 227.79296875 126.59700012207031 234.74081420898438 130.5743865966797 241.1067657470703 146.78919982910156" fill="rgb(255, 255, 254)" opacity="1.0" stroke="rgb(0, 0, 0)" stroke-linecap="round" stroke-linejoin="round" stroke-opacity="1.0" stroke-width="0"/>
    <path d="M 349.9338073730469 439.4647521972656 C 349.8587646484375 440.884033203125 316.80633544921875 452.53228759765625 319.2831115722656 443.0168151855469 C 300.9389343261719 449.1275939941406 273.19732666015625 450.1672058105469 259.632080078125 443.67620849609375 C 282.3453674316406 423.7182312011719 308.5087585449219 419.3933410644531 325.6710205078125 427.428955078125 C 309.0 420.1123962402344 338.7917785644531 424.2319030761719 349.9338073730469 439.4647521972656" fill="rgb(255, 255, 0)" opacity="1.0" stroke="rgb(0, 0, 0)" stroke-linecap="round" stroke-linejoin="round" stroke-opacity="1.0" stroke-width="0"/>
    <path d="M 303.4257507324219 452.166748046875 C 309.6541748046875 477.9220275878906 282.81658935546875 486.90557861328125 280.3049621582031 489.7781982421875 C 253.87197875976562 468.32196044921875 176.93775939941406 505.46917724609375 126.56610107421875 409.7900695800781 C 197.83383178710938 472.6790466308594 248.37576293945312 453.0772705078125 241.67958068847656 434.057861328125 C 303.6611328125 422.535888671875 251.98831176757812 452.9593811035156 303.4257507324219 452.166748046875" fill="rgb(0, 200, 170)" opacity="1.0" stroke="rgb(0, 0, 0)" stroke-linecap="round" stroke-linejoin="round" stroke-opacity="1.0" stroke-width="0"/>
    <path d="M 279.6578369140625 150.15882873535156 C 320.61859130859375 144.54576110839844 300.52935791015625 184.22975158691406 283.472900390625 172.7138671875 C 279.0453796386719 113.93917083740234 289.4179382324219 125.91488647460938 288.3404235839844 138.64402770996094 C 285.28900146484375 125.86377716064453 283.9190368652344 137.15538024902344 278.9458923339844 126.4701919555664 C 290.2662658691406 140.42945861816406 263.42730712890625 132.4291534423828 279.6578369140625 150.15882873535156" fill="rgb(13, 19, 101)" opacity="0.9234631" stroke="rgb(0, 0, 0)" stroke-linecap="round" stroke-linejoin="round" stroke-opacity="1.0" stroke-width="0"/>
    <path d="M 390.51385498046875 72.4493408203125 C 398.105712890625 82.76481628417969 429.1130676269531 93.71481323242188 457.60089111328125 182.08261108398438 C 357.3027648925781 133.1417694091797 332.9579162597656 126.4541015625 262.5458984375 25.73474884033203 C 354.248291015625 13.302642822265625 375.711669921875 70.92156219482422 380.6720275878906 72.32841491699219 C 399.8664855957031 67.73358154296875 390.8547058105469 73.46650695800781 390.51385498046875 72.4493408203125" fill="rgb(69, 225, 84)" opacity="0.32338005" stroke="rgb(0, 0, 0)" stroke-linecap="round" stroke-linejoin="round" stroke-opacity="1.0" stroke-width="0"/>
    <path d="M 441.0874328613281 402.9664001464844 C 440.9473571777344 419.1554260253906 430.0231628417969 420.8953857421875 410.4263610839844 413.0248107910156 C 394.1556091308594 409.26190185546875 397.3690185546875 389.53228759765625 396.4139709472656 411.9236145019531 C 393.6405944824219 392.732421875 387.4978942871094 370.7458801269531 393.8076171875 373.2585144042969 C 420.7898254394531 375.0529479980469 418.8476867675781 381.1156005859375 441.0874328613281 402.9664001464844" fill="rgb(96, 237, 119)" opacity="0.021094503" stroke="rgb(0, 0, 0)" stroke-linecap="round" stroke-linejoin="round" stroke-opacity="1.0" stroke-width="0"/>
    <path d="M 346.2080078125 112.50135803222656 C 363.4129943847656 124.15467071533203 365.4532165527344 133.78314208984375 334.63543701171875 140.9098663330078 C 329.8771057128906 105.66444396972656 319.8106994628906 97.50064086914062 320.9001770019531 91.22199249267578 C 331.0265197753906 104.54299926757812 330.27069091796875 94.07024383544922 327.37762451171875 90.6518783569336 C 328.0252380371094 97.1815414428711 335.313232421875 103.6909408569336 346.2080078125 112.50135803222656" fill="rgb(129, 255, 83)" opacity="0.99850094" stroke="rgb(0, 0, 0)" stroke-linecap="round" stroke-linejoin="round" stroke-opacity="1.0" stroke-width="0"/>
    <path d="M 457.65875244140625 500.52960205078125 C 458.40576171875 525.5792846679688 449.7957458496094 529.986083984375 425.57965087890625 512.8551025390625 C 415.8579406738281 503.6906433105469 431.7323913574219 505.3254699707031 419.71356201171875 504.3126220703125 C 423.10357666015625 464.72283935546875 424.9665222167969 447.1112060546875 423.8736877441406 451.72161865234375 C 458.1297302246094 444.78216552734375 450.73663330078125 451.51629638671875 457.65875244140625 500.52960205078125" fill="rgb(96, 241, 65)" opacity="0.2724311" stroke="rgb(0, 0, 0)" stroke-linecap="round" stroke-linejoin="round" stroke-opacity="1.0" stroke-width="0"/>
    <path d="M 194.6822967529297 420.4947814941406 C 156.72494506835938 438.4638366699219 172.76231384277344 455.1059875488281 159.13287353515625 451.21722412109375 C 143.38926696777344 442.6946105957031 135.5 433.38934326171875 132.06394958496094 417.4678955078125 C 127.6788101196289 418.9167785644531 136.97727966308594 421.1807556152344 152.68380737304688 397.282470703125 C 157.69102478027344 392.82958984375 179.251953125 414.4463195800781 194.6822967529297 420.4947814941406" fill="rgb(0, 202, 108)" opacity="1.0" stroke="rgb(0, 0, 0)" stroke-linecap="round" stroke-linejoin="round" stroke-opacity="1.0" stroke-width="0"/>
    <path d="M 194.6470184326172 419.8291320800781 C 168.00439453125 429.9794921875 163.63572692871094 445.6925354003906 164.49412536621094 433.5533752441406 C 177.86643981933594 433.3597106933594 177.38926696777344 417.8893127441406 168.13528442382812 426.242431640625 C 166.7140655517578 411.9247131347656 145.5505828857422 378.2650146484375 176.70135498046875 344.46234130859375 C 204.9288787841797 396.4315490722656 203.2146759033203 411.5024108886719 194.6470184326172 419.8291320800781" fill="rgb(2, 124, 207)" opacity="0.1660853" stroke="rgb(0, 0, 0)" stroke-linecap="round" stroke-linejoin="round" stroke-opacity="1.0" stroke-width="0"/>
    <path d="M 204.4070281982422 247.38250732421875 C 211.1179656982422 249.75985717773438 202.26824951171875 254.9915771484375 192.1462860107422 259.61749267578125 C 183.03500366210938 249.89317321777344 174.12001037597656 254.95217895507812 173.90762329101562 241.2070770263672 C 183.7364501953125 240.27703857421875 194.04725646972656 231.98020935058594 201.8641357421875 221.48133850097656 C 204.1660919189453 220.6919708251953 209.4111785888672 229.9353790283203 204.4070281982422 247.38250732421875" fill="rgb(52, 121, 89)" opacity="0.07301503" stroke="rgb(0, 0, 0)" stroke-linecap="round" stroke-linejoin="round" stroke-opacity="1.0" stroke-width="0"/>
    <path d="M 473.8966979980469 470.6217956542969 C 466.2106018066406 473.8626708984375 453.10308837890625 474.01129150390625 435.2424621582031 457.5946960449219 C 426.4163513183594 467.5108337402344 421.56805419921875 459.7933044433594 430.1103515625 456.1638488769531 C 422.8056945800781 446.4937744140625 431.97540283203125 437.2906188964844 440.3276672363281 436.2203063964844 C 451.0210266113281 439.8124084472656 465.2785949707031 442.8195495605469 473.8966979980469 470.6217956542969" fill="rgb(106, 255, 82)" opacity="0.12339799" stroke="rgb(0, 0, 0)" stroke-linecap="round" stroke-linejoin="round" stroke-opacity="1.0" stroke-width="0"/>
    <path d="M 293.4222717285156 26.41126251220703 C 292.71826171875 37.846343994140625 292.594482421875 42.072975158691406 262.2823791503906 41.448974609375 C 248.17237854003906 52.086666107177734 244.57852172851562 34.28968048095703 249.2464141845703 0.48222553730010986 C 255.1227569580078 -7.949666500091553 265.3587951660156 -9.887114524841309 282.2074890136719 -14.080994606018066 C 299.7014465332031 -20.560911178588867 295.2738037109375 -9.485345840454102 293.4222717285156 26.41126251220703" fill="rgb(59, 241, 62)" opacity="0.31904805" stroke="rgb(0, 0, 0)" stroke-linecap="round" stroke-linejoin="round" stroke-opacity="1.0" stroke-width="0"/>
    <path d="M 96.2911148071289 112.49980163574219 C 97.19033813476562 128.07052612304688 88.21149444580078 133.39996337890625 86.98219299316406 114.74504852294922 C 73.71215057373047 111.21038818359375 57.56158447265625 108.2578353881836 64.95980072021484 113.69466400146484 C 65.92633819580078 111.9593734741211 76.77964782714844 107.25639343261719 85.09910583496094 76.4502944946289 C 90.39280700683594 72.54802703857422 94.41017150878906 85.37383270263672 96.2911148071289 112.49980163574219" fill="rgb(133, 232, 88)" opacity="0.071712606" stroke="rgb(0, 0, 0)" stroke-linecap="round" stroke-linejoin="round" stroke-opacity="1.0" stroke-width="0"/>
    <path d="M 350.2983093261719 405.24346923828125 C 352.017822265625 389.20672607421875 342.5660400390625 393.56182861328125 319.9125671386719 418.82855224609375 C 295.80694580078125 434.338134765625 295.6561279296875 424.8208312988281 309.9344787597656 390.19659423828125 C 301.59576416015625 358.7086486816406 318.1877746582031 351.0898742675781 341.8548583984375 319.7000427246094 C 356.2819519042969 361.8074951171875 356.14599609375 384.5889892578125 350.2983093261719 405.24346923828125" fill="rgb(191, 97, 106)" opacity="0.1659077" stroke="rgb(0, 0, 0)" stroke-linecap="round" stroke-linejoin="round" stroke-opacity="1.0" stroke-width="0"/>
    <path d="M 106.82379150390625 464.1248474121094 C 98.32846069335938 478.2120056152344 96.53690338134766 480.19512939453125 92.61233520507812 471.2320251464844 C 74.75349426269531 461.1390686035156 67.4687271118164 457.18115234375 68.1926498413086 455.6719970703125 C 70.47711181640625 455.3410339355469 88.01204681396484 457.4432067871094 91.35089111328125 447.174560546875 C 96.88505554199219 432.9728698730469 101.22450256347656 433.4938049316406 106.82379150390625 464.1248474121094" fill="rgb(48, 237, 188)" opacity="0.05358955" stroke="rgb(0, 0, 0)" stroke-linecap="round" stroke-linejoin="round" stroke-opacity="1.0" stroke-width="0"/>
    <path d="M 325.0561218261719 165.14833068847656 C 330.9006652832031 190.6015625 319.85015869140625 190.2305450439453 307.50469970703125 188.1783447265625 C 290.10162353515625 187.0546875 283.2965393066406 169.69973754882812 279.064453125 172.14273071289062 C 270.538818359375 161.84535217285156 272.23272705078125 127.82130432128906 299.7768859863281 126.38468933105469 C 317.7473449707031 138.78457641601562 313.8611145019531 160.78759765625 325.0561218261719 165.14833068847656" fill="rgb(255, 239, 250)" opacity="0.9197001" stroke="rgb(0, 0, 0)" stroke-linecap="round" stroke-linejoin="round" stroke-opacity="1.0" stroke-width="0"/>
    <path d="M 423.920654296875 437.71270751953125 C 423.11419677734375 456.2890319824219 416.8417053222656 462.7476501464844 400.5859069824219 458.09124755859375 C 395.9335632324219 461.3088073730469 393.3877258300781 447.96905517578125 399.8939514160156 434.09228515625 C 379.14801025390625 411.627197265625 380.80902099609375 418.13916015625 390.0029602050781 431.763427734375 C 408.7700500488281 430.2657165527344 420.16790771484375 433.53192138671875 423.920654296875 437.71270751953125" fill="rgb(102, 209, 132)" opacity="0.0" stroke="rgb(0, 0, 0)" stroke-linecap="round" stroke-linejoin="round" stroke-opacity="1.0" stroke-width="0"/>
    <path d="M 286.1831359863281 57.84722900390625 C 280.53753662109375 71.3810043334961 277.54144287109375 74.70751953125 239.7506866455078 75.1871337890625 C 231.6623992919922 66.72187805175781 222.22621154785156 62.59022903442383 232.4678192138672 56.899383544921875 C 240.2138671875 55.4354362487793 249.97023010253906 49.98011779785156 253.75302124023438 42.715431213378906 C 263.3791809082031 35.687259674072266 253.66085815429688 43.884796142578125 286.1831359863281 57.84722900390625" fill="rgb(107, 43, 0)" opacity="0.9967469" stroke="rgb(0, 0, 0)" stroke-linecap="round" stroke-linejoin="round" stroke-opacity="1.0" stroke-width="0"/>
    <path d="M 119.2436294555664 329.94677734375 C 127.62019348144531 356.63543701171875 129.48500061035156 357.8235168457031 118.31745910644531 353.5524597167969 C 106.28807830810547 352.45855712890625 94.21188354492188 344.8832092285156 90.02242279052734 334.51849365234375 C 90.8348159790039 327.2821960449219 92.86137390136719 313.37786865234375 102.21572875976562 318.3104248046875 C 128.29823303222656 320.7859802246094 135.4483642578125 329.5799255371094 119.2436294555664 329.94677734375" fill="rgb(8, 180, 196)" opacity="0.0006072635" stroke="rgb(0, 0, 0)" stroke-linecap="round" stroke-linejoin="round" stroke-opacity="1.0" stroke-width="0"/>
    <path d="M 498.4168395996094 210.1304168701172 C 494.2913513183594 207.09873962402344 494.3100280761719 228.17005920410156 480.9774169921875 240.5821075439453 C 483.5520935058594 229.52581787109375 474.57562255859375 223.44972229003906 462.9287414550781 218.33209228515625 C 476.43109130859375 215.51502990722656 480.9256591796875 198.673583984375 490.9653015136719 191.54115295410156 C 497.6307067871094 192.9886016845703 497.35308837890625 206.0026397705078 498.4168395996094 210.1304168701172" fill="rgb(148, 239, 106)" opacity="0.0" stroke="rgb(0, 0, 0)" stroke-linecap="round" stroke-linejoin="round" stroke-opacity="1.0" stroke-width="0"/>
    <path d="M 439.81201171875 260.0108642578125 C 448.0849609375 276.71417236328125 456.95306396484375 289.6957092285156 447.2554626464844 280.007080078125 C 421.20697021484375 276.0552062988281 412.9500427246094 270.59552001953125 416.93817138671875 270.2369079589844 C 424.67303466796875 262.7814636230469 434.2044982910156 253.02923583984375 437.83404541015625 241.6597442626953 C 443.6280517578125 239.9990997314453 446.7691650390625 248.25009155273438 439.81201171875 260.0108642578125" fill="rgb(88, 205, 10)" opacity="0.0069368677" stroke="rgb(0, 0, 0)" stroke-linecap="round" stroke-linejoin="round" stroke-opacity="1.0" stroke-width="0"/>
    <path d="M 487.89007568359375 62.61709213256836 C 496.9263916015625 72.67387390136719 493.5650329589844 80.07728576660156 476.9444885253906 82.45951080322266 C 479.3742980957031 80.07666778564453 474.1834716796875 73.78716278076172 469.14166259765625 64.31939697265625 C 472.6529541015625 62.896976470947266 479.7456970214844 55.88874816894531 491.5111083984375 50.851707458496094 C 488.756591796875 56.83140182495117 498.5379638671875 64.56695556640625 487.89007568359375 62.61709213256836" fill="rgb(120, 159, 12)" opacity="0.0050439155" stroke="rgb(0, 0, 0)" stroke-linecap="round" stroke-linejoin="round" stroke-opacity="1.0" stroke-width="0"/>
    <path d="M 43.18342590332031 190.74180603027344 C 44.816184997558594 208.7951202392578 39.02416229248047 214.28387451171875 18.918027877807617 199.10791015625 C 10.750638961791992 203.90826416015625 16.23305892944336 199.71035766601562 25.240345001220703 191.17857360839844 C 20.393280029296875 187.17831420898438 26.687633514404297 180.44578552246094 28.718881607055664 187.30296325683594 C 20.834325790405273 194.85110473632812 27.453582763671875 199.81289672851562 43.18342590332031 190.74180603027344" fill="rgb(25, 239, 133)" opacity="0.03846497" stroke="rgb(0, 0, 0)" stroke-linecap="round" stroke-linejoin="round" stroke-opacity="1.0" stroke-width="0"/>
    <path d="M 125.6307601928711 334.7789001464844 C 121.4156723022461 343.5304870605469 113.95133209228516 346.8730163574219 101.40147399902344 347.5298156738281 C 96.76976013183594 353.87255859375 88.23934173583984 349.258056640625 81.00471496582031 339.6064147949219 C 90.34597778320312 335.1017150878906 106.98329162597656 332.6252746582031 105.73861694335938 329.6537780761719 C 115.7174301147461 326.2610168457031 126.27593994140625 333.21368408203125 125.6307601928711 334.7789001464844" fill="rgb(4, 145, 156)" opacity="0.0" stroke="rgb(0, 0, 0)" stroke-linecap="round" stroke-linejoin="round" stroke-opacity="1.0" stroke-width="0"/>
    <path d="M 46.647220611572266 90.01990509033203 C 38.247581481933594 95.97623443603516 25.420900344848633 98.20986938476562 8.49520492553711 99.6712875366211 C 19.81855010986328 105.32199096679688 7.229240894317627 97.57931518554688 -2.806859254837036 89.31548309326172 C 8.07345962524414 79.0143051147461 8.492663383483887 63.461631774902344 20.47132110595703 56.87474060058594 C 44.500083923339844 50.463462829589844 44.842437744140625 66.03109741210938 46.647220611572266 90.01990509033203" fill="rgb(31, 220, 192)" opacity="0.010035067" stroke="rgb(0, 0, 0)" stroke-linecap="round" stroke-linejoin="round" stroke-opacity="1.0" stroke-width="0"/>
    <path d="M 157.59532165527344 173.2771453857422 C 147.9625701904297 182.22012329101562 137.02630615234375 183.53086853027344 128.9207763671875 186.9294891357422 C 126.74417114257812 199.50791931152344 113.59945678710938 196.4998016357422 116.5340347290039 182.1439666748047 C 112.80897521972656 173.075439453125 127.6257095336914 167.8221893310547 123.83422088623047 174.15599060058594 C 136.9202117919922 171.61111450195312 148.34576416015625 173.67626953125 157.59532165527344 173.2771453857422" fill="rgb(14, 190, 134)" opacity="0.0" stroke="rgb(0, 0, 0)" stroke-linecap="round" stroke-linejoin="round" stroke-opacity="1.0" stroke-width="0"/>
    <path d="M 35.73937225341797 197.62030029296875 C 35.59299087524414 207.27565002441406 27.46415901184082 217.17652893066406 23.833248138427734 217.96812438964844 C 28.95888900756836 214.4699249267578 26.320852279663086 195.88980102539062 20.54037857055664 191.6535186767578 C 9.580249786376953 197.79074096679688 14.03199291229248 188.14678955078125 34.237491607666016 178.82533264160156 C 43.13636016845703 175.0437774658203 37.761085510253906 189.68914794921875 35.73937225341797 197.62030029296875" fill="rgb(52, 210, 156)" opacity="0.0" stroke="rgb(0, 0, 0)" stroke-linecap="round" stroke-linejoin="round" stroke-opacity="1.0" stroke-width="0"/>
    <path d="M 79.91889190673828 44.265167236328125 C 84.65644073486328 57.28920364379883 74.17610168457031 65.21947479248047 72.0920639038086 60.75879669189453 C 54.96906661987305 68.28248596191406 46.957759857177734 66.1687240600586 43.3491325378418 51.8994140625 C 51.812530517578125 45.947872161865234 58.57161331176758 38.25557327270508 56.795684814453125 37.06018829345703 C 77.50592041015625 34.40776443481445 80.34526824951172 36.552642822265625 79.91889190673828 44.265167236328125" fill="rgb(71, 209, 90)" opacity="0.07786035" stroke="rgb(0, 0, 0)" stroke-linecap="round" stroke-linejoin="round" stroke-opacity="1.0" stroke-width="0"/>
    <path d="M 59.22568893432617 186.02685546875 C 59.58726501464844 206.9691162109375 54.81929016113281 208.81448364257812 45.71354675292969 195.5184326171875 C 25.883214950561523 197.50624084472656 17.407915115356445 199.76959228515625 21.305429458618164 197.95773315429688 C 20.038034439086914 184.3955078125 36.77180480957031 182.26513671875 47.185997009277344 173.82054138183594 C 48.16835403442383 168.08709716796875 50.553794860839844 177.79649353027344 59.22568893432617 186.02685546875" fill="rgb(23, 240, 129)" opacity="0.27316377" stroke="rgb(0, 0, 0)" stroke-linecap="round" stroke-linejoin="round" stroke-opacity="1.0" stroke-width="0"/>
    <path d="M 335.90460205078125 327.482177734375 C 335.6422119140625 357.1734313964844 333.2027587890625 361.6690979003906 312.8794250488281 362.9114074707031 C 285.4113464355469 366.001220703125 280.22528076171875 360.3335266113281 286.1260070800781 344.12493896484375 C 296.03173828125 327.5034484863281 298.632080078125 313.20660400390625 313.47003173828125 297.4078369140625 C 335.3709411621094 302.26495361328125 342.9144592285156 310.3539123535156 335.90460205078125 327.482177734375" fill="rgb(248, 215, 129)" opacity="0.1108958" stroke="rgb(0, 0, 0)" stroke-linecap="round" stroke-linejoin="round" stroke-opacity="1.0" stroke-width="0"/>
    <path d="M 370.85308837890625 433.07958984375 C 371.970458984375 433.7558898925781 367.8683166503906 449.3818664550781 358.2053527832031 437.4308776855469 C 340.78131103515625 447.577392578125 341.1278991699219 443.0215759277344 354.2645263671875 432.4869689941406 C 351.8668518066406 411.5604248046875 349.35601806640625 398.0696716308594 355.8757019042969 406.050048828125 C 356.3619689941406 417.2106628417969 363.8130798339844 426.24444580078125 370.85308837890625 433.07958984375" fill="rgb(39, 215, 33)" opacity="0.03835235" stroke="rgb(0, 0, 0)" stroke-linecap="round" stroke-linejoin="round" stroke-opacity="1.0" stroke-width="0"/>
    <path d="M 344.8069763183594 423.1683044433594 C 347.08367919921875 423.2196960449219 334.13604736328125 426.46734619140625 322.92498779296875 420.81890869140625 C 328.56451416015625 427.69354248046875 320.9979553222656 418.4556579589844 322.0403747558594 415.4418029785156 C 316.3145751953125 407.6921691894531 319.7970275878906 399.3511047363281 338.0622253417969 393.3106994628906 C 353.135009765625 391.9273986816406 348.5556640625 399.91741943359375 344.8069763183594 423.1683044433594" fill="rgb(254, 152, 251)" opacity="0.048120607" stroke="rgb(0, 0, 0)" stroke-linecap="round" stroke-linejoin="round" stroke-opacity="1.0" stroke-width="0"/>
    <path d="M 513.8004760742188 236.57688903808594 C 512.4166259765625 252.32070922851562 509.0537109375 260.9536437988281 502.2041931152344 254.25436401367188 C 488.3961486816406 251.26382446289062 479.900634765625 244.27333068847656 469.481689453125 240.5647430419922 C 473.58203125 225.91734313964844 485.04376220703125 225.84336853027344 495.5472106933594 224.0084686279297 C 507.8254699707031 219.82513427734375 511.4739990234375 225.12120056152344 513.8004760742188 236.57688903808594" fill="rgb(122, 220, 55)" opacity="0.0" stroke="rgb(0, 0, 0)" stroke-linecap="round" stroke-linejoin="round" stroke-opacity="1.0" stroke-width="0"/>
    <path d="M 433.68890380859375 142.74862670898438 C 429.928466796875 146.77191162109375 430.2803649902344 169.27687072753906 429.7877197265625 171.8457794189453 C 416.6031188964844 159.8944854736328 408.50347900390625 152.39166259765625 400.73895263671875 151.65431213378906 C 404.028076171875 138.25668334960938 409.13824462890625 129.96054077148438 422.729248046875 122.74249267578125 C 431.2691345214844 124.41665649414062 438.8500061035156 133.24551391601562 433.68890380859375 142.74862670898438" fill="rgb(143, 208, 94)" opacity="0.011889337" stroke="rgb(0, 0, 0)" stroke-linecap="round" stroke-linejoin="round" stroke-opacity="1.0" stroke-width="0"/>
    <path d="M 434.7083435058594 305.9237365722656 C 437.3008117675781 315.2798156738281 428.6243591308594 320.53277587890625 420.0749816894531 327.5574951171875 C 414.02679443359375 321.73980712890625 410.8797607421875 309.6930236816406 407.5230712890625 299.64227294921875 C 402.2744445800781 292.3057556152344 406.6073303222656 285.61737060546875 424.3846740722656 284.6340026855469 C 431.3020324707031 289.5818176269531 438.2246398925781 294.73944091796875 434.7083435058594 305.9237365722656" fill="rgb(73, 215, 46)" opacity="0.009043483" stroke="rgb(0, 0, 0)" stroke-linecap="round" stroke-linejoin="round" stroke-opacity="1.0" stroke-width="0"/>
    <path d="M 417.7901306152344 87.56307983398438 C 423.0970458984375 84.29960632324219 414.9207458496094 89.63004302978516 413.16064453125 82.36792755126953 C 403.4906311035156 77.09674072265625 390.4257507324219 75.36775207519531 385.8287048339844 72.08734130859375 C 392.405029296875 64.9111328125 397.3977355957031 55.72453308105469 394.8973083496094 54.508567810058594 C 407.3916015625 57.71179962158203 417.2088317871094 67.63420867919922 417.7901306152344 87.56307983398438" fill="rgb(86, 227, 84)" opacity="0.0" stroke="rgb(0, 0, 0)" stroke-linecap="round" stroke-linejoin="round" stroke-opacity="1.0" stroke-width="0"/>
    <path d="M 400.66473388671875 452.4316101074219 C 407.6673583984375 468.8831481933594 401.0223388671875 475.2344665527344 381.9768371582031 470.49798583984375 C 372.2547912597656 460.23602294921875 371.3740539550781 447.87774658203125 365.8066711425781 440.0995788574219 C 362.43084716796875 444.48101806640625 373.7298889160156 440.259521484375 389.50848388671875 435.7554931640625 C 391.4944152832031 427.9464111328125 397.53564453125 437.4324951171875 400.66473388671875 452.4316101074219" fill="rgb(134, 230, 159)" opacity="0.029997936" stroke="rgb(0, 0, 0)" stroke-linecap="round" stroke-linejoin="round" stroke-opacity="1.0" stroke-width="0"/>
    <path d="M 38.31063461303711 79.98835754394531 C 37.84164810180664 87.48352813720703 37.6071662902832 102.45674133300781 27.237873077392578 106.55067443847656 C 15.481048583984375 101.55730438232422 9.995975494384766 94.44317626953125 6.418856620788574 80.6856460571289 C 11.158234596252441 81.30426788330078 27.126394271850586 72.02397155761719 21.92981719970703 69.5206298828125 C 18.861114501953125 80.28828430175781 35.30946350097656 80.6210708618164 38.31063461303711 79.98835754394531" fill="rgb(95, 230, 130)" opacity="0.000199357" stroke="rgb(0, 0, 0)" stroke-linecap="round" stroke-linejoin="round" stroke-opacity="1.0" stroke-width="0"/>
    <path d="M 215.87733459472656 417.35888671875 C 199.23521423339844 428.3189697265625 184.24314880371094 430.8564758300781 178.91595458984375 437.1461181640625 C 176.98890686035156 434.40118408203125 179.32144165039062 417.5757141113281 173.74684143066406 408.4051513671875 C 170.23492431640625 414.052734375 172.11056518554688 402.07232666015625 182.9749298095703 401.7001647949219 C 200.11651611328125 397.4007873535156 210.33950805664062 399.26153564453125 215.87733459472656 417.35888671875" fill="rgb(174, 185, 253)" opacity="0.09078813" stroke="rgb(0, 0, 0)" stroke-linecap="round" stroke-linejoin="round" stroke-opacity="1.0" stroke-width="0"/>
    <path d="M 335.6268615722656 149.59922790527344 C 337.2243347167969 179.44125366210938 334.290771484375 194.119873046875 319.3958435058594 189.2388153076172 C 310.6433410644531 181.77525329589844 300.66961669921875 169.4659423828125 311.8415832519531 167.45211791992188 C 310.1752624511719 159.1359100341797 319.34930419921875 156.57501220703125 334.7015075683594 147.7647705078125 C 340.6802062988281 138.80714416503906 343.2482604980469 140.2482147216797 335.6268615722656 149.59922790527344" fill="rgb(223, 18, 0)" opacity="0.6262601" stroke="rgb(0, 0, 0)" stroke-linecap="round" stroke-linejoin="round" stroke-opacity="1.0" stroke-width="0"/>
  </g>
</svg>
