<?xml version="1.0" ?>
<svg height="512" style="background-color: rgb(237, 255, 199, 0.23030675947666168)" version="1.1" width="512" xmlns="http://www.w3.org/2000/svg">
  <defs/>
  <g>
    <path d="M 249.9609375 339.7558898925781 C 188.609375 494.6265563964844 206.0251007080078 320.5623779296875 117.63143920898438 445.8374328613281 C 68.45954895019531 411.6020812988281 -14.018369674682617 274.3043212890625 71.8883285522461 167.3328857421875 C 70.19285583496094 374.6309814453125 61.67906951904297 304.4989929199219 73.46885681152344 346.8910217285156 C 92.61808776855469 371.79669189453125 74.65413665771484 336.1380920410156 249.9609375 339.7558898925781" fill="rgb(0, 8, 7)" opacity="0.99553144" stroke="rgb(0, 0, 0)" stroke-linecap="round" stroke-linejoin="round" stroke-opacity="1.0" stroke-width="0"/>
    <path d="M 182.76271057128906 224.20999145507812 C 240.49295043945312 281.3638610839844 148.30264282226562 287.8665771484375 171.55783081054688 286.8155212402344 C 148.134521484375 291.996826171875 89.31237030029297 261.9595947265625 98.82035827636719 222.420654296875 C 107.20436096191406 234.8280029296875 10.544173240661621 224.35372924804688 163.0225372314453 213.09490966796875 C 170.91168212890625 287.13848876953125 188.2388916015625 270.0721130371094 182.76271057128906 224.20999145507812" fill="rgb(0, 6, 9)" opacity="1.0" stroke="rgb(0, 0, 0)" stroke-linecap="round" stroke-linejoin="round" stroke-opacity="1.0" stroke-width="0"/>
    <path d="M 412.593017578125 226.34353637695312 C 406.08294677734375 340.1144104003906 226.1522216796875 261.3298034667969 393.1536865234375 247.14346313476562 C 419.420166015625 220.15321350097656 329.21826171875 162.90553283691406 290.3338317871094 374.28167724609375 C 239.681396484375 213.9915313720703 335.97918701171875 209.5705108642578 387.656494140625 218.14398193359375 C 460.47503662109375 232.76063537597656 401.2819519042969 256.570068359375 412.593017578125 226.34353637695312" fill="rgb(0, 10, 21)" opacity="0.9971392" stroke="rgb(0, 0, 0)" stroke-linecap="round" stroke-linejoin="round" stroke-opacity="1.0" stroke-width="0"/>
    <path d="M 200.64138793945312 202.99221801757812 C 155.65476989746094 267.4120788574219 219.8582763671875 230.18438720703125 112.42640686035156 242.01437377929688 C 42.70843505859375 226.35011291503906 128.2869110107422 203.06752014160156 173.07040405273438 215.6913604736328 C 197.42364501953125 221.14039611816406 185.88494873046875 227.8342742919922 200.16583251953125 202.7728729248047 C 155.0208740234375 109.6119384765625 161.31991577148438 102.61101531982422 200.64138793945312 202.99221801757812" fill="rgb(0, 5, 21)" opacity="0.9472193" stroke="rgb(0, 0, 0)" stroke-linecap="round" stroke-linejoin="round" stroke-opacity="1.0" stroke-width="0"/>
    <path d="M 560.301513671875 333.81549072265625 C 556.8412475585938 412.9535827636719 418.5980224609375 387.2421569824219 462.79437255859375 473.3895263671875 C 305.0216064453125 319.05450439453125 361.0837097167969 436.4967956542969 294.738037109375 284.99530029296875 C 433.0694885253906 365.12841796875 306.198486328125 328.5212707519531 394.38372802734375 346.1139221191406 C 465.889892578125 353.8171691894531 403.10650634765625 376.4587097167969 560.301513671875 333.81549072265625" fill="rgb(4, 13, 45)" opacity="0.9882715" stroke="rgb(0, 0, 0)" stroke-linecap="round" stroke-linejoin="round" stroke-opacity="1.0" stroke-width="0"/>
    <path d="M 441.3099670410156 186.98313903808594 C 468.3663330078125 274.9451904296875 482.5835266113281 298.2529602050781 426.8262634277344 392.86090087890625 C 448.1342468261719 279.15130615234375 470.2146301269531 306.60467529296875 426.81536865234375 186.04922485351562 C 457.6398010253906 102.5570297241211 484.271240234375 -9.529330253601074 474.382080078125 70.49400329589844 C 448.81298828125 190.23678588867188 461.8406066894531 123.40009307861328 441.3099670410156 186.98313903808594" fill="rgb(0, 2, 14)" opacity="0.9987714" stroke="rgb(0, 0, 0)" stroke-linecap="round" stroke-linejoin="round" stroke-opacity="1.0" stroke-width="0"/>
    <path d="M 360.36248779296875 293.4549560546875 C 283.66607666015625 321.8369445800781 311.0969543457031 376.7059326171875 316.86627197265625 327.7411804199219 C 284.6355895996094 329.1322326660156 358.9150390625 324.83953857421875 291.0257263183594 321.1595458984375 C 289.74383544921875 302.2216491699219 291.5665588378906 259.318359375 305.0029602050781 256.89947509765625 C 297.5298156738281 249.01910400390625 313.5638427734375 280.67803955078125 360.36248779296875 293.4549560546875" fill="rgb(251, 254, 253)" opacity="1.0" stroke="rgb(0, 0, 0)" stroke-linecap="round" stroke-linejoin="round" stroke-opacity="1.0" stroke-width="0"/>
    <path d="M 380.5096740722656 247.21115112304688 C 402.7680358886719 238.5789031982422 392.57305908203125 239.02206420898438 397.79052734375 223.8082733154297 C 375.1676940917969 217.78897094726562 366.3182373046875 211.36573791503906 332.5091857910156 220.49610900878906 C 327.5385437011719 227.09259033203125 328.0865783691406 209.37713623046875 335.3642578125 225.1979522705078 C 334.6827392578125 250.7981414794922 327.49530029296875 234.8577880859375 380.5096740722656 247.21115112304688" fill="rgb(0, 3, 24)" opacity="1.0" stroke="rgb(0, 0, 0)" stroke-linecap="round" stroke-linejoin="round" stroke-opacity="1.0" stroke-width="0"/>
    <path d="M 68.55989074707031 86.97418212890625 C 108.73926544189453 205.8595428466797 74.1661148071289 111.33287811279297 203.04794311523438 113.00646209716797 C 19.149003982543945 171.9232177734375 93.08666229248047 306.9749755859375 35.14439392089844 73.3702163696289 C 13.960665702819824 -51.20000076293945 34.10161209106445 -51.0211296081543 169.70550537109375 118.27393341064453 C 41.51952362060547 22.405569076538086 51.712867736816406 -12.895646095275879 68.55989074707031 86.97418212890625" fill="rgb(0, 0, 9)" opacity="1.0" stroke="rgb(0, 0, 0)" stroke-linecap="round" stroke-linejoin="round" stroke-opacity="1.0" stroke-width="0"/>
    <path d="M 236.0978546142578 309.3251953125 C 204.41281127929688 316.331298828125 313.7080993652344 288.6946716308594 274.9588317871094 330.96026611328125 C 38.66859436035156 381.21563720703125 166.94503784179688 326.6532287597656 183.16717529296875 260.6978454589844 C 152.7572784423828 191.53172302246094 199.86634826660156 224.72862243652344 212.96286010742188 243.643310546875 C 235.80859375 275.335693359375 230.72889709472656 284.6195373535156 236.0978546142578 309.3251953125" fill="rgb(0, 6, 34)" opacity="1.0" stroke="rgb(0, 0, 0)" stroke-linecap="round" stroke-linejoin="round" stroke-opacity="1.0" stroke-width="0"/>
    <path d="M 389.5582580566406 256.36279296875 C 395.3978576660156 255.40310668945312 376.1434631347656 238.61178588867188 390.77862548828125 253.5075225830078 C 387.0463562011719 269.1924743652344 330.6562194824219 289.2454528808594 310.00408935546875 242.3737335205078 C 365.6098937988281 217.6115264892578 359.81695556640625 258.5894470214844 372.7491149902344 229.3562774658203 C 409.3597717285156 229.07144165039062 397.71820068359375 246.0550079345703 389.5582580566406 256.36279296875" fill="rgb(191, 255, 0)" opacity="1.0" stroke="rgb(0, 0, 0)" stroke-linecap="round" stroke-linejoin="round" stroke-opacity="1.0" stroke-width="0"/>
    <path d="M 494.7901306152344 -10.291875839233398 C 306.3879089355469 64.41130828857422 358.69110107421875 92.58729553222656 245.57989501953125 103.25475311279297 C 137.4646759033203 98.33454895019531 193.19650268554688 62.3542594909668 0.5955605506896973 -24.992643356323242 C 230.91575622558594 27.735836029052734 110.71484375 99.76909637451172 288.2422180175781 83.84813690185547 C 344.31304931640625 66.90242004394531 380.49322509765625 4.072248458862305 494.7901306152344 -10.291875839233398" fill="rgb(0, 0, 22)" opacity="1.0" stroke="rgb(0, 0, 0)" stroke-linecap="round" stroke-linejoin="round" stroke-opacity="1.0" stroke-width="0"/>
    <path d="M 356.79669189453125 369.78045654296875 C 116.82286834716797 442.6632385253906 210.5716552734375 316.1233215332031 129.31057739257812 400.13824462890625 C 117.8614273071289 399.96002197265625 173.08677673339844 365.6500244140625 160.23281860351562 362.7138671875 C 141.20664978027344 340.03546142578125 154.56639099121094 318.3033142089844 211.41404724121094 308.9141540527344 C 295.16729736328125 324.55023193359375 377.906005859375 309.8461608886719 356.79669189453125 369.78045654296875" fill="rgb(254, 255, 255)" opacity="1.0" stroke="rgb(0, 0, 0)" stroke-linecap="round" stroke-linejoin="round" stroke-opacity="1.0" stroke-width="0"/>
    <path d="M 467.1189270019531 68.02586364746094 C 480.16290283203125 44.00749588012695 475.250244140625 41.472999572753906 471.2398681640625 56.594764709472656 C 466.0460205078125 57.713356018066406 484.6889953613281 80.69415283203125 454.1018981933594 96.83748626708984 C 471.1265563964844 -7.22422456741333 454.0119323730469 -46.04066467285156 472.0928649902344 -40.81772994995117 C 472.4888000488281 29.732812881469727 480.84625244140625 57.329219818115234 467.1189270019531 68.02586364746094" fill="rgb(0, 22, 28)" opacity="0.9657853" stroke="rgb(0, 0, 0)" stroke-linecap="round" stroke-linejoin="round" stroke-opacity="1.0" stroke-width="0"/>
    <path d="M 454.53759765625 36.52113723754883 C 313.9576721191406 123.99182891845703 427.2120056152344 126.68492126464844 415.0793151855469 164.17214965820312 C 301.04705810546875 70.4834213256836 325.5155944824219 160.87002563476562 361.2082824707031 50.535282135009766 C 341.57891845703125 93.76790618896484 381.0476379394531 8.078639030456543 345.7447814941406 92.52967834472656 C 346.9418640136719 97.94810485839844 441.5696105957031 -5.837919235229492 454.53759765625 36.52113723754883" fill="rgb(0, 3, 17)" opacity="0.9963062" stroke="rgb(0, 0, 0)" stroke-linecap="round" stroke-linejoin="round" stroke-opacity="1.0" stroke-width="0"/>
    <path d="M 465.3013916015625 414.7103271484375 C 443.484130859375 398.1728820800781 512.5614013671875 518.4107666015625 394.3334655761719 519.441650390625 C 374.1911926269531 370.3609619140625 460.749755859375 450.5318603515625 394.17510986328125 363.0008239746094 C 558.7827758789062 444.20733642578125 351.0833740234375 364.2738037109375 412.6883544921875 346.8446960449219 C 479.7347717285156 388.050537109375 493.9053039550781 400.12335205078125 465.3013916015625 414.7103271484375" fill="rgb(223, 160, 149)" opacity="0.91952956" stroke="rgb(0, 0, 0)" stroke-linecap="round" stroke-linejoin="round" stroke-opacity="1.0" stroke-width="0"/>
    <path d="M 484.0051574707031 35.115482330322266 C 449.6972961425781 7.478566646575928 475.80419921875 36.021026611328125 427.9808349609375 155.96728515625 C 398.707275390625 109.62867736816406 427.1175231933594 176.67608642578125 437.1487121582031 24.610660552978516 C 459.5825500488281 30.624879837036133 449.7461242675781 34.1475944519043 453.2648620605469 76.56501770019531 C 465.92950439453125 30.272653579711914 466.7640686035156 11.976868629455566 484.0051574707031 35.115482330322266" fill="rgb(8, 2, 44)" opacity="0.9526579" stroke="rgb(0, 0, 0)" stroke-linecap="round" stroke-linejoin="round" stroke-opacity="1.0" stroke-width="0"/>
    <path d="M 421.0605163574219 412.78631591796875 C 473.62249755859375 440.9825744628906 413.1668701171875 468.48284912109375 320.5478820800781 468.0658874511719 C 223.6775360107422 473.03167724609375 116.9455795288086 430.8778991699219 157.3831787109375 407.03857421875 C 251.4259033203125 437.9375305175781 258.7675476074219 431.160400390625 233.51968383789062 426.5451354980469 C 236.16294860839844 426.6933898925781 322.5018615722656 442.044189453125 421.0605163574219 412.78631591796875" fill="rgb(47, 59, 65)" opacity="0.35785687" stroke="rgb(0, 0, 0)" stroke-linecap="round" stroke-linejoin="round" stroke-opacity="1.0" stroke-width="0"/>
    <path d="M 210.77378845214844 315.7093811035156 C 268.7041015625 290.40972900390625 304.2951354980469 300.90765380859375 247.2042236328125 310.3953552246094 C 207.64820861816406 316.0747375488281 233.6588897705078 314.01495361328125 208.11886596679688 259.201416015625 C 199.15306091308594 268.97955322265625 196.8479766845703 284.9561462402344 153.13351440429688 285.64019775390625 C 137.5270538330078 354.0362854003906 150.14768981933594 296.96527099609375 210.77378845214844 315.7093811035156" fill="rgb(251, 253, 241)" opacity="1.0" stroke="rgb(0, 0, 0)" stroke-linecap="round" stroke-linejoin="round" stroke-opacity="1.0" stroke-width="0"/>
    <path d="M 538.3600463867188 395.4971008300781 C 478.2784729003906 553.531494140625 428.26934814453125 496.6487731933594 448.35833740234375 420.22503662109375 C 461.09332275390625 406.4294128417969 462.47674560546875 409.6810302734375 457.8227844238281 402.21771240234375 C 497.3395080566406 398.8923645019531 439.75213623046875 402.21539306640625 455.3284606933594 380.0104064941406 C 539.1233520507812 407.7885437011719 477.10626220703125 381.8299865722656 538.3600463867188 395.4971008300781" fill="rgb(207, 155, 146)" opacity="0.7548907" stroke="rgb(0, 0, 0)" stroke-linecap="round" stroke-linejoin="round" stroke-opacity="1.0" stroke-width="0"/>
    <path d="M 297.89373779296875 389.9676208496094 C 273.0489196777344 357.4698181152344 242.1248016357422 363.8341369628906 258.42584228515625 363.0824890136719 C 265.5772399902344 369.4011535644531 240.93402099609375 352.3414306640625 229.61825561523438 396.2519226074219 C 189.69850158691406 422.23809814453125 211.02737426757812 387.6841125488281 290.6869201660156 298.7210388183594 C 283.2811279296875 403.5577392578125 362.50335693359375 400.6302490234375 297.89373779296875 389.9676208496094" fill="rgb(0, 0, 20)" opacity="0.9974028" stroke="rgb(0, 0, 0)" stroke-linecap="round" stroke-linejoin="round" stroke-opacity="1.0" stroke-width="0"/>
    <path d="M 54.38442611694336 15.600774765014648 C 41.796932220458984 12.874706268310547 50.060279846191406 128.44615173339844 104.73365020751953 191.39639282226562 C 84.6012954711914 273.2635803222656 38.492069244384766 25.856380462646484 41.261802673339844 45.58447265625 C 38.782623291015625 -11.361612319946289 23.017560958862305 -29.067781448364258 110.26067352294922 29.345745086669922 C 154.93577575683594 103.45629119873047 69.9748306274414 9.330249786376953 54.38442611694336 15.600774765014648" fill="rgb(194, 63, 0)" opacity="0.97580725" stroke="rgb(0, 0, 0)" stroke-linecap="round" stroke-linejoin="round" stroke-opacity="1.0" stroke-width="0"/>
    <path d="M 209.54141235351562 43.54417419433594 C 165.64356994628906 44.413475036621094 166.96636962890625 34.64002227783203 171.1714630126953 61.387699127197266 C 144.17098999023438 46.69643783569336 135.5843048095703 33.93927001953125 90.45084381103516 2.62615966796875 C 113.71729278564453 -13.524418830871582 105.4323501586914 -20.627559661865234 148.9980926513672 -26.01690101623535 C 195.9988555908203 -10.428088188171387 210.76461791992188 -10.282028198242188 209.54141235351562 43.54417419433594" fill="rgb(255, 251, 249)" opacity="1.0" stroke="rgb(0, 0, 0)" stroke-linecap="round" stroke-linejoin="round" stroke-opacity="1.0" stroke-width="0"/>
    <path d="M 152.23837280273438 306.17791748046875 C 141.99172973632812 354.7129821777344 136.62359619140625 359.6351623535156 101.95499420166016 363.5118408203125 C 63.16279602050781 359.1748962402344 70.56541442871094 357.9790344238281 54.48343276977539 322.7913513183594 C 41.91785430908203 272.40570068359375 51.54540252685547 254.7588348388672 84.1734390258789 243.48614501953125 C 122.98890686035156 272.74853515625 127.87504577636719 280.096923828125 152.23837280273438 306.17791748046875" fill="rgb(191, 73, 6)" opacity="0.99619377" stroke="rgb(0, 0, 0)" stroke-linecap="round" stroke-linejoin="round" stroke-opacity="1.0" stroke-width="0"/>
    <path d="M 99.09806823730469 254.6830291748047 C 97.90876007080078 258.7885437011719 95.56047821044922 260.0497131347656 102.31310272216797 256.9889221191406 C 69.32500457763672 246.47018432617188 60.846431732177734 269.42449951171875 48.7060432434082 285.2796630859375 C 51.89337158203125 202.4798126220703 86.61808013916016 147.13726806640625 86.82344055175781 227.18341064453125 C 102.71111297607422 236.84498596191406 92.3572998046875 217.62094116210938 99.09806823730469 254.6830291748047" fill="rgb(249, 249, 234)" opacity="0.9752299" stroke="rgb(0, 0, 0)" stroke-linecap="round" stroke-linejoin="round" stroke-opacity="1.0" stroke-width="0"/>
    <path d="M 270.31085205078125 101.39179992675781 C 239.6453094482422 152.7391815185547 266.81109619140625 200.2290496826172 221.9727020263672 224.36215209960938 C 174.2646484375 202.00625610351562 165.73052978515625 178.01104736328125 169.50015258789062 127.32666778564453 C 181.6058807373047 76.7885513305664 184.828125 90.94844055175781 209.44802856445312 98.75860595703125 C 255.8557586669922 107.39276885986328 293.30963134765625 95.59928131103516 270.31085205078125 101.39179992675781" fill="rgb(195, 66, 3)" opacity="1.0" stroke="rgb(0, 0, 0)" stroke-linecap="round" stroke-linejoin="round" stroke-opacity="1.0" stroke-width="0"/>
    <path d="M 308.8836975097656 362.933349609375 C 293.75079345703125 352.19171142578125 330.2934875488281 373.603759765625 314.92840576171875 385.2976379394531 C 275.19580078125 345.8522033691406 259.2982177734375 355.0386962890625 261.9173889160156 340.10748291015625 C 287.5428161621094 342.455078125 296.375244140625 284.33880615234375 322.9385986328125 319.2574157714844 C 352.203369140625 342.67132568359375 311.2680358886719 373.99285888671875 308.8836975097656 362.933349609375" fill="rgb(231, 252, 254)" opacity="0.97798705" stroke="rgb(0, 0, 0)" stroke-linecap="round" stroke-linejoin="round" stroke-opacity="1.0" stroke-width="0"/>
    <path d="M 20.01849937438965 444.2122802734375 C 0.37174832820892334 419.02020263671875 134.50209045410156 385.8611145019531 53.97553253173828 370.8594665527344 C -15.388182640075684 425.7156066894531 -1.8311370611190796 388.7179260253906 94.43511199951172 351.79718017578125 C -49.14710235595703 357.7068176269531 -11.08436107635498 360.13134765625 69.47723388671875 353.9205322265625 C 76.310302734375 378.36865234375 86.29605102539062 370.3770446777344 20.01849937438965 444.2122802734375" fill="rgb(0, 0, 0)" opacity="0.9131853" stroke="rgb(0, 0, 0)" stroke-linecap="round" stroke-linejoin="round" stroke-opacity="1.0" stroke-width="0"/>
    <path d="M 332.9744873046875 402.5622863769531 C 327.9695129394531 391.59979248046875 327.4595642089844 412.4756164550781 320.8309631347656 396.06341552734375 C 315.5704650878906 399.9364929199219 310.1789855957031 405.07781982421875 337.5166015625 392.76904296875 C 319.9150695800781 405.1788635253906 273.2611999511719 391.0708923339844 317.0044250488281 386.2206726074219 C 363.7669372558594 373.4173278808594 351.28350830078125 378.33111572265625 332.9744873046875 402.5622863769531" fill="rgb(3, 0, 58)" opacity="0.970014" stroke="rgb(0, 0, 0)" stroke-linecap="round" stroke-linejoin="round" stroke-opacity="1.0" stroke-width="0"/>
    <path d="M 401.12896728515625 73.33479309082031 C 420.6133728027344 75.41228485107422 451.1468200683594 58.71638870239258 425.3491516113281 131.97592163085938 C 416.1276550292969 170.97048950195312 394.9518127441406 120.09700775146484 351.07958984375 108.71261596679688 C 373.1623840332031 85.16552734375 390.3815002441406 68.08695983886719 407.2355651855469 56.66083908081055 C 393.85308837890625 93.88249969482422 415.8094482421875 69.37298583984375 401.12896728515625 73.33479309082031" fill="rgb(205, 10, 255)" opacity="0.9356074" stroke="rgb(0, 0, 0)" stroke-linecap="round" stroke-linejoin="round" stroke-opacity="1.0" stroke-width="0"/>
    <path d="M 187.38272094726562 95.77954864501953 C 187.4485626220703 93.71141052246094 183.57469177246094 111.29864501953125 181.97682189941406 132.461669921875 C 169.95806884765625 115.4368896484375 165.17662048339844 105.41954803466797 132.00875854492188 72.91167449951172 C 99.7462387084961 28.979900360107422 139.24049377441406 58.03684616088867 167.65756225585938 76.88138580322266 C 179.1610107421875 84.81031799316406 197.4971466064453 92.21031951904297 187.38272094726562 95.77954864501953" fill="rgb(187, 76, 10)" opacity="0.9945652" stroke="rgb(0, 0, 0)" stroke-linecap="round" stroke-linejoin="round" stroke-opacity="1.0" stroke-width="0"/>
    <path d="M 531.8523559570312 440.48583984375 C 531.2156982421875 467.00396728515625 531.2875366210938 471.57672119140625 518.6963500976562 463.9430236816406 C 506.97540283203125 457.8392028808594 495.1597900390625 446.1651306152344 495.8431701660156 433.2184753417969 C 479.6056213378906 440.6628112792969 491.1128845214844 425.71258544921875 523.0885009765625 423.6993103027344 C 524.2904663085938 425.6336975097656 529.3707275390625 430.8746337890625 531.8523559570312 440.48583984375" fill="rgb(214, 137, 121)" opacity="0.51131016" stroke="rgb(0, 0, 0)" stroke-linecap="round" stroke-linejoin="round" stroke-opacity="1.0" stroke-width="0"/>
    <path d="M 365.9263000488281 214.87110900878906 C 372.59002685546875 240.85592651367188 363.14886474609375 283.3737487792969 347.56231689453125 272.3545837402344 C 337.95196533203125 228.64569091796875 325.6298522949219 248.922607421875 320.6023254394531 242.08071899414062 C 340.8488464355469 246.83477783203125 338.9512634277344 250.8534698486328 334.73553466796875 229.64816284179688 C 374.0809631347656 221.8037872314453 342.9231872558594 222.63331604003906 365.9263000488281 214.87110900878906" fill="rgb(0, 1, 28)" opacity="0.99895775" stroke="rgb(0, 0, 0)" stroke-linecap="round" stroke-linejoin="round" stroke-opacity="1.0" stroke-width="0"/>
    <path d="M 477.76751708984375 416.9615478515625 C 474.1349182128906 418.4194641113281 460.4718017578125 429.7685852050781 441.74072265625 460.55126953125 C 429.65911865234375 438.0693359375 424.63116455078125 431.2569580078125 410.8790283203125 398.0222473144531 C 402.4872131347656 364.8476867675781 418.8028564453125 351.0771789550781 448.88665771484375 359.6707763671875 C 475.67041015625 382.9980773925781 489.2096252441406 390.29473876953125 477.76751708984375 416.9615478515625" fill="rgb(233, 214, 183)" opacity="0.60563326" stroke="rgb(0, 0, 0)" stroke-linecap="round" stroke-linejoin="round" stroke-opacity="1.0" stroke-width="0"/>
    <path d="M 184.06741333007812 409.8673400878906 C 183.5220184326172 425.25518798828125 181.4928436279297 426.9765930175781 173.25430297851562 423.6659240722656 C 151.88072204589844 428.6878356933594 150.10592651367188 430.5491638183594 136.88096618652344 421.32464599609375 C 151.6434326171875 398.224609375 159.4090118408203 388.3133239746094 173.38873291015625 394.3766174316406 C 165.34304809570312 403.3321533203125 174.62689208984375 403.06329345703125 184.06741333007812 409.8673400878906" fill="rgb(235, 241, 223)" opacity="0.9975664" stroke="rgb(0, 0, 0)" stroke-linecap="round" stroke-linejoin="round" stroke-opacity="1.0" stroke-width="0"/>
    <path d="M 413.3283386230469 387.42852783203125 C 407.54425048828125 403.8475646972656 417.7032165527344 411.3269958496094 432.2561950683594 422.6375732421875 C 404.2609558105469 407.4124450683594 406.8722229003906 379.2546081542969 394.55657958984375 363.210693359375 C 385.4281921386719 329.8116455078125 364.92529296875 312.1737365722656 402.0567626953125 337.2774963378906 C 435.92047119140625 358.3587341308594 424.4516296386719 344.50311279296875 413.3283386230469 387.42852783203125" fill="rgb(220, 139, 140)" opacity="1.0" stroke="rgb(0, 0, 0)" stroke-linecap="round" stroke-linejoin="round" stroke-opacity="1.0" stroke-width="0"/>
    <path d="M 143.21337890625 97.92484283447266 C 186.4976806640625 122.3768081665039 168.40725708007812 112.93351745605469 134.94390869140625 124.4638671875 C 125.52979278564453 107.91188049316406 118.71529388427734 81.60860443115234 68.48816680908203 82.37779235839844 C 49.13912582397461 32.67813491821289 78.68073272705078 31.018354415893555 98.87703704833984 61.14973068237305 C 117.50852966308594 74.99274444580078 124.9803695678711 84.51806640625 143.21337890625 97.92484283447266" fill="rgb(171, 0, 205)" opacity="0.92113084" stroke="rgb(0, 0, 0)" stroke-linecap="round" stroke-linejoin="round" stroke-opacity="1.0" stroke-width="0"/>
    <path d="M 357.3089904785156 391.2640686035156 C 346.46380615234375 393.5713195800781 338.7005615234375 399.6947326660156 329.7299499511719 398.08013916015625 C 317.0782775878906 393.6619873046875 336.06951904296875 381.4281311035156 347.51177978515625 372.3236083984375 C 313.12200927734375 341.4655456542969 293.4237060546875 346.75274658203125 324.8652648925781 366.9577941894531 C 344.9310302734375 380.9284362792969 373.6898193359375 374.9890441894531 357.3089904785156 391.2640686035156" fill="rgb(6, 15, 28)" opacity="0.9680753" stroke="rgb(0, 0, 0)" stroke-linecap="round" stroke-linejoin="round" stroke-opacity="1.0" stroke-width="0"/>
    <path d="M 121.93341827392578 350.92828369140625 C 117.96826934814453 363.08734130859375 104.14849090576172 373.7704772949219 82.8704605102539 384.72088623046875 C 78.39253234863281 387.18328857421875 75.42704772949219 371.7509765625 66.07640075683594 355.2698059082031 C 57.3673095703125 340.1037292480469 71.0248794555664 349.2721862792969 103.48619079589844 353.2286682128906 C 98.5422592163086 355.473388671875 107.1875228881836 363.73516845703125 121.93341827392578 350.92828369140625" fill="rgb(136, 30, 15)" opacity="0.9177055" stroke="rgb(0, 0, 0)" stroke-linecap="round" stroke-linejoin="round" stroke-opacity="1.0" stroke-width="0"/>
    <path d="M 291.3077392578125 102.53682708740234 C 287.27490234375 170.9911651611328 287.9929504394531 197.72926330566406 265.2516174316406 179.35597229003906 C 247.64895629882812 149.57566833496094 256.9895324707031 123.49392700195312 249.90396118164062 121.00816345214844 C 251.91714477539062 124.7856216430664 250.27224731445312 117.59429931640625 257.2589416503906 95.93282318115234 C 263.561767578125 78.96073913574219 308.0802001953125 71.76627349853516 291.3077392578125 102.53682708740234" fill="rgb(0, 7, 15)" opacity="1.0" stroke="rgb(0, 0, 0)" stroke-linecap="round" stroke-linejoin="round" stroke-opacity="1.0" stroke-width="0"/>
    <path d="M 439.9844055175781 82.32820129394531 C 434.9459228515625 106.05792236328125 428.6780700683594 121.75247955322266 430.00726318359375 106.19166564941406 C 429.5408020019531 68.46537017822266 417.80816650390625 71.40731811523438 398.23052978515625 75.7546615600586 C 398.52203369140625 63.933937072753906 406.6510314941406 51.23180389404297 439.8397216796875 36.196044921875 C 444.7485656738281 32.630191802978516 442.2763366699219 64.85945892333984 439.9844055175781 82.32820129394531" fill="rgb(218, 10, 249)" opacity="0.9643612" stroke="rgb(0, 0, 0)" stroke-linecap="round" stroke-linejoin="round" stroke-opacity="1.0" stroke-width="0"/>
    <path d="M 129.653564453125 129.0974578857422 C 112.76882934570312 136.48284912109375 95.809326171875 158.48587036132812 92.8642807006836 154.58705139160156 C 87.31503295898438 140.19903564453125 86.55142974853516 140.53271484375 82.59333038330078 128.65296936035156 C 73.11549377441406 108.23930358886719 61.29671859741211 77.68701171875 77.60585021972656 71.81230926513672 C 141.9710235595703 101.8827133178711 151.23495483398438 122.19329833984375 129.653564453125 129.0974578857422" fill="rgb(205, 16, 217)" opacity="0.9833349" stroke="rgb(0, 0, 0)" stroke-linecap="round" stroke-linejoin="round" stroke-opacity="1.0" stroke-width="0"/>
    <path d="M 528.7518920898438 483.05419921875 C 520.4595336914062 517.4486083984375 511.7738037109375 524.1069946289062 482.5321960449219 535.091552734375 C 452.87347412109375 524.4234008789062 438.5378723144531 513.433349609375 454.1525573730469 495.6330871582031 C 466.3042907714844 482.3894348144531 477.9521179199219 474.6556091308594 499.2857360839844 451.63397216796875 C 532.2489013671875 449.92376708984375 537.072509765625 456.85186767578125 528.7518920898438 483.05419921875" fill="rgb(246, 138, 12)" opacity="0.56437075" stroke="rgb(0, 0, 0)" stroke-linecap="round" stroke-linejoin="round" stroke-opacity="1.0" stroke-width="0"/>
    <path d="M 268.3573913574219 310.9754943847656 C 267.8280029296875 303.08575439453125 273.43218994140625 324.6476135253906 254.0377960205078 343.6323547363281 C 225.9419403076172 331.67767333984375 214.3545379638672 311.2601318359375 222.74537658691406 306.2100524902344 C 265.2229919433594 311.66729736328125 277.4965515136719 309.7045593261719 273.8587341308594 310.56939697265625 C 253.1197509765625 306.3105773925781 246.44369506835938 323.64935302734375 268.3573913574219 310.9754943847656" fill="rgb(21, 0, 37)" opacity="0.9482118" stroke="rgb(0, 0, 0)" stroke-linecap="round" stroke-linejoin="round" stroke-opacity="1.0" stroke-width="0"/>
    <path d="M 432.5075988769531 138.97906494140625 C 431.9752197265625 141.45236206054688 428.308349609375 160.9490509033203 418.1510009765625 172.78121948242188 C 403.7518310546875 172.43441772460938 405.8408508300781 148.53611755371094 403.36468505859375 144.43080139160156 C 408.80059814453125 157.5203399658203 417.62420654296875 152.362060546875 425.80633544921875 136.294677734375 C 434.7575988769531 128.96994018554688 434.1039733886719 132.5216522216797 432.5075988769531 138.97906494140625" fill="rgb(26, 0, 36)" opacity="0.97976935" stroke="rgb(0, 0, 0)" stroke-linecap="round" stroke-linejoin="round" stroke-opacity="1.0" stroke-width="0"/>
    <path d="M 468.5762939453125 492.60247802734375 C 474.2354736328125 515.904052734375 472.2159423828125 523.7372436523438 439.0733337402344 525.91796875 C 428.47418212890625 512.8060913085938 433.9562683105469 493.9637756347656 430.0380859375 482.76666259765625 C 433.9731750488281 474.5499572753906 430.4209289550781 467.8908386230469 439.10577392578125 459.7337951660156 C 449.03302001953125 460.0823059082031 449.2624206542969 481.4000549316406 468.5762939453125 492.60247802734375" fill="rgb(146, 34, 35)" opacity="0.9345864" stroke="rgb(0, 0, 0)" stroke-linecap="round" stroke-linejoin="round" stroke-opacity="1.0" stroke-width="0"/>
    <path d="M 467.3892822265625 -7.734206199645996 C 469.9255065917969 10.335870742797852 468.084228515625 21.227554321289062 463.438232421875 9.80562686920166 C 466.1883544921875 5.7285685539245605 440.33465576171875 10.064173698425293 431.1351623535156 12.162108421325684 C 446.94427490234375 -7.763791561126709 460.748779296875 -9.383352279663086 465.31658935546875 -17.38144302368164 C 474.8860168457031 -14.387734413146973 486.1815185546875 -6.34412956237793 467.3892822265625 -7.734206199645996" fill="rgb(0, 14, 33)" opacity="0.65670615" stroke="rgb(0, 0, 0)" stroke-linecap="round" stroke-linejoin="round" stroke-opacity="1.0" stroke-width="0"/>
    <path d="M 185.25588989257812 245.84646606445312 C 190.8111572265625 258.1761779785156 183.73793029785156 267.7994384765625 173.23895263671875 270.4427795410156 C 148.26495361328125 272.2021789550781 153.76438903808594 267.4997253417969 168.1444549560547 243.19479370117188 C 167.88201904296875 239.14016723632812 165.70437622070312 235.7172088623047 178.52120971679688 238.05923461914062 C 182.81101989746094 239.6154327392578 182.95941162109375 238.40806579589844 185.25588989257812 245.84646606445312" fill="rgb(190, 255, 0)" opacity="1.0" stroke="rgb(0, 0, 0)" stroke-linecap="round" stroke-linejoin="round" stroke-opacity="1.0" stroke-width="0"/>
    <path d="M 193.75608825683594 401.5440368652344 C 183.84152221679688 422.7501525878906 179.6386260986328 441.2970886230469 183.7848358154297 453.9051513671875 C 159.75637817382812 457.69000244140625 142.31336975097656 456.0346374511719 137.62623596191406 433.0267333984375 C 140.9415740966797 398.3692932128906 154.0269317626953 400.9857482910156 163.6649627685547 408.7886962890625 C 179.79783630371094 400.0425720214844 191.52578735351562 394.4521789550781 193.75608825683594 401.5440368652344" fill="rgb(240, 255, 171)" opacity="0.14376944" stroke="rgb(0, 0, 0)" stroke-linecap="round" stroke-linejoin="round" stroke-opacity="1.0" stroke-width="0"/>
    <path d="M 196.8730926513672 245.7865447998047 C 202.73902893066406 239.93380737304688 196.06118774414062 252.31593322753906 186.50430297851562 263.3827209472656 C 169.25360107421875 266.21575927734375 161.49124145507812 252.20394897460938 172.23806762695312 230.86199951171875 C 187.794677734375 233.7342529296875 187.1501922607422 241.23020935058594 189.14892578125 239.7684783935547 C 191.80801391601562 239.99203491210938 189.0270538330078 235.25990295410156 196.8730926513672 245.7865447998047" fill="rgb(177, 255, 0)" opacity="1.0" stroke="rgb(0, 0, 0)" stroke-linecap="round" stroke-linejoin="round" stroke-opacity="1.0" stroke-width="0"/>
    <path d="M 196.9257049560547 343.1501159667969 C 197.7412567138672 352.3014831542969 177.71372985839844 354.50946044921875 170.40802001953125 371.0499572753906 C 156.85507202148438 373.18243408203125 159.75721740722656 364.8256530761719 170.3487091064453 358.0892333984375 C 174.78610229492188 347.1239013671875 191.70701599121094 348.1289367675781 177.6459503173828 338.4199523925781 C 155.98924255371094 341.85784912109375 168.81918334960938 336.9214782714844 196.9257049560547 343.1501159667969" fill="rgb(0, 0, 64)" opacity="0.9975658" stroke="rgb(0, 0, 0)" stroke-linecap="round" stroke-linejoin="round" stroke-opacity="1.0" stroke-width="0"/>
    <path d="M 69.3117446899414 434.2490539550781 C 73.86172485351562 450.3087463378906 61.15287399291992 456.6245422363281 63.71302032470703 460.5434265136719 C 71.00813293457031 451.425537109375 63.88799285888672 444.770751953125 68.25230407714844 440.45941162109375 C 49.16884231567383 441.8857421875 58.47301483154297 435.65020751953125 67.25176239013672 428.6383972167969 C 79.15274810791016 426.9252624511719 81.7696762084961 428.7723693847656 69.3117446899414 434.2490539550781" fill="rgb(255, 174, 255)" opacity="0.0" stroke="rgb(0, 0, 0)" stroke-linecap="round" stroke-linejoin="round" stroke-opacity="1.0" stroke-width="0"/>
    <path d="M 467.6412658691406 444.7725830078125 C 463.1932373046875 475.3440246582031 464.0274963378906 489.8328552246094 452.2598876953125 476.8614196777344 C 446.6990661621094 460.6217346191406 435.1005554199219 453.78070068359375 428.5638732910156 454.922119140625 C 433.56744384765625 450.3037414550781 447.1100158691406 442.301513671875 459.69976806640625 444.9369812011719 C 454.8542785644531 437.47698974609375 473.7696533203125 453.4112854003906 467.6412658691406 444.7725830078125" fill="rgb(234, 195, 113)" opacity="0.15587443" stroke="rgb(0, 0, 0)" stroke-linecap="round" stroke-linejoin="round" stroke-opacity="1.0" stroke-width="0"/>
    <path d="M 444.4846496582031 383.8349304199219 C 474.68255615234375 375.634033203125 463.9359130859375 391.21441650390625 445.02392578125 381.0035400390625 C 423.732177734375 383.4642333984375 416.1585998535156 377.46856689453125 408.4015808105469 362.9490661621094 C 422.8919982910156 353.9273986816406 427.5755920410156 346.9605407714844 438.259033203125 340.1955871582031 C 435.7148742675781 336.9458312988281 433.2842102050781 365.2870788574219 444.4846496582031 383.8349304199219" fill="rgb(102, 128, 147)" opacity="0.06978953" stroke="rgb(0, 0, 0)" stroke-linecap="round" stroke-linejoin="round" stroke-opacity="1.0" stroke-width="0"/>
    <path d="M 38.60799789428711 115.49341583251953 C 48.5303955078125 128.8888397216797 40.15966796875 142.79124450683594 29.609926223754883 151.07647705078125 C 21.482271194458008 132.18942260742188 19.50572967529297 117.62164306640625 7.934571743011475 110.12710571289062 C 5.385807514190674 99.80550384521484 9.407312393188477 84.64398956298828 28.522972106933594 84.63975524902344 C 40.12894058227539 89.99967956542969 34.99081802368164 104.41886901855469 38.60799789428711 115.49341583251953" fill="rgb(255, 244, 162)" opacity="0.0" stroke="rgb(0, 0, 0)" stroke-linecap="round" stroke-linejoin="round" stroke-opacity="1.0" stroke-width="0"/>
    <path d="M 65.05201721191406 476.50299072265625 C 62.38908767700195 497.72216796875 61.70049285888672 497.81719970703125 28.191131591796875 496.54229736328125 C 28.368873596191406 489.4131164550781 16.306671142578125 480.07122802734375 12.40270709991455 467.76788330078125 C 6.73599100112915 453.7854919433594 10.037863731384277 448.0469665527344 25.958873748779297 446.6618347167969 C 42.76546859741211 445.1976318359375 58.06529998779297 457.3514404296875 65.05201721191406 476.50299072265625" fill="rgb(180, 255, 254)" opacity="0.003513133" stroke="rgb(0, 0, 0)" stroke-linecap="round" stroke-linejoin="round" stroke-opacity="1.0" stroke-width="0"/>
    <path d="M 130.6987762451172 227.68296813964844 C 129.44158935546875 232.68817138671875 130.92233276367188 232.7769012451172 143.81411743164062 263.47576904296875 C 133.22738647460938 261.854736328125 116.36024475097656 251.70999145507812 110.37736511230469 225.87144470214844 C 141.95474243164062 226.0208282470703 123.43351745605469 233.63478088378906 124.67798614501953 230.15631103515625 C 142.49215698242188 230.2337646484375 135.20143127441406 228.65025329589844 130.6987762451172 227.68296813964844" fill="rgb(12, 245, 201)" opacity="0.9921431" stroke="rgb(0, 0, 0)" stroke-linecap="round" stroke-linejoin="round" stroke-opacity="1.0" stroke-width="0"/>
    <path d="M 320.52935791015625 25.829051971435547 C 319.33880615234375 46.68986511230469 304.8958435058594 59.22696304321289 275.8792419433594 54.74855422973633 C 252.0332794189453 45.76427459716797 253.96424865722656 28.923194885253906 247.45274353027344 13.667428970336914 C 248.98707580566406 -0.37654122710227966 259.051513671875 -6.969455242156982 267.21685791015625 -10.219198226928711 C 282.1897888183594 -3.9141783714294434 289.06048583984375 4.082470893859863 320.52935791015625 25.829051971435547" fill="rgb(168, 195, 181)" opacity="0.0" stroke="rgb(0, 0, 0)" stroke-linecap="round" stroke-linejoin="round" stroke-opacity="1.0" stroke-width="0"/>
    <path d="M 135.0561065673828 151.30201721191406 C 134.48841857910156 165.69761657714844 130.8255615234375 177.67398071289062 118.97270202636719 182.25584411621094 C 108.61857604980469 178.66458129882812 110.69701385498047 158.68569946289062 101.46636962890625 162.6751708984375 C 110.60923767089844 157.89361572265625 115.34837341308594 146.66873168945312 123.61064147949219 147.5668487548828 C 127.09075927734375 144.28485107421875 136.16250610351562 149.00006103515625 135.0561065673828 151.30201721191406" fill="rgb(225, 243, 128)" opacity="0.0032418077" stroke="rgb(0, 0, 0)" stroke-linecap="round" stroke-linejoin="round" stroke-opacity="1.0" stroke-width="0"/>
    <path d="M 491.8901672363281 236.35275268554688 C 461.33819580078125 239.7259063720703 446.12469482421875 241.33316040039062 438.71282958984375 246.85093688964844 C 436.4801025390625 251.04629516601562 430.9453430175781 248.68405151367188 432.3291931152344 241.81809997558594 C 439.8221435546875 235.79554748535156 454.8690490722656 242.60618591308594 470.6690979003906 235.71197509765625 C 466.99493408203125 231.8375701904297 486.8075256347656 226.7113800048828 491.8901672363281 236.35275268554688" fill="rgb(0, 0, 56)" opacity="0.97391725" stroke="rgb(0, 0, 0)" stroke-linecap="round" stroke-linejoin="round" stroke-opacity="1.0" stroke-width="0"/>
    <path d="M 369.8979187011719 374.11822509765625 C 363.28338623046875 393.4501647949219 356.06707763671875 394.7179870605469 346.18023681640625 399.0919189453125 C 326.85052490234375 404.5315856933594 318.0836181640625 402.9904479980469 322.010009765625 391.4045104980469 C 331.0632019042969 381.0063781738281 345.65802001953125 379.5805358886719 354.0214538574219 364.7825927734375 C 345.54705810546875 372.1873474121094 368.866943359375 371.0993957519531 369.8979187011719 374.11822509765625" fill="rgb(1, 41, 144)" opacity="0.020360997" stroke="rgb(0, 0, 0)" stroke-linecap="round" stroke-linejoin="round" stroke-opacity="1.0" stroke-width="0"/>
    <path d="M 389.30914306640625 193.7705841064453 C 371.0669860839844 203.06898498535156 355.91534423828125 203.98162841796875 350.9111633300781 212.23193359375 C 357.8304443359375 208.79666137695312 347.05413818359375 202.58804321289062 346.3811950683594 202.43170166015625 C 347.8694152832031 194.643798828125 350.862060546875 182.00628662109375 364.8709411621094 177.47178649902344 C 374.3343505859375 177.68067932128906 384.3404541015625 184.01048278808594 389.30914306640625 193.7705841064453" fill="rgb(241, 243, 198)" opacity="0.0" stroke="rgb(0, 0, 0)" stroke-linecap="round" stroke-linejoin="round" stroke-opacity="1.0" stroke-width="0"/>
    <path d="M 107.65495300292969 456.8860778808594 C 120.05509185791016 466.4127502441406 109.750244140625 471.81195068359375 91.5981216430664 478.4007263183594 C 75.62013244628906 467.7886047363281 77.22392272949219 450.4247741699219 74.8348159790039 442.67010498046875 C 76.19854736328125 440.95135498046875 86.79314422607422 433.91802978515625 82.55450439453125 425.8056945800781 C 97.81019592285156 424.4169006347656 103.24415588378906 431.8233947753906 107.65495300292969 456.8860778808594" fill="rgb(232, 215, 183)" opacity="0.0020793045" stroke="rgb(0, 0, 0)" stroke-linecap="round" stroke-linejoin="round" stroke-opacity="1.0" stroke-width="0"/>
    <path d="M 97.96112823486328 457.02117919921875 C 94.08091735839844 467.7474670410156 85.46342468261719 476.7079772949219 73.02167510986328 486.4845886230469 C 64.96050262451172 469.8236999511719 54.25438690185547 463.7023620605469 47.23893356323242 449.16650390625 C 49.931556701660156 441.70172119140625 61.48940658569336 436.4736328125 69.75821685791016 433.77484130859375 C 85.61378479003906 434.9355163574219 94.45499420166016 440.4302978515625 97.96112823486328 457.02117919921875" fill="rgb(203, 216, 83)" opacity="0.0" stroke="rgb(0, 0, 0)" stroke-linecap="round" stroke-linejoin="round" stroke-opacity="1.0" stroke-width="0"/>
  </g>
</svg>
