<?xml version="1.0" ?>
<svg height="512" style="background-color: rgb(194, 162, 124, 0.17739243805408478)" version="1.1" width="512" xmlns="http://www.w3.org/2000/svg">
  <defs/>
  <g>
    <path d="M 533.9629516601562 464.9396667480469 C 548.88232421875 518.2211303710938 549.809814453125 525.8021850585938 382.565673828125 528.1145629882812 C 330.4543762207031 546.0465087890625 311.03369140625 540.9078979492188 250.29466247558594 458.8367919921875 C 293.1588134765625 327.8619689941406 386.2494201660156 347.7928466796875 502.09185791015625 338.6900329589844 C 560.3375854492188 335.1351623535156 561.4381713867188 351.4913024902344 533.9629516601562 464.9396667480469" fill="rgb(10, 0, 99)" opacity="0.9909605" stroke="rgb(0, 0, 0)" stroke-linecap="round" stroke-linejoin="round" stroke-opacity="1.0" stroke-width="0"/>
    <path d="M 298.662353515625 482.4993591308594 C 339.0589294433594 518.2890014648438 350.2386474609375 520.0966796875 214.13851928710938 521.3694458007812 C -51.100406646728516 521.1051635742188 -51.19970703125 512.4564819335938 -39.919857025146484 468.669189453125 C -26.24919891357422 196.22549438476562 -20.408733367919922 190.03619384765625 25.404985427856445 187.84803771972656 C 149.64695739746094 302.3186950683594 173.42320251464844 307.0548095703125 298.662353515625 482.4993591308594" fill="rgb(9, 9, 250)" opacity="1.0" stroke="rgb(0, 0, 0)" stroke-linecap="round" stroke-linejoin="round" stroke-opacity="1.0" stroke-width="0"/>
    <path d="M 312.0611877441406 350.808349609375 C 301.94512939453125 418.1078796386719 276.3985595703125 405.3948059082031 218.8589324951172 409.60693359375 C 65.72450256347656 349.7837219238281 86.2757568359375 304.786865234375 42.48845672607422 159.95550537109375 C 26.185527801513672 179.81483459472656 34.1328125 172.39523315429688 110.53125 179.05850219726562 C 271.7135925292969 175.98342895507812 296.2375793457031 138.0803680419922 312.0611877441406 350.808349609375" fill="rgb(216, 250, 0)" opacity="1.0" stroke="rgb(0, 0, 0)" stroke-linecap="round" stroke-linejoin="round" stroke-opacity="1.0" stroke-width="0"/>
    <path d="M 254.32720947265625 12.06861400604248 C 261.39874267578125 231.97637939453125 241.24745178222656 178.93202209472656 37.35536575317383 251.8737335205078 C -39.22527313232422 222.3663787841797 -29.361679077148438 199.47032165527344 -16.618663787841797 155.07821655273438 C -16.494123458862305 -18.97837257385254 -10.838438034057617 -25.126850128173828 22.88054847717285 -17.832983016967773 C 191.43170166015625 -20.271787643432617 214.2642059326172 -29.798933029174805 254.32720947265625 12.06861400604248" fill="rgb(10, 11, 255)" opacity="0.973" stroke="rgb(0, 0, 0)" stroke-linecap="round" stroke-linejoin="round" stroke-opacity="1.0" stroke-width="0"/>
    <path d="M 551.7409057617188 45.73933792114258 C 437.0379638671875 277.04827880859375 434.3710632324219 289.62677001953125 368.4764404296875 321.2153625488281 C 275.21856689453125 330.4365234375 294.732666015625 310.1051330566406 243.05282592773438 184.40591430664062 C 262.72967529296875 10.570219039916992 197.2980499267578 -19.871356964111328 352.5802917480469 -18.17475128173828 C 563.2000122070312 -5.52442741394043 563.2000122070312 4.830130577087402 551.7409057617188 45.73933792114258" fill="rgb(3, 3, 251)" opacity="0.98633194" stroke="rgb(0, 0, 0)" stroke-linecap="round" stroke-linejoin="round" stroke-opacity="1.0" stroke-width="0"/>
    <path d="M 338.10736083984375 59.25343322753906 C 283.9295654296875 283.5415344238281 239.100830078125 278.57574462890625 185.6128387451172 237.4034881591797 C 65.66950988769531 259.6788635253906 51.502174377441406 264.3192443847656 76.96256256103516 223.6307373046875 C 94.7275390625 137.53787231445312 104.59368896484375 118.86650085449219 296.7159729003906 15.01236629486084 C 309.85003662109375 -27.65526008605957 301.1024169921875 -20.336645126342773 338.10736083984375 59.25343322753906" fill="rgb(184, 161, 0)" opacity="0.9944514" stroke="rgb(0, 0, 0)" stroke-linecap="round" stroke-linejoin="round" stroke-opacity="1.0" stroke-width="0"/>
    <path d="M 457.0398864746094 323.4286193847656 C 445.1986389160156 390.0107421875 462.12646484375 462.5310363769531 323.08807373046875 453.3727111816406 C 286.6017761230469 417.40985107421875 269.3531494140625 418.1298522949219 255.56976318359375 390.5123596191406 C 251.6424102783203 170.9645233154297 232.8922576904297 178.5282440185547 336.1560363769531 202.21775817871094 C 427.19561767578125 261.4336853027344 456.90557861328125 260.97698974609375 457.0398864746094 323.4286193847656" fill="rgb(231, 208, 0)" opacity="1.0" stroke="rgb(0, 0, 0)" stroke-linecap="round" stroke-linejoin="round" stroke-opacity="1.0" stroke-width="0"/>
    <path d="M 535.2680053710938 158.03515625 C 548.7843627929688 321.61907958984375 554.7401733398438 345.0613098144531 447.1526184082031 425.9002380371094 C 332.9383850097656 421.9855651855469 372.7179260253906 357.9103698730469 383.6008605957031 273.5970764160156 C 365.94183349609375 188.09686279296875 393.4108581542969 130.4254608154297 531.8753662109375 82.26229095458984 C 563.2000122070312 76.2098159790039 563.2000122070312 99.41815185546875 535.2680053710938 158.03515625" fill="rgb(7, 0, 140)" opacity="0.9751997" stroke="rgb(0, 0, 0)" stroke-linecap="round" stroke-linejoin="round" stroke-opacity="1.0" stroke-width="0"/>
    <path d="M 424.2936096191406 248.55746459960938 C 403.59161376953125 285.74493408203125 376.86053466796875 228.83738708496094 358.78399658203125 255.74871826171875 C 341.4059753417969 248.2335968017578 301.8717956542969 206.2044677734375 171.11080932617188 248.4203643798828 C 233.79029846191406 142.50912475585938 268.589111328125 176.07327270507812 311.8360900878906 174.89337158203125 C 337.1525573730469 170.77777099609375 389.2235107421875 186.324951171875 424.2936096191406 248.55746459960938" fill="rgb(255, 218, 1)" opacity="1.0" stroke="rgb(0, 0, 0)" stroke-linecap="round" stroke-linejoin="round" stroke-opacity="1.0" stroke-width="0"/>
    <path d="M 440.37847900390625 254.97840881347656 C 461.1872863769531 323.1273193359375 450.94744873046875 420.9926452636719 374.7372741699219 416.86688232421875 C 319.60540771484375 316.7123718261719 368.0090637207031 255.23204040527344 296.6836242675781 172.92942810058594 C 385.1202697753906 191.0183868408203 358.0323791503906 243.20822143554688 314.186279296875 174.0038604736328 C 407.23260498046875 122.45574951171875 444.9767761230469 264.5081481933594 440.37847900390625 254.97840881347656" fill="rgb(255, 97, 0)" opacity="1.0" stroke="rgb(0, 0, 0)" stroke-linecap="round" stroke-linejoin="round" stroke-opacity="1.0" stroke-width="0"/>
    <path d="M 339.6379089355469 101.06124114990234 C 289.6175537109375 76.25875854492188 263.4870910644531 97.55050659179688 241.93580627441406 164.60348510742188 C 221.87229919433594 198.5450897216797 193.2615203857422 144.0087890625 86.50300598144531 159.83731079101562 C 111.56321716308594 -4.469547271728516 139.12771606445312 -11.902478218078613 263.4957275390625 -46.718788146972656 C 356.2268981933594 -40.39295196533203 361.5760498046875 -0.19333770871162415 339.6379089355469 101.06124114990234" fill="rgb(0, 1, 253)" opacity="0.999986" stroke="rgb(0, 0, 0)" stroke-linecap="round" stroke-linejoin="round" stroke-opacity="1.0" stroke-width="0"/>
    <path d="M 288.1871337890625 410.3233947753906 C 249.75514221191406 437.0400085449219 218.85720825195312 424.6722106933594 196.38760375976562 391.6655578613281 C 145.20924377441406 368.2161560058594 124.46392822265625 395.7977294921875 199.1711883544922 409.7156982421875 C 151.95184326171875 367.857177734375 168.67596435546875 275.95086669921875 164.481689453125 306.91729736328125 C 245.00534057617188 351.109375 171.6866455078125 373.83648681640625 288.1871337890625 410.3233947753906" fill="rgb(255, 95, 2)" opacity="1.0" stroke="rgb(0, 0, 0)" stroke-linecap="round" stroke-linejoin="round" stroke-opacity="1.0" stroke-width="0"/>
    <path d="M 469.12713623046875 403.6331481933594 C 456.7181701660156 418.06488037109375 452.2304992675781 432.5535583496094 418.0783996582031 448.69146728515625 C 410.7562561035156 462.52740478515625 412.32574462890625 438.9236145019531 371.8511962890625 423.5165710449219 C 385.24462890625 430.129638671875 425.265380859375 407.857421875 431.5480651855469 402.3412170410156 C 442.86859130859375 399.1065673828125 473.5574645996094 402.8408508300781 469.12713623046875 403.6331481933594" fill="rgb(4, 0, 68)" opacity="0.9701506" stroke="rgb(0, 0, 0)" stroke-linecap="round" stroke-linejoin="round" stroke-opacity="1.0" stroke-width="0"/>
    <path d="M 363.8614807128906 397.63677978515625 C 336.06158447265625 482.04779052734375 334.5881042480469 480.9639587402344 297.4095764160156 477.8165283203125 C 248.25184631347656 448.2322998046875 239.8617401123047 424.63629150390625 219.58604431152344 421.2115783691406 C 237.26864624023438 421.9109802246094 257.1215515136719 428.54345703125 272.51385498046875 405.2763366699219 C 301.0166320800781 443.66717529296875 341.8572692871094 411.4488220214844 363.8614807128906 397.63677978515625" fill="rgb(1, 0, 112)" opacity="1.0" stroke="rgb(0, 0, 0)" stroke-linecap="round" stroke-linejoin="round" stroke-opacity="1.0" stroke-width="0"/>
    <path d="M 315.8606262207031 260.3029479980469 C 238.47970581054688 248.8150177001953 210.42088317871094 293.3274230957031 248.1115264892578 335.1463623046875 C 160.30101013183594 354.41143798828125 162.6490936279297 306.44122314453125 167.12591552734375 268.3645935058594 C 157.3043212890625 230.41192626953125 161.9408721923828 184.67898559570312 236.60733032226562 179.82400512695312 C 305.533447265625 172.068359375 336.4504699707031 194.33738708496094 315.8606262207031 260.3029479980469" fill="rgb(243, 238, 0)" opacity="0.99011576" stroke="rgb(0, 0, 0)" stroke-linecap="round" stroke-linejoin="round" stroke-opacity="1.0" stroke-width="0"/>
    <path d="M 448.42755126953125 451.1088562011719 C 423.9913024902344 488.1726379394531 412.4532775878906 495.5128173828125 388.3307800292969 501.2815246582031 C 339.4438781738281 493.5122375488281 296.5003356933594 502.47125244140625 283.4173278808594 466.8887634277344 C 318.492919921875 409.4161682128906 336.37322998046875 409.4313659667969 377.9732360839844 424.48870849609375 C 435.1258544921875 398.54840087890625 437.9455871582031 416.4734802246094 448.42755126953125 451.1088562011719" fill="rgb(15, 0, 121)" opacity="0.9967328" stroke="rgb(0, 0, 0)" stroke-linecap="round" stroke-linejoin="round" stroke-opacity="1.0" stroke-width="0"/>
    <path d="M 277.9753112792969 240.1612091064453 C 241.59681701660156 277.61346435546875 201.7579345703125 315.7619934082031 253.45570373535156 319.9895935058594 C 256.3868103027344 368.8236999511719 253.43894958496094 375.38580322265625 229.1256866455078 383.3594970703125 C 278.4518737792969 415.83929443359375 283.2316589355469 411.9550476074219 283.73394775390625 377.6642150878906 C 272.90045166015625 391.0416564941406 284.8849182128906 406.8253173828125 277.9753112792969 240.1612091064453" fill="rgb(255, 64, 18)" opacity="1.0" stroke="rgb(0, 0, 0)" stroke-linecap="round" stroke-linejoin="round" stroke-opacity="1.0" stroke-width="0"/>
    <path d="M 224.4214324951172 175.8418426513672 C 70.04431915283203 113.85648345947266 57.393211364746094 423.1319274902344 183.45944213867188 421.0989990234375 C 69.12474822998047 285.6105651855469 256.4656677246094 106.83839416503906 105.82422637939453 191.24462890625 C 38.41596984863281 305.7428894042969 57.89793014526367 228.50433349609375 167.453125 169.14862060546875 C 137.7047882080078 343.8529968261719 123.04185485839844 235.7698516845703 224.4214324951172 175.8418426513672" fill="rgb(252, 191, 0)" opacity="1.0" stroke="rgb(0, 0, 0)" stroke-linecap="round" stroke-linejoin="round" stroke-opacity="1.0" stroke-width="0"/>
    <path d="M 325.0487976074219 160.2609100341797 C 326.5375671386719 184.8349609375 307.7200927734375 177.1011505126953 302.8798828125 174.06198120117188 C 309.8307800292969 176.97251892089844 304.22833251953125 178.8618927001953 286.1623840332031 147.7018280029297 C 258.54278564453125 157.47108459472656 280.7725524902344 138.083740234375 298.6911926269531 113.7438735961914 C 322.763916015625 138.47080993652344 320.2521667480469 89.22721099853516 325.0487976074219 160.2609100341797" fill="rgb(0, 14, 248)" opacity="0.98508245" stroke="rgb(0, 0, 0)" stroke-linecap="round" stroke-linejoin="round" stroke-opacity="1.0" stroke-width="0"/>
    <path d="M 147.07620239257812 187.03042602539062 C 107.60099029541016 233.3371124267578 92.74468994140625 302.05303955078125 106.37207794189453 356.1673889160156 C 16.648393630981445 340.9303283691406 -17.425209045410156 316.82489013671875 -31.826644897460938 229.33602905273438 C 56.94034957885742 229.3205108642578 46.33477783203125 195.47393798828125 126.3516845703125 118.31970977783203 C 226.38792419433594 182.29202270507812 175.52938842773438 151.03575134277344 147.07620239257812 187.03042602539062" fill="rgb(2, 3, 255)" opacity="0.9990659" stroke="rgb(0, 0, 0)" stroke-linecap="round" stroke-linejoin="round" stroke-opacity="1.0" stroke-width="0"/>
    <path d="M 228.1230926513672 174.61607360839844 C 149.4026336669922 329.5403747558594 234.82073974609375 370.7738342285156 166.29727172851562 324.9393615722656 C 161.43016052246094 296.0973205566406 180.05703735351562 228.8318328857422 175.9105224609375 243.64442443847656 C 132.45704650878906 284.5426025390625 149.75245666503906 257.9587097167969 170.13133239746094 250.3894500732422 C 185.44544982910156 240.22659301757812 188.51776123046875 193.14512634277344 228.1230926513672 174.61607360839844" fill="rgb(253, 63, 22)" opacity="0.99385357" stroke="rgb(0, 0, 0)" stroke-linecap="round" stroke-linejoin="round" stroke-opacity="1.0" stroke-width="0"/>
    <path d="M 356.8457336425781 110.97041320800781 C 317.3123474121094 215.7607421875 301.1385498046875 49.50372314453125 280.1785583496094 175.81178283691406 C 246.36355590820312 203.7669677734375 266.5314636230469 149.62562561035156 265.64727783203125 128.6844940185547 C 245.40243530273438 102.45976257324219 276.89947509765625 117.12226104736328 280.6470947265625 122.71410369873047 C 309.88262939453125 104.65235137939453 338.1157531738281 90.65026092529297 356.8457336425781 110.97041320800781" fill="rgb(148, 104, 0)" opacity="1.0" stroke="rgb(0, 0, 0)" stroke-linecap="round" stroke-linejoin="round" stroke-opacity="1.0" stroke-width="0"/>
    <path d="M 282.67645263671875 157.62277221679688 C 280.9892272949219 179.95504760742188 285.94744873046875 173.61404418945312 295.0316467285156 169.72752380371094 C 290.03607177734375 173.31651306152344 291.9206848144531 162.31898498535156 272.5909118652344 157.92141723632812 C 274.13140869140625 139.7706756591797 280.4544372558594 148.2009735107422 279.3792419433594 172.24661254882812 C 289.397705078125 171.78677368164062 278.42266845703125 169.6942901611328 282.67645263671875 157.62277221679688" fill="rgb(78, 192, 15)" opacity="0.28283554" stroke="rgb(0, 0, 0)" stroke-linecap="round" stroke-linejoin="round" stroke-opacity="1.0" stroke-width="0"/>
    <path d="M 208.7774658203125 393.41448974609375 C 209.9103546142578 404.1083984375 210.36878967285156 417.70465087890625 190.50233459472656 423.3520812988281 C 157.41250610351562 425.18243408203125 170.9678497314453 409.7417907714844 175.4308624267578 370.9581298828125 C 193.8329315185547 368.0013427734375 196.73403930664062 373.70623779296875 194.95318603515625 356.22247314453125 C 197.64602661132812 360.6836853027344 200.6566925048828 379.8256530761719 208.7774658203125 393.41448974609375" fill="rgb(255, 113, 7)" opacity="0.9914281" stroke="rgb(0, 0, 0)" stroke-linecap="round" stroke-linejoin="round" stroke-opacity="1.0" stroke-width="0"/>
    <path d="M 383.75885009765625 392.594970703125 C 366.986083984375 415.11004638671875 366.3812561035156 421.1784973144531 338.93798828125 408.7284851074219 C 275.69818115234375 407.34625244140625 266.0522155761719 414.6011657714844 312.96795654296875 379.00543212890625 C 306.2920227050781 395.43463134765625 331.6622314453125 393.1405029296875 341.1533508300781 327.85614013671875 C 360.7623291015625 367.55914306640625 379.3953552246094 368.21405029296875 383.75885009765625 392.594970703125" fill="rgb(255, 87, 23)" opacity="0.95432657" stroke="rgb(0, 0, 0)" stroke-linecap="round" stroke-linejoin="round" stroke-opacity="1.0" stroke-width="0"/>
    <path d="M 276.1744689941406 268.26263427734375 C 254.22622680664062 280.255126953125 255.81431579589844 293.5660095214844 241.41473388671875 289.095703125 C 228.7295379638672 278.16796875 226.2193145751953 276.3076171875 227.20803833007812 261.1571960449219 C 229.09625244140625 273.885009765625 224.26153564453125 272.030517578125 248.615966796875 275.8659362792969 C 244.96864318847656 240.87847900390625 267.7124938964844 253.041015625 276.1744689941406 268.26263427734375" fill="rgb(255, 58, 49)" opacity="0.0" stroke="rgb(0, 0, 0)" stroke-linecap="round" stroke-linejoin="round" stroke-opacity="1.0" stroke-width="0"/>
    <path d="M 185.35897827148438 341.18951416015625 C 194.22976684570312 388.12255859375 196.5661163330078 377.6059875488281 175.8189697265625 377.64996337890625 C 166.03610229492188 349.480712890625 164.21066284179688 343.3484191894531 156.8543243408203 339.3939514160156 C 141.80450439453125 352.3876037597656 148.00985717773438 357.1705322265625 153.17373657226562 342.22845458984375 C 172.644775390625 324.1406555175781 182.30599975585938 329.7636413574219 185.35897827148438 341.18951416015625" fill="rgb(226, 122, 105)" opacity="0.008099082" stroke="rgb(0, 0, 0)" stroke-linecap="round" stroke-linejoin="round" stroke-opacity="1.0" stroke-width="0"/>
    <path d="M 295.7844543457031 305.2833251953125 C 303.02545166015625 320.6228332519531 307.9172058105469 321.6259765625 284.406005859375 319.09515380859375 C 225.68788146972656 321.4760437011719 210.2721710205078 318.48089599609375 234.3665313720703 321.5599365234375 C 253.4888153076172 298.4637145996094 254.67677307128906 282.2724304199219 266.3894348144531 262.96026611328125 C 278.1827087402344 272.6899719238281 280.7088928222656 285.0525207519531 295.7844543457031 305.2833251953125" fill="rgb(0, 0, 211)" opacity="1.0" stroke="rgb(0, 0, 0)" stroke-linecap="round" stroke-linejoin="round" stroke-opacity="1.0" stroke-width="0"/>
    <path d="M 340.8458251953125 102.58087158203125 C 342.04412841796875 109.61198425292969 338.69342041015625 120.00076293945312 343.4549560546875 105.98182678222656 C 332.908935546875 101.94573211669922 318.86285400390625 101.24508666992188 306.7354431152344 92.9025650024414 C 301.7219543457031 83.16712188720703 331.6049499511719 90.6438980102539 320.6773376464844 90.53007507324219 C 329.47857666015625 93.0382308959961 342.0176086425781 102.2975082397461 340.8458251953125 102.58087158203125" fill="rgb(149, 116, 0)" opacity="0.9995491" stroke="rgb(0, 0, 0)" stroke-linecap="round" stroke-linejoin="round" stroke-opacity="1.0" stroke-width="0"/>
    <path d="M 277.880126953125 247.16140747070312 C 280.7237854003906 223.3695068359375 279.7051086425781 241.6479034423828 277.2518310546875 239.1567840576172 C 254.83206176757812 230.89791870117188 248.6923065185547 244.10711669921875 257.2802734375 228.0452117919922 C 264.9970397949219 181.77264404296875 263.6618347167969 164.4484100341797 270.68609619140625 182.0058135986328 C 274.8082275390625 216.22390747070312 277.1513366699219 227.75616455078125 277.880126953125 247.16140747070312" fill="rgb(255, 24, 19)" opacity="0.79786336" stroke="rgb(0, 0, 0)" stroke-linecap="round" stroke-linejoin="round" stroke-opacity="1.0" stroke-width="0"/>
    <path d="M 278.347412109375 262.8492126464844 C 270.2737121582031 257.64276123046875 262.3638916015625 269.0628356933594 274.0089111328125 247.07240295410156 C 264.41937255859375 263.6200866699219 248.26071166992188 259.9422607421875 251.59999084472656 260.6979675292969 C 254.22830200195312 224.75778198242188 255.43325805664062 221.03001403808594 273.9023742675781 248.98416137695312 C 274.17120361328125 240.9501953125 280.92230224609375 259.2215270996094 278.347412109375 262.8492126464844" fill="rgb(255, 75, 65)" opacity="0.6128504" stroke="rgb(0, 0, 0)" stroke-linecap="round" stroke-linejoin="round" stroke-opacity="1.0" stroke-width="0"/>
    <path d="M 372.5166320800781 207.689453125 C 363.29840087890625 207.2369842529297 371.4627380371094 237.0457000732422 358.25384521484375 223.87158203125 C 344.9838562011719 226.79148864746094 339.436767578125 212.50531005859375 337.9789123535156 197.4659881591797 C 341.7426452636719 188.1477813720703 339.19189453125 178.83541870117188 374.59503173828125 175.77015686035156 C 389.6953430175781 181.714599609375 384.204833984375 176.7406463623047 372.5166320800781 207.689453125" fill="rgb(255, 194, 69)" opacity="0.060216624" stroke="rgb(0, 0, 0)" stroke-linecap="round" stroke-linejoin="round" stroke-opacity="1.0" stroke-width="0"/>
    <path d="M 83.111572265625 460.0894470214844 C 89.19280242919922 474.2186279296875 78.9267349243164 469.88824462890625 78.69259643554688 469.1164245605469 C 69.59672546386719 468.5362243652344 58.03704071044922 460.6742858886719 49.18668746948242 450.3486633300781 C 33.27661895751953 420.4183044433594 34.951419830322266 430.8431396484375 64.6677017211914 429.5703430175781 C 80.1942367553711 435.44677734375 79.54478454589844 448.19342041015625 83.111572265625 460.0894470214844" fill="rgb(91, 244, 23)" opacity="0.9106583" stroke="rgb(0, 0, 0)" stroke-linecap="round" stroke-linejoin="round" stroke-opacity="1.0" stroke-width="0"/>
    <path d="M 206.11705017089844 342.2764892578125 C 216.1583251953125 352.0635986328125 207.9184112548828 358.9431457519531 199.8404998779297 366.49505615234375 C 198.25457763671875 354.00482177734375 196.88685607910156 347.24615478515625 194.54310607910156 332.6102294921875 C 189.37986755371094 317.837646484375 170.7320098876953 322.58465576171875 189.5440216064453 321.47625732421875 C 191.6438446044922 331.147705078125 199.2932891845703 340.3613586425781 206.11705017089844 342.2764892578125" fill="rgb(243, 206, 0)" opacity="0.63230544" stroke="rgb(0, 0, 0)" stroke-linecap="round" stroke-linejoin="round" stroke-opacity="1.0" stroke-width="0"/>
    <path d="M 42.62513732910156 304.20477294921875 C 49.348716735839844 324.4600830078125 42.19275665283203 337.4609069824219 39.40476608276367 345.5760498046875 C 36.1649169921875 333.6445007324219 35.76467514038086 336.9132385253906 27.75119972229004 318.078125 C 24.918697357177734 308.81683349609375 24.6032772064209 297.3924560546875 31.07530403137207 276.5214538574219 C 38.08328628540039 286.74053955078125 42.80791091918945 296.7076721191406 42.62513732910156 304.20477294921875" fill="rgb(128, 255, 3)" opacity="0.91043526" stroke="rgb(0, 0, 0)" stroke-linecap="round" stroke-linejoin="round" stroke-opacity="1.0" stroke-width="0"/>
    <path d="M 130.89010620117188 422.5824279785156 C 129.5249481201172 452.5606994628906 117.09276580810547 461.26324462890625 100.44356536865234 469.9449157714844 C 103.11036682128906 470.7210388183594 97.7509994506836 471.5665283203125 100.26850128173828 451.02655029296875 C 102.22752380371094 441.37567138671875 110.63887786865234 432.7761535644531 118.44927978515625 427.7288513183594 C 116.71432495117188 422.89111328125 137.23294067382812 424.185302734375 130.89010620117188 422.5824279785156" fill="rgb(247, 241, 0)" opacity="0.9909938" stroke="rgb(0, 0, 0)" stroke-linecap="round" stroke-linejoin="round" stroke-opacity="1.0" stroke-width="0"/>
    <path d="M 493.97467041015625 63.16090774536133 C 490.5072021484375 58.64274978637695 481.03546142578125 67.94998931884766 472.3631591796875 78.11186218261719 C 465.4569396972656 97.86164855957031 465.5920715332031 96.02267456054688 471.5346984863281 90.6521987915039 C 480.8645324707031 71.72946166992188 484.1707763671875 62.54065704345703 492.41937255859375 59.85347366333008 C 485.8757019042969 68.10517883300781 490.9228515625 63.56460189819336 493.97467041015625 63.16090774536133" fill="rgb(79, 42, 180)" opacity="0.038172673" stroke="rgb(0, 0, 0)" stroke-linecap="round" stroke-linejoin="round" stroke-opacity="1.0" stroke-width="0"/>
    <path d="M 52.376426696777344 197.36839294433594 C 58.12690734863281 198.62486267089844 45.90092086791992 205.56222534179688 35.693626403808594 209.63916015625 C 22.261091232299805 208.91552734375 15.996122360229492 202.521728515625 22.444664001464844 203.77259826660156 C 15.271275520324707 181.6918487548828 24.12063217163086 174.50885009765625 30.041194915771484 168.5552215576172 C 47.708892822265625 170.4259490966797 51.52967834472656 178.20411682128906 52.376426696777344 197.36839294433594" fill="rgb(6, 16, 249)" opacity="0.07020466" stroke="rgb(0, 0, 0)" stroke-linecap="round" stroke-linejoin="round" stroke-opacity="1.0" stroke-width="0"/>
    <path d="M 312.8073425292969 334.1993408203125 C 317.0722351074219 354.5892333984375 317.9227600097656 363.7481689453125 303.3295593261719 355.1526184082031 C 290.6068420410156 353.80609130859375 271.8780517578125 354.4977722167969 271.6042175292969 325.53607177734375 C 269.12518310546875 316.0666809082031 294.74169921875 323.8609619140625 314.1361999511719 319.1964111328125 C 314.4170227050781 298.767333984375 317.18505859375 306.22296142578125 312.8073425292969 334.1993408203125" fill="rgb(177, 230, 0)" opacity="0.20224117" stroke="rgb(0, 0, 0)" stroke-linecap="round" stroke-linejoin="round" stroke-opacity="1.0" stroke-width="0"/>
    <path d="M 383.1490478515625 438.4823913574219 C 388.2123107910156 458.1066589355469 387.8040771484375 454.78271484375 353.214111328125 455.2763366699219 C 348.57574462890625 459.46319580078125 351.6142883300781 433.9701232910156 341.9817810058594 427.8360900878906 C 338.2127990722656 430.6622009277344 362.36627197265625 430.7535095214844 366.4089050292969 425.1011657714844 C 374.1041564941406 417.16534423828125 390.0721740722656 420.0256042480469 383.1490478515625 438.4823913574219" fill="rgb(51, 34, 113)" opacity="0.008466066" stroke="rgb(0, 0, 0)" stroke-linecap="round" stroke-linejoin="round" stroke-opacity="1.0" stroke-width="0"/>
    <path d="M 349.2325134277344 413.0352478027344 C 345.05609130859375 426.368408203125 341.26513671875 435.767578125 333.8304138183594 435.04644775390625 C 329.7886962890625 437.1368103027344 323.2195129394531 420.7610778808594 306.28948974609375 421.1717529296875 C 314.0704345703125 416.64190673828125 328.2351379394531 411.48004150390625 354.3141784667969 412.60174560546875 C 346.3273010253906 406.1476745605469 354.82745361328125 410.7416076660156 349.2325134277344 413.0352478027344" fill="rgb(117, 0, 19)" opacity="0.051255263" stroke="rgb(0, 0, 0)" stroke-linecap="round" stroke-linejoin="round" stroke-opacity="1.0" stroke-width="0"/>
    <path d="M 423.89544677734375 68.32675170898438 C 424.7646789550781 82.33314514160156 418.669921875 97.43415832519531 408.9108581542969 110.51397705078125 C 399.30902099609375 89.32970428466797 401.77093505859375 74.88127899169922 408.9230651855469 61.817237854003906 C 402.7773742675781 71.5833740234375 408.94927978515625 57.65399169921875 415.9903564453125 41.8355827331543 C 416.645751953125 44.831886291503906 423.4449462890625 61.432090759277344 423.89544677734375 68.32675170898438" fill="rgb(162, 253, 18)" opacity="0.9881956" stroke="rgb(0, 0, 0)" stroke-linecap="round" stroke-linejoin="round" stroke-opacity="1.0" stroke-width="0"/>
    <path d="M 36.900081634521484 75.12115478515625 C 35.1829719543457 87.59034729003906 29.677457809448242 94.15943145751953 20.661508560180664 92.10163116455078 C 3.506000280380249 96.16886901855469 -8.220081329345703 99.30245971679688 1.910722017288208 101.1705551147461 C 23.757091522216797 89.88738250732422 30.43831443786621 80.17179107666016 39.355430603027344 66.90424346923828 C 43.37849807739258 68.94186401367188 48.2976188659668 73.27723693847656 36.900081634521484 75.12115478515625" fill="rgb(26, 41, 242)" opacity="0.012654076" stroke="rgb(0, 0, 0)" stroke-linecap="round" stroke-linejoin="round" stroke-opacity="1.0" stroke-width="0"/>
    <path d="M 28.921113967895508 144.05899047851562 C 29.856611251831055 153.87643432617188 28.030996322631836 154.30532836914062 24.17413330078125 153.7428741455078 C 19.890037536621094 145.82830810546875 4.0554280281066895 145.50875854492188 -14.999282836914062 142.807861328125 C -12.593119621276855 122.88542175292969 -0.9679710865020752 127.48074340820312 17.018016815185547 132.58290100097656 C 28.9497013092041 129.0026092529297 33.70402145385742 128.94818115234375 28.921113967895508 144.05899047851562" fill="rgb(22, 5, 248)" opacity="0.014690556" stroke="rgb(0, 0, 0)" stroke-linecap="round" stroke-linejoin="round" stroke-opacity="1.0" stroke-width="0"/>
    <path d="M 522.4246826171875 243.12570190429688 C 516.6670532226562 254.27891540527344 511.2254638671875 261.573974609375 489.0838317871094 257.09661865234375 C 485.4045715332031 263.7672424316406 489.2773132324219 260.6101989746094 479.4923400878906 237.78219604492188 C 478.0953369140625 221.9432830810547 480.3414306640625 218.5283966064453 500.7141418457031 220.50686645507812 C 519.21240234375 221.914306640625 522.9406127929688 227.0351104736328 522.4246826171875 243.12570190429688" fill="rgb(51, 35, 183)" opacity="0.0" stroke="rgb(0, 0, 0)" stroke-linecap="round" stroke-linejoin="round" stroke-opacity="1.0" stroke-width="0"/>
    <path d="M 314.6677551269531 41.65070724487305 C 315.868896484375 66.00641632080078 322.8410339355469 66.73218536376953 324.6805419921875 53.1529655456543 C 304.5770568847656 45.176883697509766 292.92559814453125 44.93584442138672 289.005615234375 37.96062088012695 C 289.13629150390625 40.623512268066406 288.119140625 36.34771728515625 292.3070983886719 41.09251403808594 C 315.2486572265625 34.8171272277832 318.6339416503906 29.741466522216797 314.6677551269531 41.65070724487305" fill="rgb(49, 48, 134)" opacity="0.0" stroke="rgb(0, 0, 0)" stroke-linecap="round" stroke-linejoin="round" stroke-opacity="1.0" stroke-width="0"/>
    <path d="M 430.719482421875 261.7503356933594 C 430.9237365722656 273.8999328613281 431.96856689453125 286.7533874511719 423.2198791503906 288.332275390625 C 403.8455810546875 288.87054443359375 411.9710693359375 276.5140686035156 403.0646057128906 268.487060546875 C 409.5140075683594 266.4176025390625 414.7268371582031 260.4547119140625 428.89959716796875 263.2334289550781 C 430.7667541503906 252.57640075683594 439.36468505859375 259.23114013671875 430.719482421875 261.7503356933594" fill="rgb(206, 106, 0)" opacity="0.06253624" stroke="rgb(0, 0, 0)" stroke-linecap="round" stroke-linejoin="round" stroke-opacity="1.0" stroke-width="0"/>
    <path d="M 524.8260498046875 133.3689422607422 C 524.5859985351562 158.98748779296875 516.8168334960938 167.77267456054688 501.7978210449219 162.0136260986328 C 491.0725402832031 155.1848907470703 490.4270324707031 137.8513641357422 491.1986083984375 127.01602172851562 C 481.1127624511719 119.0344467163086 490.8756408691406 113.81744384765625 515.724609375 111.54821014404297 C 520.5720825195312 111.61329650878906 523.3575439453125 117.5732192993164 524.8260498046875 133.3689422607422" fill="rgb(0, 0, 136)" opacity="0.08287362" stroke="rgb(0, 0, 0)" stroke-linecap="round" stroke-linejoin="round" stroke-opacity="1.0" stroke-width="0"/>
    <path d="M 528.4924926757812 164.05300903320312 C 527.9321899414062 175.66017150878906 521.6045532226562 183.3399200439453 512.501220703125 179.39370727539062 C 492.36065673828125 181.3473663330078 485.70953369140625 177.53053283691406 485.1530456542969 174.1465606689453 C 490.3077697753906 158.45277404785156 506.978515625 161.17813110351562 524.4579467773438 158.1737823486328 C 517.7416381835938 147.39990234375 525.1123657226562 154.182373046875 528.4924926757812 164.05300903320312" fill="rgb(0, 9, 63)" opacity="0.034835044" stroke="rgb(0, 0, 0)" stroke-linecap="round" stroke-linejoin="round" stroke-opacity="1.0" stroke-width="0"/>
    <path d="M 79.45713806152344 361.148681640625 C 98.81322479248047 397.4701232910156 97.45286560058594 394.27630615234375 61.99931716918945 377.5065002441406 C 48.81936264038086 368.11077880859375 43.26681137084961 357.0502014160156 41.34093475341797 347.7176513671875 C 37.44725036621094 350.8117980957031 56.604881286621094 347.2495422363281 65.7960205078125 356.0216979980469 C 64.4212875366211 353.8935852050781 67.28472137451172 352.09759521484375 79.45713806152344 361.148681640625" fill="rgb(166, 245, 21)" opacity="0.9572225" stroke="rgb(0, 0, 0)" stroke-linecap="round" stroke-linejoin="round" stroke-opacity="1.0" stroke-width="0"/>
    <path d="M 335.2947692871094 261.12823486328125 C 331.1498107910156 273.1778564453125 330.6376037597656 269.9066162109375 317.30523681640625 270.1357421875 C 305.9261779785156 264.3887634277344 297.7542724609375 256.413818359375 302.7328796386719 253.25030517578125 C 309.841552734375 256.04571533203125 316.2398986816406 245.88629150390625 319.7673645019531 226.8389892578125 C 330.4552917480469 224.2481689453125 334.36407470703125 236.55374145507812 335.2947692871094 261.12823486328125" fill="rgb(168, 242, 14)" opacity="0.19246568" stroke="rgb(0, 0, 0)" stroke-linecap="round" stroke-linejoin="round" stroke-opacity="1.0" stroke-width="0"/>
    <path d="M 498.3112487792969 133.96829223632812 C 498.7359313964844 132.16897583007812 486.3311767578125 137.4289093017578 491.2110290527344 146.00914001464844 C 481.77532958984375 149.9559326171875 475.6908264160156 141.34059143066406 479.2190246582031 127.57699584960938 C 466.853271484375 118.81326293945312 474.41973876953125 110.447998046875 488.7972717285156 115.79985046386719 C 493.7408447265625 116.07791900634766 498.6410827636719 126.9074478149414 498.3112487792969 133.96829223632812" fill="rgb(0, 0, 139)" opacity="0.13704082" stroke="rgb(0, 0, 0)" stroke-linecap="round" stroke-linejoin="round" stroke-opacity="1.0" stroke-width="0"/>
    <path d="M 476.01702880859375 454.3525390625 C 476.42138671875 468.8642578125 469.61328125 480.9136962890625 461.92633056640625 490.5882263183594 C 457.1763000488281 474.3819885253906 447.22308349609375 467.26190185546875 446.1080627441406 462.39208984375 C 447.3432922363281 450.2359619140625 449.7766418457031 444.3223571777344 462.552001953125 439.0533752441406 C 475.0317077636719 436.7095642089844 479.28558349609375 446.4709777832031 476.01702880859375 454.3525390625" fill="rgb(26, 17, 46)" opacity="0.0" stroke="rgb(0, 0, 0)" stroke-linecap="round" stroke-linejoin="round" stroke-opacity="1.0" stroke-width="0"/>
    <path d="M 503.15191650390625 378.8635559082031 C 500.7458190917969 372.5363464355469 491.839111328125 380.33624267578125 484.35125732421875 380.9372863769531 C 488.61102294921875 381.4088134765625 478.97723388671875 376.57373046875 479.99432373046875 382.30926513671875 C 484.7669372558594 362.2535095214844 476.0746765136719 351.5082092285156 484.65777587890625 360.84588623046875 C 483.1494445800781 368.8728942871094 490.15484619140625 379.3717041015625 503.15191650390625 378.8635559082031" fill="rgb(20, 12, 68)" opacity="0.060951486" stroke="rgb(0, 0, 0)" stroke-linecap="round" stroke-linejoin="round" stroke-opacity="1.0" stroke-width="0"/>
    <path d="M 162.71278381347656 416.35968017578125 C 161.6854705810547 427.7886657714844 159.46083068847656 440.5826416015625 156.00396728515625 438.4955139160156 C 139.58468627929688 441.9400329589844 129.036376953125 441.4315185546875 132.72654724121094 432.208251953125 C 139.21742248535156 421.850830078125 143.2483367919922 405.16925048828125 134.61134338378906 415.14605712890625 C 149.18716430664062 418.81744384765625 161.90553283691406 423.9565124511719 162.71278381347656 416.35968017578125" fill="rgb(58, 24, 219)" opacity="0.20944184" stroke="rgb(0, 0, 0)" stroke-linecap="round" stroke-linejoin="round" stroke-opacity="1.0" stroke-width="0"/>
    <path d="M 89.96058654785156 165.88265991210938 C 97.268310546875 176.4859619140625 89.4962158203125 179.71990966796875 85.17597961425781 172.56259155273438 C 75.68265533447266 177.43434143066406 67.14361572265625 169.81576538085938 61.04930877685547 164.97303771972656 C 60.596397399902344 154.11769104003906 69.2339859008789 147.2577667236328 74.84767150878906 140.75546264648438 C 89.50923919677734 142.33236694335938 98.79627990722656 150.0665283203125 89.96058654785156 165.88265991210938" fill="rgb(1, 3, 255)" opacity="0.0" stroke="rgb(0, 0, 0)" stroke-linecap="round" stroke-linejoin="round" stroke-opacity="1.0" stroke-width="0"/>
    <path d="M 185.81515502929688 125.47039031982422 C 185.70681762695312 135.89651489257812 179.32493591308594 147.057373046875 175.9413299560547 160.9848175048828 C 166.9901885986328 145.69515991210938 164.1325225830078 135.17225646972656 165.75401306152344 131.32554626464844 C 164.2085723876953 130.48489379882812 165.99172973632812 108.54006958007812 184.092529296875 83.53551483154297 C 188.7324981689453 105.43525695800781 187.703125 124.03308868408203 185.81515502929688 125.47039031982422" fill="rgb(225, 242, 13)" opacity="0.96035606" stroke="rgb(0, 0, 0)" stroke-linecap="round" stroke-linejoin="round" stroke-opacity="1.0" stroke-width="0"/>
    <path d="M 171.61610412597656 403.5382080078125 C 176.75494384765625 405.3180847167969 178.59027099609375 414.5098876953125 172.3155517578125 410.14453125 C 162.04229736328125 404.2649841308594 155.00381469726562 396.9466552734375 148.9866485595703 388.6015625 C 142.27157592773438 378.8598937988281 155.9548797607422 388.62518310546875 171.9694366455078 390.29486083984375 C 172.75352478027344 379.4566650390625 172.6898193359375 391.16015625 171.61610412597656 403.5382080078125" fill="rgb(255, 71, 86)" opacity="0.8517655" stroke="rgb(0, 0, 0)" stroke-linecap="round" stroke-linejoin="round" stroke-opacity="1.0" stroke-width="0"/>
    <path d="M 458.9272155761719 111.81425476074219 C 456.591796875 126.94703674316406 448.33966064453125 135.626708984375 433.6199951171875 143.2736358642578 C 417.3939514160156 155.1391143798828 413.97125244140625 155.8815460205078 423.68426513671875 132.52706909179688 C 427.94171142578125 115.41597747802734 436.8255615234375 110.05909729003906 450.3117370605469 105.86453247070312 C 462.49322509765625 100.11363983154297 466.7899169921875 108.61427307128906 458.9272155761719 111.81425476074219" fill="rgb(168, 237, 36)" opacity="0.88386804" stroke="rgb(0, 0, 0)" stroke-linecap="round" stroke-linejoin="round" stroke-opacity="1.0" stroke-width="0"/>
    <path d="M 248.02755737304688 325.44189453125 C 253.3278350830078 326.7983703613281 250.36314392089844 325.3586120605469 247.50547790527344 337.42803955078125 C 234.90628051757812 336.3016662597656 238.60501098632812 321.1551818847656 226.95030212402344 312.45684814453125 C 228.7046356201172 299.3660583496094 237.16815185546875 302.1929626464844 241.50921630859375 317.4559631347656 C 238.8298797607422 317.350830078125 240.93270874023438 324.2247314453125 248.02755737304688 325.44189453125" fill="rgb(183, 30, 81)" opacity="0.0" stroke="rgb(0, 0, 0)" stroke-linecap="round" stroke-linejoin="round" stroke-opacity="1.0" stroke-width="0"/>
    <path d="M 168.49037170410156 469.98138427734375 C 153.317138671875 480.6683654785156 147.2733917236328 490.7979736328125 140.81199645996094 493.4771728515625 C 126.5853500366211 491.5340270996094 119.34728240966797 488.9837951660156 126.12712860107422 486.3597412109375 C 131.12619018554688 473.4346923828125 137.3779296875 470.1579284667969 147.34390258789062 475.81201171875 C 145.29403686523438 468.7950439453125 164.2791290283203 470.48858642578125 168.49037170410156 469.98138427734375" fill="rgb(0, 10, 216)" opacity="0.00050039234" stroke="rgb(0, 0, 0)" stroke-linecap="round" stroke-linejoin="round" stroke-opacity="1.0" stroke-width="0"/>
    <path d="M 467.09393310546875 392.99261474609375 C 462.75115966796875 391.4602355957031 464.75445556640625 405.1845703125 458.0400085449219 413.62908935546875 C 438.6376953125 407.5419921875 428.62603759765625 402.2569580078125 437.351806640625 389.41839599609375 C 431.4322204589844 370.014892578125 432.0408935546875 367.8661193847656 450.06024169921875 378.2462158203125 C 465.9129638671875 369.66973876953125 464.3423156738281 375.92559814453125 467.09393310546875 392.99261474609375" fill="rgb(23, 29, 46)" opacity="0.014785799" stroke="rgb(0, 0, 0)" stroke-linecap="round" stroke-linejoin="round" stroke-opacity="1.0" stroke-width="0"/>
    <path d="M 301.4951171875 110.10717010498047 C 298.1461486816406 117.1759262084961 287.1920471191406 121.1397476196289 285.4009704589844 125.43104553222656 C 277.7406921386719 113.8488998413086 258.69891357421875 119.34271240234375 265.93505859375 116.17343139648438 C 273.94317626953125 109.20841217041016 281.6449279785156 101.15457153320312 291.704833984375 97.26998901367188 C 304.5763854980469 92.314697265625 304.5161437988281 91.5431900024414 301.4951171875 110.10717010498047" fill="rgb(182, 131, 0)" opacity="0.08284987" stroke="rgb(0, 0, 0)" stroke-linecap="round" stroke-linejoin="round" stroke-opacity="1.0" stroke-width="0"/>
    <path d="M 392.3681640625 33.48057174682617 C 382.1769714355469 45.37434768676758 375.90264892578125 53.12070846557617 364.12359619140625 56.62987518310547 C 363.15728759765625 60.281219482421875 359.552001953125 59.095191955566406 371.1651916503906 61.764278411865234 C 374.9675598144531 47.00737380981445 374.3995361328125 33.83259963989258 386.2618103027344 30.97101593017578 C 401.9169616699219 25.59967613220215 406.071533203125 27.732791900634766 392.3681640625 33.48057174682617" fill="rgb(16, 9, 255)" opacity="0.0" stroke="rgb(0, 0, 0)" stroke-linecap="round" stroke-linejoin="round" stroke-opacity="1.0" stroke-width="0"/>
  </g>
</svg>
