<?xml version="1.0" ?>
<svg height="512" style="background-color: rgb(255, 253, 229, 0.07121950387954712)" version="1.1" width="512" xmlns="http://www.w3.org/2000/svg">
  <defs/>
  <g>
    <path d="M 534.7661743164062 450.36651611328125 C 546.7626342773438 517.3433227539062 548.8076782226562 525.6675415039062 389.4635925292969 538.15185546875 C 310.2269592285156 556.95703125 266.103759765625 554.364990234375 137.2686767578125 456.9183654785156 C 285.51593017578125 371.9563293457031 409.5805969238281 385.34234619140625 496.4436950683594 300.557373046875 C 563.0012817382812 321.3539733886719 563.1908569335938 335.9978942871094 534.7661743164062 450.36651611328125" fill="rgb(62, 221, 0)" opacity="0.9807823" stroke="rgb(0, 0, 0)" stroke-linecap="round" stroke-linejoin="round" stroke-opacity="1.0" stroke-width="0"/>
    <path d="M 239.97962951660156 293.86279296875 C 275.53662109375 490.1690368652344 333.1454772949219 514.9235229492188 309.1317443847656 513.9201049804688 C -51.20000076293945 522.5816650390625 -51.20000076293945 515.4364624023438 -50.64255905151367 460.6875305175781 C -30.28626823425293 153.75645446777344 -14.524077415466309 126.31507110595703 55.172874450683594 208.60897827148438 C 148.55223083496094 347.03314208984375 146.14793395996094 275.7179260253906 239.97962951660156 293.86279296875" fill="rgb(209, 217, 255)" opacity="0.99760956" stroke="rgb(0, 0, 0)" stroke-linecap="round" stroke-linejoin="round" stroke-opacity="1.0" stroke-width="0"/>
    <path d="M 262.5592956542969 307.827880859375 C 105.32929992675781 296.1872253417969 35.17569351196289 340.08111572265625 159.2450408935547 321.117431640625 C 83.45246887207031 246.518798828125 13.719482421875 328.01385498046875 21.163095474243164 166.79539489746094 C 39.53445816040039 110.03500366210938 85.03758239746094 76.75341796875 263.4190673828125 126.7222671508789 C 325.08514404296875 180.96408081054688 357.6610412597656 260.2441711425781 262.5592956542969 307.827880859375" fill="rgb(51, 79, 252)" opacity="0.9480393" stroke="rgb(0, 0, 0)" stroke-linecap="round" stroke-linejoin="round" stroke-opacity="1.0" stroke-width="0"/>
    <path d="M 237.63082885742188 -29.491548538208008 C 193.29791259765625 93.41189575195312 115.34516143798828 47.08350372314453 63.747337341308594 247.43621826171875 C -40.84312438964844 267.7330627441406 -48.17308807373047 239.72438049316406 -32.267616271972656 182.23800659179688 C -16.451900482177734 -18.537282943725586 -10.644554138183594 -24.558425903320312 32.21444320678711 -18.7316837310791 C 204.95166015625 -27.166507720947266 235.46905517578125 -44.79048538208008 237.63082885742188 -29.491548538208008" fill="rgb(70, 245, 3)" opacity="0.8378343" stroke="rgb(0, 0, 0)" stroke-linecap="round" stroke-linejoin="round" stroke-opacity="1.0" stroke-width="0"/>
    <path d="M 528.5563354492188 116.21148681640625 C 437.33087158203125 328.9113464355469 453.49017333984375 350.4960021972656 301.32476806640625 286.22332763671875 C 285.8079528808594 276.74176025390625 251.32151794433594 211.38400268554688 255.28948974609375 227.8282012939453 C 439.3481750488281 228.50274658203125 313.24359130859375 287.8722839355469 339.0638122558594 -15.497231483459473 C 551.5460815429688 -7.4954962730407715 558.3385620117188 3.5774457454681396 528.5563354492188 116.21148681640625" fill="rgb(0, 0, 174)" opacity="1.0" stroke="rgb(0, 0, 0)" stroke-linecap="round" stroke-linejoin="round" stroke-opacity="1.0" stroke-width="0"/>
    <path d="M 343.5045166015625 196.39210510253906 C 149.53736877441406 195.59368896484375 134.35580444335938 22.46598243713379 141.9218292236328 155.10963439941406 C 94.27311706542969 266.8097839355469 77.48058319091797 270.3600158691406 83.90185546875 208.23187255859375 C 90.50646209716797 103.74139404296875 70.44303894042969 67.87278747558594 281.0789794921875 -32.29810333251953 C 415.0766296386719 21.409170150756836 473.56976318359375 39.60591506958008 343.5045166015625 196.39210510253906" fill="rgb(147, 88, 177)" opacity="0.98008674" stroke="rgb(0, 0, 0)" stroke-linecap="round" stroke-linejoin="round" stroke-opacity="1.0" stroke-width="0"/>
    <path d="M 546.02001953125 363.7118835449219 C 534.1729125976562 512.5798950195312 561.9801635742188 544.6769409179688 274.0287170410156 563.2000122070312 C 225.94622802734375 458.89373779296875 289.9350280761719 322.3269348144531 238.3678436279297 308.9013366699219 C 367.0185852050781 315.9877624511719 304.4999694824219 211.0948486328125 365.1253356933594 227.64820861816406 C 461.98480224609375 251.44224548339844 489.6365966796875 229.34524536132812 546.02001953125 363.7118835449219" fill="rgb(255, 255, 0)" opacity="0.36028576" stroke="rgb(0, 0, 0)" stroke-linecap="round" stroke-linejoin="round" stroke-opacity="1.0" stroke-width="0"/>
    <path d="M 536.7324829101562 165.1465301513672 C 560.9835205078125 326.76513671875 561.4060668945312 346.70745849609375 493.2145080566406 346.891357421875 C 335.67510986328125 346.94696044921875 363.6167907714844 347.6560974121094 373.28326416015625 218.77420043945312 C 444.9609680175781 78.23133087158203 369.0566711425781 15.49542236328125 478.06964111328125 -8.112069129943848 C 562.570068359375 38.94097137451172 563.2000122070312 77.83305358886719 536.7324829101562 165.1465301513672" fill="rgb(137, 238, 0)" opacity="0.97743493" stroke="rgb(0, 0, 0)" stroke-linecap="round" stroke-linejoin="round" stroke-opacity="1.0" stroke-width="0"/>
    <path d="M 372.8138427734375 240.8316192626953 C 376.2315673828125 303.0748596191406 386.88104248046875 305.50592041015625 314.4170227050781 313.8639831542969 C 258.20819091796875 302.9375915527344 254.3548126220703 315.89947509765625 257.62249755859375 236.98675537109375 C 300.5775451660156 271.1995544433594 300.9839172363281 291.08648681640625 322.05279541015625 283.669921875 C 301.5920104980469 291.9804992675781 334.76177978515625 293.92242431640625 372.8138427734375 240.8316192626953" fill="rgb(165, 109, 61)" opacity="0.99517006" stroke="rgb(0, 0, 0)" stroke-linecap="round" stroke-linejoin="round" stroke-opacity="1.0" stroke-width="0"/>
    <path d="M 366.5899353027344 204.0927734375 C 352.09576416015625 233.78456115722656 373.8736877441406 233.89840698242188 361.5085144042969 236.95030212402344 C 372.9784851074219 184.65869140625 366.342529296875 285.2965393066406 218.64947509765625 213.966064453125 C 271.4197692871094 216.25775146484375 295.7351379394531 164.24990844726562 369.2939758300781 104.59909057617188 C 369.45465087890625 236.51025390625 346.4290771484375 258.91864013671875 366.5899353027344 204.0927734375" fill="rgb(215, 121, 47)" opacity="0.5311836" stroke="rgb(0, 0, 0)" stroke-linecap="round" stroke-linejoin="round" stroke-opacity="1.0" stroke-width="0"/>
    <path d="M 254.6516876220703 236.81578063964844 C 194.71510314941406 294.8011474609375 240.96624755859375 277.7709655761719 85.24689483642578 329.7994689941406 C 236.92587280273438 266.0060729980469 125.34486389160156 240.8299102783203 104.86035919189453 228.12416076660156 C 88.4413070678711 113.85785675048828 89.61286163330078 206.11569213867188 139.6666717529297 238.48834228515625 C 279.16845703125 231.68661499023438 430.4001159667969 246.68959045410156 254.6516876220703 236.81578063964844" fill="rgb(0, 13, 254)" opacity="0.9645528" stroke="rgb(0, 0, 0)" stroke-linecap="round" stroke-linejoin="round" stroke-opacity="1.0" stroke-width="0"/>
    <path d="M 407.7807922363281 266.4866943359375 C 441.1990966796875 266.4053955078125 436.92596435546875 274.0162353515625 387.9696960449219 296.30450439453125 C 367.8076171875 368.82977294921875 357.7212829589844 347.4934997558594 367.8265380859375 250.66879272460938 C 405.37847900390625 94.2799301147461 440.0080261230469 58.11722183227539 387.177490234375 252.85348510742188 C 374.5444030761719 266.5334777832031 385.7809753417969 271.260986328125 407.7807922363281 266.4866943359375" fill="rgb(202, 115, 39)" opacity="0.9850957" stroke="rgb(0, 0, 0)" stroke-linecap="round" stroke-linejoin="round" stroke-opacity="1.0" stroke-width="0"/>
    <path d="M 385.54364013671875 89.61125183105469 C 315.5042419433594 118.91551208496094 310.2047119140625 161.60121154785156 294.9880065917969 166.7642364501953 C 174.47010803222656 159.17347717285156 279.1631164550781 196.0515594482422 132.03182983398438 86.39141082763672 C 143.2458953857422 0.5334672331809998 161.5941162109375 -5.94459342956543 270.4148254394531 -50.39173889160156 C 343.7521057128906 12.709596633911133 383.1341552734375 -4.682286262512207 385.54364013671875 89.61125183105469" fill="rgb(108, 239, 23)" opacity="0.95692724" stroke="rgb(0, 0, 0)" stroke-linecap="round" stroke-linejoin="round" stroke-opacity="1.0" stroke-width="0"/>
    <path d="M 225.49078369140625 329.61138916015625 C 159.13832092285156 385.1212463378906 140.4949951171875 404.6892395019531 153.84039306640625 390.56170654296875 C 168.330322265625 342.3028564453125 242.6355743408203 307.7030944824219 107.49837493896484 395.0476379394531 C 144.5030059814453 372.1338806152344 196.64720153808594 333.8896179199219 218.556396484375 323.28314208984375 C 122.29546356201172 380.0728454589844 83.42740631103516 416.2047424316406 225.49078369140625 329.61138916015625" fill="rgb(41, 73, 255)" opacity="0.8231293" stroke="rgb(0, 0, 0)" stroke-linecap="round" stroke-linejoin="round" stroke-opacity="1.0" stroke-width="0"/>
    <path d="M 548.0366821289062 53.066978454589844 C 519.2686767578125 75.12075805664062 500.6617431640625 72.00032043457031 515.7169189453125 75.68032836914062 C 522.486572265625 113.51319885253906 476.9847106933594 80.74613952636719 325.5584411621094 94.21070861816406 C 327.4581604003906 -12.727540969848633 314.7249755859375 -51.0806884765625 365.6438903808594 -51.158348083496094 C 540.7415161132812 -11.430086135864258 538.7570190429688 -0.6763355731964111 548.0366821289062 53.066978454589844" fill="rgb(122, 227, 5)" opacity="0.9962635" stroke="rgb(0, 0, 0)" stroke-linecap="round" stroke-linejoin="round" stroke-opacity="1.0" stroke-width="0"/>
    <path d="M 200.75469970703125 289.06683349609375 C 200.62083435058594 285.4544982910156 207.25160217285156 281.18353271484375 216.71255493164062 301.4999084472656 C 181.73716735839844 340.48895263671875 94.90904998779297 358.5299987792969 163.988037109375 269.1794738769531 C 222.94850158691406 298.4456787109375 190.95643615722656 294.31610107421875 240.5587615966797 253.32566833496094 C 229.30355834960938 259.50274658203125 222.078857421875 277.25408935546875 200.75469970703125 289.06683349609375" fill="rgb(160, 225, 253)" opacity="0.24610549" stroke="rgb(0, 0, 0)" stroke-linecap="round" stroke-linejoin="round" stroke-opacity="1.0" stroke-width="0"/>
    <path d="M 109.63899230957031 382.23187255859375 C 57.38540267944336 417.44500732421875 56.1268424987793 430.8395080566406 20.454362869262695 469.487060546875 C 8.526541709899902 445.18572998046875 -0.5541775822639465 442.56842041015625 -33.33172607421875 401.95428466796875 C -12.757217407226562 355.3151550292969 -5.829013824462891 346.3584899902344 49.551666259765625 338.8602600097656 C 78.58428192138672 364.5262756347656 91.07720184326172 368.8221130371094 109.63899230957031 382.23187255859375" fill="rgb(46, 55, 255)" opacity="0.64922756" stroke="rgb(0, 0, 0)" stroke-linecap="round" stroke-linejoin="round" stroke-opacity="1.0" stroke-width="0"/>
    <path d="M 254.9068145751953 314.6610412597656 C 256.6553649902344 360.377197265625 267.216552734375 378.5401611328125 270.42864990234375 342.8313293457031 C 282.1449279785156 343.48193359375 266.4820251464844 342.3759765625 260.2072448730469 332.7807922363281 C 223.91575622558594 333.51959228515625 295.0069885253906 314.8328552246094 250.60488891601562 307.368408203125 C 259.38330078125 334.06109619140625 260.0067138671875 298.76751708984375 254.9068145751953 314.6610412597656" fill="rgb(252, 138, 138)" opacity="0.2850975" stroke="rgb(0, 0, 0)" stroke-linecap="round" stroke-linejoin="round" stroke-opacity="1.0" stroke-width="0"/>
    <path d="M 362.269775390625 196.25326538085938 C 363.7138977050781 188.99319458007812 365.55181884765625 202.14442443847656 359.7563171386719 183.1481475830078 C 354.78125 194.7111358642578 355.5335693359375 225.201904296875 363.9130859375 249.38563537597656 C 381.85137939453125 218.32139587402344 395.8823547363281 207.85536193847656 400.7650146484375 130.91665649414062 C 340.4977722167969 165.0606689453125 353.3848571777344 196.99342346191406 362.269775390625 196.25326538085938" fill="rgb(21, 51, 240)" opacity="1.0" stroke="rgb(0, 0, 0)" stroke-linecap="round" stroke-linejoin="round" stroke-opacity="1.0" stroke-width="0"/>
    <path d="M 147.8548583984375 250.49771118164062 C 151.39962768554688 357.45025634765625 153.3209228515625 323.1789855957031 218.10765075683594 316.5614929199219 C 38.2989501953125 371.0775451660156 140.0592803955078 360.5538024902344 55.39522933959961 207.2937469482422 C 48.1290397644043 229.7376251220703 58.062950134277344 173.75247192382812 107.43656921386719 115.08282470703125 C 133.0369110107422 283.5837707519531 152.5570526123047 226.24375915527344 147.8548583984375 250.49771118164062" fill="rgb(40, 55, 253)" opacity="0.99179226" stroke="rgb(0, 0, 0)" stroke-linecap="round" stroke-linejoin="round" stroke-opacity="1.0" stroke-width="0"/>
    <path d="M 139.75624084472656 500.1866760253906 C 125.78099060058594 528.074951171875 108.19091796875 523.7888793945312 86.14752960205078 537.0765380859375 C 61.74118423461914 541.9224243164062 55.68268966674805 538.72705078125 -8.467111587524414 470.2021484375 C 25.273208618164062 441.7786560058594 35.328617095947266 430.1997375488281 150.6320343017578 359.171630859375 C 222.69741821289062 418.6761779785156 163.40628051757812 450.4271240234375 139.75624084472656 500.1866760253906" fill="rgb(22, 58, 242)" opacity="1.0" stroke="rgb(0, 0, 0)" stroke-linecap="round" stroke-linejoin="round" stroke-opacity="1.0" stroke-width="0"/>
    <path d="M 127.34127807617188 305.5907287597656 C 48.703006744384766 327.1460266113281 118.15544128417969 318.410400390625 176.01722717285156 359.2444152832031 C 106.85003662109375 442.783935546875 62.496944427490234 429.926025390625 -22.19929313659668 389.68798828125 C -20.578584671020508 245.97276306152344 -9.894933700561523 203.80238342285156 50.60279083251953 236.53233337402344 C 125.22991943359375 319.87225341796875 86.3485336303711 263.21209716796875 127.34127807617188 305.5907287597656" fill="rgb(51, 226, 62)" opacity="1.0" stroke="rgb(0, 0, 0)" stroke-linecap="round" stroke-linejoin="round" stroke-opacity="1.0" stroke-width="0"/>
    <path d="M 205.81643676757812 528.3353881835938 C 211.61148071289062 532.5513305664062 198.0033416748047 520.832763671875 168.87689208984375 503.8851318359375 C 163.5253143310547 470.6749267578125 164.50643920898438 478.0137939453125 123.08716583251953 492.8352966308594 C 117.44429779052734 445.357177734375 120.89041137695312 445.61572265625 178.5668487548828 378.66107177734375 C 199.35696411132812 434.9478454589844 182.00723266601562 461.6026611328125 205.81643676757812 528.3353881835938" fill="rgb(81, 151, 255)" opacity="0.0" stroke="rgb(0, 0, 0)" stroke-linecap="round" stroke-linejoin="round" stroke-opacity="1.0" stroke-width="0"/>
    <path d="M 126.59066772460938 249.30047607421875 C 118.12018585205078 268.7135925292969 126.07779693603516 249.2536163330078 127.58868408203125 265.06988525390625 C 42.901023864746094 277.1824645996094 46.4139518737793 271.69561767578125 8.630170822143555 232.36648559570312 C 35.740447998046875 202.50083923339844 45.87576675415039 171.62408447265625 98.1369857788086 115.31149291992188 C 103.73501586914062 172.4342803955078 111.81258392333984 194.3296356201172 126.59066772460938 249.30047607421875" fill="rgb(59, 221, 68)" opacity="0.98683417" stroke="rgb(0, 0, 0)" stroke-linecap="round" stroke-linejoin="round" stroke-opacity="1.0" stroke-width="0"/>
    <path d="M 112.72581481933594 154.41641235351562 C 107.56463623046875 125.9146957397461 103.36617279052734 134.29136657714844 103.57308959960938 143.39068603515625 C 117.0353012084961 137.61663818359375 105.1655044555664 122.48792266845703 111.23214721679688 114.78343200683594 C 102.88563537597656 91.07989501953125 149.30804443359375 114.79326629638672 114.53581237792969 89.48916625976562 C 76.16683197021484 111.24082946777344 113.79058074951172 157.2703857421875 112.72581481933594 154.41641235351562" fill="rgb(36, 70, 254)" opacity="0.9649991" stroke="rgb(0, 0, 0)" stroke-linecap="round" stroke-linejoin="round" stroke-opacity="1.0" stroke-width="0"/>
    <path d="M 285.19378662109375 244.4578094482422 C 262.5517883300781 258.0196533203125 282.79412841796875 250.52410888671875 282.4837646484375 252.41021728515625 C 291.3762512207031 226.2650604248047 228.32325744628906 258.1548767089844 242.04818725585938 236.63685607910156 C 147.2154083251953 226.5855255126953 228.767333984375 222.88418579101562 302.75640869140625 227.9103240966797 C 248.75758361816406 251.79991149902344 264.7146301269531 251.71063232421875 285.19378662109375 244.4578094482422" fill="rgb(0, 47, 177)" opacity="0.1607204" stroke="rgb(0, 0, 0)" stroke-linecap="round" stroke-linejoin="round" stroke-opacity="1.0" stroke-width="0"/>
    <path d="M 276.8975524902344 343.9153137207031 C 269.19805908203125 308.91693115234375 401.671142578125 426.1055603027344 359.8105163574219 382.7626953125 C 284.9806823730469 320.3970031738281 266.5553894042969 329.7917175292969 239.72142028808594 344.520263671875 C 268.9289855957031 295.5449523925781 253.2764892578125 364.9775390625 285.98614501953125 339.3067321777344 C 294.70721435546875 349.83123779296875 282.2239685058594 333.8372802734375 276.8975524902344 343.9153137207031" fill="rgb(105, 8, 218)" opacity="0.89147323" stroke="rgb(0, 0, 0)" stroke-linecap="round" stroke-linejoin="round" stroke-opacity="1.0" stroke-width="0"/>
    <path d="M 37.37644577026367 527.4915771484375 C 17.63055419921875 520.297607421875 10.367242813110352 526.9745483398438 0.9059716463088989 531.2067260742188 C -9.364206314086914 527.7437133789062 -16.68471336364746 520.4232177734375 -22.377473831176758 508.6921691894531 C -35.419219970703125 483.92755126953125 -44.54616165161133 459.21405029296875 3.7906713485717773 429.73773193359375 C 66.7757339477539 429.28717041015625 43.61137390136719 465.4797058105469 37.37644577026367 527.4915771484375" fill="rgb(52, 74, 247)" opacity="1.0" stroke="rgb(0, 0, 0)" stroke-linecap="round" stroke-linejoin="round" stroke-opacity="1.0" stroke-width="0"/>
    <path d="M 365.59844970703125 307.4981689453125 C 350.7851867675781 346.10992431640625 355.2244567871094 324.2516784667969 419.2637939453125 349.2607116699219 C 267.2086181640625 311.9766540527344 233.9877166748047 303.7228698730469 363.8682861328125 330.0821838378906 C 360.65338134765625 310.9666748046875 353.9530944824219 358.9252014160156 365.7537536621094 300.65594482421875 C 322.4438781738281 295.45306396484375 317.7851867675781 303.7640686035156 365.59844970703125 307.4981689453125" fill="rgb(170, 101, 84)" opacity="0.8833247" stroke="rgb(0, 0, 0)" stroke-linecap="round" stroke-linejoin="round" stroke-opacity="1.0" stroke-width="0"/>
    <path d="M 301.74755859375 399.9330749511719 C 290.3712463378906 404.2556457519531 289.23028564453125 414.7010192871094 296.21551513671875 414.87945556640625 C 286.3763427734375 411.7662658691406 286.5221252441406 408.0049133300781 200.41036987304688 443.995849609375 C 163.10020446777344 379.1342468261719 131.47512817382812 365.3833923339844 243.37879943847656 395.9503173828125 C 357.23583984375 383.6776123046875 309.4866027832031 378.288818359375 301.74755859375 399.9330749511719" fill="rgb(80, 144, 255)" opacity="0.89906573" stroke="rgb(0, 0, 0)" stroke-linecap="round" stroke-linejoin="round" stroke-opacity="1.0" stroke-width="0"/>
    <path d="M 311.8413391113281 480.6282653808594 C 316.13360595703125 491.1595764160156 328.1318664550781 516.732177734375 310.3306579589844 530.7094116210938 C 284.37481689453125 510.321533203125 292.2933654785156 474.4343566894531 276.6761169433594 450.193359375 C 274.71673583984375 458.7005310058594 281.32861328125 439.9081115722656 296.0142822265625 451.0648193359375 C 306.0542297363281 455.3681640625 307.212158203125 471.6589050292969 311.8413391113281 480.6282653808594" fill="rgb(255, 255, 175)" opacity="1.0" stroke="rgb(0, 0, 0)" stroke-linecap="round" stroke-linejoin="round" stroke-opacity="1.0" stroke-width="0"/>
    <path d="M 315.8363342285156 154.11041259765625 C 297.0500183105469 180.33848571777344 294.8285827636719 191.28123474121094 277.22369384765625 194.8060302734375 C 267.5268249511719 192.2344207763672 253.1201629638672 187.50328063964844 257.9803161621094 167.0282745361328 C 285.5440368652344 171.23300170898438 292.62384033203125 169.54054260253906 305.21112060546875 152.04859924316406 C 315.279296875 135.77223205566406 338.1544494628906 133.99081420898438 315.8363342285156 154.11041259765625" fill="rgb(18, 77, 255)" opacity="1.0" stroke="rgb(0, 0, 0)" stroke-linecap="round" stroke-linejoin="round" stroke-opacity="1.0" stroke-width="0"/>
    <path d="M 364.1892395019531 248.0061798095703 C 352.3419494628906 267.7679748535156 336.3727722167969 267.8313293457031 332.07574462890625 246.2000732421875 C 344.78204345703125 248.86080932617188 331.79681396484375 231.6321563720703 323.5484924316406 228.78692626953125 C 342.2767639160156 222.3346710205078 332.7945251464844 221.9377899169922 335.54339599609375 242.89881896972656 C 362.3289794921875 227.9312286376953 382.0475158691406 222.49789428710938 364.1892395019531 248.0061798095703" fill="rgb(98, 61, 142)" opacity="0.3373344" stroke="rgb(0, 0, 0)" stroke-linecap="round" stroke-linejoin="round" stroke-opacity="1.0" stroke-width="0"/>
    <path d="M 294.6451110839844 408.6506652832031 C 298.6010437011719 405.18109130859375 287.7510986328125 414.7441711425781 284.3882141113281 437.6314697265625 C 276.8253479003906 434.0779113769531 274.1736145019531 416.71734619140625 274.50323486328125 415.60430908203125 C 276.3064880371094 404.1190490722656 290.977294921875 401.2293395996094 302.374755859375 396.3907775878906 C 308.7005920410156 398.0856628417969 297.4884033203125 414.2400817871094 294.6451110839844 408.6506652832031" fill="rgb(252, 132, 139)" opacity="0.98380846" stroke="rgb(0, 0, 0)" stroke-linecap="round" stroke-linejoin="round" stroke-opacity="1.0" stroke-width="0"/>
    <path d="M 154.33447265625 51.55027389526367 C 159.49661254882812 56.831932067871094 164.39442443847656 92.91690063476562 157.5071258544922 96.31197357177734 C 111.22039794921875 89.55081176757812 98.28630065917969 87.39772033691406 107.00904083251953 68.33965301513672 C 104.84475708007812 47.75911331176758 109.70063018798828 41.908443450927734 143.0155792236328 39.0196533203125 C 159.8148956298828 37.733402252197266 149.28668212890625 53.578250885009766 154.33447265625 51.55027389526367" fill="rgb(88, 255, 39)" opacity="0.99710745" stroke="rgb(0, 0, 0)" stroke-linecap="round" stroke-linejoin="round" stroke-opacity="1.0" stroke-width="0"/>
    <path d="M 101.3287582397461 348.8395080566406 C 92.8106918334961 345.8540344238281 89.97040557861328 357.73529052734375 103.1395034790039 351.938232421875 C 110.97563171386719 355.28564453125 114.43408203125 342.09429931640625 117.66305541992188 355.6805419921875 C 110.55093383789062 364.9514465332031 112.04032135009766 363.3443298339844 113.68306732177734 340.22833251953125 C 151.29025268554688 334.86773681640625 147.43234252929688 343.0047607421875 101.3287582397461 348.8395080566406" fill="rgb(192, 139, 240)" opacity="0.72918975" stroke="rgb(0, 0, 0)" stroke-linecap="round" stroke-linejoin="round" stroke-opacity="1.0" stroke-width="0"/>
    <path d="M 101.06083679199219 106.20983123779297 C 96.15169525146484 168.65032958984375 105.8603744506836 155.2832794189453 104.30266571044922 153.44635009765625 C 83.41053009033203 156.40353393554688 93.3171157836914 152.29025268554688 88.63377380371094 134.67178344726562 C 76.27838897705078 106.35623931884766 72.10877990722656 105.59269714355469 104.29298400878906 95.86727142333984 C 106.3329086303711 87.58189392089844 100.200927734375 102.85387420654297 101.06083679199219 106.20983123779297" fill="rgb(30, 210, 72)" opacity="0.96111846" stroke="rgb(0, 0, 0)" stroke-linecap="round" stroke-linejoin="round" stroke-opacity="1.0" stroke-width="0"/>
    <path d="M 422.6505432128906 317.0910949707031 C 416.2430114746094 326.052001953125 411.2674255371094 312.6253662109375 418.30743408203125 320.087158203125 C 420.7294006347656 321.8880310058594 389.5972595214844 329.2875671386719 375.50262451171875 332.7654724121094 C 366.693603515625 303.5086975097656 381.9925537109375 309.35772705078125 411.3830261230469 316.2341613769531 C 398.1015319824219 324.7781066894531 398.6868591308594 319.3036804199219 422.6505432128906 317.0910949707031" fill="rgb(231, 134, 28)" opacity="0.8902002" stroke="rgb(0, 0, 0)" stroke-linecap="round" stroke-linejoin="round" stroke-opacity="1.0" stroke-width="0"/>
    <path d="M 294.38177490234375 434.3997497558594 C 298.77276611328125 449.2029113769531 300.5666809082031 457.22216796875 285.4159240722656 473.54974365234375 C 248.94081115722656 464.1024169921875 255.00811767578125 459.2244873046875 255.57749938964844 428.5678405761719 C 253.64048767089844 419.8808898925781 254.880615234375 410.1189880371094 289.4273681640625 404.79644775390625 C 311.4051513671875 397.1010437011719 301.4951171875 390.0090637207031 294.38177490234375 434.3997497558594" fill="rgb(255, 255, 152)" opacity="1.0" stroke="rgb(0, 0, 0)" stroke-linecap="round" stroke-linejoin="round" stroke-opacity="1.0" stroke-width="0"/>
    <path d="M 260.7325744628906 259.4029541015625 C 246.36209106445312 272.7533264160156 232.03829956054688 282.9664306640625 222.16204833984375 293.2682189941406 C 209.7705841064453 304.227294921875 197.04058837890625 311.29302978515625 208.86099243164062 309.7890930175781 C 214.0478973388672 269.6883544921875 229.70181274414062 252.46893310546875 233.0096435546875 261.6845703125 C 239.52493286132812 254.832763671875 261.9042053222656 246.96287536621094 260.7325744628906 259.4029541015625" fill="rgb(17, 60, 255)" opacity="0.2016911" stroke="rgb(0, 0, 0)" stroke-linecap="round" stroke-linejoin="round" stroke-opacity="1.0" stroke-width="0"/>
    <path d="M 185.503662109375 358.59918212890625 C 169.41793823242188 366.89263916015625 158.91607666015625 371.3228454589844 147.5473175048828 390.4922180175781 C 161.9613800048828 372.51739501953125 168.9658660888672 369.4676208496094 126.2535171508789 363.23419189453125 C 84.2854995727539 355.6878356933594 111.26464080810547 342.48187255859375 159.7046356201172 335.8151550292969 C 164.09780883789062 327.69439697265625 173.5714874267578 347.96807861328125 185.503662109375 358.59918212890625" fill="rgb(105, 151, 238)" opacity="0.9199566" stroke="rgb(0, 0, 0)" stroke-linecap="round" stroke-linejoin="round" stroke-opacity="1.0" stroke-width="0"/>
    <path d="M 166.01040649414062 -3.3326833248138428 C 200.64096069335938 -0.9008150696754456 180.1937713623047 23.906208038330078 144.08766174316406 34.336116790771484 C 136.78768920898438 27.873123168945312 141.94178771972656 4.177238464355469 136.0501251220703 3.766364574432373 C 150.14613342285156 6.4176154136657715 148.5061492919922 -7.139883995056152 152.29403686523438 -13.988279342651367 C 164.97213745117188 -9.263557434082031 162.97705078125 -1.573534369468689 166.01040649414062 -3.3326833248138428" fill="rgb(109, 236, 48)" opacity="0.19971548" stroke="rgb(0, 0, 0)" stroke-linecap="round" stroke-linejoin="round" stroke-opacity="1.0" stroke-width="0"/>
    <path d="M 258.5449523925781 305.0979309082031 C 275.91943359375 308.32672119140625 261.9449462890625 310.49603271484375 255.9065399169922 324.3890686035156 C 252.9802703857422 314.4957580566406 240.35006713867188 317.25311279296875 244.9915313720703 304.79779052734375 C 245.56858825683594 312.8006591796875 246.6504669189453 305.8329772949219 265.19964599609375 301.9463195800781 C 260.3084716796875 300.20208740234375 260.1215515136719 307.5194396972656 258.5449523925781 305.0979309082031" fill="rgb(23, 0, 53)" opacity="0.996287" stroke="rgb(0, 0, 0)" stroke-linecap="round" stroke-linejoin="round" stroke-opacity="1.0" stroke-width="0"/>
    <path d="M 85.09431457519531 126.7538070678711 C 88.13799285888672 155.83238220214844 73.8425521850586 158.59544372558594 46.03882598876953 151.5756378173828 C 35.19392776489258 147.23008728027344 30.21959686279297 135.87503051757812 39.47095489501953 143.51800537109375 C 36.367008209228516 125.14645385742188 39.13446807861328 121.734619140625 45.40312957763672 115.15221405029297 C 54.72331619262695 106.32044219970703 75.88933563232422 114.32489776611328 85.09431457519531 126.7538070678711" fill="rgb(93, 192, 153)" opacity="0.13892575" stroke="rgb(0, 0, 0)" stroke-linecap="round" stroke-linejoin="round" stroke-opacity="1.0" stroke-width="0"/>
    <path d="M 524.3159790039062 32.016822814941406 C 524.0466918945312 56.55280303955078 515.2966918945312 68.23977661132812 506.2167663574219 55.426918029785156 C 483.4031677246094 54.82619094848633 488.2142333984375 41.1327018737793 488.4562072753906 40.678314208984375 C 486.4261779785156 17.080007553100586 479.9974670410156 -1.1606733798980713 497.3944091796875 -3.630065679550171 C 507.28253173828125 26.887054443359375 518.5556030273438 26.71880531311035 524.3159790039062 32.016822814941406" fill="rgb(213, 221, 0)" opacity="0.21470343" stroke="rgb(0, 0, 0)" stroke-linecap="round" stroke-linejoin="round" stroke-opacity="1.0" stroke-width="0"/>
    <path d="M 299.7623291015625 292.6543273925781 C 294.8079528808594 300.6536865234375 294.1748046875 301.91510009765625 283.98565673828125 302.427001953125 C 269.07940673828125 304.9486083984375 253.28407287597656 307.29986572265625 256.4730224609375 304.5840148925781 C 258.927734375 252.54067993164062 257.8404846191406 266.1153259277344 278.8116455078125 280.6470031738281 C 298.09423828125 283.9678955078125 303.5887756347656 284.61260986328125 299.7623291015625 292.6543273925781" fill="rgb(241, 101, 35)" opacity="0.64172405" stroke="rgb(0, 0, 0)" stroke-linecap="round" stroke-linejoin="round" stroke-opacity="1.0" stroke-width="0"/>
    <path d="M 294.0329284667969 212.8823699951172 C 298.33154296875 241.0887908935547 287.69708251953125 245.6571044921875 267.9450378417969 237.9359588623047 C 249.90635681152344 251.64584350585938 251.92835998535156 241.4691162109375 260.7580871582031 206.01229858398438 C 254.61395263671875 215.45404052734375 273.3535461425781 211.53543090820312 273.9571838378906 217.42637634277344 C 278.804443359375 221.5135955810547 297.5433349609375 216.7721405029297 294.0329284667969 212.8823699951172" fill="rgb(136, 83, 156)" opacity="0.9971646" stroke="rgb(0, 0, 0)" stroke-linecap="round" stroke-linejoin="round" stroke-opacity="1.0" stroke-width="0"/>
    <path d="M 85.26612854003906 325.5448303222656 C 55.43319320678711 342.69873046875 45.38148498535156 347.698486328125 27.753467559814453 355.809814453125 C 20.952838897705078 349.08135986328125 10.677838325500488 337.29986572265625 15.08117961883545 331.9750671386719 C 19.45513153076172 319.4495544433594 27.9909725189209 308.140380859375 44.978206634521484 297.31121826171875 C 71.93144989013672 279.9388427734375 91.5580825805664 303.060546875 85.26612854003906 325.5448303222656" fill="rgb(0, 0, 48)" opacity="1.0" stroke="rgb(0, 0, 0)" stroke-linecap="round" stroke-linejoin="round" stroke-opacity="1.0" stroke-width="0"/>
    <path d="M 219.84063720703125 453.3687438964844 C 197.32872009277344 457.7347106933594 197.06529235839844 464.28973388671875 197.68467712402344 474.7189025878906 C 200.8086700439453 459.6138000488281 202.18899536132812 453.2242431640625 188.34921264648438 446.42388916015625 C 185.17848205566406 444.5591735839844 188.59494018554688 442.4983215332031 207.6258087158203 437.4145812988281 C 217.73419189453125 438.3285827636719 214.83091735839844 444.098876953125 219.84063720703125 453.3687438964844" fill="rgb(226, 229, 198)" opacity="0.07769578" stroke="rgb(0, 0, 0)" stroke-linecap="round" stroke-linejoin="round" stroke-opacity="1.0" stroke-width="0"/>
    <path d="M 44.75596618652344 348.61737060546875 C 31.818206787109375 369.75048828125 21.729389190673828 378.5221252441406 30.822154998779297 416.140625 C -10.356138229370117 399.1358947753906 -29.228111267089844 396.7257080078125 -14.846030235290527 375.40277099609375 C -1.5505764484405518 346.6251525878906 2.610213279724121 332.1263732910156 31.026042938232422 308.1756591796875 C 63.096343994140625 330.15631103515625 64.61459350585938 340.4761657714844 44.75596618652344 348.61737060546875" fill="rgb(238, 216, 246)" opacity="1.0" stroke="rgb(0, 0, 0)" stroke-linecap="round" stroke-linejoin="round" stroke-opacity="1.0" stroke-width="0"/>
    <path d="M 219.3980712890625 434.7875061035156 C 211.79037475585938 457.06292724609375 191.7156219482422 452.547119140625 186.99136352539062 450.08734130859375 C 185.5447998046875 442.747314453125 185.49095153808594 431.0296936035156 169.48403930664062 426.5902404785156 C 168.6585235595703 436.13800048828125 176.71324157714844 428.6204528808594 171.55880737304688 431.57000732421875 C 174.916259765625 434.54437255859375 202.6475372314453 428.7688903808594 219.3980712890625 434.7875061035156" fill="rgb(214, 147, 184)" opacity="0.0047691534" stroke="rgb(0, 0, 0)" stroke-linecap="round" stroke-linejoin="round" stroke-opacity="1.0" stroke-width="0"/>
    <path d="M 381.0823059082031 230.7146453857422 C 382.4105529785156 244.24822998046875 355.5727844238281 240.1862335205078 352.2735900878906 235.0264129638672 C 358.1903381347656 230.1461181640625 356.7398986816406 210.2407684326172 342.6366882324219 223.62535095214844 C 317.32537841796875 218.10809326171875 322.0592041015625 193.3755645751953 356.05218505859375 195.71031188964844 C 362.5382995605469 212.00259399414062 375.3465881347656 213.64077758789062 381.0823059082031 230.7146453857422" fill="rgb(204, 134, 24)" opacity="1.0" stroke="rgb(0, 0, 0)" stroke-linecap="round" stroke-linejoin="round" stroke-opacity="1.0" stroke-width="0"/>
    <path d="M 194.76963806152344 250.89926147460938 C 193.8594970703125 269.5877685546875 191.8545684814453 273.7138671875 186.30499267578125 269.3731689453125 C 167.56634521484375 263.09405517578125 160.25518798828125 256.4980163574219 154.7438507080078 243.1603546142578 C 153.10218811035156 231.6154022216797 154.0439910888672 226.53173828125 172.51393127441406 231.83770751953125 C 192.61158752441406 228.39312744140625 199.58682250976562 233.92576599121094 194.76963806152344 250.89926147460938" fill="rgb(6, 28, 241)" opacity="0.0031045515" stroke="rgb(0, 0, 0)" stroke-linecap="round" stroke-linejoin="round" stroke-opacity="1.0" stroke-width="0"/>
    <path d="M 272.7840270996094 261.2262878417969 C 269.86572265625 253.42689514160156 268.6192321777344 259.9770812988281 269.1360168457031 280.676025390625 C 251.1184539794922 285.2679748535156 256.98187255859375 276.9371032714844 254.67822265625 231.84898376464844 C 257.8542175292969 234.7616729736328 275.973876953125 236.5828857421875 274.8734130859375 246.3417205810547 C 275.2921447753906 244.218505859375 276.99072265625 262.27618408203125 272.7840270996094 261.2262878417969" fill="rgb(233, 180, 39)" opacity="0.46803033" stroke="rgb(0, 0, 0)" stroke-linecap="round" stroke-linejoin="round" stroke-opacity="1.0" stroke-width="0"/>
    <path d="M 183.3185577392578 353.742431640625 C 192.5143585205078 347.56903076171875 180.0427703857422 365.8957214355469 175.33297729492188 368.7958068847656 C 174.10543823242188 350.29522705078125 154.07693481445312 346.3573913574219 149.595947265625 336.4537353515625 C 162.1556396484375 338.93426513671875 167.1736297607422 330.2248840332031 163.09384155273438 326.0688171386719 C 162.06106567382812 337.3979797363281 169.82240295410156 353.5087890625 183.3185577392578 353.742431640625" fill="rgb(139, 164, 255)" opacity="0.31055036" stroke="rgb(0, 0, 0)" stroke-linecap="round" stroke-linejoin="round" stroke-opacity="1.0" stroke-width="0"/>
    <path d="M 449.28704833984375 450.81378173828125 C 449.684814453125 458.45599365234375 448.62237548828125 472.7413024902344 443.1669616699219 478.5775451660156 C 438.28594970703125 465.2883605957031 432.6307678222656 455.8291931152344 428.53118896484375 444.28436279296875 C 432.80316162109375 453.1319580078125 440.1078796386719 451.2531433105469 429.83966064453125 445.13287353515625 C 435.2289733886719 452.35882568359375 442.03533935546875 460.0731506347656 449.28704833984375 450.81378173828125" fill="rgb(100, 222, 63)" opacity="0.009306386" stroke="rgb(0, 0, 0)" stroke-linecap="round" stroke-linejoin="round" stroke-opacity="1.0" stroke-width="0"/>
    <path d="M 452.8621520996094 371.9804382324219 C 446.718505859375 370.3079528808594 440.8367004394531 377.7740173339844 435.9233703613281 384.5289611816406 C 426.2348937988281 388.3291015625 419.384521484375 375.6412658691406 433.3758239746094 373.5616760253906 C 430.0092468261719 363.0057373046875 436.278564453125 353.2209777832031 443.1275634765625 346.1993713378906 C 440.3447570800781 349.52313232421875 447.14825439453125 361.5244445800781 452.8621520996094 371.9804382324219" fill="rgb(109, 255, 13)" opacity="0.0" stroke="rgb(0, 0, 0)" stroke-linecap="round" stroke-linejoin="round" stroke-opacity="1.0" stroke-width="0"/>
    <path d="M 37.39678192138672 117.59241485595703 C 43.60409164428711 129.20172119140625 38.835853576660156 135.8503875732422 30.51228141784668 133.57730102539062 C 23.679216384887695 122.46258544921875 14.678431510925293 119.77391815185547 19.684925079345703 122.69367218017578 C 23.49664306640625 130.27720642089844 26.896196365356445 120.27979278564453 24.21872329711914 105.50828552246094 C 31.486387252807617 105.4395523071289 38.05893325805664 112.42488098144531 37.39678192138672 117.59241485595703" fill="rgb(129, 240, 49)" opacity="0.0" stroke="rgb(0, 0, 0)" stroke-linecap="round" stroke-linejoin="round" stroke-opacity="1.0" stroke-width="0"/>
    <path d="M 395.2799377441406 103.21998596191406 C 389.02911376953125 124.04476928710938 383.88726806640625 129.22610473632812 378.4029235839844 120.9759292602539 C 366.8387145996094 114.50299072265625 353.9379577636719 117.21039581298828 358.5356140136719 117.95825958251953 C 361.8701477050781 108.4223403930664 364.28875732421875 94.29933166503906 369.77191162109375 77.63311004638672 C 379.68365478515625 92.52587890625 379.1438903808594 107.1053695678711 395.2799377441406 103.21998596191406" fill="rgb(170, 70, 180)" opacity="0.0" stroke="rgb(0, 0, 0)" stroke-linecap="round" stroke-linejoin="round" stroke-opacity="1.0" stroke-width="0"/>
    <path d="M 32.57017135620117 491.0047912597656 C 54.409942626953125 486.164306640625 49.40391540527344 496.33001708984375 31.426450729370117 497.8470764160156 C 29.21015167236328 479.29180908203125 24.799985885620117 469.61639404296875 15.778206825256348 471.6090393066406 C 14.244405746459961 462.849365234375 19.300615310668945 455.8804016113281 22.305721282958984 451.01312255859375 C 27.645944595336914 463.1761169433594 33.856544494628906 473.7169494628906 32.57017135620117 491.0047912597656" fill="rgb(84, 118, 212)" opacity="0.008853295" stroke="rgb(0, 0, 0)" stroke-linecap="round" stroke-linejoin="round" stroke-opacity="1.0" stroke-width="0"/>
    <path d="M 149.22222900390625 232.73956298828125 C 147.08328247070312 247.2216796875 144.11346435546875 256.79266357421875 145.6478729248047 249.9194793701172 C 133.55227661132812 253.4327850341797 123.9529037475586 251.6956329345703 123.99140167236328 249.25350952148438 C 130.25160217285156 247.00338745117188 132.21585083007812 230.88804626464844 139.21644592285156 218.1511688232422 C 157.83392333984375 223.39376831054688 157.12208557128906 225.0646514892578 149.22222900390625 232.73956298828125" fill="rgb(15, 100, 249)" opacity="0.18826517" stroke="rgb(0, 0, 0)" stroke-linecap="round" stroke-linejoin="round" stroke-opacity="1.0" stroke-width="0"/>
    <path d="M 292.4847106933594 18.73663330078125 C 296.8630065917969 28.38783836364746 286.0094299316406 29.71487808227539 271.6938781738281 28.959020614624023 C 265.7984619140625 28.4735107421875 256.3086853027344 23.280839920043945 257.052490234375 13.152291297912598 C 255.3013153076172 4.310489654541016 268.6736755371094 3.2287442684173584 286.66265869140625 0.9830878376960754 C 277.2531433105469 -5.878316879272461 280.566650390625 8.855020523071289 292.4847106933594 18.73663330078125" fill="rgb(154, 237, 78)" opacity="0.050028272" stroke="rgb(0, 0, 0)" stroke-linecap="round" stroke-linejoin="round" stroke-opacity="1.0" stroke-width="0"/>
    <path d="M 530.874755859375 253.21681213378906 C 528.4869995117188 263.8260803222656 523.25 273.62017822265625 518.8135375976562 269.7244873046875 C 508.90771484375 263.8161926269531 500.7663879394531 254.77655029296875 494.4792785644531 247.15084838867188 C 502.7078552246094 251.42327880859375 508.0468444824219 241.9280548095703 503.7230224609375 232.45570373535156 C 516.7794799804688 241.4119873046875 527.6322021484375 244.3436737060547 530.874755859375 253.21681213378906" fill="rgb(149, 227, 27)" opacity="0.091338314" stroke="rgb(0, 0, 0)" stroke-linecap="round" stroke-linejoin="round" stroke-opacity="1.0" stroke-width="0"/>
    <path d="M 135.6287841796875 159.44313049316406 C 139.5782928466797 166.80267333984375 125.86668395996094 165.95108032226562 125.1386489868164 162.8273468017578 C 111.43281555175781 162.0001678466797 100.43883514404297 159.3579864501953 107.10392761230469 166.16819763183594 C 109.35369873046875 156.12950134277344 114.57202911376953 145.63998413085938 117.26990509033203 132.05792236328125 C 127.98741912841797 133.3691864013672 133.92347717285156 142.705810546875 135.6287841796875 159.44313049316406" fill="rgb(155, 104, 118)" opacity="0.030774647" stroke="rgb(0, 0, 0)" stroke-linecap="round" stroke-linejoin="round" stroke-opacity="1.0" stroke-width="0"/>
  </g>
</svg>
